<svg width="29" height="29" viewBox="0 0 29 29" fill="none" xmlns="http://www.w3.org/2000/svg">
<g clip-path="url(#clip0_1277_29068)">
<path d="M14.4999 0C6.49181 0 0 6.49181 0 14.4999C0 22.508 6.49181 29.0001 14.4999 29.0001C22.508 29.0001 29.0001 22.508 29.0001 14.4999C28.9911 6.49553 22.5046 0.00902706 14.4999 0ZM14.4999 27.5499C7.29257 27.5499 1.44991 21.7073 1.44991 14.4999C1.44991 7.29257 7.29257 1.44991 14.4999 1.44991C21.7073 1.44991 27.5499 7.29257 27.5499 14.4999C27.5417 21.7038 21.7038 27.5417 14.4999 27.5499Z" fill="#8D8D8D"/>
<path d="M12.8022 8.87847C12.5006 8.61483 12.0426 8.64563 11.779 8.94697C11.5156 9.24859 11.5464 9.70658 11.8478 9.97022L17.024 14.4992L11.8475 19.0284C11.5459 19.292 11.5154 19.75 11.7787 20.0514C12.0424 20.353 12.5004 20.3838 12.802 20.1201L18.6019 15.045C18.7593 14.9075 18.8496 14.7084 18.8496 14.4992C18.8496 14.29 18.7593 14.0911 18.6019 13.9533L12.8022 8.87847Z" fill="#8D8D8D"/>
</g>
<defs>
<clipPath id="clip0_1277_29068">
<rect width="29" height="29" fill="white"/>
</clipPath>
</defs>
</svg>
