<svg width="29" height="28" viewBox="0 0 29 28" fill="none" xmlns="http://www.w3.org/2000/svg">
<path d="M1.2182 5.35744C1.1274 5.26738 1.05533 5.16024 1.00614 5.04218C0.956962 4.92413 0.931641 4.79751 0.931641 4.66963C0.931641 4.54174 0.956962 4.41512 1.00614 4.29707C1.05533 4.17902 1.1274 4.07187 1.2182 3.98181L4.49257 0.707439C4.67499 0.52502 4.9224 0.422538 5.18038 0.422538C5.30812 0.422538 5.43461 0.447698 5.55262 0.496582C5.67064 0.545465 5.77787 0.617115 5.8682 0.707439C5.95852 0.797764 6.03017 0.904995 6.07905 1.02301C6.12794 1.14103 6.1531 1.26751 6.1531 1.39525C6.1531 1.52299 6.12794 1.64948 6.07905 1.76749C6.03017 1.88551 5.95852 1.99274 5.8682 2.08306L2.59382 5.35744C2.50376 5.44824 2.39662 5.52031 2.27857 5.56949C2.16052 5.61867 2.03389 5.64399 1.90601 5.64399C1.77812 5.64399 1.6515 5.61867 1.53345 5.56949C1.4154 5.52031 1.30825 5.44824 1.2182 5.35744ZM1.90601 11.0828C2.0335 11.0835 2.15989 11.0591 2.27792 11.0108C2.39595 10.9626 2.5033 10.8916 2.59382 10.8018L11.3126 2.08306C11.4029 1.99274 11.4745 1.88551 11.5234 1.76749C11.5723 1.64948 11.5975 1.52299 11.5975 1.39525C11.5975 1.26751 11.5723 1.14103 11.5234 1.02301C11.4745 0.904995 11.4029 0.797764 11.3126 0.707439C11.2222 0.617115 11.115 0.545465 10.997 0.496582C10.879 0.447698 10.7525 0.422538 10.6248 0.422538C10.3668 0.422538 10.1194 0.52502 9.93694 0.707439L1.2182 9.42619C1.1274 9.51625 1.05533 9.62339 1.00614 9.74144C0.956962 9.85949 0.931641 9.98611 0.931641 10.114C0.931641 10.2419 0.956962 10.3685 1.00614 10.4866C1.05533 10.6046 1.1274 10.7118 1.2182 10.8018C1.30872 10.8916 1.41607 10.9626 1.5341 11.0108C1.65213 11.0591 1.77851 11.0835 1.90601 11.0828ZM1.90601 16.5659C2.0335 16.5666 2.15989 16.5422 2.27792 16.494C2.39595 16.4458 2.5033 16.3747 2.59382 16.2849L16.8151 2.08306C16.9228 1.99927 17.0116 1.89365 17.0757 1.77313C17.1398 1.65261 17.1777 1.51991 17.1869 1.38373C17.1961 1.24755 17.1764 1.11096 17.1292 0.982908C17.0819 0.854858 17.0081 0.738242 16.9126 0.640702C16.8171 0.543161 16.7021 0.466898 16.5751 0.416911C16.4481 0.366924 16.312 0.344341 16.1756 0.350642C16.0393 0.356943 15.9058 0.391987 15.7839 0.453475C15.6621 0.514963 15.5546 0.601509 15.4685 0.707439L1.2182 14.9578C1.1274 15.0478 1.05533 15.155 1.00614 15.273C0.956962 15.3911 0.931641 15.5177 0.931641 15.6456C0.931641 15.7734 0.956962 15.9001 1.00614 16.0181C1.05533 16.1362 1.1274 16.2433 1.2182 16.3334C1.40567 16.5041 1.65261 16.5945 1.90601 16.5852V16.5659ZM1.90601 22.049C2.0335 22.0497 2.15989 22.0253 2.27792 21.9771C2.39595 21.9289 2.5033 21.8578 2.59382 21.7681L22.2982 2.08306C22.4806 1.90065 22.5831 1.65323 22.5831 1.39525C22.5831 1.13727 22.4806 0.889859 22.2982 0.707439C22.1158 0.52502 21.8684 0.422538 21.6104 0.422538C21.3524 0.422538 21.105 0.52502 20.9226 0.707439L1.2182 20.4118C1.1274 20.5019 1.05533 20.609 1.00614 20.7271C0.956962 20.8451 0.931641 20.9717 0.931641 21.0996C0.931641 21.2275 0.956962 21.3541 1.00614 21.4722C1.05533 21.5902 1.1274 21.6974 1.2182 21.7874C1.30872 21.8772 1.41607 21.9483 1.5341 21.9965C1.65213 22.0447 1.77851 22.0691 1.90601 22.0684V22.049ZM27.7813 0.736502C27.6913 0.645702 27.5841 0.573633 27.4661 0.524451C27.348 0.475269 27.2214 0.449947 27.0935 0.449947C26.9656 0.449947 26.839 0.475269 26.7209 0.524451C26.6029 0.573633 26.4958 0.645702 26.4057 0.736502L1.2182 25.924C1.1274 26.0141 1.05533 26.1212 1.00614 26.2393C0.956962 26.3573 0.931641 26.4839 0.931641 26.6118C0.931641 26.7397 0.956962 26.8663 1.00614 26.9844C1.05533 27.1024 1.1274 27.2096 1.2182 27.2996C1.30825 27.3904 1.4154 27.4625 1.53345 27.5117C1.6515 27.5609 1.77812 27.5862 1.90601 27.5862C2.03389 27.5862 2.16052 27.5609 2.27857 27.5117C2.39662 27.4625 2.50376 27.3904 2.59382 27.2996L27.7813 2.11213C27.8766 2.02163 27.9524 1.91269 28.0043 1.79195C28.0561 1.67121 28.0828 1.54118 28.0828 1.40978C28.0828 1.27838 28.0561 1.14836 28.0043 1.02762C27.9524 0.906875 27.8766 0.79794 27.7813 0.707439V0.736502ZM26.4057 6.239L6.74976 25.8949C6.65896 25.985 6.58689 26.0921 6.53771 26.2102C6.48852 26.3282 6.4632 26.4549 6.4632 26.5827C6.4632 26.7106 6.48852 26.8373 6.53771 26.9553C6.58689 27.0734 6.65896 27.1805 6.74976 27.2706C6.83982 27.3614 6.94696 27.4334 7.06501 27.4826C7.18306 27.5318 7.30968 27.5571 7.43757 27.5571C7.56546 27.5571 7.69208 27.5318 7.81013 27.4826C7.92818 27.4334 8.03533 27.3614 8.12538 27.2706L27.7813 7.56619C27.9116 7.37722 27.9705 7.14815 27.9476 6.9198C27.9247 6.69144 27.8214 6.47863 27.6563 6.31929C27.4911 6.15994 27.2747 6.0644 27.0457 6.0497C26.8167 6.035 26.5899 6.10208 26.4057 6.239ZM26.4057 11.7221L12.1844 25.8949C12.0936 25.985 12.0216 26.0921 11.9724 26.2102C11.9232 26.3282 11.8979 26.4549 11.8979 26.5827C11.8979 26.7106 11.9232 26.8373 11.9724 26.9553C12.0216 27.0734 12.0936 27.1805 12.1844 27.2706C12.2745 27.3614 12.3816 27.4334 12.4997 27.4826C12.6178 27.5318 12.7444 27.5571 12.8723 27.5571C13.0001 27.5571 13.1268 27.5318 13.2448 27.4826C13.3629 27.4334 13.47 27.3614 13.5601 27.2706L27.7813 13.0203C27.9637 12.8378 28.0662 12.5904 28.0662 12.3324C28.0662 12.0745 27.9637 11.827 27.7813 11.6446C27.5989 11.4622 27.3515 11.3597 27.0935 11.3597C26.8355 11.3597 26.5881 11.4622 26.4057 11.6446V11.7221ZM26.4057 17.2052L17.6869 25.924C17.5961 26.0141 17.5241 26.1212 17.4749 26.2393C17.4257 26.3573 17.4004 26.4839 17.4004 26.6118C17.4004 26.7397 17.4257 26.8663 17.4749 26.9844C17.5241 27.1024 17.5961 27.2096 17.6869 27.2996C17.777 27.3904 17.8841 27.4625 18.0022 27.5117C18.1203 27.5609 18.2469 27.5862 18.3748 27.5862C18.5026 27.5862 18.6293 27.5609 18.7473 27.5117C18.8654 27.4625 18.9725 27.3904 19.0626 27.2996L27.7813 18.5809C27.9637 18.3985 28.0662 18.151 28.0662 17.8931C28.0662 17.6351 27.9637 17.3877 27.7813 17.2052C27.5989 17.0228 27.3515 16.9203 27.0935 16.9203C26.8355 16.9203 26.5881 17.0228 26.4057 17.2052ZM26.4057 22.669L23.1313 25.9434C23.0405 26.0334 22.9685 26.1406 22.9193 26.2586C22.8701 26.3767 22.8448 26.5033 22.8448 26.6312C22.8448 26.7591 22.8701 26.8857 22.9193 27.0037C22.9685 27.1218 23.0405 27.2289 23.1313 27.319C23.2214 27.4098 23.3285 27.4819 23.4466 27.531C23.5646 27.5802 23.6912 27.6056 23.8191 27.6056C23.947 27.6056 24.0736 27.5802 24.1917 27.531C24.3097 27.4819 24.4169 27.4098 24.5069 27.319L27.7813 24.0446C27.8716 23.9543 27.9433 23.8471 27.9922 23.7291C28.0411 23.611 28.0662 23.4846 28.0662 23.3568C28.0662 23.2291 28.0411 23.1026 27.9922 22.9846C27.9433 22.8666 27.8716 22.7593 27.7813 22.669C27.691 22.5787 27.5838 22.507 27.4657 22.4581C27.3477 22.4093 27.2212 22.3841 27.0935 22.3841C26.9658 22.3841 26.8393 22.4093 26.7213 22.4581C26.6033 22.507 26.496 22.5787 26.4057 22.669Z" fill="black"/>
</svg>
