<svg width="19" height="25" viewBox="0 0 19 25" fill="none" xmlns="http://www.w3.org/2000/svg">
<path d="M1.6016 13.783C1.62639 13.7846 1.65081 13.786 1.6756 13.786C2.165 13.786 2.58042 13.4087 2.61893 12.9124L2.88782 9.44386L4.70523 8.13407V13.1653C4.70523 13.4183 4.77364 13.6544 4.88311 13.863L2.84298 22.3163C2.69609 22.9274 3.07116 23.5408 3.68086 23.688C3.77113 23.7095 3.86068 23.7191 3.94913 23.7191C4.46223 23.7191 4.92722 23.3699 5.05297 22.8498L6.99699 14.7937L9.20613 15.8472L9.02084 18.8376C8.98196 19.4635 9.45764 20.0037 10.0843 20.0421C10.1088 20.0436 10.1325 20.0444 10.1561 20.0444C10.7516 20.0444 11.2518 19.5805 11.2895 18.9782L11.5233 15.2221C11.5513 14.7597 11.2969 14.3254 10.8775 14.1264L7.73645 12.6289V9.30304L8.83507 10.6144C8.99119 10.8009 9.21318 10.92 9.45387 10.9473L12.7943 11.3262C12.8305 11.3298 12.866 11.3321 12.9023 11.3321C13.3773 11.3321 13.7871 10.9751 13.8419 10.4921C13.9011 9.97227 13.5267 9.50315 13.0073 9.44398L10.0435 9.10852L7.62868 6.22638C7.55687 6.04328 7.45068 5.87792 7.31751 5.73734C7.19091 5.24757 6.7501 4.88428 6.22109 4.88428C5.82718 4.88428 5.4809 5.08415 5.27702 5.38778L1.42482 8.16445C1.19919 8.3275 1.05594 8.58205 1.03492 8.85907L0.731532 12.765C0.6901 13.2874 1.08036 13.7432 1.6016 13.783Z" fill="black"/>
<path d="M7.20994 4.70307C8.50865 4.70307 9.56147 3.65026 9.56147 2.35154C9.56147 1.05282 8.50865 0 7.20994 0C5.91122 0 4.8584 1.05282 4.8584 2.35154C4.8584 3.65026 5.91122 4.70307 7.20994 4.70307Z" fill="black"/>
<path d="M18.2849 12.7903L15.4949 13.6612L16.1371 14.3033L13.0868 16.75C12.9973 16.8218 12.9455 16.9304 12.9455 17.0453V20.4545H7.20946C7.00048 20.4545 6.83062 20.624 6.83062 20.8332V24.2425H1.09466C0.885679 24.2425 0.71582 24.4119 0.71582 24.6212C0.71582 24.8306 0.885557 25.0001 1.09466 25.0001H7.20946C7.41844 25.0001 7.5883 24.8306 7.5883 24.6212V21.212H13.3243C13.5329 21.212 13.7031 21.0425 13.7031 20.8332V17.2273L16.6765 14.842L17.4141 15.5796L18.2849 12.7903Z" fill="black"/>
</svg>
