<svg width="20" height="20" viewBox="0 0 20 20" fill="none" xmlns="http://www.w3.org/2000/svg">
<path d="M8.24219 10.5859H11.7578V11.7578H8.24219V10.5859Z" fill="black"/>
<path d="M16.2257 11.7578H12.9297V12.3437C12.9297 12.6675 12.6675 12.9297 12.3438 12.9297H7.65625C7.33246 12.9297 7.07031 12.6675 7.07031 12.3437V11.7578H3.77426C3.01666 11.7578 2.34665 11.2748 2.10678 10.5562L0 4.23474V17.0312C0 18.0005 0.788574 18.789 1.75781 18.789H18.2422C19.2114 18.789 20 18.0005 20 17.0312V4.2352L17.8931 10.5562C17.6534 11.2748 16.9833 11.7578 16.2257 11.7578Z" fill="black"/>
<path d="M12.3434 1.21094H7.65591C6.68668 1.21094 5.8981 1.99951 5.8981 2.96875V3.55469H1.00781L3.21774 10.1854C3.29785 10.4251 3.52155 10.5859 3.77393 10.5859H7.06998V10C7.06998 9.67621 7.33212 9.41406 7.65591 9.41406H12.3434C12.6672 9.41406 12.9294 9.67621 12.9294 10V10.5859H16.2254C16.4778 10.5859 16.7015 10.4251 16.7816 10.1854L18.9917 3.55469H14.1012V2.96875C14.1012 1.99951 13.3127 1.21094 12.3434 1.21094ZM7.06998 3.55469V2.96875C7.06998 2.64542 7.33258 2.38281 7.65591 2.38281H12.3434C12.6667 2.38281 12.9294 2.64542 12.9294 2.96875V3.55469H7.06998Z" fill="black"/>
</svg>
