<svg version="1.2" xmlns="http://www.w3.org/2000/svg" viewBox="0 0 581 397" width="581" height="397"><defs><clipPath clipPathUnits="userSpaceOnUse" id="cp1"><path d="m31.98 294.14h105v102h-105z"/></clipPath><linearGradient id="P" gradientUnits="userSpaceOnUse"/><radialGradient id="g1" cx="0" cy="0" r="1" href="#P" gradientTransform="matrix(86.685,0,0,86.685,67.278,366.623)"><stop stop-color="#ecf5fa"/><stop offset="1" stop-color="#a4ddff"/></radialGradient><radialGradient id="g2" cx="0" cy="0" r="1" href="#P" gradientTransform="matrix(24.464,0,0,24.464,79.629,299.933)"><stop stop-color="#ecf5fa"/><stop offset="1" stop-color="#a4ddff"/></radialGradient><linearGradient id="g3" x2="1" href="#P" gradientTransform="matrix(12.485,46.94,-47.43,12.615,76.102,319.54)"><stop stop-color="#dbeaf3"/><stop offset="1" stop-color="#569ec8"/></linearGradient><linearGradient id="g4" x2="1" href="#P" gradientTransform="matrix(8.018,26.762,-20.617,6.177,84.278,295.976)"><stop stop-color="#dbeaf3"/><stop offset="1" stop-color="#569ec8"/></linearGradient><radialGradient id="g5" cx="0" cy="0" r="1" href="#P" gradientTransform="matrix(41.584,0,0,41.584,75.37,334.599)"><stop stop-color="#ecf5fa"/><stop offset="1" stop-color="#a4ddff"/></radialGradient><linearGradient id="g6" x2="1" href="#P" gradientTransform="matrix(12.455,46.807,-33.869,9.012,82.383,318.014)"><stop stop-color="#dbeaf3"/><stop offset="1" stop-color="#569ec8"/></linearGradient><radialGradient id="g7" cx="0" cy="0" r="1" href="#P" gradientTransform="matrix(5.729,0,0,5.729,75.644,303.09)"><stop stop-color="#ecf5fa"/><stop offset="1" stop-color="#a4ddff"/></radialGradient><clipPath clipPathUnits="userSpaceOnUse" id="cp2"><path d="m460.98 254.64h37v123h-37z"/></clipPath><linearGradient id="g8" x2="1" href="#P" gradientTransform="matrix(10.379,0,0,1.072,474.453,230.432)"><stop stop-color="#a69de2"/><stop offset="1" stop-color="#5442c8"/></linearGradient><linearGradient id="g9" x2="1" href="#P" gradientTransform="matrix(5.868,21.79,-21.79,5.868,476.371,207.101)"><stop stop-color="#dbeaf3"/><stop offset="1" stop-color="#569ec8"/></linearGradient><radialGradient id="g10" cx="0" cy="0" r="1" href="#P" gradientTransform="matrix(19.101,0,0,19.101,476.033,214.103)"><stop stop-color="#dbeaf3"/><stop offset="1" stop-color="#569ec8"/></radialGradient><linearGradient id="g11" x2="1" href="#P" gradientTransform="matrix(.886,2.912,-2.912,.886,476.332,199.117)"><stop stop-color="#dbeaf3"/><stop offset="1" stop-color="#569ec8"/></linearGradient><linearGradient id="g12" x2="1" href="#P" gradientTransform="matrix(0,-139.841,165.188,0,292.169,193.532)"><stop stop-color="#a5d3f0"/><stop offset="1" stop-color="#d9eaff"/></linearGradient></defs><style>.a{fill:#d9eaff}.b{opacity:.4;mix-blend-mode:multiply;fill:#cacaca}.c{fill:#539cc7}.d{fill:url(#g1)}.e{fill:url(#g2)}.f{fill:url(#g3)}.g{opacity:.5;mix-blend-mode:multiply;fill:url(#g4)}.h{fill:url(#g5)}.i{opacity:.5;mix-blend-mode:multiply;fill:url(#g6)}.j{fill:url(#g7)}.k{fill:#f4c63d}.l{opacity:.5;fill:#e3aa00}.m{opacity:.4;mix-blend-mode:multiply;fill:url(#g8)}.n{fill:url(#g9)}.o{fill:url(#g10)}.p{opacity:.3;mix-blend-mode:color-dodge;fill:url(#g11)}.q{fill:#4c8094}.r{fill:#031e54}.s{mix-blend-mode:multiply;fill:#031e54}.t{opacity:.5;fill:url(#g12)}.u{fill:#ffb521}.v{fill:#4d4d4d}.w{fill:#fff}.x{opacity:.3;fill:#fff}.y{fill:#999}.z{fill:#e6e6e6}.A{fill:#a5d3f0}.B{fill:#1e3a47}.C{fill:#ff3636}.D{fill:#49738a}.E{mix-blend-mode:multiply;fill:#bbcad5}.F{fill:#502d0e}.G{fill:#daecfa}.H{fill:#ffb294}.I{mix-blend-mode:multiply;fill:#cc8e76}.J{fill:#2b1806}.K{fill:#d94d3b}.L{fill:#ed1c24}.M{fill:#fbb03b}.N{fill:#009245}.O{fill:#355b82}.P{fill:#183859}.Q{fill:#855044}.R{fill:#355059}.S{fill:#ffb091}.T{fill:#82171c}.U{opacity:.2;fill:#49738a}.V{opacity:.4;fill:#fff}</style><path class="a" d="m0 131.2h353c125.9 0 228 102.1 228 228h-521c-33.1 0-60-26.9-60-60z"/><g clip-path="url(#cp1)"><path class="b" d="m84.5 396.1c29 0 52.5-6.7 52.5-15 0-8.3-23.5-15-52.5-15-29 0-52.5 6.7-52.5 15 0 8.3 23.5 15 52.5 15z"/><path class="c" d="m122.9 374c-8.6-3.1-22.6-5.1-38.4-5.1-15.9 0-29.8 2-38.4 5.1h-8.8v6.6q0 0.3 0 0.5 0 0.3 0 0.5v0.1c1.1 6.5 21.8 11.6 47.2 11.6 25.3 0 46-5.1 47.1-11.6h0.1v-7.7z"/><path class="d" d="m84.5 385.7c26.1 0 47.2-5.5 47.2-12.2 0-6.8-21.1-12.3-47.2-12.3-26.1 0-47.2 5.5-47.2 12.3 0 6.7 21.1 12.2 47.2 12.2z"/><path class="b" d="m83.2 373.8c12.1 0 21.8-1.3 21.8-2.8 0-1.6-9.7-2.9-21.8-2.9-12 0-21.8 1.3-21.8 2.9 0 1.5 9.8 2.8 21.8 2.8z"/><path class="b" d="m94.5 369.7c0 0.6-5 1.2-11.3 1.2-6.2 0-11.3-0.5-11.3-1.2 0-0.6 5.1-1.1 11.3-1.1 6.3 0 11.3 0.5 11.3 1.1z"/><path class="e" d="m84.5 320.5c7.3 0 13.3-5.9 13.3-13.2 0-7.3-6-13.2-13.3-13.2-7.4 0-13.3 5.9-13.3 13.2 0 7.3 5.9 13.2 13.3 13.2z"/><path class="f" d="m84.5 324.8h-1.7c-12.1 0-21.8 9.6-21.8 21.5v1.7c0 11.9 9.7 21.5 21.8 21.5h1.7c12 0 21.8-9.6 21.8-21.5v-1.7c0-11.9-9.8-21.5-21.8-21.5z"/><path class="g" d="m90.8 307.3c0 6.1-4.1 11.2-9.8 12.7q1.7 0.5 3.5 0.5c7.3 0 13.3-5.9 13.3-13.2 0-7.3-6-13.2-13.3-13.2q-1.8 0.1-3.5 0.5c5.7 1.5 9.8 6.6 9.8 12.7z"/><path class="h" d="m84.5 324.8h-1.7c-12.1 0-21.8 9.6-21.8 21.5v1.7c0 11.9 9.7 21.5 21.8 21.5h1.7c12 0 21.8-9.6 21.8-21.5v-1.7c0-11.9-9.8-21.5-21.8-21.5z"/><path class="i" d="m84.5 324.8h-1.7q-1.8 0-3.4 0.2c10.4 1.6 18.4 10.6 18.4 21.3v1.7c0 10.7-8 19.6-18.4 21.3q1.6 0.2 3.4 0.2h1.7c12 0 21.8-9.7 21.8-21.5v-1.7c0-11.9-9.8-21.5-21.8-21.5z"/><path class="j" d="m76.8 307.9c1.7 0 3.1-1.4 3.1-3.1 0-1.7-1.4-3.1-3.1-3.1-1.7 0-3.1 1.4-3.1 3.1 0 1.7 1.4 3.1 3.1 3.1z"/></g><g clip-path="url(#cp2)"><path class="k" d="m479.5 254.6c-10.2 0-18.5 3.7-18.5 8.1v106.9c0 4.4 8.3 8 18.5 8 10.2 0 18.5-3.6 18.5-8v-106.9c0-4.5-8.3-8.1-18.5-8.1z"/><path class="l" d="m479.5 270.7c10.2 0 18.5-3.6 18.5-8 0-4.5-8.3-8.1-18.5-8.1-10.2 0-18.5 3.6-18.5 8.1 0 4.4 8.3 8 18.5 8z"/></g><path class="m" d="m479.6 231c2.9 0 5.2-0.3 5.2-0.6 0-0.3-2.3-0.5-5.2-0.5-2.8 0-5.1 0.2-5.1 0.5 0 0.3 2.3 0.6 5.1 0.6z"/><path class="n" d="m480.2 209.5h-0.8c-5.5 0-10 4.5-10 10v0.8c0 5.6 4.5 10 10 10h0.8c5.5 0 10-4.4 10-10v-0.8c0-5.5-4.5-10-10-10z"/><path class="o" d="m480.2 209.5h-0.8c-5.5 0-10 4.5-10 10v0.8c0 5.6 4.5 10 10 10h0.8c5.5 0 10-4.4 10-10v-0.8c0-5.5-4.5-10-10-10z"/><path class="p" d="m476.7 201.7c0.8 0 1.4-0.7 1.4-1.4 0-0.8-0.6-1.5-1.4-1.5-0.8 0-1.5 0.7-1.5 1.5 0 0.7 0.7 1.4 1.5 1.4z"/><path class="q" d="m436.4 254.7c-6.8-13.6-19.5-26.4-38-37.2-58.7-33.9-153.7-33.9-212.4 0-18.6 10.7-31.3 23.6-38.1 37.2h-5.9v17.8c0 22.1 14.7 44.3 44 61.3 58.6 33.9 153.7 33.9 212.3 0 29.3-16.9 44-39.1 44-61.3v-17.8z"/><path class="r" d="m292.2 341.4c82.9 0 150.1-38.8 150.1-86.7 0-47.9-67.2-86.7-150.1-86.7-83 0-150.2 38.8-150.2 86.7 0 47.9 67.2 86.7 150.2 86.7z"/><g style="opacity:.3"><path class="s" d="m305 219.7l-58.5 33.8 70.4 40.6 58.6-33.8z"/></g><g style="opacity:.3"><path class="s" d="m389.1 235.6l-39.5 22.8 47.5 27.4 39.6-22.8z"/></g><path class="t" d="m398.4 193.4c-58.7-33.9-153.7-33.9-212.4 0-29.3 16.9-43.9 39.1-43.9 61.3v-162.1c0-2.4 0.9-4.7 2.6-6.4 1.8-1.8 4.1-2.7 6.5-2.7h0.4c1.2 0 2.4-0.3 3.5-0.7 1.1-0.5 2.1-1.2 3-2 0.8-0.9 1.5-1.9 2-3 0.4-1.1 0.7-2.3 0.6-3.5v-33.2c0-1.2 0.3-2.4 0.7-3.5 0.5-1.2 1.2-2.2 2-3 0.9-0.9 1.9-1.5 3-2 1.2-0.5 2.3-0.7 3.6-0.7h0.4c2.4 0 4.7 1 6.5 2.7 1.7 1.7 2.6 4 2.6 6.5v10.4c0 2.4 1 4.8 2.7 6.5 1.7 1.7 4.1 2.7 6.5 2.7h0.4c1.2 0 2.4-0.2 3.5-0.7 1.1-0.5 2.1-1.1 3-2 0.8-0.8 1.5-1.9 1.9-3 0.5-1.1 0.7-2.3 0.7-3.5v-3.5c0-1.3 0.3-2.5 0.8-3.7 0.5-1.2 1.2-2.2 2.1-3.1 0.9-0.9 1.9-1.6 3.1-2.1 1.2-0.5 2.5-0.7 3.7-0.7 2.5 0 4.8-0.9 6.5-2.7 1.7-1.7 2.7-4 2.7-6.4v-7.1c0-2.4 0.9-4.7 2.7-6.4 1.7-1.7 4-2.7 6.4-2.7h0.4c2.4 0 4.8 1 6.5 2.7 1.7 1.7 2.7 4 2.7 6.4v15.5c0 2.4 1 4.7 2.7 6.5 1.7 1.7 4 2.6 6.5 2.6h0.5c2.4 0 4.7-0.9 6.4-2.6 1.8-1.8 2.7-4.1 2.7-6.5v-28c0-2.5 1-4.8 2.7-6.5 1.7-1.7 4.1-2.7 6.5-2.7h0.4c2.4 0 4.7 1 6.4 2.7 1.8 1.7 2.7 4.1 2.7 6.5 0 2.4 1 4.8 2.7 6.5 1.8 1.7 4.1 2.7 6.5 2.7h0.5c2.4 0 4.8 0.9 6.5 2.7 1.7 1.7 2.7 4 2.7 6.4v2.8c0 2.5 1 4.9 2.8 6.7 1.8 1.8 4.2 2.8 6.7 2.8 2.5 0 4.8-0.9 6.5-2.7 1.7-1.7 2.7-4 2.7-6.5 0-2.4 1-4.7 2.7-6.5 1.7-1.7 4.1-2.6 6.5-2.6h0.5c2.4 0 4.7 0.9 6.4 2.7 1.7 1.7 2.7 4 2.7 6.4v28.1c0 2.4 1 4.7 2.7 6.5 1.7 1.7 4 2.6 6.5 2.6h0.3c2.5 0 4.8-0.9 6.5-2.6 1.7-1.8 2.7-4.1 2.7-6.5v-38.3c0-2.4 1-4.7 2.7-6.5 1.7-1.7 4.1-2.6 6.5-2.6h0.5c2.4 0 4.8 0.9 6.5 2.7 1.7 1.7 2.7 4 2.7 6.4v18.3c0 1.3 0.2 2.4 0.7 3.6 0.4 1.1 1.1 2.1 2 2.9 0.8 0.9 1.8 1.6 3 2 1.1 0.5 2.3 0.7 3.5 0.7 2.5 0 5 1.1 6.8 2.9 1.8 1.8 2.7 4.3 2.7 6.9v14.7c0 2.4 1 4.8 2.7 6.5 1.8 1.7 4.1 2.7 6.5 2.7h0.4c2.5 0 4.8-1 6.5-2.7 1.7-1.7 2.7-4.1 2.7-6.5v-22.2c0-2.4 1-4.8 2.7-6.5 1.7-1.7 4-2.7 6.5-2.7h0.3c2.5 0 4.8 1 6.5 2.7 1.7 1.7 2.7 4.1 2.7 6.5v33.6c0 2.4 1 4.7 2.7 6.5 1.7 1.7 4.1 2.6 6.5 2.6h0.5c2.4 0 4.7 1 6.5 2.7 1.7 1.8 2.6 4.1 2.6 6.5v145.4c-0.8-5.2-2.4-10.2-4.7-14.9-6.5-14.6-19.6-28.3-39.2-39.7z"/><path class="u" d="m105.4 246.5l3.2 8.5 7.3 5.3-5.3 2 1.3 8-6.5-7.2-6.5-0.3 1.2-6.5-5.3-8.2 7.3 3.2z"/><path class="u" d="m105.4 221.7l3.2 8.5 7.3 5.2-5.3 2.1 1.3 8-6.5-7.2-6.5-0.3 1.2-6.5-5.3-8.2 7.3 3.1z"/><path class="u" d="m105.4 196.9l3.2 8.5 7.3 5.2-5.3 2.1 1.3 8-6.5-7.2-6.5-0.3 1.2-6.6-5.3-8.1 7.3 3.1z"/><path class="u" d="m105.4 171l3.2 8.5 7.3 5.3-5.3 2 1.3 8-6.5-7.2-6.5-0.3 1.2-6.5-5.3-8.2 7.3 3.2z"/><path class="u" d="m105.4 147.3l3.2 8.5 7.3 5.2-5.3 2.1 1.3 7.9-6.5-7.1-6.5-0.4 1.2-6.5-5.3-8.1 7.3 3.1z"/><path  d="m314.7 43.2v179.7c0 5 3.5 11 7.8 13.5l73.4 42.4 2.3 6.6 6.9-4c1.4-0.8 2.3-2.5 2.3-5v-191.8c0-4.9-3.5-10.9-7.8-13.4l-77.1-44.5c-2.1-1.2-4-1.4-5.4-0.6l-6.9 4z"/><path class="v" d="m393 284.7l-77.1-44.5c-4.3-2.5-7.8-8.5-7.8-13.4v-191.8c0-5 3.5-7 7.8-4.5l77.1 44.5c4.3 2.5 7.8 8.5 7.8 13.4v191.8c0 5-3.5 7-7.8 4.5z"/><path class="w" d="m311.4 36.9v179.4c0.1 1.6 0.5 3.1 1.3 4.4 0.8 1.4 1.9 2.5 3.1 3.4l77.2 44.5c1.4 0.8 2.7 0.8 3.5 0q0.5-0.5 0.8-1.2 0.2-0.7 0.1-1.4v-179.4c-0.1-1.6-0.5-3.1-1.3-4.4-0.7-1.3-1.8-2.5-3.1-3.3l-77.1-44.6c-0.7-0.4-1.4-0.6-2.2-0.6-1.4 0.1-2.3 1.3-2.3 3.2z"/><path class="r" d="m312.8 36.3v179.5c0.1 1.5 0.5 3 1.3 4.3 0.8 1.4 1.8 2.5 3.1 3.4l77.2 44.5c0.6 0.4 1.4 0.6 2.2 0.6q0.5-0.5 0.7-1.2 0.2-0.7 0.2-1.4v-179.4c-0.1-1.6-0.6-3.1-1.3-4.4-0.8-1.3-1.9-2.5-3.2-3.3l-5.6-3.3-71.5-41.3c-0.7-0.4-1.4-0.6-2.2-0.6q-0.5 0.5-0.7 1.2-0.3 0.7-0.2 1.4z"/><path class="x" d="m342 51.4l23.6 13.6 30.2 61.6v32.1z"/><path class="x" d="m395.8 203.8v18.6l-81.3-158.5v-18.1z"/><path class="x" d="m395.8 229.7v36.3q0 0.4-0.1 0.8-0.3-0.1-0.5-0.2l-20.2-11.7-60.5-124.4v-60.6z"/><path class="y" d="m363.8 263.5l-18.7-10.8c-1-0.6-1.9-1.6-2.5-2.6-0.7-1.1-1-2.3-1.1-3.6 0-2.2 1.6-3.1 3.6-2l18.7 10.8c1 0.7 1.9 1.6 2.5 2.7 0.6 1 1 2.2 1.1 3.5 0 2.2-1.6 3.2-3.6 2z"/><path class="z" d="m372.6 150.4v15.3l-15.6-16.4-6.6-6.9 8.2-4.8 0.3-0.1 11.2 6.5q-0.3-0.1-0.5-0.3c1.8 1.1 3 3.4 3 6.7z"/><path class="q" d="m372.6 148.8v-44c0-3.3-1.2-5.5-3-6.6-0.1 0-0.1-0.1-0.2-0.1l-10.8-6-23.7-13.3v67.7l43.6 23.2z"/><path class="A" d="m370.1 98.5q-0.3-0.2-0.5-0.3c-0.1 0-0.1-0.1-0.2-0.1-1.9-0.8-4.5-0.5-7.2 1.1-2 1.2-3.8 2.7-5.2 4.5-3.6 4.2-6 9.9-6 14.8l0.1 19.3 0.3 113.1c0 12.8-9 28.4-20.2 34.9l-18.9 10.1-83.1-48.3 19-10.1c11.1-6.4 20.2-22 20.1-34.9l-0.3-132.4c0-7.1 5-15.7 11.1-19.2 3.1-1.9 5.9-2 7.9-0.8l71.9 41.8z"/><path class="A" d="m369.8 98.3c-0.1 0-0.1-0.1-0.2-0.1 1.8 1.1 3 3.3 3 6.6v54.3c0 2.1 0.5 4.1 1.6 5.9 1 1.9 2.5 3.3 4.3 4.4 1.8 1 3.9 1.6 6 1.6 2 0 4.1-0.5 5.9-1.6l7.1-4v-78.8c-0.1-1.6-0.6-3.1-1.3-4.4-0.8-1.3-1.9-2.5-3.2-3.3l-5.6-3.3-28.5 16.3z"/><path class="B" d="m281.4 102.5l-3.2-1.8v-3.2l3.2 1.8z"/><path class="B" d="m339.3 135.9l-54.4-31.4v-3.2l54.4 31.4z"/><path class="B" d="m281.4 112.7l-3.2-1.9v-3.2l3.2 1.9z"/><path class="B" d="m332.3 138.8l-47.4-27.3v3.2l47.4 27.3z"/><path class="B" d="m281.4 122.8l-3.2-1.8v-3.2l3.2 1.8z"/><path class="B" d="m335.8 150.9l-50.9-29.3v3.2l50.9 29.3z"/><path class="B" d="m281.4 133l-3.2-1.9v-3.2l3.2 1.9z"/><path class="B" d="m320.8 152.4l-35.9-20.6v3.2l35.9 20.6z"/><path class="B" d="m281.4 143.1l-3.2-1.9v-3.1l3.2 1.8z"/><path class="B" d="m339.3 176.4l-54.4-31.3v-3.2l54.4 31.3z"/><path class="B" d="m281.4 153.2l-3.2-1.8v-3.2l3.2 1.8z"/><path class="B" d="m323.8 174.4l-38.9-22.4v3.2l38.9 22.4z"/><path class="B" d="m281.4 163.4l-3.2-1.9v-3.2l3.2 1.9z"/><path class="B" d="m339.3 196.7l-54.4-31.3v-3.2l54.4 31.3z"/><path class="B" d="m281.4 173.5l-3.2-1.8v-3.2l3.2 1.8z"/><path class="B" d="m330.6 198.6l-45.7-26.3v3.2l45.7 26.3z"/><path class="B" d="m281.4 183.7l-3.2-1.9v-3.2l3.2 1.9z"/><path class="B" d="m339.3 217l-54.4-31.3v-3.2l54.4 31.3z"/><path class="B" d="m281.4 193.8l-3.2-1.9v-3.1l3.2 1.8z"/><path class="B" d="m318.7 212.1l-33.8-19.5v3.2l33.8 19.5z"/><path class="B" d="m281.4 193.7l-3.2-1.8v-3.2l3.2 1.8z"/><path class="B" d="m339.3 227.1l-54.4-31.4v-3.2l54.4 31.4z"/><path class="B" d="m281.4 203.9l-3.2-1.9v-3.2l3.2 1.9z"/><path class="B" d="m330.6 229l-45.7-26.3v3.2l45.7 26.3z"/><path class="B" d="m281.4 214l-3.2-1.8v-3.2l3.2 1.8z"/><path class="B" d="m339.3 247.3l-54.4-31.3v-3.2l54.4 31.3z"/><path class="B" d="m281.4 224.1l-3.2-1.8v-3.2l3.2 1.8z"/><path class="B" d="m318.7 242.4l-33.8-19.4v3.1l33.8 19.5z"/><path fill-rule="evenodd" class="C" d="m276.1 72.7q1.7 0.8 3.4 1.7c1.7 0.9 3.1 2.2 4.3 3.7 0.8 1.2 1.2 2.7 1.2 4.1 0 1.7-0.8 2.8-2.5 2.6 1.2 1.2 1.8 2.7 2 4.3q0.3 2.5 1 5l-3.2-1.9q-0.6-2.2-0.8-4.3c-0.3-2.2-0.8-3.1-1.9-3.7l-0.4-0.3v6.4l-3.1-1.8zm3.1 8.9l0.5 0.3c1.4 0.8 2.2 0.1 2.2-1.3 0-0.7-0.2-1.4-0.5-2-0.4-0.6-0.9-1.1-1.5-1.5q-0.3-0.2-0.7-0.3z"/><path class="C" d="m294 92.1l-3.7-2.2v4.4l4.2 2.4v2.7l-7.3-4.2v-16.1l7 4.1v2.7l-3.9-2.3v3.7l3.7 2.1z"/><path class="C" d="m296.2 97.3q1.2 1.2 2.7 2.1c1.4 0.9 2.2 0.6 2.2-0.5 0-1-0.8-2.1-2.1-3.8-2.2-2.6-3-4.8-3-6.3 0-2.6 1.7-3.7 5-1.7q1.4 0.8 2.5 2l-0.5 2.4q-0.8-1-2-1.7c-1.3-0.8-2-0.4-2 0.5 0 0.9 0.5 1.7 2.2 3.8 2.2 2.5 2.9 4.6 2.9 6.3 0 2.9-2.1 3.6-5.3 1.7q-1.7-1-3-2.4z"/><path class="C" d="m309 91.9v10.4c0 2.4 0.7 3.5 1.5 4 0.8 0.5 1.5 0.3 1.5-2.2v-10.4l3.1 1.8v9.9c0 4.2-1.5 5.5-4.6 3.7-3.3-2-4.6-5.1-4.6-9.1v-9.9z"/><path class="C" d="m327.6 113.3c-0.1-1.5-0.2-3.7-0.2-5.4-0.3 1.5-0.7 3.3-1 4.3l-1.4 5-2.2-1.3-1.3-6.4c-0.3-1.5-0.8-3.8-1-5.6l-0.1-0.1c0 1.7-0.1 3.7-0.2 5.2l-0.3 5.5-2.7-1.6 1.2-15.4 3.3 1.9 1.2 6.6c0.5 2.3 0.9 4.3 1.2 6.3 0.3-1.7 0.6-3.3 1-5.1l1.3-5 3.3 1.9 0.9 16.7-2.7-1.7z"/><path class="C" d="m339.7 119l-3.7-2.1v4.3l4.1 2.5v2.7l-7.2-4.3v-16.1l7 4.1v2.8l-3.9-2.3v3.7l3.7 2.1z"/><path class="D" d="m221.2 200.6c0-0.6 0.1-1.3 0.3-1.9 0.3-0.6 0.7-1.1 1.3-1.5l2.1-1.2c1-0.6 2.3-0.5 3.8 0.3l51.4 29.7c1.5 1 2.8 2.4 3.7 3.9 0.9 1.6 1.4 3.4 1.5 5.2l-0.1 30.2c0.1 0.7 0 1.3-0.3 1.9-0.2 0.6-0.7 1.1-1.2 1.5l-2.2 1.2c-0.9 0.6-2.2 0.5-3.7-0.3l-51.4-29.7c-1.5-1-2.8-2.3-3.7-3.9-0.9-1.6-1.5-3.4-1.6-5.2z"/><path class="w" d="m226.5 197.6c-2.9-1.7-5.3-0.3-5.3 3l-0.1 30.2c0.1 1.8 0.7 3.6 1.6 5.2 0.9 1.6 2.2 2.9 3.7 3.9l51.4 29.7c2.9 1.7 5.3 0.3 5.3-3v-30.2c0-1.9-0.6-3.6-1.5-5.2-0.9-1.6-2.2-2.9-3.7-3.9z"/><path class="w" d="m277.5 234.7v26.8l-24-13.8v-26.8z"/><g style="opacity:.2"><path class="E" d="m260.2 245.3l2.3 0.9 2.8 3.7-2.2-4.2c0 0-1.2-1.9-1.3-1.9-0.1 0-1.6 1.5-1.6 1.5z"/></g><path class="F" d="m275.3 253.4c0.9 1.2 1.6 7.8 1.6 7.8l-9.2-5.4 1.9-8.4c0.6 0.6 4.9 4.9 5.7 6z"/><path class="G" d="m255.8 242.1q2.9 0.1 5.8 0.6l3.9 4.8 4-0.2 0.1 0.1-1.9 8.4-13.5-7.7c0 0 0.7-5.9 1.6-6z"/><path class="H" d="m267.5 247.9l1.4-0.1-0.2-2.8-0.3-3-5.7-3.3-0.3 2.7-0.3 2.5 1.5 1.7c0.5 0.9 1.1 1 1.9 1.9 0.9 0.1 1.4 0.6 2 0.4z"/><g style="opacity:.3"><path class="I" d="m265.5 245.5c1.6 0.9 2.7-0.1 3.1-1.6l-0.2-1.9-5.7-3.3-0.2 1.7c0.4 2 1.5 4.2 3 5.1z"/></g><path class="H" d="m265.5 231.7l2.2 1.8 1.8 1.5 0.3 4.1c0 0 0.7-0.5 0.9 0.5 0.2 0.8 0.1 1.6-0.3 2.4-0.1 0.1-0.2 0.5-0.6 0.3q-0.2-0.2-0.3-0.5-0.1 1-0.7 1.9c-0.5 0.5-1.3 1.8-3.3 0.7-2-1.2-2.7-3.4-3.3-4.5q-0.5-1.4-0.7-2.7-0.1 0-0.1 0.1-0.1 0-0.2 0c-0.4-0.2-0.5-0.7-0.6-1-0.3-0.8-0.4-1.8-0.3-2.7 0.2-0.7 0.9 0.6 0.9 0.6l0.4-3.6 1.7 0.5z"/><path  d="m269 236q0.4 2 0.4 3.9l0.3 0.2c0 0 0.1-1.3 0.6-1.2 0.1-1.4-0.1-2.9-0.7-4.2-0.8-1.9-2.3-3.4-4.1-4.3-2.4-1.3-3.3-1.2-4.1-0.5-1 0.8-0.6 3.6-0.6 3.6 0.3 0.5 0.6 1.2 0.6 1.8l0.3 0.2q-0.2-1.4 0.1-2.7c4.6 3.3 6.5 0.7 7.2 3.2z"/><path class="w" d="m268.6 244.7c0 0 0.3 0.2 0.6 1.2q0.4 1.1 1 2.1c0.2 1.3-2.4 1.7-2.1 3.1q-0.9-1.6-1.5-3.3l-1.1-0.3c0 0 2.9-0.4 3.1-1q0.1-0.9 0-1.8z"/><path class="w" d="m262.4 241.1c0 0-0.3-0.1-0.5 0.6-0.2 0.4-0.6 0.7-1 1-0.1 1.1 2.2 4.6 2 5.7q0.9-0.9 1.6-1.8l1.1 0.9c0 0-3-3.7-3.1-4.6q-0.2-0.9-0.1-1.8z"/><path class="J" d="m268.6 244.7q0.3 0.5 0.4 1 0.1 0.5-0.1 1.1c0 0.5-2.6 8.2-2.6 8.2l2 1.2 2.2-3.8-1.4-1.8 1.9 0.9-0.5-3.2q-0.6-1.2-1.1-2.4-0.2-0.7-0.8-1.3 0 0.1 0 0.1z"/><path class="F" d="m255.7 242.1c-0.9 0.1-1.6 5.9-1.6 5.9l9.2 5.4-1.9-10.7q-2.8-0.5-5.7-0.6z"/><path class="J" d="m262.4 241.1c0 0-0.6 0-0.3 1.7 0.1 0.6 2.6 11.3 2.6 11.3l-2-1.1-2.2-6.3 1.4-0.3-1.9-1.2 0.5-2.6c0 0 1-0.7 1.1-1.2q0.1-0.2 0.3-0.3 0.3-0.1 0.5-0.1z"/><path class="K" d="m266.5 247.8l-0.3 2 0.7 3.4-0.6 1.8-1.6-0.9-0.6-2.6 0.9-2.4-0.6-2.5 1.1 0.9c0.3 0.1 0.6 0.1 1 0.3z"/><path class="w" d="m226.8 207.6l23.2 13.4v-2.1l-23.2-13.5z"/><path class="w" d="m226.8 211.7l23.2 13.4v-2l-23.2-13.5z"/><path class="w" d="m226.8 215.9l23.2 13.4v-2.1l-23.2-13.4z"/><path class="w" d="m226.8 220.1l23.2 13.4v-2.1l-23.2-13.4z"/><path class="L" d="m233.6 209.4l16.4 9.5v2.1l-16.4-9.5z"/><path class="D" d="m230.3 211.7l19.7 11.4v2l-19.7-11.3z"/><path class="M" d="m238.4 220.5l11.6 6.7v2.1l-11.6-6.7z"/><path class="N" d="m233.4 221.9l16.6 9.5v2.1l-16.6-9.5z"/><path class="D" d="m221.2 149.2c0-1.7 0.6-2.9 1.6-3.4l2.1-1.3c1-0.5 2.3-0.5 3.8 0.4l51.4 29.7c1.5 1 2.8 2.3 3.7 3.9 0.9 1.6 1.4 3.3 1.5 5.1l-0.1 30.3c0.1 0.6 0 1.3-0.3 1.9-0.2 0.5-0.7 1.1-1.2 1.4l-2.2 1.3c-0.9 0.6-2.2 0.5-3.7-0.4l-51.4-29.7c-1.5-0.9-2.8-2.3-3.7-3.9-0.9-1.5-1.5-3.3-1.6-5.1z"/><path class="w" d="m226.5 146.2c-2.9-1.7-5.3-0.4-5.3 3l-0.1 30.2c0.1 1.8 0.7 3.6 1.6 5.1 0.9 1.6 2.2 3 3.7 4l51.4 29.6c2.9 1.7 5.3 0.4 5.3-3v-30.2c0-1.8-0.6-3.6-1.5-5.2-0.9-1.5-2.2-2.9-3.7-3.9z"/><path class="w" d="m277.5 183.8v26.8l-24-13.8v-26.8z"/><g style="opacity:.2"><path class="E" d="m260.2 194.4l2.3 0.9 2.8 3.6-2.2-4.1c0 0-1.2-1.9-1.3-1.9-0.1 0-1.6 1.5-1.6 1.5z"/></g><path class="O" d="m275.3 202.5c0.9 1.2 1.6 7.8 1.6 7.8l-9.2-5.4 1.8-8.4c0.7 0.6 5 4.9 5.8 6z"/><path class="G" d="m255.8 191.2q2.9 0.1 5.8 0.6l3.9 4.8 4-0.2v0.1l-1.8 8.4-13.5-7.7c0 0 0.7-5.8 1.6-6z"/><path class="H" d="m267.5 197l1.4-0.1-0.2-2.8-0.3-3-5.7-3.3-0.3 2.7-0.3 2.5 1.5 1.7c0.5 0.9 1.1 1 1.9 1.9 0.9 0.1 1.4 0.5 2 0.4z"/><g style="opacity:.3"><path class="I" d="m265.5 194.6c1.6 0.9 2.7-0.1 3.1-1.6l-0.2-1.9-5.7-3.3-0.2 1.7c0.4 2 1.5 4.2 3 5.1z"/></g><path class="H" d="m265.6 180.9l2.3 1.6 1.9 2.8v3.5c0 0 0.7-0.5 0.9 0.5 0.2 0.8 0.1 1.7-0.2 2.5-0.1 0.1-0.4 0.4-0.7 0.2q-0.2-0.2-0.3-0.5-0.2 1.1-0.7 2.1c-0.6 0.5-1.4 1.1-3.3 0-1.5-0.9-2.7-2.3-3.3-3.8q-0.6-1.4-0.8-2.9 0 0.1-0.1 0.1-0.1 0.1-0.2 0c-0.3-0.1-0.6-0.7-0.7-1-0.3-0.9-0.3-1.8-0.2-2.7 0.3-0.7 1 0.6 1 0.6v-3.9l1.9-0.3z"/><path class="w" d="m268.6 193.8c0 0 0.3 0.2 0.6 1.2q0.4 1.1 1 2.1c0.1 1.3-2.4 1.7-2.1 3.1q-1-1.6-1.6-3.3l-1-0.3c0 0 2.9-0.4 3-1q0.2-0.9 0.1-1.8z"/><path class="w" d="m262.4 190.2c0 0-0.3-0.1-0.5 0.5-0.2 0.5-0.6 0.8-1 1.1-0.1 1.1 2.2 4.6 2 5.7q0.9-0.9 1.6-1.8l1.1 0.9c0 0-3-3.7-3.1-4.6q-0.2-0.9-0.1-1.8z"/><path class="P" d="m268.6 193.8q0.3 0.5 0.4 1 0.1 0.5-0.1 1.1c-0.1 0.4-2.6 8.2-2.6 8.2l2 1.2 2.2-3.8-1.4-1.8 1.9 0.9-0.5-3.2q-0.6-1.2-1.1-2.5-0.2-0.7-0.7-1.2 0 0-0.1 0.1z"/><path class="O" d="m255.5 191.1c-0.9 0.1-1.4 6-1.4 6l9.2 5.3-1.8-10.8q-3-0.4-6-0.5z"/><path class="P" d="m262.4 190.2c0 0-0.6 0-0.3 1.7 0.1 0.6 2.6 11.3 2.6 11.3l-2-1.1-2.2-6.3 1.4-0.3-1.9-1.2 0.5-2.7c0 0 1-0.7 1.1-1.1q0.1-0.2 0.3-0.3 0.3-0.1 0.5-0.1 0 0.1 0 0.1z"/><path class="Q" d="m266.5 196.9l-0.3 2 0.7 3.3-0.6 1.9-1.6-0.9-0.6-2.6 0.9-2.4-0.6-2.5 1.1 0.9z"/><path  d="m267.9 181.4c2.6 2.6 3.3 4.4 2.7 7.4-1-0.7-1 1-1 1l-0.6-0.3c0.4-1.6 0.4-3.3-0.2-4.8q-0.2-0.7-0.7-1.1-0.6-0.5-1.2-0.5-0.8-0.1-1.5-0.5-0.6-0.4-1.1-1c-0.7-0.9-1.7-1.3-2.1-0.7-0.7 1.5-0.2 4.5-0.2 4.5l-0.6-0.4c0 0 0-1.7-0.9-2 0 0-1.1-5.1 2.4-4.4 1.9 0.3 3.7 1.3 5 2.8z"/><path class="w" d="m226.8 156.6l23.2 13.5v-2.1l-23.2-13.5z"/><path class="w" d="m226.8 160.8l23.2 13.4v-2.1l-23.2-13.4z"/><path class="w" d="m226.8 165l23.2 13.4v-2.1l-23.2-13.4z"/><path class="w" d="m226.8 169.2l23.2 13.4v-2.1l-23.2-13.4z"/><path class="L" d="m239.3 161.7l10.7 6.3v2.1l-10.7-6.2z"/><path class="D" d="m233.3 162.5l16.7 9.6v2.1l-16.7-9.6z"/><path class="M" d="m229.5 164.5l20.5 11.8v2.1l-20.5-11.8z"/><path class="N" d="m239.3 174.3l10.7 6.2v2.1l-10.7-6.2z"/><path class="D" d="m212.9 83.5c0-2.1 0.8-3.6 1.9-4.2l2.8-1.6c1.2-0.7 2.9-0.6 4.7 0.4l64.8 37.4c1.9 1.3 3.5 3 4.7 5 1.1 1.9 1.8 4.2 1.9 6.5l-0.1 38.1c0 2.1-0.8 3.5-1.9 4.2l-2.8 1.6c-1.2 0.7-2.8 0.6-4.7-0.5l-64.8-37.4c-1.9-1.2-3.5-2.9-4.7-4.9-1.1-2-1.8-4.2-1.9-6.5z"/><path class="w" d="m219.5 79.7c-3.6-2.1-6.6-0.4-6.6 3.8l-0.1 38.1c0.1 2.3 0.8 4.5 1.9 6.5 1.2 2 2.8 3.7 4.7 4.9l64.8 37.4c3.6 2.2 6.6 0.5 6.6-3.7l0.1-38.1c-0.1-2.3-0.7-4.6-1.9-6.6-1.1-1.9-2.7-3.6-4.7-4.9z"/><path class="w" d="m283.8 126.6v33.8l-30.2-17.5v-33.8z"/><path  d="m272.2 124.9c2.4 2.3 4.8 5.9 3.9 10.7-2.2 11.7-13.5 2.3-14.7-8.5-0.5-5.5 2-6.2 4.3-5.9 2.2 0.3 4 1.3 6.5 3.7z"/><path class="R" d="m272.2 141.5c0 0 4.8 5.5 5.9 7 1 1.5 1.2 9.3 1.2 9.3l-10.6-6.2-10.7-6.1c0 0 0.3-7.5 1.3-7.8 1-0.4 5.9-0.2 5.9-0.2z"/><path class="K" d="m272.2 141.5c0.9 6.4-1.8 5.8-1.9 11.1l-3.3-1.9c0-5.4-2.7-7.9-1.8-13.2z"/><path class="H" d="m268.7 144.4c1.8 1.1 3.5 0.5 3.5-2.9v-3.1l-0.8-2.9-2.7-1.8-2.8-1.4-0.7 2.1v3.1c-0.1 1.4 0.2 2.7 0.8 3.9 0.6 1.2 1.6 2.3 2.7 3z"/><g style="opacity:.3"><path class="I" d="m268.7 141.1c1.8 1 3.1-0.4 3.6-2.3l-0.2-2.2-3.4-2.1-3.4-1.8-0.2 1.9c0.5 2.5 1.8 5.4 3.6 6.5z"/></g><path class="H" d="m268.7 126.7c1.5 1 3.2 2.3 4.8 3.6l0.3 3.8c0 0 0.5-0.9 0.9 0.4q0.2 0.6 0.1 1.2-0.1 0.6-0.4 1.1c-0.1 0.2-0.2 0.7-0.6 0.4q-0.3-0.2-0.4-0.5c-0.1 0.7-0.4 1.5-0.8 2.1-0.5 0.5-1.1 0.8-1.8 0.9-0.8 0.1-1.5 0-2.1-0.4-1.7-1-3.3-3.6-3.9-5q-0.6-1.5-0.8-3.1c-0.1 0.2-0.2 0.3-0.4 0.2-0.4-0.2-0.5-0.9-0.6-1.2-0.2-0.3-0.7-1.9-0.3-2.6 0.4-0.7 0.9 0.6 0.9 0.6l0.2-1.9c0.1-0.9 0.8-1.3 1.8-0.9 1 0.4 2.1 0.8 3.1 1.3z"/><path  d="m265.2 125.3c3.9 3.9 5.4 10.3 10.6 10.7 0.4-5.8-5.8-11.8-10.6-10.7z"/><path class="w" d="m273.5 136.9q0 0.2 0.1 0.4 0.1 0.1 0.3 0.2c0.2 0.1 0.3 0.1 0.3-0.1q0-0.2-0.1-0.4-0.1-0.1-0.2-0.2c-0.2-0.1-0.4-0.1-0.4 0.1z"/><path class="w" d="m263.2 131q0 0.2 0.1 0.3 0.1 0.2 0.2 0.3c0.2 0.1 0.4 0 0.4-0.2q0-0.2-0.1-0.3-0.1-0.2-0.3-0.3c-0.2-0.1-0.3 0-0.3 0.2z"/><path class="w" d="m220.1 92.4l29.2 16.9v-2.6l-29.2-16.9z"/><path class="w" d="m220.1 97.7l29.2 16.9v-2.6l-29.2-16.9z"/><path class="w" d="m220.1 103l29.2 16.9v-2.7l-29.2-16.9z"/><path class="w" d="m220.1 108.3l29.2 16.9v-2.7l-29.2-16.9z"/><path class="L" d="m222.2 91.1l27.1 15.6v2.6l-27.1-15.6z"/><path class="D" d="m224 97.3l25.3 14.7v2.6l-25.3-14.6z"/><path class="M" d="m226.6 104.1l22.7 13.1v2.7l-22.7-13.1z"/><path class="N" d="m240 117.1l9.3 5.4v2.7l-9.3-5.4z"/><path class="S" d="m238.1 151.5c0.1-0.8-0.2-1.5-0.1-2.3q0.1-0.7 0.5-1.4l2.9-5.7q0.7-1.4 1.7-2.6 0.4-0.5 0.9-0.9 0.8-0.9 1.4-2 0.4 0.1 0.6 0.4 0.2 0.4 0.2 0.7-0.2 0.8-0.7 1.3-1 1.3-1.7 2.8-0.1 0.2-0.3 0.4 0.3-0.1 0.5 0c0.4 0.1 0.6 0.6 1 0.7 0.4 0.1 0.6-0.1 0.9 0 0.3 0.1 0.3 0.5 0.6 0.6q0.2 0.1 0.4 0.1c0.3 0.2 0.6 0.4 0.7 0.7q0.4 0.5 0.5 1.1 0 0.5-0.1 0.9c-0.1 0.6 0 0.7-0.1 1.2-0.2 0.5-1 0.8-1.2 1.4-0.2 0.2-0.2 0.5-0.5 0.7q-0.1 0.1-0.4 0.1-0.2-0.1-0.3-0.3c-0.7 1.2-1.6 2.2-2.7 3.1q-0.4 0.2-0.7 0.5c-0.1 0.3-0.2 0.6-0.4 0.8q-0.3 0.3-0.7 0.5-0.5 0.1-0.9 0-0.9-0.2-1.6-0.8-0.2-0.1-0.4-0.3-0.1-0.3-0.1-0.5c-0.1-0.5 0.1-0.8 0.1-1.2z"/><g style="opacity:.3"><path fill-rule="evenodd" class="s" d="m331.8 317.9l-9.3 11-57.1-21.9c-6.7 4.2-15.9 6.5-25.7 6.5q-4.6 0-9.1-0.7c-5.2-0.7-10.2-2.3-14.9-4.8-7.3-4-11.5-9.5-11.6-15.6-0.2-5.8 3.3-11.3 10-15.4 6.7-4.2 15.9-6.6 25.7-6.6 8.9 0 17.4 2 24 5.5 9.1 5 13.2 12.5 11.1 19.8zm-66.8-28.9c-1.1-2.8-3.5-5.3-7.2-7.2-4.8-2.7-11.2-4.1-18-4.1-7.3 0-14.3 1.7-19.2 4.8-5.5 3.4-7.7 8.1-6 12.4 1.1 2.7 3.5 5.2 7.2 7.2 4.9 2.6 11.2 4.1 18 4.1 7.3 0 14.3-1.8 19.2-4.8 5.6-3.5 7.8-8 6-12.4z"/></g><path fill-rule="evenodd" class="T" d="m215 268.3c12.8-7.9 34.3-8.3 47.9-0.9 7.3 4 10.9 9.4 10.7 14.8 0-0.3 0.5 8.6 0.5 8.6 0.2 5-2.8 10.1-9.2 14-12.8 8-34.2 8.4-47.9 1-6.8-3.8-10.4-8.8-10.7-13.9 0 0-0.4-9.5-0.4-9.5-0.3-5 2.8-10.1 9.1-14.1zm58.6 13.9q0 0 0 0 0 0 0 0zm-53.5-1.8c-2.8 1.5-5 3.9-6.5 6.6 1.8 2.8 4.3 5.1 7.3 6.5 11.1 6.1 28.6 5.8 39-0.7 2.7-1.6 5-3.9 6.4-6.7-1.7-2.8-4.2-5-7.2-6.5-11.1-6-28.6-5.7-39 0.8z"/><path class="U" d="m219.4 273.6c10.4-6.4 29.2-6 41.9 0.9q2.9 1.5 5.4 3.7c3.3 2.8 5.2 6.1 5.5 9.3-1.9 3.2-4.5 5.9-7.8 7.8-8.8 5.5-21.9 7.4-33.5 5.5q-3.8-1.2-7.3-3c-6.3-3.5-10-7.9-10.8-12.3-0.7-4.4 1.4-8.7 6.6-11.9z"/><path fill-rule="evenodd" class="C" d="m215 268.3c12.8-7.9 34.3-8.3 47.9-0.9 9.7 5.3 12.9 13.1 9.3 20.1-1.8 3.2-4.5 5.9-7.7 7.8-8.9 5.5-21.9 7.4-33.6 5.5-5-0.7-9.8-2.3-14.3-4.6-13.7-7.4-14.4-20-1.6-27.9zm4.6 2.6c-6.6 4-8.8 9.6-6.7 14.6 1.2 3 3.8 5.8 8 8.1 11.1 6 28.6 5.7 39-0.8 6.6-4.1 8.8-9.6 6.8-14.6-1.2-3-3.9-5.9-8-8.2-11.2-6-28.7-5.7-39.1 0.9z"/><path class="V" d="m225.4 278.5c2.1-1.2 4.5-2.1 7-2.6l-3.7-4.2c-2.9 0.7-5.7 1.8-8.3 3.3-4.5 2.8-6.5 6.4-5.9 10.3 0 0 0.1 0.1 0.1 0.1l6.4 0.5c-0.4-2.8 1.2-5.4 4.4-7.4z"/><path class="C" d="m326.6 329c6-2 7.7-13.7 1.2-16.2l-55.3-20.7c-1-0.5-2.8 0.3-4.2 1.7-2.4 2.5-4.1 6.8-1 9.5l55.2 25.6c1.3 0.5 2.7 0.5 4.1 0.1z"/><path class="T" d="m267.3 299.2l55.2 25.6c1.3 0.5 2.7 0.6 4.1 0.1 2.7-0.9 4.6-3.8 5.2-7 0.8 4.3-1.3 9.8-5.2 11.1-1.4 0.4-2.8 0.4-4.1-0.1l-55.2-25.6c-0.8-0.7-1.3-1.7-1.6-2.7-0.2-1.1-0.1-2.2 0.3-3.1q0.5 1 1.3 1.7z"/></svg>