<svg width="33" height="33" viewBox="0 0 33 33" fill="none" xmlns="http://www.w3.org/2000/svg">
<g clip-path="url(#clip0_1277_20119)">
<path d="M13.8206 28.0026C14.2357 28.2058 14.7235 28.0901 15.0046 27.7402L22.739 18.072C22.9364 17.8247 23.0006 17.4971 22.9109 17.194C22.8212 16.8909 22.5889 16.6501 22.2896 16.551L17.3375 14.8997L19.054 7.96938C19.1645 7.52845 18.953 7.07057 18.5451 6.8685C18.1391 6.67024 17.6472 6.77595 17.3611 7.13096L9.62663 16.8635C9.42927 17.1109 9.36507 17.4385 9.45479 17.7416C9.54451 18.0447 9.77674 18.2855 10.0761 18.3846L15.0281 20.0359L13.3117 26.9017C13.2013 27.3426 13.4127 27.8006 13.8206 28.0026Z" fill="black"/>
<path d="M31.8027 23.1705L30.7776 22.5414C31.3462 20.9109 31.6519 19.2103 31.6519 17.465C31.6519 10.6683 27.2352 4.73707 20.9893 2.69922C20.9941 2.76683 21.0169 2.82974 21.0169 2.89832C21.0169 3.51521 20.8097 4.08582 20.4688 4.56594C25.8906 6.37259 29.7182 11.5465 29.7182 17.465C29.7182 18.8683 29.4971 20.2396 29.0768 21.5594L28.5182 21.2369C28.2274 21.0697 27.8696 21.065 27.5769 21.2227C27.2814 21.3813 27.0897 21.6815 27.0699 22.0167L26.8103 26.3334C26.7886 26.6988 26.9746 27.0453 27.2919 27.2285C27.6174 27.4147 28.009 27.3958 28.3078 27.1973L31.8519 24.8143C32.1313 24.6302 32.2956 24.3138 32.2862 23.9787C32.2757 23.6444 32.0925 23.3385 31.8027 23.1705Z" fill="black"/>
<path d="M25.1502 27.5822C22.6968 29.7716 19.5522 31.0678 16.183 31.0678C12.3411 31.0678 8.7705 29.3948 6.20509 26.5783L6.74812 26.2647C7.03797 26.0967 7.22115 25.7907 7.23153 25.4565C7.24094 25.1214 7.07671 24.8051 6.79723 24.6209L3.18961 22.2379C2.88558 22.0358 2.49092 22.0254 2.17368 22.2067C1.85644 22.3899 1.67042 22.7364 1.69214 23.1018L1.95086 27.4185C1.97071 27.7537 2.16234 28.0539 2.45786 28.2125C2.75351 28.371 3.10897 28.3655 3.39915 28.1983L4.50183 27.5617C7.44912 30.9759 11.649 33.0015 16.183 33.0015C19.9956 33.0015 23.6628 31.4804 26.4779 28.9698C26.4308 28.9462 26.3784 28.9364 26.3326 28.9102C25.7895 28.5962 25.3954 28.1245 25.1502 27.5822Z" fill="black"/>
<path d="M2.92045 20.1818C2.73914 19.295 2.64749 18.388 2.64749 17.4666C2.64749 11.0878 7.14826 5.52929 13.2824 4.1853V4.83358C13.2824 5.16874 13.4561 5.47941 13.7413 5.65595C14.021 5.82991 14.3765 5.84995 14.6817 5.69842L18.5489 3.7648C18.8765 3.6005 19.0833 3.26631 19.0833 2.89995C19.0833 2.5336 18.8765 2.1994 18.5489 2.03511L14.6817 0.101483C14.3805 -0.0467615 14.0255 -0.0325816 13.7413 0.143958C13.4561 0.320498 13.2824 0.631167 13.2824 0.966329V2.22215C6.0633 3.59934 0.713867 10.0349 0.713867 17.4666C0.713867 18.549 0.827887 19.6138 1.04677 20.655C1.10343 20.6168 1.14674 20.565 1.20668 20.5303C1.8219 20.1791 2.31865 20.1265 2.92045 20.1818Z" fill="black"/>
</g>
<defs>
<clipPath id="clip0_1277_20119">
<rect width="33" height="33" fill="white"/>
</clipPath>
</defs>
</svg>
