<svg width="30" height="23" viewBox="0 0 30 23" fill="none" xmlns="http://www.w3.org/2000/svg">
<g clip-path="url(#clip0_1364_81113)">
<path d="M15.4626 22.8523C13.4124 22.8347 11.2317 22.6111 9.13284 21.8712C8.45563 21.6299 7.81164 21.3227 7.25918 20.8522C6.74074 20.4115 6.44913 19.8694 6.48315 19.1705C6.59656 16.6042 7.57591 14.4344 9.48845 12.694C10.3017 11.9536 11.2497 11.3739 12.2815 10.9858C12.4272 10.9394 12.5853 10.9494 12.7238 11.0139C14.6291 11.9999 16.5311 11.9871 18.4404 11.0316C18.5732 10.9649 18.779 10.9303 18.9086 10.9834C22.118 12.2935 24.0119 14.6587 24.5984 18.051C24.6511 18.3566 24.6689 18.6679 24.7037 18.9759C24.8001 19.8252 24.4607 20.4766 23.7876 20.9801C22.8746 21.6661 21.8159 22.0192 20.7239 22.2838C19.1087 22.6762 17.4464 22.8515 15.4626 22.8523Z" fill="black"/>
<path d="M15.594 10.7971C12.8909 10.8188 10.6413 8.62565 10.5814 5.99337C10.5166 3.16244 12.8398 0.860731 15.5146 0.851884C16.172 0.844453 16.8244 0.965773 17.4345 1.20892C18.0445 1.45207 18.6003 1.81225 19.0701 2.26889C19.5398 2.72552 19.9142 3.26966 20.1719 3.8701C20.4296 4.47055 20.5655 5.11555 20.5718 5.7682C20.5788 6.42322 20.4554 7.07316 20.2088 7.68074C19.9622 8.28833 19.5971 8.8416 19.1347 9.30882C18.6722 9.77604 18.1214 10.148 17.5138 10.4034C16.9062 10.6588 16.2538 10.7926 15.594 10.7971Z" fill="black"/>
<path d="M6.20079 21.1327C4.63738 21.1842 3.1736 21.1327 1.78031 20.5537C1.62457 20.4832 1.47262 20.4049 1.32506 20.3188C0.839024 20.0526 0.641371 19.6529 0.707796 19.0964C0.926511 17.2731 1.85726 15.9663 3.54299 15.2079C3.68475 15.1444 3.88889 15.1661 4.0509 15.2079C4.45593 15.3068 4.86095 15.4371 5.28461 15.5609C5.18659 15.9799 5.0416 16.4279 4.98408 16.8863C4.8847 17.5693 4.83435 18.2584 4.83341 18.9484C4.84638 19.6996 5.27327 20.2842 5.81115 20.7861C5.92375 20.8842 6.03311 20.9791 6.20079 21.1327Z" fill="black"/>
<path d="M24.2578 21.8115C24.3907 21.6965 24.4717 21.6249 24.5551 21.5557C25.4923 20.7829 25.7702 19.7727 25.6082 18.6171C25.4915 17.8184 25.3401 17.0255 25.2129 16.2848C25.6349 16.144 26.0877 15.9888 26.5438 15.8456C26.6268 15.8236 26.7148 15.8284 26.7949 15.8593C28.4409 16.4947 29.6617 18.26 29.699 20.0196C29.7118 20.1998 29.675 20.38 29.5925 20.5409C29.51 20.7019 29.385 20.8375 29.2307 20.9332C28.6989 21.2826 28.0907 21.501 27.4567 21.5702C26.4984 21.6892 25.5328 21.7536 24.5705 21.838C24.4658 21.8367 24.3613 21.8278 24.2578 21.8115Z" fill="black"/>
<path d="M25.0182 10.3207C25.6762 10.3414 26.3006 10.614 26.7608 11.0814C27.221 11.5488 27.4813 12.1748 27.4873 12.8283C27.4959 13.4667 27.2576 14.084 26.8215 14.5531C26.3853 15.0221 25.7846 15.3072 25.143 15.3496C24.9194 15.3665 24.7744 15.3215 24.6731 15.0907C24.2213 14.0811 23.5771 13.1679 22.776 12.4013C22.614 12.2404 22.5897 12.1069 22.6682 11.9035C22.8477 11.4313 23.1699 11.0257 23.5906 10.7424C24.0113 10.459 24.5099 10.3117 25.0182 10.3207Z" fill="black"/>
<path d="M3.71875 12.8074C3.71875 11.622 4.62034 10.5555 5.78439 10.3746C7.03593 10.1759 8.18783 10.8443 8.59853 11.9935C8.6278 12.0556 8.63477 12.1258 8.61826 12.1924C8.60175 12.259 8.56277 12.318 8.5078 12.3595C7.68682 13.1496 7.01904 14.0827 6.53774 15.1124C6.46483 15.2692 6.37006 15.3038 6.21372 15.3062C4.86173 15.3215 3.71875 14.1794 3.71875 12.8074Z" fill="black"/>
</g>
<defs>
<clipPath id="clip0_1364_81113">
<rect width="29" height="22" fill="white" transform="translate(0.695312 0.851562)"/>
</clipPath>
</defs>
</svg>
