<svg width="28" height="29" viewBox="0 0 28 29" fill="none" xmlns="http://www.w3.org/2000/svg">
<g clip-path="url(#clip0_1364_81096)">
<path d="M0.863281 14.2456C0.876765 7.69091 5.20845 1.97777 11.4605 0.590279C16.7168 -0.575473 21.2266 1.01619 24.8132 5.16694C26.4802 7.09595 27.375 9.43624 27.715 11.9939C28.1741 15.4479 27.5659 18.6971 25.8287 21.6858C23.9176 24.9737 21.1145 27.0315 17.4882 27.8482C13.5702 28.73 9.92123 28.0561 6.64337 25.6287C3.60252 23.377 1.74111 20.3195 1.05559 16.5098C1.0045 16.2314 0.96754 15.9505 0.944884 15.6682C0.907982 15.1947 0.889538 14.7198 0.863281 14.2456ZM25.5881 8.06118C25.6004 8.19649 25.6241 8.33045 25.6591 8.46149C25.6896 8.5515 25.7719 8.62247 25.8308 8.7015L25.9224 8.632L25.5867 8.06557C25.5867 8.03923 25.5952 8.00704 25.5867 7.98582C25.0627 6.97663 24.4094 6.04476 23.6444 5.21525C23.5554 5.36681 23.4259 5.48879 23.2716 5.56664C23.1172 5.64449 22.9444 5.67492 22.7737 5.65433C22.6144 5.65226 22.4553 5.66474 22.2982 5.69163C22.1819 5.69834 22.0712 5.74537 21.984 5.82505C21.8968 5.90474 21.8382 6.01242 21.8178 6.13071C21.7877 6.33726 21.7695 6.54545 21.7631 6.7542C21.7525 6.87056 21.7369 6.98693 21.7149 7.1772C21.3934 6.64591 20.9343 6.65687 20.4971 6.64004C20.4546 6.64123 20.4127 6.65176 20.3744 6.67094C20.3361 6.69012 20.3022 6.71751 20.275 6.75127C19.8755 7.34842 19.7151 7.64116 20.126 8.34954C20.1884 8.45711 20.2622 8.63713 20.3389 8.64226C20.7178 8.66494 21.1039 8.7608 21.463 8.4915C22.0356 8.06194 22.6325 7.66529 23.2449 7.23719C23.4209 7.63017 23.7253 7.96898 23.7211 8.4666C23.7211 8.75419 24.0759 9.17644 24.2611 9.11131C24.5613 9.00667 24.8423 8.84129 25.1311 8.70225L25.1517 8.58076C24.9019 8.33927 24.655 8.09634 24.4009 7.85704C24.193 7.65945 24.3356 7.52846 24.4719 7.38284C24.6081 7.23721 24.7295 7.19037 24.8906 7.36454C25.1063 7.60896 25.3518 7.83068 25.5881 8.06046V8.06118ZM11.4094 25.8643L11.4285 25.7787C11.2866 25.606 11.1447 25.4377 11.0112 25.2591C10.5755 24.6693 10.474 24.0407 10.8218 23.3653C10.8635 23.2952 10.894 23.2186 10.9119 23.1384C10.9488 22.8815 11.0836 22.7498 11.3249 22.6693C11.8373 22.4981 12.08 22.0766 12.0225 21.5233C12.0133 21.4326 11.9955 21.3418 11.9891 21.2511C11.9593 20.8003 11.9998 20.7389 12.4036 20.5874C12.8748 20.411 13.0181 20.1878 12.9621 19.6748C12.9308 19.3879 13.0132 19.224 13.2956 19.1194C14.1046 18.8193 14.573 17.6104 14.2352 16.793C14.0791 16.4125 13.798 16.1937 13.4737 15.988C13.1679 15.7956 12.889 15.5563 12.5966 15.3418C12.5412 15.3009 12.471 15.2423 12.4149 15.2504C12.0147 15.3082 11.8777 15.0389 11.745 14.7264C11.6627 14.5317 11.5655 14.2793 11.4051 14.1958C10.9994 13.9833 10.5706 13.8212 10.1277 13.7129C9.92123 13.6638 9.66789 13.7802 9.44577 13.8541C9.29958 13.9031 9.17184 14.0107 9.0363 14.0919C8.95398 13.9456 8.87024 13.7926 8.78934 13.6419C8.73754 13.546 8.69779 13.4428 8.63818 13.3536C8.6031 13.292 8.54768 13.2454 8.48206 13.2226C8.11659 13.1706 7.70145 13.1457 7.44385 13.4106C7.09683 13.7655 6.71219 13.7224 6.31195 13.7092C6.25163 13.7092 6.1388 13.5892 6.14519 13.538C6.17996 13.2723 6.03875 13.115 5.88191 12.943C5.78247 12.8192 5.70138 12.6808 5.64133 12.5325C5.59804 12.4403 5.58883 12.2464 5.55902 12.2449C5.39367 12.239 5.17935 12.2178 5.06864 12.3115C4.62227 12.6913 4.62511 12.7037 4.39519 12.1483C4.38525 12.1227 4.37674 12.097 4.3661 12.0751C4.18585 11.658 4.23411 11.5116 4.63506 11.317C4.74648 11.2624 4.86433 11.223 4.98562 11.1999C5.65978 11.0711 6.28641 11.2247 6.86832 11.5767C7.03225 11.6755 7.14224 11.6704 7.29411 11.5468C7.80151 11.1245 8.14568 10.6056 8.28335 9.94044C8.36 9.57455 8.42529 9.19329 8.58993 8.86983C9.07178 7.9185 9.54298 7.56211 10.435 7.67334C11.0027 7.74652 11.0879 7.61919 11.0318 7.03302C11.0318 6.99716 11.0176 6.95984 11.0162 6.92471C11.0084 6.75055 11.0545 6.66348 11.2497 6.73666C11.5981 6.86692 11.9515 6.98473 12.3056 7.09669C12.3809 7.12011 12.5029 7.13036 12.5483 7.08572C12.8166 6.82667 13.0685 6.54859 13.3538 6.24855C12.999 6.23172 12.8904 5.9851 12.7676 5.7319C12.6359 5.45308 12.4824 5.18579 12.3085 4.93275C12.1169 4.65832 11.9615 4.66566 11.6698 4.82373C11.4477 4.94521 11.2036 5.0667 10.9602 5.09304C10.4783 5.14573 9.99006 5.1267 9.50537 5.14646C9.11577 5.16183 8.8667 5.37696 8.73896 5.75237C8.69993 5.86653 8.646 5.97192 8.59703 6.08608L8.48348 6.14461C8.42562 6.0318 8.35641 5.92562 8.27698 5.82777C8.20241 5.74215 8.10271 5.68405 7.99312 5.66236C7.6092 5.63382 7.57656 5.60968 7.5872 5.21085C7.59556 5.12894 7.59721 5.04643 7.59216 4.96423C7.55667 4.72713 7.67377 4.60566 7.87602 4.53834C8.18613 4.43369 8.49555 4.32756 8.80495 4.22218C9.00436 4.15485 9.18178 4.19877 9.30171 4.37733C9.46209 4.62248 9.65298 4.62249 9.90136 4.53541C10.335 4.38466 10.7756 4.24709 11.2213 4.14171C11.4519 4.08682 11.7003 4.11095 12.0019 4.09704C11.7968 3.70626 11.6386 3.34915 11.4342 3.02497C11.1936 2.64882 10.4201 2.46587 10.0397 2.65907C10.0025 2.68354 9.96714 2.71095 9.934 2.74104C9.6253 2.96497 9.32939 3.21086 9.00437 3.40698C8.6098 3.64555 8.55089 3.6192 8.23368 3.27599C7.93776 2.95619 7.93493 2.95252 7.5652 3.20792C4.48107 5.33964 2.58985 8.28073 1.94336 12.0627C1.88801 12.3883 1.95826 12.5244 2.25276 12.6481C2.33264 12.6876 2.41863 12.7124 2.50682 12.7213C3.00358 12.7352 3.40381 12.9693 3.75721 13.3067C3.90448 13.4586 4.083 13.5744 4.27956 13.6455C4.47611 13.7165 4.68565 13.741 4.89265 13.7172C5.01045 13.7048 5.18432 13.7428 5.25174 13.827C5.54766 14.1966 5.91667 14.2661 6.34814 14.2134C6.57878 14.1841 6.68168 14.3056 6.632 14.5442C6.60716 14.6679 6.52131 14.7827 6.44963 14.8925C6.33112 15.0718 6.14944 15.2255 6.08557 15.4216C5.62714 16.8252 5.44689 16.7169 6.38717 18.0041C6.76542 18.5229 7.22314 18.8369 7.87744 18.7659C8.07046 18.7447 8.13574 18.8559 8.10381 19.0352C8.02504 19.4707 8.14214 19.8687 8.3231 20.2514C8.47 20.5632 8.63535 20.8655 8.79147 21.1728C8.99301 21.568 9.11152 21.9778 9.07533 22.4352C9.06114 22.5801 9.07785 22.7264 9.12429 22.864C9.41951 23.6638 9.73033 24.4578 10.0326 25.2555C10.1213 25.4875 10.2505 25.6946 10.4946 25.7443C10.7898 25.8116 11.0992 25.8278 11.4094 25.8643ZM24.2426 22.4922C24.298 22.4256 24.3569 22.3612 24.4087 22.2917C26.1701 19.9456 27.0689 17.2879 27.1054 14.3188C27.1207 13.1664 26.9842 12.0172 26.6994 10.9028C26.6753 10.8069 26.6285 10.6832 26.5575 10.6415C26.3362 10.509 26.1059 10.393 25.8684 10.2946C25.7712 10.2529 25.6321 10.2149 25.5484 10.2551C25.1105 10.4666 24.6493 10.6422 24.3221 11.0455C24.2901 11.0774 24.251 11.1007 24.2082 11.1135C24.1654 11.1263 24.1202 11.128 24.0766 11.1186C23.7665 10.9664 23.4038 10.8501 23.181 10.6064C22.8468 10.2405 22.4841 10.1505 22.0406 10.2003C21.9185 10.2134 21.7887 10.1754 21.6702 10.2003C21.3906 10.2603 21.1025 10.3063 20.8427 10.4285C20.4645 10.6078 20.0869 10.7213 19.669 10.7052C19.1722 10.6832 18.8585 10.9869 18.838 11.5043C18.8247 11.7876 18.8264 12.0715 18.8429 12.3547C18.8578 12.5874 18.772 12.7527 18.6201 12.913C18.5137 13.0264 18.3731 13.1721 18.3682 13.3089C18.3384 14.029 18.3568 14.7432 18.5427 15.4545C18.877 16.7352 20.3119 17.0228 21.1684 16.5376C21.9625 16.0868 22.7055 16.1834 23.462 16.5998C23.5513 16.6401 23.6251 16.7099 23.6718 16.7981C23.7185 16.8863 23.7356 16.9879 23.7203 17.0872C23.6905 17.4743 23.6991 17.8746 23.9183 18.1995C24.2327 18.6642 24.1724 18.8069 23.7636 19.2277C23.7005 19.2921 23.6352 19.3535 23.5699 19.4157C23.2051 19.7597 23.2314 19.748 23.4322 20.2207C23.7352 20.9511 24.3292 21.5804 24.2426 22.4922ZM22.2947 3.91995L22.2386 3.96898C22.3933 4.52734 22.883 4.69201 23.3031 4.94229L23.3499 4.88812L22.2947 3.91995Z" fill="black"/>
</g>
<defs>
<clipPath id="clip0_1364_81096">
<rect width="27" height="28" fill="white" transform="translate(0.863281 0.21875)"/>
</clipPath>
</defs>
</svg>
