<svg width="20" height="21" viewBox="0 0 20 21" fill="none" xmlns="http://www.w3.org/2000/svg">
<g clip-path="url(#clip0_3_4217)">
<path d="M2.39873 6.24812L3.42356 18.6196C3.497 19.5118 4.25695 20.2113 5.15253 20.2113H14.5952C15.4908 20.2113 16.2508 19.5118 16.3242 18.6196L17.349 6.24812H2.39873ZM6.98039 17.897C6.67752 17.897 6.42271 17.6614 6.4035 17.3545L5.82492 8.02002C5.80513 7.7008 6.04752 7.4262 6.3662 7.40641C6.69673 7.38323 6.95949 7.62847 6.97981 7.9477L7.5584 17.2822C7.57888 17.6128 7.31732 17.897 6.98039 17.897ZM10.4524 17.3184C10.4524 17.6382 10.1937 17.897 9.87386 17.897C9.55406 17.897 9.29528 17.6382 9.29528 17.3184V7.98388C9.29528 7.66408 9.55406 7.40529 9.87386 7.40529C10.1937 7.40529 10.4524 7.66408 10.4524 7.98388V17.3184ZM13.9228 8.02006L13.3442 17.3546C13.3252 17.6583 13.0721 17.9114 12.7306 17.8959C12.4119 17.8761 12.1695 17.6015 12.1893 17.2823L12.7679 7.94774C12.7877 7.62851 13.0674 7.39627 13.3815 7.40645C13.7002 7.42624 13.9426 7.70084 13.9228 8.02006Z" fill="black"/>
<path d="M17.3955 2.77661H13.924V2.19802C13.924 1.24089 13.1453 0.462265 12.1882 0.462265H7.55951C6.60238 0.462265 5.82375 1.24089 5.82375 2.19802V2.77661H2.35224C1.71313 2.77661 1.19507 3.29467 1.19507 3.93378C1.19507 4.57281 1.71313 5.09095 2.35224 5.09095C7.67392 5.09095 12.074 5.09095 17.3955 5.09095C18.0346 5.09095 18.5526 4.57281 18.5526 3.93378C18.5526 3.29467 18.0346 2.77661 17.3955 2.77661ZM12.7668 2.77661H6.98092V2.19802C6.98092 1.8788 7.24029 1.61944 7.55951 1.61944H12.1882C12.5074 1.61944 12.7668 1.8788 12.7668 2.19802V2.77661Z" fill="black"/>
</g>
<defs>
<clipPath id="clip0_3_4217">
<rect width="19.7491" height="19.7491" fill="white" transform="translate(-0.000671387 0.462265)"/>
</clipPath>
</defs>
</svg>
