<svg width="20" height="21" viewBox="0 0 20 21" fill="none" xmlns="http://www.w3.org/2000/svg">
<path fill-rule="evenodd" clip-rule="evenodd" d="M5.82663 4.60234C6.11929 2.707 7.75766 1.25594 9.73496 1.25594C11.7123 1.25594 13.3506 2.707 13.6433 4.60234H17.0362C18.0443 4.60234 18.8615 5.41956 18.8615 6.42765V8.61575L9.88701 10.9318C9.78729 10.9575 9.68264 10.9575 9.58291 10.9318L0.608398 8.61575V6.42765C0.608398 5.41956 1.42562 4.60234 2.43371 4.60234H5.82663ZM7.06483 4.60234C7.34152 3.38304 8.43193 2.47281 9.73496 2.47281C11.038 2.47281 12.1284 3.38304 12.4051 4.60234H7.06483Z" fill="black"/>
<path d="M14.2982 11.0505L18.8615 9.87288V17.6841C18.8615 18.6922 18.0443 19.5094 17.0362 19.5094H2.43371C1.42562 19.5094 0.608398 18.6922 0.608398 17.6841V9.87288L5.17168 11.0505V12.5124C5.17168 12.8484 5.44408 13.1208 5.78012 13.1208C6.11616 13.1208 6.38856 12.8484 6.38856 12.5124V11.3645L9.27885 12.1104C9.57802 12.1876 9.89191 12.1876 10.1911 12.1104L13.0814 11.3645V12.5124C13.0814 12.8484 13.3538 13.1208 13.6898 13.1208C14.0258 13.1208 14.2982 12.8484 14.2982 12.5124V11.0505Z" fill="black"/>
</svg>
