<svg width="24" height="24" viewBox="0 0 24 24" fill="none" xmlns="http://www.w3.org/2000/svg">
<g clip-path="url(#clip0_754_3404)">
<path d="M19.5 13.7476V17.0101C19.5 18.1951 18.8025 19.2526 17.7225 19.7476C16.41 20.3476 14.4225 21.0001 12 21.0001C9.5775 21.0001 7.59 20.3476 6.27 19.7476C5.1975 19.2526 4.5 18.1951 4.5 17.0101V13.7476L9.8325 16.1851C10.515 16.5001 11.25 16.6576 12 16.6576C12.75 16.6576 13.485 16.5001 14.1675 16.1851L19.5 13.7476Z" fill="black"/>
<path d="M22.5 12.375V17.25C22.5 17.6625 22.1625 18 21.75 18C21.3375 18 21 17.6625 21 17.25V13.065L22.5 12.375Z" fill="black"/>
<path d="M10.4535 14.823C10.9447 15.0473 11.472 15.1598 12 15.1598C12.528 15.1598 13.0545 15.048 13.5465 14.823L23.1248 10.4445C23.6648 10.1978 24 9.67505 24 9.0803C24 8.48555 23.6648 7.96205 23.1248 7.7153L13.5465 3.33755C12.5633 2.8883 11.4375 2.8883 10.4543 3.33755L0.87525 7.71455C0.33525 7.96205 0 8.4848 0 9.07955C0 9.6743 0.33525 10.197 0.87525 10.4445L10.4535 14.823Z" fill="black"/>
</g>
<defs>
<clipPath id="clip0_754_3404">
<rect width="24" height="24" fill="white"/>
</clipPath>
</defs>
</svg>
