<svg width="78" height="78" viewBox="0 0 78 78" fill="none" xmlns="http://www.w3.org/2000/svg">
<path d="M72.4217 47.8226L58.4591 39.7631L58.3604 5.67599C58.3604 4.67783 58.0033 3.92602 57.3497 3.54409C57.3497 3.54409 57.3497 3.54409 57.3497 3.53175H57.3377L54.0224 1.60933C53.3571 1.21491 52.5065 1.28895 51.6193 1.79427L26.6025 16.2374C24.9514 17.1987 23.6572 19.4293 23.6696 21.3147L23.7189 37.2984L5.5664 47.835C4.18601 48.636 3.63148 49.7205 3.63148 50.6201L3.61914 55.9563C3.61914 57.0408 4.3216 58.039 5.59077 58.7783L34.7238 75.5999C37.1515 76.9925 41.0703 76.9925 43.4736 75.5999L72.434 58.7659C73.6663 58.0512 74.3563 57.053 74.381 55.9808V50.6325C74.381 49.5479 73.6784 48.5498 72.4217 47.8226ZM30.3859 18.9732L55.4151 4.52991C56.5857 3.85213 57.4361 4.28357 57.4361 5.67599L57.5471 42.5235C57.5471 44.064 56.4134 46.0235 55.07 46.7998L30.0409 61.2429C28.8456 61.933 28.0322 61.4524 28.0199 60.0968L27.9212 23.2495C27.9088 21.709 29.0429 19.7497 30.3859 18.9732ZM6.03455 48.636L23.7189 38.3581L23.768 58.1744C23.7806 59.1602 24.1377 59.9244 24.791 60.3063L28.1186 62.2411H28.1306C28.8701 62.6723 29.7574 62.4876 30.5093 62.0439L55.5385 47.6007C57.1896 46.6517 58.4714 44.4211 58.4714 42.5234L58.4591 40.8351L71.9534 48.6235C73.9623 49.7819 73.9253 51.4949 71.9781 52.6286L43.0175 69.4504C40.7992 70.7444 37.2502 70.6459 35.2046 69.4504L6.05923 52.6288C4.13665 51.5321 4.00122 49.819 6.03455 48.636Z" fill="black"/>
<path d="M32.2796 44.8118L46.9115 36.364C47.133 36.2365 47.2087 35.9536 47.0812 35.7329C46.9524 35.5126 46.6708 35.4362 46.4494 35.5637L31.8176 44.0115C31.596 44.139 31.5203 44.4219 31.6478 44.6427C31.7799 44.8683 32.065 44.937 32.2796 44.8118Z" fill="black"/>
<path d="M53.3013 31.6064L49.4406 33.8352C49.2191 33.9627 49.1434 34.2457 49.2709 34.4664C49.403 34.692 49.688 34.7607 49.9027 34.6355L53.7634 32.4067C53.9849 32.2792 54.0606 31.9963 53.9331 31.7755C53.8043 31.5553 53.5216 31.4795 53.3013 31.6064Z" fill="black"/>
<path d="M32.2796 34.6357L46.9115 26.188C47.133 26.0604 47.2087 25.7775 47.0812 25.5568C46.9524 25.3365 46.6708 25.2608 46.4494 25.3877L31.8176 33.8355C31.596 33.963 31.5203 34.2459 31.6478 34.4666C31.7799 34.6922 32.065 34.761 32.2796 34.6357Z" fill="black"/>
<path d="M49.9027 24.4613L53.7634 22.2325C53.9849 22.105 54.0606 21.8221 53.9331 21.6013C53.8043 21.3804 53.5214 21.3065 53.3013 21.4322L49.4406 23.661C49.2191 23.7885 49.1434 24.0714 49.2709 24.2922C49.403 24.5179 49.688 24.5866 49.9027 24.4613Z" fill="black"/>
<path d="M32.2796 49.9839L37.0501 47.2292C37.2716 47.1017 37.3473 46.8188 37.2198 46.598C37.0886 46.3755 36.8035 46.3026 36.588 46.4289L31.8176 49.1836C31.596 49.3111 31.5203 49.594 31.6478 49.8148C31.7795 50.0396 32.0642 50.1094 32.2796 49.9839Z" fill="black"/>
<path d="M53.3022 36.7803L39.3215 44.8519C39.1 44.9794 39.0242 45.2623 39.1518 45.4831C39.2838 45.7087 39.5689 45.7774 39.7835 45.6522L53.7643 37.5805C53.9858 37.453 54.0615 37.1701 53.934 36.9494C53.8052 36.7291 53.5225 36.6534 53.3022 36.7803Z" fill="black"/>
<path d="M32.2796 39.6407L37.0501 36.886C37.2716 36.7585 37.3473 36.4756 37.2198 36.2548C37.0886 36.0323 36.8035 35.9582 36.588 36.0857L31.8176 38.8404C31.596 38.9679 31.5203 39.2508 31.6478 39.4716C31.7795 39.6964 32.0642 39.7662 32.2796 39.6407Z" fill="black"/>
<path d="M53.3022 26.4347L39.3215 34.5063C39.1 34.6338 39.0242 34.9167 39.1518 35.1375C39.2838 35.3631 39.5689 35.4318 39.7835 35.3066L53.7643 27.235C53.9858 27.1075 54.0615 26.8246 53.934 26.6038C53.8052 26.3829 53.5225 26.3078 53.3022 26.4347Z" fill="black"/>
<path d="M32.2796 55.1567L53.764 42.7525C53.9856 42.625 54.0613 42.3421 53.9338 42.1214C53.805 41.9005 53.5221 41.8254 53.302 41.9523L31.8176 54.3564C31.596 54.4839 31.5203 54.7668 31.6478 54.9876C31.7799 55.2132 32.065 55.2819 32.2796 55.1567Z" fill="black"/>
</svg>
