<svg width="33" height="34" viewBox="0 0 33 34" fill="none" xmlns="http://www.w3.org/2000/svg">
<g clip-path="url(#clip0_1277_20271)">
<path d="M0.112995 21.2727C0.280926 21.5958 0.609485 21.7978 0.96725 21.7978H2.82657C4.67154 27.1268 9.4169 31.0439 15.0883 31.6059L17.8917 33.5473C18.1873 33.7521 18.5702 33.774 18.887 33.6021C19.2032 33.4311 19.4008 33.0954 19.4008 32.7296V31.3778C25.6397 30.0725 30.3193 24.7355 30.9339 18.3016L32.834 15.4374C33.0347 15.1346 33.0556 14.7434 32.8876 14.4203C32.72 14.0972 32.3916 13.8953 32.0336 13.8953H30.7106C29.4331 7.52102 24.2096 2.73939 17.9124 2.11146L15.1092 0.170299C14.8131 -0.0349811 14.4301 -0.0563324 14.1139 0.115249C13.7977 0.286573 13.6001 0.622275 13.6001 0.987818V2.33937C6.94275 3.72823 1.9985 9.74849 1.9985 16.8587C1.9985 17.0635 2.00328 17.2695 2.01134 17.475L0.166874 20.2558C-0.0337866 20.5584 -0.0544317 20.9496 0.112995 21.2727ZM4.45451 20.5272C4.33215 20.109 3.95551 19.8221 3.528 19.8221H2.79032C2.84545 19.739 4.8372 16.7368 4.89234 16.6537C5.43113 17.4797 6.54269 19.1831 7.07896 20.0053C6.98228 20.0758 6.89769 20.1648 6.83072 20.2695C6.65196 20.5486 6.62351 20.901 6.75443 21.2064C7.98131 24.0672 10.3283 26.2133 13.1522 27.1718L12.097 27.8906C11.8301 28.0724 11.669 28.3775 11.6665 28.7053C8.25448 27.239 5.54619 24.2627 4.45451 20.5272ZM7.79928 16.8587C7.79928 13.0659 10.1775 9.71531 13.6001 8.47591V8.95618C13.6001 9.32044 13.7962 9.65511 14.1106 9.82721C14.4251 9.99905 14.8065 9.98027 15.1031 9.77807L17.6465 8.04554C20.8812 8.48491 23.621 10.7898 24.7036 13.8953H24.2348C23.8783 13.8953 23.5508 14.0959 23.3823 14.4169C23.2141 14.7382 23.2325 15.128 23.4304 15.431L25.1261 18.0297C24.6961 21.3347 22.4402 24.134 19.4008 25.2402V24.7612C19.4008 24.3969 19.2044 24.0623 18.8902 23.8902C18.5758 23.7183 18.1943 23.7371 17.8978 23.9393L15.3546 25.6716C12.8211 25.3295 10.5773 23.8616 9.19987 21.6928C9.3751 21.6028 9.52264 21.459 9.61856 21.2761C9.7865 20.955 9.76837 20.5651 9.57048 20.262L7.82873 17.5926C7.80935 17.3493 7.79928 17.1033 7.79928 16.8587ZM18.2966 29.5696C17.8205 29.6396 17.4672 30.056 17.4672 30.5474V30.8669C17.296 30.7483 14.5215 28.8269 14.3662 28.7194C14.9657 28.3109 16.8552 27.0239 17.4695 26.6056C17.4876 26.877 17.6148 27.1302 17.8225 27.3035C18.0473 27.4913 18.3426 27.5657 18.6271 27.5065C22.5293 26.6936 25.464 23.7726 26.5964 20.2834L27.2976 21.3581C27.4753 21.6306 27.7739 21.7952 28.0944 21.7978C26.4161 25.8676 22.7287 28.9193 18.2966 29.5696ZM28.9409 15.0235C29.0094 15.51 29.417 15.8709 29.8979 15.8709H30.2106C30.1089 16.0239 28.1929 18.9123 28.1088 19.0393L26.04 15.8686C26.3056 15.8503 26.5534 15.7204 26.7231 15.5079C26.9066 15.2782 26.9796 14.9764 26.9217 14.6858C26.1261 10.6987 23.2675 7.70032 19.852 6.54324L20.9039 5.82682C21.1708 5.64521 21.3317 5.34012 21.3342 5.0129C25.3177 6.72743 28.3042 10.495 28.9409 15.0235ZM14.7043 4.14779C15.1804 4.07782 15.5336 3.66135 15.5336 3.17001V2.85077C15.7048 2.96936 18.4794 4.89071 18.6347 4.99824L15.5314 7.11201C15.5133 6.84036 15.3861 6.58749 15.1784 6.41385C14.9536 6.22632 14.6582 6.15197 14.3737 6.21114C10.0944 7.10223 6.83424 10.594 6.04822 14.8638L5.70329 14.3351C5.52454 14.0614 5.22443 13.8965 4.90266 13.8953C4.64032 13.8945 4.39082 14.0025 4.20979 14.1901C5.29417 9.03824 9.4451 4.91978 14.7043 4.14779Z" fill="black"/>
<path d="M12.6328 13.8955H20.3672C20.9012 13.8955 21.334 13.4533 21.334 12.9077C21.334 12.3624 20.9012 11.9199 20.3672 11.9199H12.6328C12.0988 11.9199 11.666 12.3624 11.666 12.9077C11.666 13.4533 12.0988 13.8955 12.6328 13.8955Z" fill="black"/>
<path d="M12.6328 17.8467H20.3672C20.9012 17.8467 21.334 17.4045 21.334 16.8589C21.334 16.3133 20.9012 15.8711 20.3672 15.8711H12.6328C12.0988 15.8711 11.666 16.3133 11.666 16.8589C11.666 17.4045 12.0988 17.8467 12.6328 17.8467Z" fill="black"/>
<path d="M12.6328 21.7979H20.3672C20.9012 21.7979 21.334 21.3557 21.334 20.8101C21.334 20.2645 20.9012 19.8223 20.3672 19.8223H12.6328C12.0988 19.8223 11.666 20.2645 11.666 20.8101C11.666 21.3557 12.0988 21.7979 12.6328 21.7979Z" fill="black"/>
</g>
<defs>
<clipPath id="clip0_1277_20271">
<rect width="33" height="33.7174" fill="white"/>
</clipPath>
</defs>
</svg>
