<svg width="43" height="39" viewBox="0 0 43 39" fill="none" xmlns="http://www.w3.org/2000/svg">
<g clip-path="url(#clip0_1395_86691)">
<path d="M43.001 14.1833C42.9359 14.3909 42.8742 14.6007 42.8046 14.8071C42.2718 16.37 40.8684 17.3091 39.0421 17.3113C35.2504 17.3157 31.4579 17.3157 27.6647 17.3113H27.087V20.1718C28.2638 19.7988 29.2184 20.103 29.9375 21.153C30.4816 20.88 31.0503 20.7368 31.6628 20.911C32.2051 21.0573 32.6732 21.3975 32.9765 21.8656C33.5823 21.8146 34.1241 21.6781 34.6368 21.7458C35.1148 21.811 35.5534 22.0434 35.8732 22.4009C36.193 22.7585 36.3728 23.2175 36.38 23.6949C36.4014 26.2146 36.4058 28.7355 36.3419 31.2541C36.3127 32.3696 35.8932 33.4153 35.3323 34.391C35.1079 34.7861 34.7579 34.9038 34.4236 34.7129C34.0893 34.5219 34.0063 34.1878 34.2206 33.8149C34.9273 32.5861 35.164 31.2619 35.1449 29.8644C35.1203 27.9396 35.1449 26.0149 35.1315 24.0923C35.1329 23.833 35.0701 23.5773 34.9486 23.3475C34.8657 23.1912 34.7323 23.0669 34.5696 22.9944C34.4069 22.922 34.2244 22.9056 34.0512 22.9479C33.8696 22.9764 33.7014 23.0599 33.5698 23.1869C33.4382 23.314 33.3496 23.4783 33.3164 23.6572C33.2895 23.7771 33.2861 23.9036 33.2682 24.0268C33.2233 24.3598 33.0326 24.5574 32.6927 24.5818C32.3303 24.6018 32.0936 24.4142 32.0443 24.0668C32.0173 23.7638 32.0083 23.4595 32.0173 23.1555C32.005 22.535 31.6135 22.0854 31.0874 22.0876C30.5612 22.0899 30.172 22.5228 30.1607 23.1588C30.1607 23.3941 30.1607 23.6294 30.1607 23.8648C30.1439 24.2688 29.9128 24.5075 29.5494 24.5119C29.1859 24.5163 28.9268 24.2766 28.9122 23.8825C28.892 23.3153 28.9211 22.7459 28.8976 22.1798C28.8967 22.0197 28.8532 21.8626 28.7713 21.7245C28.6894 21.5864 28.5722 21.4722 28.4313 21.3933C28.2905 21.3145 28.1311 21.2738 27.9693 21.2755C27.8075 21.2771 27.6491 21.3211 27.5099 21.4028C27.3646 21.4884 27.2454 21.6113 27.1648 21.7584C27.0843 21.9055 27.0454 22.0714 27.0522 22.2386C27.0466 22.7093 27.0522 23.181 27.0522 23.6516C27.0522 24.17 26.8155 24.452 26.4072 24.4398C26.0224 24.4287 25.7947 24.1445 25.7936 23.6539C25.7936 20.4693 25.7936 17.2835 25.7846 14.0989C25.7861 13.8402 25.718 13.5858 25.5871 13.3619C25.4955 13.203 25.3512 13.0804 25.1786 13.0149C25.006 12.9493 24.8159 12.9449 24.6403 13.0022C24.4549 13.0468 24.2884 13.148 24.1644 13.2914C24.0404 13.4349 23.9651 13.6133 23.9493 13.8014C23.9356 13.9531 23.9326 14.1056 23.9403 14.2577C23.9403 18.2589 23.9403 22.2604 23.9403 26.2624C23.9403 27.2936 23.1842 27.954 22.1701 27.8164C21.6036 27.7409 21.2491 27.399 21.0147 26.9029C20.3999 25.5997 19.7822 24.2984 19.1614 22.999C18.9101 22.4751 18.4883 22.2519 18.0262 22.3707C17.3968 22.5328 17.1287 23.1477 17.4237 23.7915C18.0452 25.1235 18.6802 26.4466 19.3084 27.7731C20.1505 29.5491 20.9922 31.327 21.8336 33.1067C23.8472 37.3425 28.8729 38.5457 32.6141 35.6908C33.0169 35.3844 33.359 35.38 33.6114 35.6786C33.8638 35.9772 33.7954 36.3446 33.3871 36.6776C29.4304 39.9055 23.2616 38.6889 20.9642 34.1479C19.3061 30.8734 17.7895 27.5289 16.2324 24.2044C15.9895 23.6743 15.9691 23.0705 16.1757 22.5255C16.3822 21.9805 16.7988 21.5388 17.334 21.2973C18.4379 20.7989 19.6898 21.2418 20.2406 22.3574C20.8654 23.625 21.4589 24.9104 22.0658 26.1825C22.1093 26.299 22.1698 26.4085 22.2453 26.5077C22.2787 26.5395 22.319 26.5634 22.3631 26.5774C22.4072 26.5915 22.454 26.5953 22.4999 26.5887C22.5717 26.5699 22.6334 26.4666 22.6716 26.3878C22.6882 26.3206 22.6913 26.2508 22.6805 26.1825V17.5799C22.6805 17.5122 22.6727 17.4445 22.666 17.3124H22.1308C16.0858 17.3124 10.04 17.3124 3.99347 17.3124C2.36573 17.3124 1.1093 16.6763 0.3891 15.2034C0.159981 14.7298 0.0364095 14.2131 0.0267571 13.6882C-0.00577533 10.5036 -0.00353179 7.31788 0.0144171 4.13327C0.0256352 2.12637 1.59168 0.581249 3.67936 0.505768C4.78322 0.466918 5.89044 0.491332 6.99542 0.499102C7.45649 0.499102 7.73133 0.752199 7.73021 1.12516C7.72909 1.49812 7.45537 1.73567 6.99094 1.739C5.97009 1.74677 4.94813 1.739 3.92616 1.739C2.27037 1.74566 1.2686 2.74465 1.2686 4.38968C1.2686 7.3941 1.2686 10.3993 1.2686 13.4052C1.2686 15.048 2.26925 16.0548 3.92728 16.0559C10.0434 16.0603 16.1591 16.0603 22.2744 16.0559C22.3967 16.0559 22.519 16.0414 22.6828 16.0315C22.6828 15.2789 22.6682 14.5474 22.6828 13.8181C22.6994 13.2728 22.9221 12.7536 23.3071 12.363C23.692 11.9725 24.211 11.7391 24.7615 11.7091C25.8104 11.6369 26.8525 12.4261 27.0051 13.4929C27.0926 14.0912 27.0399 14.7083 27.0477 15.3177C27.0477 15.5486 27.0477 15.7806 27.0477 16.0614H27.5436C31.3637 16.0614 35.1842 16.0614 39.0051 16.0614C40.7495 16.0614 41.7367 15.0802 41.7367 13.3563C41.7367 10.3652 41.7367 7.37412 41.7367 4.38302C41.7367 2.74687 40.7271 1.74453 39.0668 1.74453C29.4529 1.74453 19.8386 1.74453 10.224 1.74453C10.0424 1.75161 9.86054 1.74531 9.67991 1.72567C9.54157 1.70392 9.41495 1.63591 9.32114 1.53299C9.22733 1.43006 9.17201 1.29843 9.1644 1.16004C9.15679 1.02164 9.19735 0.884848 9.27932 0.772457C9.36128 0.660066 9.47971 0.578875 9.61484 0.542407C9.78023 0.510013 9.94909 0.498445 10.1174 0.50799C19.759 0.50799 29.4009 0.50799 39.0432 0.50799C41.0961 0.50799 42.4524 1.56916 42.9359 3.53387C42.9512 3.57127 42.9728 3.6058 42.9998 3.63598L43.001 14.1833Z" fill="black"/>
<path d="M10.3081 11.3652C9.1953 11.3652 8.09032 11.3652 6.98646 11.3752C6.9257 11.391 6.86927 11.42 6.82133 11.4601C6.77338 11.5003 6.73512 11.5505 6.70937 11.6072C6.55007 11.9602 6.43228 12.3309 6.28196 12.6884C6.12042 13.0724 5.78725 13.2289 5.44285 13.1002C5.09846 12.9714 4.96496 12.6295 5.11416 12.2388C6.00562 9.89816 6.90307 7.55826 7.8065 5.21911C7.93999 4.87056 8.19016 4.67299 8.56596 4.67188C8.94177 4.67077 9.1953 4.87278 9.32655 5.21911C10.2128 7.5479 11.0971 9.87706 11.9796 12.2066C12.1356 12.6184 12.0099 12.957 11.6835 13.0946C11.3256 13.2411 10.9666 13.058 10.7961 12.6295C10.6267 12.2144 10.4742 11.7992 10.3081 11.3652ZM7.27925 10.0954H9.828C9.41068 8.9987 9.00234 7.9242 8.55699 6.75648C8.10939 7.92753 7.70105 8.99204 7.27925 10.0954Z" fill="black"/>
<path d="M22.0085 9.96236C22.0085 10.8337 22.0085 11.593 22.0085 12.3533C22.0085 12.8628 21.7617 13.1548 21.3568 13.1414C20.9686 13.1281 20.751 12.8528 20.751 12.3544C20.751 10.0604 20.751 7.76235 20.751 5.46019C20.751 4.88854 20.9574 4.66318 21.5205 4.66096C22.262 4.66096 23.0069 4.63545 23.7428 4.70316C24.3962 4.77117 25.0012 5.07522 25.4421 5.5571C25.8829 6.03898 26.1287 6.66484 26.1323 7.31485C26.1359 7.96485 25.8971 8.59334 25.4616 9.07999C25.0261 9.56664 24.4245 9.87727 23.772 9.95239C23.2032 10.0123 22.6266 9.96236 22.0085 9.96236ZM22.0298 8.71138C22.6177 8.71138 23.1662 8.76356 23.6991 8.69807C24.3811 8.61482 24.8669 7.99432 24.868 7.33387C24.868 6.69007 24.4025 6.05625 23.7462 5.97189C23.1853 5.89863 22.6143 5.95636 22.0265 5.95636L22.0298 8.71138Z" fill="black"/>
<path d="M14.9616 9.96191C14.9616 10.8288 14.9616 11.5881 14.9616 12.3462C14.9616 12.8668 14.7283 13.151 14.3222 13.1421C13.9386 13.1332 13.7041 12.8479 13.7041 12.3651C13.7041 10.0659 13.7041 7.7678 13.7041 5.47083C13.7041 4.89917 13.9161 4.66829 14.4748 4.66496C15.2163 4.66496 15.9612 4.63944 16.6971 4.70604C17.3499 4.77406 17.9544 5.07763 18.3954 5.55876C18.8363 6.0399 19.0826 6.66488 19.0873 7.31434C19.092 7.96381 18.8548 8.59224 18.4209 9.0796C17.9871 9.56695 17.3869 9.87909 16.7352 9.95638C16.1687 10.0119 15.5921 9.96191 14.9616 9.96191ZM14.9762 8.78199C15.5786 8.75535 16.1384 8.7731 16.6847 8.6954C17.3309 8.60216 17.8009 8.01608 17.8223 7.38781C17.8436 6.75955 17.4375 6.11129 16.8003 5.99252C16.2102 5.88152 15.5932 5.91038 14.9762 5.88152V8.78199Z" fill="black"/>
<path d="M35.0387 7.6654C35.649 6.73633 36.2133 5.86164 36.7944 5.00139C37.0187 4.67504 37.3755 4.6029 37.6694 4.78827C37.9633 4.97364 38.0474 5.31218 37.8545 5.66183C37.7939 5.77284 37.7199 5.87163 37.6514 5.97598C37.0501 6.89395 36.4421 7.80639 35.8565 8.73324C35.742 8.91777 35.6774 9.12844 35.6692 9.34486C35.6456 10.3838 35.658 11.4228 35.6423 12.4606C35.6423 12.8913 35.3865 13.1444 35.0186 13.1433C34.6506 13.1422 34.4161 12.8858 34.3903 12.4562C34.3847 12.3452 34.3903 12.2342 34.3903 12.1232C34.3903 11.223 34.4139 10.3228 34.3903 9.42367C34.3831 9.16659 34.3098 8.91558 34.1772 8.69438C33.5557 7.7087 32.9017 6.74189 32.2645 5.7662C31.9908 5.34772 32.0256 4.99584 32.3487 4.7805C32.6717 4.56515 33.0408 4.66951 33.328 5.09797C33.3673 5.15569 33.4032 5.21561 33.4402 5.27333C33.8822 5.946 34.3249 6.61831 34.7684 7.29023C34.8436 7.40124 34.9254 7.50778 35.0387 7.6654Z" fill="black"/>
<path d="M29.047 11.9058C29.6887 11.9058 30.2866 11.8969 30.8846 11.9058C31.3153 11.9146 31.5576 12.1278 31.5823 12.4696C31.5917 12.5562 31.582 12.6438 31.5538 12.7263C31.5257 12.8089 31.4798 12.8843 31.4194 12.9476C31.3589 13.0109 31.2853 13.0605 31.2037 13.093C31.122 13.1254 31.0342 13.14 30.9463 13.1357C30.0944 13.1542 29.2422 13.1542 28.3897 13.1357C27.9802 13.1268 27.7906 12.8759 27.7895 12.3953C27.785 10.5453 27.785 8.69303 27.7895 6.83858C27.7895 6.35462 27.7895 5.87065 27.7895 5.38668C27.7951 4.92936 28.0318 4.66296 28.4132 4.66407C28.7946 4.66518 29.0426 4.94157 29.0437 5.39113C29.0504 7.38248 29.0437 9.37273 29.0437 11.3641L29.047 11.9058Z" fill="black"/>
</g>
<defs>
<clipPath id="clip0_1395_86691">
<rect width="43" height="38" fill="white" transform="translate(0 0.488281)"/>
</clipPath>
</defs>
</svg>
