<svg version="1.2" xmlns="http://www.w3.org/2000/svg" viewBox="0 0 499 504" width="499" height="504"><style>.a{fill:#031e54}.b{fill:#f3f3f3}.c{fill:#0449b7}.d{fill:#f4c63d}.e{fill:#fff}.f{fill:#fff;stroke:#031e54;stroke-width:6}.g{fill:#5da2f4}</style><path class="a" d="m365.2 127.5c0.6-4.9 0.9-10.5 1.9-16 2-10.7 7.3-19.4 15.2-26.9 7-6.6 14.6-12.5 23.5-16.4 6.7-2.9 13.8-4.4 21-5 19.3-1.5 35.9 4.7 50.1 17.6 6.8 6.1 12 13.5 15.7 22 3.3 7.3 5 15 5.5 22.9 0.5 8.5-0.7 16.7-3.5 24.8-3.4 9.8-8.8 18.5-16.3 25.8q-3.8 3.7-7.7 7.3c-6.3 5.9-13.9 8.8-22.2 10.4-7.2 1.4-14.4 1.4-21.6 1.4-13.1 0.1-25.1 3.9-36.1 10.9q-20.9 13.5-29.1 37.1c-1.9 5.3-3 10.9-3.4 16.6-0.3 4.3-0.6 8.6-0.7 12.9-0.1 7.4 1.8 14.4 4.6 21.1 9.2 21.9 25.3 36.2 48.2 42.5 6.5 1.8 13.1 2.1 19.7 2.7 5 0.5 9.9 1 14.7 2.2 8.1 2 15.3 5.7 21.1 11.9 4.7 5.1 9.7 10 13.7 15.8 1.2 1.7 2 3.3 2.7 5.2 1.2 3.5 2.4 7 3.6 10.5 2.4 6.3 2.9 12.5 3.3 19.2 0.2 3.6-0.1 7.8 0 11.4 0 1.5-0.1 2.9-0.4 4.3-0.6 3-1.7 6.3-3 9-1.3 3-2.3 5.7-4 8.5-1 1.6-2.2 3.1-3.2 4.7-4.2 6.1-9.1 11.6-15.1 16-10.5 7.7-22.2 12.4-35.2 13.1-21.5 1.2-39.5-6.4-54.1-22.1-3.1-3.3-6.1-6.7-8.7-10.3-3.9-5.6-5.7-12.1-7-18.8-1-5.5-0.9-11.1-0.8-16.7 0.3-12.2-2.3-23.8-7.9-34.8-4.8-9.4-11.5-17.2-19.7-23.7-4.8-3.8-10.1-6.8-15.7-9.3-8.3-3.7-17.1-5-26.1-5.4-7.4-0.4-14.8-1.4-21.9-3.7-7.2-2.3-13.4-6.2-18.6-11.7-5.1-5.3-10-10.8-13.8-17.2-4.4-7.7-7.3-15.8-8.6-24.5-1.2-8.3-0.7-16.5 1.3-24.7 3.3-13.7 10.4-25 20.7-34.5 4-3.7 7.9-7.7 12.8-10.3 6.6-3.6 13.6-5.4 21-6.1 3.3-0.3 6.8-0.3 10.2-0.2 10.3 0.3 20.2-1.4 29.7-5.2 12.5-4.9 22.7-12.9 30.7-23.6 5.6-7.4 9.8-15.7 11.9-24.9 1.1-4.9 2.1-9.9 1.6-15.8z"/><path class="b" d="m394.9 315c-1.2-1.1-2.1-2.2-3.3-3-4.7-3.1-8.8-6.9-12.5-11.1-4.1-4.7-7-10.2-9.1-16-5.6-15.9-4.5-31.3 4-45.9 8.2-14.2 20.6-23.4 36.7-26.6 21.9-4.5 40.6 1.7 55.4 18.5 6.8 7.8 11.1 17.1 12.5 27.5 1.9 13.8-1 26.5-8.6 38.2-4 5.9-9 10.8-14.9 14.8-1.9 1.3-3.7 2.7-5.6 4-0.5 0.3-1.2 0.5-1.8 0.7-6 2.2-12 4.2-18.4 4.9-10.4 1.1-20.3-0.5-29.9-4.8q-1-0.4-2-0.9c-0.9-0.5-1.7-1.1-2.5-0.3z"/><path class="c" d="m124 121.3c-5.6 6.7-12.1 12.3-19.8 16.4-5.4 2.8-11.1 4.4-17.3 4.8-6.3 0.3-12.6 0.9-19 0.1q-15.4-1.7-28.5-10c-14.7-9.4-24-22.7-28.4-39.4-4.1-15.7-2.4-31.1 4.8-45.7 5.9-12.2 14.7-21.6 26.5-28.2 8.3-4.6 17-7.7 26.5-8.3 4.3-0.4 8.7-0.6 13-0.8 4.9-0.2 9.6 0.8 14.2 2.6 9.5 3.5 17.2 9.6 24.9 16 3.9 3.3 8.3 6.1 12.6 8.9 2.5 1.5 5.3 2.7 8 3.6 6.9 2.3 13.8 4.2 21 4.3 4.4 0 8.9 0.2 13.2-0.4 6.8-1 13.6-2.8 19.9-5.8 9.3-4.5 17.3-10.7 24.3-18.2 5.2-5.7 11.3-10.5 18.4-13.8 17.6-8.3 35.7-9.3 53.9-2.3 21.9 8.4 35.8 24.3 41.7 46.9 4.4 16.7 2.6 32.9-5.7 48-8 14.7-19.9 25.5-36 31.1-3.7 1.2-7.4 2.2-11.4 2.3-4 0.1-8 0.7-12 0.7-7.9 0-15.6-1.5-22.9-4.3-7.6-3-14.5-7-20.5-12.5-9.3-8.5-20.1-14.5-32.3-17.6q-0.3-0.1-0.4-0.2c-10.2-3.8-20.5-2.8-30.7-0.8-12.4 2.5-23.2 8.4-32.6 16.9-1 0.9-1.9 1.9-2.8 2.8-0.9 1-1.7 1.9-2.6 2.9z"/><path class="d" d="m226.7 211.9c-3.2 4.3-6.6 8.3-9.3 12.8-2.5 4-4.6 8.3-6.3 12.7-5.1 13.4-6 27.1-2.7 41 1.8 7.4 4.2 14.4 8.6 20.6 2.9 4.2 5.8 8.4 8.9 12.4 1.4 1.8 3.3 3 4.9 4.6 3 3.1 6.3 6 9.1 9.3 2.9 3.7 5.5 7.5 7.6 11.8 2.8 5.9 4 12 4.2 18.5 0.1 4.5 0.5 9.1 0.1 13.6-0.5 5.2-1.5 10.5-2.9 15.6-0.9 3.4-2.8 6.5-4.3 9.8-1 2-1.9 4.1-3.1 5.9-3.5 5.6-7.9 10.5-12.9 14.7-14 12.2-30.6 16.5-48.8 15.3-3.5-0.2-7-1.2-10.5-2q-4.3-1-8.4-2.4c-1.5-0.4-2.8-1.3-4.2-2-2.3-1.3-4.5-2.7-6.8-4-3.7-2.1-6.9-4.9-9.9-7.9-2.7-2.6-5.3-5.4-7.5-8.5-2.2-2.9-3.8-6.2-5.6-9.4-2.1-3.5-3.3-7.4-4.5-11.3-1.8-6-2.5-12.2-2.7-18.5-0.1-2.8-0.2-5.6-0.3-8.5-0.1-3.7 0.8-7.3 1.9-10.8 2.9-9.4 8.5-17.2 14.9-24.4 2.9-3.2 5-6.9 7.6-10.4 1-1.4 2.1-2.7 2.4-4.5 0.2-1.2 1.2-2.3 1.7-3.4 0.8-1.9 1.6-3.8 2.4-5.7 0.4-0.9 1-1.8 1.2-2.7 0.7-3.4 1.2-6.8 2-10.2 1.8-7.4 1.4-14.9 0.3-22.4-0.4-2.4-1.2-4.8-1.9-7.1-0.3-1.2-0.8-2.4-1.1-3.7-0.7-3.6-2.3-6.9-4.2-10.1-1.9-3.2-3.8-6.4-5.9-9.5-3.6-5.4-8.1-10-13.1-14.2-4-3.4-7-7.5-9.9-11.8-1.8-2.7-3.7-5.5-4.9-8.5-1.2-2.9-2.1-6.1-2.5-9.2-0.6-5.3-1.1-10.7-1.1-16.1 0-4.7 0.7-9.4 1.4-14.1 0.3-2.3 1.2-4.5 1.9-6.7q1.8-5 3.8-9.9c0.6-1.3 1.4-2.5 2.2-3.7 3.2-4.4 6.1-9.1 10.3-12.8 3-2.7 6-5.5 9.2-8.1 1.3-1 2.9-1.7 4.3-2.5 4.8-2.7 9.8-4.8 15.1-6.3 7.5-2 15.1-2.7 22.8-2.1 7.6 0.6 14.9 2.5 21.9 5.5 4.1 1.7 8.1 3.8 11.5 6.8 2.4 2.2 5.2 3.9 7.5 6.2 3.1 3.1 6.1 6.3 8.6 9.9 3.2 4.5 5.7 9.4 7.5 14.7 2.8 7.7 4 15.5 4.3 23.6 0.1 2.6 0.4 5.2 0.2 7.8-0.2 3-0.8 5.9-1.4 8.8-1 4.7-3.1 8.9-5.6 12.9-2.4 3.8-4.9 7.4-7.3 11.1l-0.7-0.5z"/><path class="e" d="m292 45.3c1.4 1.6 3 3.1 4.2 4.9 3.7 5.3 5.5 11.3 5.4 17.8 0 3.6-0.7 7-1.9 10.3-0.6 1.4-1.4 2.7-2 4.1-1.7 3.3-4.4 5.7-6.9 8.3-0.7 0.8-1.6 1.3-2.5 1.9-2.3 1.5-4.7 2.7-7.3 3.5-3.5 1.2-7.2 1.7-10.9 1.5-3.2-0.2-6.3-0.7-9.2-1.9-0.7-0.3-1.5-0.6-2.2-0.9-0.2 0-0.3-0.2-0.5-0.3q-0.5-0.2-1.1-0.5-0.2-0.1-0.4-0.2c-2.3-1.5-4.5-3.1-6.5-5.1q-0.6-0.5-1.1-1.2c-0.8-1.2-1.8-2.3-2.5-3.5q-1.3-2.1-2.3-4.3c-1.4-3.1-2.1-6.5-2.3-10q-0.3-5.9 1.7-11.6c0.7-2.1 1.6-4.2 2.8-6 1.4-2 3.1-3.8 4.7-5.6 0.2-0.2 0.5-0.4 0.7-0.6 1.1-1.5 2.6-2.3 4.1-3.3 2.3-1.6 4.8-2.6 7.5-3.4 2.9-0.9 5.9-1.4 9-1.3 2.7 0.1 5.4 0.4 8 1.2 1.2 0.3 2.3 0.8 3.5 1.3 0.9 0.4 1.9 0.7 2.6 1.2 1.6 1.1 3.4 1.8 4.7 3.3 0.2 0.2 0.4 0.3 0.6 0.5q0.1 0 0.1-0.1z"/><path class="e" d="m309.6 262.3c-0.2 2-0.3 4-0.6 5.9-0.1 0.8-0.5 1.7-0.8 2.5-0.4 1.2-0.7 2.4-1.3 3.5-0.9 2-2 3.9-3.4 5.7-1.2 1.5-2.4 2.9-3.9 4.1-1.1 0.9-2.3 1.8-3.5 2.7-0.9 0.6-1.8 1.2-2.8 1.7q-1.7 0.9-3.4 1.4c-1.4 0.5-2.8 0.7-4.2 1.1-3 1-6.2 0.7-9.3 0.7-1.6-0.1-3-0.6-4.5-0.9-2.2-0.3-4.2-1.3-6.1-2.2-3.4-1.7-6.3-3.9-8.8-6.6q-3.2-3.5-5.1-7.7c-0.6-1.3-1-2.7-1.5-4-1.2-3.8-1.1-7.7-0.9-11.6 0-1 0.3-2 0.4-2.9 0-0.1 0-0.1 0-0.2 0.9-0.7 0.5-1.8 0.9-2.7q0.8-1.8 1.6-3.6 0.1-0.1 0.2-0.2c0.8-2.1 2.2-4 3.7-5.8 2-2.5 4.5-4.5 7.2-6.2 2.2-1.4 4.6-2.3 7.1-3.1 3.4-1.1 6.9-1.4 10.4-1.3 1.9 0.1 3.8 0.2 5.6 0.7 3.4 0.8 6.6 2.2 9.5 4.2 2.2 1.4 4.2 3 5.9 5 1.1 1.2 2 2.6 2.9 3.9 0.8 1.1 1.5 2.2 2 3.4 0.6 1.4 1 2.8 1.5 4.2 1 2.7 1.1 5.5 1.2 8.3z"/><path class="b" d="m65.4 339.5c-17.2-0.1-32.6-6.4-45.4-18.8-13.7-13.5-20.4-30.2-19.8-49.3 1.2-34.4 28.8-63.9 66.5-63.8 36.7 0.1 66.5 30.8 65.3 68-0.5 17.3-7.3 32.3-19.3 44.5-12.7 12.9-28.4 19.4-47.3 19.4z"/><path class="f" d="m292 501c-29.3 0-53-23.7-53-53 0-29.3 23.7-53 53-53 29.3 0 53 23.7 53 53 0 29.3-23.7 53-53 53z"/><path class="g" d="m292.5 424c1.8 0.2 3.6 0.3 5.3 0.7 5.2 1.2 9.6 3.8 13.2 7.9 1.9 2.1 3.4 4.6 4.4 7.2 0.5 1.2 0.7 2.4 1.1 3.6 0.8 2.9 0.4 5.8 0.4 8.7-0.1 0.9-0.3 1.7-0.6 2.6-0.5 2.1-1.4 4.1-2.5 6-1.6 2.7-3.5 5-5.9 6.8-2.1 1.6-4.3 3-6.8 3.9-0.6 0.2-1.2 0.4-1.8 0.6-0.1 0.1-0.3 0.1-0.4 0.1q-0.5 0.2-1 0.3-0.2 0.1-0.4 0.1c-2.2 0.4-4.5 0.6-6.8 0.5q-0.7-0.1-1.3-0.2c-1.2-0.2-2.4-0.4-3.6-0.7q-1.9-0.6-3.7-1.4c-2.6-1.2-4.9-2.8-7-4.8q-3.5-3.4-5.4-8c-0.7-1.6-1.3-3.3-1.5-5.1-0.3-2-0.2-4-0.2-6 0-0.2 0.1-0.5 0.1-0.7-0.2-1.5 0.3-2.8 0.7-4.2 0.5-2.2 1.5-4.2 2.7-6.1 1.3-2.2 2.9-4.1 4.9-5.7 1.7-1.4 3.5-2.7 5.5-3.6 1-0.5 2-0.8 3-1.1 0.7-0.3 1.5-0.6 2.2-0.7 1.6-0.2 3.1-0.7 4.7-0.6 0.3 0.1 0.5 0 0.7 0q0 0 0-0.1z"/></svg>