<svg width="20" height="20" viewBox="0 0 20 20" fill="none" xmlns="http://www.w3.org/2000/svg">
<g clip-path="url(#clip0_908_1262)">
<path d="M6.05469 0H0.585938C0.262344 0 0 0.262344 0 0.585938V1.95312H6.64062V0.585938C6.64062 0.262344 6.37828 0 6.05469 0Z" fill="black"/>
<path d="M19.7056 5.58551C19.5235 5.48105 19.2995 5.48195 19.1183 5.58797L13.3203 8.97859V6.09375C13.3203 5.88383 13.208 5.68996 13.0259 5.58551C12.8438 5.48105 12.6198 5.48195 12.4386 5.58797L6.64062 8.97859V3.125H0V19.4141C0 19.7377 0.262344 20 0.585938 20H19.4141C19.7377 20 20 19.7377 20 19.4141V6.09375C20 5.88383 19.8877 5.68996 19.7056 5.58551ZM8.98438 15.8789C8.98438 16.2025 8.72203 16.4648 8.39844 16.4648H6.05469C5.73109 16.4648 5.46875 16.2025 5.46875 15.8789V13.5352C5.46875 13.2116 5.73109 12.9492 6.05469 12.9492H8.39844C8.72203 12.9492 8.98438 13.2116 8.98438 13.5352V15.8789ZM15.6641 15.8789C15.6641 16.2025 15.4017 16.4648 15.0781 16.4648H12.7344C12.4108 16.4648 12.1484 16.2025 12.1484 15.8789V13.5352C12.1484 13.2116 12.4108 12.9492 12.7344 12.9492H15.0781C15.4017 12.9492 15.6641 13.2116 15.6641 13.5352V15.8789Z" fill="black"/>
</g>
<defs>
<clipPath id="clip0_908_1262">
<rect width="20" height="20" fill="white"/>
</clipPath>
</defs>
</svg>
