<svg width="24" height="24" viewBox="0 0 24 24" fill="none" xmlns="http://www.w3.org/2000/svg">
<g clip-path="url(#clip0_909_19463)">
<path d="M4 19C5.10457 19 6 18.1046 6 17C6 15.8954 5.10457 15 4 15C2.89543 15 2 15.8954 2 17C2 18.1046 2.89543 19 4 19Z" fill="black"/>
<path d="M6 20H2C0.896 20 0 20.896 0 22V24H8V22C8 20.896 7.104 20 6 20Z" fill="black"/>
<path d="M12 4C13.1046 4 14 3.10457 14 2C14 0.89543 13.1046 0 12 0C10.8954 0 10 0.89543 10 2C10 3.10457 10.8954 4 12 4Z" fill="black"/>
<path d="M20 19C21.1046 19 22 18.1046 22 17C22 15.8954 21.1046 15 20 15C18.8954 15 18 15.8954 18 17C18 18.1046 18.8954 19 20 19Z" fill="black"/>
<path d="M22 20H18C16.896 20 16 20.896 16 22V24H24V22C24 20.896 23.104 20 22 20Z" fill="black"/>
<path d="M19.0014 13C19.2104 13 19.4204 12.935 19.6004 12.8C20.0424 12.469 20.1324 11.842 19.8004 11.4L15.3004 5.4C15.1114 5.148 14.8144 5 14.5004 5H9.50038C9.18538 5 8.88938 5.148 8.70038 5.4L4.20038 11.4C3.86838 11.842 3.95838 12.469 4.40038 12.8C4.84338 13.133 5.46938 13.042 5.80038 12.6L9.00038 8.333V12H15.0004V8.333L18.2004 12.6C18.3964 12.862 18.6964 13 19.0014 13Z" fill="black"/>
<path d="M12 14C11.448 14 11 14.447 11 15V24H13V15C13 14.447 12.552 14 12 14Z" fill="black"/>
</g>
<defs>
<clipPath id="clip0_909_19463">
<rect width="24" height="24" fill="white"/>
</clipPath>
</defs>
</svg>
