<svg width="21" height="21" viewBox="0 0 21 21" fill="none" xmlns="http://www.w3.org/2000/svg">
<g clip-path="url(#clip0_1010_44804)">
<path d="M8.52266 14.4102H8.14941V15.8156H8.52266C9.45519 15.7769 9.45445 14.4485 8.52266 14.4102Z" fill="black"/>
<path d="M4.07447 14.4102C3.61235 14.4102 3.20703 15.0465 3.20703 15.7719C3.20703 16.4973 3.61239 17.1336 4.07447 17.1336C4.53655 17.1336 4.94195 16.4973 4.94195 15.7719C4.94195 15.0465 4.53655 14.4102 4.07447 14.4102Z" fill="black"/>
<path d="M20.3847 10.543H0.615232C0.27546 10.543 0 10.8184 0 11.1582V20.384C0 20.7237 0.27546 20.9992 0.615232 20.9992H20.3847C20.7245 20.9992 20.9999 20.7237 20.9999 20.384V11.1582C20.9999 10.8184 20.7245 10.543 20.3847 10.543ZM4.07489 18.3633C2.93904 18.3633 1.97699 17.2457 1.97699 15.7711C2.07743 12.3282 6.07619 12.3376 6.17287 15.7711C6.17283 17.2281 5.22443 18.3633 4.07489 18.3633ZM8.52301 17.0453H8.14977V17.7481C8.11725 18.5644 6.95151 18.5637 6.91931 17.7481V13.7942C6.91931 13.4544 7.19477 13.179 7.53454 13.179H8.52301C11.0883 13.2854 11.0864 16.9397 8.52301 17.0453ZM13.1359 15.1559C13.9522 15.1884 13.9516 16.3541 13.1359 16.3863H12.4332V17.1328H13.4654C14.2817 17.1653 14.2811 18.3311 13.4654 18.3633H11.818C11.4782 18.3633 11.2027 18.0878 11.2027 17.748V13.7941C11.2027 13.4544 11.4782 13.1789 11.818 13.1789H13.4654C14.2817 13.2114 14.2811 14.3772 13.4654 14.4094H12.4332V15.1559H13.1359ZM18.6935 17.748C18.6935 18.0191 18.516 18.2583 18.2566 18.3368C17.9952 18.4159 17.7157 18.3133 17.5664 18.0893L16.0576 15.8261V17.748C16.0251 18.5643 14.8593 18.5637 14.8271 17.748V13.7941C14.8271 13.523 15.0046 13.2839 15.2641 13.2053C15.5235 13.1268 15.8038 13.2273 15.9542 13.4529L17.463 15.716V13.7941C17.4956 12.9779 18.6613 12.9785 18.6935 13.7941V17.748Z" fill="black"/>
<path d="M3.98915 9.31331L9.63849 3.66355C10.1502 3.93159 10.8483 3.93159 11.3601 3.66355L17.0094 9.31335H18.7495L12.23 2.79324C12.8741 1.53518 11.9188 -0.0135269 10.4992 9.02237e-05C9.07986 -0.0136089 8.12424 1.53542 8.76855 2.79324L2.24902 9.31331H3.98915Z" fill="black"/>
</g>
<defs>
<clipPath id="clip0_1010_44804">
<rect width="21" height="21" fill="white"/>
</clipPath>
</defs>
</svg>
