<svg width="76" height="76" viewBox="0 0 76 76" fill="none" xmlns="http://www.w3.org/2000/svg">
    <g clip-path="url(#clip0_500_7339)">
        <path
            d="M37.5747 75.2873C58.2702 75.2873 75.0473 58.5102 75.0473 37.8146C75.0473 17.1191 58.2702 0.342041 37.5747 0.342041C16.8791 0.342041 0.102051 17.1191 0.102051 37.8146C0.102051 58.5102 16.8791 75.2873 37.5747 75.2873Z"
            fill="#E3ECF5" />
        <path
            d="M15.9004 50.7024L40.3808 75.1828C59.7656 73.7476 75.0471 57.5661 75.0471 37.8147C75.0471 36.7623 75.0014 35.7205 74.9164 34.69L59.1114 18.7209L15.9004 50.7024Z"
            fill="#ACC4DB" />
        <path
            d="M55.7219 17.4443H19.6737C16.8356 17.4443 14.5347 19.7451 14.5347 22.5834V47.2147C14.5347 50.0528 16.8354 52.3537 19.6737 52.3537H21.9813L28.8006 62.1136L35.6199 52.3537H55.7219C58.56 52.3537 60.8609 50.053 60.8609 47.2147V22.5834C60.8609 19.7452 58.56 17.4443 55.7219 17.4443Z"
            fill="#31363C" />
        <path
            d="M55.7217 17.4443H37.4282V52.3536H55.7217C58.5598 52.3536 60.8608 50.0528 60.8608 47.2146V22.5834C60.8608 19.7452 58.5598 17.4443 55.7217 17.4443Z"
            fill="#31363C" />
        <path
            d="M48.0023 44.528C53.5021 44.528 57.9606 40.0695 57.9606 34.5697C57.9606 29.0698 53.5021 24.6113 48.0023 24.6113C42.5024 24.6113 38.0439 29.0698 38.0439 34.5697C38.0439 40.0695 42.5024 44.528 48.0023 44.528Z"
            fill="white" />
        <path
            d="M48.0019 24.6113C47.9658 24.6113 47.9302 24.6137 47.894 24.6141V44.5255C47.9301 44.526 47.9658 44.5283 48.0019 44.5283C53.5018 44.5283 57.9603 40.0698 57.9603 34.57C57.9603 29.0701 53.5018 24.6113 48.0019 24.6113Z"
            fill="white" />
        <path
            d="M48.0021 36.8466C50.3656 36.8466 52.2816 34.9306 52.2816 32.5671C52.2816 30.2036 50.3656 28.2876 48.0021 28.2876C45.6386 28.2876 43.7227 30.2036 43.7227 32.5671C43.7227 34.9306 45.6386 36.8466 48.0021 36.8466Z"
            fill="#0449B7" />
        <path
            d="M48.0019 28.2874C47.9658 28.2874 47.9301 28.2891 47.894 28.2901V36.8438C47.9301 36.8447 47.9658 36.8466 48.0019 36.8466C50.3655 36.8466 52.2814 34.9305 52.2814 32.567C52.2814 30.2034 50.3655 28.2874 48.0019 28.2874Z"
            fill="#0449B7" />
        <path
            d="M48.0021 44.5281C50.6494 44.5281 53.0504 43.4797 54.8178 41.7779C53.7406 39.0677 51.0961 37.1506 48.0021 37.1506C44.9082 37.1506 42.2636 39.0676 41.1865 41.7779C42.9539 43.4797 45.3548 44.5281 48.0021 44.5281Z"
            fill="#0449B7" />
        <path
            d="M54.8175 41.7777C53.7404 39.0675 51.0959 37.1504 48.0019 37.1504C47.9658 37.1504 47.9301 37.152 47.894 37.1524V44.5252C47.9301 44.5256 47.9658 44.5278 48.0019 44.5278C50.6492 44.528 53.0502 43.4796 54.8175 41.7777Z"
            fill="#0449B7" />
        <path d="M32.901 28.5059H20.9355V33.0086H32.901V28.5059Z" fill="white" />
        <path d="M32.901 36.1309H20.9355V40.6336H32.901V36.1309Z" fill="white" />
    </g>
    <defs>
        <clipPath id="clip0_500_7339">
            <rect width="74.9452" height="74.9452" fill="white"
                transform="translate(0.102051 0.342041)" />
        </clipPath>
    </defs>
</svg>
    