<svg width="28" height="29" viewBox="0 0 28 29" fill="none" xmlns="http://www.w3.org/2000/svg">
<path d="M27.4577 12.7704V3.13711C27.4577 1.01211 26.551 0.162109 24.2985 0.162109H18.5752C16.3227 0.162109 15.416 1.01211 15.416 3.13711V12.7704C15.416 14.8954 16.3227 15.7454 18.5752 15.7454H24.2985C26.551 15.7454 27.4577 14.8954 27.4577 12.7704Z" fill="black"/>
<path d="M12.5827 15.8871V25.5204C12.5827 27.6454 11.676 28.4954 9.42352 28.4954H3.70018C1.44768 28.4954 0.541016 27.6454 0.541016 25.5204V15.8871C0.541016 13.7621 1.44768 12.9121 3.70018 12.9121H9.42352C11.676 12.9121 12.5827 13.7621 12.5827 15.8871Z" fill="black"/>
<path d="M27.4577 25.5198V21.5531C27.4577 19.4281 26.551 18.5781 24.2985 18.5781H18.5752C16.3227 18.5781 15.416 19.4281 15.416 21.5531V25.5198C15.416 27.6448 16.3227 28.4948 18.5752 28.4948H24.2985C26.551 28.4948 27.4577 27.6448 27.4577 25.5198Z" fill="black"/>
<path d="M12.5827 7.10378V3.13711C12.5827 1.01211 11.676 0.162109 9.42352 0.162109H3.70018C1.44768 0.162109 0.541016 1.01211 0.541016 3.13711V7.10378C0.541016 9.22878 1.44768 10.0788 3.70018 10.0788H9.42352C11.676 10.0788 12.5827 9.22878 12.5827 7.10378Z" fill="black"/>
</svg>
