<svg width="24" height="16" viewBox="0 0 24 16" fill="none" xmlns="http://www.w3.org/2000/svg">
<path d="M14.8331 5.69883C14.4686 5.48721 14.0208 5.48573 13.6562 5.6949L9.17465 8.26429C8.80763 8.47493 8.58057 8.86675 8.58057 9.29146V13.9245C8.58057 14.578 9.10859 15.1078 9.75993 15.1078H14.2415C14.8928 15.1078 15.4209 14.578 15.4209 13.9245V6.72256C15.4204 6.30079 15.1962 5.91045 14.8331 5.69883Z" fill="black"/>
<path d="M6.81234 10.2976C6.44826 10.084 6 10.0835 5.63543 10.2937L1.09464 12.8974C0.630233 13.1631 0.402191 13.7095 0.539701 14.228C0.676723 14.747 1.14455 15.1079 1.67942 15.1079H6.2207C6.87204 15.1079 7.40006 14.5781 7.40006 13.9246V11.3203C7.40055 10.8996 7.17643 10.5087 6.81234 10.2976Z" fill="black"/>
<path d="M22.9124 1.06662C22.5483 0.854513 22.1 0.853531 21.7355 1.06319L17.1947 3.66646C16.8272 3.8771 16.6001 4.26941 16.6001 4.69412V13.9244C16.6001 14.5779 17.1281 15.1077 17.7795 15.1077H22.3202C22.9716 15.1077 23.4996 14.5779 23.4996 13.9244V2.09036C23.5001 1.66859 23.276 1.27824 22.9124 1.06662Z" fill="black"/>
</svg>
