<svg width="156" height="38" viewBox="0 0 156 38" fill="none" xmlns="http://www.w3.org/2000/svg">
<path d="M71.4635 20.0864L69.0232 13.8295C69.0005 13.7731 68.9608 13.7246 68.9091 13.6904C68.8573 13.6562 68.7961 13.6379 68.7334 13.6379C68.6707 13.6379 68.6094 13.6562 68.5577 13.6904C68.5059 13.7246 68.4662 13.7731 68.4436 13.8295L66.0032 20.0874C65.9863 20.1318 65.9808 20.1795 65.9874 20.2264C65.9939 20.2733 66.0123 20.3179 66.041 20.3563C66.0694 20.3948 66.1073 20.4259 66.1513 20.447C66.1952 20.4682 66.2438 20.4786 66.2929 20.4775H71.1946C71.2675 20.4782 71.3381 20.4524 71.3921 20.405C71.446 20.3578 71.4794 20.2925 71.4853 20.2224C71.4898 20.1764 71.4824 20.129 71.4635 20.0864ZM72.6007 23.5975H64.8661C64.8029 23.5979 64.7414 23.6168 64.6896 23.6516C64.6379 23.6864 64.5984 23.7356 64.5763 23.7926L63.0456 27.6958C63.0235 27.7526 62.9841 27.8017 62.9326 27.8365C62.8811 27.8713 62.8198 27.8902 62.7569 27.8908H59.4035C59.3524 27.8915 59.3017 27.8799 59.2563 27.8571C59.211 27.8343 59.1722 27.8008 59.1436 27.76C59.115 27.7191 59.0973 27.672 59.0923 27.6228C59.0873 27.5737 59.095 27.5242 59.1148 27.4787L66.8288 9.24003C66.8518 9.18483 66.8923 9.13802 66.9444 9.10624C66.9967 9.07446 67.0579 9.05931 67.1195 9.06297H70.3243C70.3852 9.06333 70.4446 9.08011 70.496 9.11141C70.5474 9.1427 70.5887 9.18727 70.6151 9.24003L78.3281 27.4787C78.3478 27.5244 78.3556 27.574 78.3505 27.6233C78.3453 27.6725 78.3277 27.7197 78.299 27.7606C78.2702 27.8017 78.2314 27.8351 78.1858 27.858C78.1403 27.8809 78.0896 27.8925 78.0383 27.8919H74.6901C74.6269 27.8914 74.5653 27.8724 74.5136 27.8373C74.4618 27.8023 74.4224 27.7529 74.4005 27.6958L72.8697 23.7926C72.8552 23.735 72.8205 23.6841 72.7714 23.6484C72.7225 23.6126 72.6622 23.5955 72.6007 23.5975ZM79.9221 15.457H82.7977C82.8788 15.4584 82.9563 15.49 83.0141 15.5449C83.0718 15.5998 83.1056 15.6739 83.1082 15.7521V27.5988C83.1056 27.6767 83.0718 27.7506 83.014 27.8053C82.9562 27.8599 82.8786 27.8909 82.7977 27.8919H79.9232C79.8419 27.8912 79.7643 27.8602 79.7062 27.8056C79.6482 27.751 79.6142 27.6768 79.6116 27.5988V15.7521C79.6112 15.7128 79.619 15.6738 79.6346 15.6375C79.65 15.6011 79.673 15.5682 79.7022 15.5407C79.7313 15.5131 79.7658 15.4915 79.8038 15.4772C79.8418 15.4628 79.8813 15.4559 79.9221 15.457ZM93.5741 18.3398C93.5717 18.4182 93.5382 18.4926 93.4804 18.5478C93.4225 18.6028 93.345 18.6345 93.2636 18.6359H93.1805C91.7536 18.6359 90.7193 18.948 90.0577 19.5963C89.3963 20.2444 89.065 21.3028 89.065 22.7912V27.5777C89.0623 27.6557 89.0288 27.7298 88.9712 27.7846C88.9137 27.8395 88.8365 27.8711 88.7555 27.8729H85.9205C85.8395 27.8711 85.7623 27.8395 85.7047 27.7846C85.6471 27.7298 85.6136 27.6557 85.6109 27.5777V15.7521C85.6136 15.6739 85.6472 15.5998 85.7051 15.5449C85.7629 15.49 85.8404 15.4584 85.9214 15.457H88.7337C88.815 15.4582 88.8927 15.4896 88.9508 15.5445C89.0087 15.5994 89.0426 15.6737 89.0453 15.7521V18.0858H89.1065C89.3936 17.1993 89.9567 16.4192 90.7193 15.8511C91.5165 15.3095 92.4757 15.0341 93.4505 15.0668H93.5948V18.3409L93.5741 18.3398ZM101.413 18.2238C101.332 18.2251 101.255 18.256 101.197 18.3104C101.14 18.3648 101.106 18.4383 101.103 18.5159V23.4395C101.065 23.8246 101.175 24.2087 101.413 24.5198C101.62 24.7338 101.971 24.8319 102.489 24.8319H102.778C102.859 24.8337 102.936 24.8652 102.994 24.9201C103.052 24.9749 103.085 25.049 103.088 25.127V27.5977C103.085 27.6755 103.051 27.7493 102.994 27.804C102.936 27.8585 102.859 27.8896 102.778 27.8908H101.559C100.296 27.8908 99.3252 27.5768 98.643 26.9686C97.9597 26.3423 97.6294 25.4391 97.6294 24.2047V18.5159C97.6265 18.438 97.5924 18.3642 97.5345 18.3097C97.4764 18.2553 97.3988 18.2245 97.3179 18.2238H95.5192C95.4381 18.2221 95.3608 18.1904 95.3032 18.1353C95.2456 18.0802 95.2121 18.0059 95.2098 17.9278V15.7521C95.2121 15.6741 95.2456 15.5998 95.3032 15.5449C95.3608 15.49 95.4382 15.4584 95.5192 15.457H97.319C97.3999 15.456 97.4774 15.4249 97.5352 15.3704C97.593 15.3158 97.6268 15.2418 97.6294 15.1639V10.7695C97.6321 10.6916 97.6658 10.6176 97.7237 10.563C97.7815 10.5084 97.859 10.4774 97.9399 10.4764H100.815C100.895 10.4774 100.973 10.5084 101.031 10.563C101.089 10.6176 101.122 10.6916 101.125 10.7695V15.1639C101.128 15.2418 101.161 15.3158 101.219 15.3704C101.277 15.4249 101.355 15.456 101.436 15.457H103.503C103.584 15.4584 103.662 15.49 103.72 15.5449C103.777 15.5998 103.811 15.6739 103.814 15.7521V17.9278C103.811 18.0061 103.778 18.0805 103.72 18.1356C103.662 18.1908 103.585 18.2223 103.503 18.2238H101.413ZM114.546 24.1857C114.877 23.8487 115.134 23.4508 115.301 23.0159C115.468 22.5809 115.542 22.1181 115.519 21.6549C115.537 21.1922 115.461 20.7306 115.294 20.2964C115.127 19.8621 114.873 19.4638 114.546 19.1241C113.846 18.5066 112.931 18.1641 111.982 18.1641C111.033 18.1641 110.118 18.5066 109.417 19.1241C109.087 19.4611 108.83 19.8591 108.663 20.2939C108.496 20.7288 108.422 21.1918 108.445 21.6549C108.427 22.1175 108.503 22.5792 108.67 23.0134C108.837 23.4477 109.091 23.8461 109.417 24.1857C109.753 24.5076 110.154 24.759 110.596 24.9243C111.037 25.0896 111.509 25.165 111.982 25.146C112.456 25.1715 112.93 25.0989 113.373 24.9333C113.815 24.7676 114.215 24.5127 114.546 24.1857ZM107.927 27.5008C106.956 26.9703 106.166 26.1793 105.653 25.2241C105.108 24.1072 104.825 22.8884 104.825 21.6544C104.825 20.4204 105.108 19.2017 105.653 18.0848C106.172 17.1341 106.961 16.3449 107.927 15.8091C108.898 15.2826 109.997 15.012 111.111 15.0248C112.022 15.0033 112.925 15.1992 113.739 15.595C114.458 15.9618 115.059 16.5115 115.476 17.1845H115.538V15.7301C115.541 15.6524 115.575 15.5787 115.632 15.5242C115.69 15.4696 115.767 15.4384 115.848 15.437H118.682C118.763 15.4382 118.84 15.4693 118.898 15.5238C118.956 15.5784 118.989 15.6521 118.992 15.7301V27.5758C118.99 27.6542 118.956 27.7288 118.898 27.784C118.84 27.8392 118.762 27.8706 118.681 27.8718H115.85C115.768 27.8703 115.691 27.8388 115.633 27.7836C115.575 27.7285 115.542 27.6541 115.539 27.5758V26.1253H115.477C115.06 26.7988 114.458 27.3491 113.739 27.7158C112.924 28.1101 112.022 28.3055 111.111 28.2849C109.997 28.2977 108.898 28.0273 107.927 27.5008ZM130.803 24.1857C131.133 23.8486 131.39 23.4507 131.557 23.0159C131.725 22.5809 131.798 22.118 131.775 21.6549C131.793 21.1922 131.717 20.7306 131.551 20.2964C131.384 19.8621 131.129 19.4638 130.803 19.1241C130.103 18.5063 129.187 18.1636 128.238 18.1636C127.288 18.1636 126.373 18.5063 125.673 19.1241C125.342 19.4613 125.086 19.8592 124.919 20.2941C124.753 20.7289 124.678 21.1919 124.701 21.6549C124.683 22.1175 124.76 22.5792 124.927 23.0134C125.094 23.4477 125.347 23.8461 125.674 24.1857C126.009 24.5076 126.411 24.759 126.852 24.9243C127.294 25.0896 127.766 25.165 128.239 25.146C128.712 25.1713 129.187 25.0986 129.629 24.933C130.071 24.7674 130.471 24.5126 130.803 24.1857ZM126.501 27.7148C125.782 27.3478 125.181 26.7977 124.764 26.1242H124.7V27.5768C124.698 27.6547 124.665 27.7287 124.607 27.7836C124.549 27.8385 124.473 27.8701 124.391 27.8718H121.516C121.435 27.8701 121.358 27.8385 121.301 27.7836C121.242 27.7287 121.209 27.6547 121.207 27.5768V9.33705C121.209 9.25918 121.242 9.18525 121.301 9.13053C121.358 9.07581 121.435 9.04445 121.516 9.04297H124.391C124.473 9.0442 124.549 9.07528 124.608 9.12982C124.665 9.18436 124.699 9.25818 124.701 9.33605V17.2026H124.764C125.182 16.5298 125.783 15.9799 126.501 15.612C127.316 15.2178 128.217 15.0224 129.128 15.0428C130.243 15.0298 131.341 15.3015 132.312 15.83C133.283 16.3595 134.074 17.1495 134.586 18.1038C135.168 19.208 135.453 20.4351 135.415 21.673C135.441 22.9097 135.157 24.1344 134.587 25.243C134.068 26.1943 133.278 26.9835 132.313 27.5187C131.341 28.0453 130.243 28.3159 129.128 28.303C128.216 28.3101 127.316 28.1079 126.501 27.7128V27.7148ZM140.256 27.8739H137.382C137.3 27.8725 137.222 27.8411 137.165 27.7859C137.107 27.7307 137.074 27.6561 137.071 27.5777V9.33805C137.074 9.25984 137.108 9.18563 137.166 9.13084C137.224 9.07606 137.302 9.04495 137.383 9.04397H140.257C140.337 9.04568 140.414 9.07696 140.471 9.13143C140.529 9.18589 140.562 9.25944 140.566 9.33705V27.5768C140.567 27.6342 140.55 27.6907 140.519 27.7389C140.486 27.7873 140.439 27.8252 140.385 27.8478C140.344 27.8647 140.301 27.8729 140.257 27.8718L140.256 27.8739ZM147.019 18.3219C146.519 18.7067 146.176 19.2483 146.047 19.8524C146.038 19.8959 146.039 19.9409 146.051 19.984C146.062 20.027 146.084 20.0669 146.114 20.1009C146.144 20.1347 146.182 20.1618 146.223 20.1799C146.266 20.198 146.312 20.2067 146.357 20.2055H151.818C151.862 20.2056 151.906 20.1967 151.946 20.1795C151.986 20.1622 152.021 20.137 152.051 20.1055C152.08 20.074 152.102 20.0368 152.115 19.9964C152.129 19.9561 152.133 19.9135 152.129 19.8714C152.046 19.2851 151.744 18.748 151.279 18.3609C150.681 17.9027 149.933 17.6656 149.17 17.6926C148.401 17.6727 147.647 17.8938 147.019 18.3219ZM154.01 16.7923C155.126 17.9477 155.685 19.5812 155.684 21.6939V22.049C155.682 22.1269 155.648 22.2007 155.589 22.2552C155.532 22.3098 155.455 22.3408 155.374 22.3422H146.255C146.21 22.343 146.165 22.3531 146.123 22.3718C146.083 22.3905 146.047 22.4174 146.017 22.4507C145.987 22.4839 145.965 22.5229 145.953 22.5649C145.941 22.6069 145.937 22.651 145.943 22.6942C146.062 23.4289 146.452 24.0976 147.041 24.5779C147.765 25.1232 148.667 25.4011 149.585 25.361C150.956 25.3427 152.267 24.8159 153.246 23.8906C153.278 23.8621 153.317 23.8409 153.358 23.8284C153.4 23.816 153.445 23.8125 153.487 23.8182C153.531 23.8239 153.573 23.8388 153.609 23.8616C153.646 23.8845 153.677 23.9149 153.701 23.9507L155.086 25.8522C155.125 25.9129 155.142 25.9845 155.135 26.0556C155.128 26.1268 155.096 26.1935 155.045 26.2453C154.357 26.8099 153.601 27.291 152.791 27.6778C151.783 28.1108 150.688 28.325 149.584 28.305C148.291 28.3333 147.011 28.0496 145.861 27.4797C144.825 26.9553 143.969 26.1513 143.399 25.166C142.798 24.1094 142.491 22.9201 142.511 21.715C142.489 20.5078 142.78 19.3143 143.359 18.2439C143.902 17.2617 144.728 16.4516 145.737 15.9111C146.834 15.335 148.068 15.0441 149.316 15.0668C151.342 15.0438 152.893 15.634 154.01 16.7923ZM83.48 11.0666C83.4858 11.4685 83.368 11.8631 83.1411 12.2005C82.9141 12.5378 82.5885 12.8028 82.2054 12.9619C81.8222 13.1211 81.3986 13.1672 80.9882 13.0945C80.5777 13.0217 80.1989 12.8335 79.8997 12.5534C79.6004 12.2733 79.3939 11.914 79.3065 11.521C79.2191 11.1279 79.2547 10.7188 79.4087 10.3452C79.5627 9.97161 79.8283 9.65041 80.1718 9.42218C80.5153 9.19394 80.9214 9.06894 81.3386 9.06297H81.349C81.9057 9.06049 82.441 9.26884 82.8396 9.64309C83.2383 10.0173 83.4683 10.5275 83.48 11.0636V11.0666Z" fill="white"/>
<path d="M20.843 0.94591L3.71821 7.69097C2.76617 8.06638 2.77578 9.35395 3.73431 9.71551L20.9304 16.2068C22.4413 16.7771 24.1239 16.7771 25.6349 16.2068L42.8312 9.71551C43.7893 9.35395 43.7994 8.06638 42.8468 7.69123L25.7225 0.94591C24.1603 0.33053 22.4052 0.33053 20.843 0.94591Z" fill="white"/>
<path d="M24.8066 19.751V35.9671C24.8066 36.7382 25.6237 37.2666 26.3769 36.9824L45.5386 29.9025C45.7523 29.8219 45.9357 29.6819 46.0648 29.5009C46.1939 29.3198 46.263 29.1061 46.263 28.8872V12.6713C46.263 11.9 45.446 11.3719 44.6927 11.6561L25.531 18.7359C25.3173 18.8167 25.1341 18.9566 25.0049 19.1376C24.8757 19.3186 24.8066 19.5321 24.8066 19.751Z" fill="white"/>
<path d="M20.3329 20.5894L14.6461 23.2032L14.0687 23.4689L2.06423 28.944C1.30354 29.2935 0.332031 28.7657 0.332031 27.9609V12.7409C0.332031 12.4498 0.488844 12.1985 0.699136 12.0094C0.785405 11.9277 0.88329 11.8578 0.989918 11.8018C1.27654 11.638 1.68571 11.5943 2.0336 11.7252L20.2373 18.5911C21.1626 18.9406 21.2353 20.1746 20.3329 20.5894Z" fill="white"/>
<path d="M20.3329 20.5894L14.6462 23.2032L0.699219 12.0092C0.7855 11.9275 0.883385 11.8577 0.989989 11.8018C1.27662 11.638 1.68578 11.5943 2.03368 11.7252L20.2375 18.5911C21.1627 18.9406 21.2354 20.1746 20.3329 20.5894Z" fill="black" fill-opacity="0.25"/>
</svg>
