<svg width="165" height="45" viewBox="0 0 165 45" fill="none" xmlns="http://www.w3.org/2000/svg">
<g clip-path="url(#clip0_1277_27109)">
<path d="M164.991 44.635C164.983 44.5655 164.988 44.493 164.988 44.4206C164.988 29.8378 164.988 15.2549 164.991 0.672074V0.0753187C164.451 0.0521437 163.992 0.0115875 163.531 0.0115875C155.317 0.00869061 147.103 0.0115875 138.889 0.0115875C127.311 0.0115875 115.732 0.00869061 104.153 0.00869061C81.1886 0.00869061 58.2268 0.00579374 35.2621 0.00579374C23.8031 0.00579374 12.347 0 0.888047 0C0.71863 0 0.549214 0.0144844 0.379797 0.0260718C0.102305 0.0434531 7.06442e-05 0.162225 7.06442e-05 0.463499C0.0263594 4.28737 0.0409643 8.10834 0.0468062 11.9322C0.0555692 16.7874 0.0584901 21.6425 0.0526482 26.5006C0.0438853 32.5695 0.0234384 38.6414 7.06442e-05 44.7103C-0.00285033 44.9421 0.0847789 44.9739 0.2688 44.9739C0.864679 44.9768 1.46056 44.9913 2.05644 44.9913C25.0036 44.9942 47.9508 44.9971 70.898 45C99.7776 45 128.654 45 157.534 45C159.906 45 162.275 44.9884 164.644 44.9942C164.915 44.9942 165.032 44.9073 164.991 44.6379V44.635ZM163.607 43.6037H8.22261C6.01144 43.6037 3.80026 43.6037 1.58616 43.6037C1.03994 43.6037 1.03994 43.595 1.03994 43.0417V16.6889C1.04286 11.7323 1.05162 6.77578 1.04578 1.81634C1.04578 1.50348 1.14801 1.42236 1.43719 1.43975C1.71468 1.46002 1.99802 1.44264 2.27551 1.44264H163.011C163.212 1.44264 163.414 1.46002 163.607 1.46871V43.6037Z" fill="black"/>
<path d="M163.011 1.44261H2.27561C1.99812 1.44261 1.71478 1.45999 1.43729 1.43972C1.14812 1.42234 1.04588 1.50345 1.04588 1.81631C1.05172 6.77575 1.04296 11.7323 1.04004 16.6888V43.0388C1.04004 43.5921 1.04004 43.6008 1.58626 43.6008C3.80036 43.6008 6.01154 43.6008 8.22271 43.6008H163.607V1.46869C163.414 1.45999 163.213 1.44261 163.011 1.44261ZM106.563 9.56544V39.128C106.563 39.5625 106.546 39.9942 106.569 40.4287C106.581 40.6836 106.476 40.7734 106.236 40.7792C105.932 40.7879 105.628 40.8169 105.328 40.8169C72.1541 40.8198 38.9835 40.8198 5.80999 40.8198C5.44487 40.8198 5.07975 40.7995 4.71755 40.8227C4.39332 40.843 4.30861 40.7242 4.31153 40.4084C4.32029 36.7381 4.31153 33.0678 4.31153 29.4003C4.31153 21.1442 4.31737 12.891 4.30861 4.63786C4.30861 4.30762 4.41084 4.22651 4.72339 4.2352C5.30466 4.25258 5.88886 4.22651 6.47305 4.22651C22.7721 4.22651 39.074 4.22651 55.3731 4.22651C71.6721 4.22651 88.4122 4.22651 104.93 4.22651C105.357 4.22651 105.78 4.26996 106.207 4.26706C106.499 4.26417 106.572 4.38873 106.569 4.65524C106.56 6.29198 106.563 7.92871 106.563 9.56544ZM118.393 27.6622C117.184 27.8273 115.934 28.0011 114.716 27.6014C114.488 27.526 114.237 27.5203 114.041 27.4218C113.939 27.3349 113.848 27.2364 113.737 27.1639C113.468 26.9872 113.194 26.8221 112.922 26.6541C112.723 26.5353 112.49 26.4513 112.332 26.292C112.043 25.9994 111.774 25.6836 111.549 25.3418C111.403 25.1187 111.354 24.8349 111.193 24.5857C111.184 24.6639 111.172 24.745 111.164 24.8233C111.14 24.8291 111.12 24.832 111.097 24.8377C111.035 24.6726 110.956 24.5162 110.915 24.3482C110.79 23.8412 110.667 23.3314 110.568 22.8186C110.512 22.5376 110.486 22.2508 110.477 21.9641C110.454 21.1993 110.574 20.4751 110.834 19.7306C111.377 18.1778 112.285 17.022 113.795 16.2804C114.631 15.8719 115.507 15.6865 116.386 15.562C117.435 15.4142 118.452 15.7503 119.418 16.1616C120.28 16.5237 120.993 17.0915 121.635 17.7607C122.272 18.4212 122.859 19.7219 122.807 20.5562H119.69C119.524 20.3099 119.38 20.1216 119.258 19.9218C118.817 19.1917 118.113 18.8789 117.309 18.7833C116.439 18.6819 115.598 18.8267 114.923 19.4264C114.488 19.8146 114.149 20.2955 114.143 20.9183C114.137 21.4716 114.166 22.0249 114.143 22.5782C114.102 23.5689 115.314 24.5683 116.226 24.7364C117.441 24.9623 118.428 24.6205 119.173 23.6384C119.293 23.4791 119.38 23.2908 119.497 23.1257C119.541 23.0649 119.632 22.9982 119.699 22.9982C120.777 22.9895 121.852 22.9924 122.938 22.9924C122.579 25.5214 120.479 27.3783 118.393 27.6622ZM137.105 21.8887C137.096 22.2016 137.117 22.5174 137.073 22.8244C136.693 25.4403 134.821 27.3001 132.309 27.6738C130.985 27.8679 129.604 27.9837 128.275 27.5376C128.161 27.5 128.035 27.4971 127.974 27.4884C127.895 27.3464 127.857 27.2074 127.802 27.1987C126.759 27.051 126.271 26.1761 125.617 25.5388C125.327 25.2578 125.149 24.8696 124.921 24.5307C124.916 24.5799 124.904 24.661 124.884 24.7943C124.825 24.6958 124.77 24.6379 124.758 24.5712C124.53 23.4965 124.171 22.442 124.247 21.3209C124.253 21.1993 124.241 21.0805 124.247 20.9588C124.258 20.6865 124.168 20.3939 124.475 20.1883C124.565 20.1303 124.583 19.9536 124.618 19.8262C125.021 18.3285 125.958 17.2537 127.29 16.4774C128.085 16.0139 128.955 15.7966 129.855 15.6691C132.13 15.3447 134.035 16.0486 135.639 17.6622C136.819 18.8499 137.163 20.2955 137.105 21.8887Z" fill="white"/>
<path d="M106.563 39.1281V9.5655C106.563 7.92876 106.56 6.29203 106.569 4.6553C106.572 4.38879 106.499 4.26422 106.207 4.26712C105.78 4.27002 105.357 4.22656 104.93 4.22656C88.4122 4.22656 71.8941 4.22656 55.3731 4.22656C38.852 4.22656 22.7721 4.22656 6.47304 4.22656C5.88884 4.22656 5.30465 4.25263 4.72337 4.23525C4.41083 4.22656 4.30859 4.30767 4.30859 4.63792C4.31736 12.8911 4.31151 21.1443 4.31151 29.4004C4.31151 33.0678 4.32028 36.7382 4.31151 40.4085C4.30859 40.7243 4.3933 40.843 4.71753 40.8227C5.07973 40.7996 5.44485 40.8198 5.80997 40.8198C38.9835 40.8198 72.1541 40.8198 105.328 40.8169C105.628 40.8169 105.932 40.788 106.236 40.7793C106.476 40.7735 106.581 40.6837 106.569 40.4288C106.546 39.9942 106.563 39.5626 106.563 39.1281ZM28.4037 17.332C27.3872 17.332 26.3678 17.3291 25.3513 17.332C25.0241 17.3349 24.697 17.3523 24.3728 17.3986C24.2881 17.4102 24.1625 17.5609 24.1625 17.6478C24.1508 20.449 24.1508 23.2532 24.1508 26.0574V28.1286C23.6425 28.1286 23.0788 28.1373 22.5179 28.1171C22.4624 28.1142 22.369 27.9288 22.369 27.8274C22.3573 26.7671 22.3573 25.7098 22.3602 24.6495C22.369 22.3755 22.3748 20.1014 22.3982 17.8274C22.4011 17.5203 22.3544 17.3755 21.9922 17.3784C20.8764 17.3899 19.7605 17.3668 18.6418 17.3581C18.598 17.3552 18.5513 17.3465 18.452 17.3349C18.452 16.9438 18.4636 16.5817 18.449 16.2225C18.4373 15.985 18.5221 15.9096 18.7616 15.9096C21.5949 15.9154 24.4253 15.9067 27.2558 15.9154C27.6297 15.9154 28.0006 15.9734 28.4037 16.0052V17.3291V17.332ZM42.2258 28.1084C41.6562 28.1229 41.0837 28.146 40.5141 28.1518C40.4644 28.1518 40.3943 28.0765 40.3709 28.0186C40.0233 27.193 39.6845 26.3645 39.3311 25.5417C39.2931 25.4548 39.1617 25.3534 39.0711 25.3534C37.1754 25.3448 35.2826 25.3477 33.3869 25.3534C33.3548 25.3534 33.3197 25.3766 33.3022 25.3824C33.0743 25.9444 32.8494 26.489 32.6274 27.0365C32.496 27.3639 32.3704 27.697 32.2302 28.0244C32.2068 28.0794 32.1309 28.146 32.0754 28.146C31.5029 28.146 30.9274 28.1344 30.279 28.1258C30.8632 27.4566 30.945 26.6889 31.2546 26.0197C31.646 25.168 31.9848 24.2932 32.3412 23.4299C32.7618 22.4218 33.1737 21.4079 33.5943 20.3998C34.1493 19.073 34.7189 17.7492 35.2622 16.4166C35.4228 16.0226 35.6682 15.8372 36.0946 15.8865C36.1764 15.8952 36.2641 15.8865 36.3488 15.8865C36.7168 15.8865 37.0264 15.8749 37.1783 16.3645C37.3507 16.9236 37.6924 17.4334 37.9378 17.9722C38.0137 18.1402 38.005 18.343 38.0546 18.5255C38.0984 18.6964 38.0458 18.9456 38.3584 18.9311C38.3847 18.9311 38.4227 19.0209 38.4431 19.0759C38.5599 19.3946 38.6768 19.7161 38.7819 20.0406C38.8374 20.2115 38.8637 20.3882 38.9105 20.5649C38.9543 20.7329 39.0039 20.901 39.112 21.0574V20.7677C39.1412 20.7619 39.1704 20.7561 39.1996 20.7503C39.3457 21.3123 39.4888 21.8772 39.6319 22.4392C39.6582 22.4392 39.6874 22.4334 39.7137 22.4305C39.7079 22.3233 39.705 22.219 39.6991 22.1147C39.7254 22.1089 39.7517 22.1032 39.778 22.1003C39.851 22.4334 39.924 22.7665 40 23.12C40.4615 23.4618 40.1548 24.1541 40.5491 24.5597C40.5345 24.4033 40.517 24.241 40.5024 24.0788C40.5287 24.073 40.5579 24.0643 40.5871 24.0585C40.8646 24.9566 41.145 25.8575 41.4225 26.7555C41.4371 26.7555 41.4546 26.7526 41.4692 26.7526C41.4751 26.6802 41.478 26.6078 41.4809 26.5383C41.5043 26.5296 41.5247 26.5209 41.5452 26.5151C41.6328 26.7671 41.7584 27.0191 41.7993 27.2799C41.846 27.5898 41.849 27.8911 42.2988 27.9606C42.2754 28.0099 42.2491 28.0591 42.2258 28.1084ZM52.7763 28.1634C50.4804 28.1518 48.1845 28.1547 45.8857 28.1547C45.7806 28.1518 45.6754 28.1373 45.5411 28.1258V17.1437C45.5411 16.8193 45.5235 16.4919 45.5498 16.1704C45.5557 16.0777 45.6784 15.9212 45.7514 15.9154C46.0902 15.8981 46.432 15.9039 46.7679 15.9473C46.8555 15.9589 46.9899 16.1269 46.9899 16.2225C47.0074 19.3019 47.0045 22.3813 47.0132 25.4606C47.0132 25.7735 47.0308 26.0864 47.0804 26.3934C47.095 26.4919 47.2294 26.6281 47.3287 26.6455C47.5887 26.6918 47.8574 26.6947 48.1261 26.6947C49.6918 26.6976 51.2603 26.7034 52.8289 26.6889C53.1385 26.6831 53.2408 26.7758 53.2057 27.0771C53.1823 27.2915 53.1619 27.5174 53.2057 27.726C53.2875 28.1113 53.1064 28.1634 52.7763 28.1634ZM64.0951 28.1547C61.8459 28.1605 59.5997 28.1576 57.3506 28.1547C57.2191 28.1547 57.0877 28.1431 56.9241 28.1373V27.5522C56.9212 23.7891 56.9212 20.0232 56.9066 16.2602C56.9066 15.9531 57.0205 15.8894 57.2834 15.8923C58.3408 15.9154 59.3982 15.9386 60.4556 15.9415C61.7057 15.9444 62.9559 15.927 64.209 15.9212C64.2908 15.9212 64.3726 15.9357 64.4719 15.9473V17.3233H64.0746C62.6404 17.3233 61.2063 17.3146 59.7721 17.3262C59.3982 17.3291 59.0214 17.3755 58.6533 17.4421C58.554 17.4595 58.408 17.613 58.408 17.7057C58.3846 18.6646 58.3846 19.6263 58.3875 20.5852C58.3904 21.0748 58.4635 21.1414 58.9659 21.1443C60.5461 21.1472 62.1264 21.153 63.7037 21.1414C63.9724 21.1385 64.0776 21.2022 64.063 21.4803C64.0425 21.8366 64.0571 22.1959 64.0571 22.5406C63.3123 22.5406 62.5996 22.5348 61.8898 22.5435C60.9784 22.5522 60.0671 22.5725 59.1586 22.5898C59.0739 22.5898 58.9892 22.6072 58.9045 22.6072C58.519 22.613 58.3992 22.8274 58.3992 23.1808C58.405 24.215 58.4021 25.2492 58.3817 26.2833C58.3729 26.5788 58.4751 26.6947 58.7672 26.6947C60.0174 26.6947 61.2705 26.7063 62.5207 26.7092C63.2947 26.7092 64.0688 26.7092 64.8429 26.7092C64.8429 27.0336 64.8516 27.2364 64.837 27.4392C64.8312 27.5029 64.7757 27.5753 64.7202 27.6159C64.469 27.8158 64.6033 27.9172 64.8662 28.0562C64.5771 28.0939 64.3346 28.1518 64.0951 28.1547ZM78.7701 17.0105C78.7613 20.6055 78.7525 24.2034 78.7438 27.7984C78.7438 27.894 78.7555 27.9867 78.7642 28.1286C78.291 28.1286 77.8237 28.1489 77.3622 28.1142C77.2541 28.1055 77.146 27.9114 77.0584 27.7897C76.0331 26.3645 75.0137 24.9334 73.9914 23.5052C73.3867 22.6623 72.7762 21.828 72.1804 20.9792C71.8123 20.4577 71.4735 19.9189 71.1054 19.3975C71.0382 19.299 70.8922 19.2555 70.7841 19.1889C70.7053 19.3193 70.5563 19.4496 70.5563 19.58C70.5592 20.0232 70.6468 20.4664 70.6498 20.9096C70.6527 23.1692 70.6381 25.4288 70.6293 27.6912V28.1431C70.0831 28.1431 69.5661 28.1431 69.0491 28.146C68.8446 28.146 68.7891 28.0562 68.7891 27.8563C68.8008 23.9832 68.8037 20.1101 68.8037 16.237C68.8037 16.0487 68.8242 15.9502 69.0549 15.956C69.4872 15.9676 69.9195 15.9386 70.3518 15.9386C70.4307 15.9386 70.5446 15.9647 70.5826 16.0197C70.8104 16.35 70.9944 16.7121 71.2427 17.0249C71.4589 17.2972 71.4852 17.726 71.9058 17.839C71.9496 17.8505 71.9993 17.9288 72.008 17.9809C72.0956 18.6327 72.7003 18.9658 72.9719 19.5076C73.0041 19.5713 73.1034 19.6003 73.156 19.6611C73.2611 19.777 73.375 19.8928 73.451 20.029C73.5707 20.2434 73.635 20.4925 73.7694 20.6982C74.0118 21.0777 74.2776 21.4427 74.5493 21.8019C75.3029 22.7984 76.0652 23.7891 76.8159 24.7857C76.9211 24.9276 76.9883 25.0985 77.1022 25.31C77.3067 25.0464 77.3008 24.7799 77.3008 24.5162C77.2921 22.9896 77.2804 21.4629 77.2716 19.9363C77.2628 18.6964 77.2658 17.4595 77.2541 16.2196C77.2512 15.9908 77.3154 15.9067 77.5579 15.8923C78.7759 15.8256 78.7759 15.8198 78.7701 17.0105ZM92.4986 17.3059C92.3672 17.3117 92.2416 17.3233 92.116 17.3262C91.0586 17.3494 90.0012 17.3697 88.9467 17.3928C88.862 17.3957 88.7773 17.4189 88.6926 17.4247C88.383 17.4479 88.2808 17.5927 88.2808 17.9143C88.2924 21.1385 88.2866 24.3627 88.2837 27.584C88.2837 27.9645 88.0938 28.1557 87.7141 28.1576H86.7881V17.3697H82.6053V15.9299H91.3273C91.6165 15.9299 91.9086 15.9386 92.2007 15.9386C92.4081 15.9415 92.5074 16.0342 92.5016 16.2515C92.4899 16.5875 92.4986 16.9236 92.4986 17.3059ZM106.426 39.7219C106.394 39.719 106.365 39.719 106.332 39.719V4.57998H106.426V39.7219Z" fill="black"/>
<path d="M135.638 17.6621C134.035 16.0485 132.13 15.3446 129.855 15.669C128.955 15.7965 128.085 16.0138 127.29 16.4773C125.958 17.2536 125.021 18.3284 124.618 19.8261C124.583 19.9535 124.565 20.1302 124.475 20.1882C124.168 20.3938 124.258 20.6864 124.247 20.9587C124.241 21.0804 124.253 21.1992 124.247 21.3208C124.171 22.4419 124.53 23.4964 124.758 24.5711C124.77 24.6378 124.825 24.6957 124.883 24.7942C124.904 24.6609 124.916 24.5798 124.921 24.5306C125.149 24.8695 125.327 25.2577 125.617 25.5387C126.271 26.176 126.759 27.0508 127.802 27.1986C127.857 27.2073 127.895 27.3463 127.974 27.4883C128.035 27.497 128.161 27.4999 128.275 27.5375C129.604 27.9836 130.985 27.8678 132.309 27.6737C134.821 27.3 136.693 25.4402 137.073 22.8243C137.116 22.5172 137.096 22.2015 137.105 21.8886C137.163 20.2953 136.819 18.8498 135.638 17.6621ZM133.719 22.3434C133.608 23.4848 132.542 24.4958 131.459 24.7276C130.021 25.0375 128.652 24.3307 128.114 23.3226C127.956 23.0242 127.91 22.6621 127.86 22.3232C127.819 22.0653 127.875 21.793 127.851 21.5294C127.685 19.8145 129.344 18.6615 130.708 18.7137C131.169 18.8035 131.654 18.8324 132.089 18.9946C132.639 19.2003 133.062 19.6059 133.372 20.1157C133.801 20.8168 133.795 21.5729 133.719 22.3434Z" fill="black"/>
<path d="M122.806 20.556H119.69C119.523 20.3127 119.38 20.1244 119.257 19.9216C118.816 19.1916 118.112 18.8787 117.309 18.7831C116.439 18.6817 115.595 18.8266 114.923 19.4262C114.487 19.8144 114.149 20.2953 114.143 20.9181C114.137 21.4714 114.166 22.0247 114.143 22.578C114.102 23.5688 115.314 24.5682 116.225 24.7391C117.438 24.9621 118.425 24.6232 119.17 23.6412C119.292 23.4818 119.377 23.2936 119.494 23.1284C119.538 23.0676 119.628 23.001 119.696 22.9981C120.773 22.9894 121.848 22.9923 122.935 22.9923C122.576 25.5212 120.475 27.3781 118.387 27.662C117.178 27.8272 115.93 28.001 114.709 27.6012C114.482 27.5259 114.233 27.5201 114.035 27.4216C113.935 27.3347 113.842 27.2362 113.731 27.1638C113.465 26.9871 113.191 26.8219 112.916 26.6568C112.717 26.5351 112.484 26.4511 112.326 26.2918C112.037 25.9992 111.765 25.6835 111.543 25.3416C111.397 25.1186 111.347 24.8347 111.187 24.5856C111.178 24.6638 111.169 24.7449 111.158 24.8231C111.134 24.8289 111.114 24.8318 111.09 24.8376C111.029 24.6754 110.95 24.516 110.909 24.348C110.784 23.8411 110.664 23.3341 110.562 22.8214C110.506 22.5404 110.48 22.2507 110.471 21.9639C110.448 21.1991 110.568 20.4749 110.827 19.7304C111.371 18.1748 112.279 17.0189 113.789 16.2773C114.622 15.8689 115.501 15.6835 116.377 15.5589C117.426 15.4112 118.442 15.7472 119.412 16.1557C120.274 16.5207 120.984 17.0856 121.629 17.7547C122.266 18.4181 122.85 19.7159 122.801 20.5502L122.806 20.556Z" fill="black"/>
<path d="M70.6293 28.1436C70.0801 28.1436 69.566 28.1436 69.049 28.1436C68.8446 28.1436 68.7891 28.0567 68.7891 27.8539C68.7978 23.9808 68.8037 20.1077 68.8007 16.2346C68.8007 16.0463 68.8241 15.9478 69.0519 15.9536C69.4843 15.9652 69.9166 15.9362 70.3489 15.9362C70.4277 15.9362 70.5387 15.9623 70.5767 16.0173C70.8045 16.3476 70.9886 16.7097 71.2368 17.0225C71.453 17.2948 71.4793 17.7236 71.8999 17.8366C71.9437 17.8481 71.9934 17.9264 72.0021 17.9785C72.0898 18.6332 72.6973 18.9634 72.9661 19.5052C72.9982 19.5718 73.0975 19.6008 73.153 19.6587C73.2582 19.7746 73.3721 19.8904 73.448 20.0266C73.5678 20.2439 73.632 20.4901 73.7664 20.6987C74.0088 21.0782 74.2747 21.4403 74.5463 21.8024C75.2999 22.7989 76.0623 23.7896 76.813 24.7862C76.9181 24.9281 76.9853 25.0961 77.0992 25.3105C77.3037 25.0469 77.2979 24.7804 77.2979 24.5167C77.2891 22.9901 77.2774 21.4634 77.2687 19.9339C77.2628 18.6969 77.2657 17.4571 77.2511 16.2201C77.2511 15.9913 77.3154 15.9043 77.5549 15.8928C78.773 15.8261 78.77 15.8203 78.7671 17.011C78.7583 20.606 78.7467 24.2039 78.7408 27.7989C78.7408 27.8945 78.7525 27.9872 78.7613 28.1291C78.2881 28.1291 77.8207 28.1494 77.3592 28.1147C77.2511 28.106 77.143 27.9148 77.0554 27.7902C76.0302 26.3621 75.0107 24.9339 73.9855 23.5057C73.3808 22.6627 72.7703 21.8284 72.1745 20.9797C71.8064 20.4582 71.4676 19.9165 71.0996 19.3951C71.0324 19.2995 70.8863 19.256 70.7782 19.1865C70.6994 19.3169 70.5504 19.4472 70.5504 19.5776C70.5533 20.0208 70.641 20.464 70.6439 20.9072C70.6468 23.1668 70.6322 25.4293 70.6264 27.6888C70.6264 27.796 70.6264 27.9032 70.6264 28.1436H70.6293Z" fill="white"/>
<path d="M41.7991 27.2801C41.7582 27.0194 41.6326 26.7673 41.545 26.5153C41.5246 26.5211 41.5041 26.5298 41.4807 26.5385C41.4778 26.608 41.4749 26.6804 41.4691 26.7529C41.4545 26.7529 41.4369 26.7557 41.4223 26.7557C41.1448 25.8577 40.8644 24.9568 40.5869 24.0588C40.5577 24.0646 40.5285 24.0732 40.5022 24.079C40.5168 24.2413 40.5344 24.4035 40.549 24.5599C40.1546 24.1544 40.4613 23.462 39.9998 23.1202C39.9239 22.7668 39.8508 22.4336 39.7778 22.1005C39.7515 22.1034 39.7252 22.1092 39.699 22.115C39.7048 22.2192 39.7077 22.3235 39.7136 22.4307C39.6873 22.4336 39.6581 22.4365 39.6318 22.4394C39.4886 21.8774 39.3455 21.3125 39.1995 20.7505C39.1703 20.7563 39.141 20.7621 39.1118 20.7679V21.0576C39.0038 20.9012 38.9541 20.7332 38.9103 20.5651C38.8636 20.3884 38.8373 20.2117 38.7818 20.0408C38.6766 19.7164 38.5598 19.3948 38.4429 19.0761C38.4225 19.0211 38.3845 18.9313 38.3582 18.9313C38.0457 18.9458 38.0983 18.6967 38.0544 18.5257C38.0048 18.3432 38.0135 18.1405 37.9376 17.9724C37.6922 17.4336 37.3505 16.9238 37.1781 16.3647C37.0263 15.8751 36.7166 15.8867 36.3486 15.8867C36.2639 15.8867 36.1763 15.8925 36.0945 15.8867C35.668 15.8374 35.4226 16.0228 35.262 16.4168C34.7187 17.7494 34.1491 19.0732 33.5941 20.4C33.1735 21.4081 32.7616 22.422 32.341 23.4301C31.9847 24.2934 31.6458 25.1683 31.2544 26.0199C30.9448 26.6891 30.863 27.4568 30.2788 28.126C30.9273 28.1347 31.5027 28.1462 32.0752 28.1462C32.1307 28.1462 32.2066 28.0796 32.23 28.0246C32.3702 27.6972 32.4958 27.3641 32.6273 27.0367C32.8493 26.4892 33.0742 25.9446 33.302 25.3826C33.3195 25.3768 33.3546 25.3537 33.3867 25.3537C35.2824 25.3508 37.1752 25.3479 39.0709 25.3537C39.1615 25.3537 39.2929 25.4551 39.3309 25.542C39.6843 26.3647 40.0232 27.1932 40.3708 28.0188C40.3941 28.0767 40.4642 28.152 40.5139 28.152C41.0835 28.1462 41.656 28.1231 42.2256 28.1086C42.249 28.0593 42.2752 28.0101 42.2986 27.9608C41.8488 27.8913 41.8459 27.59 41.7991 27.2801ZM33.895 23.827C34.0235 23.5866 34.1287 23.4301 34.1958 23.2621C34.5347 22.4162 34.8647 21.5646 35.1948 20.7158C35.3934 20.2059 35.5687 19.6903 35.7848 19.1891C35.9251 18.8676 36.1178 18.5663 36.3252 18.1781C37.0934 20.064 37.8441 21.9035 38.6299 23.8357C37.0496 23.9255 35.4752 23.9284 33.895 23.827Z" fill="white"/>
<path d="M64.8425 26.7088C64.8425 27.0304 64.8513 27.2361 64.8367 27.436C64.8309 27.4997 64.7754 27.5721 64.7199 27.6156C64.4687 27.8125 64.603 27.9139 64.8659 28.0559C64.5767 28.0935 64.3372 28.1515 64.0948 28.1515C61.8456 28.1573 59.5994 28.1544 57.3502 28.1515C57.2188 28.1515 57.0873 28.1399 56.9238 28.1312C56.9238 27.9226 56.9238 27.7343 56.9238 27.5489C56.9238 23.783 56.9238 20.02 56.9062 16.254C56.9062 15.947 57.0202 15.8832 57.2831 15.889C58.3404 15.9093 59.3978 15.9325 60.4523 15.9354C61.7025 15.9383 62.9556 15.9209 64.2058 15.9151C64.2875 15.9151 64.3693 15.9296 64.4687 15.9412V17.3201C64.3314 17.3201 64.2028 17.3201 64.0714 17.3201C62.6372 17.3201 61.203 17.3114 59.7688 17.323C59.3949 17.3259 59.0181 17.3722 58.6501 17.436C58.5508 17.4533 58.4047 17.6069 58.4047 17.7025C58.3843 18.6613 58.3813 19.6231 58.3872 20.582C58.3872 21.0715 58.4602 21.1382 58.9655 21.1411C60.5458 21.1439 62.126 21.1497 63.7034 21.1382C63.9721 21.1382 64.0772 21.2019 64.0626 21.4771C64.0422 21.8334 64.0568 22.1926 64.0568 22.5373C63.3119 22.5373 62.5992 22.5315 61.8894 22.5373C60.9781 22.546 60.0697 22.5663 59.1583 22.5837C59.0736 22.5837 58.9889 22.6011 58.9042 22.604C58.5186 22.6098 58.3989 22.8212 58.3989 23.1776C58.4047 24.2117 58.4018 25.2459 58.3813 26.2772C58.3755 26.5756 58.4748 26.6886 58.7669 26.6886C60.0171 26.6886 61.2702 26.7001 62.5204 26.7059C63.2944 26.7059 64.0685 26.7059 64.8425 26.7059V26.7088Z" fill="white"/>
<path d="M18.4517 17.3374C18.4517 16.9463 18.4634 16.5871 18.4488 16.2279C18.4371 15.9903 18.5247 15.9121 18.7642 15.9121C21.5947 15.9179 24.428 15.9121 27.2584 15.9179C27.6294 15.9179 28.0033 15.9758 28.4064 16.0077V17.3316C27.3899 17.3316 26.3705 17.3258 25.354 17.3316C25.0268 17.3316 24.6967 17.3519 24.3754 17.3982C24.2907 17.4098 24.1651 17.5604 24.1622 17.6473C24.1505 20.4515 24.1505 23.2528 24.1505 26.057C24.1505 26.7145 24.1505 27.375 24.1505 28.1311C23.6423 28.1311 23.0785 28.1398 22.5177 28.1166C22.4622 28.1166 22.3687 27.9283 22.3687 27.8269C22.357 26.7696 22.357 25.7093 22.3629 24.652C22.3716 22.3779 22.3775 20.1039 22.4009 17.8298C22.4038 17.5199 22.357 17.375 21.9948 17.3808C20.879 17.3924 19.7603 17.3692 18.6445 17.3605C18.5977 17.3605 18.551 17.349 18.4546 17.3374H18.4517Z" fill="white"/>
<path d="M86.7878 17.3694H82.6021V15.9297C82.9438 15.9297 83.2885 15.9297 83.6361 15.9297C86.1978 15.9297 88.7624 15.9297 91.3241 15.9297C91.6162 15.9297 91.9083 15.9355 92.1975 15.9384C92.4078 15.9384 92.5042 16.034 92.4983 16.2512C92.4895 16.5873 92.4983 16.9233 92.4983 17.3057C92.3698 17.3115 92.2413 17.3231 92.1157 17.326C91.0583 17.3492 90.0038 17.3694 88.9464 17.3955C88.8617 17.3955 88.777 17.4187 88.6923 17.4274C88.3827 17.4505 88.2804 17.5954 88.2804 17.9169C88.2921 21.1412 88.2833 24.3625 88.2804 27.5867C88.2804 27.9672 88.0906 28.1574 87.7108 28.1574C87.4217 28.1574 87.1296 28.1574 86.7849 28.1574V17.3694H86.7878Z" fill="white"/>
<path d="M45.5409 28.1258C45.5409 24.4323 45.5409 20.788 45.5409 17.1438C45.5409 16.8193 45.5234 16.492 45.5496 16.1704C45.5555 16.0777 45.6782 15.9213 45.7541 15.9155C46.0929 15.8981 46.4347 15.9039 46.7706 15.9445C46.8582 15.956 46.9926 16.1241 46.9955 16.2197C47.0101 19.299 47.0101 22.3784 47.016 25.4607C47.016 25.7706 47.0335 26.0864 47.0832 26.3935C47.0978 26.492 47.2321 26.6281 47.3314 26.6455C47.5914 26.6919 47.8631 26.6919 48.1289 26.6947C49.6974 26.6976 51.2631 26.7034 52.8316 26.689C53.1413 26.6861 53.2464 26.7788 53.2114 27.08C53.1851 27.2944 53.1675 27.5204 53.2114 27.7289C53.2902 28.1142 53.112 28.1664 52.782 28.1664C50.4861 28.1548 48.1873 28.1606 45.8914 28.1577C45.7862 28.1577 45.6782 28.1403 45.5467 28.1287L45.5409 28.1258Z" fill="white"/>
<path d="M106.332 39.7191V4.58008C106.364 4.58008 106.393 4.58008 106.426 4.58008V39.7191C106.393 39.7191 106.364 39.7191 106.332 39.7191Z" fill="white"/>
<path d="M130.708 18.7128C131.169 18.7997 131.654 18.8316 132.089 18.9938C132.639 19.1995 133.062 19.6051 133.372 20.1149C133.798 20.8131 133.792 21.572 133.719 22.3426C133.608 23.4811 132.542 24.4921 131.458 24.7267C130.021 25.0367 128.654 24.3299 128.117 23.3189C127.959 23.0234 127.912 22.6584 127.86 22.3194C127.822 22.0616 127.877 21.7893 127.851 21.5286C127.687 19.8107 129.344 18.6578 130.708 18.7128Z" fill="white"/>
<path d="M33.895 23.8266C34.0265 23.5862 34.1316 23.4298 34.1988 23.2617C34.5376 22.4159 34.8677 21.5642 35.1978 20.7125C35.3964 20.2055 35.5746 19.6899 35.7878 19.1887C35.928 18.8672 36.1179 18.5659 36.3282 18.1777C37.0964 20.0636 37.8442 21.9031 38.6299 23.8324C37.0526 23.9222 35.4782 23.9251 33.895 23.8237V23.8266Z" fill="black"/>
</g>
<defs>
<clipPath id="clip0_1277_27109">
<rect width="165" height="45" fill="white"/>
</clipPath>
</defs>
</svg>
