<svg width="169" height="29" viewBox="0 0 169 29" fill="none" xmlns="http://www.w3.org/2000/svg">
<path d="M33.8895 0.722656L27.9213 23.0599L51.1113 28.8086L57.0795 6.47135L33.8895 0.722656ZM110.853 3.22404V26.2892H134.799V3.22404H110.853ZM137.66 3.22404L147.014 14.617L137.66 26.2892H149.167L152.831 21.7071L156.625 26.2892H168.228L158.585 14.5555L167.649 3.22404H156.143L152.767 7.46591L149.231 3.22404H137.66ZM0.854004 3.22456V26.2897H11.461V17.7449C14.3215 17.7449 15.6714 20.1594 16.1213 26.2897H27.1136C26.6315 21.8624 25.0567 18.0548 22.4855 15.2374C24.2531 14.0608 25.2176 12.2646 25.2176 10.1286C25.2176 6.69183 22.5499 3.22456 16.5072 3.22456H0.854004ZM59.5518 3.22456V26.2897H76.2654C81.8583 26.2897 84.4618 23.4724 84.4618 19.9118C84.4618 17.9304 83.7228 16.1658 80.7014 14.6181C83.1121 13.2866 83.8189 11.5525 83.8189 9.66387C83.8189 7.00135 82.2761 3.22456 74.5298 3.22456H59.5518ZM87.7112 3.22456V26.2897H107.607V20.5007H98.3177V3.22456H87.7112ZM70.1588 7.86859H70.8017C72.9552 7.86859 73.5982 8.82788 73.5982 10.0976C73.5982 11.7381 72.7302 12.3576 70.4158 12.3576H70.1588V7.86859ZM11.461 7.96112H12.1039C14.0965 7.96112 14.6106 9.26174 14.6106 10.2526C14.6106 11.7386 13.6788 12.4196 11.7503 12.4196H11.461V7.96112ZM40.8188 12.0236L45.3454 13.1453L44.1804 17.5062L39.6537 16.3839L40.8188 12.0236ZM120.488 12.5049H125.163V17.0068H120.488V12.5049ZM70.1588 16.2278H70.8978C73.1157 16.2278 73.8548 17.311 73.8548 18.8284C73.8548 20.5622 72.9226 21.2124 70.4797 21.2124H70.1588V16.2278Z" fill="white"/>
</svg>
