<svg width="11" height="13" viewBox="0 0 11 13" fill="none" xmlns="http://www.w3.org/2000/svg">
<path d="M8.92649 0.199951H2.07449C1.62519 0.206277 1.19671 0.390436 0.882941 0.712082C0.569167 1.03373 0.39568 1.46663 0.400488 1.91595V11.72C0.399283 11.9157 0.455467 12.1076 0.562099 12.2718C0.668731 12.436 0.821138 12.5654 1.00049 12.644C1.17076 12.7244 1.36124 12.752 1.54734 12.7231C1.73343 12.6942 1.9066 12.6102 2.04449 12.482L5.25449 9.63795C5.32779 9.57954 5.41875 9.54773 5.51249 9.54773C5.60622 9.54773 5.69718 9.57954 5.77049 9.63795L8.98049 12.482C9.11919 12.6088 9.29228 12.6918 9.47801 12.7207C9.66375 12.7495 9.85386 12.7228 10.0245 12.644C10.2038 12.5654 10.3562 12.436 10.4629 12.2718C10.5695 12.1076 10.6257 11.9157 10.6245 11.72V1.91595C10.6269 1.69146 10.5847 1.46872 10.5004 1.26063C10.4162 1.05253 10.2915 0.863216 10.1336 0.703631C9.97565 0.544045 9.78766 0.41736 9.58047 0.330904C9.37327 0.244448 9.15099 0.199939 8.92649 0.199951Z" fill="black"/>
</svg>
