<svg width="25" height="28" viewBox="0 0 25 28" fill="none" xmlns="http://www.w3.org/2000/svg">
<path d="M24.7229 4.67136V20.2089C24.7229 22.9314 22.5092 25.1451 19.7867 25.1451C17.0779 25.1451 14.8504 22.9314 14.8504 20.2089C14.8504 17.5001 17.0779 15.2864 19.7867 15.2864C20.9417 15.2864 21.9729 15.6851 22.8117 16.3451V8.16386L10.1479 11.7664V22.8626C10.1479 25.5851 7.92038 27.7989 5.21163 27.7989C2.48913 27.7989 0.275391 25.5851 0.275391 22.8626C0.275391 20.1539 2.48913 17.9401 5.21163 17.9401C6.35289 17.9401 7.38414 18.3389 8.22289 18.9851V6.83011C8.22289 4.80886 9.44664 3.24136 11.3854 2.71886L19.3329 0.546363C20.9417 0.106363 22.3029 0.257613 23.2654 1.00011C24.2417 1.72886 24.7229 2.96636 24.7229 4.67136Z" fill="black"/>
</svg>
