<svg width="38" height="39" viewBox="0 0 38 39" fill="none" xmlns="http://www.w3.org/2000/svg">
<g clip-path="url(#clip0_1277_26941)">
<path d="M34.4877 16.0333C33.1855 14.7311 31.0667 14.7311 29.7645 16.0333L23.1399 22.6578C23.1341 22.6636 23.1272 22.6679 23.1211 22.6732C23.5666 21.9428 23.8235 21.0853 23.8235 20.1689C23.8235 17.5089 21.6594 15.3447 18.9993 15.3447C16.3392 15.3447 14.1751 17.5089 14.1751 20.1689C14.1751 21.0854 14.4321 21.9429 14.8777 22.6734C14.8715 22.668 14.8647 22.6637 14.8588 22.6579L8.23407 16.0333C6.9319 14.7311 4.81303 14.7311 3.51086 16.0333C2.20862 17.3355 2.20862 19.4543 3.51086 20.7565L11.2064 28.452V35.9033C11.2064 37.3357 12.3717 38.501 13.804 38.501H24.1946C25.627 38.501 26.7923 37.3357 26.7923 35.9033V28.452L34.4877 20.7565C35.79 19.4542 35.79 17.3354 34.4877 16.0333ZM32.9133 19.1821L24.8918 27.2036C24.6831 27.4124 24.5657 27.6955 24.5657 27.9908V35.9033C24.5657 36.1079 24.3993 36.2744 24.1946 36.2744H13.804C13.5994 36.2744 13.4329 36.1079 13.4329 35.9033V27.9908C13.4329 27.6955 13.3157 27.4124 13.1068 27.2037L5.08534 19.1821C4.65123 18.748 4.65123 18.0417 5.08534 17.6076C5.30235 17.3906 5.5875 17.2821 5.8725 17.2821C6.1575 17.2821 6.44272 17.3906 6.65967 17.6076L13.2845 24.2325C13.7751 24.723 14.4274 24.9932 15.1212 24.9932H22.8775C23.5712 24.9932 24.2235 24.723 24.7142 24.2323L31.339 17.6076C31.773 17.1736 32.4794 17.1736 32.9134 17.6076C33.3474 18.0417 33.3474 18.748 32.9133 19.1821ZM16.4017 20.1689C16.4017 18.7366 17.567 17.5713 18.9993 17.5713C20.4317 17.5713 21.597 18.7366 21.597 20.1689C21.597 21.6013 20.4317 22.7666 18.9993 22.7666C17.567 22.7666 16.4017 21.6013 16.4017 20.1689Z" fill="black"/>
<path d="M15.0764 8.7132L14.5228 11.941C14.4512 12.3587 14.6229 12.7808 14.9657 13.0299C15.3085 13.2788 15.763 13.3119 16.1382 13.1147L19.0369 11.5907L21.9357 13.1147C22.0986 13.2002 22.2765 13.2425 22.4537 13.2425C22.6845 13.2425 22.9142 13.1708 23.1081 13.03C23.4509 12.7809 23.6227 12.3587 23.5511 11.9411L22.9975 8.71327L25.3426 6.42726C25.6461 6.1315 25.7553 5.68908 25.6244 5.28607C25.4934 4.88299 25.145 4.58923 24.7257 4.52837L21.4847 4.05738L20.0352 1.12054C19.8476 0.740543 19.4606 0.5 19.0368 0.5C18.6131 0.5 18.2261 0.740543 18.0385 1.12054L16.5892 4.0573L13.3482 4.5283C12.9289 4.58916 12.5804 4.88291 12.4496 5.286C12.3186 5.689 12.4278 6.13142 12.7313 6.42718L15.0764 8.7132ZM18.3268 5.56758L19.0368 4.12878L19.7469 5.56758C19.9091 5.89615 20.2225 6.12385 20.5851 6.17655L22.173 6.40729L21.0241 7.52725C20.7617 7.78301 20.642 8.15151 20.7039 8.51258L20.9751 10.0941L19.555 9.34739C19.3927 9.26219 19.2148 9.21952 19.0369 9.21952C18.859 9.21952 18.681 9.26212 18.5189 9.34739L17.0987 10.0941L17.3699 8.51258C17.4319 8.15151 17.3122 7.78301 17.0497 7.52725L15.9008 6.40729L17.4887 6.17655C17.8511 6.12385 18.1646 5.89615 18.3268 5.56758Z" fill="black"/>
</g>
<defs>
<clipPath id="clip0_1277_26941">
<rect width="38" height="38" fill="white" transform="translate(-0.000488281 0.5)"/>
</clipPath>
</defs>
</svg>
