<svg width="32" height="33" viewBox="0 0 32 33" fill="none" xmlns="http://www.w3.org/2000/svg">
<g clip-path="url(#clip0_1010_57229)">
<path d="M0.455266 0.99276C-0.199773 1.09326 -0.116303 1.99277 0.503076 1.99277C0.503076 1.99277 6.5376 2.00108 11.1728 2.86387C13.5284 3.30227 15.3596 3.94589 16.0077 4.75744C16.2967 5.11927 16.2927 5.50193 16.0516 5.94886C15.7597 6.49013 15.027 7.22518 13.7264 8.07486C12.1464 9.10706 11.1622 9.97365 10.6415 10.8063C10.3812 11.2227 10.2366 11.641 10.2392 12.0573C10.2411 12.4737 10.4017 12.8655 10.6522 13.1833C11.1532 13.8189 11.9744 14.2324 12.9842 14.5935C13.764 14.8723 14.6765 15.1133 15.6443 15.3327L9.04484 21.9353C7.16531 21.964 5.41479 22.1333 3.94628 22.6131C2.45164 23.1014 1.22282 23.9367 0.55767 25.2674C-0.287569 26.9584 0.138282 28.5203 0.750045 29.6082C1.36179 30.6962 2.18167 31.3758 2.18167 31.3758C2.69335 31.8042 3.33592 31.0366 2.82424 30.6083C2.82424 30.6083 2.14181 30.0369 1.62894 29.1248C1.13578 28.2478 0.785799 27.0487 1.45131 25.7176C1.97316 24.6735 2.92295 24.002 4.25692 23.5662C5.30969 23.2223 6.59631 23.0405 8.00588 22.9685L5.08698 25.8914C5.08131 25.8967 5.07753 25.9035 5.07375 25.909L5.37844 25.9686L7.78074 26.452C8.01493 26.4986 8.18345 26.7044 8.18306 26.9432V28.3641H9.60394C9.84274 28.3637 10.0485 28.5322 10.0952 28.7664L10.5746 31.1659L10.6185 31.3827L18.6389 23.3621C20.8177 23.4536 22.8657 23.448 24.5636 23.1228C26.3139 22.7877 27.7587 22.0845 28.4424 20.7166C28.7099 20.1814 28.8129 19.6585 28.7188 19.1472C28.6271 18.6495 28.3507 18.2178 27.9776 17.863C27.3734 17.2885 26.4711 16.8558 25.4864 16.5134L26.1749 15.8249L20.6642 10.3141L16.4875 14.4909C15.2982 14.2365 14.1962 13.9648 13.3216 13.6521C12.3902 13.319 11.7212 12.9202 11.4398 12.5632C11.299 12.3846 11.2406 12.2196 11.2396 12.0534C11.2385 11.8833 11.3017 11.6355 11.4905 11.3337C11.868 10.7299 12.7534 9.90201 14.2737 8.90885C15.6466 8.01193 16.4995 7.22159 16.9309 6.42445C17.411 5.53715 17.2702 4.7535 16.798 4.14513C15.9352 3.03332 13.8185 2.34096 11.3548 1.88242C6.56865 0.991655 0.504361 0.99276 0.504361 0.99276C0.489243 0.991997 0.471139 0.991997 0.455266 0.99276ZM27.5378 4.48596C26.8875 4.48596 26.238 4.73891 25.7439 5.23303L23.8445 7.13149L29.3561 12.6433L31.2545 10.7438C32.2543 9.74378 32.2427 8.14415 31.2545 7.1559L29.3317 5.23303C28.8376 4.73891 28.1882 4.48596 27.5378 4.48596ZM23.1375 7.83853L21.3704 9.6071L26.881 15.1169L28.6486 13.3503L23.1375 7.83853ZM24.6941 17.3035C25.9115 17.6917 26.8002 18.1202 27.2908 18.5867C27.553 18.8361 27.6865 19.0757 27.7331 19.3289C27.7798 19.5821 27.7445 19.8779 27.5485 20.2693C27.0557 21.2552 25.9749 21.831 24.3747 22.1375C23.0493 22.3913 21.3959 22.4387 19.6062 22.3924L24.6941 17.3035ZM4.78039 26.8719L4.089 29.8729L4.43274 30.2167L6.35263 32.1395L6.61629 32.4012L9.66214 31.6981L9.59675 31.3651L9.19441 29.3641H7.68467C7.407 29.3652 7.18164 29.1398 7.1827 28.8621V27.3524L5.18175 26.95L4.78039 26.8719ZM3.82337 31.0243L3.51087 32.3798C3.42791 32.7481 3.75032 33.06 4.10852 32.9794L5.46788 32.6659L3.82337 31.0243Z" fill="black"/>
</g>
<defs>
<clipPath id="clip0_1010_57229">
<rect width="32" height="32" fill="white" transform="translate(0 0.992188)"/>
</clipPath>
</defs>
</svg>
