<svg width="32" height="32" viewBox="0 0 32 32" fill="none" xmlns="http://www.w3.org/2000/svg">
<g clip-path="url(#clip0_1010_57196)">
<path d="M8.33271 24.7084C6.19814 24.7084 4.29941 23.3416 3.60994 21.3069L3.56331 21.1536C3.40071 20.6147 3.33259 20.1616 3.33259 19.7082V10.6172L0.0978911 21.4148C-0.318135 23.003 0.629887 24.6495 2.2205 25.0882L22.8384 30.6099C23.0958 30.6765 23.3531 30.7085 23.6065 30.7085C24.9344 30.7085 26.1478 29.8271 26.4879 28.5283L27.6891 24.7084H8.33271Z" fill="black"/>
<path d="M11.9988 10.7086C13.4696 10.7086 14.6654 9.51255 14.6654 8.04181C14.6654 6.57107 13.4696 5.375 11.9988 5.375C10.5281 5.375 9.33203 6.57107 9.33203 8.04181C9.33203 9.51255 10.5281 10.7086 11.9988 10.7086Z" fill="black"/>
<path d="M28.6659 1.375H8.66536C6.82816 1.375 5.33203 2.87113 5.33203 4.70858V19.3754C5.33203 21.2129 6.82816 22.709 8.66536 22.709H28.6659C30.5033 22.709 31.9994 21.2129 31.9994 19.3754V4.70858C31.9994 2.87113 30.5033 1.375 28.6659 1.375ZM8.66536 4.04181H28.6659C29.034 4.04181 29.3326 4.3404 29.3326 4.70858V14.1741L25.1206 9.25923C24.6738 8.73529 24.0271 8.45525 23.3325 8.43938C22.6418 8.44329 21.9938 8.74994 21.5512 9.28071L16.5989 15.2247L14.9856 13.6153C14.0737 12.7034 12.5895 12.7034 11.6789 13.6153L7.99884 17.2941V4.70858C7.99884 4.3404 8.29744 4.04181 8.66536 4.04181Z" fill="black"/>
</g>
<defs>
<clipPath id="clip0_1010_57196">
<rect width="32" height="32" fill="white"/>
</clipPath>
</defs>
</svg>
