<svg width="25" height="24" viewBox="0 0 25 24" fill="none" xmlns="http://www.w3.org/2000/svg">
<path d="M18.2184 3.04834C17.181 2.1989 15.9679 1.59028 14.6668 1.26639C13.3657 0.942497 12.009 0.911398 10.6944 1.17534C9.0041 1.52188 7.44907 2.34699 6.21451 3.55238C4.97995 4.75778 4.11791 6.29265 3.73106 7.97415C3.34422 9.65566 3.44889 11.4129 4.0326 13.0366C4.61631 14.6603 5.65446 16.082 7.02337 17.1323C8.5863 18.2763 9.91702 19.7074 10.9444 21.3493L11.6444 22.5133C11.7333 22.6612 11.8589 22.7835 12.0091 22.8685C12.1593 22.9534 12.3288 22.998 12.5014 22.998C12.6739 22.998 12.8435 22.9534 12.9937 22.8685C13.1438 22.7835 13.2695 22.6612 13.3584 22.5133L14.0294 21.3953C14.924 19.8227 16.1438 18.459 17.6074 17.3953C18.755 16.6058 19.7034 15.5603 20.3778 14.3415C21.0522 13.1226 21.4342 11.7637 21.4935 10.372C21.5528 8.98028 21.288 7.5938 20.7198 6.32197C20.1516 5.05013 19.2956 3.92774 18.2194 3.04334L18.2184 3.04834ZM12.5004 13.9993C11.7092 13.9993 10.9359 13.7647 10.2781 13.3252C9.6203 12.8857 9.1076 12.261 8.80485 11.5301C8.5021 10.7992 8.42289 9.9949 8.57723 9.21898C8.73157 8.44305 9.11254 7.73032 9.67195 7.17091C10.2314 6.6115 10.9441 6.23054 11.72 6.07619C12.4959 5.92185 13.3002 6.00107 14.0311 6.30382C14.762 6.60657 15.3867 7.11926 15.8263 7.77705C16.2658 8.43485 16.5004 9.20821 16.5004 9.99934C16.5004 11.0602 16.0789 12.0776 15.3288 12.8278C14.5787 13.5779 13.5612 13.9993 12.5004 13.9993Z" fill="black"/>
</svg>
