<svg width="423" height="322" viewBox="0 0 423 322" fill="none" xmlns="http://www.w3.org/2000/svg">
<path d="M188.647 113.985C187.791 113.21 187.146 112.448 186.343 111.915C183.07 109.748 180.219 107.107 177.638 104.19C174.761 100.931 172.779 97.1144 171.324 93.0479C167.38 82.0111 168.164 71.2897 174.044 61.1267C179.785 51.2002 188.397 44.8278 199.649 42.5548C214.858 39.4802 227.888 43.7833 238.165 55.4573C242.945 60.8902 245.948 67.348 246.916 74.5942C248.193 84.1856 246.218 93.0742 240.878 101.188C238.146 105.339 234.65 108.723 230.554 111.521C229.244 112.415 227.973 113.374 226.657 114.261C226.281 114.517 225.814 114.648 225.379 114.799C221.198 116.278 217.011 117.683 212.554 118.163C205.318 118.938 198.418 117.821 191.794 114.859C191.32 114.648 190.846 114.425 190.385 114.189C189.773 113.88 189.174 113.486 188.654 113.978L188.647 113.985Z" fill="#F3F3F3"/>
<path d="M159.35 214.17C153.723 220.813 147.266 226.423 139.531 230.508C134.138 233.36 128.407 234.934 122.296 235.296C115.952 235.679 109.632 236.206 103.282 235.47C93.0072 234.275 83.4918 230.935 74.757 225.392C60.0676 216.063 50.7417 202.756 46.3775 186.072C42.2577 170.31 43.9539 154.959 51.1109 140.296C57.0223 128.167 65.8298 118.722 77.6462 112.107C85.8994 107.494 94.644 104.48 104.114 103.795C108.455 103.482 112.819 103.265 117.182 103.048C122.083 102.809 126.751 103.871 131.334 105.591C140.806 109.167 148.581 115.27 156.228 121.686C160.149 124.982 164.527 127.784 168.892 130.515C171.354 132.063 174.12 133.271 176.894 134.181C183.705 136.414 190.622 138.375 197.869 138.434C202.254 138.465 206.704 138.646 211.012 138.012C217.878 137.012 224.604 135.23 230.93 132.206C240.233 127.768 248.196 121.567 255.201 114.05C260.494 108.36 266.56 103.529 273.604 100.215C291.225 91.9255 309.39 90.9606 327.567 97.9459C349.4 106.34 363.31 122.253 369.273 144.826C373.677 161.499 371.894 177.765 363.593 192.87C355.512 207.575 343.628 218.343 327.514 223.891C323.853 225.149 320.113 226.153 316.153 226.227C312.129 226.305 308.117 226.898 304.105 226.91C296.218 226.936 288.531 225.476 281.202 222.611C273.674 219.661 266.718 215.679 260.707 210.148C251.418 201.591 240.67 195.636 228.404 192.521C228.265 192.488 228.125 192.44 228.002 192.39C217.887 188.56 207.579 189.533 197.361 191.548C184.912 194.01 174.123 199.972 164.722 208.443C163.74 209.335 162.835 210.312 161.938 211.28C161.063 212.206 160.231 213.187 159.381 214.136L159.35 214.17Z" fill="#0449B7"/>
<path d="M327.373 138.15C328.764 139.759 330.301 141.266 331.517 143.001C335.261 148.329 337.044 154.3 336.973 160.864C336.931 164.401 336.216 167.798 335.004 171.095C334.482 172.516 333.688 173.837 333.016 175.205C331.388 178.509 328.633 180.901 326.183 183.53C325.469 184.297 324.51 184.843 323.628 185.439C321.369 186.965 318.916 188.097 316.339 188.94C312.806 190.097 309.189 190.656 305.462 190.421C302.287 190.218 299.193 189.736 296.244 188.503C295.528 188.206 294.788 187.957 294.061 187.672C293.888 187.606 293.747 187.467 293.577 187.383C293.217 187.206 292.843 187.044 292.48 186.87C292.328 186.796 292.173 186.726 292.034 186.637C289.707 185.167 287.512 183.527 285.562 181.575C285.174 181.186 284.806 180.774 284.476 180.334C283.601 179.179 282.665 178.059 281.909 176.824C281.07 175.46 280.328 174.025 279.676 172.566C278.258 169.403 277.531 166.031 277.343 162.584C277.125 158.607 277.691 154.705 279.016 150.909C279.746 148.814 280.626 146.763 281.859 144.959C283.237 142.948 284.993 141.185 286.588 139.319C286.783 139.094 287.049 138.926 287.229 138.695C288.314 137.262 289.872 136.444 291.305 135.453C293.612 133.859 296.184 132.807 298.832 132.014C301.753 131.136 304.759 130.629 307.831 130.74C310.538 130.841 313.211 131.125 315.807 131.898C317.015 132.255 318.176 132.771 319.347 133.247C320.24 133.613 321.199 133.899 321.971 134.446C323.52 135.535 325.323 136.28 326.625 137.721C326.809 137.927 327.034 138.087 327.238 138.27C327.287 138.231 327.332 138.189 327.381 138.15L327.373 138.15Z" fill="white"/>
<path d="M304.497 285.765C298.937 285.739 293.971 283.699 289.864 279.692C285.423 275.355 283.269 269.957 283.474 263.803C283.849 252.696 292.764 243.178 304.904 243.207C316.759 243.236 326.36 253.151 325.99 265.143C325.817 270.72 323.641 275.564 319.747 279.512C315.651 283.662 310.59 285.757 304.497 285.768V285.765Z" fill="#F3F3F3"/>
<circle cx="215.355" cy="254.648" r="37.9688" fill="white" stroke="#031E54" stroke-width="6"/>
<path d="M215.738 237.093C217.016 237.255 218.319 237.313 219.569 237.6C223.413 238.476 226.632 240.414 229.253 243.35C230.663 244.934 231.714 246.722 232.499 248.664C232.838 249.5 233.014 250.4 233.263 251.273C233.864 253.382 233.586 255.534 233.543 257.671C233.531 258.293 233.318 258.916 233.161 259.529C232.758 261.101 232.108 262.575 231.286 263.97C230.158 265.884 228.751 267.566 226.974 268.939C225.458 270.108 223.866 271.121 222.036 271.744C221.593 271.897 221.159 272.08 220.715 272.241C220.61 272.281 220.49 272.275 220.379 272.306C220.145 272.37 219.911 272.446 219.677 272.513C219.579 272.541 219.48 272.571 219.382 272.586C217.737 272.858 216.083 273.001 214.414 272.91C214.081 272.892 213.748 272.855 213.422 272.791C212.559 272.626 211.685 272.501 210.844 272.254C209.914 271.982 208.999 271.64 208.115 271.253C206.196 270.413 204.505 269.208 203.027 267.755C201.32 266.079 199.999 264.126 199.063 261.919C198.545 260.701 198.114 259.444 197.942 258.156C197.751 256.718 197.831 255.241 197.797 253.782C197.794 253.605 197.846 253.425 197.834 253.251C197.745 252.186 198.117 251.206 198.364 250.199C198.761 248.578 199.497 247.092 200.372 245.691C201.336 244.143 202.488 242.727 203.92 241.558C205.183 240.53 206.504 239.596 207.989 238.909C208.679 238.588 209.412 238.356 210.132 238.103C210.684 237.911 211.232 237.658 211.802 237.593C212.941 237.462 214.056 237.078 215.227 237.2C215.393 237.218 215.559 237.2 215.726 237.2C215.732 237.163 215.735 237.126 215.741 237.09L215.738 237.093Z" fill="#F4C63D"/>
</svg>
