<svg width="89" height="17" viewBox="0 0 89 17" fill="none" xmlns="http://www.w3.org/2000/svg">
<path d="M16.0928 6.25134C16.0463 6.11259 15.9623 5.9894 15.8502 5.89536C15.7381 5.80132 15.6021 5.74008 15.4574 5.71841L10.9399 5.02823L8.91061 0.705247C8.84656 0.568582 8.7449 0.452995 8.61753 0.372023C8.49016 0.291051 8.34236 0.248047 8.19143 0.248047C8.04051 0.248047 7.8927 0.291051 7.76533 0.372023C7.63797 0.452995 7.53631 0.568582 7.47226 0.705247L5.4438 5.02823L0.923855 5.71841C0.779546 5.74054 0.644129 5.80201 0.53248 5.89608C0.420831 5.99015 0.337271 6.11318 0.290981 6.25164C0.24469 6.3901 0.23746 6.53864 0.270084 6.68094C0.302709 6.82325 0.373926 6.9538 0.475911 7.05827L3.76957 10.4337L2.98964 15.211C2.96565 15.3582 2.98355 15.5091 3.04129 15.6465C3.09904 15.7839 3.19431 15.9024 3.31619 15.9882C3.43807 16.074 3.58166 16.1238 3.73051 16.1319C3.87937 16.14 4.0275 16.106 4.15795 16.0338L8.19183 13.8044L12.2257 16.0338C12.3562 16.106 12.5043 16.14 12.6531 16.1319C12.802 16.1238 12.9456 16.074 13.0675 15.9882C13.1894 15.9024 13.2846 15.7839 13.3424 15.6465C13.4001 15.5091 13.418 15.3582 13.394 15.211L12.6149 10.4337L15.9085 7.05827C16.0105 6.95371 16.0816 6.82306 16.1141 6.68071C16.1466 6.53835 16.1392 6.38978 16.0928 6.25134Z" fill="#E9751E"/>
<path d="M34.2373 6.25134C34.1908 6.11259 34.1068 5.9894 33.9947 5.89536C33.8826 5.80132 33.7467 5.74008 33.602 5.71841L29.0844 5.02823L27.0551 0.705247C26.9911 0.568582 26.8894 0.452995 26.7621 0.372023C26.6347 0.291051 26.4869 0.248047 26.336 0.248047C26.185 0.248047 26.0372 0.291051 25.9099 0.372023C25.7825 0.452995 25.6808 0.568582 25.6168 0.705247L23.5883 5.02823L19.0684 5.71841C18.9241 5.74054 18.7887 5.80201 18.677 5.89608C18.5654 5.99015 18.4818 6.11318 18.4355 6.25164C18.3892 6.3901 18.382 6.53864 18.4146 6.68094C18.4472 6.82325 18.5185 6.9538 18.6204 7.05827L21.9141 10.4337L21.1342 15.211C21.1102 15.3582 21.1281 15.5091 21.1858 15.6465C21.2436 15.7839 21.3388 15.9024 21.4607 15.9882C21.5826 16.074 21.7262 16.1238 21.875 16.1319C22.0239 16.14 22.172 16.106 22.3025 16.0338L26.3364 13.8044L30.3702 16.0338C30.5007 16.106 30.6488 16.14 30.7977 16.1319C30.9465 16.1238 31.0901 16.074 31.212 15.9882C31.3339 15.9024 31.4292 15.7839 31.4869 15.6465C31.5446 15.5091 31.5625 15.3582 31.5386 15.211L30.7594 10.4337L34.0531 7.05827C34.155 6.95371 34.2261 6.82306 34.2586 6.68071C34.2911 6.53835 34.2838 6.38978 34.2373 6.25134Z" fill="#E9751E"/>
<path d="M52.4014 6.25134C52.3549 6.11259 52.2709 5.9894 52.1588 5.89536C52.0467 5.80132 51.9107 5.74008 51.766 5.71841L47.2485 5.02823L45.2192 0.705247C45.1552 0.568582 45.0535 0.452995 44.9261 0.372023C44.7988 0.291051 44.651 0.248047 44.5 0.248047C44.3491 0.248047 44.2013 0.291051 44.0739 0.372023C43.9466 0.452995 43.8449 0.568582 43.7809 0.705247L41.7524 5.02823L37.2324 5.71841C37.0881 5.74054 36.9527 5.80201 36.8411 5.89608C36.7294 5.99015 36.6459 6.11318 36.5996 6.25164C36.5533 6.3901 36.5461 6.53864 36.5787 6.68094C36.6113 6.82325 36.6825 6.9538 36.7845 7.05827L40.0782 10.4337L39.2982 15.211C39.2742 15.3582 39.2921 15.5091 39.3499 15.6465C39.4076 15.7839 39.5029 15.9024 39.6248 15.9882C39.7467 16.074 39.8902 16.1238 40.0391 16.1319C40.188 16.14 40.3361 16.106 40.4665 16.0338L44.5004 13.8044L48.5343 16.0338C48.6648 16.106 48.8129 16.14 48.9617 16.1319C49.1106 16.1238 49.2542 16.074 49.3761 15.9882C49.4979 15.9024 49.5932 15.7839 49.651 15.6465C49.7087 15.5091 49.7266 15.3582 49.7026 15.211L48.9235 10.4337L52.2171 7.05827C52.3191 6.95371 52.3902 6.82306 52.4227 6.68071C52.4552 6.53835 52.4478 6.38978 52.4014 6.25134Z" fill="#E9751E"/>
<path d="M70.5381 6.25134C70.4916 6.11259 70.4076 5.9894 70.2955 5.89536C70.1834 5.80132 70.0475 5.74008 69.9027 5.71841L65.3852 5.02823L63.3559 0.705247C63.2919 0.568582 63.1902 0.452995 63.0628 0.372023C62.9355 0.291051 62.7877 0.248047 62.6367 0.248047C62.4858 0.248047 62.338 0.291051 62.2106 0.372023C62.0833 0.452995 61.9816 0.568582 61.9176 0.705247L59.8891 5.02823L55.3692 5.71841C55.2249 5.74054 55.0894 5.80201 54.9778 5.89608C54.8661 5.99015 54.7826 6.11318 54.7363 6.25164C54.69 6.3901 54.6828 6.53864 54.7154 6.68094C54.748 6.82325 54.8192 6.9538 54.9212 7.05827L58.2149 10.4337L57.435 15.211C57.411 15.3582 57.4289 15.5091 57.4866 15.6465C57.5444 15.7839 57.6396 15.9024 57.7615 15.9882C57.8834 16.074 58.027 16.1238 58.1758 16.1319C58.3247 16.14 58.4728 16.106 58.6033 16.0338L62.6371 13.8044L66.671 16.0338C66.8015 16.106 66.9496 16.14 67.0985 16.1319C67.2473 16.1238 67.3909 16.074 67.5128 15.9882C67.6347 15.9024 67.7299 15.7839 67.7877 15.6465C67.8454 15.5091 67.8633 15.3582 67.8393 15.211L67.0602 10.4337L70.3539 7.05827C70.4558 6.95371 70.5269 6.82306 70.5594 6.68071C70.5919 6.53835 70.5846 6.38978 70.5381 6.25134Z" fill="#E9751E"/>
<path d="M88.71 6.25134C88.6635 6.11259 88.5795 5.9894 88.4674 5.89536C88.3553 5.80132 88.2193 5.74008 88.0746 5.71841L83.557 5.02823L81.5278 0.705247C81.4637 0.568582 81.3621 0.452995 81.2347 0.372023C81.1074 0.291051 80.9595 0.248047 80.8086 0.248047C80.6577 0.248047 80.5099 0.291051 80.3825 0.372023C80.2552 0.452995 80.1535 0.568582 80.0894 0.705247L78.061 5.02823L73.541 5.71841C73.3967 5.74054 73.2613 5.80201 73.1497 5.89608C73.038 5.99015 72.9545 6.11318 72.9082 6.25164C72.8619 6.3901 72.8546 6.53864 72.8873 6.68094C72.9199 6.82325 72.9911 6.9538 73.0931 7.05827L76.3868 10.4337L75.6068 15.211C75.5828 15.3582 75.6007 15.5091 75.6585 15.6465C75.7162 15.7839 75.8115 15.9024 75.9334 15.9882C76.0553 16.074 76.1988 16.1238 76.3477 16.1319C76.4966 16.14 76.6447 16.106 76.7751 16.0338L80.809 13.8044L84.8429 16.0338C84.9733 16.106 85.1215 16.14 85.2703 16.1319C85.4192 16.1238 85.5628 16.074 85.6847 15.9882C85.8065 15.9024 85.9018 15.7839 85.9596 15.6465C86.0173 15.5091 86.0352 15.3582 86.0112 15.211L85.2321 10.4337L88.5257 7.05827C88.6277 6.95371 88.6988 6.82306 88.7313 6.68071C88.7638 6.53835 88.7564 6.38978 88.71 6.25134Z" fill="#DDDDDD"/>
</svg>
