<svg width="76" height="76" viewBox="0 0 76 76" fill="none" xmlns="http://www.w3.org/2000/svg">
<path d="M37.6328 75.2873C58.3283 75.2873 75.1054 58.5102 75.1054 37.8146C75.1054 17.1191 58.3283 0.342041 37.6328 0.342041C16.9372 0.342041 0.160156 17.1191 0.160156 37.8146C0.160156 58.5102 16.9372 75.2873 37.6328 75.2873Z" fill="#E3ECF5"/>
<path d="M41.162 75.1231C60.2024 73.3446 75.1054 57.32 75.1054 37.8146C75.1054 37.0578 75.083 36.3063 75.0387 35.5607L51.068 11.57L50.527 11.0491L26.1226 39.9986L39.6428 53.5189L33.8643 67.8256L41.162 75.1231Z" fill="#ACC4DB"/>
<path d="M37.6326 47.1179L32.6934 47.8491L31.8284 63.0703C31.6388 66.4052 34.2922 69.2136 37.6326 69.2136C37.7306 69.2136 37.828 69.2107 37.9249 69.206V47.1612L37.6326 47.1179Z" fill="#31363C"/>
<path d="M43.437 63.0703L42.572 47.8491L37.6328 47.1179V47.1605V69.2131C40.9648 69.2032 43.6261 66.3993 43.437 63.0703Z" fill="#31363C"/>
<path d="M33.0856 40.9473L32.6934 47.8493H37.9249V40.9473H33.0856Z" fill="#272B30"/>
<path d="M42.1797 40.9473H37.6328V47.8493H42.572L42.1797 40.9473Z" fill="#272B30"/>
<path d="M37.6325 41.7068C46.8928 41.7068 54.3997 34.1999 54.3997 24.9396C54.3997 15.6793 46.8928 8.17236 37.6325 8.17236C28.3722 8.17236 20.8652 15.6793 20.8652 24.9396C20.8652 34.1999 28.3722 41.7068 37.6325 41.7068Z" fill="white"/>
<path d="M54.4 24.9397C54.4 15.6853 46.885 8.18227 37.6328 8.17261V41.7066C46.885 41.6971 54.4 34.1941 54.4 24.9397Z" fill="white"/>
<path d="M26.8008 39.8639H37.4131L38.5303 34.5451L37.4131 29.226C31.5522 29.226 26.8008 33.9888 26.8008 39.8639Z" fill="#0449B7"/>
<path d="M37.4131 29.226V39.8639H48.0255C48.0255 33.9888 43.2741 29.226 37.4131 29.226Z" fill="#0449B7"/>
<path d="M31.5485 21.1511C31.5485 24.3979 34.1741 27.0298 37.4131 27.0298L38.5303 21.1511L37.4131 15.2725C34.1741 15.2725 31.5485 17.9044 31.5485 21.1511Z" fill="#0449B7"/>
<path d="M37.4131 15.2725V27.0298C40.6521 27.0298 43.2778 24.3979 43.2778 21.1511C43.2778 17.9044 40.6521 15.2725 37.4131 15.2725Z" fill="#0449B7"/>
<path d="M37.6328 43.9026C27.1766 43.9026 18.6699 35.3959 18.6699 24.9397C18.6699 14.4835 27.1766 5.97681 37.6328 5.97681C48.089 5.97681 56.5957 14.4835 56.5957 24.9397C56.5957 35.3959 48.089 43.9026 37.6328 43.9026ZM37.6328 10.3681C29.598 10.3681 23.0612 16.9049 23.0612 24.9397C23.0612 32.9745 29.598 39.5113 37.6328 39.5113C45.6676 39.5113 52.2044 32.9745 52.2044 24.9397C52.2044 16.9049 45.6676 10.3681 37.6328 10.3681Z" fill="#31363C"/>
<path d="M56.5957 24.9397C56.5957 14.4893 48.0808 5.98657 37.6328 5.97705V10.3684C45.6594 10.3779 52.2044 16.9109 52.2044 24.9397C52.2044 32.9686 45.6594 39.5014 37.6328 39.5111V43.9024C48.0808 43.8927 56.5957 35.39 56.5957 24.9397Z" fill="#31363C"/>
</svg>
