<svg width="19" height="19" viewBox="0 0 19 19" fill="none" xmlns="http://www.w3.org/2000/svg">
<path fill-rule="evenodd" clip-rule="evenodd" d="M8.30761 1.57607L7.40907 2.75803C7.33069 2.86173 7.18978 2.89894 7.06311 2.85936L5.60961 2.40811C5.16311 2.26957 4.67544 2.34478 4.29623 2.6084C3.90278 2.88153 3.67398 3.32011 3.67398 3.78482V5.24623C3.67398 5.35944 3.58928 5.45365 3.47686 5.48928L2.02336 5.94053C1.56736 6.08223 1.21348 6.4274 1.06544 6.86361C0.914234 7.30932 0.993401 7.79778 1.28157 8.17698L2.17932 9.35973C2.24344 9.44365 2.24344 9.55765 2.17932 9.64157L1.28157 10.8243C0.993401 11.2035 0.914234 11.692 1.06544 12.1377C1.21348 12.5739 1.56736 12.9191 2.02336 13.0608L3.47686 13.512C3.58928 13.5477 3.67398 13.6419 3.67398 13.7551V15.2165C3.67398 15.6812 3.90278 16.1198 4.29623 16.3929C4.67544 16.6565 5.16311 16.7317 5.60961 16.5932L7.06311 16.1419C7.18978 16.1024 7.33069 16.1396 7.40907 16.2433L8.30761 17.4252C8.58548 17.791 9.02803 18.0111 9.50065 18.0111C9.97328 18.0111 10.4158 17.791 10.6937 17.4252L11.5922 16.2433C11.6706 16.1396 11.8115 16.1024 11.9382 16.1419L13.3917 16.5932C13.8382 16.7317 14.3259 16.6565 14.7051 16.3929C15.0985 16.1198 15.3273 15.6812 15.3273 15.2165V13.7551C15.3273 13.6419 15.412 13.5477 15.5244 13.512L16.9779 13.0608C17.4339 12.9191 17.7878 12.5739 17.9359 12.1377C18.0871 11.692 18.0079 11.2035 17.7197 10.8243L16.822 9.64157C16.7579 9.55765 16.7579 9.44365 16.822 9.35973L17.7197 8.17698C18.0079 7.79778 18.0871 7.30932 17.9359 6.86361C17.7878 6.4274 17.4339 6.08223 16.9779 5.94053L15.5244 5.48928C15.412 5.45365 15.3273 5.35944 15.3273 5.24623V3.78482C15.3273 3.32011 15.0985 2.88153 14.7051 2.6084C14.3259 2.34478 13.8382 2.26957 13.3917 2.40811L11.9382 2.85936C11.8115 2.89894 11.6706 2.86173 11.5922 2.75803L10.6937 1.57607C10.4158 1.21032 9.97328 0.990234 9.50065 0.990234C9.02803 0.990234 8.58548 1.21032 8.30761 1.57607ZM12.4837 10.9961C12.0197 10.533 11.2677 10.533 10.8037 10.9961C10.3406 11.4592 10.3406 12.2121 10.8037 12.6752C11.2677 13.1392 12.0197 13.1392 12.4837 12.6752C12.9468 12.2121 12.9468 11.4592 12.4837 10.9961ZM11.8796 6.28173L6.28173 11.8796C6.04978 12.1116 6.04978 12.4876 6.28173 12.7196C6.51369 12.9515 6.88973 12.9515 7.12169 12.7196L12.7196 7.12169C12.9515 6.88973 12.9515 6.51369 12.7196 6.28173C12.4876 6.04978 12.1116 6.04978 11.8796 6.28173ZM8.19757 6.32607C7.73365 5.86215 6.98157 5.86215 6.51765 6.32607C6.05453 6.78919 6.05453 7.54207 6.51765 8.00519C6.98157 8.46832 7.73365 8.46832 8.19757 8.00519C8.66069 7.54207 8.66069 6.78919 8.19757 6.32607Z" fill="black"/>
</svg>
