<svg version="1.2" xmlns="http://www.w3.org/2000/svg" viewBox="0 0 84 35" width="84" height="35"><style>.a{fill:#6772e5}</style><path fill-rule="evenodd" class="a" d="m83.5 20h-11.2c0.2 2.7 2.2 3.5 4.4 3.5 2.3 0 4.1-0.5 5.6-1.3v4.6c-1.5 0.9-3.6 1.5-6.3 1.5-5.6 0-9.5-3.5-9.5-10.4 0-5.8 3.3-10.5 8.7-10.5 5.5 0 8.3 4.7 8.3 10.5 0 0.6 0 1.8 0 2.1zm-5.4-4.2c0-2.6-1.5-3.7-2.9-3.7-1.4 0-3 1.1-3 3.7zm-20.5-8.4c4 0 7.8 3.6 7.8 10.3 0 7.3-3.7 10.6-7.9 10.6-2 0-3.2-0.8-4-1.4l-0.1 6.5-5.7 1.2v-26.8h5.1l0.3 1.4c0.8-0.7 2.2-1.8 4.5-1.8zm2.1 10.5c0-3-1.4-5.4-3.5-5.4-1.3 0-2.1 0.5-2.7 1.1v8.6c0.5 0.6 1.3 1.1 2.7 1.1 2.1 0 3.5-2.3 3.5-5.4zm-19.9-16.5l5.8-1.2v4.6l-5.8 1.3zm0 6.4h5.8v20.1h-5.8zm-1.4 0v5.3c-0.7-0.3-3-0.6-4.4 1.2v13.6h-5.7v-20.1h4.9l0.4 1.7c1.4-2.5 4.1-2 4.8-1.7zm-16.3 0h4.4v4.9h-4.4v8.2c0 3.4 3.6 2.3 4.4 2v4.7c-0.8 0.4-2.2 0.7-4.1 0.7-3.4 0-5.9-2.5-5.9-5.9v-18.4l5.6-1.2zm-6.7 14c0 4.2-3.3 6.5-8.1 6.5-2 0-4.1-0.4-6.3-1.3v-5.4c2 1 4.4 1.8 6.3 1.8 1.3 0 2.2-0.4 2.2-1.4 0-2.7-8.7-1.7-8.7-8.1 0-4 3.1-6.5 7.8-6.5 1.9 0 3.8 0.3 5.7 1.1v5.4q-0.7-0.4-1.4-0.6-0.7-0.3-1.4-0.5-0.7-0.2-1.5-0.3-0.7-0.1-1.4-0.1c-1.3 0-2 0.3-2 1.2 0 2.6 8.8 1.4 8.8 8.2z"/></svg>