<svg width="22" height="22" viewBox="0 0 22 22" fill="none" xmlns="http://www.w3.org/2000/svg">
<path d="M17.1602 1.16992H10.4054C9.97789 1.16992 9.56731 1.34012 9.26483 1.64261L0.472487 10.4333C-0.157496 11.0633 -0.157496 12.0845 0.472487 12.7153L7.22726 19.4701C7.85724 20.1001 8.87845 20.1001 9.50843 19.4701L18.3008 10.6794C18.6033 10.3761 18.7735 9.96549 18.7735 9.53716V2.78319C18.7735 1.89186 18.0515 1.16992 17.1602 1.16992ZM14.337 6.81638C13.6691 6.81638 13.127 6.27432 13.127 5.60642C13.127 4.93853 13.6691 4.39647 14.337 4.39647C15.0049 4.39647 15.5469 4.93853 15.5469 5.60642C15.5469 6.27432 15.0049 6.81638 14.337 6.81638Z" fill="black"/>
<path d="M20.3865 2.7832L20.3857 10.2922C20.3857 10.664 20.2381 11.0214 19.9743 11.2843L11.04 20.2186L11.1772 20.3558C11.8071 20.9858 12.8284 20.9858 13.4583 20.3558L21.5263 12.2894C21.8296 11.9869 21.9998 11.5763 21.9998 11.1488V4.39648C21.9998 3.50514 21.2779 2.7832 20.3865 2.7832Z" fill="black"/>
</svg>
