<svg width="150" height="150" viewBox="0 0 150 150" fill="none" xmlns="http://www.w3.org/2000/svg">
<path d="M134.763 30.2904C114.669 43.7864 85.0119 75.8484 73.3411 101.018C63.7439 87.3873 54.8628 75.3155 40.8996 63.8961C34.1716 58.3931 25.8723 68.5824 32.5953 74.0804C47.6872 86.4211 58.8458 98.3833 68.3635 113.224C71.3222 117.836 78.2242 117.233 80.3525 112.193C90.4022 88.3883 115.872 54.8273 134.614 39.0703C146.837 59.663 148.672 86.4161 134.773 110.082C107.612 156.332 41.2825 156.033 14.4949 109.564C-12.2977 63.0843 21.198 4.98146 74.7881 4.98146C92.8239 4.98146 108.582 11.5602 120.531 22.0632C121.531 22.9447 123.048 22.87 123.958 21.8939L123.992 21.859C124.937 20.8431 124.868 19.2395 123.823 18.3232C110.79 6.86394 93.535 -0.242669 73.7787 0.00633671C16.5436 0.733432 -18.429 62.4071 10.1935 112.054C38.9056 161.855 110.676 161.855 139.388 112.054C154.877 85.1861 151.914 53.6221 134.768 30.2904H134.763Z" fill="#808080"/>
</svg>
