<svg width="26" height="27" viewBox="0 0 26 27" fill="none" xmlns="http://www.w3.org/2000/svg">
<g clip-path="url(#clip0_1010_57212)">
<path d="M20.4952 25.5217V24.5829C20.4952 23.9607 20.0166 23.4422 19.397 23.3916C18.9209 23.3517 18.4449 23.3092 17.9689 23.2586C17.0514 23.1629 16.0409 23.0618 16.0409 21.921L16.0356 4.27653C19.6522 4.22335 21.6334 6.31622 22.6838 9.41431C22.8514 9.91159 23.3168 10.2467 23.8406 10.2467H24.8033C25.4655 10.2467 26 9.71215 26 9.04998V2.02676C26 1.3646 25.4655 0.830078 24.8033 0.830078H13.0013H12.996H1.19669C0.53452 0.830078 0 1.3646 0 2.02676V9.04998C0 9.71215 0.53452 10.2467 1.19669 10.2467H2.15935C2.68324 10.2467 3.14861 9.91159 3.31615 9.41431C4.36391 6.31622 6.34775 4.22335 9.96441 4.27653L9.95643 21.921C9.95643 23.0618 8.94589 23.1629 8.02843 23.2587C7.55242 23.3092 7.0764 23.3517 6.60039 23.3916C5.98077 23.4422 5.5021 23.9607 5.5021 24.583V25.5217C5.5021 26.1839 6.03662 26.7184 6.69878 26.7184H12.996H13.004H19.2986C19.9581 26.7184 20.4952 26.1812 20.4952 25.5217Z" fill="black"/>
</g>
<defs>
<clipPath id="clip0_1010_57212">
<rect width="26" height="26" fill="white" transform="translate(0 0.773438)"/>
</clipPath>
</defs>
</svg>
