<svg width="20" height="21" viewBox="0 0 20 21" fill="none" xmlns="http://www.w3.org/2000/svg">
<g clip-path="url(#clip0_1393_28226)">
<path d="M10 10.8008C9.25832 10.8008 8.5333 10.5808 7.91661 10.1688C7.29993 9.75674 6.81928 9.17107 6.53545 8.48585C6.25162 7.80062 6.17736 7.04662 6.32206 6.31919C6.46675 5.59177 6.8239 4.92358 7.34835 4.39913C7.8728 3.87469 8.54098 3.51753 9.26841 3.37284C9.99584 3.22814 10.7498 3.30241 11.4351 3.58623C12.1203 3.87006 12.706 4.35071 13.118 4.96739C13.5301 5.58408 13.75 6.3091 13.75 7.05078C13.75 8.04534 13.3549 8.99917 12.6517 9.70243C11.9484 10.4057 10.9946 10.8008 10 10.8008ZM10 4.55078C9.50555 4.55078 9.0222 4.69741 8.61108 4.97211C8.19995 5.24681 7.87952 5.63726 7.6903 6.09407C7.50108 6.55089 7.45158 7.05356 7.54804 7.53851C7.6445 8.02346 7.8826 8.46892 8.23223 8.81855C8.58187 9.16818 9.02732 9.40628 9.51228 9.50275C9.99723 9.59921 10.4999 9.5497 10.9567 9.36048C11.4135 9.17126 11.804 8.85083 12.0787 8.43971C12.3534 8.02859 12.5 7.54524 12.5 7.05078C12.5 6.38774 12.2366 5.75186 11.7678 5.28302C11.2989 4.81418 10.663 4.55078 10 4.55078Z" fill="black"/>
<path d="M9.9999 19.551C8.61393 19.5501 7.2454 19.2418 5.99284 18.6485C4.74028 18.0552 3.63486 17.1916 2.75615 16.1197L2.43115 15.7197L2.75615 15.326C3.6356 14.2556 4.74135 13.3933 5.99387 12.8014C7.24639 12.2094 8.61453 11.9023 9.9999 11.9023C11.3853 11.9023 12.7534 12.2094 14.0059 12.8014C15.2585 13.3933 16.3642 14.2556 17.2437 15.326L17.5687 15.7197L17.2437 16.1197C16.3649 17.1916 15.2595 18.0552 14.007 18.6485C12.7544 19.2418 11.3859 19.5501 9.9999 19.551ZM4.06865 15.726C4.8288 16.5397 5.74811 17.1886 6.76951 17.6322C7.7909 18.0758 8.89259 18.3047 10.0062 18.3047C11.1197 18.3047 12.2214 18.0758 13.2428 17.6322C14.2642 17.1886 15.1835 16.5397 15.9437 15.726C15.1835 14.9122 14.2642 14.2634 13.2428 13.8198C12.2214 13.3762 11.1197 13.1473 10.0062 13.1473C8.89259 13.1473 7.7909 13.3762 6.76951 13.8198C5.74811 14.2634 4.8288 14.9122 4.06865 15.726Z" fill="black"/>
<path d="M9.99991 19.5508C7.87038 19.5522 5.80381 18.8286 4.14034 17.499C2.47687 16.1694 1.31563 14.3131 0.847745 12.2356C0.379858 10.1581 0.633207 7.98321 1.56609 6.06888C2.49898 4.15455 4.05581 2.61487 5.98035 1.70325C7.9049 0.791622 10.0825 0.562379 12.1547 1.05325C14.2268 1.54412 16.0702 2.72585 17.3812 4.40394C18.6923 6.08204 19.393 8.15649 19.368 10.2859C19.343 12.4153 18.5938 14.4727 17.2437 16.1195C16.365 17.1914 15.2595 18.055 14.007 18.6483C12.7544 19.2416 11.3859 19.5499 9.99991 19.5508ZM9.99991 2.05079C8.39294 2.05079 6.82205 2.52731 5.4859 3.4201C4.14975 4.31288 3.10835 5.58184 2.49339 7.06649C1.87843 8.55114 1.71753 10.1848 2.03103 11.7609C2.34454 13.337 3.11837 14.7847 4.25467 15.921C5.39097 17.0573 6.83871 17.8312 8.4148 18.1447C9.9909 18.4582 11.6246 18.2973 13.1092 17.6823C14.5939 17.0673 15.8628 16.0259 16.7556 14.6898C17.6484 13.3536 18.1249 11.7828 18.1249 10.1758C18.1249 8.0209 17.2689 5.95428 15.7452 4.43055C14.2214 2.90681 12.1548 2.05079 9.99991 2.05079Z" fill="black"/>
<path d="M3.2373 15.7249C3.2373 15.7249 9.53105 22.7561 15.9373 16.4249L16.7623 15.7249C16.7623 15.7249 11.4123 10.1749 5.98105 13.5061L3.2373 15.7249Z" fill="black"/>
<path d="M10 10.1758C11.7259 10.1758 13.125 8.77667 13.125 7.05078C13.125 5.32489 11.7259 3.92578 10 3.92578C8.27411 3.92578 6.875 5.32489 6.875 7.05078C6.875 8.77667 8.27411 10.1758 10 10.1758Z" fill="black"/>
</g>
<defs>
<clipPath id="clip0_1393_28226">
<rect width="20" height="20" fill="white" transform="translate(0 0.175781)"/>
</clipPath>
</defs>
</svg>
