<svg width="32" height="38" viewBox="0 0 32 38" fill="none" xmlns="http://www.w3.org/2000/svg">
<g clip-path="url(#clip0_1395_86706)">
<path d="M16.6364 0.000930435C17.136 0.0994603 17.6375 0.186832 18.1333 0.299305C21.5336 1.08847 24.4381 4.29627 24.8944 7.73552C25.1959 9.99706 24.8635 12.135 23.5732 14.047C21.8585 16.5874 19.4874 18.0663 16.35 18.2764C12.2314 18.5552 8.84327 16.1533 7.30511 12.8981C5.86085 9.84091 6.44494 5.76865 8.71368 3.23104C10.1035 1.67594 11.7778 0.604193 13.8512 0.185905C14.2034 0.115261 14.5593 0.0594897 14.9142 0L16.6364 0.000930435Z" fill="black"/>
<path d="M15.9928 38.0007H6.88406C5.32711 38.0007 3.85656 37.6987 2.56443 36.784C1.09857 35.7476 0.233701 34.3226 0.0825141 32.563C-0.188871 29.4203 0.176419 26.3352 1.37371 23.396C2.08457 21.6448 3.14757 20.1352 4.89514 19.2132C5.96564 18.6394 7.16851 18.3511 8.3856 18.3766C8.77248 18.384 9.18191 18.5718 9.53499 18.7614C10.1144 19.0737 10.6506 19.4641 11.214 19.8062C14.4174 21.752 17.618 21.7467 20.8158 19.7904C21.2618 19.5171 21.7154 19.2522 22.1352 18.9427C22.9024 18.3766 23.7447 18.292 24.6584 18.4277C27.1487 18.7884 28.9104 20.1343 30.0983 22.288C31.1585 24.2103 31.6346 26.2989 31.8487 28.4499C31.9588 29.5447 32.008 30.6448 31.9961 31.745C31.9557 35.1313 29.6616 37.5862 26.2567 37.9348C25.847 37.9772 25.4355 37.9992 25.0237 38.0007C22.0137 38.0045 19.0034 38.0045 15.9928 38.0007Z" fill="black"/>
</g>
<defs>
<clipPath id="clip0_1395_86706">
<rect width="32" height="38" fill="white"/>
</clipPath>
</defs>
</svg>
