<svg width="23" height="23" viewBox="0 0 23 23" fill="none" xmlns="http://www.w3.org/2000/svg">
<g clip-path="url(#clip0_1393_8517)">
<path d="M6.82061 19.4043C7.48019 20.0638 8.55086 20.0638 9.21044 19.4043L17.3918 11.2229C17.6268 10.9879 17.8075 10.7079 17.9249 10.4097C18.7471 10.6401 19.5468 10.7621 20.2515 10.7575C21.9953 10.7485 22.5736 9.98503 22.7633 9.52875C22.953 9.07699 23.0886 8.12829 21.8643 6.88143C21.8507 6.86788 21.8372 6.85432 21.8236 6.84077C21.0647 6.08181 19.9624 5.38158 18.711 4.86205C18.4806 4.76718 18.2502 4.68135 18.0243 4.60003V4.58648C18.0108 3.58356 17.2021 2.77491 16.1992 2.76136L11.2976 2.69359C10.647 2.68456 10.0236 2.93754 9.56733 3.39834L1.3814 11.5798C0.721826 12.2393 0.721826 13.31 1.3814 13.9696L6.82061 19.4043ZM13.1272 5.62101C13.6738 5.07438 14.5593 5.07438 15.1059 5.62101C15.4312 5.94628 15.5622 6.39353 15.499 6.81366C16.0366 7.19314 16.6781 7.54552 17.3647 7.83013C17.6087 7.92952 17.8436 8.01987 18.0695 8.09667L18.0424 6.12699C18.083 6.14506 18.1192 6.15861 18.1598 6.17668C19.2305 6.62392 20.1928 7.22929 20.8117 7.8482C20.8207 7.85723 20.8298 7.86627 20.8388 7.87531C21.4261 8.47615 21.4893 8.86015 21.4396 8.9776C21.286 9.34353 19.6371 9.6688 17.1343 8.62523C16.4025 8.31803 15.7158 7.93855 15.1601 7.52745C15.1421 7.55004 15.1195 7.57262 15.1014 7.59521C14.5548 8.14185 13.6693 8.14185 13.1227 7.59521C12.5806 7.0531 12.5806 6.16764 13.1272 5.62101Z" fill="black"/>
</g>
<defs>
<clipPath id="clip0_1393_8517">
<rect width="22" height="22" fill="white" transform="translate(0.886719 0.296875)"/>
</clipPath>
</defs>
</svg>
