<svg width="44" height="44" viewBox="0 0 44 44" fill="none" xmlns="http://www.w3.org/2000/svg">
<path fill-rule="evenodd" clip-rule="evenodd" d="M34.8335 36.6673C35.846 36.6673 36.6668 35.8465 36.6668 34.834C36.6668 33.8214 35.846 33.0007 34.8335 33.0007C33.8209 33.0007 33.0002 33.8214 33.0002 34.834C33.0002 35.8465 33.8209 36.6673 34.8335 36.6673ZM34.8335 40.334C37.8711 40.334 40.3335 37.8716 40.3335 34.834C40.3335 31.7963 37.8711 29.334 34.8335 29.334C31.7958 29.334 29.3335 31.7963 29.3335 34.834C29.3335 37.8716 31.7958 40.334 34.8335 40.334Z" fill="#121319"/>
<path fill-rule="evenodd" clip-rule="evenodd" d="M28.4168 7.33268C25.8855 7.33268 23.8335 9.38471 23.8335 11.916V32.0827C23.8335 36.6391 20.1399 40.3327 15.5835 40.3327C11.0271 40.3327 7.3335 36.6391 7.3335 32.0827V18.3327C7.3335 17.3202 8.15432 16.4993 9.16683 16.4993C10.1793 16.4993 11.0002 17.3202 11.0002 18.3327V32.0827C11.0002 34.614 13.0522 36.666 15.5835 36.666C18.1148 36.666 20.1668 34.614 20.1668 32.0827V11.916C20.1668 7.35967 23.8604 3.66602 28.4168 3.66602C32.9732 3.66602 36.6668 7.35967 36.6668 11.916V23.8327C36.6668 24.8452 35.846 25.666 34.8335 25.666C33.8209 25.666 33.0002 24.8452 33.0002 23.8327V11.916C33.0002 9.38471 30.9481 7.33268 28.4168 7.33268Z" fill="#191213"/>
<path d="M7.58321 4.54823C8.29066 3.33548 10.043 3.33548 10.7504 4.54823L13.9752 10.0764C14.6881 11.2986 13.8065 12.8335 12.3916 12.8335H5.94205C4.5271 12.8335 3.64551 11.2986 4.35845 10.0764L7.58321 4.54823Z" fill="#121319"/>
</svg>
