<svg width="43" height="43" viewBox="0 0 43 43" fill="none" xmlns="http://www.w3.org/2000/svg">
<path d="M1.34375 39.9688H41.6562V42.6562H1.34375V39.9688Z" fill="black"/>
<path d="M7.39062 17.125C6.85605 17.125 6.34337 17.3374 5.96536 17.7154C5.58736 18.0934 5.375 18.606 5.375 19.1406V37.2812H13.4375V19.1406C13.4375 18.606 13.2251 18.0934 12.8471 17.7154C12.4691 17.3374 11.9565 17.125 11.4219 17.125H7.39062Z" fill="black"/>
<path d="M19.4844 27.875C18.9498 27.875 18.4371 28.0874 18.0591 28.4654C17.6811 28.8434 17.4688 29.356 17.4688 29.8906V37.2812H25.5312V29.8906C25.5312 29.356 25.3189 28.8434 24.9409 28.4654C24.5629 28.0874 24.0502 27.875 23.5156 27.875H19.4844Z" fill="black"/>
<path d="M31.5781 31.9062C31.0435 31.9062 30.5309 32.1186 30.1529 32.4966C29.7749 32.8746 29.5625 33.3873 29.5625 33.9219V37.2812H37.625V33.9219C37.625 33.3873 37.4126 32.8746 37.0346 32.4966C36.6566 32.1186 36.144 31.9062 35.6094 31.9062H31.5781Z" fill="black"/>
<path d="M17.8719 19.92C18.3185 21.4064 19.1306 22.7571 20.2339 23.8486C21.3372 24.9402 22.6965 25.7377 24.1875 26.1685C25.0629 26.4102 25.9669 26.5323 26.875 26.5313C29.3697 26.5313 31.7622 25.5403 33.5262 23.7762C35.2903 22.0122 36.2813 19.6197 36.2813 17.125C36.2813 16.7686 36.1397 16.4268 35.8877 16.1748C35.6357 15.9228 35.2939 15.7813 34.9375 15.7813H30.2344C29.6998 15.7813 29.1871 15.5689 28.8091 15.1909C28.4311 14.8129 28.2188 14.3002 28.2188 13.7656V9.06252C28.2188 8.70613 28.0772 8.36435 27.8252 8.11234C27.5732 7.86034 27.2314 7.71877 26.875 7.71877C25.472 7.716 24.0862 8.02711 22.819 8.6293C21.5519 9.2315 20.4355 10.1095 19.5516 11.1991C18.5834 12.4065 17.9244 13.8318 17.6317 15.3515C17.339 16.8712 17.4214 18.4394 17.8719 19.92Z" fill="black"/>
<path d="M32.25 13.0938H40.3125C40.6689 13.0938 41.0107 12.9522 41.2627 12.7002C41.5147 12.4482 41.6562 12.1064 41.6562 11.75C41.6562 9.25531 40.6652 6.86279 38.9012 5.09878C37.1372 3.33476 34.7447 2.34375 32.25 2.34375C31.8936 2.34375 31.5518 2.48532 31.2998 2.73733C31.0478 2.98933 30.9062 3.33112 30.9062 3.6875V11.0916C30.9062 12.4891 31.5109 13.0938 32.25 13.0938Z" fill="black"/>
<path d="M1.34375 2.34375H20.1562V5.03125H1.34375V2.34375Z" fill="black"/>
<path d="M1.34375 7.71875H13.4375V10.4062H1.34375V7.71875Z" fill="black"/>
</svg>
