<svg width="45" height="45" viewBox="0 0 45 45" fill="none" xmlns="http://www.w3.org/2000/svg">
<path d="M22.7134 44.2795C28.1463 43.4698 33.1055 40.7293 36.6821 36.5604C40.2587 32.3914 42.2131 27.0732 42.1873 21.5803V1.38336L39.7044 2.44592C37.0585 3.58536 34.1688 4.04434 31.3 3.78103C28.4313 3.51772 25.6741 2.54048 23.2798 0.938422L22.4998 0.417969L21.7197 0.938281C19.3254 2.54058 16.5681 3.51797 13.6992 3.78131C10.8303 4.04465 7.94111 3.58556 5.29514 2.44592L2.81226 1.38336V21.5803C2.78641 27.0732 4.74088 32.3914 8.31747 36.5604C11.8941 40.7293 16.8532 43.4698 22.2862 44.2795L22.4998 44.3124L22.7134 44.2795ZM5.62476 21.5803V5.58425C8.39893 6.53442 11.3477 6.86466 14.2633 6.55169C17.179 6.23872 19.9905 5.29017 22.4998 3.77286C25.009 5.29045 27.8205 6.23917 30.7361 6.55214C33.6518 6.86511 36.6007 6.53472 39.3748 5.58425V21.5803C39.3975 26.3632 37.709 30.9966 34.6143 34.6433C31.5195 38.2901 27.2226 40.7099 22.4998 41.4656C17.7769 40.7099 13.48 38.2901 10.3853 34.6433C7.29052 30.9966 5.60201 26.3632 5.62476 21.5803Z" fill="black"/>
<path d="M29.5312 17.0796V12.6562H30.9375V9.84375H14.0625V12.6562H15.4688V17.0796C15.465 18.1251 15.7543 19.1506 16.3039 20.04C16.8534 20.9294 17.6412 21.6469 18.5778 22.1113L19.3552 22.5L18.5778 22.8887C17.6412 23.3531 16.8534 24.0706 16.3039 24.96C15.7543 25.8494 15.465 26.8749 15.4688 27.9204V32.3438H14.0625V35.1562H30.9375V32.3438H29.5312V27.9204C29.535 26.8749 29.2457 25.8494 28.6961 24.96C28.1466 24.0706 27.3588 23.3531 26.4222 22.8887L25.6448 22.5L26.4222 22.1113C27.3588 21.6469 28.1466 20.9294 28.6961 20.04C29.2457 19.1506 29.535 18.1251 29.5312 17.0796ZM18.2812 12.6562H26.7188V15.4688H18.2812V12.6562ZM18.5484 32.3438C18.8173 31.7729 19.2712 31.3097 19.8366 31.0295L22.5 29.6975L25.1641 31.0295C25.7295 31.3097 26.1834 31.7729 26.4523 32.3438H18.5484ZM26.7188 27.9204V28.6886C26.6192 28.6311 26.5261 28.5656 26.4222 28.5137L22.5 26.5525L18.5778 28.5137C18.4739 28.5656 18.381 28.6311 18.2812 28.6886V27.9204C18.2793 27.3976 18.4239 26.8848 18.6987 26.4401C18.9735 25.9954 19.3675 25.6366 19.8359 25.4045L22.5 24.0725L25.1641 25.4045C25.6325 25.6366 26.0265 25.9954 26.3013 26.4401C26.5761 26.8848 26.7207 27.3976 26.7188 27.9204ZM25.1641 19.5954L22.5 20.9275L19.8359 19.5955C19.2708 19.3151 18.8171 18.852 18.5484 18.2812H26.453C26.1839 18.8522 25.7297 19.3152 25.1641 19.5954Z" fill="black"/>
</svg>
