<svg width="45" height="42" viewBox="0 0 45 42" fill="none" xmlns="http://www.w3.org/2000/svg">
<g clip-path="url(#clip0_1395_86599)">
<path d="M0 20.7344C1.07578 21.3182 2.22656 21.4599 3.43594 21.4492C7.37461 21.423 11.3145 21.4385 15.2531 21.4385H15.8215V22.3535C15.8215 23.365 15.8215 24.3788 15.8215 25.3903C15.8215 26.2326 16.3734 26.8009 17.1926 26.8045C18.9199 26.8124 20.6477 26.8124 22.3758 26.8045C23.1727 26.8045 23.7211 26.2326 23.727 25.4165C23.7352 24.106 23.727 22.8014 23.727 21.4671H25.2059C25.4721 23.0252 26.0505 24.511 26.9051 25.8323C27.7848 27.1963 28.9435 28.3512 30.3023 29.2182C30.5156 29.3553 30.6457 29.4851 30.6457 29.7734C30.6457 33.0188 30.6574 36.2641 30.6645 39.5083C30.6538 39.5538 30.6377 39.5978 30.6164 39.6393H30.1184C20.6449 39.6393 11.1715 39.6425 1.69805 39.6489C0.890624 39.6489 0.308207 39.3927 0.00351906 38.6064L0 20.7344Z" fill="black"/>
<path d="M0.000196457 6.34567C0.342384 5.59509 0.918951 5.34371 1.72637 5.35086C5.35919 5.37945 8.992 5.36277 12.6248 5.36277H13.1861C13.1861 4.07607 13.1861 2.82988 13.1861 1.58369C13.1789 1.4058 13.1907 1.22764 13.2213 1.05233C13.3654 0.407789 13.8799 0.00390625 14.5689 0.00390625C18.04 0.00390625 21.5111 0.00390625 24.9822 0.00390625C25.8119 0.00390625 26.3615 0.559096 26.3686 1.39902C26.3779 2.56063 26.3686 3.72223 26.3686 4.88383V5.36039H37.9982C39.0529 5.36039 39.5498 5.86673 39.5522 6.94731V8.49612C36.0658 7.55492 32.8244 8.03505 29.89 10.1176C26.9557 12.2001 25.4018 15.1 25.0666 18.7575H24.5451C17.4412 18.7575 10.3385 18.7385 3.23575 18.773C1.63145 18.7802 0.525195 18.1976 -0.000976562 16.6202L0.000196457 6.34567ZM23.7131 2.71312H15.8615V5.34013H23.7131V2.71312Z" fill="black"/>
<path d="M44.9998 20.3747C44.8603 20.9787 44.7654 21.5959 44.5755 22.1844C43.7787 24.7066 42.1826 26.5163 39.8025 27.5886C39.5154 27.7184 39.4111 27.8614 39.4181 28.1759C39.438 29.0504 39.4252 29.9249 39.4252 30.8172H33.2728C33.2728 29.9392 33.2541 29.0802 33.281 28.2236C33.2916 27.8662 33.1791 27.7101 32.8568 27.5683C29.2896 25.9933 27.274 22.2714 27.7791 18.2314C28.2408 14.5381 31.2853 11.4214 35.0037 10.8341C39.8236 10.0716 44.2521 13.4456 44.9248 18.3922C44.9421 18.4617 44.9673 18.5288 44.9998 18.5924V20.3747ZM42.363 19.5407C42.3683 17.9212 41.7409 16.3659 40.6187 15.2164C39.4965 14.067 37.9712 13.4177 36.3783 13.411C35.586 13.4059 34.8005 13.5599 34.067 13.8644C33.3335 14.1688 32.6664 14.6176 32.104 15.185C31.5416 15.7524 31.0951 16.4272 30.7901 17.1706C30.4851 17.9141 30.3276 18.7114 30.3267 19.5169C30.3236 21.136 30.9519 22.6902 32.0739 23.8392C33.1959 24.9882 34.7201 25.6381 36.3126 25.6466C37.1052 25.6516 37.891 25.4973 38.6247 25.1925C39.3584 24.8877 40.0255 24.4384 40.5878 23.8705C41.1501 23.3026 41.5964 22.6273 41.9011 21.8834C42.2058 21.1395 42.3628 20.3418 42.363 19.536V19.5407Z" fill="black"/>
<path d="M33.321 33.5469H39.3901C39.4018 33.6577 39.4229 33.772 39.4241 33.8864C39.4241 35.5079 39.4393 37.1306 39.4241 38.752C39.4018 40.7024 37.9967 42.0879 36.1686 42.001C34.7917 41.9331 33.4358 40.8358 33.3561 39.4514C33.2319 37.4939 33.321 35.5282 33.321 33.5469Z" fill="black"/>
<path d="M18.4946 21.457H21.061V24.0983H18.4946V21.457Z" fill="black"/>
</g>
<defs>
<clipPath id="clip0_1395_86599">
<rect width="45" height="42" fill="white"/>
</clipPath>
</defs>
</svg>
