<svg width="43" height="43" viewBox="0 0 43 43" fill="none" xmlns="http://www.w3.org/2000/svg">
<g clip-path="url(#clip0_1395_86491)">
<path d="M42.9999 8.99032C43.0073 11.378 42.0649 13.671 40.3797 15.3654C38.6945 17.0598 36.4044 18.0171 34.0126 18.0269C32.8255 18.0281 31.6498 17.7957 30.5528 17.3431C29.4557 16.8904 28.4587 16.2263 27.6189 15.3888C26.7791 14.5513 26.1128 13.5567 25.6583 12.462C25.2037 11.3673 24.9697 10.1939 24.9697 9.00881C24.9697 6.62112 25.9192 4.33109 27.6096 2.64187C29.3 0.952655 31.593 0.00245142 33.9848 0C36.3742 -1.25972e-06 38.6658 0.946894 40.3562 2.63264C42.0466 4.31839 42.9974 6.60509 42.9999 8.99032ZM27.0544 8.99032C27.0508 9.90086 27.2269 10.8032 27.5729 11.6457C27.9188 12.4882 28.4278 13.2543 29.0706 13.9003C29.7134 14.5463 30.4775 15.0595 31.3191 15.4105C32.1607 15.7615 33.0634 15.9434 33.9755 15.9458C35.8105 15.9458 37.571 15.2213 38.8729 13.9304C40.1747 12.6394 40.9122 10.8868 40.9245 9.05505C40.9319 7.21511 40.2087 5.44721 38.9133 4.13839C37.6178 2.82957 35.8557 2.0865 34.0126 2.07183C33.1005 2.0694 32.1969 2.2465 31.3534 2.59298C30.5099 2.93947 29.7431 3.44852 29.0968 4.09108C28.4506 4.73364 27.9375 5.4971 27.5871 6.33775C27.2366 7.1784 27.0556 8.07978 27.0544 8.99032Z" fill="black"/>
<path d="M9.70068 21.4691C9.74923 18.5647 10.1474 15.6767 10.8866 12.8672C13.9091 13.4867 16.9833 13.8212 20.0685 13.8661V21.4691H9.70068Z" fill="black"/>
<path d="M9.70068 22.9102H20.0685V30.5131C16.9834 30.5605 13.9095 30.8949 10.8866 31.512C10.1458 28.7028 9.74761 25.8146 9.70068 22.9102Z" fill="black"/>
<path d="M21.5322 22.9102H31.8537C31.854 25.8107 31.4613 28.698 30.6863 31.4935C27.6718 30.8862 24.6072 30.561 21.5322 30.5223V22.9102Z" fill="black"/>
<path d="M8.26461 21.4865H0.00927734C0.127072 17.5997 1.35155 13.8267 3.53935 10.6094L9.47836 12.6257C9.21893 14.0594 8.89466 15.53 8.69082 17.0099C8.48699 18.4898 8.40359 19.9604 8.26461 21.4865Z" fill="black"/>
<path d="M3.5208 33.7489C1.35102 30.5406 0.13079 26.7868 0 22.918H8.33872C8.38811 25.888 8.79563 28.8413 9.55246 31.714L3.5208 33.7489Z" fill="black"/>
<path d="M41.6195 22.918C41.485 26.7848 40.2686 30.5367 38.108 33.7489L32.1504 31.7326C32.4098 30.3174 32.7248 28.856 32.9287 27.3761C33.1325 25.8962 33.2159 24.4256 33.3549 22.918H41.6195Z" fill="black"/>
<path d="M21.5229 43.0015V31.9023C24.5105 31.9293 27.4887 32.239 30.4176 32.8273C29.8524 34.1222 29.3706 35.3893 28.7776 36.5917C27.8753 38.5573 26.5119 40.2768 24.8029 41.6049C23.8521 42.351 22.7205 42.8329 21.5229 43.0015Z" fill="black"/>
<path d="M20.0964 31.9102V43.0093C18.7198 42.8074 17.432 42.2096 16.3903 41.2889C14.6708 39.7612 13.3212 37.8636 12.4433 35.7394C12.0171 34.8144 11.6743 33.8895 11.2666 32.8351C14.174 32.249 17.1305 31.9393 20.0964 31.9102Z" fill="black"/>
<path d="M11.2109 11.5054C11.7669 10.2105 12.2579 8.94339 12.8509 7.74098C13.7335 5.81532 15.0608 4.12585 16.7238 2.81109C17.6992 2.04223 18.8643 1.55019 20.0963 1.38672V12.4859C17.1098 12.4458 14.1341 12.1174 11.2109 11.5054Z" fill="black"/>
<path d="M21.5229 21.4668V13.8916C22.5421 13.8361 23.5428 13.7714 24.5527 13.7344C24.6546 13.7344 24.8028 13.9009 24.8677 14.0211C26.0956 16.259 28.1084 17.9653 30.5195 18.8123C30.7281 18.9106 30.9496 18.9791 31.1773 19.0157C31.7332 19.0157 31.863 19.3672 31.8352 19.8759C31.8074 20.3846 31.8815 20.9118 31.9093 21.4668H21.5229Z" fill="black"/>
<path d="M31.6966 33.0664L37.2557 34.9163C34.5034 38.4918 30.6481 41.0629 26.2856 42.2324C28.8398 39.6854 30.702 36.5309 31.6966 33.0664Z" fill="black"/>
<path d="M15.3987 42.2524C11.0077 41.0852 7.12541 38.5036 4.35449 34.9085L9.78393 33.0586C10.5807 34.779 11.2849 36.4253 12.1002 37.9977C12.9361 39.6014 14.0533 41.0424 15.3987 42.2524Z" fill="black"/>
<path d="M15.3895 2.15625C12.8223 4.66339 10.9514 7.79318 9.96003 11.2391C8.0537 10.7952 6.19269 10.176 4.40088 9.38921C7.17362 5.84433 11.0333 3.30379 15.3895 2.15625Z" fill="black"/>
<path d="M24.1265 12.3305L21.5322 12.4507V1.35156C22.9527 1.55315 24.2813 2.17121 25.3495 3.12741C24.4563 4.46684 23.8818 5.99243 23.6699 7.5875C23.4579 9.18258 23.6141 10.8049 24.1265 12.3305Z" fill="black"/>
<path d="M33.2992 21.468L33.1973 19.4146C34.5868 19.4893 35.9783 19.3074 37.3018 18.8781C38.671 18.4055 39.9313 17.6632 41.0079 16.6953L41.7213 21.468H33.2992Z" fill="black"/>
<path d="M34.7168 6.58648C34.7168 7.33567 34.7168 8.09412 34.7168 8.84331C34.6983 9.12216 34.5912 9.38783 34.4111 9.60173C33.8088 10.2677 33.1603 10.8874 32.558 11.5163C32.4943 11.5952 32.4145 11.6598 32.3241 11.7058C32.2336 11.7519 32.1345 11.7784 32.0331 11.7836C31.9317 11.7889 31.8303 11.7727 31.7356 11.7362C31.6408 11.6997 31.5549 11.6437 31.4833 11.5718C31.4169 11.4998 31.3663 11.4147 31.3347 11.3219C31.3032 11.2292 31.2914 11.131 31.3002 11.0334C31.3089 10.9359 31.3379 10.8413 31.3854 10.7556C31.4329 10.6699 31.4978 10.5951 31.5759 10.5359C32.0762 10.0272 32.5673 9.5185 33.0862 9.03754C33.1903 8.94207 33.2711 8.8241 33.3225 8.69264C33.3739 8.56117 33.3945 8.41971 33.3826 8.27909C33.3826 6.94719 33.3826 5.61529 33.3826 4.29264C33.3826 3.79318 33.6235 3.49722 34.0312 3.46947C34.1326 3.4649 34.2337 3.48222 34.3277 3.5203C34.4218 3.55839 34.5064 3.6163 34.5759 3.69009C34.6455 3.76387 34.6982 3.85181 34.7305 3.94782C34.7628 4.04384 34.774 4.14569 34.7632 4.24641C34.7168 5.02335 34.7168 5.85578 34.7168 6.58648Z" fill="black"/>
</g>
<defs>
<clipPath id="clip0_1395_86491">
<rect width="43" height="43" fill="white"/>
</clipPath>
</defs>
</svg>
