<svg version="1.2" xmlns="http://www.w3.org/2000/svg" viewBox="0 0 121 52" width="121" height="52"><style></style><path  d="m22.8 6.6c1.4-1.8 2.4-4.2 2.1-6.6-2.1 0.1-4.6 1.4-6.1 3.1-1.3 1.5-2.5 4-2.2 6.3 2.4 0.3 4.7-1 6.2-2.8zm2.1 3.4c-3.4-0.2-6.3 1.9-7.9 1.9-1.6 0-4.1-1.8-6.8-1.8-3.5 0.1-6.7 2-8.5 5.2-3.6 6.3-1 15.6 2.6 20.7 1.7 2.5 3.8 5.3 6.5 5.2 2.6-0.1 3.6-1.7 6.7-1.7 3.1 0 4 1.7 6.8 1.6 2.8-0.1 4.6-2.5 6.3-5.1 2-2.9 2.8-5.7 2.8-5.8-0.1-0.1-5.5-2.1-5.5-8.3-0.1-5.2 4.2-7.7 4.4-7.8-2.3-3.6-6.1-4-7.4-4.1z"/><path fill-rule="evenodd" d="m54.3 2.9c7.4 0 12.5 5.1 12.5 12.4 0 7.4-5.2 12.5-12.7 12.5h-8.1v12.9h-5.9v-37.8zm-1.6 20c5.1 0 8-2.8 8-7.5 0-4.8-2.9-7.5-8-7.5h-6.8v15zm15.6 10.1c0-4.8 3.7-7.8 10.3-8.2l7.6-0.4v-2.1c0-3.1-2.1-4.9-5.5-4.9-3.3 0-5.3 1.6-5.8 4h-5.4c0.3-5 4.6-8.7 11.4-8.7 6.7 0 11 3.5 11 9.1v19h-5.4v-4.5h-0.1c-1.6 3.1-5.1 5-8.7 5-5.6 0-9.4-3.4-9.4-8.3zm17.9-2.5v-2.2l-6.8 0.4c-3.4 0.2-5.3 1.7-5.3 4.1 0 2.4 2 4 5 4 4 0 7.1-2.7 7.1-6.3zm10.7 20.5v-4.6c0.4 0.1 1.4 0.1 1.8 0.1 2.6 0 4-1.1 4.9-3.9 0-0.1 0.5-1.7 0.5-1.7l-10-27.6h6.1l7 22.5h0.1l7-22.5h6l-10.3 29.1c-2.4 6.7-5.1 8.8-10.8 8.8-0.4-0.1-1.8-0.1-2.3-0.2z"/></svg>