<svg width="25" height="25" viewBox="0 0 25 25" fill="none" xmlns="http://www.w3.org/2000/svg">
<g id="filled/editor/attach-file">
<path id="Vector" d="M16.9941 6.5V18C16.9941 20.21 15.2041 22 12.9941 22C10.7841 22 8.99414 20.21 8.99414 18V5.5C8.99414 4.12 10.1141 3 11.4941 3C12.8741 3 13.9941 4.12 13.9941 5.5V16C13.9941 16.55 13.5441 17 12.9941 17C12.4441 17 11.9941 16.55 11.9941 16V6.5H10.4941V16C10.4941 17.38 11.6141 18.5 12.9941 18.5C14.3741 18.5 15.4941 17.38 15.4941 16V5.5C15.4941 3.29 13.7041 1.5 11.4941 1.5C9.28414 1.5 7.49414 3.29 7.49414 5.5V18C7.49414 21.04 9.95414 23.5 12.9941 23.5C16.0341 23.5 18.4941 21.04 18.4941 18V6.5H16.9941Z" fill="black"/>
</g>
</svg>
