<svg width="44" height="42" viewBox="0 0 44 42" fill="none" xmlns="http://www.w3.org/2000/svg">
<rect x="0.5" y="0.5" width="43" height="41" rx="7.5" fill="white" stroke="black"/>
<g clip-path="url(#clip0_754_3284)">
<path d="M33.0625 20.0625H13.2082L16.4972 16.7895C16.8642 16.4242 16.8656 15.8307 16.5003 15.4637C16.1351 15.0967 15.5414 15.0953 15.1745 15.4605L10.2758 20.3355C10.2755 20.3358 10.2753 20.3361 10.275 20.3364C9.90894 20.7016 9.90777 21.2971 10.2749 21.6636C10.2752 21.6639 10.2755 21.6642 10.2757 21.6645L15.1744 26.5395C15.5413 26.9047 16.1349 26.9034 16.5002 26.5363C16.8655 26.1693 16.8641 25.5757 16.4971 25.2105L13.2082 21.9375H33.0625C33.5803 21.9375 34 21.5178 34 21C34 20.4822 33.5803 20.0625 33.0625 20.0625Z" fill="black"/>
</g>
<defs>
<clipPath id="clip0_754_3284">
<rect width="24" height="24" fill="white" transform="translate(10 9)"/>
</clipPath>
</defs>
</svg>
