<svg width="17" height="17" viewBox="0 0 17 17" fill="none" xmlns="http://www.w3.org/2000/svg">
<g clip-path="url(#clip0_1853_25220)">
<path d="M15.6839 10.5891C16.0222 10.5891 16.2965 10.3148 16.2965 9.97646V5.99414C16.2965 4.64285 15.1971 3.54348 13.8459 3.54348H12.9158C12.6534 3.54348 12.4203 3.37662 12.3358 3.12822L12.1504 2.58365C11.8968 1.83853 11.1976 1.33789 10.4105 1.33789H6.49643C5.72459 1.33789 5.02986 1.82566 4.76773 2.55161L4.55566 3.13891C4.46826 3.38088 4.23671 3.54348 3.97942 3.54348H3.06296C1.71167 3.54348 0.612305 4.64285 0.612305 5.99414V13.0398C0.612305 14.3911 1.71167 15.4904 3.06296 15.4904H13.8459C15.1971 15.4904 16.2965 14.3911 16.2965 13.0398C16.2965 12.7014 16.0222 12.4271 15.6839 12.4271C15.3455 12.4271 15.0712 12.7014 15.0712 13.0398C15.0712 13.7154 14.5215 14.2651 13.8459 14.2651H3.06296C2.38732 14.2651 1.83763 13.7154 1.83763 13.0398V5.99414C1.83763 5.31849 2.38732 4.76881 3.06296 4.76881H3.97942C4.75125 4.76881 5.44598 4.28104 5.70811 3.55509L5.92018 2.96779C6.00758 2.72582 6.23914 2.56322 6.49643 2.56322H10.4105C10.6728 2.56322 10.9059 2.73011 10.9905 2.97848L11.1758 3.52305C11.4294 4.26817 12.1287 4.76881 12.9158 4.76881H13.8459C14.5215 4.76881 15.0712 5.31849 15.0712 5.99414V9.97646C15.0712 10.3148 15.3455 10.5891 15.6839 10.5891Z" fill="black"/>
<path d="M8.4854 5.38062C6.37401 5.38062 4.65625 7.09837 4.65625 9.20977C4.65625 11.3212 6.37401 13.0389 8.4854 13.0389C10.5968 13.0389 12.3146 11.3212 12.3146 9.20977C12.3146 7.09837 10.5968 5.38062 8.4854 5.38062ZM8.4854 11.8136C7.04965 11.8136 5.88158 10.6455 5.88158 9.20977C5.88158 7.77402 7.04965 6.60594 8.4854 6.60594C9.92115 6.60594 11.0892 7.77402 11.0892 9.20977C11.0892 10.6455 9.92115 11.8136 8.4854 11.8136Z" fill="black"/>
</g>
<defs>
<clipPath id="clip0_1853_25220">
<rect width="15.6842" height="15.6842" fill="white" transform="translate(0.612305 0.572021)"/>
</clipPath>
</defs>
</svg>
