<svg width="40" height="41" viewBox="0 0 40 41" fill="none" xmlns="http://www.w3.org/2000/svg">
<path d="M5.85938 20.5781H11.3281V22.9219H5.85938V20.5781Z" fill="black"/>
<path d="M30.0781 14.7188H3.51562C1.57711 14.7188 0 16.2959 0 18.2344V36.9844C0 38.9229 1.57711 40.5 3.51562 40.5H30.0781C32.0166 40.5 33.5938 38.9229 33.5938 36.9844V18.2344C33.5938 16.2959 32.0166 14.7188 30.0781 14.7188ZM3.51562 19.4062C3.51562 18.7591 4.04031 18.2344 4.6875 18.2344H12.5C13.1472 18.2344 13.6719 18.7591 13.6719 19.4062V24.0938C13.6719 24.7409 13.1472 25.2656 12.5 25.2656H4.6875C4.04031 25.2656 3.51562 24.7409 3.51562 24.0938V19.4062ZM4.6875 29.9531H7.03125C7.67844 29.9531 8.20312 30.4778 8.20312 31.125C8.20312 31.7722 7.67844 32.2969 7.03125 32.2969H4.6875C4.04031 32.2969 3.51562 31.7722 3.51562 31.125C3.51562 30.4778 4.04031 29.9531 4.6875 29.9531ZM12.5 36.9844H4.6875C4.04031 36.9844 3.51562 36.4597 3.51562 35.8125C3.51562 35.1653 4.04031 34.6406 4.6875 34.6406H12.5C13.1472 34.6406 13.6719 35.1653 13.6719 35.8125C13.6719 36.4597 13.1472 36.9844 12.5 36.9844ZM14.0625 32.2969H11.7188C11.0716 32.2969 10.5469 31.7722 10.5469 31.125C10.5469 30.4778 11.0716 29.9531 11.7188 29.9531H14.0625C14.7097 29.9531 15.2344 30.4778 15.2344 31.125C15.2344 31.7722 14.7097 32.2969 14.0625 32.2969ZM21.0938 32.2969H18.75C18.1028 32.2969 17.5781 31.7722 17.5781 31.125C17.5781 30.4778 18.1028 29.9531 18.75 29.9531H21.0938C21.7409 29.9531 22.2656 30.4778 22.2656 31.125C22.2656 31.7722 21.7409 32.2969 21.0938 32.2969ZM28.9062 25.2656H25C24.3528 25.2656 23.8281 24.7409 23.8281 24.0938C23.8281 23.4466 24.3528 22.9219 25 22.9219H28.9062C29.5534 22.9219 30.0781 23.4466 30.0781 24.0938C30.0781 24.7409 29.5534 25.2656 28.9062 25.2656ZM28.9062 20.5781H25C24.3528 20.5781 23.8281 20.0534 23.8281 19.4062C23.8281 18.7591 24.3528 18.2344 25 18.2344H28.9062C29.5534 18.2344 30.0781 18.7591 30.0781 19.4062C30.0781 20.0534 29.5534 20.5781 28.9062 20.5781Z" fill="black"/>
<path d="M39.88 21.2173L37.5546 12.5391L33.6416 13.5876C35.0363 14.6596 35.9376 16.3433 35.9376 18.2344V25.9132L37.394 25.523C39.2665 25.0212 40.3817 23.0897 39.88 21.2173Z" fill="black"/>
<path d="M29.1112 12.3754L36.9478 10.2756L36.3411 8.01172L20.0557 12.3754H29.1112Z" fill="black"/>
<path d="M2.73203 12.375H11.0007L35.735 5.7474L35.0273 3.10608C34.5255 1.23365 32.5941 0.11842 30.7216 0.620217L5.06413 7.49506C3.19163 7.99678 2.07648 9.92834 2.5782 11.8008L2.73203 12.375Z" fill="black"/>
</svg>
