<svg width="31" height="31" viewBox="0 0 31 31" fill="none" xmlns="http://www.w3.org/2000/svg">
<g clip-path="url(#clip0_1277_20085)">
<path d="M24.1365 16.3086C24.3109 17.9643 24.086 19.6776 23.397 21.296V21.2966L25.7888 24.3856C26.0029 24.6622 26.4042 24.7001 26.6693 24.4721C28.817 22.6238 30.2382 19.9559 30.4488 16.9537C30.4733 16.6042 30.1921 16.3087 29.8417 16.3087H24.1365V16.3086Z" fill="black"/>
<path d="M18.1313 0.608377V8.16181C20.1577 9.03875 21.8398 10.5658 22.9138 12.4778H29.8577C30.201 12.4778 30.4789 12.1936 30.4656 11.8505C30.2184 5.42936 25.0989 0.322002 18.7653 0.000781566C18.4197 -0.0167329 18.1313 0.262404 18.1313 0.608377Z" fill="black"/>
<path d="M14.262 27.4137C8.73352 27.4708 4.16485 22.9885 4.12015 17.46C4.07509 11.8882 8.59499 7.34058 14.1566 7.34058V4.37826C14.1566 4.03162 13.8672 3.75431 13.5209 3.77018C6.29323 4.10223 0.534241 10.0672 0.53418 17.3774C0.53418 24.9154 6.70828 31.048 14.246 30.9996C17.0887 30.9813 19.7238 30.0927 21.8991 28.5871C22.1853 28.389 22.2455 27.9904 22.0324 27.7151L20.2185 25.3721C18.5589 26.6331 16.4971 27.3906 14.262 27.4137Z" fill="black"/>
<path d="M5.94385 17.3764C5.94385 21.9046 9.62797 25.5888 14.1562 25.5888C18.6839 25.5888 22.3686 21.9054 22.3686 17.3764C22.3686 12.8483 18.6839 9.16406 14.1562 9.16406C9.62797 9.16406 5.94385 12.8482 5.94385 17.3764ZM15.0684 11.9208V12.791C16.0036 12.791 16.8315 13.1888 17.4152 13.8115C17.7594 14.1788 17.7406 14.7565 17.3733 15.1007C17.0082 15.4428 16.4333 15.4297 16.084 15.0588C15.8225 14.7803 15.4661 14.6185 15.1055 14.6155C14.3674 14.6155 13.8684 14.6155 13.1333 14.6155C12.622 14.6155 12.2089 15.0297 12.2089 15.5398C12.2089 16.0495 12.6237 16.4642 13.1339 16.4642H15.1791C16.6946 16.4642 17.9279 17.6975 17.9279 19.213C17.9279 20.6291 16.8387 21.9624 15.0684 21.9624V22.8321C15.0684 23.3356 14.6604 23.7443 14.1562 23.7443C13.6527 23.7443 13.244 23.3356 13.244 22.8321V21.9624C12.6014 21.9624 11.9683 21.8928 11.2268 21.3786C10.8132 21.0916 10.7105 20.5229 10.9975 20.1094C11.2846 19.6953 11.8532 19.5925 12.2667 19.8795C12.4856 20.0328 12.7575 20.1345 13.0281 20.138H15.1791C15.6871 20.138 16.1035 19.7279 16.1035 19.213C16.1035 18.7034 15.6887 18.2886 15.1791 18.2886C14.2741 18.2886 14.0875 18.2886 13.1339 18.2886C11.6178 18.2886 10.3845 17.0553 10.3845 15.5398C10.3845 14.1193 11.4776 12.791 13.244 12.791V11.9208C13.244 11.4172 13.6527 11.0086 14.1562 11.0086C14.6604 11.0086 15.0684 11.4172 15.0684 11.9208Z" fill="black"/>
</g>
<defs>
<clipPath id="clip0_1277_20085">
<rect width="31" height="31" fill="white"/>
</clipPath>
</defs>
</svg>
