<svg width="33" height="33" viewBox="0 0 33 33" fill="none" xmlns="http://www.w3.org/2000/svg">
<g clip-path="url(#clip0_1277_20099)">
<path d="M20.4043 26.5938H12.5959C9.90718 26.5938 7.71973 28.7812 7.71973 31.47C7.71973 32.0068 8.15492 32.442 8.69173 32.442H24.3085C24.8453 32.442 25.2805 32.0068 25.2805 31.47C25.2805 28.7812 23.0931 26.5938 20.4043 26.5938Z" fill="black"/>
<path d="M10.6903 15.9883H0C0.459691 18.5221 2.68078 20.4502 5.34516 20.4502C8.00954 20.4502 10.2306 18.5221 10.6903 15.9883Z" fill="black"/>
<path d="M22.3096 15.9883C22.7693 18.5221 24.9903 20.4502 27.6547 20.4502C30.3191 20.4502 32.5401 18.5221 32.9999 15.9883H22.3096Z" fill="black"/>
<path d="M5.34492 8.26442L8.23416 14.0428H10.4076L6.91769 7.06296H14.8717V24.6481H18.1279V7.06296H26.0819L22.592 14.0428H24.7654L27.6547 8.26442L30.5438 14.0428H32.7173L28.524 5.65622C28.3594 5.3269 28.0228 5.1189 27.6547 5.1189H18.1279V2.18669C18.1279 1.28896 17.3975 0.558594 16.4998 0.558594C15.6021 0.558594 14.8717 1.28896 14.8717 2.18669V5.1189H5.34492C4.97673 5.1189 4.64016 5.3269 4.47557 5.65622L0.282227 14.0428H2.45568L5.34492 8.26442Z" fill="black"/>
</g>
<defs>
<clipPath id="clip0_1277_20099">
<rect width="33" height="33" fill="white"/>
</clipPath>
</defs>
</svg>
