<svg width="31" height="31" viewBox="0 0 31 31" fill="none" xmlns="http://www.w3.org/2000/svg">
<g clip-path="url(#clip0_1277_20067)">
<path d="M21.66 18.2394C22.9684 17.484 23.5147 15.9163 23.7239 15.0492C23.8374 14.5782 23.5624 14.1018 23.0978 13.9648C22.2421 13.7122 20.6115 13.4015 19.303 14.157C18.1712 14.8104 17.6099 16.0714 17.3436 16.9613L16.4084 17.5011V13.6966C17.0459 13.021 17.8573 11.9045 17.8573 10.5977C17.8573 9.08683 16.7728 7.82994 16.1263 7.21514C15.7754 6.88147 15.2253 6.88135 14.8742 7.21514C14.8742 7.21514 14.8742 7.21514 14.8741 7.21521C14.2277 7.83 13.1433 9.08695 13.1433 10.5977C13.1433 11.9044 13.9545 13.0209 14.592 13.6966V17.5012L13.6569 16.9613C13.3905 16.0715 12.8293 14.8105 11.6974 14.157C10.3889 13.4015 8.75822 13.7123 7.90263 13.9648C7.43799 14.1019 7.16299 14.5782 7.27651 15.0492V15.0492C7.4857 15.9164 8.03202 17.4841 9.34037 18.2395C9.95729 18.5957 10.6459 18.7148 11.2911 18.7148C11.8295 18.7148 12.3375 18.6318 12.7486 18.5344L14.592 19.5985V21.7988C14.592 22.3003 14.9987 22.707 15.5002 22.707C16.0018 22.707 16.4084 22.3003 16.4084 21.7988V19.5985L18.2518 18.5343C18.6629 18.6317 19.1709 18.7148 19.7093 18.7148C20.3545 18.7148 21.0432 18.5955 21.66 18.2394Z" fill="black"/>
<path d="M3.89468 16.3275C3.67798 13.265 4.66211 10.1334 6.85028 7.70723L7.3843 8.24125C7.87394 8.73095 8.70955 8.51444 8.89979 7.84854L10.4284 2.49868C10.6241 1.81359 9.99072 1.18015 9.30557 1.3759L3.95571 2.90447C3.28988 3.0947 3.07336 3.93025 3.56301 4.41995L4.10902 4.96597C4.1121 4.96905 4.1155 4.97166 4.11864 4.97469C1.29649 8.02243 -0.0741661 11.9275 0.00309167 15.8099C0.0110233 16.2079 0.279246 16.5538 0.662084 16.6632L2.73872 17.2565C3.34134 17.4287 3.93894 16.9527 3.89468 16.3275Z" fill="black"/>
<path d="M26.891 26.0332C26.8879 26.0301 26.8844 26.0275 26.8813 26.0245C29.7034 22.9767 31.0742 19.0716 30.9969 15.1893C30.989 14.7912 30.7208 14.4453 30.3379 14.3359L28.2613 13.7426C27.6587 13.5704 27.0611 14.0464 27.1053 14.6716C27.322 17.7341 26.3379 20.8657 24.1497 23.2919L23.6157 22.7579C23.1261 22.2683 22.2905 22.4848 22.1003 23.1506L20.5717 28.5004C20.376 29.1855 21.0093 29.819 21.6945 29.6232L27.0443 28.0947C27.7102 27.9045 27.9267 27.0689 27.4371 26.5792L26.891 26.0332Z" fill="black"/>
<path d="M16.3267 27.1049C13.2643 27.3215 10.1327 26.3373 7.70674 24.1492L8.2407 23.6152C8.73034 23.1256 8.51383 22.29 7.84799 22.0998L2.49819 20.5712C1.81311 20.3755 1.17966 21.0088 1.37541 21.694L2.90392 27.0438C3.09416 27.7096 3.9297 27.9261 4.41941 27.4365L4.96542 26.8905C4.96851 26.8874 4.97111 26.884 4.97414 26.8809C8.02182 29.703 11.9267 31.0736 15.8089 30.9965C16.207 30.9885 16.5529 30.7203 16.6623 30.3375L17.2556 28.2608C17.4278 27.6582 16.9519 27.0607 16.3267 27.1049Z" fill="black"/>
<path d="M14.6735 3.89461C17.7359 3.67804 20.8674 4.66228 23.2935 6.85027L22.7594 7.38429C22.2698 7.87393 22.4863 8.70948 23.1522 8.89972L28.502 10.4282C29.187 10.624 29.8205 9.99053 29.6247 9.30544L28.0962 3.95558C27.906 3.28975 27.0704 3.07323 26.5807 3.56288L26.0347 4.10889C26.0316 4.11197 26.029 4.11543 26.026 4.11857C22.9783 1.29661 19.0735 -0.0740545 15.1912 0.00308224C14.7932 0.0110139 14.4472 0.279237 14.3379 0.662074L13.7446 2.73865C13.5724 3.34127 14.0483 3.93887 14.6735 3.89461Z" fill="black"/>
</g>
<defs>
<clipPath id="clip0_1277_20067">
<rect width="31" height="31" fill="white"/>
</clipPath>
</defs>
</svg>
