<svg width="33" height="33" viewBox="0 0 33 33" fill="none" xmlns="http://www.w3.org/2000/svg">
<path d="M27.3739 18.0466V5.28871C27.3739 3.35061 25.7967 1.77344 23.8586 1.77344C21.9205 1.77344 20.3433 3.35061 20.3433 5.28871V10.0943C19.6202 9.56775 18.8345 9.12174 17.9953 8.76854C16.5574 8.16268 15.0311 7.85523 13.4591 7.85523C9.50748 7.85523 5.8517 9.83008 3.68156 13.1385C2.43246 15.0424 1.77246 17.2564 1.77246 19.5419C1.77246 20.325 1.85109 21.101 2.00449 21.8596C2.39701 23.7977 3.2768 25.6179 4.57617 27.137C6.36475 29.2266 8.83523 30.6239 11.5345 31.0712C12.1662 31.1757 12.8139 31.2292 13.4585 31.2292C14.6457 31.2292 15.8187 31.0513 16.9454 30.7C18.8184 30.1154 20.5367 29.041 21.9005 27.6211C22.5103 27.8499 23.1696 27.9756 23.858 27.9756C26.9382 27.9756 29.4448 25.4696 29.4448 22.3888C29.4448 20.6969 28.6778 19.1042 27.3732 18.0472L27.3739 18.0466ZM16.043 20.7948C15.7098 21.6205 15.7665 22.5725 16.199 23.4091C17.2889 25.7216 16.6824 27.411 16.2396 28.6446C16.1578 28.8728 16.0817 29.0854 16.0218 29.2872C15.1884 29.5057 14.3286 29.6172 13.4591 29.6172C13.2625 29.6172 13.0659 29.6114 12.8694 29.5998C13.1768 28.7348 13.4114 27.5289 13.3702 25.8899C13.3412 24.7368 12.9937 23.8383 12.3376 23.2202C11.6016 22.5261 10.5155 22.2128 9.01764 22.2631C8.48654 22.2805 8.10047 22.0949 7.91807 21.915C7.8259 21.8248 7.80656 21.7578 7.80656 21.7468C7.81494 21.7094 7.9548 21.5245 8.45238 21.3704C8.59096 21.3272 8.75596 21.2828 8.92998 21.2357C9.62156 21.0481 10.406 20.8354 10.9525 20.3907C12.4046 19.2093 12.9564 17.5116 12.4291 15.8481C11.8168 13.9183 10.5052 14.1426 9.80139 14.2632C9.45141 14.3231 9.14912 14.3747 8.88422 14.2735C8.8275 14.2258 8.72631 14.0137 8.66508 13.8868C8.43434 13.4046 8.00508 12.5081 6.80818 12.5029C6.79207 12.5029 6.77596 12.5029 6.76049 12.5029C6.58453 12.5029 6.41051 12.5081 6.23777 12.5152C8.11723 10.5803 10.7044 9.46656 13.4597 9.46656C14.4472 9.46656 15.4133 9.60771 16.344 9.88615C16.1513 10.1433 15.9483 10.4288 15.7311 10.7453C14.4568 12.6054 14.1816 14.3495 14.977 15.5297C15.3218 16.0414 16.1023 16.7704 17.7485 16.7704C18.1906 16.7704 18.6946 16.7175 19.2696 16.5944C19.6395 16.5467 19.9985 16.4681 20.3433 16.365V18.0466C20.0888 18.2528 19.8548 18.4797 19.6434 18.7233C19.0646 18.7749 18.4781 18.8587 17.9038 19.0765C17.0317 19.3724 16.3711 19.9821 16.043 20.7948ZM23.8586 26.3636C21.6666 26.3636 19.8831 24.5802 19.8831 22.3881C19.8831 21.081 20.527 19.8564 21.606 19.1126C21.8238 18.9624 21.9547 18.7143 21.9547 18.4494V5.28871C21.9547 4.23877 22.8087 3.38477 23.8586 3.38477C24.9086 3.38477 25.7626 4.23877 25.7626 5.28871V18.4487C25.7626 18.7137 25.8928 18.9618 26.1112 19.112C27.1902 19.8558 27.8341 21.0797 27.8341 22.3875C27.8341 24.5795 26.0507 26.3629 23.8586 26.3629V26.3636ZM26.1396 22.4055C26.1396 23.6611 25.1219 24.6794 23.8657 24.6794C22.6095 24.6794 21.5918 23.6617 21.5918 22.4055C21.5918 21.4336 22.2022 20.6047 23.06 20.2792V9.23711C23.06 8.79238 23.421 8.43145 23.8657 8.43145C24.3104 8.43145 24.6714 8.79238 24.6714 9.23711V20.2792C25.5292 20.6047 26.1396 21.4336 26.1396 22.4055ZM28.6829 7.27644C28.6829 6.83172 29.0439 6.47078 29.4886 6.47078H29.9701C30.4148 6.47078 30.7757 6.83172 30.7757 7.27644C30.7757 7.72117 30.4148 8.08211 29.9701 8.08211H29.4886C29.0439 8.08211 28.6829 7.72117 28.6829 7.27644ZM28.6829 4.05379C28.6829 3.60906 29.0439 3.24813 29.4886 3.24813H30.4212C30.866 3.24813 31.2269 3.60906 31.2269 4.05379C31.2269 4.49852 30.866 4.85945 30.4212 4.85945H29.4886C29.0439 4.85945 28.6829 4.49852 28.6829 4.05379ZM31.2269 10.4997C31.2269 10.9445 30.866 11.3054 30.4212 11.3054H29.4886C29.0439 11.3054 28.6829 10.9445 28.6829 10.4997C28.6829 10.055 29.0439 9.69408 29.4886 9.69408H30.4212C30.866 9.69408 31.2269 10.055 31.2269 10.4997ZM28.6829 13.723C28.6829 13.2783 29.0439 12.9174 29.4886 12.9174H29.9701C30.4148 12.9174 30.7757 13.2783 30.7757 13.723C30.7757 14.1678 30.4148 14.5287 29.9701 14.5287H29.4886C29.0439 14.5287 28.6829 14.1678 28.6829 13.723ZM31.2269 16.9457C31.2269 17.3904 30.866 17.7514 30.4212 17.7514H29.4886C29.0439 17.7514 28.6829 17.3904 28.6829 16.9457C28.6829 16.501 29.0439 16.14 29.4886 16.14H30.4212C30.866 16.14 31.2269 16.501 31.2269 16.9457Z" fill="black"/>
</svg>
