<svg width="34" height="35" viewBox="0 0 34 35" fill="none" xmlns="http://www.w3.org/2000/svg">
<g clip-path="url(#clip0_1277_26944)">
<mask id="mask0_1277_26944" style="mask-type:luminance" maskUnits="userSpaceOnUse" x="-1" y="0" width="35" height="35">
<path d="M-0.000488281 0.5H33.9995V34.5H-0.000488281V0.5Z" fill="white"/>
</mask>
<g mask="url(#mask0_1277_26944)">
<path d="M24.0122 14.9925L15.9938 23.0108C15.4413 23.5633 14.5488 23.5633 13.9963 23.0108L9.98718 19.0016C9.43468 18.4491 9.43468 17.5566 9.98718 17.0041C10.5397 16.4516 11.4322 16.4516 11.9847 17.0041L14.988 20.0075L22.0005 12.995C22.553 12.4425 23.4455 12.4425 23.998 12.995C24.5647 13.5475 24.5647 14.44 24.0122 14.9925ZM5.66634 17.5C5.66634 14.1991 7.11134 11.2383 9.37801 9.16996L11.5455 11.3375C11.9847 11.7766 12.7497 11.465 12.7497 10.8275V4.74996C12.7497 4.3533 12.438 4.04163 12.0413 4.04163H5.96384C5.32634 4.04163 5.01467 4.80663 5.46801 5.2458L7.36634 7.1583C4.58967 9.73663 2.83301 13.4058 2.83301 17.5C2.83301 24.2291 7.53634 29.8675 13.8263 31.3125C14.7188 31.5108 15.583 30.845 15.583 29.9241C15.583 29.2583 15.1155 28.6916 14.4638 28.5358C9.43468 27.3883 5.66634 22.8833 5.66634 17.5ZM31.1663 17.5C31.1663 10.7708 26.463 5.13246 20.173 3.68746C19.2805 3.48913 18.4163 4.15496 18.4163 5.0758C18.4163 5.74163 18.8838 6.3083 19.5355 6.46413C24.5647 7.61163 28.333 12.1166 28.333 17.5C28.333 20.8008 26.888 23.7616 24.6213 25.83L22.4538 23.6625C22.0147 23.2233 21.2497 23.535 21.2497 24.1725V30.25C21.2497 30.6466 21.5613 30.9583 21.958 30.9583H28.0355C28.673 30.9583 28.9847 30.1933 28.5313 29.7541L26.633 27.8416C29.4097 25.2633 31.1663 21.5941 31.1663 17.5Z" fill="black"/>
</g>
</g>
<defs>
<clipPath id="clip0_1277_26944">
<rect width="34" height="34" fill="white" transform="translate(-0.000488281 0.5)"/>
</clipPath>
</defs>
</svg>
