<svg width="17" height="17" viewBox="0 0 17 17" fill="none" xmlns="http://www.w3.org/2000/svg">
<circle cx="8.6084" cy="8.46094" r="7.88477" fill="black"/>
<g clip-path="url(#clip0_1441_4788)">
<path d="M3.83747 8.16664C3.86865 8.17759 3.91916 8.19293 3.9678 8.21578C5.14258 8.76724 6.31695 9.32017 7.4909 9.87456C7.59129 9.92213 7.64679 9.90586 7.72099 9.82918C9.52578 7.93045 11.3319 6.0338 13.1394 4.13924C13.1786 4.09515 13.2202 4.05335 13.2641 4.01405C13.3004 3.98066 13.3476 3.96177 13.3969 3.96096C13.4461 3.96016 13.4939 3.97748 13.5313 4.00966C13.5696 4.04036 13.596 4.0836 13.6058 4.13182C13.6156 4.18004 13.6082 4.23019 13.5849 4.2735C13.5688 4.3046 13.5507 4.3347 13.531 4.36364L8.06862 12.7646C8.05148 12.7906 8.03558 12.8175 8.01656 12.8422C7.90213 12.9928 7.76402 13.0012 7.63494 12.8616C7.33854 12.5409 7.04339 12.2193 6.74949 11.8967C5.73267 10.7869 4.71648 9.67676 3.70091 8.56631C3.65184 8.51295 3.61934 8.44639 3.60738 8.37477C3.59553 8.25991 3.69779 8.16758 3.83747 8.16664Z" fill="white"/>
</g>
<defs>
<clipPath id="clip0_1441_4788">
<rect width="10" height="9" fill="white" transform="translate(3.6084 3.96094)"/>
</clipPath>
</defs>
</svg>
