<svg width="20" height="20" viewBox="0 0 20 20" fill="none" xmlns="http://www.w3.org/2000/svg">
<rect width="20" height="20" rx="4" fill="black"/>
<g clip-path="url(#clip0_908_1344)">
<path d="M5.83301 8.55568C5.6259 8.55626 5.4232 8.61547 5.24834 8.72645C5.07348 8.83743 4.93361 8.99564 4.84492 9.1828C4.75623 9.36995 4.72234 9.57839 4.74717 9.784C4.772 9.98961 4.85454 10.184 4.98523 10.3447L7.77131 13.7576C7.87064 13.8809 7.99798 13.9788 8.14273 14.0431C8.28749 14.1073 8.44548 14.1361 8.6036 14.127C8.94177 14.1089 9.24708 13.928 9.44173 13.6305L15.2291 4.30994C15.2301 4.3084 15.2311 4.30685 15.2321 4.30533C15.2864 4.22195 15.2688 4.05672 15.1567 3.95292C15.1259 3.92441 15.0896 3.90252 15.05 3.88857C15.0104 3.87462 14.9684 3.86893 14.9266 3.87183C14.8847 3.87473 14.8439 3.88618 14.8066 3.90545C14.7694 3.92473 14.7364 3.95143 14.7099 3.98391C14.7078 3.98647 14.7057 3.98898 14.7035 3.99146L8.86679 10.586C8.84458 10.6111 8.81761 10.6315 8.78744 10.6461C8.75726 10.6607 8.7245 10.6691 8.69103 10.671C8.65757 10.6728 8.62408 10.6679 8.59251 10.6567C8.56094 10.6454 8.53192 10.628 8.50714 10.6055L6.57006 8.84271C6.36888 8.65829 6.10593 8.55589 5.83301 8.55568Z" fill="white"/>
</g>
<defs>
<clipPath id="clip0_908_1344">
<rect width="12" height="12" fill="white" transform="translate(4 3)"/>
</clipPath>
</defs>
</svg>
