<svg width="35" height="34" viewBox="0 0 35 34" fill="none" xmlns="http://www.w3.org/2000/svg">
<path d="M17.1475 31.5C25.1556 31.5 31.6475 25.0081 31.6475 17C31.6475 8.99187 25.1556 2.5 17.1475 2.5C9.13933 2.5 2.64746 8.99187 2.64746 17C2.64746 25.0081 9.13933 31.5 17.1475 31.5Z" fill="#35C5A2" stroke="white" stroke-width="5"/>
<path d="M14.0811 22.4132L20.2514 28.5835C25.3618 27.2208 29.1473 22.5646 29.1473 17C29.1473 16.8864 29.1473 16.7728 29.1473 16.6593L24.3019 12.1924L14.0811 22.4132Z" fill="#0AA06E"/>
<path d="M17.4505 19.6877C17.9805 20.2177 17.9805 21.1262 17.4505 21.6562L16.3527 22.754C15.8227 23.2839 14.9142 23.2839 14.3842 22.754L9.57668 17.9085C9.04671 17.3786 9.04671 16.4701 9.57668 15.9401L10.6745 14.8423C11.2044 14.3123 12.113 14.3123 12.6429 14.8423L17.4505 19.6877Z" fill="white"/>
<path d="M21.6523 11.3218C22.1823 10.7918 23.0908 10.7918 23.6208 11.3218L24.7186 12.4196C25.2485 12.9496 25.2485 13.8581 24.7186 14.388L16.3905 22.6783C15.8605 23.2082 14.952 23.2082 14.422 22.6783L13.3242 21.5805C12.7943 21.0505 12.7943 20.142 13.3242 19.612L21.6523 11.3218Z" fill="white"/>
</svg>
