<svg width="21" height="20" viewBox="0 0 21 20" fill="none" xmlns="http://www.w3.org/2000/svg">
<g clip-path="url(#clip0_1853_25061)">
<path d="M10.5391 0C5.04648 0 0.5 4.46836 0.5 9.96094C0.5 15.4535 5.04648 20 10.5391 20C16.0316 20 20.5 15.4535 20.5 9.96094C20.5 4.46836 16.0316 0 10.5391 0ZM15.4695 13.234C15.9266 13.691 15.9266 14.4344 15.4695 14.8918C15.016 15.3449 14.2727 15.3523 13.8117 14.8918L10.5391 11.618L7.18789 14.8922C6.73086 15.3492 5.9875 15.3492 5.53008 14.8922C5.07305 14.4352 5.07305 13.6918 5.53008 13.2344L8.80352 9.96094L5.53008 6.6875C5.07305 6.23008 5.07305 5.48672 5.53008 5.02969C5.9875 4.57266 6.73086 4.57266 7.18789 5.02969L10.5391 8.30391L13.8117 5.02969C14.268 4.57344 15.0113 4.57187 15.4695 5.02969C15.9266 5.48672 15.9266 6.23008 15.4695 6.6875L12.1961 9.96094L15.4695 13.234Z" fill="black"/>
</g>
<defs>
<clipPath id="clip0_1853_25061">
<rect width="20" height="20" fill="white" transform="translate(0.5)"/>
</clipPath>
</defs>
</svg>
