<svg width="44" height="44" viewBox="0 0 44 44" fill="none" xmlns="http://www.w3.org/2000/svg">
<g clip-path="url(#clip0_1395_86714)">
<path d="M22.6911 0C23.41 0.223815 24.1763 0.354029 24.8436 0.687599C27.1038 1.82174 28.349 3.70048 28.4265 6.22593C28.5105 8.94291 28.4857 11.6652 28.4362 14.3833C28.3738 17.762 25.5981 20.5167 22.2218 20.6071C20.7334 20.6458 19.2438 20.6071 17.7553 20.6307C17.5236 20.6421 17.3031 20.7343 17.1322 20.8912C15.6706 22.3244 14.237 23.7868 12.77 25.2136C12.5113 25.4743 12.1853 25.6583 11.8283 25.7451C11.0631 25.8925 10.4206 25.2577 10.4098 24.4033C10.3958 23.2724 10.4098 22.1437 10.4098 21.0106V20.5027C10.201 20.4457 9.99758 20.3951 9.79847 20.3348C8.49386 19.9344 7.3505 19.1293 6.53381 18.0362C5.71712 16.9431 5.26944 15.6185 5.25554 14.2542C5.22756 11.6211 5.22325 8.98702 5.25554 6.35397C5.29644 3.15923 7.59642 0.567064 10.7617 0.076394C10.8443 0.0571443 10.9252 0.0316078 11.0039 0H22.6911ZM15.5457 9.79727C14.9904 9.2302 14.4813 8.70833 13.9701 8.18322C13.616 7.82383 13.1973 7.6452 12.6882 7.76679C11.6776 8.01643 11.3644 9.18609 12.1146 9.96406C12.8884 10.7679 13.6881 11.548 14.4824 12.3313C15.2196 13.0641 15.9031 13.0663 16.6349 12.3313C17.8023 11.1793 18.9654 10.02 20.1242 8.85359C20.6203 8.35754 21.1273 7.87224 21.6084 7.3622C22.1304 6.80912 22.1282 6.05914 21.632 5.54802C21.1359 5.03691 20.3599 5.024 19.7852 5.54802C19.5538 5.76323 19.3374 5.99027 19.1157 6.213L15.5457 9.79727Z" fill="black"/>
<path d="M44.0012 43.0427C43.659 43.7863 43.0681 44.0047 42.2706 43.9994C38.2195 43.9735 34.1674 43.9875 30.1163 43.9875C28.9981 43.9875 28.5342 43.5183 28.5342 42.3917C28.5342 40.8458 28.5342 39.3 28.5342 37.7541C28.5342 34.6217 30.7567 32.3965 33.88 32.389C34.4666 32.389 35.0531 32.389 35.6494 32.3631C34.5968 32.1372 33.7315 31.6185 33.1148 30.7394C32.4852 29.842 32.2914 28.8391 32.483 27.7599C32.7962 26.0006 34.5279 24.6028 36.3393 24.662C38.3562 24.7276 39.9082 26.1749 40.1062 28.2419C40.2623 29.8807 39.2839 31.8251 36.8774 32.389H38.4993C41.4117 32.389 43.3318 33.9417 43.9399 36.7856C43.9567 36.8397 43.9779 36.8922 44.0034 36.9427L44.0012 43.0427Z" fill="black"/>
<path d="M7.1022 32.3895C4.80113 31.8622 3.73455 29.9437 3.89922 28.236C4.10156 26.155 5.70628 24.6851 7.71567 24.6603C9.70354 24.641 11.3438 26.1205 11.5687 28.1951C11.7528 29.8834 10.7185 31.8472 8.34636 32.3916H10.133C13.2348 32.4002 15.4626 34.6244 15.4702 37.7245C15.4702 39.3127 15.4702 40.9013 15.4702 42.4902C15.4702 43.4952 14.9729 43.9891 13.9634 43.9891C9.81188 43.9891 5.66 43.9891 1.50775 43.9891C0.501441 43.9891 0.000976562 43.4931 0.000976562 42.4881C0.000976562 40.8848 0.000976562 39.2815 0.000976562 37.6782C0.0117392 34.6352 2.2493 32.4056 5.29729 32.3916C5.90108 32.3873 6.50164 32.3895 7.1022 32.3895Z" fill="black"/>
<path d="M33.6021 20.5026C33.6021 21.7573 33.6021 22.9872 33.6021 24.216C33.6078 24.4301 33.585 24.6439 33.5343 24.8519C33.48 25.045 33.3803 25.2223 33.2435 25.369C33.1067 25.5158 32.9367 25.6276 32.7479 25.6953C32.559 25.7631 32.3567 25.7847 32.1578 25.7583C31.959 25.7319 31.7693 25.6584 31.6046 25.5438C31.5435 25.5063 31.4859 25.4635 31.4324 25.4158C30.1939 24.1848 28.9566 22.9524 27.7203 21.7185C27.6202 21.6196 27.5244 21.5141 27.4082 21.3957C27.7612 21.0665 28.1153 20.7609 28.4403 20.4273C30.1624 18.6648 31.0094 16.5353 31.0234 14.0787C31.0374 11.5737 31.0298 9.06979 31.0234 6.56479C31.0281 5.34457 30.7834 4.13624 30.3044 3.01389C30.2496 2.88692 30.2054 2.75566 30.1462 2.59856C32.1093 2.53937 34.0294 2.43928 35.7428 3.57234C37.6005 4.80117 38.6487 6.52175 38.737 8.73729C38.8102 10.5515 38.7725 12.3721 38.7553 14.1896C38.7273 17.1497 36.8083 19.6106 33.9433 20.4004L33.6021 20.5026Z" fill="black"/>
</g>
<defs>
<clipPath id="clip0_1395_86714">
<rect width="44" height="44" fill="white"/>
</clipPath>
</defs>
</svg>
