<svg width="20" height="21" viewBox="0 0 20 21" fill="none" xmlns="http://www.w3.org/2000/svg">
<g clip-path="url(#clip0_1393_28246)">
<path d="M10.8583 1.73422L1.7 0.342554C1.275 0.275887 0.841667 0.392554 0.516667 0.667554C0.191667 0.950887 0 1.35922 0 1.78422V19.3426C0 19.8009 0.375 20.1759 0.833333 20.1759H3.54167V15.8009C3.54167 14.9926 4.19167 14.3426 5 14.3426H7.08333C7.89167 14.3426 8.54167 14.9926 8.54167 15.8009V20.1759H12.0833V3.17589C12.0833 2.45922 11.5667 1.85089 10.8583 1.73422ZM4.58333 12.4676H3.33333C2.98833 12.4676 2.70833 12.1876 2.70833 11.8426C2.70833 11.4976 2.98833 11.2176 3.33333 11.2176H4.58333C4.92833 11.2176 5.20833 11.4976 5.20833 11.8426C5.20833 12.1876 4.92833 12.4676 4.58333 12.4676ZM4.58333 9.96755H3.33333C2.98833 9.96755 2.70833 9.68755 2.70833 9.34255C2.70833 8.99755 2.98833 8.71755 3.33333 8.71755H4.58333C4.92833 8.71755 5.20833 8.99755 5.20833 9.34255C5.20833 9.68755 4.92833 9.96755 4.58333 9.96755ZM4.58333 7.46755H3.33333C2.98833 7.46755 2.70833 7.18755 2.70833 6.84255C2.70833 6.49755 2.98833 6.21755 3.33333 6.21755H4.58333C4.92833 6.21755 5.20833 6.49755 5.20833 6.84255C5.20833 7.18755 4.92833 7.46755 4.58333 7.46755ZM4.58333 4.96755H3.33333C2.98833 4.96755 2.70833 4.68755 2.70833 4.34255C2.70833 3.99755 2.98833 3.71755 3.33333 3.71755H4.58333C4.92833 3.71755 5.20833 3.99755 5.20833 4.34255C5.20833 4.68755 4.92833 4.96755 4.58333 4.96755ZM8.75 12.4676H7.5C7.155 12.4676 6.875 12.1876 6.875 11.8426C6.875 11.4976 7.155 11.2176 7.5 11.2176H8.75C9.095 11.2176 9.375 11.4976 9.375 11.8426C9.375 12.1876 9.095 12.4676 8.75 12.4676ZM8.75 9.96755H7.5C7.155 9.96755 6.875 9.68755 6.875 9.34255C6.875 8.99755 7.155 8.71755 7.5 8.71755H8.75C9.095 8.71755 9.375 8.99755 9.375 9.34255C9.375 9.68755 9.095 9.96755 8.75 9.96755ZM8.75 7.46755H7.5C7.155 7.46755 6.875 7.18755 6.875 6.84255C6.875 6.49755 7.155 6.21755 7.5 6.21755H8.75C9.095 6.21755 9.375 6.49755 9.375 6.84255C9.375 7.18755 9.095 7.46755 8.75 7.46755ZM8.75 4.96755H7.5C7.155 4.96755 6.875 4.68755 6.875 4.34255C6.875 3.99755 7.155 3.71755 7.5 3.71755H8.75C9.095 3.71755 9.375 3.99755 9.375 4.34255C9.375 4.68755 9.095 4.96755 8.75 4.96755Z" fill="black"/>
<path d="M18.8498 9.21125L12.9165 7.96875V20.1762H18.5415C19.3457 20.1762 19.9998 19.5221 19.9998 18.7179V10.6363C19.9998 9.94792 19.5307 9.36208 18.8498 9.21125ZM16.8748 17.6762H15.6248C15.2798 17.6762 14.9998 17.3962 14.9998 17.0512C14.9998 16.7063 15.2798 16.4262 15.6248 16.4262H16.8748C17.2198 16.4262 17.4998 16.7063 17.4998 17.0512C17.4998 17.3962 17.2198 17.6762 16.8748 17.6762ZM16.8748 15.1762H15.6248C15.2798 15.1762 14.9998 14.8962 14.9998 14.5512C14.9998 14.2063 15.2798 13.9262 15.6248 13.9262H16.8748C17.2198 13.9262 17.4998 14.2063 17.4998 14.5512C17.4998 14.8962 17.2198 15.1762 16.8748 15.1762ZM16.8748 12.6762H15.6248C15.2798 12.6762 14.9998 12.3963 14.9998 12.0512C14.9998 11.7062 15.2798 11.4262 15.6248 11.4262H16.8748C17.2198 11.4262 17.4998 11.7062 17.4998 12.0512C17.4998 12.3963 17.2198 12.6762 16.8748 12.6762Z" fill="black"/>
</g>
<defs>
<clipPath id="clip0_1393_28246">
<rect width="20" height="20" fill="white" transform="translate(0 0.175781)"/>
</clipPath>
</defs>
</svg>
