<svg width="22" height="28" viewBox="0 0 22 28" fill="none" xmlns="http://www.w3.org/2000/svg">
<path d="M11.9375 11.9685C11.9375 11.4508 11.5178 11.031 11 11.031C10.4823 11.031 10.0625 11.4508 10.0625 11.9685H11.9375ZM10.0625 25.8219C10.0625 26.3396 10.4823 26.7594 11 26.7594C11.5178 26.7594 11.9375 26.3396 11.9375 25.8219H10.0625ZM8.03058 5.1074C7.58239 5.36666 7.42924 5.94016 7.6885 6.38834C7.94775 6.83652 8.52125 6.98968 8.96938 6.73041L8.03058 5.1074ZM13.0306 6.73041C13.4788 6.98968 14.0523 6.83652 14.3115 6.38834C14.5708 5.94016 14.4176 5.36666 13.9694 5.1074L13.0306 6.73041ZM5.46366 2.29944C5.03899 2.59565 4.93486 3.18004 5.23108 3.6047C5.52729 4.02936 6.11168 4.1335 6.53634 3.83729L5.46366 2.29944ZM15.4636 3.83729C15.8884 4.1335 16.4728 4.02936 16.7689 3.6047C17.0651 3.18004 16.961 2.59565 16.5364 2.29944L15.4636 3.83729ZM10.0625 11.9685V25.8219H11.9375V11.9685H10.0625ZM2.89195 9.94285C5.0603 10.1811 7.8563 10.8152 9.789 12.1319L10.8446 10.5823C8.53 9.0054 5.36511 8.32827 3.09671 8.07906L2.89195 9.94285ZM2.89195 24.8772C5.0603 25.1154 7.8563 25.7496 9.789 27.0662L10.8446 25.5166C8.53 23.9398 5.36511 23.2626 3.09671 23.0134L2.89195 24.8772ZM0.0625 10.8814V21.8333H1.9375V10.8814H0.0625ZM3.09671 23.0134C2.41361 22.9384 1.9375 22.3964 1.9375 21.8333H0.0625C0.0625 23.4696 1.37924 24.711 2.89195 24.8772L3.09671 23.0134ZM3.09671 8.07906C1.3853 7.89105 0.0625 9.28399 0.0625 10.8814H1.9375C1.9375 10.2794 2.40754 9.88964 2.89195 9.94285L3.09671 8.07906ZM18.9033 8.07906C16.6349 8.32827 13.47 9.0054 11.1554 10.5823L12.211 12.1319C14.1438 10.8152 16.9398 10.1811 19.108 9.94285L18.9033 8.07906ZM18.9033 23.0134C16.6349 23.2626 13.47 23.9398 11.1554 25.5166L12.211 27.0662C14.1438 25.7496 16.9398 25.1154 19.108 24.8772L18.9033 23.0134ZM20.0625 10.8814V21.8333H21.9375V10.8814H20.0625ZM19.108 24.8772C20.6208 24.711 21.9375 23.4696 21.9375 21.8333H20.0625C20.0625 22.3964 19.5864 22.9384 18.9033 23.0134L19.108 24.8772ZM19.108 9.94285C19.5925 9.88964 20.0625 10.2794 20.0625 10.8814H21.9375C21.9375 9.28399 20.6148 7.89105 18.9033 8.07906L19.108 9.94285ZM9.789 27.0662C10.5156 27.5612 11.4844 27.5612 12.211 27.0662L11.1554 25.5166C11.0656 25.5778 10.9344 25.5778 10.8446 25.5166L9.789 27.0662ZM9.789 12.1319C10.5156 12.6269 11.4844 12.6269 12.211 12.1319L11.1554 10.5823C11.0656 10.6434 10.9344 10.6434 10.8446 10.5823L9.789 12.1319ZM8.96938 6.73041C9.566 6.38531 10.2585 6.1875 11 6.1875V4.3125C9.92013 4.3125 8.90488 4.60166 8.03058 5.1074L8.96938 6.73041ZM11 6.1875C11.7415 6.1875 12.434 6.38531 13.0306 6.73041L13.9694 5.1074C13.0951 4.60166 12.0799 4.3125 11 4.3125V6.1875ZM6.53634 3.83729C7.80142 2.95487 9.33888 2.4375 11 2.4375V0.5625C8.943 0.5625 7.03318 1.20466 5.46366 2.29944L6.53634 3.83729ZM11 2.4375C12.6611 2.4375 14.1986 2.95487 15.4636 3.83729L16.5364 2.29944C14.9669 1.20466 13.057 0.5625 11 0.5625V2.4375Z" fill="black"/>
</svg>
