<svg width="33" height="31" viewBox="0 0 33 31" fill="none" xmlns="http://www.w3.org/2000/svg">
<g id="compose (3) 1">
<path id="Vector" d="M26.8161 11.1928L15.5836 21.6678C15.1948 22.0303 14.6855 22.2553 14.1359 22.3053L10.2085 22.6428C10.2085 22.6428 10.1013 22.6428 10.0611 22.6428C9.61877 22.6428 9.18984 22.4803 8.88155 22.1803C8.53305 21.8553 8.35879 21.3928 8.39901 20.9303L8.76091 17.2678C8.81453 16.7553 9.0558 16.2803 9.44452 15.9178L20.6503 5.44277L26.8161 11.1928ZM29.4165 3.90527L28.4648 3.01777C27.0306 1.68027 24.6849 1.68027 23.2507 3.01777L22.0711 4.11777L28.2369 9.86777L29.4165 8.76777C30.1135 8.11777 30.5022 7.25527 30.5022 6.34277C30.5022 5.43027 30.1135 4.55527 29.4165 3.91777V3.90527ZM27.8214 24.2053V16.9428C27.8214 16.4303 27.3657 16.0053 26.8161 16.0053C26.2666 16.0053 25.8108 16.4303 25.8108 16.9428V24.2053C25.8108 25.7553 24.457 27.0178 22.7949 27.0178H6.7101C5.048 27.0178 3.6942 25.7553 3.6942 24.2053V9.19277C3.6942 7.64277 5.048 6.38027 6.7101 6.38027H14.4978C15.0474 6.38027 15.5031 5.95527 15.5031 5.44277C15.5031 4.93027 15.0474 4.50527 14.4978 4.50527H6.7101C3.93547 4.50527 1.68359 6.60527 1.68359 9.19277V24.1928C1.68359 26.7803 3.93547 28.8803 6.7101 28.8803H22.7949C25.5696 28.8803 27.8214 26.7803 27.8214 24.1928V24.2053Z" fill="white"/>
</g>
</svg>
