<svg width="20" height="15" viewBox="0 0 20 15" fill="none" xmlns="http://www.w3.org/2000/svg">
<path d="M8.94222 7.31299C9.24067 7.55731 9.61447 7.6908 10.0002 7.6908C10.3859 7.6908 10.7597 7.55731 11.0581 7.31299L18.3783 1.29986C18.0687 0.924219 17.6802 0.6214 17.2404 0.412939C16.8006 0.204478 16.3202 0.0954979 15.8335 0.09375H4.16683C3.6801 0.0954979 3.19974 0.204478 2.75991 0.412939C2.32008 0.6214 1.93159 0.924219 1.62207 1.29986L8.94222 7.31299Z" fill="black"/>
<path d="M12.116 8.59996C11.5189 9.0881 10.7714 9.35477 10.0002 9.35477C9.22892 9.35477 8.48139 9.0881 7.88428 8.59996L0.891279 2.85547C0.855481 3.04354 0.836147 3.23437 0.833496 3.42579V10.9258C0.834438 11.8096 1.18593 12.6569 1.81085 13.2818C2.43576 13.9067 3.28306 14.2582 4.16683 14.2591H15.8335C16.7173 14.2582 17.5646 13.9067 18.1895 13.2818C18.8144 12.6569 19.1659 11.8096 19.1668 10.9258V3.42579C19.1642 3.23437 19.1448 3.04354 19.109 2.85547L12.116 8.59996Z" fill="black"/>
</svg>
