<svg width="28" height="28" viewBox="0 0 28 28" fill="none" xmlns="http://www.w3.org/2000/svg">
<path d="M23.9043 19.625V27.9461H4.25862V19.625L13.2629 21.2621V23.0347H14.9V21.2621L23.9043 19.625Z" fill="black"/>
<path d="M9.98861 11.0687L10.4411 10.8425C10.515 10.8055 12.2719 9.9375 14.0815 9.9375C15.891 9.9375 17.6479 10.8055 17.7218 10.8425L18.1743 11.0687V13.2118H23.9043V17.961L14.0815 19.7469L4.25862 17.961V13.2118H9.98861V11.0687ZM11.6257 13.2117H16.5372V12.1111C15.9885 11.894 15.0212 11.5746 14.0815 11.5746C13.1415 11.5746 12.174 11.8942 11.6257 12.1111V13.2117Z" fill="black"/>
<path d="M26.312 11.7321L23.5808 10.877L20.8495 11.7321L20.8187 8.87029L19.1615 6.53693L21.8737 5.6233L23.5808 3.32617L25.2878 5.6233L28 6.53693L26.3428 8.87029L26.312 11.7321Z" fill="black"/>
<path d="M14.0827 0.0527344L15.7897 2.34986L18.502 3.26349L16.8447 5.59685L16.8139 8.45863L14.0827 7.60355L11.3514 8.45863L11.3206 5.5968L9.66342 3.26349L12.3757 2.34986L14.0827 0.0527344Z" fill="black"/>
<path d="M4.41865 3.32617L6.12564 5.6233L8.83789 6.53693L7.18067 8.87024L7.14989 11.7321L4.41865 10.877L1.68741 11.7321L1.65663 8.87029L-0.000644684 6.53693L2.71161 5.6233L4.41865 3.32617Z" fill="black"/>
</svg>
