<svg width="45" height="46" viewBox="0 0 45 46" fill="none" xmlns="http://www.w3.org/2000/svg">
<path d="M22.5 0.5C10.0643 0.5 0 10.5631 0 23C0 35.4356 10.0631 45.5 22.5 45.5C34.9357 45.5 45 35.4369 45 23C45 10.5643 34.9369 0.5 22.5 0.5ZM21.8342 33.531C20.5607 33.531 19.5833 32.4648 19.5833 31.2504C19.5833 30.0065 20.5903 28.97 21.8342 28.97C23.0782 28.97 24.1146 30.0066 24.1146 31.2505C24.1146 32.4647 23.1077 33.531 21.8342 33.531ZM25.2105 22.01C23.5816 23.2835 23.5519 24.172 23.5519 25.712C23.5519 26.2749 23.2557 26.9264 21.8045 26.9264C20.5901 26.9264 20.1756 26.4821 20.1756 24.9421C20.1756 22.395 21.3011 21.1808 22.16 20.4404C23.1373 19.611 24.7959 18.693 24.7959 17.0938C24.7959 15.7313 23.6112 15.0797 22.1303 15.0797C19.1094 15.0797 19.7611 17.3603 18.1616 17.3603C17.362 17.3603 16.3847 16.8271 16.3847 15.6721C16.3847 14.0729 18.2209 11.7034 22.2192 11.7034C26.0101 11.7034 28.5275 13.8063 28.5275 16.5902C28.5275 19.3742 26.0101 21.3881 25.2105 22.01Z" fill="black"/>
</svg>
