<svg width="48" height="47" viewBox="0 0 48 47" fill="none" xmlns="http://www.w3.org/2000/svg">
<g clip-path="url(#clip0_1395_86652)">
<path d="M14.4341 27.1408C14.4454 25.7093 13.8295 24.712 12.6327 24.0006C11.6246 23.4123 10.5039 23.0332 9.34019 22.8868C6.90026 22.5482 4.51165 22.6659 2.25824 23.7552C0.823577 24.4495 -0.017698 25.4726 0.00483601 27.1764C0.0586673 32.2867 0.0348848 37.3971 0.0161064 42.5098C0.0161064 43.6028 0.404193 44.5106 1.268 45.1509C1.9144 45.6518 2.63612 46.0515 3.40748 46.3358C4.36643 46.6634 5.39923 46.7897 6.39949 47.0032H8.08579C8.17182 46.9717 8.26068 46.9483 8.35119 46.9332C9.67818 46.8472 10.9715 46.4864 12.1457 45.8746C13.6066 45.0932 14.4592 43.9855 14.4429 42.2437C14.3878 37.2061 14.3849 32.1718 14.4341 27.1408ZM2.70016 25.3131C3.79932 24.6789 5.0124 24.4274 6.26429 24.322C6.57351 24.295 6.89024 24.322 7.19945 24.322C8.79061 24.3085 10.3367 24.528 11.7438 25.3217C12.6327 25.8234 12.9582 26.4392 12.7791 27.3163C12.6539 27.9137 12.2245 28.2976 11.7351 28.6104C10.3379 29.5034 8.76682 29.7598 7.13811 29.75C5.55697 29.7402 4.03217 29.4752 2.68388 28.6018C2.14056 28.2498 1.6999 27.8118 1.61352 27.1224C1.50335 26.2331 2.00035 25.7155 2.70016 25.3131ZM11.7313 32.5026C8.91955 34.0973 5.98512 34.0765 3.09325 32.748C1.74747 32.1346 1.54592 31.5434 1.63355 29.8579C5.36043 31.8611 9.05225 31.8599 12.7466 29.8911C12.9582 31.2747 12.8492 31.866 11.7313 32.5026ZM10.4419 44.892C8.08454 45.7249 5.69343 45.6379 3.36992 44.6565C3.0475 44.5046 2.741 44.3222 2.45479 44.1119C1.54717 43.4985 1.52714 42.5896 1.64356 41.6217C5.33664 43.613 9.04683 43.613 12.7741 41.6217C12.9757 43.2839 12.7328 44.0873 10.4456 44.8933L10.4419 44.892ZM11.0678 40.7373C9.25882 41.5383 7.3597 41.6941 5.43429 41.3396C4.57843 41.1854 3.75067 40.9076 2.97808 40.5153C1.68613 39.8455 1.42698 39.1659 1.65858 37.6633C3.36491 38.717 5.21771 39.1782 7.21322 39.177C9.20874 39.1757 11.0315 38.717 12.7215 37.6841C13.0971 39.0899 12.5475 40.0847 11.0766 40.7385L11.0678 40.7373ZM11.7288 36.4304C8.89827 37.9994 5.98512 37.9675 3.06947 36.6758C1.8351 36.125 1.35062 35.1375 1.66985 33.7906C6.17666 35.8048 8.23727 35.8048 12.7291 33.7906C13.0683 34.9045 12.7616 35.865 11.7376 36.4317L11.7288 36.4304Z" fill="black"/>
<path d="M47.8137 31.5952C47.1514 27.7385 45.1747 24.6804 41.8384 22.5583C37.94 20.0792 33.7362 19.6621 29.4046 21.3132C25.7741 22.6957 23.2128 25.23 21.7856 28.7775C20.2834 32.5238 20.4711 36.2516 22.3665 39.8237C24.1417 43.1713 26.9296 45.3977 30.639 46.4478C31.5604 46.7103 32.5281 46.8158 33.4745 46.9961H35.3524C36.2975 46.817 37.264 46.709 38.1829 46.4465C41.901 45.3842 44.6552 43.1345 46.4742 39.7906C47.2928 38.2754 47.7894 36.6133 47.9339 34.9048C47.9505 34.8008 47.9739 34.6979 48.004 34.5969V32.7569C47.9389 32.3754 47.8813 31.9877 47.8137 31.5952ZM34.3909 45.4345C27.7734 45.4161 22.3803 40.1009 22.4191 33.6376C22.4591 27.1509 27.826 21.9155 34.426 21.9266C41.0259 21.9376 46.4579 27.2675 46.4053 33.7149C46.3502 40.1954 40.9608 45.4529 34.3909 45.4345Z" fill="black"/>
<path d="M47.9998 15.6826H45.6362V14.1211H47.9998V15.6826Z" fill="black"/>
<path d="M27.836 17.2221C26.0245 17.2332 24.213 17.2221 22.4015 17.2221C20.6363 17.2221 18.8724 17.2221 17.1072 17.2221C16.7154 17.2221 16.3561 17.1804 16.1358 16.8087C15.9154 16.437 16.0744 16.1046 16.2747 15.7796C16.9833 14.6265 17.6969 13.4771 18.3892 12.3154C18.6396 11.902 18.9513 11.7131 19.4495 11.718C21.4325 11.7344 23.4159 11.7344 25.3998 11.718C25.6027 11.7022 25.8059 11.7453 25.984 11.842C26.1621 11.9386 26.3073 12.0845 26.4013 12.2614C27.1286 13.4734 27.8785 14.6731 28.6096 15.8838C29.0415 16.6161 28.6973 17.2172 27.836 17.2221Z" fill="black"/>
<path d="M42.1262 17.226C40.3461 17.226 38.5659 17.226 36.7857 17.226C35.0055 17.226 33.2578 17.226 31.4927 17.226C31.1008 17.226 30.7416 17.1806 30.5237 16.8064C30.3059 16.4323 30.4699 16.1035 30.6714 15.7772C31.3813 14.6266 32.0974 13.4785 32.7896 12.3168C32.8863 12.1255 33.0389 11.9668 33.228 11.8609C33.417 11.7549 33.634 11.7065 33.8512 11.7219C35.8176 11.7382 37.7847 11.7382 39.7527 11.7219C39.9696 11.7056 40.1866 11.753 40.376 11.8578C40.5655 11.9626 40.7189 12.1202 40.8168 12.3107C41.5141 13.487 42.2427 14.6414 42.955 15.8141C43.4558 16.6396 43.114 17.2235 42.1262 17.226Z" fill="black"/>
<path d="M15.8892 3.39113L16.8907 2.38281C17.449 2.92827 17.9944 3.46269 18.5269 3.98607L17.5179 4.9809C16.9896 4.46815 16.4425 3.9321 15.8892 3.39113Z" fill="black"/>
<path d="M28.8286 0H30.3634V2.30124H28.8286V0Z" fill="black"/>
<path d="M13.5857 14.125V15.6228H11.2446V14.125H13.5857Z" fill="black"/>
<path d="M42.3517 2.79297L43.3131 3.76327L41.6619 5.37635L40.7305 4.29933L42.3517 2.79297Z" fill="black"/>
<path d="M35.0052 10.1643C33.1937 10.1729 31.3835 10.1643 29.572 10.1643C27.8085 10.1643 26.0446 10.1643 24.2802 10.1643C23.3062 10.1643 22.9632 9.57303 23.4615 8.74993C24.1713 7.58091 24.8987 6.41926 25.5985 5.24779C25.8488 4.82827 26.1818 4.65898 26.6701 4.66266C28.6364 4.67493 30.6035 4.67493 32.5715 4.66266C32.7815 4.64847 32.9912 4.69478 33.1748 4.79592C33.3583 4.89705 33.5076 5.04859 33.6043 5.23184C34.3216 6.43153 35.0665 7.61649 35.7914 8.8125C36.242 9.55831 35.8928 10.1606 35.0052 10.1643Z" fill="black"/>
<path d="M30.3999 36.5862C30.3999 37.3222 30.1294 37.5798 29.3896 37.6006C29.2193 37.6006 29.0491 37.6006 28.7999 37.6006V39.9141H27.215V37.592C26.9121 37.592 26.6655 37.6117 26.4226 37.592C25.9018 37.5405 25.6164 37.2694 25.6139 36.7567C25.6014 34.4473 25.6014 32.1374 25.6139 29.8272C25.6139 29.2801 25.9381 29.0078 26.5115 28.9869C26.7256 28.9796 26.9396 28.9869 27.1888 28.9869V26.6562H28.7887V28.9869C29.0391 28.9869 29.2356 28.9869 29.4321 28.9869C30.1194 29.0004 30.3974 29.2629 30.3999 29.9376C30.3999 31.5433 30.3999 33.1502 30.3999 34.756C30.4011 35.3632 30.4049 35.9753 30.3999 36.5862Z" fill="black"/>
<path d="M36.807 35.1242C36.807 36.3181 36.807 37.5113 36.807 38.7036C36.807 39.7512 36.6342 39.9192 35.5551 39.9376C35.4625 39.9376 35.3698 39.9487 35.2183 39.9585V43.0424H33.6172V39.9364H33.1026C32.2514 39.929 32.0022 39.6813 32.001 38.8324C32.001 37.2721 32.001 35.7113 32.001 34.1502C32.001 33.1075 32.1975 32.91 33.2441 32.8892C33.3368 32.8892 33.4306 32.8781 33.5884 32.8683V30.5781H35.1983V32.8659C35.4024 32.8769 35.5401 32.8867 35.6778 32.8892C36.5679 32.9051 36.8045 33.1419 36.8045 34.0275C36.8095 34.3894 36.807 34.7562 36.807 35.1242Z" fill="black"/>
<path d="M43.2001 32.846C43.1926 33.3722 42.8683 33.6445 42.3238 33.674C42.1072 33.6862 41.8906 33.674 41.6177 33.674V36.7787H40.0153V33.6727C39.7361 33.6727 39.492 33.6862 39.2504 33.6727C38.7308 33.6396 38.4266 33.3698 38.4204 32.8644C38.4028 31.3196 38.4028 29.7752 38.4204 28.2312C38.4266 27.6976 38.7271 27.44 39.2829 27.4142C39.4983 27.4044 39.7148 27.4142 39.9978 27.4142V25.8711H41.6014V27.4155C41.8944 27.4155 42.1247 27.4057 42.3526 27.4155C42.8708 27.4437 43.1876 27.705 43.1951 28.2116C43.2193 29.758 43.221 31.3028 43.2001 32.846Z" fill="black"/>
</g>
<defs>
<clipPath id="clip0_1395_86652">
<rect width="48" height="47" fill="white"/>
</clipPath>
</defs>
</svg>
