<svg width="51" height="45" viewBox="0 0 51 45" fill="none" xmlns="http://www.w3.org/2000/svg">
<path fill-rule="evenodd" clip-rule="evenodd" d="M35.1244 39.6699V42.5528C35.1244 43.5016 34.3501 44.2716 33.3962 44.2716C32.4422 44.2716 31.668 43.5016 31.668 42.5528V39.6883H34.5483C34.7418 39.6883 34.9331 39.6814 35.1244 39.6699Z" fill="black"/>
<path fill-rule="evenodd" clip-rule="evenodd" d="M31.6684 39.6879H16.1146C11.3425 39.6879 7.47363 35.8402 7.47363 31.0942V24.0312L20.6402 31.266C23.4928 32.8335 27.1704 32.8335 30.0231 31.266L31.6684 30.3631V39.6879ZM35.1247 28.4633L43.1896 24.0312V31.0942C43.1896 35.6477 39.6296 39.374 35.1247 39.6696V28.4633Z" fill="black"/>
<path fill-rule="evenodd" clip-rule="evenodd" d="M31.668 27.7434L28.9075 29.2605C26.7323 30.4567 23.9303 30.4567 21.7551 29.2605L2.59751 18.7326C1.2933 18.0153 0.560547 16.7594 0.560547 15.4463C0.560547 14.1309 1.2933 12.8751 2.59751 12.1601L21.7551 1.62984C23.9303 0.435885 26.7323 0.435885 28.9075 1.62984L48.0651 12.1601C49.3693 12.8751 50.1021 14.1309 50.1021 15.4463C50.1021 16.7594 49.3693 18.0153 48.0651 18.7326L35.1244 25.8436V24.2188C35.1244 23.7628 34.9424 23.3251 34.6175 23.0042L26.5526 14.9834C25.8797 14.3119 24.7829 14.3119 24.1101 14.9834C23.4349 15.6526 23.4349 16.7434 24.1101 17.4126L31.668 24.9315V27.7434Z" fill="black"/>
</svg>
