<svg width="33" height="33" viewBox="0 0 33 33" fill="none" xmlns="http://www.w3.org/2000/svg">
<g clip-path="url(#clip0_1395_86536)">
<path d="M16.7578 33H16.2422C15.6845 32.7422 15.4799 32.3022 15.528 31.7023C15.5564 31.3431 15.5332 30.9788 15.5332 30.5963C12.0141 30.3067 9.00196 28.9635 6.51836 26.4825C4.03477 24.0015 2.68555 20.9722 2.40109 17.4668C2.00492 17.4668 1.64914 17.4436 1.29766 17.472C0.696097 17.5209 0.257812 17.3147 0 16.7578V16.2422C0.257812 15.6853 0.697816 15.4799 1.29766 15.528C1.65774 15.5573 2.02125 15.5332 2.40367 15.5332C2.68813 12.0098 4.03649 8.99766 6.5175 6.5175C8.99852 4.03734 12.0287 2.6907 15.5332 2.40109C15.5332 2.00492 15.5564 1.64914 15.528 1.29852C15.4791 0.696953 15.6845 0.256953 16.2422 0H16.7578C17.3147 0.257812 17.5201 0.698672 17.472 1.29852C17.4427 1.65773 17.4668 2.02211 17.4668 2.40453C20.9902 2.68469 24.0023 4.03734 26.4825 6.5175C28.9627 8.99766 30.3127 12.0287 30.5989 15.5332C30.9951 15.5332 31.3509 15.5564 31.7023 15.528C32.3039 15.4799 32.7439 15.6836 33 16.2422V16.7578C32.7422 17.3164 32.3013 17.5192 31.7023 17.472C31.3423 17.4436 30.9788 17.4668 30.5963 17.4668C30.3076 20.9902 28.9635 24.0023 26.4825 26.4825C24.0015 28.9627 20.973 30.3162 17.4668 30.5989C17.4668 30.9951 17.4436 31.3509 17.472 31.7023C17.5201 32.3022 17.3138 32.7422 16.7578 33ZM4.38281 17.4668C4.7068 23.4953 9.96875 28.3697 15.5023 28.6069C15.5137 28.5891 15.5215 28.5692 15.5255 28.5484C15.5255 28.1626 15.5255 27.775 15.5323 27.3891C15.5366 26.7652 15.9302 26.3209 16.4871 26.3123C17.044 26.3037 17.4625 26.7566 17.4651 27.3986C17.4651 27.8042 17.4651 28.2098 17.4651 28.6163C23.4291 28.3009 28.3637 23.0888 28.6052 17.4668C28.1875 17.4668 27.7707 17.4668 27.3539 17.4668C26.7566 17.4616 26.3184 17.0577 26.3098 16.512C26.3012 15.9663 26.7506 15.5401 27.3642 15.5349C27.781 15.5349 28.197 15.5349 28.6146 15.5349C28.2923 9.55281 23.0708 4.63031 17.4651 4.39484C17.4651 4.8125 17.4651 5.2293 17.4651 5.64523C17.4591 6.2468 17.056 6.68164 16.5095 6.68937C15.9629 6.69711 15.5375 6.24852 15.5323 5.63492C15.5323 5.21898 15.5323 4.80219 15.5323 4.38539C9.60266 4.70336 4.63805 9.87164 4.39055 15.5349C4.79789 15.5349 5.20352 15.5349 5.61 15.5349C6.23477 15.5349 6.67734 15.932 6.6868 16.4888C6.69625 17.0457 6.2425 17.4642 5.60055 17.4677C5.19578 17.472 4.79016 17.4668 4.38367 17.4668H4.38281Z" fill="black"/>
<path d="M16.5026 8.82422C18.5017 8.82422 20.419 9.61801 21.8331 11.0311C23.2471 12.4442 24.0422 14.361 24.0436 16.3601C24.0438 17.3527 23.8483 18.3356 23.4682 19.2526C23.0881 20.1695 22.5308 21.0025 21.8284 21.7038C21.1259 22.4052 20.2921 22.9611 19.3745 23.3397C18.457 23.7184 17.4737 23.9124 16.4811 23.9105C14.4817 23.9042 12.5664 23.1049 11.1556 21.6881C9.7447 20.2713 8.95351 18.3527 8.95557 16.3532C8.95921 14.3544 9.75609 12.4387 11.1712 11.0271C12.5862 9.61537 14.5038 8.82308 16.5026 8.82422ZM17.9412 10.9615C18.0271 11.148 18.1036 11.2898 18.1603 11.4393C18.4646 12.2445 18.3932 13.0334 17.753 13.6084C16.971 14.3122 16.1915 15.0564 15.1181 15.3417C14.7134 15.45 14.5063 15.7594 14.4934 16.1805C14.4856 16.4159 14.4891 16.6531 14.4934 16.8886C14.5157 18.1012 14.0156 19.0198 12.9603 19.63C12.7334 19.7615 12.5117 19.9007 12.2814 20.0399C13.8617 21.9168 16.5421 22.4127 18.4491 21.5997C18.0985 20.9852 17.7306 20.382 17.4024 19.758C16.9194 18.8385 16.9727 17.925 17.5957 17.094C18.2188 16.263 19.0781 15.9768 20.1025 16.1538C20.7556 16.2673 21.4131 16.3566 22.0696 16.4572C22.2613 14.4712 20.7823 11.6791 17.9412 10.9615ZM11.2561 18.3942C11.5706 18.206 11.8379 18.0505 12.1017 17.8872C12.2463 17.8026 12.3653 17.6805 12.4459 17.5337C12.5266 17.3869 12.5659 17.221 12.5598 17.0536C12.5598 16.7313 12.5452 16.4082 12.5598 16.0868C12.6225 14.9034 13.1837 14.0088 14.2906 13.6041C15.046 13.3282 15.614 12.8306 16.2414 12.3915C16.3935 12.2858 16.3814 12.1827 16.3075 12.0383C16.1356 11.7048 15.9638 11.3705 15.8168 11.0259C15.7352 10.8343 15.6243 10.8085 15.4413 10.8472C13.9331 11.166 12.7171 11.9386 11.8577 13.2191C10.7886 14.8158 10.621 16.5345 11.2561 18.3942ZM20.1309 20.6355C20.8505 20.0279 21.4036 19.2472 21.7379 18.3667C21.0014 18.2541 20.2959 18.1235 19.5843 18.0453C19.1675 17.9989 18.8968 18.4423 19.0979 18.8256C19.4193 19.4306 19.776 20.0176 20.1309 20.6355Z" fill="black"/>
</g>
<defs>
<clipPath id="clip0_1395_86536">
<rect width="33" height="33" fill="white"/>
</clipPath>
</defs>
</svg>
