<svg width="175" height="65" viewBox="0 0 175 65" fill="none" xmlns="http://www.w3.org/2000/svg">
<path d="M168.76 0.539062L143.19 15.6191L138.58 41.1291L108.97 20.5091L74.3602 62.5191L49.7502 17.0791L25.1402 36.0191L10.2402 52.4391" stroke="#8D8C92" stroke-miterlimit="10"/>
<path d="M27.8005 36.5194C27.8005 34.7871 26.3918 33.3594 24.6405 33.3594C22.8891 33.3594 21.4805 34.7681 21.4805 36.5194C21.4805 38.2707 22.8891 39.6794 24.6405 39.6794C26.3918 39.6794 27.8005 38.2707 27.8005 36.5194Z" fill="black"/>
<path d="M53.4098 16.7791C53.4098 15.0469 52.0012 13.6191 50.2498 13.6191C48.4985 13.6191 47.0898 15.0278 47.0898 16.7791C47.0898 18.5305 48.4985 19.9391 50.2498 19.9391C52.0012 19.9391 53.4098 18.5305 53.4098 16.7791Z" fill="black"/>
<path d="M78.0202 61.7791C78.0202 60.0469 76.6115 58.6191 74.8602 58.6191C73.1089 58.6191 71.7002 60.0278 71.7002 61.7791C71.7002 63.5305 73.1089 64.9391 74.8602 64.9391C76.6115 64.9391 78.0202 63.5305 78.0202 61.7791Z" fill="black"/>
<path d="M112.73 20.1698C112.73 18.4375 111.321 17.0098 109.57 17.0098C107.819 17.0098 106.41 18.4184 106.41 20.1698C106.41 21.9211 107.819 23.3298 109.57 23.3298C111.321 23.3298 112.73 21.9211 112.73 20.1698Z" fill="black"/>
<path d="M141.24 40.3709C141.24 38.6386 139.831 37.2109 138.08 37.2109C136.329 37.2109 134.92 38.6196 134.92 40.3709C134.92 42.1223 136.329 43.5309 138.08 43.5309C139.831 43.5309 141.24 42.1223 141.24 40.3709Z" fill="black"/>
<path d="M146.95 15.3397C146.95 13.6074 145.541 12.1797 143.79 12.1797C142.039 12.1797 140.63 13.5884 140.63 15.3397C140.63 17.091 142.039 18.4997 143.79 18.4997C145.541 18.4997 146.95 17.091 146.95 15.3397Z" fill="black"/>
</svg>
