<svg width="175" height="52" viewBox="0 0 175 52" fill="none" xmlns="http://www.w3.org/2000/svg">
<path d="M173.76 48.5395L148.19 33.6195L123.58 49.1295L98.9702 28.5095L74.3602 50.5195L49.7502 5.07945L25.1402 14.0195L0.240234 0.439453" stroke="#8D8C92" stroke-miterlimit="10"/>
<path d="M28.8005 13.5194C28.8005 11.7871 27.3918 10.3594 25.6405 10.3594C23.8891 10.3594 22.4805 11.7681 22.4805 13.5194C22.4805 15.2707 23.8891 16.6794 25.6405 16.6794C27.3918 16.6794 28.8005 15.2707 28.8005 13.5194Z" fill="black"/>
<path d="M53.4098 5.77914C53.4098 4.04685 52.0012 2.61914 50.2498 2.61914C48.4985 2.61914 47.0898 4.02782 47.0898 5.77914C47.0898 7.53047 48.4985 8.93914 50.2498 8.93914C52.0012 8.93914 53.4098 7.53047 53.4098 5.77914Z" fill="black"/>
<path d="M78.0202 48.7791C78.0202 47.0469 76.6115 45.6191 74.8602 45.6191C73.1089 45.6191 71.7002 47.0278 71.7002 48.7791C71.7002 50.5305 73.1089 51.9391 74.8602 51.9391C76.6115 51.9391 78.0202 50.5305 78.0202 48.7791Z" fill="black"/>
<path d="M102.73 29.1698C102.73 27.4375 101.321 26.0098 99.5701 26.0098C97.8188 26.0098 96.4102 27.4184 96.4102 29.1698C96.4102 30.9211 97.8188 32.3298 99.5701 32.3298C101.321 32.3298 102.73 30.9211 102.73 29.1698Z" fill="black"/>
<path d="M127.24 48.3709C127.24 46.6386 125.831 45.2109 124.08 45.2109C122.329 45.2109 120.92 46.6196 120.92 48.3709C120.92 50.1223 122.329 51.5309 124.08 51.5309C125.831 51.5309 127.24 50.1223 127.24 48.3709Z" fill="black"/>
<path d="M151.95 34.3397C151.95 32.6074 150.541 31.1797 148.79 31.1797C147.039 31.1797 145.63 32.5884 145.63 34.3397C145.63 36.091 147.039 37.4997 148.79 37.4997C150.541 37.4997 151.95 36.091 151.95 34.3397Z" fill="black"/>
</svg>
