<svg width="18" height="31" viewBox="0 0 18 31" fill="none" xmlns="http://www.w3.org/2000/svg">
<path d="M9.00025 0.000106815C6.6718 -0.0101244 4.43435 0.903646 2.77876 2.54096C1.12317 4.17828 0.184613 6.40543 0.168995 8.73385C0.162205 10.7295 0.852014 12.665 2.11946 14.2065L8.72322 23.4001C8.75273 23.4411 8.76908 23.4902 8.77009 23.5407V25.8442C8.84931 25.8395 8.92337 25.8343 9.00447 25.8343C9.08556 25.8343 9.15775 25.8395 9.23884 25.8442V23.4582C9.23908 23.4079 9.25461 23.3589 9.28337 23.3176L15.7521 14.3607C17.0927 12.7927 17.8314 10.7987 17.8362 8.73573C17.8211 6.40617 16.8821 4.17782 15.2254 2.53996C13.5688 0.902108 11.3298 -0.011368 9.00025 0.000106815ZM9.00025 13.621C8.03443 13.6124 7.09277 13.3181 6.29396 12.7752C5.49515 12.2322 4.87494 11.465 4.5115 10.5701C4.14807 9.67524 4.05766 8.69281 4.25169 7.74664C4.44572 6.80048 4.9155 5.93292 5.60181 5.25332C6.28812 4.57373 7.16025 4.1125 8.10828 3.92778C9.05631 3.74307 10.0378 3.84312 10.9291 4.21534C11.8203 4.58756 12.5814 5.21528 13.1165 6.01939C13.6516 6.82349 13.9366 7.768 13.9357 8.73385C13.928 10.036 13.404 11.2819 12.4787 12.1982C11.5534 13.1144 10.3024 13.6262 9.00025 13.621Z" fill="black"/>
<path d="M10.8609 28.1576C10.865 28.5085 10.7699 28.8533 10.5864 29.1524C10.403 29.4515 10.1387 29.6927 9.82407 29.848C9.50946 30.0034 9.15734 30.0666 8.80833 30.0305C8.45932 29.9943 8.12764 29.8602 7.85157 29.6437C7.57549 29.4271 7.36626 29.1369 7.24801 28.8066C7.12977 28.4762 7.10733 28.1192 7.18328 27.7766C7.25924 27.4341 7.43049 27.12 7.67728 26.8705C7.92408 26.6211 8.23636 26.4466 8.57809 26.367C8.71618 26.3331 8.8578 26.3158 8.99997 26.3154C9.14385 26.3177 9.28699 26.3366 9.42653 26.3717C9.832 26.464 10.1944 26.6906 10.4547 27.0148C10.7151 27.3391 10.8583 27.7418 10.8609 28.1576Z" fill="black"/>
</svg>
