<svg width="163" height="47" viewBox="0 0 163 47" fill="none" xmlns="http://www.w3.org/2000/svg">
<path d="M28.8714 11.8638L32.3088 6.1171C32.7919 5.31027 32.9231 4.35173 32.6732 3.4519C32.4235 2.55206 31.8132 1.78448 30.9763 1.31763C30.5621 1.08713 30.1047 0.937579 29.6303 0.877536C29.1561 0.817493 28.674 0.848136 28.212 0.967712C27.75 1.08729 27.317 1.29344 26.9378 1.5744C26.5585 1.85534 26.2406 2.20557 26.002 2.60503L22.5646 8.34978C15.2381 6.1221 7.03704 9.00498 3.03676 15.689C1.82875 17.7034 1.08688 19.9456 0.861937 22.2619C0.63699 24.5781 0.93428 26.9138 1.73346 29.1091L8.08175 18.4999C8.79524 17.2994 9.74885 16.2472 10.8874 15.4041C12.0259 14.561 13.3268 13.9439 14.7146 13.5883C16.0999 13.2265 17.546 13.1332 18.9689 13.314C20.3919 13.4948 21.7635 13.9462 23.0039 14.6417C28.2202 17.5476 30.0136 24.0065 27.0021 29.0381C23.9904 34.0717 17.2964 35.8022 12.081 32.8963L15.722 26.8114C16.1361 27.0422 16.5933 27.1919 17.0677 27.2522C17.5419 27.3124 18.0239 27.2819 18.486 27.1626C18.9479 27.0432 19.3811 26.8371 19.7603 26.5563C20.1396 26.2756 20.4577 25.9254 20.6963 25.526C21.1788 24.7191 21.3094 23.7608 21.0594 22.8613C20.8095 21.9617 20.1994 21.1944 19.3629 20.7276C18.9488 20.4969 18.4915 20.3473 18.0172 20.2871C17.5429 20.227 17.061 20.2574 16.599 20.3768C16.137 20.4962 15.7039 20.7021 15.3246 20.9829C14.9454 21.2637 14.6272 21.6136 14.3885 22.013L2.77402 41.4219C2.29117 42.2286 2.16026 43.1869 2.41006 44.0866C2.65984 44.9862 3.26991 45.7535 4.10641 46.2203C4.52055 46.4512 4.97789 46.601 5.45226 46.6612C5.92661 46.7215 6.40864 46.691 6.87075 46.5715C7.33285 46.4519 7.76592 46.2458 8.14517 45.9649C8.5244 45.6839 8.84235 45.3335 9.08078 44.9339L12.5192 39.1893C19.8447 41.4169 28.0468 38.5341 32.0471 31.849C36.0474 25.165 34.5342 16.8703 28.8703 11.8629L28.8714 11.8638ZM49.8354 23.6325C51.4627 23.6325 52.4991 22.9272 52.4991 21.2207C52.4991 19.4921 51.415 18.834 49.8354 18.834H47.5943V23.6315L49.8354 23.6325ZM44.294 16.0341H49.9288C53.2063 16.0341 55.895 17.6036 55.895 21.2207C55.895 24.8378 53.1834 26.4323 49.9288 26.4323H47.5954V31.5048H44.2929L44.294 16.0341ZM60.7437 16.0341H71.354V18.834H64.0441V22.3811H70.4827V25.1109H64.0441V28.707H71.6852V31.5048H60.7426L60.7437 16.0341ZM77.2402 16.0341H80.5415V28.707H87.8048V31.5048H77.2402V16.0341ZM104.695 23.7685C104.695 20.8806 102.714 18.6729 99.791 18.6729C96.8656 18.6729 94.8862 20.8806 94.8862 23.7685C94.8862 26.6594 96.8656 28.8661 99.791 28.8661C102.714 28.8661 104.695 26.6584 104.695 23.7685ZM91.4903 23.7685C91.4903 19.1971 95.1687 15.829 99.791 15.829C104.412 15.829 108.089 19.1971 108.089 23.7685C108.089 28.3419 104.412 31.7109 99.791 31.7109C95.1698 31.7109 91.4903 28.3419 91.4903 23.7685ZM116.221 18.834H111.647V16.0331H124.097V18.834H119.523V31.5048H116.221V18.834ZM140.837 23.7685C140.837 20.8806 138.857 18.6729 135.934 18.6729C133.008 18.6729 131.028 20.8806 131.028 23.7685C131.028 26.6594 133.008 28.8661 135.934 28.8661C138.857 28.8661 140.837 26.6584 140.837 23.7685ZM127.632 23.7685C127.632 19.1971 131.312 15.829 135.934 15.829C140.555 15.829 144.233 19.1971 144.233 23.7685C144.233 28.3419 140.555 31.7109 135.934 31.7109C131.312 31.7109 127.632 28.3419 127.632 23.7685ZM154.318 24.3147C153.516 23.5874 152.406 22.1991 152.406 22.1991C152.406 22.1991 152.645 23.9056 152.645 25.0198V31.5059H149.554V15.8971H149.884L157.972 23.2243C158.751 23.9286 159.858 25.338 159.858 25.338C159.858 25.338 159.647 23.5874 159.647 22.5191V16.0341H162.735V31.6409H162.408L154.318 24.3147Z" fill="white"/>
</svg>
