<svg width="21" height="22" viewBox="0 0 21 22" fill="none" xmlns="http://www.w3.org/2000/svg">
<path d="M19.0625 3.59726C17.5729 1.91492 14.375 0.882812 10.5 0.882812C6.625 0.882812 3.42708 1.91492 1.9375 3.59726C-0.541667 6.44589 -0.541667 15.9826 1.9375 18.8106C3.42708 20.4929 6.625 21.525 10.5 21.525C14.375 21.525 17.5729 20.4929 19.0625 18.8106C21.5417 15.9619 21.5417 6.44589 19.0625 3.59726ZM10.5 5.78534C10.7575 5.78534 11.0093 5.861 11.2234 6.00276C11.4375 6.14452 11.6044 6.34602 11.703 6.58176C11.8015 6.8175 11.8273 7.0769 11.7771 7.32717C11.7268 7.57743 11.6028 7.80731 11.4207 7.98774C11.2386 8.16817 11.0066 8.29104 10.754 8.34082C10.5014 8.3906 10.2396 8.36505 10.0017 8.2674C9.76379 8.16976 9.56043 8.0044 9.41736 7.79223C9.27428 7.58007 9.19792 7.33064 9.19792 7.07547C9.19792 6.73331 9.3351 6.40516 9.57929 6.16321C9.82348 5.92126 10.1547 5.78534 10.5 5.78534ZM11.5417 16.8805H9.45833C9.18207 16.8805 8.91711 16.7718 8.72176 16.5782C8.52641 16.3847 8.41667 16.1221 8.41667 15.8484C8.41667 15.5747 8.52641 15.3122 8.72176 15.1186C8.91711 14.925 9.18207 14.8163 9.45833 14.8163V11.72C9.18207 11.72 8.91711 11.6112 8.72176 11.4177C8.52641 11.2241 8.41667 10.9616 8.41667 10.6879C8.41667 10.4141 8.52641 10.1516 8.72176 9.95805C8.91711 9.76449 9.18207 9.65575 9.45833 9.65575H10.5C10.7763 9.65575 11.0412 9.76449 11.2366 9.95805C11.4319 10.1516 11.5417 10.4141 11.5417 10.6879V14.8163C11.8179 14.8163 12.0829 14.925 12.2782 15.1186C12.4736 15.3122 12.5833 15.5747 12.5833 15.8484C12.5833 16.1221 12.4736 16.3847 12.2782 16.5782C12.0829 16.7718 11.8179 16.8805 11.5417 16.8805Z" fill="black"/>
</svg>
