<svg width="500" height="331" viewBox="0 0 500 331" fill="none" xmlns="http://www.w3.org/2000/svg">
<path d="M445.061 260.724C445.061 222.107 413.755 190.801 375.137 190.801H100.784C45.5555 190.801 0.783875 235.572 0.783875 290.801V330.648H375.137C413.755 330.648 445.061 299.342 445.061 260.724Z" fill="#D9EAFF"/>
<path d="M18.6895 113.518C18.6895 152.136 49.9953 183.441 88.613 183.441H402.342V133.594C402.342 83.8886 362.047 43.5943 312.342 43.5943H88.613C49.9953 43.5943 18.6895 74.9001 18.6895 113.518Z" fill="#D9EAFF"/>
<path style="mix-blend-mode:multiply" opacity="0.41" d="M409.831 127.311C413.967 127.311 417.32 126.965 417.32 126.538C417.32 126.112 413.967 125.766 409.831 125.766C405.695 125.766 402.342 126.112 402.342 126.538C402.342 126.965 405.695 127.311 409.831 127.311Z" fill="url(#paint0_linear_1364_80827)"/>
<path d="M410.659 96.3594H409.518C401.536 96.3594 395.064 102.831 395.064 110.813V111.954C395.064 119.937 401.536 126.408 409.518 126.408H410.659C418.642 126.408 425.113 119.937 425.113 111.954V110.813C425.113 102.831 418.642 96.3594 410.659 96.3594Z" fill="url(#paint1_linear_1364_80827)"/>
<path d="M410.659 96.3594H409.518C401.536 96.3594 395.064 102.831 395.064 110.813V111.954C395.064 119.937 401.536 126.408 409.518 126.408H410.659C418.642 126.408 425.113 119.937 425.113 111.954V110.813C425.113 102.831 418.642 96.3594 410.659 96.3594Z" fill="url(#paint2_radial_1364_80827)"/>
<path style="mix-blend-mode:color-dodge" opacity="0.27" d="M405.553 85.0347C406.696 85.0347 407.623 84.1079 407.623 82.9646C407.623 81.8213 406.696 80.8945 405.553 80.8945C404.409 80.8945 403.482 81.8213 403.482 82.9646C403.482 84.1079 404.409 85.0347 405.553 85.0347Z" fill="url(#paint3_linear_1364_80827)"/>
<path d="M499.031 114.48L467.849 101.352C466.975 101.88 466.157 102.497 465.41 103.193C463.952 105.119 465.831 107.733 463.387 109.384C460.377 111.416 452.969 110.971 446.844 108.393C446.671 108.321 446.503 108.246 446.334 108.171C440.579 105.603 438.275 102.016 441.198 100.043C443.069 98.7789 446.293 98.8608 448.918 98.3745C450.241 98.1535 451.533 97.777 452.767 97.2529C453.51 96.8625 454.214 96.4031 454.87 95.8808L423.654 82.7383L399.303 99.1785C398.797 99.01 398.256 98.7862 397.794 98.5791C397.243 98.3384 396.81 98.1146 396.697 98.0448C395.837 97.5203 395.099 96.8178 394.532 95.9843C393.603 94.6051 393.697 92.925 391.419 91.9092C387.444 90.2243 380.443 91.5361 375.663 94.7615C370.938 97.9509 370.154 101.833 373.868 103.49C377.131 104.864 382.048 103.896 385.657 104.693C386.745 105.022 387.814 105.415 388.857 105.868C388.965 105.916 389.071 105.964 389.169 106.012L364.863 122.45L440.235 154.182L499.031 114.48Z" fill="white"/>
<path d="M439.475 84.3557C439.475 83.6335 439.86 82.9644 440.652 82.43C440.78 82.3427 440.912 82.2623 441.049 82.1893C441.092 82.1652 441.138 82.146 441.184 82.1243C441.283 82.0762 441.384 82.0304 441.487 81.9871L441.564 81.9534L441.636 81.9293C441.802 81.8643 441.973 81.8066 442.151 81.7536C442.331 81.7007 442.516 81.655 442.704 81.6116L442.771 81.5948L442.856 81.5779C443.075 81.5298 443.299 81.4864 443.527 81.4479H443.549H443.623C443.849 81.4118 444.08 81.3781 444.314 81.3468L444.407 81.3348L445.168 81.2433H445.211L445.382 81.2241L445.897 81.1663L446.606 81.0796L446.748 81.0604C446.989 81.0291 447.229 80.9954 447.446 80.9593L447.809 80.8967C448.05 80.8509 448.29 80.8004 448.548 80.7475L448.685 80.7161C448.861 80.6776 449.039 80.6343 449.212 80.591H449.229C449.407 80.546 449.582 80.4979 449.756 80.4466L449.919 80.3985L450.278 80.2853L450.453 80.2276C450.571 80.1866 450.694 80.1433 450.8 80.1L450.944 80.0446C451.096 79.9845 451.242 79.9243 451.384 79.8593C452.074 79.4978 452.727 79.0714 453.335 78.5859L453.193 94.8673C452.584 95.3515 451.93 95.777 451.24 96.1382C451.1 96.2056 450.951 96.2658 450.797 96.3284L450.766 96.3404L450.667 96.3765C450.549 96.4222 450.427 96.4656 450.306 96.5089L450.136 96.5667L449.777 96.6774L449.669 96.7135L449.611 96.7279C449.438 96.7785 449.265 96.8266 449.089 96.8724H449.065L448.545 96.9975L448.485 97.012L448.401 97.0288C448.161 97.0817 447.92 97.1323 447.665 97.1781L447.362 97.231H447.299C447.059 97.2671 446.842 97.3008 446.611 97.3321L446.455 97.3514L445.767 97.4332H445.745L445.264 97.4886L445.023 97.515C444.783 97.5439 444.523 97.5728 444.273 97.6065H444.184C443.943 97.6378 443.717 97.6715 443.488 97.7076L443.395 97.7221C443.154 97.7606 442.94 97.8039 442.719 97.852L442.574 97.8833C442.384 97.9266 442.196 97.9724 442.016 98.0253C441.836 98.0783 441.662 98.1385 441.494 98.2011L441.347 98.2612C441.244 98.3046 441.143 98.3479 441.042 98.3985L440.909 98.461C440.772 98.5332 440.64 98.6136 440.512 98.7017C439.721 99.2361 439.341 99.9053 439.336 100.627L439.475 84.3557Z" fill="#004E89"/>
<path d="M375.916 99.7023C375.908 99.6715 375.901 99.6401 375.897 99.6084C375.897 99.5795 375.883 99.5531 375.878 99.5242C375.877 99.5146 375.877 99.5049 375.878 99.4953C375.878 99.452 375.878 99.4087 375.861 99.3654C375.844 99.322 375.861 99.3027 375.861 99.269C375.861 99.2353 375.861 99.18 375.861 99.1342C375.861 99.0885 375.861 99.0813 375.861 99.0548V99.0235L376.003 82.7422C376.003 82.7783 376.003 82.8168 376.003 82.8529V82.9877C376.003 83.0214 376.003 83.0527 376.003 83.0864C376.003 83.1201 376.003 83.173 376.02 83.214L376.041 83.3271C376.041 83.3584 376.041 83.3896 376.061 83.4209C376.08 83.4522 376.082 83.498 376.092 83.5365C376.102 83.575 376.109 83.5967 376.118 83.6256L376.135 83.6713C376.175 83.784 376.221 83.8942 376.275 84.0011C376.327 84.1051 376.387 84.2049 376.455 84.2995L376.487 84.3477C376.555 84.443 376.629 84.5346 376.708 84.6221L376.775 84.6943L376.852 84.7737L376.946 84.8604L377.03 84.935L377.114 85.0048C377.165 85.0457 377.218 85.0842 377.271 85.1227L377.355 85.1829C377.415 85.2238 377.478 85.2648 377.543 85.3033L377.615 85.349C377.673 85.3827 377.733 85.4164 377.795 85.4477L377.875 85.4934L378.154 85.6258C378.339 85.7053 378.531 85.775 378.729 85.8376C378.794 85.8593 378.863 85.8737 378.928 85.893C379.063 85.9339 379.198 85.9725 379.335 86.0062L379.446 86.0302C379.606 86.0639 379.766 86.0952 379.927 86.1241L380.119 86.1578C380.271 86.1795 380.42 86.2035 380.574 86.2204L380.726 86.2397C380.923 86.2637 381.123 86.283 381.327 86.2998L381.712 86.3239L382.037 86.3431L382.434 86.36H382.754L383.521 86.3744H383.54H384.447H385.025H385.309H385.79H385.915H386.127L386.5 86.3889L386.844 86.4081L387.2 86.4322H387.322L387.717 86.4707H387.796C387.967 86.49 388.138 86.5092 388.304 86.5333H388.364C388.605 86.5694 388.845 86.6128 389.086 86.6657H389.107H389.132H389.165L389.218 86.6825H389.259L389.326 86.7018L389.379 86.7187L389.466 86.7451L389.519 86.7644L389.622 86.798L389.682 86.8173L389.796 86.8558L389.863 86.8775L389.986 86.9208L390.058 86.9449L390.185 86.9906L390.267 87.0195L390.387 87.0628L390.486 87.0989L390.606 87.1423L390.712 87.1808L390.832 87.2265L390.938 87.2651L391.061 87.3132L391.169 87.3541L391.292 87.4022L391.4 87.4456L391.521 87.4937L391.626 87.537L391.754 87.5924L391.845 87.6309L392.057 87.7224L392.348 87.8572L392.206 104.139C392.115 104.093 392.016 104.047 391.915 104.004L391.703 103.91L391.631 103.881L391.482 103.818L391.395 103.782L391.256 103.725L391.16 103.688L391.027 103.635L390.926 103.597L390.796 103.546L390.691 103.505L390.568 103.46L390.464 103.424L390.342 103.378L390.245 103.342L390.128 103.301L390.022 103.262L389.923 103.229L389.82 103.193L389.726 103.161L389.634 103.13L389.545 103.099L389.466 103.072L389.382 103.046L389.31 103.022L389.24 103L389.177 102.981L389.119 102.964L389.071 102.949L389.023 102.935H388.99H388.944C388.703 102.884 388.463 102.841 388.208 102.803C388.022 102.776 387.837 102.75 387.647 102.73H387.551C387.391 102.714 387.222 102.7 387.046 102.687L386.694 102.663L386.346 102.644L385.98 102.629H385.633H385.152H384.854H384.284H383.536H383.374L382.619 102.612H382.58L382.27 102.6C382.145 102.6 382.03 102.6 381.897 102.586C381.765 102.572 381.673 102.572 381.56 102.564L381.19 102.54H381.149C380.957 102.526 380.769 102.507 380.581 102.485L380.439 102.468L380.158 102.432L379.98 102.401L379.787 102.369C379.626 102.34 379.467 102.309 379.306 102.273L379.193 102.249H379.162C379.032 102.215 378.907 102.177 378.782 102.141L378.587 102.088C378.39 102.025 378.197 101.953 378.012 101.876L377.733 101.743L377.641 101.693C377.584 101.662 377.528 101.633 377.475 101.599L377.454 101.587L377.394 101.551L377.213 101.433L377.126 101.37L376.972 101.255C376.958 101.24 376.939 101.231 376.924 101.216C376.91 101.216 376.9 101.195 376.888 101.185L376.804 101.11L376.708 101.021L376.633 100.944L376.585 100.896L376.563 100.87C376.484 100.783 376.41 100.691 376.342 100.595C376.341 100.59 376.341 100.584 376.342 100.578L376.323 100.55C376.257 100.454 376.197 100.355 376.145 100.251C376.092 100.146 376.046 100.037 376.008 99.9262C376.009 99.9165 376.009 99.9069 376.008 99.8973C376.008 99.8973 376.008 99.8828 376.008 99.8756C376.008 99.8684 375.989 99.8202 375.981 99.7889C375.974 99.7576 375.933 99.7408 375.916 99.7023Z" fill="#004E89"/>
<path d="M369.788 103.215L369.646 119.494L439.61 148.951L439.755 132.67L369.788 103.215Z" fill="#0061A2"/>
<path d="M439.754 132.671L439.609 148.953L494.188 112.106L494.332 95.8242L439.754 132.671Z" fill="#004E89"/>
<path d="M494.332 95.8242L465.385 83.6372C464.575 84.131 463.818 84.7069 463.126 85.3559C461.771 87.1395 463.518 89.5707 461.249 91.1015C458.454 92.9887 451.578 92.5771 445.89 90.182L445.409 89.9775C440.066 87.5945 437.927 84.2655 440.641 82.4313C442.378 81.2591 445.371 81.3337 447.808 80.8836C449.036 80.6773 450.236 80.3275 451.383 79.8413C452.072 79.4798 452.726 79.0534 453.334 78.568L424.366 66.3594L401.751 81.6201C401.27 81.4636 400.788 81.2543 400.351 81.0641C399.841 80.8234 399.436 80.6332 399.333 80.5682C398.536 80.0762 397.852 79.4197 397.329 78.6426C396.468 77.362 396.554 75.8023 394.442 74.8611C390.754 73.3062 384.256 74.5121 379.817 77.5089C375.429 80.472 374.702 84.0753 378.15 85.611C381.179 86.8892 385.73 85.9889 389.096 86.7303C390.107 87.0329 391.1 87.3963 392.067 87.8183L392.358 87.9531L369.777 103.197L439.744 132.652L494.332 95.8242Z" fill="#196EAB"/>
<path d="M267.127 248.465C201.71 248.465 148.676 218.218 148.676 180.894C148.676 143.57 201.71 113.328 267.127 113.328C332.543 113.328 385.575 143.585 385.575 180.894C385.575 218.204 332.548 248.465 267.127 248.465Z" fill="#9EABD3"/>
<path d="M163.93 148.219V172.049C163.93 204.563 210.122 230.916 267.125 230.916C324.129 230.916 370.318 204.563 370.318 172.049V148.219H163.93Z" fill="#0449B7"/>
<path d="M267.125 207.087C210.134 207.087 163.93 180.735 163.93 148.22C163.93 115.706 210.122 89.3555 267.125 89.3555C324.129 89.3555 370.318 115.715 370.318 148.22C370.318 180.725 324.119 207.087 267.125 207.087Z" fill="#0449B7"/>
<path d="M267.124 194.595C222.229 194.595 185.834 173.836 185.834 148.223C185.834 122.609 222.229 101.855 267.124 101.855C312.02 101.855 348.412 122.616 348.412 148.223C348.412 173.829 312.02 194.595 267.124 194.595Z" fill="white"/>
<path d="M267.124 183.333C301.12 183.333 328.679 167.613 328.679 148.221C328.679 128.829 301.12 113.109 267.124 113.109C233.128 113.109 205.568 128.829 205.568 148.221C205.568 167.613 233.128 183.333 267.124 183.333Z" fill="#0449B7"/>
<path d="M267.125 171.262C244.819 171.262 226.736 160.948 226.736 148.224C226.736 135.5 244.819 125.184 267.125 125.184C289.432 125.184 307.512 135.5 307.512 148.224C307.512 160.948 289.43 171.262 267.125 171.262Z" fill="white"/>
<path d="M267.128 159.87C255.849 159.87 246.707 154.656 246.707 148.222C246.707 141.788 255.849 136.574 267.128 136.574C278.406 136.574 287.546 141.788 287.546 148.222C287.546 154.656 278.404 159.87 267.128 159.87Z" fill="#0449B7"/>
<path d="M267.125 152.161C263.31 152.161 260.221 150.399 260.221 148.223C260.221 146.047 263.31 144.285 267.125 144.285C270.941 144.285 274.03 146.047 274.03 148.223C274.03 150.399 270.939 152.161 267.125 152.161Z" fill="#0449B7"/>
<path d="M267.125 56.0894V11.2483L287.861 0.351562V43.0985L267.125 56.0894Z" fill="#5DA2F4"/>
<path d="M267.124 56.0894V11.2483L246.391 0.351562V43.0985L267.124 56.0894Z" fill="#5DA2F4"/>
<path d="M267.125 8.94141V149.201" stroke="#F4C63D" stroke-width="31.34" stroke-miterlimit="10"/>
<path d="M317.863 271.593L349.336 258.342C350.218 258.88 351.043 259.507 351.797 260.212C353.27 262.138 351.372 264.786 353.838 266.471C356.879 268.519 364.353 268.071 370.536 265.469C370.71 265.397 370.878 265.323 371.046 265.248C376.857 262.656 379.188 259.035 376.233 257.042C374.345 255.767 371.092 255.839 368.441 255.357C367.104 255.133 365.799 254.753 364.551 254.224C363.802 253.83 363.091 253.366 362.429 252.84L393.945 239.574L453.287 279.635L377.213 311.663L352.659 295.086L352.964 294.946C354.02 294.487 355.102 294.09 356.205 293.757C359.867 292.951 364.818 293.928 367.993 292.597C371.872 290.869 371.08 286.952 366.309 283.732C361.498 280.475 354.417 279.158 350.522 280.802C348.117 281.881 348.201 283.575 347.265 284.964C346.698 285.803 345.96 286.513 345.1 287.046C344.984 287.116 344.541 287.34 343.981 287.59C343.519 287.797 342.975 288.021 342.47 288.192L317.863 271.593Z" fill="white"/>
<path d="M377.245 242.147C377.245 241.44 376.87 240.795 376.1 240.275C375.975 240.19 375.845 240.114 375.71 240.046L375.583 239.984C375.486 239.935 375.385 239.892 375.284 239.849L375.21 239.815C375.188 239.815 375.164 239.815 375.142 239.793C374.979 239.731 374.813 239.673 374.64 239.623C374.464 239.572 374.283 239.529 374.101 239.485L374.038 239.468L373.961 239.454C373.745 239.408 373.523 239.365 373.295 239.326H373.268H373.213C372.972 239.288 372.732 239.254 372.506 239.223L372.429 239.211L371.676 239.122H371.63L371.019 239.054L370.297 238.968L370.167 238.949C369.927 238.92 369.703 238.886 369.477 238.85L369.123 238.79C368.882 238.744 368.642 238.696 368.401 238.643L368.271 238.616L367.754 238.491H367.74C367.566 238.445 367.396 238.4 367.225 238.349L367.061 238.301L366.712 238.19C366.657 238.173 366.599 238.154 366.544 238.133C366.426 238.094 366.303 238.051 366.195 238.007L366.063 237.957C365.917 237.899 365.775 237.839 365.637 237.776C364.967 237.424 364.33 237.009 363.736 236.539L363.876 252.382C364.47 252.853 365.106 253.267 365.776 253.62C365.913 253.682 366.055 253.742 366.202 253.8L366.234 253.815L366.332 253.851C366.448 253.894 366.573 253.937 366.686 253.978L366.849 254.034L367.208 254.147L367.309 254.178L367.359 254.192L367.879 254.334C368.055 254.38 368.233 254.421 368.411 254.462L368.461 254.474L368.534 254.488C368.774 254.541 369.015 254.592 369.255 254.635L369.551 254.686H369.609C369.835 254.722 370.064 254.756 370.297 254.785L370.434 254.804L371.139 254.888L371.606 254.939C371.668 254.948 371.731 254.956 371.793 254.96C372.048 254.992 372.306 255.02 372.559 255.054H372.619C372.859 255.085 373.1 255.122 373.34 255.16H373.417C373.641 255.199 373.862 255.242 374.081 255.288L374.221 255.319C374.406 255.362 374.587 255.406 374.762 255.459C374.938 255.512 375.109 255.569 375.275 255.632L375.414 255.687C375.518 255.73 375.619 255.774 375.715 255.822L375.842 255.885C375.976 255.953 376.105 256.028 376.23 256.111C377.002 256.633 377.37 257.278 377.377 257.986L377.245 242.147Z" fill="#394472"/>
<path d="M354.3 277.041L354.463 277.005L354.685 276.956L354.868 276.925L355.022 276.899L355.139 290.174L377.112 305.011L376.972 289.167L358.772 276.877C359.037 276.911 359.304 276.947 359.573 276.992L359.759 277.024L360.062 277.077L360.278 277.12L360.567 277.18L360.769 277.226L361.25 277.339L361.383 277.373C361.577 277.423 361.772 277.476 361.967 277.534L362.08 277.568C362.347 277.647 362.617 277.731 362.881 277.823L362.922 277.837C363.189 277.929 363.454 278.028 363.716 278.129L363.781 278.155C364.082 278.273 364.383 278.396 364.679 278.533L364.722 278.552C365.02 278.687 365.316 278.829 365.607 278.981L365.636 278.995C365.93 279.147 366.218 279.308 366.502 279.477H366.517C366.803 279.648 367.084 279.823 367.356 280.009C369.781 281.645 371.056 283.484 371.071 285.051C371.026 279.77 370.98 274.489 370.934 269.208C370.917 267.641 369.642 265.802 367.217 264.165C366.945 263.98 366.663 263.804 366.377 263.633H366.363C366.079 263.465 365.79 263.306 365.497 263.152L365.465 263.138C365.177 262.986 364.881 262.844 364.582 262.709L364.539 262.69C364.243 262.555 363.945 262.43 363.642 262.309H363.625L363.579 262.293C363.314 262.189 363.045 262.09 362.778 261.999H362.747C362.477 261.908 362.205 261.823 361.936 261.741L361.873 261.722L361.832 261.71C361.635 261.652 361.438 261.599 361.241 261.546L361.12 261.518C360.96 261.476 360.8 261.437 360.639 261.402L360.55 261.378L360.449 261.359L360.146 261.296L359.939 261.253L359.634 261.2L359.487 261.173H359.451C359.176 261.13 358.907 261.091 358.638 261.06H358.575H358.527C358.286 261.034 358.06 261.014 357.829 260.998H357.771H357.694C357.266 260.971 356.845 260.961 356.439 260.974C356.412 260.974 356.388 260.974 356.364 260.974H356.299C356.102 260.974 355.905 260.99 355.712 261.005H355.674C355.471 261.022 355.274 261.046 355.082 261.072H355.019H354.973L354.733 261.113L354.567 261.142L354.326 261.193C354.283 261.193 354.24 261.209 354.196 261.222H354.18C354.009 261.262 353.843 261.31 353.679 261.361L353.568 261.397C353.407 261.453 353.246 261.508 353.087 261.573C352.929 261.638 352.847 261.684 352.743 261.741L352.649 261.794L352.534 261.859L352.443 261.917L352.327 261.994C352.267 262.035 352.212 262.076 352.156 262.119C352.101 262.163 352.089 262.167 352.06 262.192L352.026 262.218C351.961 262.273 351.899 262.326 351.841 262.384L351.819 262.403C351.774 262.449 351.726 262.497 351.685 262.543L351.646 262.586L351.586 262.656C351.545 262.707 351.504 262.755 351.468 262.805L351.415 262.875C351.405 262.887 351.396 262.9 351.389 262.914C351.37 262.938 351.355 262.967 351.336 262.993L351.242 263.138L351.177 263.253L351.098 263.397C351.098 263.414 351.078 263.431 351.071 263.448C351.061 263.466 351.053 263.485 351.045 263.503C351.001 263.588 350.961 263.674 350.922 263.758C350.922 263.778 350.905 263.795 350.898 263.814C350.847 263.927 350.797 264.043 350.749 264.156C350.701 264.269 350.674 264.329 350.636 264.416L350.592 264.517C350.544 264.62 350.496 264.724 350.443 264.827C350.417 264.883 350.386 264.936 350.357 264.989L350.316 265.066C350.27 265.143 350.224 265.22 350.171 265.306L350.07 265.451C350.019 265.52 349.966 265.59 349.912 265.66L349.842 265.749C349.767 265.841 349.693 265.93 349.601 266.019L349.582 266.04C349.498 266.132 349.406 266.226 349.313 266.315L349.228 266.394C349.159 266.457 349.089 266.522 349.014 266.584L348.904 266.676C348.831 266.736 348.754 266.794 348.677 266.852L348.569 266.931C348.454 267.013 348.329 267.092 348.213 267.172L348.172 267.196H348.155L348.105 267.222L348.078 267.237L348.018 267.268L347.977 267.287L347.912 267.321L347.855 267.347C347.834 267.359 347.812 267.37 347.79 267.379L347.715 267.417L347.643 267.451L347.561 267.489L347.448 267.542L347.393 267.566L347.212 267.648C346.796 267.834 346.31 268.036 345.86 268.188L323.861 253.336L323.998 269.179L346 284.031C346.45 283.879 346.936 283.677 347.352 283.492L347.691 283.338L347.833 283.27L347.932 283.222L347.973 283.203L348.047 283.167L348.095 283.143L348.151 283.114L348.196 283.09L348.235 283.07L348.276 283.049L348.302 283.034L348.326 283.02C348.451 282.943 348.567 282.861 348.685 282.779L348.79 282.702C348.867 282.644 348.947 282.584 349.031 282.522L349.086 282.478L349.139 282.432C349.211 282.37 349.284 282.307 349.351 282.245L349.438 282.163C349.531 282.071 349.62 281.98 349.707 281.888C349.713 281.881 349.719 281.873 349.726 281.867C349.806 281.778 349.88 281.689 349.967 281.602C349.991 281.571 350.013 281.539 350.039 281.511L350.193 281.304C350.205 281.284 350.222 281.265 350.234 281.248L350.297 281.157C350.348 281.08 350.396 280.999 350.441 280.916C350.458 280.887 350.472 280.858 350.487 280.829C350.501 280.801 350.54 280.735 350.564 280.687C350.614 280.584 350.665 280.478 350.713 280.374L350.754 280.276C350.792 280.189 350.831 280.102 350.867 280.016C350.903 279.929 350.965 279.775 351.018 279.669L351.04 279.621C351.081 279.532 351.122 279.445 351.165 279.359L351.216 279.258C351.242 279.207 351.271 279.156 351.3 279.108C351.329 279.06 351.341 279.034 351.362 278.998L351.459 278.848C351.483 278.81 351.507 278.771 351.533 278.733C351.56 278.694 351.569 278.687 351.588 278.663C351.608 278.639 351.665 278.564 351.704 278.516L351.766 278.444C351.822 278.384 351.877 278.324 351.937 278.263L351.961 278.242C352.029 278.177 352.103 278.112 352.18 278.049L352.274 277.977C352.329 277.934 352.387 277.893 352.447 277.852C352.485 277.825 352.523 277.8 352.563 277.777C352.628 277.734 352.698 277.693 352.77 277.652L352.864 277.599C352.972 277.541 353.085 277.486 353.208 277.431C353.33 277.375 353.518 277.31 353.689 277.255L353.799 277.219C353.963 277.13 354.129 277.084 354.3 277.041Z" fill="#424888"/>
<path d="M445.056 260.5L445.195 276.343L377.11 305.007L376.971 289.163L445.056 260.5Z" fill="#5860AB"/>
<path d="M323.861 253.308L352.026 241.448C352.816 241.929 353.553 242.489 354.228 243.121C355.546 244.857 353.848 247.213 356.056 248.713C358.775 250.547 365.465 250.157 370.999 247.817C371.153 247.752 371.307 247.687 371.456 247.62C376.657 245.3 378.743 242.06 376.099 240.276C374.415 239.135 371.497 239.207 369.122 238.769C367.927 238.568 366.759 238.227 365.643 237.753C364.973 237.401 364.337 236.986 363.743 236.516L391.944 224.645L445.057 260.51L376.972 289.175L355 274.341L355.272 274.215C356.217 273.804 357.186 273.449 358.173 273.152C361.45 272.429 365.872 273.306 368.713 272.114C372.182 270.569 371.475 267.059 367.205 264.171C362.889 261.256 356.564 260.079 353.078 261.55C350.912 262.512 350.999 264.031 350.162 265.273C349.652 266.026 348.987 266.661 348.213 267.136C348.11 267.199 347.713 267.401 347.212 267.618C346.796 267.803 346.31 268.005 345.86 268.157L323.861 253.308Z" fill="#6174B8"/>
<path d="M208.769 316.087C206.883 314.811 203.626 314.884 200.979 314.402C199.643 314.176 198.337 313.795 197.089 313.266C196.34 312.873 195.629 312.409 194.967 311.882L226.484 298.617L201.925 282.039C202.024 281.991 202.129 281.94 202.24 281.892C203.292 281.434 204.37 281.039 205.469 280.708C209.13 279.904 214.082 280.879 217.375 279.492C221.123 277.822 220.332 273.903 215.561 270.685C210.737 267.426 203.669 266.112 199.659 267.797C197.361 268.824 197.452 270.519 196.517 271.908C195.947 272.749 195.205 273.459 194.339 273.99C194.224 274.062 193.781 274.284 193.221 274.534C192.756 274.741 192.215 274.965 191.71 275.136L167.127 258.539L91.0645 290.582L150.411 330.647L181.887 317.408C182.768 317.947 183.592 318.573 184.346 319.279C185.815 321.216 183.917 323.852 186.386 325.525C189.424 327.576 196.899 327.128 203.084 324.524C203.258 324.452 203.429 324.377 203.597 324.302C209.395 321.698 211.721 318.08 208.769 316.087Z" fill="white"/>
<path d="M215.514 259.035C215.514 259.074 215.514 259.112 215.514 259.151C215.514 259.189 215.514 259.232 215.514 259.273C215.514 259.314 215.514 259.341 215.514 259.374C215.514 259.408 215.514 259.454 215.497 259.492C215.493 259.531 215.485 259.57 215.476 259.608C215.476 259.637 215.476 259.666 215.459 259.695C215.442 259.724 215.437 259.774 215.425 259.813C215.413 259.851 215.411 259.868 215.401 259.894C215.397 259.911 215.391 259.927 215.384 259.943C215.347 260.05 215.302 260.156 215.252 260.258C215.201 260.359 215.143 260.456 215.079 260.549C215.067 260.564 215.057 260.579 215.047 260.595C214.981 260.688 214.909 260.778 214.831 260.862L214.766 260.934C214.739 260.958 214.715 260.985 214.691 261.009L214.6 261.093L214.516 261.168L214.436 261.233L214.282 261.351L214.201 261.408C214.143 261.447 214.085 261.485 214.025 261.522L213.946 261.572C213.895 261.603 213.84 261.632 213.784 261.661L213.695 261.709C213.606 261.755 213.517 261.798 213.424 261.839C213.061 261.991 212.687 262.111 212.305 262.2C211.987 262.278 211.666 262.339 211.342 262.383C211.027 262.429 210.705 262.465 210.38 262.492C209.923 262.528 209.456 262.549 208.985 262.564C207.95 262.593 206.892 262.583 205.857 262.612C205.393 262.624 204.936 262.646 204.488 262.682L204.628 278.525C205.075 278.489 205.532 278.467 205.997 278.455C207.026 278.426 208.087 278.436 209.124 278.407C209.605 278.393 210.063 278.371 210.52 278.335C210.847 278.308 211.169 278.272 211.482 278.227C211.806 278.182 212.127 278.121 212.444 278.044C212.827 277.954 213.201 277.833 213.563 277.683C213.657 277.642 213.748 277.598 213.835 277.553L213.909 277.512L214.088 277.413H214.107L214.157 277.379L214.34 277.261L214.422 277.204L214.573 277.088C214.588 277.074 214.607 277.064 214.622 277.052L214.655 277.021L214.739 276.946L214.829 276.862L214.906 276.787L214.951 276.739L214.97 276.715C215.048 276.63 215.12 276.541 215.187 276.448V276.431L215.206 276.402C215.27 276.309 215.328 276.211 215.379 276.111C215.432 276.008 215.477 275.901 215.514 275.791C215.515 275.783 215.515 275.775 215.514 275.767V275.747L215.543 275.653C215.543 275.617 215.562 275.584 215.57 275.547L215.591 275.454C215.591 275.427 215.591 275.401 215.608 275.374C215.625 275.348 215.608 275.355 215.608 275.345C215.608 275.336 215.608 275.261 215.625 275.218C215.642 275.174 215.625 275.158 215.625 275.126C215.625 275.095 215.625 275.032 215.625 274.987C215.626 274.963 215.626 274.94 215.625 274.917V274.886L215.514 259.035Z" fill="#80BBE6"/>
<path d="M202.747 262.933H202.733C201.755 263.23 200.795 263.583 199.858 263.99C199.759 264.033 199.665 264.079 199.576 264.122L199.716 279.965L199.997 279.833C200.934 279.428 201.893 279.075 202.87 278.776H202.887C203.127 278.721 203.392 278.675 203.654 278.637C203.964 278.593 204.284 278.557 204.616 278.531L204.477 262.688C204.152 262.714 203.832 262.75 203.515 262.793C203.252 262.832 202.997 262.878 202.747 262.933Z" fill="#80BBE6"/>
<path d="M221.684 294.807L221.546 278.961L193.345 290.835L193.461 304.018C190.186 304.411 187.244 304.103 185.656 303.032C184.6 302.309 184.439 301.404 184.412 300.456V299.671C184.412 298.891 184.35 298.116 183.837 297.44C183.163 296.81 182.426 296.249 181.639 295.767L153.469 307.627L153.608 323.47L181.766 311.61C182.555 312.095 183.292 312.659 183.965 313.295C184.427 313.902 184.518 314.585 184.538 315.283V316.068C184.538 317.103 184.639 318.114 185.786 318.887C188.507 320.723 195.195 320.331 200.729 317.991C200.885 317.926 201.039 317.859 201.191 317.792C204.872 316.15 206.991 314.046 206.965 312.325C206.934 308.565 206.901 304.806 206.866 301.048L221.684 294.807Z" fill="#196EAB"/>
<path d="M213.403 261.848L213.543 277.691C210.596 278.933 206.164 278.059 202.887 278.779C201.905 279.076 200.941 279.429 200.001 279.838L199.719 279.97L199.572 264.127C199.661 264.084 199.755 264.038 199.854 263.995C200.795 263.586 201.759 263.232 202.741 262.936C206.025 262.216 210.456 263.09 213.403 261.848Z" fill="#80BBE6"/>
<path d="M153.463 307.627L100.35 271.77L100.489 287.613L153.6 323.471L153.463 307.627Z" fill="#80BBE6"/>
<path d="M205.7 294.594C204.016 293.453 201.098 293.526 198.723 293.087C197.526 292.887 196.357 292.547 195.24 292.074C194.569 291.72 193.933 291.305 193.339 290.834L221.54 278.96L199.57 264.128C199.659 264.085 199.753 264.039 199.852 263.996C200.793 263.587 201.756 263.233 202.739 262.937C206.015 262.214 210.437 263.091 213.394 261.849C216.748 260.351 216.04 256.847 211.77 253.966C207.454 251.048 201.129 249.874 197.54 251.388C195.483 252.307 195.564 253.824 194.727 255.068C194.217 255.82 193.553 256.456 192.778 256.931C192.675 256.994 192.278 257.193 191.778 257.412C191.364 257.598 190.878 257.798 190.426 257.952L168.427 243.098L100.342 271.763L153.455 307.628L181.632 295.757C182.42 296.239 183.156 296.8 183.831 297.43C185.147 299.163 183.449 301.522 185.657 303.021C188.376 304.858 195.066 304.466 200.602 302.126C200.759 302.061 200.91 301.994 201.062 301.926C206.261 299.608 208.342 296.378 205.7 294.594Z" fill="#0093C6"/>
<path d="M43.4512 116.769L113.256 87.3789L167.714 124.14L138.799 136.312C139.408 136.795 140.062 137.221 140.75 137.583C141.894 138.067 143.091 138.416 144.315 138.623C146.748 139.07 149.733 138.998 151.465 140.166C154.174 141.995 152.04 145.317 146.709 147.695C146.555 147.765 146.399 147.832 146.228 147.9C140.553 150.287 133.691 150.699 130.905 148.817C128.641 147.288 130.381 144.862 129.029 143.085C128.338 142.437 127.582 141.862 126.772 141.369L97.9022 153.527L75.3717 138.317L75.6604 138.185C76.6268 137.766 77.6164 137.402 78.6243 137.097C81.9925 136.36 86.5299 137.256 89.4337 136.035C92.9895 134.449 92.2654 130.855 87.8868 127.899C83.4624 124.91 76.9763 123.706 73.4013 125.211C71.1831 126.198 71.2721 127.755 70.4108 129.031C69.8885 129.802 69.2077 130.452 68.414 130.939C68.3082 131.004 67.9064 131.209 67.3964 131.435C66.9681 131.625 66.4653 131.832 65.9986 131.991L43.4512 116.769Z" fill="white"/>
<path d="M77.9822 122.551L78.129 122.519L78.3503 122.471L78.5139 122.442L78.6703 122.416L78.7809 135.053L99.6948 149.168L99.5625 134.09L82.2405 122.394C82.4811 122.423 82.7506 122.459 83.008 122.503L83.1764 122.531L83.4723 122.584L83.6696 122.623L83.9583 122.683L84.1387 122.724L84.5934 122.835L84.7137 122.864C84.9014 122.914 85.089 122.965 85.2743 123.02L85.3753 123.049C85.6327 123.126 85.8902 123.208 86.1452 123.29H86.174C86.4315 123.379 86.6865 123.473 86.9415 123.571L86.9968 123.593C87.2855 123.706 87.5718 123.834 87.8533 123.954L87.8918 123.973C88.1781 124.101 88.4596 124.238 88.7362 124.38L88.7627 124.394C89.0418 124.539 89.3185 124.691 89.5855 124.849H89.6023C89.8742 125.011 90.1413 125.179 90.4011 125.355C92.7083 126.912 93.9232 128.662 93.9376 130.152C93.8927 125.126 93.8478 120.1 93.8029 115.074C93.8029 113.584 92.5784 111.834 90.2688 110.275C90.0089 110.101 89.7419 109.933 89.47 109.772H89.4532C89.1869 109.611 88.9127 109.459 88.6304 109.317L88.6015 109.302C88.3273 109.158 88.0458 109.023 87.7619 108.893L87.7186 108.876C87.4363 108.749 87.1524 108.629 86.8669 108.515H86.8501L86.802 108.498C86.5614 108.4 86.3016 108.308 86.0465 108.221L86.0104 108.207C85.7578 108.12 85.5028 108.041 85.2478 107.966L85.1828 107.947L85.1395 107.935C84.9543 107.88 84.769 107.829 84.5814 107.781L84.4587 107.75C84.3095 107.711 84.1604 107.675 84.0112 107.641L83.9198 107.62L83.8211 107.6L83.5445 107.543L83.3352 107.499L83.0561 107.449L82.9093 107.422H82.8708C82.6158 107.381 82.3608 107.344 82.1058 107.314H82.0408H81.9903C81.769 107.288 81.5476 107.268 81.3311 107.254H81.2758H81.2012C80.9967 107.242 80.7922 107.232 80.5901 107.227H80.5733C80.3832 107.227 80.1956 107.227 80.0103 107.227H79.8708C79.6831 107.227 79.5003 107.244 79.3198 107.259H79.303H79.2621C79.0745 107.275 78.8892 107.297 78.7088 107.321H78.6486H78.6053L78.3912 107.357L78.218 107.389L78.0111 107.432L77.8691 107.463H77.8523C77.6887 107.502 77.5323 107.547 77.3711 107.596L77.2653 107.629C77.1113 107.682 76.9597 107.735 76.8154 107.798C76.671 107.86 76.5916 107.904 76.4882 107.957L76.3992 108.007L76.2885 108.07C76.2572 108.087 76.2308 108.106 76.2019 108.125L76.0912 108.197C76.0359 108.236 75.9806 108.274 75.93 108.315L75.8362 108.385L75.8049 108.409C75.7424 108.462 75.6846 108.515 75.6293 108.568L75.6077 108.59L75.4802 108.72L75.4441 108.761L75.3887 108.828C75.3478 108.876 75.3093 108.922 75.2733 108.97L75.2251 109.037C75.2157 109.048 75.2069 109.059 75.1987 109.071L75.1506 109.146C75.1193 109.191 75.0904 109.24 75.0591 109.288C75.0279 109.336 75.0206 109.358 74.999 109.391C74.9773 109.425 74.9461 109.488 74.922 109.536C74.9131 109.55 74.905 109.564 74.8979 109.579C74.8889 109.595 74.8809 109.612 74.8739 109.63C74.833 109.714 74.7921 109.798 74.7536 109.87C74.7462 109.884 74.7397 109.899 74.7343 109.914C74.6814 110.029 74.6333 110.154 74.5828 110.26L74.4865 110.484C74.4697 110.518 74.4553 110.554 74.4408 110.588C74.3951 110.686 74.3494 110.785 74.3013 110.884L74.2219 111.028C74.2051 111.055 74.193 111.083 74.1786 111.11C74.1353 111.184 74.0896 111.257 74.0391 111.331C73.9885 111.406 73.9717 111.425 73.9404 111.473L73.7913 111.668L73.7239 111.755C73.6541 111.842 73.5795 111.928 73.5026 112.013L73.4881 112.029C73.4063 112.116 73.3197 112.205 73.2307 112.292L73.1513 112.364C73.0864 112.427 73.019 112.487 72.9492 112.547L72.8458 112.631C72.7736 112.689 72.7014 112.747 72.6268 112.802L72.5258 112.877C72.4175 112.954 72.3045 113.031 72.1866 113.103H72.1649L72.1288 113.125H72.1072L72.0567 113.153L72.0206 113.17L71.9604 113.202L71.9195 113.223L71.8474 113.257L71.7896 113.286L71.715 113.322L71.626 113.365L71.5731 113.389L71.4672 113.438L71.4119 113.464L71.2411 113.541C70.8441 113.719 70.3774 113.912 69.9443 114.056L49.0137 99.9219L49.146 115L70.0767 129.136C70.5097 128.99 70.9764 128.797 71.3734 128.619L71.5442 128.542H71.5731L71.7054 128.482L71.7535 128.458L71.8498 128.412L71.9099 128.383L71.9821 128.347L72.0278 128.325L72.0952 128.291L72.1312 128.272L72.1914 128.243L72.2179 128.229L72.2636 128.202H72.2828L72.3117 128.186C72.4296 128.111 72.5402 128.036 72.6485 127.957L72.7544 127.88C72.8289 127.827 72.8987 127.772 72.9685 127.714L73.0238 127.67L73.0743 127.627L73.274 127.449L73.3582 127.37C73.4472 127.285 73.5314 127.199 73.6132 127.11L73.6277 127.093C73.7047 127.009 73.7768 126.924 73.8466 126.838C73.8707 126.811 73.8923 126.782 73.914 126.753C73.9669 126.686 74.015 126.621 74.0631 126.554C74.0631 126.537 74.0896 126.522 74.0992 126.505C74.1088 126.489 74.1425 126.445 74.1618 126.414C74.2099 126.342 74.2556 126.267 74.3013 126.193L74.3566 126.089C74.3783 126.051 74.3999 126.012 74.4192 125.973C74.4705 125.872 74.5186 125.771 74.5635 125.67L74.5996 125.588C74.6381 125.497 74.679 125.408 74.7175 125.319C74.756 125.23 74.8065 125.109 74.8522 125.006C74.8601 124.987 74.8689 124.968 74.8787 124.95C74.9148 124.869 74.9533 124.789 74.9918 124.71L75.0423 124.614C75.0663 124.565 75.0928 124.52 75.1193 124.471C75.1457 124.423 75.1602 124.402 75.1818 124.366L75.2708 124.224L75.3454 124.115L75.3959 124.048C75.4296 124 75.4681 123.954 75.5066 123.908L75.5668 123.838C75.6173 123.781 75.6702 123.725 75.728 123.67L75.7496 123.646C75.8146 123.583 75.8843 123.523 75.9589 123.463L76.0479 123.393L76.2115 123.275L76.3222 123.203L76.5195 123.085L76.6085 123.037C76.7119 122.982 76.8202 122.926 76.9357 122.876C77.0512 122.825 77.2316 122.76 77.3856 122.71L77.4914 122.673C77.6622 122.635 77.833 122.592 77.9822 122.551Z" fill="#0093C6"/>
<path d="M164.493 121.893L164.361 106.812L137.522 118.118L137.632 130.669H137.606L137.433 130.688L136.793 130.753H136.73L136.268 130.784H136.097L135.753 130.799H135.626C135.356 130.799 135.089 130.799 134.829 130.799H134.726C134.51 130.799 134.295 130.787 134.086 130.772H134.036C133.841 130.758 133.648 130.741 133.461 130.719L133.321 130.705C133.16 130.686 133.001 130.664 132.84 130.638H132.785C132.619 130.609 132.457 130.577 132.303 130.544L132.181 130.515C132.034 130.481 131.89 130.445 131.748 130.404L131.687 130.387L131.601 130.358C131.521 130.337 131.447 130.31 131.372 130.286L131.257 130.243L131.072 130.173L130.966 130.127C130.906 130.101 130.848 130.077 130.79 130.048L130.691 130.002L130.521 129.913L130.439 129.87C130.357 129.822 130.28 129.773 130.198 129.723C129.19 129.044 129.036 128.17 129.012 127.265C129.012 127.025 129.012 126.784 129.012 126.543C129.012 125.799 128.954 125.06 128.461 124.415C127.82 123.813 127.118 123.279 126.366 122.822L99.5625 134.094L99.6948 149.172L126.501 137.885C127.253 138.342 127.955 138.876 128.596 139.479C129.039 140.059 129.123 140.713 129.142 141.38C129.142 141.621 129.142 141.862 129.142 142.102C129.142 143.089 129.238 144.052 130.345 144.791C130.42 144.842 130.497 144.89 130.586 144.935L130.667 144.981C130.723 145.013 130.78 145.044 130.841 145.073L130.939 145.121L131.117 145.2L131.218 145.244L131.276 145.268L131.408 145.316L131.521 145.357C131.594 145.383 131.668 145.405 131.743 145.429C131.774 145.429 131.805 145.451 131.837 145.458H131.853L131.892 145.47C132.036 145.511 132.183 145.547 132.335 145.583L132.397 145.6H132.45C132.609 145.634 132.773 145.667 132.931 145.694H132.97C133.126 145.72 133.29 145.742 133.451 145.761H133.521H133.586C133.776 145.78 133.966 145.8 134.163 145.812H134.216C134.426 145.826 134.64 145.836 134.858 145.841H134.955C135.217 145.841 135.481 145.841 135.751 145.841H135.883L136.225 145.826H136.396C136.559 145.826 136.723 145.807 136.889 145.792H136.918C137.132 145.776 137.346 145.754 137.563 145.73L137.731 145.711L138.304 145.636H138.373H138.397C138.575 145.609 138.756 145.583 138.934 145.552L139.025 145.535C139.174 145.511 139.324 145.482 139.475 145.453L139.677 145.414C139.793 145.39 139.906 145.369 140.019 145.342L140.245 145.294L140.57 145.22L140.654 145.2L140.729 145.181C141.017 145.111 141.308 145.034 141.599 144.955L141.713 144.921C142.008 144.837 142.304 144.748 142.595 144.654L142.687 144.625C142.988 144.526 143.286 144.42 143.584 144.312L143.637 144.29C143.945 144.177 144.253 144.05 144.556 143.929L144.992 143.739C145.196 143.648 145.393 143.556 145.586 143.462L145.781 143.364C145.908 143.303 146.021 143.239 146.154 143.176L146.365 143.063L146.693 142.88L146.892 142.764L147.015 142.692C147.082 142.654 147.147 142.61 147.212 142.569L147.385 142.463L147.732 142.223L147.84 142.148C147.987 142.047 148.126 141.944 148.261 141.84L148.362 141.761C148.442 141.698 148.521 141.635 148.603 141.573L148.646 141.537C148.742 141.452 148.836 141.371 148.928 141.296C148.966 141.26 149.009 141.224 149.048 141.185C149.175 141.065 149.288 140.945 149.406 140.824C149.505 140.718 149.594 140.612 149.678 140.507L149.755 140.405C149.799 140.348 149.847 140.29 149.888 140.232L149.916 140.184C149.938 140.155 149.955 140.126 149.974 140.097C150.022 140.023 150.068 139.95 150.109 139.876L150.162 139.784L150.191 139.731C150.229 139.654 150.265 139.577 150.297 139.491C150.297 139.476 150.297 139.464 150.313 139.45C150.335 139.397 150.357 139.344 150.376 139.289L150.405 139.187C150.405 139.171 150.417 139.154 150.422 139.134C150.441 139.057 150.46 138.983 150.475 138.906C150.475 138.889 150.475 138.874 150.475 138.858V138.81C150.486 138.724 150.492 138.638 150.494 138.552V138.525L150.4 127.792L164.493 121.893Z" fill="#6174B8"/>
<path d="M49.0137 99.9667L113.812 72.6875L164.361 106.805L137.522 118.118C138.086 118.568 138.692 118.964 139.331 119.3C140.393 119.749 141.504 120.072 142.641 120.263C144.9 120.682 147.672 120.612 149.279 121.707C151.793 123.407 149.813 126.488 144.864 128.688C144.722 128.753 144.575 128.815 144.429 128.878C139.16 131.095 132.792 131.478 130.205 129.73C128.103 128.312 129.724 126.059 128.464 124.41C127.822 123.808 127.12 123.274 126.368 122.817L99.5625 134.094L78.6486 119.974L78.9157 119.851C79.8171 119.46 80.741 119.122 81.6824 118.84C84.8099 118.154 89.0201 118.987 91.7123 117.854C95.0155 116.38 94.3418 113.039 90.2688 110.3C86.162 107.527 80.1402 106.41 76.8226 107.806C74.7632 108.721 74.845 110.168 74.0463 111.352C73.561 112.067 72.9296 112.671 72.1938 113.124C72.0952 113.184 71.7126 113.364 71.2483 113.583C70.8513 113.762 70.3846 113.954 69.9516 114.099L49.0137 99.9667Z" fill="#80BBE6"/>
<defs>
<linearGradient id="paint0_linear_1364_80827" x1="402.333" y1="126.538" x2="417.32" y2="126.538" gradientUnits="userSpaceOnUse">
<stop stop-color="#A69DE2"/>
<stop offset="1" stop-color="#5442C8"/>
</linearGradient>
<linearGradient id="paint1_linear_1364_80827" x1="405.102" y1="92.8448" x2="413.576" y2="124.31" gradientUnits="userSpaceOnUse">
<stop stop-color="#DBEAF3"/>
<stop offset="1" stop-color="#569EC8"/>
</linearGradient>
<radialGradient id="paint2_radial_1364_80827" cx="0" cy="0" r="1" gradientUnits="userSpaceOnUse" gradientTransform="translate(404.615 102.956) scale(27.583 27.583)">
<stop stop-color="#DBEAF3"/>
<stop offset="1" stop-color="#569EC8"/>
</radialGradient>
<linearGradient id="paint3_linear_1364_80827" x1="405.047" y1="81.3178" x2="406.325" y2="85.5224" gradientUnits="userSpaceOnUse">
<stop stop-color="#DBEAF3"/>
<stop offset="1" stop-color="#569EC8"/>
</linearGradient>
</defs>
</svg>
