<svg width="20" height="16" viewBox="0 0 20 16" fill="none" xmlns="http://www.w3.org/2000/svg">
<path fill-rule="evenodd" clip-rule="evenodd" d="M0.899902 1.5002C0.899902 1.15541 1.03687 0.824754 1.28066 0.580952C1.52446 0.337163 1.85512 0.200195 2.1999 0.200195H17.7999C18.1447 0.200195 18.4754 0.337163 18.7191 0.580952C18.9629 0.824754 19.0999 1.15541 19.0999 1.5002C19.0999 1.84498 18.9629 2.17564 18.7191 2.41944C18.4754 2.66323 18.1447 2.8002 17.7999 2.8002H2.1999C1.85512 2.8002 1.52446 2.66323 1.28066 2.41944C1.03687 2.17564 0.899902 1.84498 0.899902 1.5002ZM0.899902 8.0002C0.899902 7.65541 1.03687 7.32475 1.28066 7.08095C1.52446 6.83716 1.85512 6.7002 2.1999 6.7002H9.9999C10.3447 6.7002 10.6754 6.83716 10.9191 7.08095C11.1629 7.32475 11.2999 7.65541 11.2999 8.0002C11.2999 8.34496 11.1629 8.67568 10.9191 8.91943C10.6754 9.16318 10.3447 9.3002 9.9999 9.3002H2.1999C1.85512 9.3002 1.52446 9.16318 1.28066 8.91943C1.03687 8.67568 0.899902 8.34496 0.899902 8.0002ZM0.899902 14.5002C0.899902 14.1554 1.03687 13.8247 1.28066 13.581C1.52446 13.3372 1.85512 13.2002 2.1999 13.2002H17.7999C18.1447 13.2002 18.4754 13.3372 18.7191 13.581C18.9629 13.8247 19.0999 14.1554 19.0999 14.5002C19.0999 14.845 18.9629 15.1757 18.7191 15.4194C18.4754 15.6632 18.1447 15.8002 17.7999 15.8002H2.1999C1.85512 15.8002 1.52446 15.6632 1.28066 15.4194C1.03687 15.1757 0.899902 14.845 0.899902 14.5002Z" fill="white"/>
</svg>
