<svg width="486" height="399" viewBox="0 0 486 399" fill="none" xmlns="http://www.w3.org/2000/svg">
<path d="M456.76 156.136C456.76 110.1 419.441 72.7812 373.405 72.7812H130.14C74.9118 72.7812 30.1402 117.553 30.1402 172.781V239.49H373.405C419.441 239.49 456.76 202.171 456.76 156.136Z" fill="#D9EAFF"/>
<path d="M485.14 299.317V285.862L468.733 284.599L228.043 167.287C214.934 160.899 193.658 160.899 180.55 167.287L12.0889 249.369L0.109375 248.453V262.033C0.124038 266.217 3.40851 270.388 9.94812 273.582L257.222 394.1C270.33 400.488 291.606 400.488 304.715 394.1L475.302 310.953C481.885 307.747 485.17 303.526 485.14 299.317Z" fill="#031842"/>
<path d="M9.94762 260.062L257.221 380.581C270.33 386.968 291.606 386.968 304.714 380.581L475.301 297.434C488.41 291.046 488.41 280.673 475.301 274.285L228.028 153.767C214.919 147.38 193.643 147.38 180.535 153.767L9.94762 236.914C-3.16093 243.302 -3.16093 253.675 9.94762 260.062Z" fill="#031E54"/>
<path d="M306.79 297.92C389.048 297.92 455.731 231.237 455.731 148.98C455.731 66.7221 389.048 0.0390625 306.79 0.0390625C224.533 0.0390625 157.85 66.7221 157.85 148.98C157.85 231.237 224.533 297.92 306.79 297.92Z" fill="#5DA2F4"/>
<path d="M436.557 167.913L390.294 186.188C349.563 214.171 289.03 209.485 284.082 195.99L275.75 173.263C273.393 166.76 273.703 159.588 276.613 153.312C279.523 147.037 284.798 142.167 291.285 139.766L410.24 96.127C416.746 93.762 423.923 94.0683 430.204 96.9791C436.485 99.89 441.358 105.169 443.759 111.662L452.096 134.389C454.46 140.896 454.152 148.075 451.241 154.356C448.329 160.637 443.05 165.511 436.557 167.913Z" fill="#CA9B81"/>
<path d="M448.136 137.012L439.823 114.285C437.421 107.787 432.544 102.505 426.258 99.5938C419.972 96.6827 412.789 96.3794 406.28 98.7504L350.439 119.228L331.417 100.912C329.785 99.3505 327.602 98.4984 325.344 98.5412C323.086 98.5841 320.937 99.5184 319.365 101.14L311.042 109.785C309.48 111.417 308.627 113.602 308.67 115.861C308.712 118.12 309.648 120.27 311.271 121.842L320.107 130.351L287.325 142.371C280.832 144.771 275.553 149.643 272.641 155.923C269.728 162.202 269.419 169.379 271.781 175.886L280.113 198.618C285.061 212.108 348.198 216.958 393.971 184.694L432.588 170.537C439.083 168.137 444.364 163.263 447.277 156.982C450.19 150.7 450.499 143.521 448.136 137.012Z" fill="#F9BF97"/>
<path d="M346.294 122.77H269.471C265.238 122.77 261.807 126.201 261.807 130.434V141.581C261.807 145.814 265.238 149.245 269.471 149.245H346.294C350.527 149.245 353.959 145.814 353.959 141.581V130.434C353.959 126.201 350.527 122.77 346.294 122.77Z" fill="#C49273"/>
<path d="M342.028 147.105H274.452C270.219 147.105 266.787 150.537 266.787 154.77V162.766C266.787 166.999 270.219 170.431 274.452 170.431H342.028C346.261 170.431 349.692 166.999 349.692 162.766V154.77C349.692 150.537 346.261 147.105 342.028 147.105Z" fill="#C49273"/>
<path d="M339.553 168.59H275.315C271.082 168.59 267.65 172.021 267.65 176.254V187.63C267.65 191.863 271.082 195.294 275.315 195.294H339.553C343.786 195.294 347.218 191.863 347.218 187.63V176.254C347.218 172.021 343.786 168.59 339.553 168.59Z" fill="#C49273"/>
<path d="M343.621 122.499H298.973C299.956 120.78 300.388 118.801 300.211 116.829C300.034 114.857 299.257 112.986 297.984 111.469L294.114 106.881C292.46 104.931 290.101 103.716 287.553 103.499C285.005 103.283 282.476 104.085 280.517 105.728L258.289 124.493C257.645 125.037 257.077 125.665 256.599 126.36L209.193 127.377C202.543 127.54 196.228 130.328 191.627 135.131C187.026 139.934 184.512 146.363 184.635 153.013L185.2 179.265C185.363 185.914 188.15 192.228 192.954 196.829C197.757 201.429 204.186 203.942 210.836 203.817L294.782 202.011C301.064 201.872 307.063 199.372 311.586 195.009H336.895C338.916 194.998 340.851 194.192 342.282 192.764C343.713 191.337 344.525 189.403 344.541 187.382V175.993C344.539 174.805 344.261 173.634 343.73 172.572C343.198 171.51 342.428 170.586 341.478 169.873C343.074 169.41 344.477 168.443 345.476 167.116C346.476 165.789 347.019 164.173 347.024 162.512V154.521C347.024 153.469 346.807 152.428 346.386 151.465C345.965 150.501 345.349 149.634 344.578 148.919C346.429 148.681 348.13 147.779 349.365 146.38C350.6 144.981 351.284 143.181 351.29 141.315V130.178C351.288 128.144 350.479 126.194 349.042 124.754C347.604 123.315 345.655 122.504 343.621 122.499Z" fill="#FFB380"/>
<path d="M285.245 212.963L286.19 184.762C286.332 180.531 283.018 176.987 278.787 176.845L270.796 176.577C266.565 176.435 263.02 179.75 262.878 183.98L261.933 212.181C261.791 216.412 265.106 219.957 269.337 220.098L277.328 220.366C281.559 220.508 285.103 217.194 285.245 212.963Z" fill="#CA9B81"/>
<path d="M307.768 215.897L308.806 184.934C308.948 180.703 305.633 177.158 301.402 177.017L293.411 176.749C289.18 176.607 285.636 179.922 285.494 184.152L284.456 215.115C284.314 219.346 287.629 222.89 291.859 223.032L299.851 223.3C304.081 223.442 307.626 220.127 307.768 215.897Z" fill="#CA9B81"/>
<path d="M331.173 211.237L332.214 180.199C332.356 175.969 329.041 172.424 324.81 172.282L315.737 171.978C311.506 171.836 307.961 175.151 307.82 179.382L306.779 210.419C306.637 214.65 309.952 218.194 314.183 218.336L323.256 218.64C327.487 218.782 331.032 215.467 331.173 211.237Z" fill="#CA9B81"/>
<path d="M325.795 175.968L315.493 175.617C313.459 175.551 311.482 176.293 309.994 177.681C308.507 179.07 307.631 180.992 307.558 183.025L307.506 184.468C306.854 183.345 305.928 182.406 304.815 181.738C303.701 181.07 302.437 180.696 301.139 180.649L293.153 180.383C291.468 180.332 289.812 180.836 288.441 181.816C287.07 182.797 286.059 184.201 285.563 185.812C285.077 184.31 284.141 182.994 282.881 182.042C281.622 181.091 280.101 180.549 278.524 180.491L270.537 180.22C268.503 180.153 266.526 180.895 265.039 182.284C263.551 183.673 262.675 185.594 262.602 187.628L261.668 215.821C261.601 217.854 262.343 219.831 263.731 221.318C265.118 222.806 267.039 223.682 269.071 223.757L277.058 224.023C278.543 224.069 280.009 223.684 281.28 222.915C282.551 222.145 283.572 221.024 284.218 219.686C284.384 221.551 285.225 223.292 286.583 224.581C287.941 225.87 289.722 226.619 291.594 226.688L299.58 226.954C301.614 227.022 303.591 226.281 305.078 224.893C306.566 223.505 307.442 221.584 307.516 219.551L307.562 218.179C308.214 219.301 309.14 220.241 310.254 220.908C311.367 221.576 312.632 221.951 313.929 221.997L324.226 222.342C326.259 222.408 328.235 221.666 329.722 220.278C331.209 218.891 332.086 216.971 332.162 214.939L333.203 183.903C333.271 181.869 332.529 179.891 331.14 178.403C329.751 176.915 327.829 176.039 325.795 175.968Z" fill="#FFC59C"/>
<path d="M175.126 112.934L165.051 199.742L234.216 207.769L244.291 120.961L175.126 112.934Z" fill="#61869E"/>
<path d="M152.377 105.056L141.293 200.562L224.378 210.205L235.462 114.699L152.377 105.056Z" fill="#302E2A"/>
<path d="M354.956 111.935L387.328 198.473L456.278 172.68L423.905 86.1418L354.956 111.935Z" fill="#CBE9FF"/>
<path d="M362.437 103.261L398.053 198.469L485.133 165.894L449.517 70.6861L362.437 103.261Z" fill="#302E2A"/>
<path d="M377.672 78.0094C375.483 77.8973 373.471 76.6977 371.921 75.0733C370.171 73.2435 369.004 70.8723 368.117 68.445C367.585 66.9887 367.137 65.4996 366.716 64.0106C366.684 63.8742 366.607 63.7527 366.498 63.6656C366.388 63.5786 366.252 63.5312 366.112 63.5312C365.972 63.5312 365.836 63.5786 365.726 63.6656C365.616 63.7527 365.539 63.8742 365.507 64.0106C364.83 66.1282 363.992 68.1911 363.001 70.1814C362.179 71.8245 361.264 73.4723 359.92 74.6812L359.747 74.8306C358.294 75.8263 356.554 76.3182 354.795 76.2309C354.099 76.1936 353.927 77.4306 354.627 77.5659C359.411 78.4995 363.421 82.5558 364.896 87.5457C365.314 88.9602 365.511 90.4308 365.479 91.9055C365.472 92.0606 365.523 92.2128 365.622 92.3325C365.721 92.4522 365.861 92.5307 366.015 92.5528C366.169 92.575 366.325 92.5391 366.454 92.4522C366.583 92.3653 366.675 92.2337 366.712 92.0828C368.257 87.5457 370.049 82.4858 374.325 80.2219C375.366 79.6618 376.532 79.3744 377.714 79.3864C378.484 79.3817 378.479 78.0467 377.672 78.0094Z" fill="#FFFDFA"/>
<path d="M262.016 237.836C259.827 237.724 257.815 236.524 256.266 234.9C254.515 233.07 253.343 230.699 252.457 228.272C251.929 226.815 251.481 225.326 251.056 223.837C251.026 223.699 250.95 223.574 250.839 223.485C250.729 223.396 250.591 223.348 250.449 223.348C250.308 223.348 250.17 223.396 250.06 223.485C249.949 223.574 249.873 223.699 249.843 223.837C249.169 225.956 248.331 228.019 247.336 230.008C246.519 231.651 245.6 233.276 244.26 234.508L244.087 234.657C242.634 235.653 240.894 236.145 239.135 236.058C238.439 236.02 238.262 237.257 238.967 237.393C243.751 238.326 247.761 242.383 249.236 247.372C249.652 248.787 249.848 250.258 249.815 251.732C249.808 251.887 249.859 252.04 249.958 252.159C250.057 252.279 250.197 252.357 250.35 252.38C250.504 252.402 250.661 252.366 250.789 252.279C250.918 252.192 251.01 252.06 251.047 251.91C252.597 247.372 254.384 242.313 258.66 240.049C259.702 239.488 260.87 239.2 262.054 239.213C262.828 239.194 262.819 237.873 262.016 237.836Z" fill="#FFFDFA"/>
</svg>
