<svg width="21" height="20" viewBox="0 0 21 20" fill="none" xmlns="http://www.w3.org/2000/svg">
<g clip-path="url(#clip0_908_858)">
<path d="M15.8947 0H5.10526C3.88494 0.00347178 2.71559 0.489783 1.85269 1.35269C0.989783 2.21559 0.503472 3.38494 0.5 4.60526L0.5 15.3947C0.503472 16.6151 0.989783 17.7844 1.85269 18.6473C2.71559 19.5102 3.88494 19.9965 5.10526 20H15.8947C17.1151 19.9965 18.2844 19.5102 19.1473 18.6473C20.0102 17.7844 20.4965 16.6151 20.5 15.3947V4.60526C20.4965 3.38494 20.0102 2.21559 19.1473 1.35269C18.2844 0.489783 17.1151 0.00347178 15.8947 0ZM14.6066 10.8618H11.5711C11.5477 10.8617 11.5245 10.8661 11.5029 10.875C11.4812 10.8839 11.4616 10.8969 11.4451 10.9135C11.4285 10.93 11.4155 10.9497 11.4066 10.9713C11.3977 10.9929 11.3932 11.0161 11.3934 11.0395V14.0789C11.3934 14.3159 11.2993 14.5431 11.1317 14.7107C10.9642 14.8782 10.7369 14.9724 10.5 14.9724C10.2631 14.9724 10.0358 14.8782 9.86826 14.7107C9.70071 14.5431 9.60658 14.3159 9.60658 14.0789V11.0395C9.60675 11.0161 9.60228 10.9929 9.59341 10.9713C9.58455 10.9497 9.57147 10.93 9.55494 10.9135C9.53841 10.8969 9.51876 10.8839 9.49713 10.875C9.4755 10.8661 9.45232 10.8617 9.42895 10.8618H6.39342C6.2761 10.8618 6.15992 10.8387 6.05152 10.7938C5.94313 10.7489 5.84464 10.6831 5.76168 10.6002C5.67872 10.5172 5.61291 10.4187 5.56801 10.3103C5.52311 10.2019 5.5 10.0857 5.5 9.96842C5.5 9.8511 5.52311 9.73492 5.56801 9.62652C5.61291 9.51813 5.67872 9.41964 5.76168 9.33668C5.84464 9.25372 5.94313 9.18791 6.05152 9.14301C6.15992 9.09811 6.2761 9.075 6.39342 9.075H9.42895C9.45232 9.07518 9.4755 9.0707 9.49713 9.06184C9.51876 9.05297 9.53841 9.03989 9.55494 9.02336C9.57147 9.00683 9.58455 8.98718 9.59341 8.96555C9.60228 8.94392 9.60675 8.92074 9.60658 8.89737V5.86184C9.60658 5.62489 9.70071 5.39765 9.86826 5.2301C10.0358 5.06255 10.2631 4.96842 10.5 4.96842C10.7369 4.96842 10.9642 5.06255 11.1317 5.2301C11.2993 5.39765 11.3934 5.62489 11.3934 5.86184V8.89737C11.3927 8.92107 11.3968 8.94468 11.4054 8.96677C11.414 8.98886 11.427 9.00898 11.4436 9.02593C11.4602 9.04289 11.48 9.05632 11.5019 9.06543C11.5238 9.07454 11.5473 9.07913 11.5711 9.07895H14.6066C14.8435 9.07895 15.0708 9.17308 15.2383 9.34062C15.4059 9.50817 15.5 9.73542 15.5 9.97237C15.5 10.2093 15.4059 10.4366 15.2383 10.6041C15.0708 10.7717 14.8435 10.8658 14.6066 10.8658V10.8618Z" fill="black"/>
</g>
<defs>
<clipPath id="clip0_908_858">
<rect width="20" height="20" fill="white" transform="translate(0.5)"/>
</clipPath>
</defs>
</svg>
