<svg width="98" height="18" viewBox="0 0 98 18" fill="none" xmlns="http://www.w3.org/2000/svg">
<path d="M17.5806 7.07693C17.5293 6.92407 17.4368 6.78835 17.3133 6.68474C17.1897 6.58113 17.04 6.51366 16.8805 6.48978L11.9034 5.72938L9.66767 0.966604C9.59711 0.816036 9.48511 0.688689 9.34478 0.599479C9.20446 0.51027 9.04162 0.462891 8.87533 0.462891C8.70905 0.462891 8.54621 0.51027 8.40589 0.599479C8.26556 0.688689 8.15356 0.816036 8.083 0.966604L5.84817 5.72938L0.868386 6.48978C0.709397 6.51416 0.560202 6.58189 0.437195 6.68553C0.314187 6.78917 0.222127 6.92471 0.171126 7.07726C0.120126 7.22981 0.112161 7.39346 0.148104 7.55024C0.184048 7.70702 0.26251 7.85086 0.37487 7.96596L4.00361 11.6848L3.14434 16.9481C3.1179 17.1102 3.13762 17.2765 3.20124 17.4279C3.26487 17.5793 3.36982 17.7098 3.50411 17.8044C3.63839 17.8989 3.79658 17.9538 3.96058 17.9627C4.12459 17.9716 4.28778 17.9342 4.4315 17.8547L8.87577 15.3984L13.32 17.8547C13.4638 17.9342 13.627 17.9716 13.791 17.9627C13.955 17.9538 14.1132 17.8989 14.2474 17.8044C14.3817 17.7098 14.4867 17.5793 14.5503 17.4279C14.6139 17.2765 14.6336 17.1102 14.6072 16.9481L13.7488 11.6848L17.3776 7.96596C17.4898 7.85075 17.5682 7.70682 17.604 7.54998C17.6398 7.39314 17.6317 7.22946 17.5806 7.07693Z" fill="#E9751E"/>
<path d="M37.5806 7.07693C37.5293 6.92407 37.4368 6.78835 37.3133 6.68474C37.1897 6.58113 37.04 6.51366 36.8805 6.48978L31.9034 5.72938L29.6677 0.966604C29.5971 0.816036 29.4851 0.688689 29.3448 0.599479C29.2045 0.51027 29.0416 0.462891 28.8753 0.462891C28.7091 0.462891 28.5462 0.51027 28.4059 0.599479C28.2656 0.688689 28.1536 0.816036 28.083 0.966604L25.8482 5.72938L20.8684 6.48978C20.7094 6.51416 20.5602 6.58189 20.4372 6.68553C20.3142 6.78917 20.2221 6.92471 20.1711 7.07726C20.1201 7.22981 20.1122 7.39346 20.1481 7.55024C20.184 7.70702 20.2625 7.85086 20.3749 7.96596L24.0036 11.6848L23.1443 16.9481C23.1179 17.1102 23.1376 17.2765 23.2012 17.4279C23.2649 17.5793 23.3698 17.7098 23.5041 17.8044C23.6384 17.8989 23.7966 17.9538 23.9606 17.9627C24.1246 17.9716 24.2878 17.9342 24.4315 17.8547L28.8758 15.3984L33.32 17.8547C33.4638 17.9342 33.627 17.9716 33.791 17.9627C33.955 17.9538 34.1132 17.8989 34.2474 17.8044C34.3817 17.7098 34.4867 17.5793 34.5503 17.4279C34.6139 17.2765 34.6336 17.1102 34.6072 16.9481L33.7488 11.6848L37.3776 7.96596C37.4898 7.85075 37.5682 7.70682 37.604 7.54998C37.6398 7.39314 37.6317 7.22946 37.5806 7.07693Z" fill="#E9751E"/>
<path d="M57.5806 7.07693C57.5293 6.92407 57.4368 6.78835 57.3133 6.68474C57.1897 6.58113 57.04 6.51366 56.8805 6.48978L51.9034 5.72938L49.6677 0.966604C49.5971 0.816036 49.4851 0.688689 49.3448 0.599479C49.2045 0.51027 49.0416 0.462891 48.8753 0.462891C48.7091 0.462891 48.5462 0.51027 48.4059 0.599479C48.2656 0.688689 48.1536 0.816036 48.083 0.966604L45.8482 5.72938L40.8684 6.48978C40.7094 6.51416 40.5602 6.58189 40.4372 6.68553C40.3142 6.78917 40.2221 6.92471 40.1711 7.07726C40.1201 7.22981 40.1122 7.39346 40.1481 7.55024C40.184 7.70702 40.2625 7.85086 40.3749 7.96596L44.0036 11.6848L43.1443 16.9481C43.1179 17.1102 43.1376 17.2765 43.2012 17.4279C43.2649 17.5793 43.3698 17.7098 43.5041 17.8044C43.6384 17.8989 43.7966 17.9538 43.9606 17.9627C44.1246 17.9716 44.2878 17.9342 44.4315 17.8547L48.8758 15.3984L53.32 17.8547C53.4638 17.9342 53.627 17.9716 53.791 17.9627C53.955 17.9538 54.1132 17.8989 54.2474 17.8044C54.3817 17.7098 54.4867 17.5793 54.5503 17.4279C54.6139 17.2765 54.6336 17.1102 54.6072 16.9481L53.7488 11.6848L57.3776 7.96596C57.4898 7.85075 57.5682 7.70682 57.604 7.54998C57.6398 7.39314 57.6317 7.22946 57.5806 7.07693Z" fill="#E9751E"/>
<path d="M77.5806 7.07693C77.5293 6.92407 77.4368 6.78835 77.3133 6.68474C77.1897 6.58113 77.04 6.51366 76.8805 6.48978L71.9034 5.72938L69.6677 0.966604C69.5971 0.816036 69.4851 0.688689 69.3448 0.599479C69.2045 0.51027 69.0416 0.462891 68.8753 0.462891C68.7091 0.462891 68.5462 0.51027 68.4059 0.599479C68.2656 0.688689 68.1536 0.816036 68.083 0.966604L65.8482 5.72938L60.8684 6.48978C60.7094 6.51416 60.5602 6.58189 60.4372 6.68553C60.3142 6.78917 60.2221 6.92471 60.1711 7.07726C60.1201 7.22981 60.1122 7.39346 60.1481 7.55024C60.184 7.70702 60.2625 7.85086 60.3749 7.96596L64.0036 11.6848L63.1443 16.9481C63.1179 17.1102 63.1376 17.2765 63.2012 17.4279C63.2649 17.5793 63.3698 17.7098 63.5041 17.8044C63.6384 17.8989 63.7966 17.9538 63.9606 17.9627C64.1246 17.9716 64.2878 17.9342 64.4315 17.8547L68.8758 15.3984L73.32 17.8547C73.4638 17.9342 73.627 17.9716 73.791 17.9627C73.955 17.9538 74.1132 17.8989 74.2474 17.8044C74.3817 17.7098 74.4867 17.5793 74.5503 17.4279C74.6139 17.2765 74.6336 17.1102 74.6072 16.9481L73.7488 11.6848L77.3776 7.96596C77.4898 7.85075 77.5682 7.70682 77.604 7.54998C77.6398 7.39314 77.6317 7.22946 77.5806 7.07693Z" fill="#E9751E"/>
<path d="M97.5806 7.07693C97.5293 6.92407 97.4368 6.78835 97.3133 6.68474C97.1897 6.58113 97.04 6.51366 96.8805 6.48978L91.9034 5.72938L89.6677 0.966604C89.5971 0.816036 89.4851 0.688689 89.3448 0.599479C89.2045 0.51027 89.0416 0.462891 88.8753 0.462891C88.7091 0.462891 88.5462 0.51027 88.4059 0.599479C88.2656 0.688689 88.1536 0.816036 88.083 0.966604L85.8482 5.72938L80.8684 6.48978C80.7094 6.51416 80.5602 6.58189 80.4372 6.68553C80.3142 6.78917 80.2221 6.92471 80.1711 7.07726C80.1201 7.22981 80.1122 7.39346 80.1481 7.55024C80.184 7.70702 80.2625 7.85086 80.3749 7.96596L84.0036 11.6848L83.1443 16.9481C83.1179 17.1102 83.1376 17.2765 83.2012 17.4279C83.2649 17.5793 83.3698 17.7098 83.5041 17.8044C83.6384 17.8989 83.7966 17.9538 83.9606 17.9627C84.1246 17.9716 84.2878 17.9342 84.4315 17.8547L88.8758 15.3984L93.32 17.8547C93.4638 17.9342 93.627 17.9716 93.791 17.9627C93.955 17.9538 94.1132 17.8989 94.2474 17.8044C94.3817 17.7098 94.4867 17.5793 94.5503 17.4279C94.6139 17.2765 94.6336 17.1102 94.6072 16.9481L93.7488 11.6848L97.3776 7.96596C97.4898 7.85075 97.5682 7.70682 97.604 7.54998C97.6398 7.39314 97.6317 7.22946 97.5806 7.07693Z" fill="#E9751E"/>
</svg>
