<svg width="23" height="23" viewBox="0 0 23 23" fill="none" xmlns="http://www.w3.org/2000/svg">
<path d="M13.5363 15.2884C13.5363 14.1655 12.6227 13.252 11.4998 13.252C10.3769 13.252 9.46338 14.1655 9.46338 15.2884V16.0512C10.0855 16.3306 10.7748 16.4863 11.4998 16.4863C12.2249 16.4863 12.9141 16.3306 13.5363 16.0512V15.2884Z" fill="black"/>
<path d="M11.5 11.9043C12.2443 11.9043 12.8477 11.3009 12.8477 10.5566C12.8477 9.81235 12.2443 9.20898 11.5 9.20898C10.7557 9.20898 10.1523 9.81235 10.1523 10.5566C10.1523 11.3009 10.7557 11.9043 11.5 11.9043Z" fill="black"/>
<path d="M11.5 6.51367C8.75051 6.51367 6.51367 8.75051 6.51367 11.5C6.51367 12.946 7.13256 14.2499 8.11909 15.1615C8.16051 14.0457 8.744 13.066 9.61413 12.4798C9.1151 11.9904 8.80469 11.3092 8.80469 10.5566C8.80469 9.07045 10.0138 7.86133 11.5 7.86133C12.9862 7.86133 14.1953 9.07045 14.1953 10.5566C14.1953 11.3092 13.8849 11.9904 13.3859 12.4799C14.256 13.0661 14.8395 14.0457 14.8809 15.1616C15.8674 14.2499 16.4863 12.946 16.4863 11.5C16.4863 8.75051 14.2495 6.51367 11.5 6.51367Z" fill="black"/>
<path d="M21.2031 11.5C21.2031 10.8637 21.1409 10.2285 21.0177 9.60645C21.9952 8.56215 22.1813 7.00049 21.4593 5.75C20.7371 4.49902 19.2909 3.87918 17.8972 4.2046C16.9403 3.36582 15.8193 2.718 14.6188 2.31002C14.203 0.941563 12.9438 0 11.5 0C10.0562 0 8.79706 0.941563 8.38122 2.31002C7.18073 2.718 6.05984 3.36577 5.10287 4.20455C3.70921 3.87923 2.26295 4.49897 1.54074 5.75C0.818756 7.00049 1.00482 8.56215 1.98232 9.6065C1.85915 10.2285 1.79688 10.8637 1.79688 11.5C1.79688 12.1363 1.85915 12.7715 1.98228 13.3935C1.00478 14.4378 0.818711 15.9995 1.5407 17.25C2.26295 18.501 3.70907 19.1207 5.10282 18.7954C6.05975 19.6342 7.18068 20.282 8.38118 20.69C8.79706 22.0584 10.0562 23 11.5 23C12.9438 23 14.203 22.0584 14.6188 20.69C15.8193 20.282 16.9402 19.6342 17.8972 18.7954C18.1444 18.8531 18.393 18.8811 18.6392 18.8811C19.7809 18.881 20.8652 18.2791 21.4593 17.25C22.1813 15.9995 21.9952 14.4378 21.0177 13.3935C21.1409 12.7715 21.2031 12.1363 21.2031 11.5ZM17.834 11.5C17.834 14.9926 14.9926 17.834 11.5 17.834C8.00742 17.834 5.16603 14.9926 5.16603 11.5C5.16603 8.00741 8.00742 5.16602 11.5 5.16602C14.9926 5.16602 17.834 8.00741 17.834 11.5Z" fill="black"/>
</svg>
