<svg width="23" height="21" viewBox="0 0 23 21" fill="none" xmlns="http://www.w3.org/2000/svg">
<path d="M20.3646 2.83268H15.3333V2.5931C15.3333 1.66831 14.581 0.916016 13.6562 0.916016H13.4167H9.58333H9.34375C8.41896 0.916016 7.66667 1.66831 7.66667 2.5931V2.83268H2.63542C1.18163 2.83268 0 4.01431 0 5.4681V17.4473C0 18.9011 1.18163 20.0827 2.63542 20.0827H20.3646C21.8184 20.0827 23 18.9011 23 17.4473V5.4681C23 4.01431 21.8184 2.83268 20.3646 2.83268ZM13.4176 4.74935H9.58333V2.83268H13.4167L13.4176 4.74935ZM7.1875 7.62435C8.50808 7.62435 9.58333 8.6996 9.58333 10.0202C9.58333 11.3408 8.50808 12.416 7.1875 12.416C5.86692 12.416 4.79167 11.3408 4.79167 10.0202C4.79167 8.6996 5.86692 7.62435 7.1875 7.62435ZM11.5 16.4889C11.5 16.8857 11.178 17.2077 10.7812 17.2077H3.59375C3.197 17.2077 2.875 16.8857 2.875 16.4889V16.0098C2.875 14.556 4.05662 13.3743 5.51042 13.3743H8.86458C10.3184 13.3743 11.5 14.556 11.5 16.0098V16.4889ZM19.4062 17.2077H14.1354C13.7387 17.2077 13.4167 16.8857 13.4167 16.4889C13.4167 16.0922 13.7387 15.7702 14.1354 15.7702H19.4062C19.803 15.7702 20.125 16.0922 20.125 16.4889C20.125 16.8857 19.803 17.2077 19.4062 17.2077ZM19.4062 13.3743H14.1354C13.7387 13.3743 13.4167 13.0523 13.4167 12.6556C13.4167 12.2588 13.7387 11.9368 14.1354 11.9368H19.4062C19.803 11.9368 20.125 12.2588 20.125 12.6556C20.125 13.0523 19.803 13.3743 19.4062 13.3743ZM19.4062 9.54102H14.1354C13.7387 9.54102 13.4167 9.21902 13.4167 8.82227C13.4167 8.42552 13.7387 8.10352 14.1354 8.10352H19.4062C19.803 8.10352 20.125 8.42552 20.125 8.82227C20.125 9.21902 19.803 9.54102 19.4062 9.54102Z" fill="black"/>
</svg>
