<svg width="21" height="21" viewBox="0 0 21 21" fill="none" xmlns="http://www.w3.org/2000/svg">
<path fill-rule="evenodd" clip-rule="evenodd" d="M8.91093 0.0351562C3.98955 0.0351562 0 4.02471 0 8.94609C0 13.8675 3.98955 17.857 8.91093 17.857C13.8323 17.857 17.8219 13.8675 17.8219 8.94609C17.8219 4.02471 13.8323 0.0351562 8.91093 0.0351562ZM20.6327 20.5799C20.1369 21.0845 19.3213 21.0916 18.8167 20.5958L15.2548 17.0958C15.9324 16.5676 16.5423 15.9566 17.0696 15.2782L20.6168 18.7639C21.1214 19.2597 21.1286 20.0753 20.6327 20.5799ZM8.91093 2.51619C12.4621 2.51619 15.3408 5.39496 15.3408 8.94605C15.3408 12.4971 12.462 15.3759 8.91093 15.3759C5.3598 15.3759 2.48108 12.4971 2.48108 8.94605C2.48108 5.39496 5.35984 2.51619 8.91093 2.51619Z" fill="black"/>
</svg>
