<svg width="21" height="21" viewBox="0 0 21 21" fill="none" xmlns="http://www.w3.org/2000/svg">
<path d="M20.4983 8.88369L16.0212 13.2479L17.0785 19.4119C17.1245 19.6815 17.0138 19.9539 16.7925 20.1149C16.6674 20.2062 16.5186 20.2522 16.3698 20.2522C16.2556 20.2522 16.1406 20.2248 16.0356 20.1695L10.4998 17.2593L4.96471 20.1688C4.72321 20.2967 4.42925 20.2759 4.20787 20.1142C3.9865 19.9532 3.87581 19.6808 3.92181 19.4112L4.97909 13.2472L0.501276 8.88369C0.305776 8.69251 0.23462 8.40645 0.319433 8.14698C0.404245 7.88751 0.629214 7.69704 0.900183 7.65751L7.0879 6.75907L9.85509 1.15138C10.0973 0.660477 10.9023 0.660477 11.1445 1.15138L13.9117 6.75907L20.0994 7.65751C20.3704 7.69704 20.5954 7.88679 20.6802 8.14698C20.765 8.40716 20.6938 8.69179 20.4983 8.88369Z" fill="black"/>
</svg>
