<svg width="469" height="281" viewBox="0 0 469 281" fill="none" xmlns="http://www.w3.org/2000/svg">
<path d="M469 0.175781H228C102.079 0.175781 0 102.255 0 228.176H409C442.137 228.176 469 201.313 469 168.176V0.175781Z" fill="#D9EAFF"/>
<g clip-path="url(#clip0_1393_27895)">
<path d="M133.199 168.473L137.118 166.211L141.024 168.473L137.105 170.735L133.199 168.473Z" fill="white"/>
<path d="M141.535 173.289L145.454 171.027L149.361 173.289L145.441 175.551L141.535 173.289Z" fill="white"/>
<path d="M149.884 178.121L153.803 175.859L157.709 178.121L153.79 180.383L149.884 178.121Z" fill="white"/>
<path d="M158.22 182.938L162.139 180.676L166.045 182.938L162.126 185.2L158.22 182.938Z" fill="white"/>
<path d="M166.556 187.758L170.475 185.496L174.382 187.758L170.462 190.02L166.556 187.758Z" fill="white"/>
<g style="mix-blend-mode:multiply" opacity="0.5">
<mask id="mask0_1393_27895" style="mask-type:luminance" maskUnits="userSpaceOnUse" x="82" y="247" width="226" height="34">
<path d="M195.257 280.179C257.3 280.179 307.596 272.775 307.596 263.642C307.596 254.509 257.3 247.105 195.257 247.105C133.214 247.105 82.918 254.509 82.918 263.642C82.918 272.775 133.214 280.179 195.257 280.179Z" fill="white"/>
</mask>
<g mask="url(#mask0_1393_27895)">
<path d="M307.596 247.094H82.918V280.18H307.596V247.094Z" fill="white"/>
<path d="M295.571 263.759C295.609 271.222 250.61 277.535 195.066 277.842C139.509 278.161 94.4455 272.359 94.4073 264.896C94.369 257.433 139.368 251.12 194.913 250.813C250.469 250.494 295.533 256.296 295.571 263.759Z" fill="white"/>
<path d="M194.701 277.812C250.031 277.503 294.852 271.221 294.81 263.783C294.769 256.344 249.881 250.564 194.55 250.873C139.22 251.183 94.3994 257.464 94.4409 264.903C94.4824 272.342 139.37 278.121 194.701 277.812Z" fill="white"/>
<path d="M194.355 277.749C249.467 277.441 294.111 271.189 294.07 263.786C294.028 256.382 249.318 250.63 194.206 250.938C139.094 251.246 94.4505 257.498 94.4918 264.901C94.5331 272.305 139.244 278.057 194.355 277.749Z" fill="white"/>
<path d="M293.35 263.769C293.388 271.143 248.925 277.379 194.032 277.686C139.139 277.992 94.5989 272.267 94.5606 264.893C94.5223 257.52 138.986 251.283 193.879 250.977C248.772 250.67 293.312 256.395 293.35 263.769Z" fill="white"/>
<path d="M292.622 263.772C292.66 271.121 248.376 277.331 193.687 277.638C139.011 277.945 94.6497 272.245 94.6114 264.897C94.5731 257.549 138.858 251.338 193.546 251.031C248.223 250.725 292.584 256.424 292.622 263.772Z" fill="white"/>
<path d="M193.32 277.601C247.784 277.297 291.902 271.117 291.861 263.798C291.82 256.479 247.636 250.793 193.173 251.097C138.709 251.402 94.5912 257.582 94.632 264.9C94.6729 272.219 138.857 277.906 193.32 277.601Z" fill="#FEFFFF"/>
<path d="M291.141 263.784C291.179 271.068 247.24 277.227 192.998 277.534C138.756 277.841 94.7518 272.18 94.7007 264.895C94.6624 257.611 138.602 251.451 192.844 251.145C247.086 250.838 291.09 256.499 291.141 263.796V263.784Z" fill="#FEFFFF"/>
<path d="M290.401 263.784C290.439 271.043 246.678 277.177 192.653 277.484C138.628 277.791 94.803 272.155 94.752 264.883C94.7137 257.625 138.475 251.491 192.5 251.184C246.525 250.877 290.35 256.513 290.401 263.784Z" fill="#FEFEFF"/>
<path d="M289.66 263.796C289.699 271.029 246.116 277.137 192.308 277.444C138.5 277.751 94.8538 272.128 94.8028 264.895C94.7645 257.662 138.347 251.553 192.155 251.246C245.963 250.94 289.609 256.563 289.66 263.796Z" fill="#FEFEFF"/>
<path d="M288.92 263.795C288.958 271.003 245.555 277.086 191.964 277.38C138.373 277.687 94.8923 272.089 94.854 264.882C94.8157 257.674 138.22 251.591 191.81 251.297C245.401 250.99 288.882 256.588 288.92 263.795Z" fill="#FEFEFF"/>
<path d="M288.18 263.795C288.218 270.964 244.98 277.022 191.619 277.329C138.245 277.635 94.9436 272.063 94.9053 264.881C94.867 257.699 138.105 251.655 191.466 251.348C244.84 251.041 288.142 256.613 288.18 263.795Z" fill="#FDFEFF"/>
<path d="M191.251 277.296C244.403 276.999 287.459 270.968 287.419 263.825C287.379 256.683 244.259 251.133 191.107 251.431C137.955 251.728 94.899 257.759 94.9389 264.901C94.9787 272.044 138.099 277.593 191.251 277.296Z" fill="#FDFEFE"/>
<path d="M190.906 277.231C243.839 276.935 286.718 270.928 286.678 263.814C286.639 256.699 243.696 251.172 190.762 251.468C137.829 251.764 94.9501 257.771 94.9898 264.885C95.0295 272 137.973 277.527 190.906 277.231Z" fill="#FDFEFE"/>
<path d="M285.971 263.809C286.009 270.889 243.308 276.882 190.585 277.176C137.862 277.47 95.0964 271.975 95.0581 264.882C95.0198 257.803 137.722 251.809 190.444 251.515C243.167 251.221 285.933 256.716 285.971 263.809Z" fill="#FDFEFE"/>
<path d="M285.231 263.82C285.269 270.875 242.746 276.843 190.24 277.136C137.734 277.43 95.1477 271.948 95.1094 264.894C95.0711 257.84 137.594 251.872 190.1 251.578C242.606 251.284 285.193 256.766 285.231 263.82Z" fill="#FCFDFE"/>
<path d="M284.49 263.82C284.528 270.849 242.184 276.778 189.895 277.072C137.607 277.366 95.1985 271.909 95.1602 264.881C95.1219 257.852 137.466 251.922 189.755 251.629C242.044 251.335 284.452 256.791 284.49 263.82Z" fill="#FCFDFE"/>
<path d="M189.526 277.036C241.592 276.745 283.768 270.839 283.729 263.844C283.69 256.85 241.451 251.416 189.384 251.707C137.318 251.998 95.142 257.904 95.181 264.899C95.22 271.893 137.46 277.327 189.526 277.036Z" fill="#FCFDFE"/>
<path d="M283.01 263.835C283.048 270.8 241.048 276.691 189.206 276.985C137.364 277.279 95.301 271.861 95.2627 264.896C95.2244 257.931 137.224 252.04 189.066 251.746C240.908 251.452 282.971 256.87 283.01 263.835Z" fill="#FBFDFE"/>
<path d="M282.269 263.835C282.307 270.774 240.486 276.64 188.861 276.921C137.236 277.202 95.3518 271.822 95.3135 264.883C95.2752 257.944 137.096 252.078 188.721 251.797C240.346 251.503 282.231 256.896 282.269 263.835Z" fill="#FBFDFE"/>
<path d="M188.491 276.876C239.902 276.589 281.547 270.754 281.508 263.845C281.47 256.935 239.762 251.567 188.352 251.855C136.941 252.142 95.2959 257.976 95.3344 264.886C95.373 271.795 137.081 277.164 188.491 276.876Z" fill="#FBFCFE"/>
<path d="M280.788 263.834C280.827 270.71 239.363 276.524 188.159 276.818C136.968 277.112 95.4285 271.77 95.3902 264.882C95.3519 257.994 136.815 252.192 188.019 251.898C239.21 251.604 280.75 256.946 280.788 263.834Z" fill="#FAFCFE"/>
<path d="M280.061 263.846C280.099 270.695 238.802 276.484 187.828 276.766C136.854 277.06 95.4924 271.731 95.4541 264.881C95.4158 258.031 136.713 252.242 187.687 251.961C238.661 251.667 280.022 256.996 280.061 263.846Z" fill="#FAFCFD"/>
<path d="M279.32 263.848C279.358 270.673 238.24 276.436 187.483 276.717C136.726 276.998 95.5432 271.708 95.5049 264.883C95.4666 258.059 136.585 252.296 187.342 252.015C238.099 251.733 279.282 257.024 279.32 263.848Z" fill="#FAFCFD"/>
<path d="M278.58 263.848C278.618 270.647 237.678 276.372 187.138 276.666C136.598 276.947 95.5945 271.682 95.5562 264.883C95.5179 258.085 136.458 252.359 186.998 252.065C237.538 251.784 278.541 257.049 278.58 263.848Z" fill="#F9FCFD"/>
<path d="M277.839 263.859C277.877 270.62 237.116 276.332 186.793 276.613C136.47 276.894 95.6453 271.642 95.607 264.882C95.5687 258.122 136.33 252.409 186.653 252.128C236.976 251.847 277.801 257.099 277.839 263.859Z" fill="#F9FBFD"/>
<path d="M186.421 276.579C236.528 276.298 277.116 270.613 277.079 263.88C277.041 257.147 236.392 251.916 186.285 252.196C136.179 252.476 95.5905 258.161 95.6281 264.894C95.6656 271.628 136.315 276.859 186.421 276.579Z" fill="#F8FBFD"/>
<path d="M186.076 276.518C235.964 276.239 276.376 270.577 276.338 263.872C276.301 257.167 235.828 251.958 185.941 252.237C136.053 252.516 95.6417 258.178 95.6791 264.882C95.7165 271.587 136.189 276.797 186.076 276.518Z" fill="#F8FBFD"/>
<path d="M275.618 263.874C275.656 270.545 235.418 276.194 185.759 276.475C136.088 276.756 95.7986 271.567 95.7603 264.897C95.722 258.226 135.96 252.577 185.619 252.296C235.291 252.015 275.58 257.203 275.618 263.874Z" fill="#F8FAFD"/>
<path d="M274.878 263.874C274.916 270.519 234.857 276.129 185.402 276.411C135.947 276.692 95.8372 271.529 95.7989 264.884C95.7606 258.238 135.82 252.628 185.275 252.347C234.729 252.066 274.84 257.229 274.878 263.874Z" fill="#F7FAFC"/>
<path d="M185.054 276.372C234.286 276.096 274.167 270.512 274.13 263.899C274.093 257.286 234.153 252.148 184.921 252.423C135.689 252.699 95.8082 258.283 95.8451 264.896C95.882 271.509 135.822 276.647 185.054 276.372Z" fill="#F7FAFC"/>
<path d="M273.41 263.885C273.448 270.466 233.746 276.038 184.725 276.319C135.705 276.601 95.9519 271.476 95.9136 264.895C95.8753 258.313 135.577 252.741 184.598 252.46C233.619 252.179 273.371 257.304 273.41 263.885Z" fill="#F6FAFC"/>
<path d="M272.669 263.884C272.707 270.44 233.184 275.986 184.38 276.254C135.59 276.535 95.9899 271.436 95.9644 264.881C95.9261 258.325 135.462 252.779 184.253 252.51C233.044 252.242 272.643 257.328 272.669 263.884Z" fill="#F6F9FC"/>
<path d="M271.929 263.887C271.967 270.418 232.61 275.926 184.036 276.207C135.462 276.475 96.0413 271.415 96.003 264.884C95.9647 258.354 135.322 252.846 183.896 252.565C232.47 252.297 271.89 257.357 271.929 263.887Z" fill="#F5F9FC"/>
<path d="M271.189 263.9C271.227 270.405 232.049 275.887 183.692 276.168C135.335 276.449 96.0925 271.389 96.0542 264.897C96.0159 258.392 135.194 252.91 183.551 252.628C231.908 252.347 271.15 257.408 271.189 263.9Z" fill="#F5F9FC"/>
<path d="M270.448 263.899C270.486 270.365 231.487 275.835 183.347 276.103C135.207 276.371 96.1433 271.349 96.105 264.883C96.0667 258.416 135.066 252.947 183.206 252.678C231.346 252.41 270.41 257.432 270.448 263.899Z" fill="#F4F9FC"/>
<path d="M182.985 276.064C230.912 275.796 269.736 270.356 269.7 263.912C269.664 257.468 230.782 252.462 182.854 252.73C134.927 252.998 96.1029 258.439 96.1388 264.882C96.1748 271.326 135.057 276.332 182.985 276.064Z" fill="#F4F8FB"/>
<path d="M182.639 276.013C230.349 275.746 268.995 270.335 268.96 263.927C268.924 257.518 230.219 252.539 182.51 252.806C134.801 253.073 96.154 258.484 96.1897 264.893C96.2255 271.301 134.93 276.28 182.639 276.013Z" fill="#F3F8FB"/>
<path d="M268.239 263.909C268.278 270.286 229.802 275.679 182.313 275.948C134.824 276.216 96.2966 271.258 96.2583 264.881C96.22 258.504 134.696 253.111 182.185 252.842C229.674 252.574 268.201 257.532 268.239 263.909Z" fill="#F3F8FB"/>
<path d="M267.499 263.909C267.537 270.26 229.24 275.628 181.968 275.896C134.696 276.165 96.3474 271.232 96.3091 264.88C96.2708 258.529 134.568 253.162 181.84 252.893C229.112 252.625 267.46 257.558 267.499 263.909Z" fill="#F2F7FB"/>
<path d="M266.759 263.913C266.797 270.239 228.678 275.58 181.623 275.849C134.568 276.117 96.3987 271.197 96.3604 264.884C96.3221 258.558 134.441 253.216 181.496 252.948C228.55 252.68 266.72 257.6 266.759 263.913Z" fill="#F2F7FB"/>
<path d="M266.018 263.924C266.057 270.224 228.117 275.541 181.279 275.796C134.441 276.065 96.4499 271.17 96.4117 264.883C96.3734 258.595 134.313 253.266 181.151 253.011C227.989 252.742 265.98 257.637 266.018 263.924Z" fill="#F1F7FB"/>
<path d="M265.278 263.924C265.316 270.186 227.555 275.476 180.934 275.745C134.313 276.013 96.5007 271.144 96.4624 264.882C96.4241 258.62 134.185 253.33 180.806 253.061C227.427 252.793 265.239 257.662 265.278 263.924Z" fill="#F1F6FA"/>
<path d="M264.537 263.924C264.576 270.16 226.98 275.425 180.589 275.693C134.186 275.949 96.5392 271.118 96.5137 264.882C96.4754 258.646 134.071 253.381 180.462 253.112C226.866 252.844 264.512 257.687 264.537 263.924Z" fill="#F0F6FA"/>
<path d="M263.797 263.938C263.835 270.149 226.418 275.388 180.244 275.644C134.058 275.899 96.59 271.082 96.5645 264.884C96.5262 258.673 133.943 253.433 180.117 253.178C226.304 252.922 263.771 257.74 263.797 263.938Z" fill="#F0F6FA"/>
<path d="M263.057 263.938C263.095 270.11 225.857 275.337 179.887 275.592C133.918 275.848 96.6286 271.056 96.6031 264.883C96.5648 258.711 133.803 253.484 179.772 253.229C225.742 252.973 263.031 257.765 263.057 263.938Z" fill="#EFF5FA"/>
<path d="M262.329 263.938C262.367 270.085 225.308 275.287 179.555 275.542C133.802 275.798 96.6921 271.031 96.6538 264.871C96.6155 258.724 133.675 253.523 179.427 253.268C225.18 253.012 262.29 257.779 262.329 263.938Z" fill="#EEF5FA"/>
<path d="M261.588 263.95C261.627 270.071 224.746 275.234 179.211 275.49C133.675 275.745 96.7434 270.991 96.7051 264.87C96.6668 258.749 133.547 253.586 179.083 253.33C224.619 253.075 261.55 257.828 261.588 263.95Z" fill="#EEF5FA"/>
<path d="M260.848 263.95C260.886 270.045 224.172 275.183 178.866 275.438C133.56 275.694 96.7942 270.965 96.7559 264.87C96.7176 258.774 133.432 253.637 178.738 253.381C224.044 253.125 260.809 257.854 260.848 263.95Z" fill="#EDF4F9"/>
<path d="M260.108 263.949C260.146 270.007 223.61 275.131 178.521 275.387C133.432 275.642 96.8455 270.94 96.8072 264.869C96.7689 258.812 133.305 253.687 178.394 253.432C223.482 253.176 260.069 257.879 260.108 263.949Z" fill="#EDF4F9"/>
<path d="M178.155 275.347C223.03 275.096 259.381 270.001 259.348 263.967C259.314 257.932 222.908 253.244 178.033 253.495C133.159 253.746 96.8076 258.841 96.8412 264.875C96.8749 270.91 133.28 275.598 178.155 275.347Z" fill="#ECF3F9"/>
<path d="M177.81 275.3C222.467 275.05 258.641 269.985 258.607 263.986C258.574 257.986 222.345 253.326 177.689 253.575C133.033 253.825 96.8587 258.891 96.8921 264.89C96.9256 270.889 133.154 275.55 177.81 275.3Z" fill="#EBF3F9"/>
<path d="M257.886 263.964C257.925 269.932 221.925 274.98 177.487 275.235C133.049 275.491 96.9988 270.852 96.9605 264.871C96.9222 258.891 132.922 253.856 177.36 253.6C221.797 253.344 257.848 257.983 257.886 263.964Z" fill="#EBF3F9"/>
<path d="M257.146 263.964C257.184 269.906 221.363 274.928 177.13 275.171C132.896 275.414 97.0369 270.801 96.9986 264.858C96.9603 258.916 132.781 253.894 177.015 253.651C221.236 253.395 257.108 258.021 257.146 263.964Z" fill="#EAF2F8"/>
<path d="M176.775 275.14C220.783 274.894 256.431 269.9 256.398 263.986C256.365 258.072 220.663 253.476 176.656 253.722C132.648 253.969 96.9994 258.963 97.0324 264.877C97.0654 270.791 132.767 275.386 176.775 275.14Z" fill="#EAF2F8"/>
<path d="M255.678 263.975C255.716 269.853 220.24 274.825 176.453 275.08C132.666 275.323 97.1388 270.761 97.1133 264.869C97.075 258.991 132.551 254.02 176.338 253.764C220.125 253.509 255.652 258.084 255.678 263.975Z" fill="#E9F2F8"/>
<path d="M254.937 263.976C254.976 269.829 219.678 274.775 176.108 275.031C132.539 275.273 97.1901 270.724 97.1646 264.871C97.1263 259.018 132.424 254.072 175.994 253.83C219.563 253.587 254.912 258.136 254.937 263.989V263.976Z" fill="#E8F1F8"/>
<path d="M254.197 263.989C254.235 269.816 219.117 274.736 175.764 274.979C132.411 275.222 97.2414 270.698 97.2159 264.871C97.1776 259.043 132.296 254.123 175.649 253.88C219.002 253.638 254.172 258.162 254.197 263.989Z" fill="#E8F1F7"/>
<path d="M253.457 263.989C253.495 269.79 218.555 274.685 175.419 274.928C132.283 275.171 97.2922 270.672 97.2539 264.87C97.2156 259.069 132.156 254.174 175.291 253.931C218.427 253.688 253.418 258.187 253.457 263.989Z" fill="#E7F0F7"/>
<path d="M252.716 263.988C252.755 269.752 217.981 274.634 175.075 274.876C132.156 275.119 97.3435 270.634 97.3052 264.87C97.2669 259.107 132.041 254.225 174.947 253.982C217.866 253.739 252.678 258.225 252.716 263.988Z" fill="#E6F0F7"/>
<path d="M174.706 274.831C217.402 274.592 251.988 269.747 251.956 264.009C251.924 258.271 217.286 253.813 174.59 254.052C131.894 254.291 97.3072 259.136 97.3392 264.874C97.3712 270.612 132.009 275.07 174.706 274.831Z" fill="#E6EFF7"/>
<path d="M174.361 274.782C216.839 274.544 251.248 269.723 251.216 264.013C251.184 258.304 216.723 253.868 174.245 254.105C131.768 254.343 97.3583 259.164 97.3902 264.874C97.4221 270.583 131.883 275.019 174.361 274.782Z" fill="#E5EFF7"/>
<path d="M250.495 263.999C250.533 269.673 216.295 274.478 174.028 274.721C131.76 274.964 97.4836 270.555 97.4453 264.868C97.407 259.194 131.645 254.389 173.913 254.146C216.18 253.903 250.456 258.312 250.495 263.999Z" fill="#E4EFF6"/>
<path d="M249.767 264.015C249.793 269.663 215.746 274.443 173.696 274.673C131.658 274.915 97.5476 270.519 97.5093 264.871C97.4838 259.222 131.53 254.443 173.581 254.213C215.619 253.97 249.729 258.366 249.767 264.015Z" fill="#E4EEF6"/>
<path d="M249.027 264.013C249.053 269.636 215.172 274.377 173.351 274.62C131.53 274.85 97.5989 270.492 97.5606 264.87C97.535 259.247 131.416 254.505 173.236 254.263C215.057 254.033 248.989 258.39 249.027 264.013Z" fill="#E3EEF6"/>
<path d="M248.286 264.013C248.312 269.61 214.61 274.326 173.006 274.569C131.402 274.799 97.6369 270.467 97.6113 264.869C97.5858 259.272 131.288 254.556 172.891 254.313C214.495 254.083 248.261 258.416 248.286 264.013Z" fill="#E2EDF6"/>
<path d="M247.546 264.013C247.572 269.572 214.049 274.275 172.662 274.505C131.275 274.735 97.6881 270.415 97.6626 264.856C97.6371 259.297 131.16 254.594 172.547 254.364C213.934 254.134 247.521 258.454 247.546 264.013Z" fill="#E1EDF6"/>
<path d="M246.805 264.024C246.831 269.558 213.487 274.235 172.317 274.465C131.147 274.695 97.7389 270.401 97.7134 264.868C97.6879 259.334 131.032 254.657 172.202 254.427C213.372 254.197 246.78 258.491 246.805 264.024Z" fill="#E1ECF5"/>
<path d="M246.065 264.028C246.091 269.536 212.925 274.187 171.972 274.417C131.02 274.647 97.7902 270.379 97.7647 264.871C97.7391 259.363 130.905 254.712 171.857 254.482C212.81 254.252 246.04 258.52 246.065 264.028Z" fill="#E0ECF5"/>
<path d="M245.325 264.027C245.35 269.497 212.35 274.123 171.615 274.353C130.879 274.583 97.8283 270.328 97.8027 264.858C97.7772 259.389 130.777 254.762 171.513 254.532C212.248 254.302 245.299 258.558 245.325 264.027Z" fill="#DFECF5"/>
<path d="M244.584 264.039C244.61 269.483 211.789 274.083 171.27 274.313C130.752 274.544 97.8796 270.314 97.854 264.87C97.8285 259.425 130.649 254.825 171.168 254.595C211.687 254.365 244.559 258.595 244.584 264.039Z" fill="#DFEBF5"/>
<path d="M170.911 274.266C211.21 274.04 243.855 269.469 243.825 264.056C243.795 258.643 211.101 254.437 170.802 254.662C130.503 254.888 97.858 259.459 97.8882 264.872C97.9184 270.285 130.612 274.491 170.911 274.266Z" fill="#DEEBF4"/>
<path d="M243.116 264.038C243.142 269.431 210.678 273.981 170.594 274.198C130.509 274.428 97.9944 270.236 97.9561 264.856C97.9305 259.463 130.394 254.914 170.479 254.697C210.563 254.467 243.078 258.658 243.116 264.038Z" fill="#DDEAF4"/>
<path d="M242.376 264.05C242.402 269.404 210.117 273.928 170.249 274.158C130.381 274.388 98.0456 270.222 98.0073 264.868C97.9818 259.513 130.267 254.989 170.134 254.759C210.002 254.529 242.338 258.695 242.376 264.05Z" fill="#DCEAF4"/>
<path d="M169.876 274.118C209.527 273.896 241.646 269.397 241.616 264.068C241.586 258.74 209.419 254.6 169.768 254.821C130.118 255.043 97.9987 259.542 98.0284 264.871C98.0582 270.2 130.225 274.34 169.876 274.118Z" fill="#DCE9F4"/>
<path d="M169.531 274.069C208.963 273.848 240.905 269.373 240.876 264.072C240.846 258.772 208.856 254.654 169.424 254.874C129.992 255.095 98.0499 259.57 98.0794 264.871C98.109 270.171 130.099 274.289 169.531 274.069Z" fill="#DBE9F3"/>
<path d="M240.154 264.064C240.18 269.329 208.419 273.789 169.215 274.006C129.998 274.223 98.1857 270.134 98.1602 264.869C98.1346 259.603 129.896 255.143 169.1 254.926C208.304 254.709 240.129 258.798 240.154 264.064Z" fill="#DAE8F3"/>
<path d="M239.414 264.064C239.44 269.304 207.857 273.725 168.858 273.955C129.858 274.185 98.2243 270.109 98.1987 264.869C98.1732 259.63 129.756 255.208 168.755 254.978C207.755 254.748 239.389 258.825 239.414 264.064Z" fill="#D9E8F3"/>
<path d="M168.509 273.907C207.285 273.69 238.696 269.292 238.667 264.083C238.638 258.875 207.18 254.828 168.404 255.045C129.627 255.262 98.2164 259.66 98.2455 264.869C98.2745 270.077 129.733 274.124 168.509 273.907Z" fill="#D8E7F3"/>
<path d="M237.946 264.078C237.972 269.267 206.746 273.637 168.181 273.854C129.628 274.072 98.339 270.046 98.3135 264.871C98.288 259.682 129.513 255.312 168.079 255.094C206.631 254.877 237.921 258.903 237.946 264.078Z" fill="#D8E7F2"/>
<path d="M237.206 264.078C237.231 269.228 206.172 273.586 167.836 273.803C129.501 274.02 98.3903 270.02 98.3648 264.87C98.3392 259.72 129.398 255.362 167.734 255.145C206.07 254.928 237.18 258.928 237.206 264.078Z" fill="#D7E6F2"/>
<path d="M236.465 264.078C236.491 269.202 205.61 273.534 167.491 273.739C129.373 273.956 98.4411 269.982 98.4155 264.857C98.39 259.733 129.271 255.4 167.389 255.196C205.508 254.979 236.44 258.953 236.465 264.078Z" fill="#D6E6F2"/>
<path d="M235.725 264.077C235.75 269.176 205.049 273.47 167.147 273.687C129.245 273.905 98.4923 269.943 98.4668 264.857C98.4413 259.771 129.143 255.464 167.045 255.247C204.947 255.03 235.699 258.991 235.725 264.077Z" fill="#D5E5F2"/>
<path d="M234.984 264.089C235.01 269.149 204.487 273.431 166.802 273.648C129.117 273.865 98.5431 269.929 98.5176 264.868C98.4921 259.808 129.015 255.527 166.7 255.309C204.385 255.092 234.959 259.028 234.984 264.089Z" fill="#D4E5F1"/>
<path d="M234.244 264.09C234.27 269.125 203.925 273.38 166.458 273.585C128.99 273.802 98.5945 269.891 98.5562 264.844C98.5306 259.808 128.875 255.553 166.343 255.348C203.81 255.131 234.206 259.042 234.244 264.09Z" fill="#D4E4F1"/>
<path d="M166.094 273.548C203.348 273.34 233.525 269.115 233.497 264.111C233.469 259.107 203.247 255.219 165.993 255.428C128.74 255.636 98.5622 259.861 98.5901 264.865C98.618 269.869 128.841 273.757 166.094 273.548Z" fill="#D3E4F1"/>
<path d="M232.763 264.104C232.789 269.075 202.789 273.279 165.755 273.497C128.722 273.701 98.6711 269.842 98.6455 264.858C98.62 259.886 128.62 255.682 165.653 255.465C202.687 255.26 232.738 259.12 232.763 264.104Z" fill="#D2E3F0"/>
<path d="M232.036 264.103C232.061 269.049 202.24 273.228 165.424 273.445C128.607 273.65 98.735 269.816 98.7095 264.857C98.684 259.912 128.505 255.733 165.322 255.516C202.138 255.311 232.01 259.145 232.036 264.103Z" fill="#D1E3F0"/>
<path d="M231.295 264.103C231.321 269.023 201.678 273.176 165.079 273.381C128.479 273.585 98.7858 269.764 98.7603 264.844C98.7347 259.924 128.377 255.771 164.977 255.566C201.576 255.362 231.27 259.183 231.295 264.103Z" fill="#D0E2F0"/>
<path d="M230.555 264.115C230.58 269.009 201.117 273.137 164.734 273.341C128.352 273.546 98.8371 269.75 98.8115 264.856C98.786 259.961 128.25 255.833 164.632 255.629C201.015 255.425 230.529 259.22 230.555 264.115Z" fill="#CFE2F0"/>
<path d="M229.814 264.114C229.84 268.97 200.542 273.085 164.389 273.29C128.236 273.494 98.8879 269.724 98.8623 264.855C98.8368 259.999 128.134 255.884 164.287 255.68C200.453 255.475 229.789 259.245 229.814 264.114Z" fill="#CEE1EF"/>
<path d="M229.074 264.114C229.099 268.945 199.981 273.021 164.045 273.226C128.096 273.43 98.9391 269.673 98.9136 264.842C98.8881 260.012 128.007 255.935 163.943 255.731C199.891 255.526 229.048 259.283 229.074 264.114Z" fill="#CEE1EF"/>
<path d="M228.333 264.129C228.359 268.934 199.419 272.985 163.7 273.19C127.968 273.394 98.9899 269.663 98.9644 264.858C98.9388 260.053 127.879 256.002 163.598 255.797C199.329 255.593 228.308 259.324 228.333 264.129Z" fill="#CDE0EF"/>
<path d="M227.593 264.129C227.619 268.896 198.857 272.934 163.343 273.138C127.828 273.343 99.0285 269.637 99.0029 264.857C98.9774 260.078 127.739 256.052 163.253 255.848C198.768 255.643 227.568 259.349 227.593 264.129Z" fill="#CCE0EF"/>
<path d="M226.852 264.129C226.878 268.87 198.295 272.883 162.998 273.074C127.713 273.279 99.0793 269.585 99.0537 264.844C99.0282 260.103 127.611 256.09 162.908 255.899C198.193 255.694 226.827 259.388 226.852 264.129Z" fill="#CBDFEE"/>
<path d="M162.645 273.046C197.72 272.85 226.132 268.869 226.106 264.154C226.08 259.44 197.625 255.777 162.55 255.973C127.474 256.169 99.0619 260.15 99.0882 264.865C99.1145 269.579 127.57 273.242 162.645 273.046Z" fill="#CADFEE"/>
<path d="M225.385 264.143C225.41 268.833 197.172 272.782 162.321 272.986C127.471 273.178 99.1945 269.548 99.169 264.858C99.1434 260.168 127.381 256.22 162.232 256.015C197.083 255.823 225.359 259.453 225.385 264.143Z" fill="#C9DEEE"/>
<path d="M224.644 264.142C224.67 268.794 196.61 272.73 161.977 272.922C127.343 273.114 99.2453 269.497 99.207 264.845C99.1815 260.194 127.241 256.258 161.874 256.066C196.508 255.874 224.618 259.491 224.644 264.142Z" fill="#C8DEED"/>
<path d="M161.61 272.885C196.029 272.692 223.911 268.789 223.885 264.166C223.859 259.543 195.936 255.951 161.517 256.144C127.097 256.336 99.2157 260.24 99.2415 264.863C99.2673 269.485 127.191 273.077 161.61 272.885Z" fill="#C7DDED"/>
<path d="M161.265 272.824C195.466 272.632 223.17 268.753 223.145 264.158C223.119 259.563 195.373 255.994 161.172 256.185C126.971 256.376 99.2669 260.256 99.2925 264.851C99.3181 269.445 127.064 273.015 161.265 272.824Z" fill="#C6DCED"/>
<path d="M222.423 264.153C222.448 268.716 194.925 272.575 160.943 272.767C126.96 272.958 99.3859 269.406 99.3604 264.843C99.3348 260.281 126.858 256.422 160.841 256.23C194.823 256.038 222.397 259.591 222.423 264.153Z" fill="#C6DCED"/>
<path d="M221.682 264.153C221.708 268.69 194.351 272.524 160.585 272.715C126.819 272.907 99.424 269.38 99.3985 264.843C99.3729 260.306 126.73 256.473 160.496 256.281C194.261 256.089 221.657 259.616 221.682 264.153Z" fill="#C5DBEC"/>
<path d="M160.23 272.688C193.775 272.5 220.949 268.692 220.924 264.182C220.898 259.672 193.684 256.168 160.139 256.356C126.594 256.543 99.4208 260.351 99.4459 264.861C99.4711 269.371 126.685 272.875 160.23 272.688Z" fill="#C4DBEC"/>
<path d="M220.202 264.168C220.227 268.654 193.228 272.436 159.896 272.615C126.565 272.807 99.5265 269.331 99.501 264.845C99.4755 260.36 126.475 256.577 159.807 256.398C193.138 256.206 220.176 259.682 220.202 264.168Z" fill="#C3DAEC"/>
<path d="M219.474 264.168C219.499 268.615 192.678 272.372 159.564 272.564C126.449 272.756 99.59 269.292 99.5645 264.845C99.5389 260.398 126.36 256.641 159.474 256.449C192.589 256.257 219.448 259.721 219.474 264.168Z" fill="#C2DAEB"/>
<path d="M218.734 264.179C218.759 268.601 192.117 272.332 159.219 272.524C126.322 272.716 99.6413 269.278 99.6157 264.856C99.5902 260.435 126.232 256.703 159.13 256.512C192.028 256.32 218.708 259.758 218.734 264.179Z" fill="#C1D9EB"/>
<path d="M217.993 264.178C218.018 268.574 191.542 272.28 158.874 272.459C126.194 272.638 99.6921 269.239 99.6665 264.842C99.641 260.446 126.117 256.74 158.785 256.561C191.466 256.383 217.967 259.782 217.993 264.178Z" fill="#C0D8EB"/>
<path d="M217.253 264.178C217.278 268.535 190.981 272.229 158.53 272.408C126.066 272.586 99.7433 269.2 99.7178 264.842C99.6923 260.484 125.99 256.791 158.441 256.612C190.904 256.433 217.227 259.82 217.253 264.178Z" fill="#BFD8EA"/>
<path d="M158.161 272.366C190.401 272.186 216.518 268.527 216.494 264.194C216.47 259.86 190.314 256.493 158.073 256.674C125.832 256.854 99.7154 260.513 99.7396 264.846C99.7638 269.18 125.92 272.547 158.161 272.366Z" fill="#BED7EA"/>
<path d="M215.772 264.193C215.797 268.499 189.857 272.129 157.828 272.308C125.798 272.487 99.8199 269.151 99.8071 264.844C99.7944 260.538 125.722 256.908 157.751 256.73C189.781 256.551 215.759 259.886 215.772 264.193Z" fill="#BDD7EA"/>
<path d="M215.031 264.192C215.057 268.461 189.295 272.077 157.483 272.256C125.683 272.435 99.8708 269.112 99.8452 264.844C99.8197 260.576 125.581 256.959 157.394 256.78C189.193 256.601 215.006 259.924 215.031 264.192Z" fill="#BCD6E9"/>
<path d="M214.291 264.204C214.317 268.447 188.734 272.038 157.138 272.217C125.556 272.395 99.922 269.098 99.8965 264.856C99.871 260.613 125.454 257.022 157.049 256.843C188.645 256.664 214.266 259.961 214.291 264.204Z" fill="#BBD5E9"/>
<path d="M213.564 264.204C213.589 268.421 188.172 271.986 156.807 272.152C125.441 272.331 99.986 269.06 99.9605 264.842C99.9349 260.625 125.352 257.06 156.717 256.894C188.083 256.715 213.538 259.986 213.564 264.204Z" fill="#BAD5E9"/>
<path d="M212.823 264.203C212.848 268.395 187.61 271.922 156.462 272.101C125.313 272.28 100.037 269.021 100.011 264.842C99.9857 260.651 125.224 257.123 156.372 256.945C187.521 256.766 212.797 260.024 212.823 264.203Z" fill="#B9D4E9"/>
<path d="M212.083 264.207C212.108 268.36 187.049 271.875 156.117 272.053C125.186 272.232 100.088 268.999 100.063 264.846C100.037 260.693 125.096 257.178 156.028 256.999C186.959 256.82 212.057 260.054 212.083 264.207Z" fill="#B8D4E8"/>
<path d="M211.342 264.218C211.367 268.346 186.487 271.835 155.772 272.001C125.058 272.18 100.139 268.972 100.113 264.844C100.088 260.717 124.968 257.228 155.683 257.062C186.397 256.883 211.316 260.091 211.342 264.218Z" fill="#B7D3E8"/>
<path d="M210.602 264.217C210.627 268.319 185.925 271.782 155.415 271.949C124.918 272.115 100.177 268.933 100.152 264.843C100.126 260.754 124.828 257.278 155.326 257.112C185.823 256.946 210.563 260.128 210.589 264.217H210.602Z" fill="#B6D2E8"/>
<path d="M209.861 264.217C209.887 268.281 185.351 271.718 155.07 271.897C124.79 272.063 100.228 268.907 100.203 264.843C100.177 260.779 124.713 257.341 154.994 257.163C185.274 256.996 209.836 260.153 209.861 264.217Z" fill="#B5D2E7"/>
<path d="M209.121 264.232C209.146 268.27 184.789 271.682 154.726 271.861C124.662 272.028 100.279 268.897 100.254 264.858C100.228 260.82 124.586 257.408 154.649 257.229C184.713 257.063 209.095 260.194 209.121 264.232Z" fill="#B4D1E7"/>
<path d="M154.366 271.801C184.21 271.634 208.385 268.249 208.362 264.24C208.34 260.231 184.129 257.117 154.285 257.284C124.441 257.451 100.266 260.836 100.289 264.845C100.311 268.853 124.522 271.968 154.366 271.801Z" fill="#B3D1E7"/>
<path d="M207.653 264.231C207.678 268.219 183.678 271.58 154.049 271.746C124.419 271.912 100.381 268.819 100.369 264.845C100.343 260.858 124.343 257.497 153.972 257.331C183.602 257.164 207.64 260.257 207.653 264.231Z" fill="#B2D0E6"/>
<path d="M206.912 264.243C206.938 268.192 183.117 271.54 153.704 271.706C124.292 271.872 100.433 268.805 100.42 264.856C100.394 260.907 124.215 257.559 153.628 257.393C183.04 257.227 206.9 260.294 206.912 264.243Z" fill="#B1CFE6"/>
<path d="M206.172 264.244C206.197 268.167 182.542 271.477 153.36 271.643C124.164 271.809 100.484 268.755 100.458 264.832C100.432 260.908 124.088 257.598 153.27 257.432C182.466 257.266 206.146 260.32 206.172 264.231V264.244Z" fill="#B0CFE6"/>
<path d="M205.432 264.243C205.457 268.141 181.981 271.425 153.015 271.592C124.037 271.758 100.535 268.729 100.509 264.831C100.484 260.934 123.96 257.649 152.926 257.483C181.904 257.317 205.406 260.346 205.432 264.243Z" fill="#AFCEE5"/>
<path d="M204.691 264.255C204.717 268.114 181.419 271.386 152.671 271.552C123.909 271.718 100.586 268.715 100.561 264.843C100.535 260.983 123.833 257.712 152.581 257.546C181.33 257.38 204.666 260.383 204.691 264.255Z" fill="#AECDE5"/>
<path d="M203.951 264.255C203.976 268.088 180.857 271.334 152.313 271.488C123.781 271.654 100.624 268.676 100.599 264.83C100.573 260.996 123.692 257.75 152.236 257.596C180.768 257.43 203.925 260.408 203.951 264.255Z" fill="#ADCDE5"/>
<path d="M151.964 271.442C180.285 271.284 203.226 268.072 203.205 264.268C203.184 260.464 180.208 257.508 151.887 257.666C123.566 257.825 100.625 261.037 100.646 264.841C100.667 268.645 123.643 271.601 151.964 271.442Z" fill="#ACCCE4"/>
<path d="M202.47 264.257C202.495 268.04 179.721 271.222 151.624 271.388C123.526 271.554 100.726 268.615 100.701 264.832C100.675 261.049 123.449 257.867 151.547 257.701C179.645 257.548 202.444 260.474 202.47 264.257Z" fill="#ABCCE4"/>
<path d="M201.742 264.268C201.768 268.013 179.172 271.182 151.292 271.335C123.411 271.489 100.79 268.588 100.765 264.831C100.739 261.086 123.335 257.917 151.215 257.764C179.096 257.61 201.717 260.511 201.742 264.268Z" fill="#AACBE4"/>
<path d="M201.002 264.268C201.027 267.987 178.61 271.131 150.947 271.284C123.283 271.437 100.841 268.549 100.815 264.83C100.79 261.112 123.207 257.968 150.87 257.814C178.534 257.661 200.976 260.549 201.002 264.268Z" fill="#A9CAE3"/>
<path d="M200.261 264.268C200.287 267.961 178.049 271.079 150.602 271.233C123.156 271.386 100.879 268.523 100.867 264.83C100.854 261.137 123.079 258.019 150.526 257.865C177.972 257.712 200.249 260.574 200.261 264.268Z" fill="#A8CAE3"/>
<path d="M199.521 264.283C199.547 267.938 177.487 271.031 150.258 271.184C123.028 271.337 100.931 268.5 100.918 264.833C100.892 261.178 122.952 258.085 150.181 257.932C177.411 257.778 199.508 260.615 199.521 264.283Z" fill="#A7C9E3"/>
<path d="M198.78 264.283C198.806 267.912 176.925 270.979 149.913 271.133C122.9 271.286 100.982 268.462 100.969 264.832C100.956 261.203 122.824 258.136 149.836 257.983C176.849 257.829 198.768 260.653 198.78 264.283Z" fill="#A6C8E2"/>
<path d="M198.04 264.282C198.066 267.886 176.351 270.928 149.556 271.081C122.76 271.234 101.02 268.436 101.007 264.832C100.995 261.228 122.696 258.187 149.492 258.033C176.287 257.88 198.028 260.679 198.04 264.282Z" fill="#A4C8E2"/>
<path d="M197.3 264.294C197.325 267.872 175.789 270.888 149.211 271.029C122.632 271.182 101.071 268.409 101.058 264.831C101.033 261.265 122.569 258.236 149.147 258.096C175.725 257.943 197.287 260.716 197.3 264.294Z" fill="#A3C7E2"/>
<path d="M196.56 264.294C196.585 267.834 175.228 270.824 148.866 270.977C122.505 271.131 101.122 268.37 101.097 264.83C101.071 261.29 122.428 258.3 148.79 258.147C175.151 257.993 196.534 260.754 196.56 264.294Z" fill="#A2C6E1"/>
<path d="M195.832 264.293C195.857 267.808 174.679 270.772 148.534 270.926C122.39 271.079 101.186 268.344 101.16 264.83C101.135 261.316 122.313 258.351 148.458 258.198C174.602 258.044 195.806 260.779 195.832 264.293Z" fill="#A1C6E1"/>
<path d="M195.091 264.308C195.117 267.796 174.117 270.736 148.19 270.876C122.262 271.017 101.237 268.32 101.211 264.832C101.186 261.343 122.186 258.404 148.113 258.263C174.04 258.122 195.066 260.819 195.091 264.308Z" fill="#A0C5E0"/>
<path d="M194.351 264.307C194.376 267.758 173.542 270.684 147.845 270.825C122.134 270.965 101.288 268.282 101.262 264.831C101.237 261.381 122.071 258.454 147.768 258.314C173.478 258.173 194.325 260.857 194.351 264.307Z" fill="#9FC4E0"/>
<path d="M193.61 264.308C193.636 267.733 172.981 270.621 147.5 270.774C122.007 270.915 101.339 268.257 101.314 264.832C101.288 261.407 121.943 258.519 147.424 258.366C172.904 258.212 193.585 260.883 193.61 264.308Z" fill="#9EC4E0"/>
<path d="M192.87 264.319C192.896 267.718 172.419 270.58 147.156 270.721C121.879 270.862 101.39 268.229 101.365 264.83C101.339 261.43 121.816 258.568 147.079 258.427C172.356 258.287 192.845 260.919 192.87 264.319Z" fill="#9DC3DF"/>
<path d="M192.13 264.318C192.142 267.679 171.857 270.529 146.798 270.67C121.752 270.81 101.416 268.19 101.403 264.829C101.39 261.468 121.675 258.619 146.734 258.478C171.781 258.337 192.117 260.957 192.13 264.318Z" fill="#9CC2DF"/>
<path d="M191.389 264.322C191.402 267.657 171.296 270.482 146.454 270.622C121.624 270.763 101.467 268.168 101.454 264.833C101.441 261.498 121.548 258.673 146.39 258.533C171.219 258.392 191.377 260.986 191.389 264.322Z" fill="#9AC2DF"/>
<path d="M190.649 264.322C190.661 267.631 170.721 270.43 146.109 270.558C121.496 270.698 101.518 268.13 101.505 264.82C101.492 261.51 121.432 258.711 146.045 258.584C170.657 258.443 190.636 261.012 190.649 264.322Z" fill="#99C1DE"/>
<path d="M189.908 264.333C189.921 267.617 170.16 270.378 145.764 270.518C121.369 270.659 101.569 268.116 101.556 264.831C101.543 261.547 121.305 258.787 145.7 258.646C170.096 258.506 189.896 261.049 189.908 264.333Z" fill="#98C0DE"/>
<path d="M189.181 264.333C189.194 267.579 169.611 270.326 145.432 270.467C121.254 270.607 101.633 268.077 101.62 264.831C101.607 261.585 121.19 258.838 145.369 258.697C169.547 258.556 189.168 261.087 189.181 264.333Z" fill="#97BFDE"/>
<path d="M145.065 270.424C169.029 270.29 188.441 267.572 188.423 264.354C188.405 261.135 168.964 258.635 145 258.769C121.036 258.903 101.624 261.621 101.642 264.839C101.66 268.057 121.101 270.558 145.065 270.424Z" fill="#96BFDD"/>
<path d="M187.7 264.347C187.713 267.542 168.487 270.238 144.743 270.366C120.999 270.494 101.735 268.027 101.722 264.832C101.709 261.638 120.935 258.941 144.679 258.813C168.424 258.686 187.687 261.152 187.7 264.347Z" fill="#95BEDD"/>
<path d="M186.959 264.347C186.972 267.503 167.913 270.174 144.398 270.314C120.871 270.442 101.786 267.989 101.76 264.832C101.747 261.676 120.807 259.005 144.322 258.864C167.849 258.736 186.934 261.19 186.959 264.347Z" fill="#94BDDC"/>
<path d="M186.219 264.344C186.232 267.475 167.351 270.121 144.041 270.248C120.731 270.376 101.824 267.948 101.799 264.817C101.786 261.686 120.667 259.041 143.977 258.9C167.287 258.76 186.194 261.201 186.219 264.332V264.344Z" fill="#92BDDC"/>
<path d="M185.479 264.358C185.491 267.463 166.789 270.083 143.696 270.211C120.603 270.338 101.875 267.936 101.85 264.83C101.824 261.725 120.539 259.105 143.632 258.978C166.726 258.85 185.453 261.252 185.479 264.358Z" fill="#91BCDC"/>
<path d="M184.738 264.357C184.751 267.437 166.228 270.031 143.352 270.159C120.475 270.287 101.926 267.897 101.901 264.83C101.888 261.75 120.411 259.156 143.288 259.028C166.164 258.901 184.713 261.29 184.738 264.357Z" fill="#90BBDB"/>
<path d="M183.998 264.357C184.01 267.399 165.666 269.98 143.007 270.108C120.347 270.236 101.964 267.871 101.952 264.83C101.939 261.788 120.283 259.207 142.943 259.079C165.602 258.951 183.985 261.316 183.998 264.357Z" fill="#8FBADB"/>
<path d="M183.27 264.372C183.283 267.388 165.117 269.931 142.675 270.059C120.232 270.187 102.028 267.848 102.016 264.832C102.003 261.817 120.169 259.273 142.611 259.146C165.053 259.018 183.257 261.356 183.27 264.372Z" fill="#8EBADB"/>
<path d="M182.53 264.372C182.543 267.362 164.543 269.88 142.33 270.008C120.105 270.136 102.08 267.81 102.067 264.832C102.054 261.855 120.054 259.324 142.266 259.196C164.492 259.069 182.517 261.394 182.53 264.372Z" fill="#8DB9DA"/>
<path d="M181.789 264.372C181.802 267.324 163.981 269.829 141.985 269.956C119.977 270.084 102.13 267.784 102.118 264.832C102.105 261.88 119.926 259.375 141.922 259.247C163.93 259.119 181.776 261.42 181.789 264.372Z" fill="#8BB8DA"/>
<path d="M181.049 264.383C181.062 267.31 163.419 269.789 141.628 269.904C119.85 270.032 102.169 267.757 102.156 264.831C102.143 261.904 119.786 259.425 141.564 259.31C163.343 259.182 181.023 261.457 181.036 264.383H181.049Z" fill="#8AB8D9"/>
<path d="M141.27 269.868C162.837 269.748 180.307 267.298 180.291 264.398C180.275 261.497 162.778 259.243 141.212 259.364C119.645 259.484 102.175 261.934 102.191 264.834C102.207 267.735 119.704 269.989 141.27 269.868Z" fill="#89B7D9"/>
<path d="M179.568 264.386C179.581 267.261 162.296 269.676 140.939 269.804C119.594 269.919 102.271 267.695 102.258 264.833C102.246 261.958 119.53 259.542 140.888 259.414C162.232 259.299 179.555 261.523 179.568 264.386Z" fill="#88B6D9"/>
<path d="M178.827 264.385C178.84 267.222 161.721 269.625 140.594 269.74C119.466 269.855 102.322 267.657 102.309 264.82C102.296 261.983 119.415 259.58 140.543 259.465C161.67 259.35 178.815 261.548 178.827 264.385Z" fill="#87B5D8"/>
<path d="M178.087 264.397C178.1 267.208 161.16 269.585 140.249 269.7C119.339 269.815 102.373 267.63 102.36 264.831C102.348 262.02 119.288 259.643 140.198 259.528C161.109 259.413 178.074 261.598 178.087 264.397Z" fill="#85B5D8"/>
<path d="M177.359 264.398C177.372 267.183 160.611 269.522 139.917 269.65C119.224 269.765 102.437 267.605 102.411 264.819C102.398 262.033 119.16 259.695 139.853 259.567C160.547 259.452 177.334 261.612 177.359 264.398Z" fill="#84B4D8"/>
<path d="M176.619 264.397C176.632 267.145 160.049 269.471 139.573 269.586C119.096 269.701 102.488 267.567 102.462 264.806C102.45 262.059 119.032 259.733 139.509 259.618C159.985 259.503 176.594 261.637 176.619 264.397Z" fill="#83B3D7"/>
<path d="M175.879 264.409C175.892 267.131 159.488 269.431 139.228 269.546C118.969 269.661 102.526 267.54 102.514 264.818C102.501 262.096 118.905 259.795 139.164 259.68C159.424 259.565 175.866 261.687 175.879 264.409Z" fill="#82B2D7"/>
<path d="M175.138 264.408C175.151 267.105 158.913 269.38 138.883 269.495C118.841 269.61 102.577 267.514 102.564 264.817C102.552 262.121 118.79 259.846 138.819 259.731C158.862 259.616 175.125 261.712 175.138 264.408Z" fill="#81B2D6"/>
<path d="M174.398 264.408C174.411 267.066 158.351 269.328 138.526 269.43C118.701 269.545 102.616 267.475 102.603 264.804C102.59 262.146 118.65 259.884 138.475 259.782C158.3 259.667 174.385 261.737 174.398 264.408Z" fill="#7FB1D6"/>
<path d="M173.657 264.423C173.67 267.056 157.789 269.28 138.181 269.395C118.573 269.51 102.667 267.465 102.654 264.82C102.641 262.187 118.522 259.963 138.13 259.848C157.738 259.733 173.645 261.778 173.657 264.423Z" fill="#7EB0D6"/>
<path d="M172.917 264.423C172.93 267.03 157.228 269.228 137.837 269.343C118.445 269.458 102.718 267.426 102.705 264.819C102.692 262.212 118.394 260.014 137.786 259.899C157.177 259.784 172.904 261.816 172.917 264.423Z" fill="#7DAFD5"/>
<path d="M172.176 264.422C172.189 267.003 156.666 269.176 137.492 269.278C118.317 269.38 102.769 267.387 102.756 264.805C102.743 262.224 118.266 260.051 137.441 259.949C156.615 259.847 172.164 261.84 172.176 264.422Z" fill="#7CAFD5"/>
<path d="M171.449 264.433C171.462 266.976 156.104 269.136 137.16 269.238C118.203 269.341 102.833 267.373 102.82 264.817C102.807 262.274 118.164 260.114 137.109 260.012C156.066 259.909 171.436 261.877 171.449 264.433Z" fill="#7AAED4"/>
<path d="M136.786 269.204C155.518 269.1 170.692 266.972 170.678 264.452C170.664 261.933 155.467 259.975 136.735 260.08C118.002 260.185 102.828 262.312 102.842 264.832C102.856 267.351 118.053 269.309 136.786 269.204Z" fill="#79ADD4"/>
<path d="M169.968 264.437C169.981 266.929 154.981 269.024 136.47 269.127C117.96 269.229 102.935 267.299 102.922 264.807C102.909 262.315 117.909 260.219 136.419 260.117C154.93 260.015 169.955 261.945 169.968 264.437Z" fill="#78ACD4"/>
<path d="M169.228 264.448C169.241 266.902 154.419 268.985 136.126 269.087C117.833 269.189 102.986 267.285 102.973 264.819C102.96 262.365 117.782 260.282 136.075 260.18C154.368 260.077 169.215 261.982 169.228 264.448Z" fill="#77ACD3"/>
<path d="M168.487 264.448C168.5 266.876 153.858 268.933 135.768 269.036C117.692 269.138 103.024 267.246 102.999 264.818C102.973 262.39 117.628 260.333 135.717 260.231C153.807 260.128 168.462 262.02 168.474 264.448H168.487Z" fill="#75ABD3"/>
<path d="M167.747 264.447C167.76 266.85 153.296 268.882 135.424 268.971C117.565 269.074 103.063 267.208 103.05 264.805C103.037 262.403 117.501 260.371 135.373 260.281C153.232 260.179 167.734 262.045 167.747 264.447Z" fill="#74AAD2"/>
<path d="M167.006 264.447C167.019 266.824 152.721 268.818 135.079 268.92C117.437 269.022 103.113 267.182 103.101 264.805C103.088 262.428 117.386 260.434 135.028 260.332C152.67 260.23 166.994 262.07 167.006 264.447Z" fill="#73A9D2"/>
<path d="M166.266 264.462C166.279 266.801 152.16 268.782 134.735 268.884C117.309 268.986 103.165 267.159 103.152 264.82C103.139 262.482 117.258 260.501 134.683 260.399C152.109 260.296 166.253 262.124 166.266 264.462Z" fill="#72A8D2"/>
<path d="M165.539 264.462C165.551 266.775 151.611 268.73 134.403 268.82C117.194 268.922 103.229 267.12 103.216 264.807C103.203 262.494 117.143 260.539 134.352 260.449C151.56 260.347 165.526 262.149 165.539 264.462Z" fill="#70A8D1"/>
<path d="M164.798 264.462C164.811 266.749 151.049 268.679 134.058 268.769C117.066 268.871 103.279 267.094 103.267 264.807C103.254 262.519 117.015 260.59 134.007 260.5C150.998 260.398 164.785 262.174 164.798 264.462Z" fill="#6FA7D1"/>
<path d="M164.058 264.472C164.058 266.722 150.488 268.626 133.713 268.728C116.939 268.817 103.331 267.067 103.318 264.817C103.318 262.568 116.888 260.664 133.662 260.562C150.437 260.472 164.045 262.223 164.058 264.472Z" fill="#6EA6D0"/>
<path d="M163.317 264.473C163.317 266.697 149.913 268.575 133.368 268.665C116.811 268.754 103.381 267.029 103.369 264.805C103.356 262.582 116.773 260.703 133.33 260.601C149.887 260.512 163.317 262.237 163.33 264.46L163.317 264.473Z" fill="#6CA5D0"/>
<path d="M162.577 264.472C162.577 266.67 149.351 268.523 133.011 268.612C116.671 268.702 103.42 267.002 103.407 264.804C103.407 262.606 116.633 260.753 132.973 260.664C149.313 260.574 162.564 262.274 162.577 264.472Z" fill="#6BA5CF"/>
<path d="M161.836 264.487C161.836 266.66 148.789 268.487 132.666 268.577C116.543 268.666 103.471 266.979 103.458 264.819C103.458 262.647 116.505 260.819 132.628 260.73C148.751 260.641 161.823 262.327 161.836 264.487Z" fill="#6AA4CF"/>
<path d="M161.096 264.487C161.096 266.621 148.228 268.436 132.322 268.525C116.416 268.615 103.522 266.953 103.509 264.819C103.509 262.685 116.377 260.87 132.283 260.781C148.19 260.691 161.083 262.353 161.096 264.487Z" fill="#68A3CF"/>
<path d="M160.355 264.487C160.355 266.595 147.666 268.371 131.977 268.461C116.288 268.55 103.573 266.915 103.56 264.806C103.56 262.697 116.249 260.921 131.938 260.832C147.628 260.742 160.342 262.378 160.355 264.487Z" fill="#67A2CE"/>
<path d="M159.615 264.498C159.615 266.581 147.092 268.332 131.632 268.421C116.16 268.511 103.611 266.901 103.611 264.817C103.611 262.734 116.135 260.984 131.594 260.894C147.066 260.805 159.615 262.415 159.615 264.498Z" fill="#66A1CE"/>
<path d="M158.888 264.498C158.888 266.542 146.543 268.28 131.301 268.37C116.045 268.459 103.675 266.862 103.663 264.817C103.663 262.772 116.007 261.034 131.25 260.945C146.505 260.856 158.875 262.453 158.888 264.498Z" fill="#65A1CD"/>
<path d="M158.147 264.497C158.147 266.517 145.981 268.229 130.956 268.306C115.93 268.395 103.726 266.823 103.713 264.804C103.701 262.785 115.879 261.073 130.905 260.996C145.93 260.906 158.134 262.478 158.147 264.497Z" fill="#63A0CD"/>
<path d="M157.407 264.513C157.407 266.506 145.42 268.18 130.611 268.27C115.803 268.359 103.777 266.813 103.765 264.819C103.765 262.826 115.752 261.152 130.56 261.062C145.368 260.973 157.394 262.519 157.407 264.513Z" fill="#629FCC"/>
<path d="M156.666 264.512C156.666 266.468 144.858 268.129 130.254 268.218C115.662 268.295 103.816 266.774 103.803 264.819C103.803 262.864 115.611 261.203 130.215 261.113C144.819 261.024 156.653 262.557 156.666 264.512Z" fill="#619ECC"/>
<path d="M129.899 268.182C144.275 268.101 155.92 266.468 155.909 264.535C155.898 262.601 144.236 261.098 129.86 261.179C115.485 261.259 103.84 262.892 103.851 264.826C103.861 266.76 115.524 268.262 129.899 268.182Z" fill="#5F9DCC"/>
<path d="M155.185 264.511C155.185 266.415 143.721 268.025 129.564 268.102C115.407 268.179 103.918 266.709 103.905 264.805C103.892 262.901 115.369 261.29 129.526 261.214C143.683 261.137 155.172 262.607 155.185 264.511Z" fill="#5E9CCB"/>
<path d="M154.445 264.526C154.445 266.405 143.16 267.977 129.22 268.066C115.279 268.143 103.969 266.686 103.956 264.82C103.956 262.942 115.241 261.37 129.181 261.28C143.122 261.204 154.432 262.66 154.445 264.526Z" fill="#5D9CCB"/>
<path d="M153.705 264.526C153.705 266.366 142.598 267.925 128.875 268.002C115.152 268.079 104.02 266.647 104.007 264.807C104.007 262.967 115.114 261.408 128.837 261.331C142.56 261.254 153.692 262.686 153.705 264.526Z" fill="#5B9BCA"/>
<path d="M152.977 264.526C152.977 266.34 142.049 267.874 128.543 267.951C115.037 268.027 104.084 266.621 104.071 264.807C104.058 262.992 114.998 261.459 128.505 261.382C142.011 261.305 152.964 262.711 152.977 264.526Z" fill="#5A9ACA"/>
<path d="M152.236 264.537C152.236 266.326 141.488 267.834 128.198 267.911C114.909 267.987 104.135 266.595 104.122 264.818C104.109 263.042 114.871 261.521 128.16 261.444C141.449 261.368 152.224 262.761 152.236 264.537Z" fill="#5899C9"/>
<path d="M151.496 264.537C151.496 266.288 140.913 267.783 127.841 267.847C114.769 267.923 104.16 266.556 104.16 264.805C104.16 263.054 114.743 261.559 127.815 261.495C140.887 261.419 151.496 262.786 151.496 264.537Z" fill="#5798C9"/>
<path d="M150.756 264.536C150.756 266.262 140.351 267.719 127.496 267.795C114.641 267.872 104.211 266.53 104.211 264.805C104.211 263.08 114.616 261.623 127.471 261.546C140.326 261.469 150.756 262.811 150.756 264.536Z" fill="#5697C9"/>
<path d="M150.015 264.552C150.015 266.251 139.789 267.683 127.151 267.759C114.513 267.836 104.262 266.507 104.262 264.82C104.262 263.121 114.488 261.689 127.126 261.613C139.764 261.536 150.015 262.865 150.015 264.552Z" fill="#5497C8"/>
<path d="M149.275 264.552C149.275 266.226 139.228 267.631 126.807 267.695C114.386 267.759 104.314 266.469 104.301 264.794C104.301 263.12 114.347 261.715 126.769 261.651C139.19 261.587 149.262 262.878 149.275 264.552Z" fill="#5396C8"/>
<path d="M148.534 264.551C148.534 266.187 138.666 267.58 126.462 267.644C114.258 267.708 104.364 266.443 104.352 264.794C104.352 263.158 114.22 261.765 126.424 261.702C138.628 261.638 148.521 262.903 148.534 264.551Z" fill="#5295C7"/>
<path d="M147.794 264.563C147.794 266.173 138.092 267.528 126.117 267.604C114.13 267.668 104.416 266.416 104.403 264.806C104.403 263.195 114.105 261.841 126.079 261.764C138.066 261.7 147.781 262.953 147.794 264.563Z" fill="#5094C7"/>
<path d="M147.066 264.562C147.066 266.147 137.543 267.476 125.786 267.54C114.028 267.604 104.48 266.377 104.467 264.792C104.467 263.208 113.99 261.879 125.747 261.815C137.505 261.751 147.054 262.978 147.066 264.562Z" fill="#4F93C6"/>
<path d="M146.326 264.562C146.326 266.108 136.981 267.425 125.441 267.489C113.9 267.553 104.53 266.351 104.518 264.792C104.518 263.246 113.862 261.93 125.402 261.866C136.943 261.802 146.313 263.003 146.326 264.562Z" fill="#4E92C6"/>
<path d="M145.585 264.562C145.585 266.083 136.42 267.373 125.096 267.437C113.773 267.501 104.582 266.313 104.569 264.792C104.556 263.271 113.735 261.98 125.058 261.917C136.381 261.853 145.573 263.041 145.585 264.562Z" fill="#4C92C5"/>
<path d="M144.845 264.576C144.845 266.072 135.858 267.337 124.739 267.388C113.62 267.439 104.62 266.289 104.607 264.794C104.594 263.298 113.594 262.033 124.713 261.982C135.832 261.931 144.832 263.081 144.845 264.576Z" fill="#4B91C5"/>
<path d="M144.105 264.577C144.105 266.047 135.283 267.273 124.394 267.337C113.505 267.401 104.671 266.264 104.658 264.794C104.658 263.325 113.479 262.098 124.369 262.034C135.258 261.97 144.092 263.107 144.105 264.577Z" fill="#4990C5"/>
<path d="M143.364 264.577C143.364 266.008 134.721 267.222 124.049 267.286C113.377 267.35 104.709 266.238 104.709 264.794C104.709 263.363 113.351 262.149 124.024 262.085C134.696 262.021 143.364 263.133 143.364 264.577Z" fill="#488FC4"/>
<path d="M123.69 267.246C134.146 267.187 142.615 266.001 142.607 264.597C142.6 263.192 134.117 262.101 123.662 262.16C113.206 262.218 104.737 263.404 104.745 264.809C104.752 266.213 113.235 267.304 123.69 267.246Z" fill="#478EC4"/>
<path d="M141.883 264.588C141.883 265.968 133.598 267.131 123.36 267.182C113.122 267.246 104.812 266.172 104.812 264.792C104.812 263.412 113.097 262.249 123.335 262.198C133.573 262.134 141.883 263.208 141.883 264.588Z" fill="#458DC3"/>
<path d="M141.155 264.587C141.155 265.928 133.049 267.066 123.028 267.13C113.007 267.181 104.875 266.146 104.875 264.791C104.875 263.449 112.981 262.312 123.002 262.248C133.024 262.197 141.155 263.232 141.155 264.587Z" fill="#448CC3"/>
<path d="M140.415 264.602C140.415 265.918 132.488 267.03 122.684 267.094C112.879 267.145 104.926 266.123 104.926 264.806C104.926 263.49 112.854 262.378 122.658 262.314C132.462 262.263 140.415 263.286 140.415 264.602Z" fill="#428CC2"/>
<path d="M139.675 264.602C139.675 265.892 131.913 266.979 122.339 267.03C112.752 267.081 104.977 266.084 104.964 264.793C104.964 263.503 112.726 262.416 122.313 262.365C131.9 262.314 139.675 263.311 139.687 264.602H139.675Z" fill="#418BC2"/>
<path d="M138.935 264.601C138.935 265.866 131.352 266.927 121.981 266.978C112.611 267.029 105.016 266.058 105.003 264.793C104.99 263.528 112.586 262.467 121.956 262.416C131.326 262.365 138.922 263.336 138.935 264.601Z" fill="#3F8AC1"/>
<path d="M138.194 264.613C138.194 265.839 130.79 266.875 121.637 266.939C112.483 266.99 105.066 266.031 105.054 264.804C105.041 263.578 112.458 262.542 121.611 262.479C130.764 262.427 138.181 263.386 138.194 264.613Z" fill="#3E89C1"/>
<path d="M137.454 264.612C137.454 265.814 130.228 266.823 121.292 266.874C112.356 266.925 105.118 265.993 105.105 264.791C105.092 263.59 112.33 262.58 121.267 262.529C130.203 262.478 137.441 263.411 137.454 264.612Z" fill="#3D88C0"/>
<path d="M136.713 264.612C136.713 265.788 129.667 266.772 120.948 266.823C112.229 266.874 105.169 265.967 105.156 264.791C105.156 263.615 112.203 262.631 120.922 262.58C129.641 262.529 136.701 263.436 136.713 264.612Z" fill="#3B87C0"/>
<path d="M135.973 264.627C135.973 265.765 129.092 266.736 120.603 266.787C112.101 266.838 105.22 265.944 105.207 264.806C105.207 263.669 112.088 262.698 120.577 262.647C129.079 262.596 135.96 263.49 135.973 264.627Z" fill="#3A86C0"/>
<path d="M135.245 264.627C135.245 265.739 128.543 266.685 120.271 266.723C111.999 266.761 105.271 265.905 105.271 264.793C105.271 263.681 111.973 262.736 120.245 262.697C128.518 262.646 135.245 263.515 135.245 264.627Z" fill="#3885BF"/>
<path d="M119.896 266.677C127.954 266.631 134.482 265.72 134.476 264.64C134.47 263.56 127.932 262.721 119.874 262.766C111.815 262.811 105.288 263.723 105.294 264.803C105.3 265.883 111.837 266.722 119.896 266.677Z" fill="#3784BF"/>
<path d="M133.764 264.626C133.764 265.674 127.42 266.568 119.569 266.619C111.731 266.658 105.36 265.84 105.36 264.792C105.36 263.744 111.705 262.849 119.543 262.798C127.381 262.76 133.752 263.578 133.752 264.626H133.764Z" fill="#3584BE"/>
<path d="M133.024 264.641C133.024 265.663 126.858 266.532 119.224 266.571C111.603 266.609 105.411 265.817 105.411 264.794C105.411 263.772 111.577 262.903 119.211 262.865C126.832 262.826 133.024 263.619 133.024 264.641Z" fill="#3483BE"/>
<path d="M132.283 264.641C132.283 265.637 126.283 266.481 118.879 266.519C111.475 266.558 105.462 265.791 105.462 264.794C105.462 263.797 111.462 262.954 118.867 262.915C126.271 262.877 132.283 263.644 132.283 264.641Z" fill="#3282BD"/>
<path d="M131.543 264.64C131.543 265.612 125.722 266.417 118.535 266.468C111.348 266.506 105.514 265.752 105.514 264.794C105.514 263.822 111.335 263.017 118.522 262.966C125.709 262.928 131.543 263.682 131.543 264.64Z" fill="#3181BD"/>
<path d="M130.802 264.652C130.802 265.585 125.16 266.377 118.19 266.415C111.22 266.454 105.564 265.725 105.564 264.792C105.564 263.859 111.207 263.067 118.177 263.029C125.147 262.99 130.802 263.719 130.802 264.652Z" fill="#2F80BC"/>
<path d="M130.062 264.651C130.062 265.559 124.599 266.326 117.845 266.364C111.092 266.402 105.616 265.699 105.603 264.792C105.603 263.885 111.067 263.118 117.82 263.08C124.573 263.041 130.05 263.744 130.062 264.651Z" fill="#2E7FBC"/>
<path d="M129.334 264.651C129.334 265.533 124.049 266.274 117.513 266.313C110.977 266.351 105.679 265.674 105.667 264.792C105.667 263.91 110.952 263.169 117.488 263.13C124.024 263.092 129.322 263.769 129.334 264.651Z" fill="#2C7EBB"/>
<path d="M128.594 264.667C128.594 265.51 123.475 266.238 117.169 266.264C110.85 266.302 105.731 265.638 105.718 264.794C105.718 263.951 110.824 263.222 117.143 263.197C123.462 263.159 128.581 263.823 128.594 264.667Z" fill="#2B7DBB"/>
<path d="M127.853 264.666C127.853 265.484 122.913 266.174 116.824 266.213C110.722 266.251 105.781 265.612 105.769 264.794C105.756 263.976 110.709 263.286 116.811 263.248C122.913 263.209 127.853 263.848 127.866 264.666H127.853Z" fill="#2A7CBA"/>
<path d="M127.113 264.666C127.113 265.458 122.352 266.123 116.467 266.161C110.582 266.2 105.807 265.586 105.807 264.794C105.807 264.001 110.569 263.337 116.454 263.299C122.339 263.26 127.113 263.874 127.113 264.666Z" fill="#287BBA"/>
<path d="M126.373 264.676C126.373 265.443 121.79 266.082 116.122 266.108C110.454 266.133 105.858 265.545 105.858 264.791C105.858 264.025 110.441 263.386 116.109 263.36C121.777 263.335 126.373 263.922 126.373 264.676Z" fill="#277BB9"/>
<path d="M125.632 264.676C125.632 265.405 121.228 266.031 115.777 266.056C110.326 266.082 105.909 265.52 105.909 264.791C105.909 264.063 110.313 263.437 115.764 263.411C121.215 263.385 125.632 263.948 125.632 264.676Z" fill="#257AB9"/>
<path d="M124.892 264.68C124.892 265.383 120.667 265.97 115.433 266.009C110.199 266.047 105.96 265.498 105.96 264.795C105.96 264.092 110.186 263.504 115.42 263.466C120.654 263.44 124.892 263.977 124.892 264.68Z" fill="#2479B8"/>
<path d="M124.151 264.691C124.151 265.368 120.092 265.931 115.088 265.956C110.084 265.982 106.011 265.458 106.011 264.793C106.011 264.116 110.071 263.554 115.075 263.528C120.079 263.503 124.151 264.027 124.151 264.691Z" fill="#2278B8"/>
<path d="M123.411 264.691C123.411 265.33 119.53 265.879 114.743 265.905C109.956 265.93 106.062 265.432 106.062 264.793C106.062 264.154 109.943 263.605 114.73 263.579C119.518 263.554 123.411 264.052 123.411 264.691Z" fill="#2177B7"/>
<path d="M122.684 264.691C122.684 265.304 118.982 265.828 114.411 265.854C109.841 265.879 106.126 265.406 106.126 264.793C106.126 264.179 109.829 263.655 114.399 263.63C118.969 263.604 122.684 264.077 122.684 264.691Z" fill="#1F76B7"/>
<path d="M121.943 264.69C121.943 265.278 118.42 265.777 114.067 265.789C109.713 265.815 106.177 265.355 106.177 264.78C106.177 264.192 109.701 263.693 114.054 263.681C118.407 263.655 121.943 264.115 121.943 264.69Z" fill="#1E75B6"/>
<path d="M121.203 264.702C121.203 265.264 117.858 265.724 113.709 265.75C109.56 265.775 106.215 265.341 106.203 264.791C106.19 264.242 109.547 263.769 113.696 263.743C117.845 263.718 121.19 264.152 121.203 264.714V264.702Z" fill="#1C74B6"/>
<path d="M120.462 264.703C120.462 265.226 117.284 265.674 113.365 265.699C109.445 265.725 106.267 265.316 106.254 264.779C106.241 264.242 109.433 263.808 113.352 263.782C117.271 263.757 120.45 264.166 120.462 264.703Z" fill="#1A73B6"/>
<path d="M119.722 264.705C119.722 265.204 116.722 265.625 113.02 265.638C109.318 265.651 106.318 265.268 106.305 264.769C106.305 264.271 109.305 263.849 113.007 263.836C116.709 263.823 119.709 264.207 119.722 264.705Z" fill="#1972B5"/>
<path d="M118.981 264.718C118.981 265.19 116.16 265.587 112.675 265.599C109.19 265.625 106.356 265.254 106.356 264.781C106.356 264.309 109.177 263.912 112.662 263.9C116.147 263.874 118.981 264.245 118.981 264.718Z" fill="#1771B5"/>
<path d="M118.241 264.716C118.241 265.151 115.599 265.521 112.331 265.547C109.063 265.56 106.407 265.228 106.407 264.78C106.407 264.346 109.05 263.975 112.318 263.95C115.586 263.937 118.241 264.269 118.241 264.716Z" fill="#1670B4"/>
<path d="M117.5 264.716C117.5 265.125 115.037 265.47 111.986 265.496C108.935 265.508 106.458 265.189 106.458 264.78C106.458 264.371 108.922 264.026 111.973 264C115.024 263.988 117.5 264.307 117.5 264.716Z" fill="#146FB4"/>
<path d="M116.773 264.727C116.773 265.111 114.475 265.43 111.654 265.443C108.82 265.456 106.522 265.162 106.522 264.779C106.522 264.395 108.82 264.076 111.641 264.063C114.462 264.05 116.773 264.344 116.773 264.727Z" fill="#136EB3"/>
<path d="M116.033 264.727C116.033 265.072 113.914 265.379 111.309 265.392C108.692 265.404 106.573 265.136 106.573 264.778C106.573 264.433 108.692 264.126 111.297 264.114C113.914 264.101 116.033 264.369 116.033 264.727Z" fill="#116EB3"/>
<path d="M115.292 264.731C115.292 265.05 113.352 265.319 110.952 265.344C108.552 265.37 106.611 265.101 106.611 264.782C106.611 264.462 108.552 264.194 110.952 264.168C113.352 264.156 115.292 264.411 115.292 264.731Z" fill="#106DB2"/>
<path d="M114.552 264.742C114.552 265.036 112.79 265.278 110.607 265.291C108.424 265.291 106.663 265.074 106.663 264.78C106.663 264.486 108.424 264.243 110.607 264.23C112.79 264.23 114.552 264.448 114.552 264.742Z" fill="#0E6CB2"/>
<path d="M113.811 264.741C113.811 265.01 112.228 265.227 110.262 265.24C108.296 265.24 106.713 265.048 106.713 264.78C106.713 264.511 108.296 264.294 110.262 264.281C112.228 264.281 113.811 264.473 113.811 264.741Z" fill="#0D6BB1"/>
<path d="M113.071 264.741C113.071 264.971 111.667 265.175 109.918 265.188C108.169 265.201 106.765 265.022 106.765 264.779C106.765 264.549 108.169 264.345 109.918 264.332C111.667 264.332 113.071 264.498 113.071 264.741Z" fill="#0B6AB1"/>
<path d="M112.33 264.756C112.33 264.961 111.092 265.14 109.573 265.14C108.054 265.14 106.815 264.986 106.815 264.782C106.815 264.577 108.054 264.398 109.573 264.398C111.092 264.398 112.33 264.552 112.33 264.756Z" fill="#0969B0"/>
<path d="M111.59 264.753C111.59 264.932 110.531 265.072 109.228 265.085C107.926 265.085 106.867 264.957 106.854 264.778C106.854 264.599 107.914 264.459 109.216 264.446C110.518 264.433 111.577 264.574 111.59 264.753Z" fill="#0868B0"/>
<path d="M110.862 264.756C110.862 264.896 109.981 265.024 108.896 265.037C107.811 265.05 106.917 264.935 106.917 264.781C106.917 264.641 107.798 264.513 108.883 264.5C109.969 264.5 110.862 264.602 110.862 264.756Z" fill="#0667AF"/>
<path d="M110.122 264.755C110.122 264.87 109.42 264.973 108.552 264.973C107.684 264.973 106.969 264.883 106.969 264.768C106.969 264.653 107.671 264.551 108.539 264.551C109.407 264.551 110.122 264.64 110.122 264.755Z" fill="#0566AF"/>
<path d="M109.381 264.767C109.381 264.856 108.858 264.933 108.194 264.933C107.543 264.933 107.007 264.869 107.007 264.779C107.007 264.69 107.53 264.613 108.194 264.613C108.845 264.613 109.381 264.677 109.381 264.767Z" fill="#0365AE"/>
<path d="M108.641 264.766C108.641 264.766 108.284 264.869 107.85 264.881C107.416 264.881 107.058 264.843 107.058 264.779C107.058 264.715 107.416 264.677 107.85 264.664C108.284 264.664 108.641 264.702 108.641 264.766Z" fill="#0264AE"/>
<path d="M107.901 264.766C107.901 264.766 107.722 264.817 107.505 264.817C107.288 264.817 107.109 264.792 107.109 264.766C107.109 264.74 107.288 264.715 107.505 264.715C107.722 264.715 107.901 264.74 107.901 264.766Z" fill="#0063AD"/>
</g>
</g>
<path d="M370.477 80.5001C370.477 80.5001 370.439 80.4107 370.426 80.3595C370.413 80.3212 370.4 80.2957 370.387 80.2573C370.375 80.219 370.362 80.1934 370.349 80.1551C369.838 78.941 369.047 77.9187 368.064 77.3436L367.783 77.1775L334.069 57.6889L300.354 38.2003L300.073 38.0342C299.09 37.4719 298.107 37.4591 297.29 37.9064C297.265 37.9064 297.252 37.9319 297.226 37.9447C297.201 37.9447 297.188 37.9703 297.163 37.9831L292.707 40.5517L295.273 41.638L286.363 88.8962C286.133 90.1102 286.337 91.4648 286.848 92.6661C286.861 92.7044 286.873 92.73 286.886 92.7683C286.899 92.7939 286.912 92.8322 286.924 92.8578C287.435 94.0718 288.227 95.0942 289.21 95.6693L356.46 134.557L355.834 137.522L360.047 135.081C360.047 135.081 360.085 135.055 360.111 135.043C360.928 134.608 361.553 133.739 361.783 132.512L370.898 84.1167C371.115 82.941 370.936 81.6503 370.464 80.4746L370.477 80.5001Z" fill="white"/>
<path d="M352.822 137.533L284.831 98.2234C282.775 97.035 281.524 93.8401 282.048 91.1053L291.035 43.3998C291.558 40.6522 293.639 39.3871 295.694 40.5756L363.685 79.885C365.741 81.0735 366.992 84.2683 366.468 87.0031L357.481 134.709C356.958 137.456 354.877 138.721 352.822 137.533Z" fill="url(#paint0_linear_1393_27895)"/>
<path d="M363.405 79.7347L329.69 60.2461L319.12 116.322L352.541 137.383C354.75 138.66 356.932 137.625 357.418 135.069L366.532 86.6739C367.017 84.118 365.613 81.0126 363.405 79.7347Z" fill="#DBAF2D"/>
<path d="M295.963 40.7439L329.677 60.2325L319.184 115.951L285.099 98.379C282.89 97.1011 281.486 93.9957 281.971 91.4398L291.086 43.0442C291.571 40.4883 293.754 39.4532 295.963 40.7311V40.7439Z" fill="#DBAF2D"/>
<path d="M282.405 95.0814C282.954 96.4616 283.912 97.6884 285.112 98.3785L352.541 137.368C353.741 138.059 354.915 138.071 355.834 137.535L325.618 81.8164L282.405 95.0814Z" fill="#F4C63D"/>
<path d="M366.098 83.0318C365.549 81.6517 364.592 80.4248 363.392 79.7348L295.963 40.7448C294.763 40.0547 293.588 40.0419 292.669 40.5787L322.886 96.2969L366.098 83.0318Z" fill="#E9BC37"/>
<path d="M55.5185 121.534C55.5695 121.419 55.6078 121.304 55.6589 121.189C55.6972 121.112 55.7227 121.023 55.761 120.946C55.7993 120.857 55.8376 120.78 55.8759 120.69C57.1652 117.623 59.1695 115.042 61.6461 113.598L62.3482 113.189L147.522 63.9371L232.695 14.7109L233.397 14.3019C235.874 12.8707 238.363 12.8579 240.444 13.9825C240.508 14.008 240.559 14.0464 240.61 14.0719C240.661 14.1103 240.725 14.1358 240.776 14.1614L252.023 20.6533L245.538 23.4009L268.031 142.786C268.606 145.866 268.095 149.265 266.806 152.319C266.767 152.409 266.729 152.486 266.703 152.575C266.665 152.652 266.64 152.741 266.601 152.818C265.312 155.885 263.308 158.479 260.831 159.91L90.9564 258.133L92.5266 265.622L81.8799 259.449C81.8799 259.449 81.765 259.385 81.7139 259.36C79.6331 258.248 78.0757 256.05 77.4884 252.97L54.4589 130.722C53.8972 127.757 54.3568 124.499 55.544 121.534H55.5185Z" fill="#031842"/>
<path d="M100.123 265.623L271.874 166.314C277.07 163.311 280.223 155.26 278.908 148.32L256.21 27.8234C254.908 20.8842 249.636 17.7022 244.44 20.7053L72.6889 120.001C67.4932 123.004 64.34 131.055 65.6549 137.995L88.3525 258.492C89.6546 265.431 94.9269 268.613 100.123 265.61V265.623Z" fill="url(#paint1_linear_1393_27895)"/>
<path d="M73.3903 119.592L158.564 70.3398L185.257 212L100.824 265.2C95.2454 268.433 89.7305 265.814 88.5178 259.36L65.4882 137.112C64.2755 130.659 67.8116 122.812 73.3903 119.579V119.592Z" fill="url(#paint2_linear_1393_27895)"/>
<path d="M243.738 21.1003L158.564 70.3521L185.092 211.117L271.185 166.722C276.763 163.488 280.299 155.642 279.087 149.188L256.057 26.9405C254.844 20.4869 249.329 17.8671 243.751 21.1003H243.738Z" fill="url(#paint3_linear_1393_27895)"/>
<path d="M278.001 158.376C276.61 161.865 274.197 164.97 271.184 166.708L100.837 265.199C97.8242 266.937 94.837 266.962 92.5264 265.621L168.853 124.855L278.014 158.376H278.001Z" fill="url(#paint4_linear_1393_27895)"/>
<path d="M66.5 127.938C67.8915 124.449 70.5 120.679 73.3904 119.606L243.738 21.1024C246.75 19.3644 249.738 19.3388 252.048 20.6807L175.721 161.446L68.5 127.938H66.5Z" fill="url(#paint5_linear_1393_27895)"/>
<g clip-path="url(#clip1_1393_27895)">
<path d="M196.175 157.585C194.555 157.585 193.268 157.078 192.528 156.34L192.389 156.428C191.869 159.524 189.534 163.622 185.618 166.134C184.479 166.872 183.346 167.423 182.23 167.787C179.179 168.789 176.292 168.327 174.138 165.936C173.988 166.024 173.837 166.112 173.685 166.189C172.075 167.093 170.461 167.765 168.882 168.172C170.233 170.861 171.864 172.634 173.69 173.67C177.772 175.973 182.834 174.585 187.81 171.39C196.257 165.969 198.372 160.449 199.175 159.072L196.161 157.574L196.175 157.585Z" fill="#2D57B5"/>
<path d="M185.99 135.882L185.552 137.171C185.552 137.171 178.683 144.432 177.08 149.125C175.477 153.818 176.138 164.693 176.138 164.693L175.343 167.017L173.696 166.191L164.696 161.729L163.066 160.925C163.066 160.925 163.066 160.925 163.043 160.925C161.061 159.569 159.479 156.958 158.617 152.849C156.52 142.845 160.236 134.924 166.55 130.869C170.219 128.523 172.333 129.217 173.397 129.624C173.609 129.779 173.743 129.878 173.743 129.878L185.2 135.497L185.979 135.882H185.99Z" fill="#303B72"/>
<path d="M199.961 116.955L196.806 123.632C196.806 123.632 185.749 111.557 169.551 135.046C153.356 158.546 173.082 173.992 173.082 173.992L169.587 181.407L158.013 175.612L157.925 175.568L156.883 175.05C156.883 175.05 156.883 175.05 156.861 175.05C152.562 172.626 149.195 167.349 147.327 158.436C143.936 142.262 151.779 123.555 166.539 114.08C175.295 108.472 182.866 107.888 188.415 111.237L199.959 116.944L199.961 116.955Z" fill="#3C88D3"/>
<path d="M194.746 127.917L190.83 130.429L185.686 133.734L184.732 133.26L177.103 129.437L173.248 127.52L182.309 121.703L186.694 123.896L189.33 125.207L194.746 127.917Z" fill="#303B72"/>
<path d="M205.176 160.176L199.191 159.097L196.175 157.587L192.004 155.505L188.161 153.588L186.742 152.883L188.332 153.169L192.741 153.974L199.009 157.102L205.176 160.176Z" fill="#3C88D3"/>
<path d="M185.686 133.733L186.118 135.794L185.979 135.882L173.743 129.877L173.249 127.52L185.686 133.733Z" fill="#2D57B5"/>
<path d="M194.746 127.917L190.83 130.429L185.686 133.734L186.118 135.795L185.979 135.883C185.771 135.806 185.514 135.707 185.226 135.618C184.041 135.277 182.061 135.112 178.987 137.084C177.808 137.844 176.713 138.736 175.725 139.761C172.918 142.68 171.043 146.614 170.582 151.285C170.346 153.698 170.475 156.298 171.055 159.063C171.189 159.702 171.34 160.319 171.506 160.892C172.159 163.096 173.061 164.77 174.131 165.96C176.286 168.351 179.172 168.814 182.224 167.811C183.351 167.447 184.484 166.897 185.611 166.158C189.527 163.646 191.862 159.548 192.383 156.452L192.522 156.364C193.261 157.102 194.549 157.609 196.168 157.609C197.034 157.609 197.98 157.455 199.002 157.124C199.918 156.827 200.89 156.364 201.892 155.725C209.921 150.569 211.643 140.973 209.805 132.203C207.564 121.516 201.452 115.269 192.912 115.413C189.952 115.457 186.693 116.272 183.206 117.936C181.824 118.586 180.404 119.379 178.97 120.315C174.964 122.882 171.482 126.121 168.6 129.812C162.951 136.985 159.562 145.82 159.048 154.634C158.837 158.028 159.071 161.399 159.757 164.671C159.914 165.42 160.092 166.158 160.26 166.853C161.312 170.962 162.709 174.19 164.402 176.636C170.253 185.174 179.59 184.326 189.491 177.958C198.426 172.24 203.587 163.812 205.158 160.198L199.17 159.107C198.368 160.485 196.252 166.004 187.806 171.425C182.83 174.62 177.779 176.008 173.686 173.705C171.86 172.67 170.217 170.896 168.878 168.208C168.034 166.544 167.317 164.517 166.719 162.093C166.599 161.63 166.5 161.157 166.398 160.672C165.22 155.053 165.504 149.434 167.154 144.267L167.15 144.245C167.793 142.218 168.642 140.257 169.68 138.395C171.535 135.068 174.027 132.038 177.099 129.471C178.189 128.556 179.348 127.697 180.587 126.904C181.439 126.353 182.271 125.868 183.085 125.46C184.33 124.799 185.54 124.293 186.689 123.929C187.3 123.731 187.907 123.565 188.502 123.455C191.899 122.761 194.811 123.345 197.178 125.086C200.026 127.19 202.078 130.969 203.18 136.224C204.217 141.171 204.142 145.644 201.605 147.275C198.857 149.026 198.529 145.964 197.698 141.997L194.753 127.95L194.746 127.917Z" fill="white"/>
<path d="M188.499 147.152L188.661 147.923C188.774 148.573 188.834 149.235 188.831 149.863C188.848 151.019 188.69 152.143 188.32 153.168C188.272 153.311 188.223 153.454 188.161 153.586C187.641 154.864 186.772 155.977 185.533 156.77C184.997 157.112 184.47 157.332 183.987 157.442C182.039 157.861 180.537 156.385 179.872 153.212C179.754 152.65 179.67 152.088 179.635 151.548C179.36 148.408 180.341 145.632 182.86 144.023C185.678 142.228 187.748 143.572 188.499 147.152Z" fill="#303B72"/>
<path d="M197.182 125.051C194.813 123.3 191.902 122.716 188.506 123.421C188.804 123.983 189.086 124.578 189.333 125.217L194.76 127.927L197.705 141.974C198.536 145.94 198.866 149.014 201.611 147.251C204.149 145.621 204.223 141.148 203.186 136.201C202.085 130.946 200.033 127.167 197.185 125.062L197.182 125.051Z" fill="#2D57B5"/>
</g>
</g>
<g clip-path="url(#clip2_1393_27895)">
<path style="mix-blend-mode:multiply" opacity="0.41" d="M384.5 256.176C411.838 256.176 434 249.778 434 241.885C434 233.992 411.838 227.594 384.5 227.594C357.162 227.594 335 233.992 335 241.885C335 249.778 357.162 256.176 384.5 256.176Z" fill="#CACACA"/>
<path d="M420.707 235.121C412.629 232.17 399.433 230.254 384.5 230.254C369.566 230.254 356.371 232.179 348.292 235.121H340.03V241.429C340.01 241.584 339.981 241.729 339.981 241.884C339.981 242.039 340 242.194 340.03 242.339V242.407C341.078 248.59 360.585 253.515 384.5 253.515C408.415 253.515 427.912 248.59 428.97 242.407H429.019V235.121H420.707Z" fill="#539CC7"/>
<path d="M384.5 246.249C409.087 246.249 429.019 241.042 429.019 234.619C429.019 228.195 409.087 222.988 384.5 222.988C359.913 222.988 339.981 228.195 339.981 234.619C339.981 241.042 359.913 246.249 384.5 246.249Z" fill="url(#paint6_radial_1393_27895)"/>
<path style="mix-blend-mode:multiply" opacity="0.41" d="M383.316 234.938C394.679 234.938 403.89 233.721 403.89 232.219C403.89 230.717 394.679 229.5 383.316 229.5C371.952 229.5 362.741 230.717 362.741 232.219C362.741 233.721 371.952 234.938 383.316 234.938Z" fill="#CACACA"/>
<path style="mix-blend-mode:multiply" opacity="0.41" d="M393.967 231.039C393.967 231.639 389.2 232.132 383.316 232.132C377.432 232.132 372.664 231.648 372.664 231.039C372.664 230.429 377.432 229.945 383.316 229.945C389.2 229.945 393.967 230.429 393.967 231.039Z" fill="#CACACA"/>
<path d="M384.5 184.217C391.439 184.217 397.064 178.611 397.064 171.696C397.064 164.781 391.439 159.176 384.5 159.176C377.561 159.176 371.936 164.781 371.936 171.696C371.936 178.611 377.561 184.217 384.5 184.217Z" fill="url(#paint7_radial_1393_27895)"/>
<path d="M384.5 188.289H382.879C371.532 188.289 362.333 197.456 362.333 208.763V210.379C362.333 221.686 371.532 230.853 382.879 230.853H384.5C395.847 230.853 405.046 221.686 405.046 210.379V208.763C405.046 197.456 395.847 188.289 384.5 188.289Z" fill="url(#paint8_linear_1393_27895)"/>
<path style="mix-blend-mode:multiply" opacity="0.45" d="M390.501 171.696C390.501 177.482 386.559 182.33 381.218 183.772C382.267 184.052 383.364 184.217 384.5 184.217C391.443 184.217 397.064 178.614 397.064 171.696C397.064 164.778 391.443 159.176 384.5 159.176C383.364 159.176 382.267 159.34 381.218 159.621C386.559 161.063 390.501 165.91 390.501 171.696Z" fill="url(#paint9_linear_1393_27895)"/>
<path d="M384.5 188.289H382.879C371.532 188.289 362.333 197.456 362.333 208.763V210.379C362.333 221.686 371.532 230.853 382.879 230.853H384.5C395.847 230.853 405.046 221.686 405.046 210.379V208.763C405.046 197.456 395.847 188.289 384.5 188.289Z" fill="url(#paint10_radial_1393_27895)"/>
<path style="mix-blend-mode:multiply" opacity="0.45" d="M384.5 188.289H382.879C381.801 188.289 380.733 188.376 379.704 188.541C389.51 190.079 397.065 198.584 397.065 208.763V210.379C397.065 220.558 389.501 229.073 379.704 230.601C380.743 230.766 381.801 230.853 382.879 230.853H384.5C395.802 230.853 405.046 221.642 405.046 210.379V208.763C405.046 197.5 395.802 188.289 384.5 188.289Z" fill="url(#paint11_linear_1393_27895)"/>
<path d="M377.237 172.258C378.862 172.258 380.179 170.945 380.179 169.326C380.179 167.707 378.862 166.395 377.237 166.395C375.612 166.395 374.295 167.707 374.295 169.326C374.295 170.945 375.612 172.258 377.237 172.258Z" fill="url(#paint12_radial_1393_27895)"/>
</g>
<defs>
<linearGradient id="paint0_linear_1393_27895" x1="-393.739" y1="-326.875" x2="-318.425" y2="-283.421" gradientUnits="userSpaceOnUse">
<stop stop-color="#7BDAFF"/>
<stop offset="1" stop-color="#59BDEF"/>
</linearGradient>
<linearGradient id="paint1_linear_1393_27895" x1="135.301" y1="164.725" x2="-54.9549" y2="274.497" gradientUnits="userSpaceOnUse">
<stop stop-color="#7BDAFF"/>
<stop offset="1" stop-color="#59BDEF"/>
</linearGradient>
<linearGradient id="paint2_linear_1393_27895" x1="-34.3782" y1="412.654" x2="16.0507" y2="233.258" gradientUnits="userSpaceOnUse">
<stop offset="0.77" stop-color="#031E54"/>
<stop offset="0.85" stop-color="#052971"/>
<stop offset="0.93" stop-color="#012774"/>
<stop offset="1" stop-color="#031E54"/>
</linearGradient>
<linearGradient id="paint3_linear_1393_27895" x1="58.311" y1="353.581" x2="106.195" y2="177.832" gradientUnits="userSpaceOnUse">
<stop offset="0.77" stop-color="#031E54"/>
<stop offset="0.85" stop-color="#052971"/>
<stop offset="0.93" stop-color="#012774"/>
<stop offset="1" stop-color="#031E54"/>
</linearGradient>
<linearGradient id="paint4_linear_1393_27895" x1="-61.4625" y1="372.052" x2="-43.4155" y2="234.637" gradientUnits="userSpaceOnUse">
<stop offset="0.77" stop-color="#031E54"/>
<stop offset="0.85" stop-color="#052971"/>
<stop offset="0.93" stop-color="#012774"/>
<stop offset="1" stop-color="#08245B"/>
</linearGradient>
<linearGradient id="paint5_linear_1393_27895" x1="-87.4281" y1="266.927" x2="-69.381" y2="129.512" gradientUnits="userSpaceOnUse">
<stop offset="0.77" stop-color="#093386"/>
<stop offset="0.85" stop-color="#052971"/>
<stop offset="0.93" stop-color="#012774"/>
<stop offset="1" stop-color="#041A47"/>
</linearGradient>
<radialGradient id="paint6_radial_1393_27895" cx="0" cy="0" r="1" gradientUnits="userSpaceOnUse" gradientTransform="translate(368.277 228.101) scale(81.7311 21.3518)">
<stop stop-color="#ECF5FA"/>
<stop offset="1" stop-color="#A4DDFF"/>
</radialGradient>
<radialGradient id="paint7_radial_1393_27895" cx="0" cy="0" r="1" gradientUnits="userSpaceOnUse" gradientTransform="translate(379.921 164.68) scale(23.0665 22.986)">
<stop stop-color="#ECF5FA"/>
<stop offset="1" stop-color="#A4DDFF"/>
</radialGradient>
<linearGradient id="paint8_linear_1393_27895" x1="376.597" y1="183.325" x2="388.558" y2="227.913" gradientUnits="userSpaceOnUse">
<stop stop-color="#DBEAF3"/>
<stop offset="1" stop-color="#569EC8"/>
</linearGradient>
<linearGradient id="paint9_linear_1393_27895" x1="384.306" y1="160.917" x2="391.986" y2="186.331" gradientUnits="userSpaceOnUse">
<stop stop-color="#DBEAF3"/>
<stop offset="1" stop-color="#569EC8"/>
</linearGradient>
<radialGradient id="paint10_radial_1393_27895" cx="0" cy="0" r="1" gradientUnits="userSpaceOnUse" gradientTransform="translate(375.907 197.646) scale(39.2077 39.0709)">
<stop stop-color="#ECF5FA"/>
<stop offset="1" stop-color="#A4DDFF"/>
</radialGradient>
<linearGradient id="paint11_linear_1393_27895" x1="382.519" y1="181.874" x2="394.452" y2="226.336" gradientUnits="userSpaceOnUse">
<stop stop-color="#DBEAF3"/>
<stop offset="1" stop-color="#569EC8"/>
</linearGradient>
<radialGradient id="paint12_radial_1393_27895" cx="0" cy="0" r="1" gradientUnits="userSpaceOnUse" gradientTransform="translate(376.165 167.683) scale(5.4012 5.38236)">
<stop stop-color="#ECF5FA"/>
<stop offset="1" stop-color="#A4DDFF"/>
</radialGradient>
<clipPath id="clip0_1393_27895">
<rect width="401" height="267" fill="white" transform="translate(0 13.1758)"/>
</clipPath>
<clipPath id="clip1_1393_27895">
<rect width="68" height="75.2857" fill="white" transform="matrix(1 0 0.205179 0.978724 137 109.176)"/>
</clipPath>
<clipPath id="clip2_1393_27895">
<rect width="99" height="97" fill="white" transform="translate(335 159.176)"/>
</clipPath>
</defs>
</svg>
