<svg width="48" height="48" viewBox="0 0 48 48" fill="none" xmlns="http://www.w3.org/2000/svg">
<path d="M13.4366 36.9707H5.65527V19.5711C5.65527 19.1381 6.00628 18.7871 6.4393 18.7871H12.6525C13.0855 18.7871 13.4366 19.1381 13.4366 19.5711V36.9707Z" fill="black"/>
<path d="M27.8907 36.9709H20.1094V16.1415C20.1094 15.7084 20.4604 15.3574 20.8934 15.3574H27.1066C27.5396 15.3574 27.8907 15.7084 27.8907 16.1415V36.9709Z" fill="black"/>
<path d="M42.3443 36.9707H34.563V20.8211C34.563 20.3881 34.914 20.0371 35.347 20.0371H41.5602C41.9933 20.0371 42.3443 20.3881 42.3443 20.8211V36.9707Z" fill="black"/>
<path d="M46.5907 42.5529H1.40928C0.630981 42.5529 0 41.9219 0 41.1437C0 40.3654 0.630981 39.7344 1.40928 39.7344H46.5907C47.369 39.7344 48 40.3654 48 41.1437C48 41.9219 47.3691 42.5529 46.5907 42.5529Z" fill="black"/>
<path d="M47.4101 10.8099C47.4569 10.2209 47.1136 9.49766 46.3275 9.31473L41.7741 8.20798C41.0175 8.02355 40.2557 8.48815 40.0719 9.24446C39.8881 10.0008 40.3521 10.7629 41.1084 10.9467L42.3963 11.2597L38.7455 13.5126L24.903 5.63192C24.505 5.40521 24.0214 5.38614 23.6071 5.5809L9.84743 12.0393L3.26986 7.93421C2.60966 7.52185 1.74032 7.72328 1.32816 8.38358C0.916085 9.04378 1.11733 9.91311 1.77762 10.3253L9.0059 14.8364C9.41149 15.0896 9.91789 15.1198 10.3508 14.9166L24.1434 8.44267L38.0774 16.3755C38.44 16.5657 38.9453 16.6642 39.5148 16.35L43.9404 13.619L43.6457 14.9993C43.3213 16.8354 45.9205 17.3568 46.402 15.588L47.3789 11.0131C47.3899 10.9489 47.3942 10.958 47.4101 10.8099Z" fill="black"/>
</svg>
