<svg width="44" height="42" viewBox="0 0 44 42" fill="none" xmlns="http://www.w3.org/2000/svg">
<g clip-path="url(#clip0_1395_86514)">
<path d="M8.26555 13.9215C6.99069 13.692 6.35558 13.1183 6.24895 12.1338C6.1996 11.6296 6.34172 11.1252 6.64763 10.7191C6.76621 10.5478 6.83442 10.3472 6.84466 10.1397C6.86437 9.16556 6.84466 8.18914 6.85509 7.21501C6.89913 3.0959 10.0503 -0.00203929 14.2145 0.00713978C15.4129 0.00713978 16.639 -0.0513751 17.8073 0.166628C21.2413 0.808016 23.5824 3.68795 23.6369 7.16567C23.6531 8.16963 23.6369 9.17359 23.6473 10.1776C23.648 10.3575 23.7015 10.5333 23.8014 10.6836C24.7819 12.026 24.0483 13.6886 22.384 13.8744C22.3411 13.8744 22.2994 13.8893 22.2334 13.9031C22.165 14.3299 22.1175 14.7682 22.0224 15.1962C21.5403 17.3705 20.3002 18.9906 18.3056 20.0152C17.7876 20.2803 18.0611 20.6807 18.0263 21.0203C18.0182 21.0972 18.2952 21.2498 18.4598 21.29C20.2457 21.675 21.9446 22.3829 23.4711 23.3782C23.5702 23.4537 23.6882 23.501 23.8124 23.5147C23.9367 23.5285 24.0623 23.5082 24.1758 23.4562C24.62 23.2861 25.0904 23.1926 25.5665 23.1797C30.5493 23.1614 35.5328 23.1583 40.5171 23.1705C42.5859 23.1705 43.994 24.5944 44.001 26.6483C44.001 30.6067 44.001 34.5648 44.001 38.5225C44.001 40.605 42.5871 42.0003 40.4812 42.0003C28.6598 42.0003 16.8384 42.0003 5.01698 42.0003C2.12884 42.0003 0.0879138 39.9201 0.00794544 37.0665C-0.0952022 33.4649 0.802992 30.173 2.87522 27.2082C5.11086 24.0116 8.20644 22.1104 12.0183 21.2842C12.1817 21.2487 12.4506 21.0961 12.4459 21.01C12.4274 20.6658 12.6708 20.2619 12.1423 20.0164C10.8731 19.4249 9.82703 18.4488 9.15563 17.2294C8.5853 16.2173 8.27935 15.0803 8.26555 13.9215ZM9.79074 22.933C7.80659 23.7362 6.06699 24.8733 4.65074 26.4544C1.91559 29.5087 0.8505 33.1505 0.952488 37.1629C1.01391 39.5529 2.65616 41.0881 5.08187 41.0973C7.97928 41.1064 10.8767 41.0973 13.7741 41.0973C13.89 41.0973 14.0059 41.0789 14.167 41.0663C12.9872 39.8237 12.6464 39.1823 12.5074 37.9764C12.4239 37.2466 12.5526 37.0986 13.2792 37.0975H22.1488V36.5605C22.1488 33.5062 22.1603 30.453 22.1418 27.3986C22.1349 26.2375 22.1534 25.1039 23.12 24.1516L20.6861 22.8998C19.7485 25.3976 18.068 26.8708 15.4268 26.9443C12.5885 27.0235 10.7689 25.5319 9.79074 22.933ZM15.268 6.52543C14.4718 6.52543 13.6744 6.50937 12.8782 6.52543C11.3716 6.56329 9.35149 8.26142 9.25646 9.73811C9.14983 11.4064 9.08493 13.1068 9.28543 14.7591C9.6505 17.7664 12.3578 19.9223 15.3839 19.8248C18.4099 19.7272 20.9689 17.4153 21.2181 14.4321C21.334 12.9944 21.29 11.5407 21.2807 10.0938C21.2748 9.43961 21.0218 8.8113 20.5714 8.33256C20.2527 7.98146 19.9143 7.64413 19.5677 7.32057C19.2982 7.0596 18.979 6.85422 18.6286 6.71635C18.2783 6.57847 17.9038 6.51085 17.5268 6.5174C16.7735 6.52544 16.0248 6.52314 15.268 6.52314V6.52543ZM10.7052 22.5578C11.2 24.6989 13.2676 26.1824 15.4905 26.07C17.5245 25.9667 19.5075 24.3489 19.7381 22.5532C19.0312 22.388 18.3207 22.201 17.601 22.0622C17.2104 21.9864 17.0563 21.7902 17.0679 21.4162C17.076 21.1248 17.0679 20.8322 17.0679 20.5729C16.413 20.6348 15.8243 20.7323 15.2367 20.7323C14.6491 20.7323 14.0349 20.6337 13.3963 20.5752C13.3963 20.8436 13.3882 21.1282 13.3963 21.4116C13.4113 21.7868 13.2607 21.9853 12.8701 22.061C12.1527 22.1987 11.4423 22.3846 10.7052 22.5555V22.5578ZM33.0836 35.225C33.7867 35.2219 34.4602 34.944 34.9573 34.4516C35.4544 33.9593 35.7348 33.2924 35.7376 32.5963C35.7367 32.248 35.6665 31.9033 35.5309 31.5818C35.3954 31.2604 35.1973 30.9685 34.9478 30.7229C34.6983 30.4773 34.4024 30.2828 34.077 30.1505C33.7515 30.0181 33.4029 29.9505 33.0511 29.9516C32.348 29.9558 31.675 30.2349 31.1788 30.7281C30.6825 31.2213 30.4032 31.8887 30.4017 32.5848C30.4008 32.9329 30.4696 33.2778 30.6043 33.5994C30.739 33.9209 30.9367 34.2129 31.1862 34.4582C31.4356 34.7036 31.7318 34.8975 32.0575 35.0287C32.3832 35.1599 32.7319 35.2258 33.0836 35.2227V35.225ZM22.238 10.9153V12.9657C22.9334 12.8969 23.3332 12.4941 23.3182 11.8998C23.3031 11.3054 22.8859 10.9279 22.238 10.913V10.9153ZM8.25048 12.96V10.913C7.59335 10.913 7.14947 11.3284 7.14831 11.9239C7.14715 12.5194 7.5806 12.9255 8.25048 12.9577V12.96Z" fill="black"/>
<path d="M34.6728 11.1759C36.5524 11.1781 38.3608 11.8877 39.7317 13.1609C39.8267 13.2481 39.9635 13.3456 39.9774 13.4477C39.9947 13.6256 39.9774 13.8631 39.873 13.979C39.785 14.073 39.5254 14.073 39.3724 14.0248C39.2194 13.9767 39.1047 13.816 38.9749 13.7024C37.7588 12.6394 36.1873 12.0614 34.5652 12.0804C32.9431 12.0995 31.3859 12.7144 30.1957 13.8057C30.1215 13.8734 30.0508 13.9893 29.9639 13.9973C29.7704 14.0168 29.5282 14.0512 29.3844 13.9606C29.1596 13.8195 29.1805 13.5647 29.3497 13.3571C29.4447 13.249 29.5486 13.1488 29.6603 13.0576C31.0374 11.8364 32.824 11.1657 34.6728 11.1759Z" fill="black"/>
<path d="M34.5999 14.0196C35.7721 14.0117 36.9036 14.4452 37.765 15.2324C38.0095 15.4516 38.1405 15.7029 37.8809 15.9713C37.6491 16.2192 37.3976 16.1194 37.1565 15.9186C35.556 14.5807 33.7376 14.583 32.1197 15.9186C31.8798 16.1171 31.6306 16.2146 31.3942 15.9633C31.1577 15.712 31.2586 15.4699 31.4927 15.2542C32.3326 14.4673 33.4434 14.0259 34.5999 14.0196Z" fill="black"/>
<path d="M34.6439 16.7344C35.0669 16.9421 35.4459 17.0969 35.789 17.3081C35.8443 17.3376 35.892 17.3793 35.9285 17.43C35.965 17.4807 35.9892 17.539 35.9992 17.6005C36.0093 17.6619 36.005 17.7248 35.9866 17.7843C35.9683 17.8438 35.9363 17.8984 35.8933 17.9437C35.8596 17.9958 35.8146 18.0397 35.7616 18.0724C35.7086 18.1051 35.649 18.1257 35.587 18.1327C35.5249 18.1398 35.4621 18.133 35.403 18.113C35.344 18.0931 35.2901 18.0603 35.2454 18.0171C34.8317 17.689 34.4423 17.6993 34.0308 18.0229C33.799 18.2007 33.5209 18.1812 33.4038 17.9254C33.3308 17.7659 33.3691 17.4228 33.4873 17.3379C33.8211 17.0969 34.2209 16.9466 34.6439 16.7344Z" fill="black"/>
</g>
<defs>
<clipPath id="clip0_1395_86514">
<rect width="44" height="42" fill="white"/>
</clipPath>
</defs>
</svg>
