<svg width="44" height="44" viewBox="0 0 44 44" fill="none" xmlns="http://www.w3.org/2000/svg">
<g clip-path="url(#clip0_1393_28635)">
<path d="M9.08823 24.155C7.66878 23.5675 6.86877 22.0943 7.01707 20.3681C7.1462 18.8646 8.29023 17.5023 9.68445 17.2315C10.4784 17.0789 11.1856 17.2901 11.7526 17.9122C11.9543 18.1328 12.1713 18.299 12.483 18.183C12.9027 18.0261 13.0207 17.4971 12.6979 17.1259C11.9735 16.2895 11.0555 15.9016 9.97399 15.9246C9.88723 15.9246 9.80047 15.9361 9.69151 15.9445C9.45776 15.3597 9.43449 14.7074 9.62594 14.1064C10.2454 12.0467 12.6111 11.2553 14.2364 12.5726C14.4684 12.7608 14.6066 13.0713 14.8326 13.27C15.0081 13.4237 15.2613 13.592 15.4661 13.5763C15.9393 13.5387 16.1098 13.1069 15.8606 12.6354C15.4702 11.9035 14.8517 11.4142 14.1456 11.0294C14.0689 10.9866 13.9862 10.9562 13.9075 10.9196C14.2394 10.0267 15.107 9.47575 16.0735 9.53117C17.0954 9.59076 17.9741 10.3049 18.2021 11.2835C18.2586 11.5379 18.286 11.7982 18.2838 12.0593C18.2885 17.8864 18.2906 23.7135 18.2899 29.5406C18.2899 30.285 18.0801 30.9322 17.5423 31.434C17.4139 31.5496 17.2521 31.618 17.0823 31.6285C16.3398 31.6484 15.5953 31.6463 14.8517 31.6285C14.6927 31.6251 14.5391 31.5674 14.4149 31.4644C13.9785 31.0605 13.7129 30.4949 13.6754 29.8898C13.631 29.2823 13.8631 28.8307 14.3927 28.5421C14.7892 28.3257 14.9123 28.0193 14.767 27.6858C14.6137 27.3345 14.2797 27.2195 13.8671 27.4108C13.1488 27.7412 12.7211 28.3257 12.5465 29.113C12.5072 29.2886 12.485 29.4695 12.4557 29.6451C11.1785 29.8197 9.81459 28.6676 9.59365 27.2404C9.35355 25.6836 10.1152 24.3432 11.5448 23.81C11.6154 23.7828 11.687 23.7588 11.7596 23.7347C12.2328 23.579 12.4214 23.3061 12.3196 22.9224C12.2187 22.5606 11.8868 22.41 11.4217 22.5209C10.7185 22.684 9.88219 23.2705 9.08823 24.155Z" fill="black"/>
<path d="M24.2584 31.6235H20.9292V31.2053C20.9292 24.111 20.9292 17.0171 20.9292 9.92348C20.9292 9.10065 21.247 8.80999 22.0288 8.90931C26.2983 9.45195 29.579 12.7851 30.1793 17.2213C30.6353 20.5796 29.6819 23.4569 27.2627 25.7424C25.6294 27.2856 24.5923 29.1163 24.3008 31.3883C24.2927 31.4594 24.2776 31.5231 24.2584 31.6235ZM28.6337 18.4007C28.4622 16.1799 27.6542 14.3231 26.1338 12.8102C25.3823 12.052 24.4749 11.4801 23.4796 11.1373C23.4057 11.1083 23.327 11.095 23.2482 11.0982C23.1693 11.1014 23.0918 11.1211 23.0204 11.156C22.949 11.191 22.8852 11.2405 22.8327 11.3016C22.7802 11.3627 22.7401 11.4341 22.7148 11.5116C22.6039 11.8253 22.728 12.1285 23.0357 12.2927C23.1146 12.3317 23.1954 12.3666 23.2778 12.3972C24.8627 13.0454 25.9956 14.1934 26.7341 15.7722C27.1477 16.6546 27.3071 17.5977 27.3606 18.5711C27.3734 18.6817 27.4098 18.7881 27.4672 18.8823C27.5246 18.9765 27.6016 19.0563 27.6925 19.1158C27.7939 19.1551 27.9027 19.1697 28.0105 19.1585C28.1183 19.1472 28.2221 19.1105 28.3139 19.051C28.4814 18.914 28.5318 18.6255 28.6337 18.4007Z" fill="black"/>
<path d="M19.4623 36.4979C21.5809 36.4979 23.6994 36.5052 25.812 36.4905C25.9291 36.4796 26.0465 36.5085 26.1464 36.5728C26.2464 36.6371 26.3234 36.7334 26.3658 36.8471C26.8702 37.901 26.1146 39.1671 24.9534 39.1703C22.0066 39.1807 19.0588 39.1703 16.1109 39.1703C15.3543 39.1703 14.5977 39.1849 13.843 39.1619C12.7676 39.1357 12.0614 37.8957 12.5083 36.8889C12.6304 36.616 12.7918 36.4864 13.1136 36.4895C15.2302 36.5073 17.3457 36.4979 19.4623 36.4979Z" fill="black"/>
<path d="M19.4259 35.4089C17.3204 35.4089 15.216 35.4006 13.1105 35.4183C12.7867 35.4183 12.6283 35.2866 12.5052 35.0148C12.0361 33.9629 12.8079 32.7386 13.958 32.7355C17.1974 32.7261 20.4368 32.7355 23.6751 32.7355C24.1422 32.7355 24.6093 32.7198 25.0744 32.7439C26.1841 32.8024 26.858 34.0393 26.3677 35.067C26.3253 35.1807 26.248 35.2769 26.1478 35.3407C26.0476 35.4045 25.9299 35.4325 25.8129 35.4204C23.6832 35.4026 21.5535 35.4089 19.4259 35.4089Z" fill="black"/>
<path d="M15.2363 40.2891H23.637C23.6461 41.1067 22.8188 41.9619 21.9068 41.9797C20.2705 42.0145 18.6341 42.0145 16.9978 41.9797C16.111 41.9619 15.3766 41.2175 15.2363 40.2891Z" fill="black"/>
<path d="M29.0321 26.418C29.25 26.5518 29.4226 26.6156 29.5366 26.7369C30.4519 27.6702 31.3599 28.6112 32.2604 29.5598C32.5459 29.8599 32.5449 30.1934 32.2917 30.4621C32.0385 30.7308 31.7025 30.7402 31.4211 30.4527C30.4879 29.4992 29.5557 28.5456 28.6518 27.5628C28.5847 27.4688 28.5388 27.3603 28.5175 27.2454C28.4962 27.1305 28.5 27.0121 28.5287 26.8989C28.5993 26.7076 28.8515 26.5832 29.0321 26.418Z" fill="black"/>
<path d="M32.5693 7.29298C32.4382 7.51986 32.3756 7.6976 32.2586 7.82097C31.3668 8.76126 30.4679 9.69457 29.562 10.6209C29.2593 10.9346 28.9092 10.9429 28.654 10.6836C28.3988 10.4243 28.4109 10.0469 28.7226 9.7228C29.6111 8.79715 30.5015 7.87325 31.394 6.95109C31.5958 6.74198 31.8349 6.59352 32.1002 6.76917C32.2848 6.89045 32.4089 7.10687 32.5693 7.29298Z" fill="black"/>
<path d="M20.325 4.68108C20.325 4.02762 20.325 3.37521 20.325 2.7228C20.325 2.28263 20.552 2.01183 20.9051 2.00033C21.2582 1.98883 21.5286 2.27531 21.5316 2.72384C21.5377 4.03006 21.5377 5.33558 21.5316 6.64041C21.5316 7.09417 21.2764 7.37228 20.9051 7.35869C20.549 7.34823 20.3291 7.08267 20.325 6.63936C20.321 5.98591 20.325 5.33349 20.325 4.68108Z" fill="black"/>
<path d="M34.4297 19.3093C33.8123 19.3093 33.1959 19.3093 32.5795 19.3093C32.1084 19.3093 31.835 19.0574 31.8471 18.6621C31.8592 18.2669 32.1114 18.0599 32.5765 18.0589C33.8099 18.0533 35.0438 18.0533 36.2779 18.0589C36.7662 18.0589 37.0083 18.2837 36.9992 18.7008C36.9912 19.0971 36.7531 19.3051 36.2799 19.3093C35.6686 19.3135 35.0461 19.3093 34.4297 19.3093Z" fill="black"/>
</g>
<defs>
<clipPath id="clip0_1393_28635">
<rect width="30" height="40" fill="white" transform="translate(7 2)"/>
</clipPath>
</defs>
</svg>
