<svg width="20" height="20" viewBox="0 0 20 20" fill="none" xmlns="http://www.w3.org/2000/svg">
<path d="M19.1668 12.9527V16.4163C19.166 17.1454 18.876 17.8444 18.3605 18.36C17.8449 18.8756 17.1459 19.1655 16.4168 19.1663H3.5835C2.85439 19.1655 2.15538 18.8756 1.63983 18.36C1.12428 17.8444 0.834292 17.1454 0.833496 16.4163V12.9527C1.33465 13.4102 1.98825 13.6646 2.66683 13.6663H17.3335C18.0121 13.6646 18.6657 13.4102 19.1668 12.9527ZM19.1668 8.16634V10.9163C19.1663 11.4024 18.9729 11.8684 18.6292 12.2121C18.2855 12.5558 17.8196 12.7491 17.3335 12.7497H2.66683C2.18077 12.7491 1.71478 12.5558 1.37108 12.2121C1.02739 11.8684 0.834054 11.4024 0.833496 10.9163V8.16634C0.834292 7.43724 1.12428 6.73823 1.63983 6.22268C2.15538 5.70712 2.85439 5.41714 3.5835 5.41634H5.41683C5.41683 4.20076 5.89971 3.03498 6.75926 2.17543C7.6188 1.31589 8.78459 0.833008 10.0002 0.833008C11.2157 0.833008 12.3815 1.31589 13.2411 2.17543C14.1006 3.03498 14.5835 4.20076 14.5835 5.41634H16.4168C17.1459 5.41714 17.8449 5.70712 18.3605 6.22268C18.876 6.73823 19.166 7.43724 19.1668 8.16634ZM10.9168 9.99967C10.9168 9.81837 10.8631 9.64114 10.7623 9.4904C10.6616 9.33965 10.5185 9.22216 10.351 9.15278C10.1835 9.0834 9.99914 9.06525 9.82133 9.10062C9.64351 9.13599 9.48018 9.22329 9.35198 9.35149C9.22378 9.47969 9.13648 9.64302 9.10111 9.82084C9.06574 9.99866 9.08389 10.183 9.15327 10.3505C9.22265 10.518 9.34014 10.6611 9.49089 10.7619C9.64163 10.8626 9.81886 10.9163 10.0002 10.9163C10.2433 10.9163 10.4764 10.8198 10.6483 10.6479C10.8203 10.4759 10.9168 10.2428 10.9168 9.99967ZM12.7502 5.41634C12.7502 4.687 12.4604 3.98752 11.9447 3.4718C11.429 2.95607 10.7295 2.66634 10.0002 2.66634C9.27082 2.66634 8.57134 2.95607 8.05562 3.4718C7.53989 3.98752 7.25016 4.687 7.25016 5.41634H12.7502Z" fill="black"/>
</svg>
