<svg width="613" height="457" viewBox="0 0 613 457" fill="none" xmlns="http://www.w3.org/2000/svg">
<path d="M500.345 269.77C499.115 268.656 498.189 267.562 497.035 266.797C492.334 263.683 488.239 259.889 484.531 255.699C480.398 251.018 477.551 245.535 475.46 239.693C469.795 223.838 470.921 208.437 479.367 193.837C487.614 179.577 499.986 170.423 516.15 167.158C537.998 162.741 556.716 168.923 571.48 185.693C578.347 193.497 582.66 202.774 584.05 213.184C585.885 226.962 583.048 239.731 575.377 251.386C571.452 257.35 566.43 262.211 560.547 266.231C558.664 267.514 556.839 268.892 554.947 270.166C554.408 270.534 553.737 270.723 553.112 270.94C547.106 273.064 541.091 275.083 534.688 275.772C524.293 276.886 514.381 275.281 504.866 271.025C504.185 270.723 503.504 270.402 502.842 270.063C501.962 269.619 501.102 269.053 500.354 269.761L500.345 269.77Z" fill="#F3F3F3"/>
<path d="M375.82 165.781C369.777 159.514 364.846 152.524 361.561 144.417C359.266 138.764 358.278 132.904 358.532 126.787C358.79 120.437 358.902 114.096 360.274 107.853C362.498 97.7504 366.779 88.6198 373.173 80.4874C383.934 66.8122 398.113 58.8738 415.151 56.2118C431.248 53.7003 446.351 56.9338 460.218 65.5309C471.69 72.6336 480.2 82.3475 485.592 94.77C489.351 103.446 491.468 112.449 491.196 121.94C491.07 126.291 490.847 130.654 490.624 135.017C490.368 139.918 488.841 144.455 486.668 148.841C482.156 157.905 475.301 165.026 468.148 171.988C464.474 175.557 461.245 179.63 458.088 183.698C456.301 185.992 454.82 188.623 453.635 191.291C450.728 197.842 448.08 204.527 447.292 211.731C446.82 216.09 446.192 220.499 446.388 224.849C446.692 231.781 447.787 238.652 450.159 245.251C453.638 254.953 459.005 263.501 465.778 271.227C470.907 277.066 475.102 283.587 477.69 290.929C484.163 309.296 483.294 327.465 474.513 344.846C463.963 365.723 446.73 377.96 423.672 381.619C406.64 384.322 390.636 380.91 376.444 371.131C362.627 361.61 353.111 348.701 349.214 332.111C348.331 328.342 347.708 324.52 348.033 320.573C348.361 316.561 348.176 312.51 348.567 308.517C349.336 300.668 351.562 293.167 355.151 286.163C358.845 278.97 363.506 272.45 369.615 267.027C379.064 258.648 386.07 248.554 390.405 236.663C390.451 236.529 390.514 236.395 390.575 236.277C395.405 226.599 395.475 216.246 394.499 205.877C393.304 193.243 388.458 181.908 380.977 171.702C380.188 170.635 379.308 169.636 378.435 168.646C377.601 167.682 376.71 166.756 375.851 165.814L375.82 165.781Z" fill="#0449B7"/>
<path d="M275.385 258.801C271.456 255.255 267.724 251.469 263.538 248.266C259.812 245.414 255.748 242.886 251.553 240.77C238.778 234.348 225.218 232.079 211.009 233.96C203.549 234.949 196.311 236.704 189.676 240.404C185.223 242.883 180.747 245.337 176.43 248.031C174.565 249.194 173.098 250.98 171.383 252.391C168.021 255.153 164.792 258.147 161.174 260.511C157.282 263.047 153.194 265.301 148.74 266.902C142.593 269.11 136.317 269.71 129.883 269.207C125.366 268.848 120.769 268.84 116.348 267.962C111.186 266.929 106.069 265.423 101.146 263.556C97.8383 262.294 94.888 260.074 91.816 258.226C89.9039 257.076 87.9344 255.947 86.1855 254.571C81.0171 250.494 76.6345 245.607 72.8769 240.257C62.2155 225.098 59.5574 208.177 62.5762 190.187C63.163 186.678 64.4854 183.283 65.6302 179.897C66.5613 177.137 67.6509 174.432 68.8508 171.781C69.4785 170.376 70.4539 169.116 71.3413 167.844C72.8566 165.69 74.4738 163.597 76.0053 161.444C78.4584 157.972 81.4987 155.043 84.776 152.39C87.7187 150.011 90.7403 147.668 93.9916 145.763C97.135 143.925 100.6 142.626 103.953 141.136C107.676 139.477 111.651 138.668 115.609 137.858C121.777 136.601 128.017 136.603 134.272 136.993C137.114 137.171 139.946 137.389 142.772 137.566C146.514 137.801 149.94 139.125 153.345 140.545C162.424 144.333 169.589 150.716 176.1 157.818C179.037 161.036 182.515 163.53 185.693 166.405C186.977 167.559 188.161 168.789 189.973 169.306C191.141 169.642 192.092 170.684 193.191 171.314C194.972 172.337 196.804 173.282 198.603 174.274C199.459 174.74 200.242 175.412 201.146 175.711C204.439 176.787 207.798 177.633 211.063 178.781C218.314 181.326 225.813 181.611 233.349 181.262C235.786 181.148 238.212 180.582 240.629 180.177C241.887 179.969 243.121 179.566 244.391 179.438C248.104 179.052 251.549 177.848 254.875 176.244C258.226 174.633 261.621 173.105 264.897 171.362C270.64 168.306 275.696 164.26 280.346 159.769C284.119 156.123 288.575 153.58 293.1 151.113C295.974 149.537 298.935 147.988 302.038 147.035C305.059 146.109 308.311 145.605 311.471 145.524C316.839 145.398 322.256 145.444 327.593 146.009C332.264 146.504 336.89 147.657 341.459 148.8C343.721 149.354 345.869 150.443 347.997 151.442C351.19 152.948 354.346 154.534 357.434 156.213C358.659 156.881 359.776 157.817 360.836 158.76C364.938 162.393 369.334 165.743 372.6 170.232C375.009 173.548 377.443 176.84 379.711 180.253C380.623 181.623 381.095 183.288 381.766 184.816C383.985 189.83 385.582 195.057 386.471 200.453C387.718 208.064 387.7 215.69 386.321 223.326C384.955 230.858 382.355 237.899 378.67 244.56C376.485 248.511 374.06 252.25 370.674 255.342C368.304 257.505 366.302 260.103 363.827 262.116C360.423 264.885 356.908 267.632 353.076 269.744C348.261 272.399 343.105 274.395 337.689 275.735C329.782 277.686 321.814 278.152 313.747 277.599C311.154 277.424 308.519 277.473 305.98 277.019C303.064 276.508 300.196 275.66 297.372 274.742C292.841 273.271 288.808 270.792 285.084 267.876C281.601 265.14 278.239 262.249 274.825 259.435L275.377 258.792L275.385 258.801Z" fill="#F4C63D"/>
<path d="M434.534 340.607C432.793 341.828 431.139 343.205 429.29 344.24C423.612 347.429 417.492 348.602 410.969 347.871C407.454 347.472 404.146 346.419 400.988 344.881C399.627 344.219 398.392 343.295 397.098 342.489C393.975 340.537 391.874 337.555 389.504 334.853C388.813 334.065 388.366 333.055 387.862 332.118C386.572 329.717 385.692 327.162 385.113 324.514C384.317 320.882 384.126 317.227 384.735 313.543C385.256 310.405 386.048 307.374 387.572 304.565C387.939 303.882 388.261 303.171 388.618 302.477C388.701 302.311 388.854 302.185 388.955 302.024C389.167 301.684 389.366 301.328 389.575 300.985C389.664 300.841 389.75 300.693 389.852 300.565C391.549 298.397 393.402 296.379 395.54 294.635C395.966 294.288 396.413 293.963 396.884 293.679C398.122 292.925 399.33 292.107 400.635 291.478C402.076 290.781 403.579 290.188 405.095 289.686C408.386 288.594 411.813 288.21 415.262 288.37C419.241 288.553 423.066 289.51 426.709 291.21C428.721 292.147 430.672 293.23 432.342 294.638C434.205 296.211 435.782 298.136 437.477 299.911C437.682 300.127 437.822 300.409 438.034 300.612C439.351 301.836 440.008 303.467 440.849 304.993C442.202 307.448 442.99 310.114 443.513 312.828C444.092 315.823 444.294 318.864 443.874 321.91C443.501 324.593 442.95 327.223 441.919 329.728C441.441 330.894 440.811 331.998 440.22 333.114C439.766 333.967 439.385 334.892 438.763 335.605C437.523 337.036 436.6 338.754 435.036 339.905C434.812 340.067 434.63 340.275 434.428 340.46C434.462 340.513 434.499 340.561 434.533 340.614L434.534 340.607Z" fill="white"/>
<path d="M217.561 384.283C200.324 384.203 184.931 377.879 172.199 365.457C158.433 352.012 151.754 335.279 152.391 316.204C153.552 281.771 181.187 252.265 218.824 252.356C255.573 252.447 285.336 283.182 284.187 320.355C283.652 337.645 276.906 352.66 264.834 364.9C252.137 377.765 236.448 384.26 217.561 384.294V384.283Z" fill="#F3F3F3"/>
<circle cx="228.219" cy="95.543" r="53" fill="white" stroke="#031E54" stroke-width="6"/>
<path d="M228.742 71.5471C230.489 71.7683 232.27 71.8475 233.98 72.2397C239.234 73.437 243.633 76.0862 247.216 80.0997C249.144 82.2649 250.58 84.7097 251.653 87.3631C252.116 88.5062 252.356 89.7369 252.697 90.9301C253.518 93.813 253.139 96.7542 253.08 99.6746C253.064 100.526 252.773 101.377 252.558 102.215C252.007 104.364 251.118 106.379 249.994 108.286C248.454 110.901 246.53 113.2 244.1 115.078C242.029 116.675 239.852 118.06 237.352 118.912C236.745 119.12 236.152 119.37 235.546 119.592C235.403 119.646 235.238 119.637 235.087 119.679C234.767 119.767 234.447 119.871 234.127 119.963C233.992 120 233.857 120.042 233.723 120.063C231.475 120.434 229.214 120.63 226.932 120.505C226.477 120.48 226.023 120.43 225.576 120.343C224.398 120.117 223.202 119.946 222.053 119.608C220.781 119.237 219.531 118.77 218.322 118.24C215.7 117.093 213.388 115.445 211.368 113.459C209.035 111.168 207.229 108.498 205.949 105.482C205.242 103.817 204.653 102.098 204.417 100.338C204.156 98.3729 204.265 96.3537 204.219 94.3595C204.215 94.1175 204.286 93.8714 204.269 93.6336C204.147 92.1775 204.657 90.8383 204.994 89.4616C205.537 87.2463 206.543 85.2145 207.739 83.2996C209.056 81.1844 210.631 79.2486 212.588 77.6507C214.315 76.2448 216.121 74.9682 218.15 74.0295C219.093 73.5914 220.095 73.2743 221.08 72.9281C221.834 72.6652 222.583 72.319 223.362 72.2313C224.92 72.0519 226.444 71.5263 228.043 71.6932C228.271 71.7182 228.498 71.6932 228.725 71.6932C228.734 71.6431 228.738 71.593 228.746 71.543L228.742 71.5471Z" fill="#5DA2F4"/>
</svg>
