<svg width="38" height="37" viewBox="0 0 38 37" fill="none" xmlns="http://www.w3.org/2000/svg">
<rect width="38" height="36.2727" rx="8" fill="black"/>
<g clip-path="url(#clip0_1010_15085)">
<path d="M28.5553 17.3264H11.4084L14.2489 14.4998C14.5658 14.1843 14.567 13.6717 14.2516 13.3547C13.9362 13.0378 13.4235 13.0366 13.1065 13.352L8.87591 17.5622C8.87563 17.5625 8.87543 17.5627 8.87518 17.563C8.55905 17.8784 8.55804 18.3927 8.8751 18.7092C8.87539 18.7095 8.87559 18.7097 8.87583 18.71L13.1065 22.9202C13.4234 23.2356 13.936 23.2345 14.2515 22.9175C14.567 22.6005 14.5658 22.0879 14.2488 21.7724L11.4084 18.9458H28.5553C29.0025 18.9458 29.365 18.5833 29.365 18.1361C29.365 17.6889 29.0025 17.3264 28.5553 17.3264Z" fill="white"/>
</g>
<defs>
<clipPath id="clip0_1010_15085">
<rect width="20.7273" height="20.7273" fill="white" transform="translate(8.6377 7.77246)"/>
</clipPath>
</defs>
</svg>
