<svg width="30" height="30" viewBox="0 0 30 30" fill="none" xmlns="http://www.w3.org/2000/svg">
<g clip-path="url(#clip0_1277_20132)">
<path d="M19.687 4.57031C19.687 3.11643 18.5042 1.93359 17.0503 1.93359H11.7183V0.878906C11.7183 0.393516 11.3247 0 10.8394 0C10.354 0 9.96045 0.393516 9.96045 0.878906V1.93359H4.62842C3.17453 1.93359 1.9917 3.11643 1.9917 4.57031V5.68359H19.687V4.57031Z" fill="black"/>
<path d="M18.2684 13.5834C17.3427 14.3309 17.3493 15.7424 18.2807 16.4809C19.0822 17.1162 18.6726 16.7915 20.035 17.8719H25.0812L26.8353 16.481C27.7698 15.7401 27.7702 14.3281 26.8479 13.5837C24.3038 11.5303 20.7232 11.6018 18.2684 13.5834Z" fill="black"/>
<path d="M14.7083 22.1508C15.1519 20.4797 16.0999 19.0459 17.3626 17.9959L17.1886 17.8576C15.3722 16.4179 15.3643 13.6678 17.1646 12.215C18.426 11.197 19.9586 10.5581 21.5591 10.3693C21.5585 10.3751 21.562 10.4921 21.562 8.4375C21.562 7.84418 20.9737 7.44141 20.4002 7.44141H1.27855C0.707148 7.44141 0.116699 7.84266 0.116699 8.4375V10.3125C0.116699 10.7979 0.510215 11.1914 0.995605 11.1914H2.05498L2.92926 22.8834C5.80609 21.978 8.71656 24.1217 8.78723 27.0765C8.81271 28.1425 8.47059 29.1664 7.82248 30.0001H14.3557C13.5426 28.9167 13.2749 27.5479 13.6237 26.2354L14.7083 22.1508ZM10.9146 22.4486C10.7954 22.9181 10.318 23.2038 9.84643 23.0841C7.92285 22.5956 6.53336 21.0664 6.12607 19.2507C5.9759 19.3553 5.80035 19.4084 5.62445 19.4084C4.85143 19.4084 4.45369 18.4717 4.99492 17.9162C6.44881 16.4237 6.42924 16.4143 6.62025 16.319C6.88809 16.1853 7.21469 16.1945 7.47965 16.3608C7.59203 16.4315 7.53449 16.3866 9.05008 17.863C9.39777 18.2017 9.4051 18.7581 9.06637 19.1058C8.7635 19.4168 8.28684 19.4546 7.94061 19.217C8.29352 20.2504 9.14406 21.0921 10.2791 21.3803C10.7496 21.4999 11.0341 21.9782 10.9146 22.4486ZM13.1567 19.6048C12.7876 19.9837 12.1759 19.9477 11.8427 19.5518L10.4893 18.2333C10.1416 17.8946 10.1342 17.3382 10.473 16.9905C10.7716 16.684 11.2393 16.6424 11.5841 16.8688C11.2302 15.8376 10.3805 14.9981 9.24719 14.7103C8.77674 14.5908 8.49221 14.1125 8.61168 13.642C8.73115 13.1715 9.20922 12.8871 9.6799 13.0065C11.6082 13.4962 12.9996 15.0318 13.4031 16.8532C13.7427 16.6092 14.2181 16.6354 14.5281 16.9373C14.8758 17.2761 14.8831 17.8325 14.5444 18.1802L13.1567 19.6048Z" fill="black"/>
<path d="M29.7936 26.6865L28.709 22.602C28.4734 21.7147 28.0561 20.9128 27.5036 20.2318C27.1927 19.8485 26.7229 19.6289 26.2294 19.6289H24.7884C25.0916 20.2116 25.3067 20.9816 25.3118 21.9949C25.3142 22.4756 24.9475 22.8913 24.4671 22.9095C23.9662 22.9285 23.554 22.528 23.554 22.0312C23.554 20.5068 22.9187 19.9164 22.5579 19.7039C22.199 19.9153 21.5685 20.5006 21.5619 22.0075C21.56 22.4547 21.2394 22.848 20.7955 22.9031C20.2599 22.9697 19.804 22.5537 19.804 22.0312C19.804 20.9999 20.0207 20.2186 20.3276 19.6289H18.8863C18.3926 19.6289 17.9227 19.8486 17.6118 20.2321C17.0595 20.9132 16.6423 21.715 16.4068 22.602L15.3222 26.6865C14.8772 28.3644 16.1426 29.9999 17.871 30H27.1991C29.0053 30 30.2336 28.3457 29.7936 26.6865Z" fill="black"/>
<path d="M2.68568 24.943C1.98068 25.4443 1.52295 26.2649 1.52295 27.1887C1.52295 28.6154 2.61309 29.8622 4.03633 29.9898C5.6725 30.1364 7.03076 28.7856 7.03076 27.1887C7.03076 24.9521 4.49605 23.6572 2.68568 24.943ZM4.27686 28.096C3.79146 28.096 3.39795 27.7025 3.39795 27.2171C3.39795 26.7317 3.79146 26.3382 4.27686 26.3382C4.76225 26.3382 5.15576 26.7317 5.15576 27.2171C5.15576 27.7025 4.7623 28.096 4.27686 28.096Z" fill="black"/>
</g>
<defs>
<clipPath id="clip0_1277_20132">
<rect width="30" height="30" fill="white"/>
</clipPath>
</defs>
</svg>
