<svg width="30" height="30" viewBox="0 0 30 30" fill="none" xmlns="http://www.w3.org/2000/svg">
<g clip-path="url(#clip0_1277_20168)">
<path d="M10.4062 0.784131L9.10663 0.277004C8.63753 0.0939385 8.13832 0 7.63472 0H1.01296C0.453498 0 0 0.453498 0 1.01296V7.92275C0 8.48216 0.453498 8.93572 1.01296 8.93572H6.48299C7.03283 8.93572 7.47858 9.38147 7.47858 9.93131V12.2127C7.79384 12.1824 8.10277 12.1097 8.40066 11.9953C9.04391 11.7484 9.60942 11.259 9.99315 10.6173C11.9717 7.30872 14.0833 5.67204 16.6058 5.503C16.6611 5.49344 16.7177 5.48745 16.7757 5.48745H18.7524C18.9296 5.48745 19.0732 5.34382 19.0732 5.16668V1.51815C19.0732 1.34101 18.9296 1.19738 18.7524 1.19738H12.6021C11.8508 1.19744 11.1061 1.05726 10.4062 0.784131Z" fill="black"/>
<path d="M17.7871 7.47853C17.8174 7.79379 17.8901 8.10271 18.0045 8.4006C18.2515 9.04385 18.7409 9.60936 19.3825 9.9931C21.394 11.196 22.768 12.3872 23.5827 13.6349C24.416 14.9111 24.5123 16.0385 24.5123 16.7757V18.8891C24.5652 19.0015 24.6783 19.0732 24.8025 19.0732H28.4815C28.6586 19.0732 28.8023 18.9295 28.8023 18.7524V12.6021C28.8023 11.8508 28.9424 11.1062 29.2155 10.4063L29.7226 9.1067C29.9065 8.63559 29.9997 8.14044 29.9997 7.63472V1.01296C29.9998 0.453498 29.5463 0 28.9869 0H22.077C21.5176 0 21.064 0.453498 21.064 1.01296V6.48299C21.064 7.03283 20.6183 7.47858 20.0684 7.47858L17.7871 7.47853Z" fill="black"/>
<path d="M19.5937 29.2175L20.8933 29.7246C21.3644 29.9085 21.8595 30.0017 22.3653 30.0017H28.9871C29.5465 30.0017 30 29.5482 30 28.9887V22.079C30 21.5196 29.5465 21.066 28.9871 21.066H23.517C22.9671 21.066 22.5214 20.6202 22.5214 20.0704V17.7891C22.2061 17.8193 21.8972 17.8921 21.5993 18.0065C20.9561 18.2535 20.3905 18.7428 20.0068 19.3844C18.8039 21.396 17.6127 22.7699 16.365 23.5846C15.0889 24.4179 13.9614 24.5143 13.2242 24.5143H11.2475C11.0704 24.5143 10.9268 24.6579 10.9268 24.835V28.4835C10.9268 28.6606 11.0704 28.8043 11.2475 28.8043H17.3978C18.1491 28.8043 18.8938 28.9444 19.5937 29.2175Z" fill="black"/>
<path d="M7.92275 29.999C8.48216 29.999 8.93572 29.5455 8.93572 28.986V23.5159C8.93572 22.9661 9.38147 22.5203 9.93131 22.5203H12.2127C12.1824 22.2051 12.1097 21.8962 11.9953 21.5983C11.7483 20.955 11.2589 20.3895 10.6173 20.0057C6.59171 17.5985 5.63537 15.9259 5.50453 13.4031C5.49385 13.3447 5.48745 13.2847 5.48745 13.2233V11.2466C5.48745 11.0694 5.34382 10.9258 5.16668 10.9258H1.51815C1.34101 10.9258 1.19738 11.0694 1.19738 11.2466V17.3969C1.19738 18.1481 1.0572 18.8928 0.784131 19.5926L0.277004 20.8922C0.0939385 21.3614 0 21.8606 0 22.3642V28.986C0 29.5454 0.453498 29.999 1.01296 29.999H7.92275Z" fill="black"/>
</g>
<defs>
<clipPath id="clip0_1277_20168">
<rect width="30" height="30" fill="white"/>
</clipPath>
</defs>
</svg>
