<svg width="31" height="31" viewBox="0 0 31 31" fill="none" xmlns="http://www.w3.org/2000/svg">
<path d="M30.9687 15.5C30.9687 15.8505 30.9274 24.2037 27.5758 27.5759C26.2455 28.9062 24.338 29.587 21.8939 29.587C20.213 29.587 18.6863 29.2567 17.8615 29.0402L22.1104 24.7812H24.7812C25.3481 24.7812 25.8124 24.317 25.8124 23.75C25.8124 23.183 25.3481 22.7188 24.7812 22.7188H24.1729L25.5133 21.3884C25.9151 20.9861 25.9151 20.3264 25.5133 19.9241C25.1115 19.5218 24.4508 19.5218 24.049 19.9241L22.7187 21.2645V20.6562C22.7187 20.0893 22.2544 19.625 21.6874 19.625C21.1204 19.625 20.6562 20.0893 20.6562 20.6562V23.327L16.3972 27.5759C15.933 25.8125 14.943 20.7801 17.8615 17.8616C19.5423 16.1808 22.4709 15.3348 25.0289 14.9124C27.5859 14.4788 29.7622 14.4688 29.9374 14.4688C30.2053 14.4688 30.4732 14.582 30.6696 14.7679C30.8549 14.9637 30.9687 15.2215 30.9687 15.5ZM17.2321 28.8549C16.9229 28.7517 16.6862 28.5039 16.5825 28.2048C16.5624 28.1535 16.4899 27.9369 16.3972 27.5759L14.7678 29.2054C14.3659 29.6077 14.3659 30.2673 14.7678 30.6696C14.9742 30.8655 15.232 30.9688 15.4999 30.9688C15.7678 30.9688 16.0256 30.8655 16.2321 30.6696L17.8615 29.0402C17.4899 28.937 17.2532 28.865 17.2321 28.8549ZM0.0825195 12.4062H6.24988C6.51776 7.55917 8.62155 2.92912 11.0657 0.237701C5.12598 1.29967 0.536713 6.29076 0.0825195 12.4062ZM8.31238 12.4062H14.4687V0.113831C12.0557 1.27902 8.68298 6.6105 8.31238 12.4062ZM0.0825195 14.4688C0.536713 20.5842 5.12598 25.5753 11.0657 26.6373C8.62155 23.9459 6.51776 19.3158 6.24988 14.4688H0.0825195ZM14.4687 14.4688H8.31238C8.66284 19.9447 11.6841 24.9978 14.0558 26.524C13.7264 24.606 13.5613 21.9247 14.4687 19.4704V14.4688ZM21.3853 9.61462C20.9825 9.21179 20.3299 9.21179 19.927 9.61462L18.5937 10.948V5.1875C18.5937 4.62051 18.1294 4.15625 17.5624 4.15625C16.9954 4.15625 16.5312 4.62051 16.5312 5.1875V16.2835C17.1082 15.7271 17.789 15.2321 18.5937 14.7986V13.8645L21.3853 11.0729C21.7881 10.67 21.7881 10.0175 21.3853 9.61462ZM23.6774 5.25951C23.2141 2.3002 20.6461 0.03125 17.5624 0.03125H16.5312V2.09375H17.5624C19.8414 2.09375 21.6874 3.93973 21.6874 6.21875C21.6874 6.78574 22.1517 7.25 22.7187 7.25C24.9977 7.25 26.8437 9.09598 26.8437 11.375C26.8437 11.798 26.7822 12.2204 26.6473 12.6127C27.4932 12.5095 28.2354 12.4682 28.8034 12.437C28.8749 12.0865 28.9062 11.736 28.9062 11.375C28.9062 8.29132 26.6372 5.72377 23.6774 5.25951Z" fill="black"/>
</svg>
