<svg width="20" height="19" viewBox="0 0 20 19" fill="none" xmlns="http://www.w3.org/2000/svg">
<path d="M16.3335 6.80829L9.69933 13.4425C9.46974 13.672 9.16891 13.8145 8.84433 13.8462L6.52474 14.06C6.52474 14.06 6.46141 14.06 6.43766 14.06C6.17641 14.06 5.92308 13.957 5.74099 13.767C5.53516 13.5612 5.43225 13.2683 5.456 12.9754L5.66974 10.6558C5.70141 10.3312 5.84391 10.0304 6.07349 9.80079L12.6918 3.16663L16.3335 6.80829ZM17.8693 2.19288L17.3072 1.6308C16.4602 0.783713 15.0747 0.783713 14.2277 1.6308L13.531 2.32746L17.1727 5.96913L17.8693 5.27246C18.281 4.86079 18.5106 4.31454 18.5106 3.73663C18.5106 3.15871 18.281 2.60455 17.8693 2.2008V2.19288ZM16.9272 15.0495V10.45C16.9272 10.1254 16.6581 9.85621 16.3335 9.85621C16.0089 9.85621 15.7397 10.1254 15.7397 10.45V15.0495C15.7397 16.0312 14.9402 16.8308 13.9585 16.8308H4.4585C3.47683 16.8308 2.67725 16.0312 2.67725 15.0495V5.54163C2.67725 4.55996 3.47683 3.76038 4.4585 3.76038H9.05808C9.38266 3.76038 9.65183 3.49121 9.65183 3.16663C9.65183 2.84205 9.38266 2.57288 9.05808 2.57288H4.4585C2.81975 2.57288 1.48975 3.90288 1.48975 5.54163V15.0416C1.48975 16.6804 2.81975 18.0104 4.4585 18.0104H13.9585C15.5972 18.0104 16.9272 16.6804 16.9272 15.0416V15.0495Z" fill="black"/>
</svg>
