<svg width="29" height="29" viewBox="0 0 29 29" fill="none" xmlns="http://www.w3.org/2000/svg">
<path d="M1.18266 16.7747C1.15007 16.6956 1.13315 16.611 1.13281 16.5255V1.8125C1.13269 1.72321 1.15019 1.63477 1.18431 1.55225C1.21842 1.46974 1.26848 1.39476 1.33162 1.33162C1.39476 1.26848 1.46974 1.21842 1.55225 1.18431C1.63477 1.15019 1.72321 1.13269 1.8125 1.13281H7.14578C7.32591 1.13333 7.49855 1.20499 7.62609 1.33219L12.3159 6.02203C12.3791 6.08504 12.4293 6.1599 12.4635 6.24232C12.4977 6.32474 12.5153 6.4131 12.5153 6.50234C12.5153 6.59158 12.4977 6.67995 12.4635 6.76237C12.4293 6.84479 12.3791 6.91965 12.3159 6.98266L2.29281 17.0058C2.21274 17.0842 2.11459 17.1417 2.00703 17.1732C1.89947 17.2047 1.78582 17.2092 1.6761 17.1863C1.56638 17.1635 1.46397 17.114 1.37791 17.0422C1.29185 16.9704 1.22479 16.8785 1.18266 16.7747Z" fill="black"/>
<path d="M27.8663 1.8125V7.14578C27.8637 7.234 27.8468 7.32121 27.8164 7.40406C27.7806 7.48658 27.7299 7.56184 27.6669 7.62609L22.977 12.3159C22.8492 12.4424 22.6766 12.5134 22.4967 12.5134C22.3169 12.5134 22.1443 12.4424 22.0164 12.3159L11.9933 2.29281C11.9156 2.21292 11.8585 2.11532 11.8269 2.00843C11.7954 1.90154 11.7903 1.78858 11.8122 1.67929C11.834 1.57 11.8822 1.46768 11.9524 1.38116C12.0227 1.29463 12.1129 1.2265 12.2154 1.18266C12.2982 1.15212 12.3854 1.13529 12.4737 1.13281H27.1866C27.2759 1.13269 27.3643 1.15019 27.4468 1.18431C27.5293 1.21842 27.6043 1.26848 27.6675 1.33162C27.7306 1.39476 27.7807 1.46974 27.8148 1.55225C27.8489 1.63477 27.8664 1.72321 27.8663 1.8125Z" fill="black"/>
<path d="M27.817 12.2248C27.8496 12.3039 27.8665 12.3885 27.8669 12.474V27.187C27.867 27.2763 27.8495 27.3647 27.8154 27.4472C27.7813 27.5297 27.7312 27.6047 27.6681 27.6679C27.6049 27.731 27.53 27.7811 27.4474 27.8152C27.3649 27.8493 27.2765 27.8668 27.1872 27.8667H21.8539C21.6738 27.8661 21.5012 27.7945 21.3736 27.6673L16.6838 22.9774C16.6206 22.9144 16.5704 22.8396 16.5362 22.7572C16.502 22.6747 16.4844 22.5864 16.4844 22.4971C16.4844 22.4079 16.502 22.3195 16.5362 22.2371C16.5704 22.1547 16.6206 22.0798 16.6838 22.0168L26.7069 11.9937C26.787 11.9153 26.8851 11.8578 26.9927 11.8263C27.1002 11.7948 27.2139 11.7903 27.3236 11.8132C27.4333 11.836 27.5357 11.8855 27.6218 11.9573C27.7078 12.0291 27.7749 12.1209 27.817 12.2248Z" fill="black"/>
<path d="M8.68733 14.0206L14.0206 8.68734C14.1486 8.56105 14.3211 8.49023 14.5009 8.49023C14.6807 8.49023 14.8533 8.56105 14.9812 8.68734L20.3145 14.0206C20.4408 14.1486 20.5116 14.3211 20.5116 14.5009C20.5116 14.6807 20.4408 14.8533 20.3145 14.9812L14.9812 20.3145C14.8527 20.4398 14.6804 20.5099 14.5009 20.5099C14.3215 20.5099 14.1491 20.4398 14.0206 20.3145L8.68733 14.9812C8.56104 14.8533 8.49023 14.6807 8.49023 14.5009C8.49023 14.3211 8.56104 14.1486 8.68733 14.0206Z" fill="black"/>
<path d="M17.1553 26.9387C17.1951 27.0416 17.2094 27.1526 17.1969 27.2622C17.1844 27.3718 17.1455 27.4767 17.0836 27.5681C17.0217 27.6594 16.9386 27.7343 16.8414 27.7865C16.7442 27.8386 16.6358 27.8665 16.5255 27.8676H1.8125C1.72321 27.8677 1.63477 27.8502 1.55225 27.8161C1.46974 27.782 1.39476 27.7319 1.33162 27.6688C1.26848 27.6056 1.21842 27.5307 1.18431 27.4481C1.15019 27.3656 1.13269 27.2772 1.13281 27.1879V21.8546C1.13543 21.7664 1.15226 21.6792 1.18266 21.5963C1.21853 21.5138 1.26921 21.4386 1.33219 21.3743L6.02203 16.6845C6.15208 16.5622 6.32385 16.4941 6.50234 16.4941C6.68083 16.4941 6.85261 16.5622 6.98266 16.6845L17.0058 26.7076C17.0733 26.7716 17.1246 26.8508 17.1553 26.9387Z" fill="black"/>
</svg>
