<svg version="1.2" xmlns="http://www.w3.org/2000/svg" viewBox="0 0 526 517" width="526" height="517"><style>.a{fill:#031e54}.b{fill:#f3f3f3}.c{fill:#f4c63d}.d{fill:#fff}.e{fill:#fff;stroke:#031e54;stroke-width:6}.f{fill:#5da2f4}</style><path class="a" d="m145.4 69.2c0.5-4.8 0.9-10.5 1.9-16 1.9-10.7 7.3-19.4 15.1-26.8 7.1-6.7 14.6-12.5 23.6-16.4 6.7-2.9 13.7-4.5 21-5.1 19.2-1.4 35.8 4.7 50 17.6 6.9 6.2 12.1 13.6 15.8 22 3.2 7.4 5 15 5.4 22.9 0.5 8.5-0.7 16.8-3.5 24.8-3.4 9.8-8.7 18.5-16.2 25.8q-3.9 3.7-7.8 7.4c-6.2 5.8-13.8 8.8-22.1 10.3-7.2 1.4-14.4 1.4-21.7 1.5-13.1 0-25.1 3.8-36 10.9q-21 13.5-29.2 37c-1.9 5.4-2.9 10.9-3.3 16.6-0.3 4.3-0.6 8.6-0.7 12.9-0.1 7.4 1.7 14.4 4.6 21.1 9.2 21.9 25.2 36.2 48.2 42.6 6.4 1.8 13.1 2 19.7 2.6 4.9 0.5 9.9 1 14.7 2.2 8 2 15.3 5.7 21 12 4.8 5.1 9.8 9.9 13.8 15.7 1.1 1.7 2 3.4 2.6 5.2 1.2 3.5 2.4 7 3.7 10.5 2.3 6.4 2.9 12.6 3.2 19.2 0.2 3.7 0 7.8 0 11.4q0.1 2.2-0.4 4.3c-0.6 3-1.7 6.3-3 9.1-1.3 2.9-2.2 5.7-3.9 8.4-1 1.6-2.2 3.2-3.3 4.7-4.2 6.2-9.1 11.6-15 16-10.5 7.7-22.2 12.5-35.3 13.2-21.5 1.2-39.5-6.5-54.1-22.2-3.1-3.3-6.1-6.7-8.6-10.3-4-5.6-5.8-12.1-7-18.8-1.1-5.5-1-11.1-0.8-16.7 0.2-12.2-2.4-23.8-8-34.7-4.8-9.4-11.4-17.2-19.7-23.8-4.8-3.8-10.1-6.8-15.7-9.3-8.3-3.6-17.1-4.9-26.1-5.4-7.4-0.4-14.8-1.4-21.9-3.7-7.2-2.3-13.3-6.2-18.5-11.7-5.1-5.3-10.1-10.7-13.8-17.2-4.4-7.7-7.3-15.8-8.6-24.5-1.3-8.3-0.7-16.5 1.2-24.6 3.3-13.8 10.5-25.1 20.8-34.6 4-3.7 7.8-7.6 12.7-10.3 6.6-3.6 13.6-5.4 21-6.1 3.4-0.3 6.8-0.2 10.2-0.1 10.3 0.3 20.2-1.5 29.7-5.3 12.5-4.9 22.7-12.9 30.7-23.5 5.7-7.5 9.8-15.8 11.9-25 1.2-4.9 2.1-9.9 1.7-15.8z"/><path class="b" d="m251.5 252.7c1.2-1.1 2.2-2.2 3.3-3 4.7-3.1 8.8-6.9 12.5-11.1 4.1-4.7 7-10.2 9.1-16 5.6-15.9 4.5-31.3-3.9-45.9-8.3-14.2-20.6-23.4-36.8-26.6-21.9-4.5-40.6 1.7-55.3 18.5-6.9 7.8-11.2 17.1-12.6 27.5-1.8 13.8 1 26.5 8.7 38.2 3.9 6 8.9 10.8 14.8 14.8 1.9 1.3 3.7 2.7 5.6 4 0.5 0.3 1.2 0.5 1.8 0.7 6 2.2 12 4.2 18.5 4.9 10.3 1.1 20.3-0.5 29.8-4.8q1-0.4 2-0.9c0.9-0.5 1.7-1 2.5-0.3z"/><path class="b" d="m395.8 417c0.8-0.6 1.3-1.3 2-1.8 2.9-1.9 5.4-4.2 7.7-6.7 2.5-2.9 4.2-6.2 5.5-9.8 3.4-9.6 2.8-19-2.4-27.9-5-8.7-12.6-14.3-22.4-16.3-13.3-2.7-24.7 1.1-33.7 11.3-4.2 4.8-6.8 10.4-7.7 16.8-1.1 8.4 0.6 16.1 5.3 23.2 2.4 3.7 5.5 6.6 9 9.1 1.2 0.8 2.3 1.6 3.5 2.4 0.3 0.2 0.7 0.3 1.1 0.5 3.6 1.3 7.3 2.5 11.2 2.9 6.3 0.7 12.4-0.3 18.2-2.9q0.6-0.3 1.2-0.6c0.5-0.2 1.1-0.6 1.5-0.2z"/><path class="a" d="m470.8 164.1c0.7-0.7 1.3-1.3 2-1.8 2.9-1.9 5.4-4.2 7.6-6.8 2.5-2.8 4.3-6.2 5.6-9.7 3.4-9.7 2.7-19.1-2.4-28-5.1-8.6-12.6-14.2-22.4-16.2-13.4-2.7-24.8 1.1-33.8 11.3-4.1 4.7-6.8 10.4-7.6 16.7-1.1 8.4 0.6 16.2 5.3 23.3 2.4 3.6 5.4 6.6 9 9.1 1.1 0.7 2.3 1.6 3.4 2.4 0.3 0.2 0.7 0.3 1.1 0.4 3.7 1.3 7.4 2.6 11.3 3 6.3 0.7 12.3-0.3 18.1-2.9q0.7-0.3 1.3-0.6c0.5-0.3 1-0.6 1.5-0.2z"/><path class="c" d="m341.2 428.4c-2-4.5-4.3-8.8-5.9-13.4-1.5-4.1-2.6-8.4-3.3-12.7-2.1-13-0.3-25.6 5.3-37.6 3-6.3 6.6-12.2 11.7-17 3.4-3.2 6.8-6.5 10.4-9.5 1.6-1.3 3.5-2.1 5.3-3.3 3.3-2.1 6.9-4.2 10-6.7 3.3-2.7 6.4-5.7 9.1-9.2 3.7-4.8 5.9-10.1 7.3-15.9 0.9-4.1 2.2-8.2 2.7-12.3 0.5-4.8 0.6-9.8 0.4-14.6-0.2-3.3-1.4-6.5-2.1-9.7-0.5-2.1-1-4.1-1.7-6-2.1-5.7-5.2-11-8.9-15.8-10.3-13.6-24.5-20.7-41.2-23-3.3-0.5-6.6-0.3-9.9-0.2q-4.1 0-8.1 0.5c-1.4 0.2-2.8 0.7-4.2 1.1-2.3 0.8-4.6 1.6-6.9 2.3-3.7 1.2-7.2 3.1-10.4 5.2-3 2-5.9 4-8.4 6.3-2.5 2.3-4.7 5-6.9 7.5-2.5 2.8-4.3 6.1-6.2 9.3-2.8 5.1-4.5 10.6-5.9 16.3-0.7 2.5-1.3 5.1-1.9 7.6-0.9 3.4-0.7 6.8-0.4 10.2 0.8 9 4.5 17.1 8.9 24.8 2 3.5 3.2 7.3 4.9 10.9 0.6 1.5 1.4 2.8 1.3 4.6 0 1.1 0.7 2.2 0.9 3.4 0.4 1.8 0.7 3.7 1.1 5.6 0.2 0.9 0.6 1.7 0.6 2.6 0 3.2-0.2 6.4-0.1 9.6 0.2 7.1-1.6 13.8-4 20.4-0.8 2.1-2 4-3 6.1-0.6 1-1.3 2-1.7 3.1-1.4 3.1-3.4 5.8-5.8 8.3-2.4 2.5-4.6 5.1-7.1 7.5-4.3 4.2-9.3 7.5-14.5 10.4-4.3 2.3-7.8 5.5-11.2 8.8-2.2 2.1-4.4 4.2-6.1 6.7-1.7 2.4-3 5.1-4 7.9-1.6 4.7-3.1 9.5-4.1 14.3-0.9 4.3-1.1 8.7-1.4 13-0.1 2.2 0.2 4.4 0.5 6.5q0.6 4.9 1.6 9.7c0.2 1.3 0.7 2.5 1.3 3.7 2 4.6 3.7 9.5 6.8 13.6 2.2 3 4.4 6.1 6.8 9.1 1 1.1 2.3 2 3.5 3 3.8 3.4 7.9 6.3 12.4 8.6 6.4 3.2 13.1 5.3 20.2 6.2 7 0.9 14 0.6 20.9-0.8 4.1-0.8 8-1.9 11.7-4 2.6-1.5 5.4-2.5 7.9-4.1 3.4-2.3 6.8-4.6 9.7-7.4 3.7-3.5 6.9-7.5 9.6-11.9 3.9-6.4 6.6-13.3 8.4-20.5 0.5-2.4 1.3-4.7 1.6-7 0.4-2.8 0.4-5.5 0.4-8.3 0-4.4-1.1-8.6-2.6-12.7-1.4-3.9-3-7.6-4.6-11.4l-0.7 0.3z"/><path class="d" d="m38.1 207.4c0.2 2 0.4 3.9 0.7 5.9 0.1 0.8 0.5 1.6 0.7 2.4 0.5 1.2 0.8 2.5 1.3 3.6 1 2 2.1 3.9 3.5 5.7 1.2 1.4 2.4 2.8 3.8 4.1 1.2 0.9 2.4 1.8 3.6 2.6 0.9 0.7 1.8 1.3 2.8 1.8q1.6 0.8 3.4 1.4c1.3 0.4 2.8 0.7 4.1 1.1 3.1 1 6.2 0.7 9.4 0.6 1.6 0 3-0.5 4.5-0.8 2.2-0.4 4.2-1.3 6.1-2.3 3.4-1.6 6.3-3.8 8.8-6.6q3.2-3.4 5.1-7.6c0.6-1.3 1-2.7 1.5-4 1.2-3.8 1.1-7.7 0.9-11.6-0.1-1-0.3-2-0.4-3 0 0 0-0.1-0.1-0.1-0.8-0.7-0.4-1.8-0.8-2.7q-0.8-1.8-1.7-3.6 0-0.1-0.1-0.2c-0.8-2.2-2.2-4-3.7-5.8-2-2.5-4.5-4.5-7.2-6.2-2.2-1.4-4.6-2.3-7.1-3.2-3.5-1.1-6.9-1.3-10.4-1.2-1.9 0-3.8 0.2-5.6 0.6-3.4 0.9-6.6 2.3-9.5 4.2-2.2 1.4-4.2 3.1-5.9 5-1.1 1.2-2 2.6-2.9 4-0.8 1.1-1.5 2.2-2 3.4-0.6 1.3-1 2.8-1.5 4.2-1 2.7-1.1 5.5-1.3 8.3z"/><path class="e" d="m68.3 108.9c29.3 0 53-23.7 53-53 0-29.3-23.7-53-53-53-29.3 0-53 23.7-53 53 0 29.3 23.7 53 53 53z"/><path class="f" d="m67.8 31.9c-1.8 0.3-3.6 0.3-5.3 0.7-5.2 1.2-9.6 3.9-13.2 7.9-1.9 2.1-3.4 4.6-4.5 7.2-0.4 1.2-0.7 2.4-1 3.6-0.8 2.9-0.4 5.8-0.4 8.8 0 0.8 0.3 1.7 0.5 2.5 0.6 2.1 1.5 4.2 2.6 6.1 1.5 2.6 3.5 4.9 5.9 6.8 2.1 1.6 4.2 2.9 6.7 3.8 0.7 0.2 1.2 0.5 1.9 0.7 0.1 0 0.3 0 0.4 0.1q0.5 0.1 1 0.2 0.2 0.1 0.4 0.1c2.2 0.4 4.5 0.6 6.8 0.5q0.7 0 1.3-0.2c1.2-0.2 2.4-0.4 3.5-0.7q2-0.6 3.8-1.4c2.6-1.1 4.9-2.8 6.9-4.8q3.5-3.4 5.4-7.9c0.8-1.7 1.3-3.4 1.6-5.2 0.2-1.9 0.1-4 0.2-6 0-0.2-0.1-0.4-0.1-0.7 0.2-1.4-0.4-2.8-0.7-4.2-0.5-2.2-1.5-4.2-2.7-6.1-1.4-2.1-2.9-4.1-4.9-5.7-1.7-1.4-3.5-2.6-5.6-3.6-0.9-0.4-1.9-0.7-2.9-1.1-0.7-0.3-1.5-0.6-2.3-0.7-1.5-0.2-3-0.7-4.6-0.5-0.3 0-0.5 0-0.7 0q0-0.1 0-0.2z"/><path class="e" d="m56 390.2c29.3 0 53-23.7 53-53 0-29.3-23.7-53-53-53-29.3 0-53 23.7-53 53 0 29.3 23.7 53 53 53z"/><path class="f" d="m55.5 313.2c-1.8 0.2-3.6 0.3-5.3 0.7-5.2 1.2-9.6 3.8-13.2 7.9-1.9 2.1-3.4 4.6-4.4 7.2-0.5 1.2-0.7 2.4-1.1 3.6-0.8 2.9-0.4 5.8-0.4 8.7 0.1 0.9 0.3 1.7 0.6 2.6 0.5 2.1 1.4 4.1 2.5 6 1.6 2.7 3.5 5 5.9 6.8 2.1 1.6 4.3 3 6.8 3.9 0.6 0.2 1.2 0.4 1.8 0.7 0.1 0 0.3 0 0.4 0q0.5 0.2 1 0.3 0.2 0.1 0.4 0.1c2.2 0.4 4.5 0.6 6.8 0.5q0.7-0.1 1.3-0.2c1.2-0.2 2.4-0.4 3.6-0.7q1.9-0.6 3.7-1.4c2.6-1.1 4.9-2.8 6.9-4.8q3.5-3.4 5.5-8c0.7-1.6 1.3-3.3 1.5-5.1 0.3-2 0.1-4 0.2-6 0-0.2-0.1-0.5-0.1-0.7 0.2-1.5-0.3-2.8-0.7-4.2-0.5-2.2-1.5-4.2-2.7-6.1-1.3-2.2-2.9-4.1-4.9-5.7-1.7-1.4-3.5-2.7-5.5-3.6-1-0.4-2-0.8-3-1.1-0.7-0.3-1.5-0.6-2.2-0.7-1.6-0.2-3.1-0.7-4.7-0.5-0.3 0-0.5 0-0.7 0q0-0.1 0-0.2z"/><path class="f" d="m468.1 185.9c-4.4 0-8.8 0.3-13.2-0.1-3.9-0.3-7.8-0.9-11.6-1.9-11.5-3.1-21.2-9.3-29-18.3-4.1-4.8-7.6-9.9-9.7-15.8-1.4-4.1-2.8-8.1-4-12.1-0.5-1.8-0.4-3.7-0.7-5.5-0.6-3.6-0.9-7.3-1.9-10.8-1-3.7-2.3-7.4-4.1-10.8-2.6-4.8-6.2-8.7-10.5-11.9-3-2.3-5.9-4.8-9.1-6.8-3.8-2.2-7.8-4.1-11.9-5.6-2.8-1.1-5.8-1.4-8.8-1.9-1.8-0.4-3.6-0.7-5.5-0.9-5.5-0.3-10.9 0.3-16.2 1.6-15 3.5-26.1 12.5-34.2 25.4-1.6 2.5-2.6 5.3-3.8 8.1q-1.4 3.3-2.5 6.8c-0.4 1.2-0.5 2.5-0.6 3.8-0.3 2.2-0.4 4.4-0.7 6.6-0.4 3.5-0.1 7 0.5 10.5 0.5 3.1 1.1 6.2 2 9.2 1 2.9 2.4 5.6 3.6 8.4 1.4 3.1 3.5 5.8 5.5 8.5 3.1 4.2 7 7.7 11.1 10.9 1.9 1.5 3.7 2.9 5.6 4.4 2.5 1.9 5.3 3 8.2 4 7.8 2.7 15.8 2.7 23.8 1.9 3.6-0.4 7.1 0 10.7 0 1.4-0.1 2.8-0.2 4.2 0.5 1 0.5 2.1 0.3 3.2 0.6 1.6 0.3 3.3 0.7 5 1.1 0.8 0.2 1.6 0.2 2.3 0.5 2.7 1.2 5.3 2.5 7.9 3.6 5.9 2.5 10.8 6.5 15.3 10.9 1.4 1.4 2.6 3.1 3.9 4.7 0.6 0.8 1.2 1.7 1.9 2.5 2.1 2.3 3.6 5 4.7 7.8 1.2 2.9 2.5 5.7 3.6 8.6 1.8 5.1 2.7 10.4 3.1 15.8 0.4 4.3 1.7 8.4 3.2 12.4 0.9 2.6 1.9 5.2 3.3 7.5 1.3 2.3 3.1 4.4 5 6.2 3.3 3.1 6.7 6 10.3 8.6 3.2 2.3 6.7 4.2 10.2 6 1.7 0.9 3.6 1.4 5.5 2q4.2 1.2 8.5 2.3c1.1 0.2 2.3 0.3 3.5 0.3 4.6 0 9.2 0.3 13.7-0.6 3.3-0.8 6.7-1.5 10-2.3 1.3-0.4 2.5-1.2 3.8-1.7 4.2-1.9 8-4.3 11.6-7.1 5-4.1 9.2-8.8 12.6-14.3 3.3-5.5 5.6-11.3 7-17.5 0.8-3.7 1.4-7.3 1-11.1-0.3-2.7-0.1-5.4-0.5-8-0.6-3.6-1.2-7.3-2.4-10.7-1.6-4.4-3.7-8.5-6.3-12.3-3.8-5.6-8.5-10.3-13.8-14.4-1.7-1.4-3.3-2.9-5.2-4-2.1-1.3-4.3-2.4-6.6-3.4-3.6-1.6-7.5-2.2-11.4-2.5-3.7-0.2-7.4-0.3-11.1-0.4v0.7z"/></svg>