<svg width="36" height="36" viewBox="0 0 36 36" fill="none" xmlns="http://www.w3.org/2000/svg">
<path fill-rule="evenodd" clip-rule="evenodd" d="M6.5451 5.64649H6.6H21.9549C22.5378 5.64646 23.0642 5.64641 23.5023 5.68292C23.9726 5.7221 24.4731 5.81093 24.963 6.06544C25.6709 6.43319 26.241 7.01708 26.5965 7.72858C26.8412 8.21804 26.9267 8.71745 26.9646 9.19049C27 9.63364 27 10.167 27 10.7635V19.5883C27 20.1847 27 20.7181 26.9646 21.1614C26.9267 21.6343 26.8412 22.1338 26.5965 22.6233C26.241 23.3347 25.6709 23.9187 24.963 24.2863C24.4731 24.5409 23.9726 24.6297 23.5023 24.6688C23.0642 24.7054 22.5378 24.7054 21.9549 24.7053H19.8626C19.7465 24.7341 19.6251 24.7494 19.5 24.7494C19.3751 24.7494 19.2536 24.7341 19.1375 24.7053H13.625C12.9643 24.7053 12.8349 24.7119 12.7237 24.7341C12.5954 24.7594 12.4711 24.8016 12.3537 24.8592C12.252 24.9093 12.1452 24.9826 11.6204 25.3839L10.9522 25.8949C10.8408 26.3016 10.5596 26.6592 10.1489 26.8543C9.94142 26.9529 9.7227 26.9997 9.50735 26.9998L9.32949 27.1359C7.96656 28.1781 6 27.2062 6 25.4905V24.7041C5.63196 24.7015 5.2946 24.6936 4.99769 24.6688C4.52739 24.6297 4.0269 24.5409 3.537 24.2863C2.82914 23.9187 2.259 23.3347 1.90346 22.6233C1.65885 22.1338 1.57335 21.6343 1.53545 21.1614C1.49994 20.7181 1.49997 20.1849 1.5 19.5883V10.8171C1.5 10.7992 1.5 10.7813 1.5 10.7635C1.49997 10.167 1.49994 9.63362 1.53545 9.19049C1.57335 8.71745 1.65885 8.21804 1.90346 7.72858C2.259 7.01708 2.82914 6.43319 3.537 6.06544C4.0269 5.81093 4.52739 5.7221 4.99769 5.68292C5.43587 5.64641 5.96214 5.64646 6.5451 5.64649ZM10.5923 22.4191C10.7347 22.3261 10.8789 22.2414 11.03 22.1671C11.382 21.994 11.7551 21.8677 12.1399 21.7914C12.5775 21.7045 13.0206 21.7048 13.5229 21.7053H13.625H17.6684C17.0799 20.4045 15.7706 19.4994 14.25 19.4994C12.4643 19.4994 10.9701 20.7475 10.5923 22.4191ZM10.3365 17.749C8.95968 18.7305 7.967 20.2158 7.62774 21.9358C7.31621 21.7881 6.96777 21.7053 6.6 21.7053C5.94471 21.7053 5.54522 21.7041 5.24673 21.6792C5.10797 21.6676 5.02485 21.6532 4.97513 21.6412C4.95153 21.6357 4.9373 21.6309 4.92993 21.6283C4.92288 21.6258 4.92021 21.6243 4.92005 21.6241C4.78119 21.5521 4.66292 21.4341 4.58703 21.2821C4.58534 21.279 4.54892 21.2094 4.52586 20.9217C4.50113 20.613 4.5 20.2014 4.5 19.5348V10.8171C4.5 10.1504 4.50113 9.73885 4.52586 9.43012C4.54892 9.14243 4.58529 9.07295 4.58697 9.06973C4.58697 9.06974 4.587 9.06968 4.58697 9.06973C4.66286 8.91788 4.78119 8.79976 4.92005 8.72762C4.92021 8.72753 4.92288 8.72611 4.92993 8.72354C4.9373 8.72087 4.95153 8.71619 4.97513 8.71052C5.02485 8.69858 5.10797 8.68412 5.24673 8.67257C5.54522 8.6477 5.94471 8.64649 6.6 8.64649H21.9C22.5554 8.64649 22.9548 8.6477 23.2533 8.67257C23.3921 8.68412 23.4752 8.69858 23.525 8.71052C23.5485 8.71619 23.5628 8.72087 23.5701 8.72354C23.577 8.72606 23.5797 8.72749 23.58 8.72762C23.7188 8.79976 23.8371 8.91778 23.913 9.06962C23.9147 9.07285 23.9511 9.14242 23.9742 9.43012C23.999 9.73885 24 10.1504 24 10.8171V19.5348C24 20.2014 23.999 20.613 23.9742 20.9217C23.9511 21.2094 23.9147 21.2788 23.913 21.2821C23.8371 21.4339 23.7188 21.5521 23.58 21.6241C23.5799 21.6243 23.5772 21.6258 23.5701 21.6283C23.5628 21.6309 23.5485 21.6357 23.525 21.6412C23.4752 21.6532 23.3921 21.6676 23.2533 21.6792C22.9548 21.7041 22.5554 21.7053 21.9 21.7053H20.8226C20.4431 20.0833 19.4784 18.6864 18.1635 17.749C18.9947 16.8202 19.5 15.5938 19.5 14.2494C19.5 11.3499 17.1495 8.99944 14.25 8.99944C11.3505 8.99944 9 11.3499 9 14.2494C9 15.5938 9.50537 16.8202 10.3365 17.749ZM14.25 11.9994C13.0074 11.9994 12 13.0068 12 14.2494C12 15.4921 13.0074 16.4994 14.25 16.4994C15.4926 16.4994 16.5 15.4921 16.5 14.2494C16.5 13.0068 15.4926 11.9994 14.25 11.9994ZM30 10.4994C30.8285 10.4994 31.5 11.171 31.5 11.9994V24.0882C31.5 24.6847 31.5002 25.218 31.4646 25.6612C31.4267 26.1342 31.3412 26.6337 31.0967 27.1231C30.741 27.8346 30.1709 28.4185 29.463 28.7862C28.9731 29.0407 28.4727 29.1295 28.0023 29.1688C27.7055 29.1934 27.3681 29.2014 27 29.2039V29.9904C27 31.7061 25.0335 32.6779 23.6706 31.6357L21.3797 29.8839C20.855 29.4825 20.748 29.4091 20.6463 29.3592C20.529 29.3014 20.4047 29.2593 20.2764 29.2339C20.1651 29.2119 20.0357 29.2051 19.3751 29.2051H13.5C12.6716 29.2051 12 28.5336 12 27.7051C12 26.8768 12.6716 26.2051 13.5 26.2051H19.3751H19.4772C19.9794 26.2047 20.4227 26.2044 20.8602 26.2912C21.245 26.3676 21.618 26.4939 21.9701 26.667C22.3704 26.8638 22.7223 27.1333 23.121 27.4387C23.1479 27.4593 23.1749 27.48 23.202 27.5007L24.0441 28.1448C24.2589 27.0396 25.2321 26.2051 26.4 26.2051C27.0554 26.2051 27.4548 26.2039 27.7533 26.1792C27.8921 26.1675 27.9752 26.1531 28.025 26.1412C28.0485 26.1355 28.0628 26.1309 28.0701 26.1282C28.0772 26.1256 28.0799 26.1241 28.08 26.1241C28.2189 26.052 28.3371 25.9339 28.413 25.782C28.4147 25.7788 28.4511 25.7092 28.4742 25.4215C28.499 25.1128 28.5 24.7012 28.5 24.0346V11.9994C28.5 11.171 29.1716 10.4994 30 10.4994Z" fill="black"/>
</svg>
