<svg width="22" height="22" viewBox="0 0 22 22" fill="none" xmlns="http://www.w3.org/2000/svg">
<g clip-path="url(#clip0_909_19472)">
<path fill-rule="evenodd" clip-rule="evenodd" d="M8.83803 14.8156H13.162C14.0298 14.2904 14.6911 13.4583 14.9956 12.4696C14.1017 11.2297 12.6453 10.4223 11 10.4223C9.35468 10.4223 7.89821 11.2297 7.00434 12.4696C7.30894 13.4583 7.97019 14.2904 8.83803 14.8156ZM5.80241 3.46128L6.22269 4.56824C6.23532 4.6015 6.26476 4.6229 6.30029 4.62462L7.48292 4.68224C7.56336 4.68615 7.59627 4.78747 7.5335 4.83796L6.61061 5.57973C6.58286 5.60203 6.57164 5.63662 6.58096 5.67095L6.89159 6.81353C6.91268 6.89126 6.82653 6.95382 6.75916 6.90974L5.76847 6.26125C5.73869 6.24175 5.70234 6.24175 5.67256 6.26125L4.68192 6.90974C4.61454 6.95382 4.52839 6.89122 4.54949 6.81353L4.86011 5.67095C4.86943 5.63662 4.85822 5.60203 4.83046 5.57973L3.90758 4.83796C3.8448 4.78747 3.87771 4.68619 3.95815 4.68224L5.14082 4.62462C5.17636 4.6229 5.20579 4.6015 5.21843 4.56824L5.6387 3.46128C5.66711 3.38643 5.77401 3.38643 5.80241 3.46128ZM16.318 3.46128L16.7383 4.56824C16.7509 4.6015 16.7803 4.6229 16.8159 4.62462L17.9985 4.68224C18.0789 4.68615 18.1118 4.78751 18.0491 4.83796L17.1262 5.57973C17.0985 5.60203 17.0872 5.63657 17.0965 5.67095L17.4072 6.81353C17.4283 6.89126 17.3421 6.95382 17.2747 6.90974L16.284 6.26125C16.2543 6.24175 16.2179 6.24175 16.1881 6.26125L15.1975 6.90974C15.1301 6.95382 15.044 6.89122 15.0651 6.81353L15.3757 5.67095C15.385 5.63662 15.3738 5.60203 15.346 5.57973L14.4231 4.83796C14.3604 4.78747 14.3933 4.68619 14.4737 4.68224L15.6564 4.62462C15.6919 4.6229 15.7214 4.6015 15.734 4.56824L16.1543 3.46128C16.1827 3.38639 16.2896 3.38639 16.318 3.46128ZM11.0819 0.506578L11.5021 1.6135C11.5148 1.6468 11.5442 1.66815 11.5797 1.66987L12.7624 1.72749C12.8428 1.7314 12.8757 1.83277 12.8129 1.88321L11.8901 2.62498C11.8623 2.64728 11.8511 2.68187 11.8604 2.7162L12.171 3.85879C12.1921 3.93652 12.106 3.99908 12.0386 3.95499L11.0479 3.30647C11.0181 3.28696 10.9818 3.28696 10.952 3.30647L9.96136 3.95499C9.89398 3.99908 9.80783 3.93647 9.82893 3.85879L10.1396 2.7162C10.1489 2.68187 10.1377 2.64728 10.1099 2.62498L9.18702 1.88321C9.12424 1.83272 9.15716 1.73145 9.23759 1.72749L10.4202 1.66987C10.4558 1.66815 10.4852 1.64675 10.4978 1.6135L10.9181 0.506578C10.9465 0.431727 11.0535 0.431727 11.0819 0.506578ZM6.13207 11.2369C6.13207 13.9255 8.31127 16.1047 11 16.1047C13.6887 16.1047 15.8679 13.9255 15.8679 11.2369H21.3125V12.6324L19.6035 13.2903C19.3869 14.2008 19.0259 15.0704 18.5351 15.8674L19.2789 17.5421L17.3052 19.5158L15.6311 18.7722C14.834 19.2632 13.964 19.6242 13.0533 19.8409L12.3956 21.5494H9.60437L8.94657 19.8405C8.03602 19.6238 7.16637 19.2628 6.36943 18.772L4.69477 19.5158L2.721 17.5421L3.46457 15.868C2.97365 15.0709 2.61267 14.2009 2.39598 13.2902L0.6875 12.6325V11.2369H6.13207ZM11 5.01443C12.3747 5.01443 13.4891 6.12887 13.4891 7.50357C13.4891 8.87827 12.3747 9.99266 11 9.99266C9.62534 9.99266 8.51091 8.87822 8.51091 7.50357C8.51091 6.12887 9.62534 5.01443 11 5.01443Z" fill="black"/>
</g>
<defs>
<clipPath id="clip0_909_19472">
<rect width="22" height="22" fill="white"/>
</clipPath>
</defs>
</svg>
