<svg version="1.2" xmlns="http://www.w3.org/2000/svg" viewBox="0 0 18 12" width="18" height="12"><style></style><path fill-rule="evenodd" d="m17.9 6.1c-0.2 0.2-4 5.4-8.9 5.4-4.9 0-8.7-5.2-8.9-5.4-0.1-0.2-0.1-0.5 0-0.7 0.2-0.2 4-5.4 8.9-5.4 4.9 0 8.7 5.2 8.9 5.4 0.1 0.2 0.1 0.5 0 0.7zm-1.2-0.3c-1-1.1-4.1-4.6-7.7-4.6-3.6 0-6.7 3.5-7.7 4.6 1 1.1 4.1 4.5 7.7 4.5 3.6 0 6.7-3.4 7.7-4.5z"/><path fill-rule="evenodd" d="m12.6 5.8c0 1.9-1.6 3.5-3.6 3.5-2 0-3.6-1.6-3.6-3.5 0-2 1.6-3.6 3.6-3.6 2 0 3.6 1.6 3.6 3.6zm-1.2 0c0-1.3-1.1-2.4-2.4-2.4-1.3 0-2.4 1.1-2.4 2.4 0 1.3 1.1 2.3 2.4 2.3 1.3 0 2.4-1 2.4-2.3z"/></svg>