<svg width="68" height="68" viewBox="0 0 68 68" fill="none" xmlns="http://www.w3.org/2000/svg">
<rect x="0.974121" y="1.72192" width="65.5" height="65.5" stroke="black" stroke-width="1.5"/>
<rect x="5.16675" y="6.34058" width="30.7444" height="56.2625" fill="black"/>
<path d="M22.4688 21.8779V47.4717H17.6523V21.8779H22.4688ZM30.4141 21.8779V25.6924H9.79492V21.8779H30.4141Z" fill="white"/>
<path d="M38.8461 34.5039C38.8461 32.1466 39.3561 30.0499 40.3761 28.2139C41.3961 26.3553 42.8128 24.9159 44.6261 23.8959C46.4621 22.8533 48.5361 22.3319 50.8481 22.3319C53.6815 22.3319 56.1068 23.0799 58.1241 24.5759C60.1415 26.0719 61.4901 28.1119 62.1701 30.6959H55.7781C55.3021 29.6986 54.6221 28.9393 53.7381 28.4179C52.8768 27.8966 51.8908 27.6359 50.7801 27.6359C48.9895 27.6359 47.5388 28.2593 46.4281 29.5059C45.3175 30.7526 44.7621 32.4186 44.7621 34.5039C44.7621 36.5893 45.3175 38.2553 46.4281 39.5019C47.5388 40.7486 48.9895 41.3719 50.7801 41.3719C51.8908 41.3719 52.8768 41.1113 53.7381 40.5899C54.6221 40.0686 55.3021 39.3093 55.7781 38.3119H62.1701C61.4901 40.8959 60.1415 42.9359 58.1241 44.4319C56.1068 45.9053 53.6815 46.6419 50.8481 46.6419C48.5361 46.6419 46.4621 46.1319 44.6261 45.1119C42.8128 44.0693 41.3961 42.6299 40.3761 40.7939C39.3561 38.9579 38.8461 36.8613 38.8461 34.5039Z" fill="black"/>
</svg>
