<svg width="21" height="21" viewBox="0 0 21 21" fill="none" xmlns="http://www.w3.org/2000/svg">
<g clip-path="url(#clip0_1010_11162)">
<path d="M10.5 21C16.299 21 21 16.299 21 10.5C21 4.70101 16.299 0 10.5 0C4.70101 0 0 4.70101 0 10.5C0 16.299 4.70101 21 10.5 21Z" fill="#E67E22"/>
<path d="M20.9992 10.465L15.8788 5.34473L5.3457 15.8778L10.4674 20.9996C10.4782 20.9996 10.4888 21 10.4995 21C16.2985 21 20.9995 16.2989 20.9995 10.5C20.9996 10.4883 20.9992 10.4767 20.9992 10.465Z" fill="#C1611A"/>
<path d="M6.5997 4.66699H14.401C15.4683 4.66699 16.3337 5.53231 16.3337 6.5997V14.401C16.3337 15.4683 15.4683 16.3337 14.401 16.3337H6.5997C5.53231 16.3337 4.66699 15.4683 4.66699 14.401V6.5997C4.66699 5.53231 5.53231 4.66699 6.5997 4.66699Z" fill="#662621"/>
<path d="M10.8328 6.74486L11.8969 8.6787C11.9515 8.7779 12.0475 8.84762 12.1587 8.8689L14.3268 9.28331C14.6212 9.3396 14.7378 9.69851 14.5327 9.91713L13.0223 11.5267C12.9448 11.6093 12.9082 11.7221 12.9223 11.8345L13.1981 14.0244C13.2356 14.3218 12.9303 14.5436 12.659 14.4162L10.6614 13.4771C10.559 13.4289 10.4403 13.4289 10.3378 13.4771L8.34028 14.4162C8.06898 14.5437 7.76366 14.3218 7.80114 14.0244L8.07697 11.8345C8.09111 11.7221 8.05448 11.6093 7.97699 11.5267L6.46661 9.91713C6.26149 9.69851 6.37809 9.3396 6.67251 9.28331L8.84053 8.8689C8.95175 8.84762 9.0477 8.7779 9.10236 8.6787L10.1664 6.74486C10.311 6.48218 10.6883 6.48218 10.8328 6.74486Z" fill="#FFCD02"/>
</g>
<defs>
<clipPath id="clip0_1010_11162">
<rect width="21" height="21" fill="white"/>
</clipPath>
</defs>
</svg>
