<svg width="43" height="31" viewBox="0 0 43 31" fill="none" xmlns="http://www.w3.org/2000/svg">
<g clip-path="url(#clip0_1395_86674)">
<path d="M12.0044 15.4922C12.0057 12.4239 12.9172 9.42504 14.6236 6.87525C16.33 4.32547 18.7545 2.3395 21.59 1.16882C24.4256 -0.00184985 27.5447 -0.304569 30.5524 0.298992C33.5601 0.902553 36.3211 2.38524 38.4857 4.55932C40.6504 6.7334 42.1213 9.50109 42.7123 12.5119C43.3033 15.5227 42.9878 18.6412 41.8057 21.4725C40.6236 24.3039 38.628 26.7206 36.0718 28.4169C33.5155 30.1131 30.5135 31.0124 27.4459 31.001C23.3427 30.9907 19.4114 29.3514 16.5159 26.4434C13.6205 23.5353 11.9978 19.5964 12.0044 15.4922ZM39.9988 15.5123C40.0013 13.0397 39.2705 10.6219 37.899 8.5648C36.5274 6.50769 34.5766 4.90367 32.2935 3.95568C30.0103 3.00768 27.4974 2.7583 25.0725 3.23906C22.6476 3.71983 20.4198 4.90916 18.6708 6.65659C16.9218 8.40401 15.7303 10.631 15.247 13.0559C14.7636 15.4808 15.0102 17.9945 15.9555 20.2792C16.9007 22.5639 18.5023 24.5169 20.5574 25.891C22.6125 27.2651 25.029 27.9987 27.5011 27.999C34.422 27.9915 40.0126 22.4059 39.9988 15.5123Z" fill="black"/>
<path d="M5.49667 17.0023C4.21646 17.0023 2.93749 17.0023 1.65727 17.0023C0.663913 17.0023 -0.00249828 16.3884 7.03968e-06 15.4988C0.00251236 14.6092 0.665164 14.0078 1.67105 14.0078C4.23065 14.0078 6.79025 14.0078 9.34985 14.0078C10.3069 14.0078 10.9783 14.6255 10.9921 15.4913C11.0059 16.3571 10.3194 17.0048 9.33607 17.0073C8.05586 17.0048 6.77689 17.0023 5.49667 17.0023Z" fill="black"/>
<path d="M6.44503 10.9997C5.50679 10.9997 4.56605 10.9997 3.63156 10.9997C2.69708 10.9997 2.00311 10.3732 1.99184 9.51118C1.98056 8.64917 2.657 8.00767 3.60777 8.00767C5.52851 8.00265 7.44926 8.00265 9.37 8.00767C10.317 8.00767 10.9984 8.64917 10.9872 9.51118C10.9759 10.3732 10.3045 10.9959 9.34619 10.9997C8.38791 11.0034 7.41333 10.9997 6.44503 10.9997Z" fill="black"/>
<path d="M6.50766 23.0059C5.53936 23.0059 4.56981 23.0059 3.6015 23.0059C2.657 23.0059 1.98056 22.3569 1.99184 21.4861C2.00311 20.6153 2.66702 20.0102 3.59149 20.0077C5.52977 20.0027 7.46762 20.0027 9.40506 20.0077C10.3208 20.0077 10.9897 20.6504 10.9922 21.5012C10.9947 22.3519 10.327 23.0047 9.41509 23.0047C8.44554 23.0122 7.47722 23.0059 6.50766 23.0059Z" fill="black"/>
<path d="M10.5148 1.99328C11.4681 1.99328 12.4201 1.99328 13.3734 1.99328C14.3267 1.99328 15.0018 2.64105 15.0018 3.4968C15.0018 4.35255 14.3141 4.98528 13.3596 4.98779C11.4531 4.98779 9.54693 4.98779 7.64121 4.98779C6.67667 4.98779 6.01276 4.37636 6.01276 3.50182C6.00524 2.60096 6.66665 1.99079 7.66377 1.98828C8.60827 1.99079 9.56654 1.99328 10.5148 1.99328Z" fill="black"/>
<path d="M10.4722 29.0073C9.53392 29.0073 8.59318 29.0073 7.65995 29.0073C6.66533 29.0073 5.99892 28.3921 6.00393 27.495C6.00894 26.5979 6.66409 26.0091 7.63239 26.0078C9.53894 26.0078 11.4451 26.0078 13.3508 26.0078C14.3065 26.0078 14.9892 26.6343 14.998 27.495C15.0068 28.3558 14.3141 28.9985 13.3295 29.0073C12.3787 29.0098 11.4254 29.0073 10.4722 29.0073Z" fill="black"/>
<path d="M26.0027 11.4482C26.0027 10.1814 26.0027 8.91597 26.0027 7.64926C26.0027 6.67699 26.6028 6.02045 27.4796 6.00792C28.3803 5.9979 29.0016 6.66321 29.0029 7.65302C29.0029 9.93461 28.9966 12.2174 29.0154 14.499C29.0264 14.7373 29.1203 14.9642 29.281 15.1405C30.3582 16.2506 31.4631 17.3344 32.5516 18.4332C32.765 18.6332 32.9124 18.8934 32.9744 19.1792C33.0364 19.4649 33.01 19.7628 32.8986 20.0332C32.8094 20.2948 32.6459 20.5247 32.4281 20.6947C32.2103 20.8647 31.9476 20.9675 31.6723 20.9905C31.4543 21.0225 31.2318 21.0024 31.0232 20.9316C30.8145 20.8608 30.6257 20.7414 30.4722 20.5833C29.1206 19.2401 27.754 17.9083 26.4424 16.525C26.1831 16.2519 26.0366 15.7733 26.0215 15.3848C25.9764 14.0743 26.0027 12.76 26.0027 11.4482Z" fill="black"/>
</g>
<defs>
<clipPath id="clip0_1395_86674">
<rect width="43" height="31" fill="white"/>
</clipPath>
</defs>
</svg>
