<svg width="31" height="29" viewBox="0 0 31 29" fill="none" xmlns="http://www.w3.org/2000/svg">
<g clip-path="url(#clip0_1395_86587)">
<path d="M28.2017 15.1839C28.1156 15.1387 28.0295 15.096 27.9254 15.0443C27.9839 14.9934 28.0063 14.9713 28.0313 14.9532C29.6155 13.8073 30.1226 12.1187 29.3641 10.4589C28.6262 8.84098 26.8956 7.92078 25.01 8.31316C24.917 8.33286 24.7517 8.24749 24.6897 8.16376C22.1929 4.55684 18.6508 2.98487 14.1796 3.42322C10.9165 3.74336 8.3421 5.27839 6.5168 7.88959C6.2585 8.25652 6.03895 8.34025 5.60157 8.27622C4.00787 8.04227 2.48305 8.83688 1.7426 10.2356C0.97632 11.6837 1.2019 13.3147 2.33324 14.4287C2.55365 14.6462 2.80507 14.8391 3.0582 15.0517C2.96693 15.0977 2.886 15.1387 2.7999 15.1831C1.07103 16.0937 0.139436 17.4892 0.00512171 19.3695C-0.025013 19.8021 0.0576419 19.9055 0.464891 20.0779C2.64219 21.0076 5.06861 21.2695 7.40879 20.8274C7.47685 20.8175 7.54633 20.8213 7.61277 20.8385C7.6792 20.8558 7.74111 20.8861 7.79451 20.9275C9.89705 22.9493 12.4774 23.8892 15.422 23.9779C16.996 24.0267 18.5592 23.7133 19.9793 23.0643C20.0499 23.1406 20.0998 23.194 20.1515 23.2481C21.4223 24.642 22.6937 26.0358 23.9657 27.4297C24.7405 28.2768 25.7204 28.6552 26.8818 28.4418C29.2926 27.9994 30.2457 25.3348 28.6512 23.5609C27.9512 22.7811 27.24 22.0111 26.5349 21.2354C26.4841 21.1795 26.4427 21.1163 26.379 21.0318C26.5813 21.0121 26.7406 20.994 26.9008 20.9801C28.1773 20.8684 29.4254 20.5555 30.5944 20.0541C30.8906 19.9285 31.0249 19.7397 31.0043 19.4327C30.8831 17.5277 29.949 16.1115 28.2017 15.1839ZM27.7609 9.96147C28.6081 10.7454 28.8561 11.7025 28.4979 12.7779C28.1819 13.7252 27.2719 14.459 26.3084 14.5559C26.4693 12.7396 26.1276 10.9148 25.3174 9.26373C26.2766 9.11269 27.0911 9.34171 27.7609 9.96147ZM4.69322 14.5887C3.76765 14.4081 3.08575 13.9616 2.66731 13.1933C2.11455 12.1787 2.20237 11.1797 2.9256 10.2759C3.59976 9.43612 4.52619 9.1168 5.68078 9.25388C4.8654 10.9185 4.52476 12.7586 4.69322 14.5887ZM15.5021 23.0011C10.1166 23.0011 5.61104 18.8056 5.70488 13.7055C5.81423 7.72542 10.4093 4.34752 15.4995 4.33439C20.5346 4.33931 25.1805 7.66467 25.2967 13.7038C25.3932 18.8064 20.8867 23.0011 15.5021 23.0011ZM27.8496 24.1913C28.4299 24.8316 28.5659 25.5581 28.2138 26.3379C27.6473 27.593 25.8796 27.9435 24.9127 26.9429C23.5515 25.5343 22.26 24.0641 20.9522 22.6341C21.5265 22.2237 22.0775 21.8461 22.6018 21.4398C23.1262 21.0334 23.6256 20.5951 24.1361 20.1707C24.1232 20.1075 24.1103 20.0443 24.0982 19.9811C24.1273 20.0571 24.1658 20.1296 24.2128 20.197C25.4233 21.5301 26.6356 22.8615 27.8496 24.1913Z" fill="black"/>
<path d="M20.341 0.992541C20.3048 1.10993 20.2713 1.22813 20.2317 1.34469C20.0999 1.73461 19.9734 2.12617 19.8313 2.5128C19.7194 2.81734 19.4671 2.94458 19.1787 2.86495C18.8902 2.78533 18.7585 2.53086 18.8541 2.22549C18.9996 1.76416 19.1537 1.30611 19.3207 0.851351C19.4206 0.579642 19.6746 0.429422 19.9234 0.532852C20.1034 0.60673 20.2351 0.788964 20.3884 0.922767L20.341 0.992541Z" fill="black"/>
<path d="M23.6693 2.41572C23.6162 2.55483 23.5538 2.69055 23.4825 2.82205C23.2374 3.19527 22.9863 3.56494 22.7291 3.93105C22.5242 4.22328 22.2461 4.29716 21.987 4.14447C21.7278 3.99179 21.6684 3.69382 21.8681 3.39255C22.1276 3.00291 22.3911 2.61628 22.6585 2.23266C22.7989 2.03237 23.0158 1.92483 23.2414 2.02826C23.4119 2.10707 23.5316 2.28602 23.6693 2.41572Z" fill="black"/>
<path d="M24.6604 6.25694C24.5459 6.17485 24.3478 6.09276 24.2893 5.96307C24.2264 5.81859 24.2196 5.55263 24.316 5.45987C24.7184 5.06346 25.1457 4.69065 25.5954 4.34348C25.7978 4.18505 26.0517 4.22774 26.236 4.4149C26.4202 4.60206 26.4555 4.85324 26.2722 5.02891C25.8572 5.42621 25.406 5.78986 24.9626 6.15925C24.904 6.20769 24.8007 6.21179 24.6604 6.25694Z" fill="black"/>
<path d="M15.5125 5.76172C10.914 5.7568 7.25216 9.27999 7.24269 13.7185C7.23322 17.987 10.9389 21.4938 15.4703 21.5118C20.0017 21.5299 23.7488 18.0223 23.7548 13.7431C23.7617 9.30544 20.1059 5.76583 15.5125 5.76172ZM12.6609 11.8994C12.6695 10.4309 13.9601 9.20201 15.4832 9.21021C17.101 9.21924 18.3297 10.3947 18.3245 11.9265C18.3193 13.4582 17.0881 14.6272 15.4686 14.6272C13.9223 14.6272 12.6497 13.3893 12.6609 11.8994ZM20.5657 18.5345C20.3807 17.7747 20.0198 17.064 19.5092 16.4544C18.993 15.8556 18.3405 15.3767 17.6013 15.054C19.9432 13.464 19.7477 10.7034 18.2152 9.28491C17.8416 8.93565 17.3976 8.66216 16.9101 8.48093C16.4226 8.29971 15.9017 8.2145 15.3787 8.23046C14.8557 8.24641 14.3415 8.3632 13.8672 8.57377C13.3928 8.78434 12.9682 9.08433 12.6187 9.45566C11.1688 10.9841 11.2213 13.5822 13.4117 15.0466C11.8326 15.7764 10.8528 16.9256 10.4387 18.5214C7.81095 16.2697 7.42522 12.0184 10.1399 9.03373C12.7995 6.1147 17.7072 5.96448 20.5381 8.70538C23.4422 11.5169 23.4379 15.9734 20.564 18.5345H20.5657Z" fill="black"/>
</g>
<defs>
<clipPath id="clip0_1395_86587">
<rect width="31" height="28" fill="white" transform="translate(0 0.5)"/>
</clipPath>
</defs>
</svg>
