<svg width="44" height="39" viewBox="0 0 44 39" fill="none" xmlns="http://www.w3.org/2000/svg">
<g clip-path="url(#clip0_1395_86632)">
<path d="M43.9998 11.228C43.8713 11.5607 43.7828 11.9187 43.606 12.2204C43.0045 13.2565 42.0677 13.709 40.8864 13.7079C36.9212 13.7079 32.9559 13.7079 28.9907 13.6998C28.8229 13.6877 28.6545 13.7141 28.4984 13.7769C28.3423 13.8398 28.2024 13.9374 28.0895 14.0625C27.4718 14.7221 26.8186 15.3461 26.1826 15.9874C25.7372 16.4353 25.2183 16.6114 24.619 16.3673C24.0198 16.1233 23.7419 15.6155 23.7419 14.9674C23.7419 10.977 23.7304 6.98546 23.7419 2.99393C23.7488 1.24627 24.9864 0.0120886 26.7268 0.00863469C31.4949 -0.00287823 36.2622 -0.00287823 41.0288 0.00863469C42.4971 0.00863469 43.5372 0.854834 43.9206 2.28934C43.9397 2.34171 43.9644 2.39188 43.9941 2.43901L43.9998 11.228ZM25.4594 14.1338L25.5558 14.1868C26.1183 13.6192 26.6969 13.0654 27.2376 12.4783C27.3889 12.3085 27.5762 12.175 27.7859 12.0877C27.9956 12.0004 28.2221 11.9616 28.4488 11.974C32.5862 11.9886 36.7233 11.9909 40.86 11.9809C41.8266 11.9809 42.2801 11.5204 42.2801 10.5568C42.2801 8.10068 42.2801 5.64459 42.2801 3.1885C42.2801 2.15234 41.8576 1.72521 40.8244 1.72406H26.9105C25.8864 1.72406 25.4594 2.1604 25.4582 3.20002C25.4582 6.73064 25.4582 10.2613 25.4582 13.7919L25.4594 14.1338Z" fill="black"/>
<path d="M38.2287 21.1171C35.2645 21.1171 32.3004 21.1171 29.3362 21.1229C29.1903 21.1338 29.044 21.108 28.9106 21.0476C28.7773 20.9873 28.6611 20.8944 28.5727 20.7775C27.8333 19.8778 26.8102 19.2577 25.6722 19.0196C24.5341 18.7814 23.3491 18.9393 22.3126 19.4673C21.8144 19.7206 21.3666 20.0752 20.8592 20.4068C20.9212 19.0126 20.6859 17.7036 19.9075 16.5373C19.1575 15.4005 18.0365 14.5608 16.7367 14.1622C18.1235 12.1658 18.4116 11.4808 18.3864 10.0993C18.3834 9.34966 18.2232 8.60906 17.9163 7.92557C17.6093 7.24207 17.1624 6.63096 16.6047 6.13192C15.6335 5.22996 14.3669 4.71534 13.0436 4.68501C11.7203 4.65469 10.4316 5.11076 9.42037 5.96729C8.35042 6.87681 7.68458 8.02925 7.50664 9.42116C7.27704 11.2379 7.84417 12.8071 9.1288 14.1299C5.8914 15.3549 4.7273 17.7818 5.01086 21.1114H4.469C3.55058 21.1114 2.63218 21.0999 1.7195 21.1114C0.731061 21.1286 0.027311 21.8482 0.0089427 22.8383C0.000906588 23.3126 0.0089427 23.7858 0.0089427 24.2602C0.0089427 25.5888 0.361401 26.07 1.63455 26.4476V26.9081C1.63455 29.9959 1.63455 33.0837 1.63455 36.1714C1.62674 36.4294 1.64559 36.6875 1.6908 36.9416C1.96747 38.2219 2.97543 38.9909 4.38404 38.9921C9.74145 38.9921 15.0989 38.9921 20.4563 38.9921C20.5712 38.994 20.6861 38.9902 20.8007 38.9806C20.9591 38.9699 21.1107 38.9121 21.2361 38.8144C21.3614 38.7168 21.4549 38.5838 21.5044 38.4326C21.734 37.85 21.323 37.2951 20.6377 37.2732C20.0407 37.2548 19.4449 37.2732 18.8077 37.2732C18.8077 35.8847 18.7974 34.5516 18.8077 33.2195C18.8295 31.0021 20.3621 29.4133 22.5709 29.3523C23.9309 29.3155 25.2913 29.3155 26.6521 29.3523C28.8712 29.4122 30.4188 31.0321 30.4279 33.2587C30.4279 34.4652 30.4279 35.6764 30.4279 36.8783C30.4279 37.0027 30.413 37.1258 30.4038 37.272H29.6002C29.2271 37.272 28.8528 37.2548 28.4832 37.287C28.3714 37.2923 28.2617 37.3198 28.1606 37.368C28.0595 37.4161 27.9689 37.4839 27.8941 37.5675C27.8194 37.651 27.7619 37.7486 27.7251 37.8547C27.6882 37.9607 27.6728 38.073 27.6796 38.185C27.7025 38.6386 28.0355 38.9575 28.5245 38.9909C28.6244 38.9978 28.7243 38.9909 28.8241 38.9909C31.1447 38.9909 33.4648 38.9909 35.7846 38.9909C37.5376 38.9909 38.5869 37.9294 38.5869 36.1714C38.5869 33.0837 38.5869 29.9959 38.5869 26.9081V26.4476C39.8497 26.0723 40.2113 25.5807 40.2113 24.2602C40.2113 23.8722 40.2113 23.4853 40.2113 23.0974C40.2056 21.786 39.5432 21.1183 38.2287 21.1171ZM12.9299 6.41054C13.4218 6.41008 13.909 6.5068 14.3637 6.69517C14.8183 6.88354 15.2315 7.15988 15.5797 7.50839C15.9279 7.85691 16.2042 8.27079 16.3928 8.72639C16.5815 9.182 16.6789 9.67041 16.6793 10.1637C16.6798 10.6571 16.5833 11.1457 16.3955 11.6016C16.2076 12.0576 15.9321 12.472 15.5846 12.8211C15.237 13.1703 14.8243 13.4474 14.37 13.6366C13.9157 13.8258 13.4287 13.9234 12.9368 13.9239C11.9433 13.9248 10.9901 13.5299 10.2869 12.826C9.58378 12.1221 9.18826 11.167 9.18735 10.1707C9.18644 9.17432 9.58023 8.21844 10.2821 7.51328C10.9839 6.80812 11.9364 6.41145 12.9299 6.41054ZM1.73326 24.6527V22.874H19.4965C19.4586 23.4635 19.4219 24.0437 19.3817 24.6527H1.73326ZM19.973 28.2931C18.1786 29.3132 17.1787 30.8559 17.0972 32.9282C17.0467 34.2039 17.0823 35.4841 17.08 36.762V37.2778H4.50229C3.60569 37.2778 3.34738 37.0199 3.34738 36.1265C3.34738 33.0564 3.34738 29.9832 3.34738 26.907V26.4039H3.81463C9.04193 26.4039 14.2684 26.4016 19.4942 26.397C19.8065 26.397 19.9741 26.4833 20.1291 26.7608C20.3426 27.143 20.6319 27.4815 20.9005 27.8545C20.586 28.003 20.268 28.1262 19.973 28.2931ZM24.6247 27.6219C24.1672 27.6242 23.7136 27.5361 23.29 27.3626C22.8664 27.1891 22.4811 26.9336 22.156 26.6107C21.4993 25.9587 21.1278 25.0717 21.1233 24.145C21.1187 23.2183 21.4814 22.3277 22.1316 21.6692C22.7818 21.0107 23.6662 20.6382 24.5903 20.6336C25.5143 20.629 26.4024 20.9928 27.059 21.6448C27.7157 22.2968 28.0872 23.1838 28.0917 24.1105C28.0963 25.0372 27.7336 25.9278 27.0834 26.5863C26.4332 27.2448 25.5488 27.6173 24.6247 27.6219ZM36.8648 26.8874C36.8648 29.9752 36.8648 33.0629 36.8648 36.1507C36.8648 36.9888 36.5882 37.2732 35.7673 37.2744C34.5791 37.2744 33.391 37.2744 32.1419 37.2744V36.7966C32.1419 35.6453 32.1419 34.4963 32.1419 33.3496C32.1419 30.7776 30.8515 28.8906 28.4545 27.9385C28.4099 27.9169 28.3666 27.8927 28.3248 27.866C28.629 27.417 28.9183 26.9784 29.2248 26.5512C29.2592 26.5102 29.3016 26.4766 29.3493 26.4524C29.3971 26.4283 29.4493 26.4141 29.5026 26.4108C31.9353 26.4027 34.3679 26.4039 36.866 26.4039L36.8648 26.8874ZM38.4663 24.6574H29.8482C29.8011 24.0633 29.7552 23.483 29.7058 22.8659H38.4663V24.6574Z" fill="black"/>
<path d="M24.5907 38.9909C24.3663 38.9888 24.1518 38.8978 23.994 38.7378C23.8361 38.5778 23.7477 38.3617 23.748 38.1367C23.7536 37.9115 23.8452 37.6972 24.004 37.5379C24.1628 37.3787 24.3766 37.2868 24.601 37.2813C24.7158 37.2808 24.8293 37.3037 24.935 37.3486C25.0406 37.3934 25.1361 37.4592 25.2157 37.542C25.2953 37.6249 25.3574 37.723 25.3982 37.8306C25.4389 37.9381 25.4575 38.0528 25.4529 38.1678C25.4522 38.2792 25.4291 38.3894 25.385 38.4917C25.3409 38.5939 25.2767 38.6863 25.1962 38.7631C25.1158 38.84 25.0207 38.8997 24.9166 38.9389C24.8126 38.978 24.7017 38.9957 24.5907 38.9909Z" fill="black"/>
<path d="M33.8834 7.69233C35.3728 7.69233 36.8614 7.69233 38.3492 7.69233C38.999 7.69233 39.3664 7.99627 39.3825 8.52932C39.3939 9.08539 39.0185 9.41351 38.3492 9.41466C35.3575 9.41466 32.3658 9.41466 29.374 9.41466C28.7495 9.41466 28.3604 9.07618 28.3604 8.55234C28.3604 8.02851 28.7472 7.69463 29.374 7.69348C30.8772 7.69117 32.3803 7.69079 33.8834 7.69233Z" fill="black"/>
<path d="M33.8139 5.83734C32.3972 5.83734 30.9813 5.83734 29.5662 5.83734C29.3946 5.84221 29.223 5.83258 29.053 5.80856C28.8623 5.77271 28.6899 5.67206 28.5645 5.52357C28.4392 5.37509 28.3687 5.18783 28.3649 4.99332C28.3611 4.79882 28.4243 4.60895 28.5438 4.45569C28.6633 4.30242 28.8318 4.19512 29.0209 4.15186C29.134 4.12741 29.2496 4.11583 29.3653 4.11731C32.37 4.11731 35.3751 4.11731 38.3806 4.11731C38.9099 4.11731 39.2439 4.33606 39.3553 4.7252C39.5183 5.30084 39.1406 5.81317 38.4989 5.82928C37.569 5.85231 36.6391 5.83735 35.7092 5.8385L33.8139 5.83734Z" fill="black"/>
</g>
<defs>
<clipPath id="clip0_1395_86632">
<rect width="44" height="39" fill="white"/>
</clipPath>
</defs>
</svg>
