<svg width="174" height="52" viewBox="0 0 174 52" fill="none" xmlns="http://www.w3.org/2000/svg">
<path d="M173.46 45.6691L147.89 8.10906L123.28 19.2391L98.6702 4.85906L74.0602 2.53906L49.4502 26.6591L24.8402 16.9191L0.410156 50.7691" stroke="#8D8C92" stroke-miterlimit="10"/>
<path d="M27.4997 17.6209C27.4997 15.8886 26.091 14.4609 24.3397 14.4609C22.5884 14.4609 21.1797 15.8696 21.1797 17.6209C21.1797 19.3723 22.5884 20.7809 24.3397 20.7809C26.091 20.7809 27.4997 19.3723 27.4997 17.6209Z" fill="black"/>
<path d="M48.9598 28.1794C50.705 28.1794 52.1198 26.7646 52.1198 25.0194C52.1198 23.2742 50.705 21.8594 48.9598 21.8594C47.2146 21.8594 45.7998 23.2742 45.7998 25.0194C45.7998 26.7646 47.2146 28.1794 48.9598 28.1794Z" fill="black"/>
<path d="M76.7204 3.16C76.7204 1.42771 75.3117 0 73.5604 0C71.8091 0 70.4004 1.40867 70.4004 3.16C70.4004 4.91133 71.8091 6.32 73.5604 6.32C75.3117 6.32 76.7204 4.91133 76.7204 3.16Z" fill="black"/>
<path d="M101.43 4.49984C101.43 2.76755 100.022 1.33984 98.2703 1.33984C96.519 1.33984 95.1104 2.74852 95.1104 4.49984C95.1104 6.25117 96.519 7.65984 98.2703 7.65984C100.022 7.65984 101.43 6.25117 101.43 4.49984Z" fill="black"/>
<path d="M125.95 18.6893C125.95 16.957 124.541 15.5293 122.79 15.5293C121.039 15.5293 119.63 16.938 119.63 18.6893C119.63 20.4406 121.039 21.8493 122.79 21.8493C124.541 21.8493 125.95 20.4406 125.95 18.6893Z" fill="black"/>
<path d="M150.65 8.79087C150.65 7.05857 149.241 5.63086 147.49 5.63086C145.739 5.63086 144.33 7.03954 144.33 8.79087C144.33 10.5422 145.739 11.9509 147.49 11.9509C149.241 11.9509 150.65 10.5422 150.65 8.79087Z" fill="black"/>
</svg>
