<svg width="20" height="20" viewBox="0 0 20 20" fill="none" xmlns="http://www.w3.org/2000/svg">
<g clip-path="url(#clip0_1010_44881)">
<path d="M18.8979 6.58975C18.7147 6.38882 18.4554 6.2742 18.1834 6.2742H0.96648C0.694613 6.2742 0.435215 6.38882 0.25207 6.58975C0.0689249 6.79068 -0.0210529 7.05955 0.00417177 7.33026L0.922795 17.1978C0.969089 17.6947 1.38602 18.0746 1.8851 18.0746H17.2648C17.7639 18.0746 18.1808 17.6946 18.2271 17.1978L19.1458 7.33026C19.171 7.05955 19.081 6.79068 18.8979 6.58975ZM12.7985 16.0508C12.7978 16.0507 12.7973 16.0507 12.7966 16.0508H6.35345C5.81967 16.0508 5.38699 15.618 5.38699 15.0843C5.38699 13.7718 6.45474 12.7041 7.76719 12.7041H8.46082C7.74748 12.31 7.26309 11.5501 7.26309 10.6791C7.26309 9.40438 8.3002 8.36717 9.57506 8.36717C10.8499 8.36717 11.887 9.40429 11.887 10.6791C11.887 11.5501 11.4026 12.31 10.6893 12.7041H11.3829C12.6686 12.7041 13.7195 13.7288 13.7618 15.0045C13.7639 15.0307 13.7651 15.0574 13.7651 15.0843C13.765 15.6181 13.3323 16.0508 12.7985 16.0508ZM17.2906 4.47494C17.2906 4.87534 16.9661 5.19978 16.5658 5.19978H2.58424C2.18393 5.19978 1.8594 4.87534 1.8594 4.47494C1.8594 4.07453 2.18393 3.75009 2.58424 3.75009H16.5658C16.9661 3.75009 17.2906 4.07453 17.2906 4.47494ZM15.377 1.80102C15.377 2.20143 15.0525 2.52587 14.6522 2.52587H4.49784C4.09753 2.52587 3.77299 2.20143 3.77299 1.80102C3.77299 1.40061 4.09753 1.07617 4.49784 1.07617H14.6521C15.0525 1.07617 15.377 1.40061 15.377 1.80102Z" fill="black"/>
</g>
<defs>
<clipPath id="clip0_1010_44881">
<rect width="19.15" height="19.15" fill="white"/>
</clipPath>
</defs>
</svg>
