<svg width="24" height="24" viewBox="0 0 24 24" fill="none" xmlns="http://www.w3.org/2000/svg">
<path d="M10.2897 6.17356C9.91119 5.88373 9.60847 5.50058 9.41684 5.05859L4.63672 9.80342H6.63284L10.2897 6.17356Z" fill="black"/>
<path d="M13.71 6.17356L17.3668 9.80342H19.3629L14.5828 5.05859C14.3911 5.50058 14.0884 5.88373 13.71 6.17356Z" fill="black"/>
<path d="M12 5.34637C12.7767 5.34637 13.4062 4.72143 13.4062 3.95053C13.4062 3.17963 12.7767 2.55469 12 2.55469C11.2233 2.55469 10.5938 3.17963 10.5938 3.95053C10.5938 4.72143 11.2233 5.34637 12 5.34637Z" fill="black"/>
<path d="M20.0917 15.2812H19.7109C19.7115 15.6425 19.7123 16.1122 19.7123 16.3103C19.7123 16.5462 19.7136 16.9969 19.7146 17.3435C19.8648 17.3424 20.0159 17.341 20.1083 17.3394C20.6105 17.3306 20.8353 16.8179 20.8353 16.3136C20.8353 16.0714 20.7817 15.2812 20.0917 15.2812Z" fill="black"/>
<path d="M23.0625 11.209H0.9375C0.419719 11.209 0 11.6287 0 12.1465V20.5078C0 21.0255 0.419719 21.4453 0.9375 21.4453H23.0625C23.5803 21.4453 24 21.0255 24 20.5078V12.1465C24 11.6287 23.5803 11.209 23.0625 11.209ZM5.57653 17.7385C5.523 17.8023 5.46483 17.8623 5.40356 17.9169C5.09072 18.1955 4.68937 18.3427 4.2428 18.3427C3.13139 18.3427 2.22717 17.4385 2.22717 16.3271C2.22717 15.2157 3.13139 14.3115 4.2428 14.3115C4.64658 14.3115 5.03639 14.4306 5.37005 14.656C5.58459 14.8009 5.64103 15.0923 5.49609 15.3068C5.3512 15.5213 5.05978 15.5778 4.84528 15.4329C4.6672 15.3126 4.45884 15.249 4.24275 15.249C3.64828 15.249 3.16463 15.7326 3.16463 16.3271C3.16463 16.9216 3.64828 17.4052 4.24275 17.4052C4.45884 17.4052 4.63959 17.3418 4.77998 17.2168C4.80736 17.1924 4.83366 17.1652 4.85808 17.1361C5.02444 16.9377 5.32003 16.9117 5.51845 17.0781C5.71688 17.2445 5.74284 17.5401 5.57653 17.7385ZM7.70058 18.3401C7.34681 18.3421 6.56906 18.3391 6.53545 18.3334C6.31041 18.2948 6.14592 18.0997 6.14592 17.8714V14.7802C6.14592 14.5214 6.35578 14.3115 6.61467 14.3115C6.87356 14.3115 7.08342 14.5214 7.08342 14.7802V17.405C7.26802 17.4046 7.48725 17.4038 7.69537 17.4026C7.95295 17.403 8.1653 17.6099 8.16675 17.8687C8.1682 18.1276 7.95947 18.3387 7.70058 18.3401ZM10.2014 18.3427C9.09 18.3427 8.18578 17.4385 8.18578 16.3271C8.18578 15.2157 9.09 14.3115 10.2014 14.3115C11.3128 14.3115 12.217 15.2157 12.217 16.3271C12.217 17.4385 11.3129 18.3427 10.2014 18.3427ZM15.5225 17.2859C15.4131 17.8983 14.8317 18.3427 14.1399 18.3427C13.5868 18.3427 13.0673 18.1195 12.7145 17.7302C12.5406 17.5384 12.5552 17.2419 12.747 17.0681C12.9388 16.8943 13.2353 16.9088 13.4091 17.1006C13.582 17.2913 13.8552 17.4052 14.1399 17.4052C14.4189 17.4052 14.5791 17.2357 14.5996 17.1211C14.6243 16.9831 14.4333 16.8603 14.2463 16.7913C13.764 16.6133 13.3355 16.4227 13.3175 16.4146C13.295 16.4046 13.2732 16.3927 13.2525 16.3792C12.8993 16.149 12.7172 15.7452 12.7775 15.3255C12.8414 14.8803 13.1656 14.518 13.6236 14.38C14.5146 14.1116 15.0397 14.5478 15.2639 14.7342L15.2682 14.7377C15.4673 14.9032 15.4946 15.1987 15.3291 15.3978C15.1636 15.597 14.8681 15.6242 14.669 15.4588L14.6646 15.4552C14.4868 15.3074 14.3028 15.1544 13.894 15.2777C13.7407 15.3239 13.711 15.4196 13.7055 15.4587C13.7013 15.4876 13.7018 15.5386 13.7443 15.5782C13.8637 15.6302 14.2051 15.7768 14.5708 15.9117C15.3988 16.2172 15.6053 16.8218 15.5225 17.2859ZM17.7569 15.8457C18.0157 15.8457 18.2256 16.0556 18.2256 16.3145C18.2256 16.5733 18.0157 16.7832 17.7569 16.7832H17.0292V17.3784H17.8521C18.111 17.3784 18.3209 17.5883 18.3209 17.8472C18.3209 18.106 18.111 18.3159 17.8521 18.3159H16.5604C16.3015 18.3159 16.0917 18.106 16.0917 17.8472V14.7817C16.0917 14.5229 16.3015 14.313 16.5604 14.313H17.8521C18.111 14.313 18.3209 14.5229 18.3209 14.7817C18.3209 15.0405 18.111 15.2505 17.8521 15.2505H17.0292V15.8457H17.7569ZM20.1248 18.2776C19.8819 18.2819 19.275 18.2842 19.2493 18.2843C19.2487 18.2843 19.2481 18.2843 19.2475 18.2843C19.1238 18.2843 19.0051 18.2355 18.9172 18.1483C18.8369 18.0685 18.7888 17.9625 18.7805 17.8502C18.7805 17.7422 18.7805 14.8142 18.7805 14.8142C18.7802 14.6898 18.8217 14.5703 18.9096 14.4822C18.9975 14.3941 19.1169 14.3446 19.2414 14.3446H20.0917C21.0973 14.3446 21.7728 15.1362 21.7728 16.3144C21.7728 17.4353 21.0797 18.2609 20.1248 18.2776Z" fill="black"/>
<path d="M10.2012 17.4062C10.7966 17.4062 11.2793 16.9236 11.2793 16.3281C11.2793 15.7327 10.7966 15.25 10.2012 15.25C9.60574 15.25 9.12305 15.7327 9.12305 16.3281C9.12305 16.9236 9.60574 17.4062 10.2012 17.4062Z" fill="black"/>
</svg>
