<svg width="24" height="24" viewBox="0 0 24 24" fill="none" xmlns="http://www.w3.org/2000/svg">
<path d="M16.9863 9.50891V8.73948C16.9863 4.179 13.2884 0.46875 8.74316 0.46875C4.19788 0.46875 0.5 4.179 0.5 8.73948C0.5 12.3906 1.7168 14.1538 2.60522 15.4413C3.13027 16.2021 3.50963 16.7518 3.50963 17.4609V22.8695C3.50963 23.2429 3.81133 23.5456 4.18346 23.5456H12.539C12.9111 23.5456 13.2128 23.2429 13.2128 22.8695V21.5177H16.3125C16.6846 21.5177 16.9863 21.2149 16.9863 20.8416V18.8132C16.9863 18.588 16.8745 18.3776 16.6881 18.252C16.4853 18.1153 16.0879 17.7308 16.0879 17.4611C16.0879 17.2143 16.438 16.8422 16.6881 16.6701C16.8745 16.5446 16.9863 16.3341 16.9863 16.1089V14.7566H18.1095C18.3337 14.7566 18.5433 14.6447 18.6684 14.4581C18.7936 14.2715 18.8182 14.0346 18.7338 13.8261L16.9863 9.50891Z" fill="black"/>
<path d="M22.996 14.8743C22.8572 14.5278 22.4647 14.3599 22.1195 14.4992C21.7742 14.6384 21.6068 15.0322 21.7456 15.3786C22.0153 16.0517 22.152 16.7611 22.152 17.4872C22.152 18.2132 22.0153 18.9227 21.7456 19.5957C21.6068 19.9422 21.7742 20.3359 22.1195 20.4752C22.2019 20.5084 22.2869 20.5241 22.3706 20.5241C22.6376 20.5241 22.8903 20.3638 22.996 20.1001C23.3302 19.2659 23.4997 18.3868 23.4997 17.4872C23.4997 16.5875 23.3302 15.7085 22.996 14.8743Z" fill="black"/>
<path d="M19.6185 15.5079C19.2732 15.6472 19.1058 16.041 19.2446 16.3874C19.3853 16.7384 19.4565 17.1085 19.4565 17.4874C19.4565 17.8663 19.3853 18.2364 19.2446 18.5874C19.1058 18.9339 19.2732 19.3276 19.6185 19.4669C19.7009 19.5001 19.786 19.5158 19.8696 19.5158C20.1366 19.5158 20.3894 19.3555 20.4951 19.0917C20.7002 18.5796 20.8042 18.0399 20.8042 17.4874C20.8042 16.935 20.7002 16.3952 20.4951 15.8831C20.3563 15.5366 19.9637 15.3687 19.6185 15.5079Z" fill="black"/>
</svg>
