<svg width="47" height="43" viewBox="0 0 47 43" fill="none" xmlns="http://www.w3.org/2000/svg">
<g clip-path="url(#clip0_1395_86616)">
<path d="M38.0857 35.448H38.6993C41.1257 35.448 43.5513 35.448 45.9761 35.448C46.7096 35.448 47.0328 35.7283 46.9974 36.4129C46.9469 37.3943 46.9974 38.4124 46.7336 39.3454C46.1124 41.514 43.9726 42.9613 41.5575 42.9885C39.6209 43.0098 37.683 42.9944 35.7502 42.9944C28.8488 42.9944 21.9473 42.9944 15.0459 42.9944C12.1612 42.9944 9.9784 41.2704 9.51508 38.6194C9.46765 38.2685 9.44993 37.9146 9.46206 37.5611C9.46206 28.4167 9.46206 19.2724 9.46206 10.1281V9.47301H8.89396C6.263 9.47301 3.63246 9.47301 1.00234 9.47301C0.212042 9.47301 0.00373252 9.27318 0.00373252 8.52705C0.00373252 7.33277 -0.0240409 6.13612 0.0201451 4.94302C0.105992 2.63251 1.94161 0.588039 4.33017 0.110327C4.70037 0.0400013 5.0773 0.0055288 5.45503 0.00745362C15.0169 0.00272379 24.5783 0.00272379 34.1393 0.00745362C35.9648 0.00745362 37.3724 0.933316 37.861 2.46696C37.9467 2.74962 37.9892 3.04223 37.9873 3.33607C37.9965 6.77386 37.9965 10.2109 37.9873 13.6471V14.2584C38.1855 14.0444 38.3041 13.9214 38.4165 13.7925C39.0919 13.0145 39.7736 12.2411 40.4364 11.4513C40.5297 11.324 40.663 11.2272 40.8178 11.1742C40.9725 11.1213 41.1411 11.1148 41.2999 11.1556C43.0131 11.456 44.2036 12.3381 44.8891 13.8516C44.9827 14.0214 45.0161 14.2147 44.9846 14.4035C44.953 14.5923 44.8581 14.7668 44.7136 14.9017C44.3248 15.325 43.9562 15.7637 43.5623 16.2154L45.1782 17.4191C45.7451 17.8436 45.7627 18.2149 45.2262 18.6973C44.4523 19.3914 43.6658 20.0714 42.9007 20.7737C42.7136 20.9483 42.5621 21.1535 42.4538 21.3792C42.0865 22.1442 41.7481 22.9223 41.3946 23.6932C41.2053 24.1071 40.8531 24.2703 40.4579 24.1378C40.0628 24.0054 39.8746 23.6105 40.0615 23.1848C40.4781 22.2317 40.9048 21.281 41.3618 20.3469C41.4666 20.1305 41.7077 19.972 41.887 19.7876C42.469 19.1892 43.0522 18.5921 43.6481 17.9808L42.695 17.2713C42.594 17.3742 42.4967 17.4652 42.4096 17.5646C41.0424 19.1278 39.6714 20.6874 38.3193 22.2613C38.1665 22.4399 38.0782 22.6593 38.0668 22.888C38.0517 26.9454 38.0483 31.002 38.0567 35.0578C38.0542 35.1571 38.0719 35.2718 38.0857 35.448ZM9.07574 1.38147C10.6298 2.74366 10.8773 4.36717 10.8722 6.12548C10.8432 16.5701 10.8583 27.0159 10.8596 37.4606C10.8596 37.7266 10.8596 37.9927 10.8785 38.2563C11.0048 40.1885 12.8025 41.7127 14.902 41.6855C17.0242 41.6535 18.7828 40.0596 18.8345 38.1109C18.851 37.4925 18.8345 36.8717 18.8446 36.2521C18.8535 35.7164 19.1678 35.4646 19.7372 35.5083C19.847 35.5166 19.9581 35.5083 20.068 35.5083H36.3991V24.3932C36.2539 24.5505 36.1605 24.6463 36.0721 24.748C34.316 26.7581 32.5663 28.7683 30.7988 30.769C30.5659 31.0257 30.2853 31.2408 29.9707 31.404C28.582 32.1265 27.1756 32.823 25.7793 33.5324C25.4334 33.7086 25.0749 33.86 24.7289 33.588C24.383 33.316 24.455 32.9613 24.5686 32.6066C24.9903 31.2787 25.3816 29.9437 25.8386 28.6276C25.9996 28.1568 26.2483 27.7164 26.5734 27.3269C29.7687 23.6187 32.9892 19.9318 36.1921 16.2296C36.3352 16.0606 36.4178 15.8538 36.4281 15.6383C36.442 11.508 36.4357 7.37652 36.4408 3.2462C36.4429 3.00217 36.3894 2.76052 36.2838 2.53743C36.1782 2.31433 36.023 2.11494 35.8285 1.95259C35.3437 1.52218 34.7541 1.3862 34.0951 1.38738C25.9497 1.39369 17.8048 1.39369 9.66026 1.38738L9.07574 1.38147ZM42.4602 15.3167C42.7808 14.93 43.0699 14.6072 43.3312 14.2525C43.3658 14.202 43.3877 14.1448 43.3954 14.0852C43.403 14.0256 43.3962 13.9652 43.3754 13.9084C43.2055 13.5925 42.969 13.312 42.6802 13.084C42.3914 12.856 42.0563 12.6851 41.6951 12.5817C41.6254 12.5685 41.5534 12.5707 41.4848 12.5882C41.4162 12.6056 41.3529 12.6378 41.2999 12.6822C40.9919 13.0109 40.7167 13.3692 40.4162 13.7393L42.4602 15.3167ZM28.8256 30.4959L27.2741 29.3253L26.5519 31.5873L28.8256 30.4959Z" fill="black"/>
<path d="M19.447 17.2349C18.3449 17.2349 17.2428 17.2349 16.1406 17.2349C14.3075 17.2349 13.1221 15.9484 13.3721 14.2469C13.7117 11.9328 15.6255 10.3294 18.1101 10.3176C19.3359 10.3117 20.5794 10.2573 21.7825 10.4276C24.0108 10.7433 25.633 12.7026 25.5813 14.8109C25.5472 16.1849 24.4249 17.2148 22.9427 17.2349H19.447Z" fill="black"/>
<path d="M19.5858 2.54244C20.9417 2.47267 22.1107 2.89718 22.7129 4.11747C23.3808 5.47729 23.3353 6.88087 22.4024 8.15319C21.9766 8.71819 21.3727 9.14414 20.6753 9.37127C19.978 9.5984 19.2222 9.6153 18.514 9.4196C17.7993 9.223 17.1667 8.82464 16.7026 8.27887C16.2385 7.7331 15.9656 7.06651 15.9209 6.37005C15.8876 5.95841 15.8948 5.54479 15.9424 5.13438C16.1595 3.60783 17.4258 2.57437 19.0745 2.54362C19.2323 2.54007 19.3901 2.54244 19.5858 2.54244Z" fill="black"/>
<path d="M21.2889 20.0572C23.6497 20.0572 26.0105 20.0454 28.3713 20.0726C28.5205 20.0787 28.6668 20.1133 28.8012 20.1743C28.9356 20.2353 29.0552 20.3214 29.1527 20.4274C29.4696 20.8412 29.1376 21.3662 28.5859 21.4183C28.4599 21.427 28.3335 21.4297 28.2072 21.4265H14.4224C14.2652 21.4305 14.1079 21.425 13.9515 21.41C13.5639 21.3627 13.372 21.1321 13.3556 20.7809C13.3379 20.4073 13.5286 20.1566 13.925 20.0809C14.0965 20.059 14.2699 20.053 14.4426 20.0632C16.7251 20.0584 19.0072 20.0565 21.2889 20.0572Z" fill="black"/>
<path d="M19.745 23.6244H25.0297C25.1559 23.6185 25.2823 23.6185 25.4084 23.6244C25.8503 23.667 26.1104 23.9283 26.1066 24.3162C26.1028 24.704 25.8415 24.9547 25.3958 24.9985C25.3327 25.002 25.2695 25.002 25.2064 24.9985C21.5579 24.9985 17.9094 25.0056 14.2597 24.9843C13.9883 24.9843 13.6183 24.8412 13.4656 24.6461C13.1033 24.1849 13.5073 23.6256 14.1776 23.6185C15.2166 23.6067 16.2544 23.6185 17.2921 23.6185L19.745 23.6244Z" fill="black"/>
<path d="M18.7931 27.2078C20.3181 27.2078 21.8444 27.2078 23.3695 27.2078C24.0335 27.2078 24.3795 27.689 24.127 28.201C23.954 28.5345 23.6359 28.5676 23.2887 28.5676C20.4566 28.5676 17.6253 28.5676 14.7949 28.5676C14.5752 28.5676 14.3543 28.5676 14.1346 28.5676C13.6473 28.5534 13.3772 28.3193 13.357 27.9137C13.3431 27.4774 13.6095 27.2161 14.1271 27.2125C15.6786 27.2031 17.2352 27.209 18.7931 27.2078Z" fill="black"/>
<path d="M18.029 32.2036C16.7539 32.2036 15.4788 32.2036 14.2038 32.2036C13.6394 32.2036 13.3554 31.9671 13.3516 31.5319C13.3478 31.0968 13.623 30.8485 14.1899 30.8473C16.7872 30.8426 19.384 30.8426 21.9805 30.8473C22.5069 30.8473 22.8036 31.1003 22.8023 31.5047C22.8011 31.9091 22.4564 32.2012 21.9477 32.2024C20.641 32.2071 19.3357 32.2036 18.029 32.2036Z" fill="black"/>
<path d="M30.4303 11.127C31.2963 11.127 32.1624 11.127 33.0272 11.127C33.5852 11.127 33.8705 11.3635 33.873 11.8081C33.8755 12.2527 33.6054 12.4939 33.036 12.4963C31.2686 12.5042 29.5057 12.5042 27.7476 12.4963C27.1946 12.4963 26.9118 12.2338 26.9232 11.7868C26.9345 11.3398 27.2224 11.1235 27.7867 11.1211C28.6629 11.1235 29.5466 11.127 30.4303 11.127Z" fill="black"/>
<path d="M31.17 16.4245C30.5729 16.4245 29.9745 16.4316 29.3773 16.4245C28.8219 16.4163 28.5391 16.175 28.5391 15.734C28.5391 15.2929 28.8168 15.0458 29.3748 15.0411C30.6002 15.0332 31.8265 15.0332 33.0536 15.0411C33.6028 15.0411 33.8805 15.3048 33.8692 15.7505C33.8591 16.1727 33.5838 16.4115 33.0561 16.421C32.4274 16.4352 31.7987 16.4245 31.17 16.4245Z" fill="black"/>
</g>
<defs>
<clipPath id="clip0_1395_86616">
<rect width="47" height="43" fill="white"/>
</clipPath>
</defs>
</svg>
