<svg width="197" height="56" viewBox="0 0 197 56" fill="none" xmlns="http://www.w3.org/2000/svg">
<path d="M60.2723 21.8565C59.6133 20.5592 58.7207 19.4738 57.6661 18.6876C56.6116 17.9017 55.4248 17.4368 54.2008 17.3306C52.977 17.2244 51.7504 17.4797 50.6195 18.0762C49.4887 18.6726 48.4853 19.5935 47.69 20.7646L44.8793 18.1139C45.5807 17.7519 47.0436 16.9405 47.1427 16.4484C47.2026 16.1485 46.451 15.9431 45.3068 15.8241L50.5607 9.81105C50.5789 9.79008 50.591 9.76231 50.5956 9.73191C50.6002 9.7015 50.5966 9.67006 50.5858 9.64231L49.247 6.48012C49.2331 6.45665 49.2131 6.4401 49.1903 6.43338C49.1676 6.42666 49.1438 6.43021 49.1229 6.44341C49.1092 6.45208 49.0973 6.46465 49.088 6.48012L43.6159 12.7179C41.9786 12.7179 39.0731 12.9925 38.2371 12.3306C36.899 11.2772 36.7449 9.72362 36.247 9.16846C35.7492 8.61331 35.1976 8.54512 35.0784 8.07039C35.0719 8.06233 35.0681 8.05133 35.068 8.0398C35.068 8.03394 35.0688 8.02814 35.0706 8.02273C35.0725 8.01733 35.0751 8.01243 35.0784 8.00833C35.3365 7.92702 36.7748 7.42257 37.1034 6.13742C37.431 4.85227 36.7595 3.18681 36.65 2.91841C36.6443 2.90952 36.6411 2.89841 36.6411 2.88693C36.6411 2.87547 36.6443 2.86435 36.65 2.85546L38.1771 1.18389C38.183 1.17578 38.1868 1.16568 38.1881 1.15486C38.1895 1.14403 38.1883 1.13294 38.1846 1.12298C38.181 1.11301 38.1751 1.10461 38.1677 1.09881C38.1603 1.09301 38.1517 1.09006 38.143 1.09035L35.9047 1.43392C35.8917 1.44045 35.8772 1.44045 35.8643 1.43392C35.75 1.23372 34.8692 -0.107388 33.0284 0.809706C30.8892 1.90778 31.2825 4.19657 31.2825 4.19657C31.5656 6.58592 32.2272 7.05976 33.3074 7.83959C33.3317 7.83959 33.3471 7.90255 33.3074 7.92702C32.6101 8.65702 25.6304 15.8434 19.1778 18.6498C19.1535 18.6604 19.1325 18.6804 19.1176 18.7067C19.1026 18.733 19.0947 18.7644 19.0947 18.7967C19.0947 18.8289 19.1026 18.8604 19.1176 18.8867C19.1325 18.913 19.1535 18.9328 19.1778 18.9435C21.0534 19.9542 26.6407 19.4174 28.3023 18.2074C28.3091 18.2019 28.3171 18.199 28.3252 18.1993C28.3333 18.1996 28.3412 18.2031 28.3476 18.2091C28.3541 18.2153 28.3589 18.2239 28.3614 18.2336C28.3639 18.2432 28.3639 18.2537 28.3616 18.2633C28.1831 19.1306 27.2076 24.2082 28.7548 25.7864L28.8392 25.8605L26.7648 27.7324C26.6695 27.8167 26.599 27.9381 26.5646 28.0781C26.5302 28.2179 26.5338 28.368 26.5747 28.5049C26.6158 28.642 26.6919 28.758 26.7911 28.8349C26.8904 28.9119 27.0071 28.9454 27.1232 28.9301L28.1929 28.7929C28.8848 28.7002 29.5316 28.3176 30.0288 27.707L30.3815 27.2708L33.3966 30.0903L32.9992 34.089C31.268 33.9708 29.5543 34.5756 28.1266 35.8089C26.6989 37.0423 25.6378 38.8346 25.1093 40.905C24.5809 42.9753 24.615 45.2071 25.2064 47.2506C25.7978 49.2941 26.9129 51.0339 28.3773 52.1977C29.8418 53.3615 31.5726 53.8835 33.2989 53.682C35.0252 53.4804 36.6494 52.5667 37.9173 51.084C39.1851 49.6012 40.0251 47.6332 40.3054 45.4879C40.5857 43.3427 40.2906 41.1413 39.4664 39.2289L40.2327 38.6046C40.5383 38.9422 40.9225 39.1474 41.3284 39.1899C41.7342 39.2324 42.1403 39.1099 42.4863 38.8404C42.8323 38.571 43.0999 38.1691 43.2495 37.694C43.399 37.219 43.4226 36.6961 43.3167 36.2031L46.506 35.0307C46.5698 35.0109 46.6299 34.9755 46.6826 34.9264C46.7354 34.8774 46.78 34.8157 46.8136 34.7451C46.8473 34.6744 46.8696 34.5959 46.879 34.5144C46.8885 34.433 46.8849 34.3499 46.8686 34.27V34.132C46.8476 33.9867 46.7859 33.8556 46.6949 33.7619C46.6038 33.6682 46.4892 33.6181 46.3715 33.6205H43.6604C43.6524 33.6199 43.6445 33.6167 43.6376 33.6113C43.6307 33.6061 43.6249 33.5987 43.6207 33.5899L42.8049 31.2757L44.456 19.3614L47.0638 21.7935C46.3075 23.2785 45.8837 24.9912 45.8366 26.7521C45.7894 28.513 46.1209 30.2572 46.7961 31.8024C47.4712 33.3476 48.4654 34.6366 49.6745 35.5345C50.8835 36.4326 52.2629 36.9063 53.6681 36.9063C55.0733 36.9063 56.4527 36.4326 57.6617 35.5345C58.8707 34.6366 59.8649 33.3476 60.5402 31.8024C61.2154 30.2572 61.5468 28.513 61.4997 26.7521C61.4525 24.9912 61.0286 23.2785 60.2723 21.7935V21.8565ZM38.5509 14.7576L42.2471 14.6763L42.745 15.8181C41.8942 15.8618 40.9934 15.9431 40.1329 16.0804C39.5061 16.1739 38.7552 15.1694 38.5307 14.8328C38.5255 14.8194 38.5248 14.8041 38.5286 14.79C38.5324 14.776 38.5403 14.7643 38.5509 14.7576ZM32.9635 21.6878C33.2773 21.0645 35.0631 17.3217 35.2925 16.0175C35.2959 16.0095 35.3009 16.003 35.3071 15.9984C35.3132 15.9938 35.3203 15.9915 35.3273 15.9915C35.3345 15.9915 35.3414 15.9938 35.3477 15.9984C35.3537 16.003 35.3587 16.0095 35.3623 16.0175C36.5608 17.7581 39.0787 18.7626 39.2726 18.8368H39.2969L42.5309 17.5893L43.2575 18.2695L39.8687 22.1687C39.5056 21.7468 39.0432 21.4838 38.5509 21.4193C36.5957 21.1082 33.5758 21.6563 32.9985 21.7629C32.9914 21.7631 32.9845 21.7609 32.9783 21.7566C32.9721 21.7522 32.9669 21.7458 32.9634 21.7382C32.9599 21.7306 32.9581 21.7219 32.9581 21.713C32.9581 21.7041 32.96 21.6954 32.9635 21.6878ZM41.3372 34.4694C41.1169 34.5002 40.903 34.5805 40.7055 34.7064L38.3919 32.4603C38.3862 32.4516 38.3832 32.4407 38.3832 32.4293C38.3832 32.418 38.3862 32.4071 38.3919 32.3984L39.5458 29.3909C39.5499 29.3831 39.5554 29.3768 39.562 29.3724C39.5684 29.3679 39.5758 29.3657 39.5832 29.3657C39.5906 29.3657 39.5978 29.3679 39.6044 29.3724C39.6108 29.3768 39.6164 29.3831 39.6204 29.3909L41.5262 33.1344L41.3372 34.4694ZM36.4262 31.2128L34.8393 29.7283L37.8745 26.2357L36.4262 31.2128ZM36.4262 26.0853L33.9635 28.924L31.4763 26.6159C33.14 26.6221 34.8023 26.4464 36.4408 26.0915L36.4262 26.0853ZM34.4363 30.9881L36.0581 32.5103L35.8643 33.1782C35.8308 33.2907 35.8155 33.4104 35.8191 33.5303C35.8228 33.6503 35.8453 33.7682 35.8855 33.8773C35.9257 33.9863 35.9828 34.0843 36.0533 34.1654C36.1239 34.2467 36.2066 34.3095 36.2966 34.3506L39.6853 35.898L39.7851 35.9915C39.6432 36.4741 39.6274 37.0006 39.7396 37.4953L38.979 38.1185C37.8071 36.0999 36.0647 34.7186 34.1079 34.257L34.4363 30.9881ZM33.9091 36.26C35.3865 36.643 36.7024 37.6872 37.611 39.1974L33.267 42.6656L33.9091 36.26ZM35.9884 50.4753C35.1668 51.142 34.2315 51.5564 33.2582 51.685C32.2851 51.8134 31.3013 51.6522 30.3872 51.2146C29.4728 50.777 28.6539 50.0751 27.9965 49.1662C27.3392 48.2572 26.8621 47.1666 26.604 45.9831C26.3458 44.7994 26.3141 43.5562 26.5109 42.3543C26.708 41.1524 27.1283 40.0258 27.7377 39.0658C28.3471 38.1058 29.1286 37.3395 30.0186 36.8291C30.9085 36.3189 31.8819 36.079 32.8597 36.1287L32.0837 43.9009C32.0737 44.0241 32.0916 44.1483 32.1352 44.2593C32.1789 44.3704 32.2466 44.4637 32.3306 44.5289C32.4146 44.594 32.5114 44.6281 32.6102 44.6275C32.7089 44.6268 32.8056 44.5913 32.889 44.5251L38.1729 40.3024C38.8867 42.0365 39.0573 44.0424 38.6513 45.9263C38.2452 47.8101 37.2918 49.4351 35.9786 50.4823L35.9884 50.4753ZM40.6009 24.975C40.6379 24.4189 40.5855 23.8591 40.4467 23.3287L43.3069 20.0345L42.0686 29.1549L40.6009 24.975ZM57.0182 33.7088C55.8305 34.6531 54.4229 35.0652 53.0246 34.8782C51.6263 34.6913 50.3196 33.9161 49.3176 32.6791C48.3155 31.442 47.6771 29.816 47.5063 28.0659C47.3355 26.3158 47.6423 24.5447 48.3768 23.0412L53.3066 27.6511C53.3952 27.7275 53.5002 27.7684 53.6078 27.7684C53.7154 27.7684 53.8203 27.7275 53.909 27.6511C53.9807 27.5934 54.0401 27.5146 54.0821 27.4219C54.1242 27.329 54.1477 27.2247 54.1508 27.1181C54.1537 27.0112 54.1359 26.9052 54.099 26.809C54.0623 26.7128 54.0072 26.6291 53.939 26.5652L49.0086 21.9492C49.6 21.1191 50.3263 20.4574 51.1387 20.0087C51.9511 19.5598 52.8308 19.3345 53.7185 19.3473C54.6062 19.3603 55.4814 19.6114 56.2852 20.0837C57.0891 20.556 57.8029 21.2386 58.3789 22.0856C58.9548 22.9328 59.3794 23.9245 59.6242 24.9945C59.8689 26.0645 59.9282 27.1876 59.7979 28.2887C59.6676 29.3898 59.3508 30.443 58.8687 31.3778C58.3868 32.3125 57.7508 33.107 57.0035 33.708L57.0182 33.7088Z" fill="white"/>
<path d="M41.1778 11.1132L42.9984 11.2443C43.0411 11.2473 43.084 11.2393 43.1243 11.221C43.1644 11.2027 43.2013 11.1743 43.2326 11.1377L47.7349 5.84233C47.7474 5.82884 47.7561 5.8109 47.76 5.79096C47.7639 5.771 47.7628 5.75002 47.7569 5.73089C47.7509 5.71174 47.7404 5.69537 47.7268 5.68402C47.713 5.67267 47.697 5.66689 47.6806 5.66747L45.9143 5.53633C45.8497 5.5312 45.7849 5.54291 45.7241 5.57074C45.6633 5.59859 45.6076 5.64194 45.5609 5.69806L41.1179 10.92C41.1052 10.9354 41.0964 10.9551 41.0927 10.9768C41.089 10.9984 41.0905 11.0209 41.0969 11.0415C41.1032 11.0621 41.1143 11.08 41.1287 11.0927C41.1431 11.1055 41.1602 11.1126 41.1778 11.1132ZM17.3422 44.3173L14.4617 46.5127L11.7306 43.7185L12.5959 48.0041L9.79005 50.3489L13.2081 50.8044L14.2031 55.0463L15.4512 51.0414L18.8692 51.3219L16.2279 48.3905L17.3422 44.3173ZM20.7003 28.885L17.8198 31.0742L15.0837 28.2793L15.9491 32.5648L13.1482 34.9104L16.5662 35.365L17.5612 39.614L18.8093 35.6099L22.228 35.8834L19.5853 32.9582L20.7003 28.885ZM7.27289 37.1625L8.38713 33.0885L5.50669 35.2846L2.77547 32.4905L3.64079 36.7753L0.839844 39.1217L4.25299 39.5772L5.25289 43.8252L6.49682 39.8211L9.91973 40.0947L7.27289 37.1625ZM71.2644 39.4399V14.4852H79.5271C83.0819 14.4852 85.3933 17.7401 85.3933 22.0684C85.3933 26.397 83.0819 29.6596 79.5271 29.6596H74.4245V39.4233L71.2644 39.4399ZM74.4245 17.8537V26.3234H79.3842C80.9642 26.3234 82.2339 24.3058 82.2339 22.0684C82.2339 19.8305 80.9384 17.8537 79.3842 17.8537H74.4245ZM101.336 34.1997C102.331 33.9477 103.328 33.7116 104.328 33.4916C104.528 34.9077 105.201 36.6082 107.487 36.6082C107.999 36.6082 110.505 36.3643 110.505 34.0938C110.505 29.8065 101.763 34.2328 101.763 26.5439C101.763 23.4927 104.185 21.1899 107.235 21.1899C110.285 21.1899 112.875 22.8168 113.302 26.7876C112.286 27.0072 111.295 27.2511 110.31 27.5037C110.11 25.2656 109.016 24.4525 107.319 24.4525C105.823 24.4525 104.807 25.4449 104.807 26.5439C104.807 28.0003 105.881 28.3824 107.571 28.6018C110.81 29.025 113.523 29.9122 113.523 34.0938C113.523 37.8532 110.932 39.8385 107.487 39.8385C103.822 39.8385 101.731 37.3977 101.336 34.1997ZM114.319 24.436V21.5072H116.773V16.2993H119.823V21.4749H122.783V24.436H119.823V34.6071C119.823 36.0234 120.159 36.4535 121.118 36.4535C121.539 36.4535 122.471 36.3809 122.471 36.3809V39.4643C122.471 39.4643 121.377 39.6025 120.295 39.6025C117.615 39.6025 116.741 37.7963 116.741 34.3623V24.436H114.319ZM133.396 29.448C133.396 26.7143 132.916 24.4124 130.63 24.4124C128.454 24.4124 127.865 26.7143 127.865 29.448V39.4399H124.816V21.5395H127.58L127.865 23.484C128.286 22.4916 129.983 21.1812 131.647 21.1812C132.443 21.1227 133.237 21.3436 133.939 21.8193C134.641 22.2954 135.224 23.007 135.623 23.8746C136.387 22.2477 138.214 21.182 139.91 21.182C143.795 21.182 144.986 24.1598 144.986 29.4805V39.4732H141.981V29.4472C141.981 26.7458 141.392 24.3783 139.217 24.3783C136.93 24.3783 136.452 26.681 136.452 29.4472V39.4391H133.408L133.396 29.448ZM150.515 27.6908C149.532 27.4793 148.515 27.1942 147.498 26.9826C147.809 23.0118 150.406 21.1653 153.398 21.1653C157.432 21.1653 159.517 23.6063 159.517 28.5371V34.7776C159.517 35.8441 159.685 36.4456 160.281 36.4456C160.529 36.4412 160.775 36.3914 161.013 36.2987V39.4233C160.425 39.6239 159.816 39.7198 159.206 39.7083C158.611 39.7564 158.026 39.5195 157.566 39.0448C157.105 38.5701 156.806 37.8951 156.725 37.1538C156.179 37.9721 155.498 38.6332 154.73 39.0923C153.96 39.5513 153.122 39.7975 152.271 39.8141C148.969 39.8141 146.993 37.5034 146.993 34.1184C146.993 31.3198 149.052 28.7644 152.82 28.7644H156.493V27.6908C156.493 26.3077 156.04 24.436 153.417 24.436C151.669 24.436 150.593 25.5349 150.535 27.6908H150.515ZM156.493 32.5079V31.6207H153.132C150.626 31.6207 150.114 33.2484 150.114 34.1026C150.114 35.3065 150.761 36.5436 152.627 36.5436C155.107 36.5436 156.512 34.4191 156.512 32.4748L156.493 32.5079ZM92.8144 39.8308C91.3452 39.8308 89.9095 39.2835 88.688 38.2571C87.4663 37.2324 86.5145 35.7742 85.9526 34.0694C85.3909 32.364 85.2442 30.4885 85.5307 28.679C85.8171 26.8693 86.524 25.2063 87.5625 23.8992C88.5996 22.5937 89.9229 21.7044 91.3641 21.3441C92.8053 20.984 94.2994 21.1691 95.6565 21.8762C97.0144 22.5831 98.1745 23.7791 98.9901 25.3128C99.8062 26.8484 100.242 28.652 100.242 30.4973C100.24 32.9722 99.4566 35.3449 98.0642 37.0943C96.6717 38.8437 94.7834 39.8281 92.8144 39.8308ZM92.8144 24.7288C91.9046 24.7288 91.0154 25.0676 90.2596 25.7027C89.5022 26.3385 88.9123 27.2416 88.5645 28.2978C88.2168 29.354 88.1267 30.516 88.3058 31.6364C88.4835 32.7563 88.922 33.7853 89.5658 34.5931C90.2091 35.3997 91.0288 35.9487 91.9212 36.1708C92.8136 36.3927 93.7383 36.2775 94.5785 35.8397C95.4193 35.4005 96.1372 34.6584 96.6414 33.7074C97.1458 32.7563 97.4138 31.6392 97.4116 30.4973C97.4101 28.9663 96.9248 27.4985 96.063 26.4171C95.2012 25.3355 94.0325 24.7288 92.8144 24.7288ZM179.972 33.2074C180.904 33.5247 181.83 33.8745 182.763 34.2328C182.115 36.8206 180.173 39.7984 176.288 39.7984C172.402 39.7984 169.573 36.0058 169.573 30.4736C169.573 24.9404 172.162 21.1488 176.145 21.1488C180.128 21.1488 182.582 24.4849 182.582 29.9035C182.59 30.4744 182.571 31.0453 182.523 31.6127H172.72C172.779 34.2328 174.215 36.568 176.274 36.568C177.1 36.5971 177.908 36.2836 178.577 35.6763C179.245 35.068 179.736 34.2004 179.972 33.2074ZM179.325 28.74C179.241 26.0796 178.224 24.3791 176.132 24.3791C174.041 24.3791 172.947 26.5036 172.863 28.7408L179.325 28.74ZM183.891 34.1997C184.906 33.9558 185.897 33.7039 186.881 33.4916C187.082 34.9077 187.755 36.6082 190.041 36.6082C190.546 36.6082 193.058 36.3643 193.058 34.0938C193.058 29.8065 184.317 34.2408 184.317 26.5439C184.317 23.5006 186.739 21.1899 189.789 21.1899C192.839 21.1899 195.429 22.8168 195.85 26.7956C194.84 27.0072 193.848 27.2511 192.865 27.5037C192.664 25.2656 191.57 24.4525 189.873 24.4525C188.378 24.4525 187.361 25.4449 187.361 26.5439C187.361 28.0003 188.436 28.3902 190.126 28.6018C193.364 29.025 196.077 29.9122 196.077 34.0938C196.077 37.8532 193.486 39.8385 190.041 39.8385C186.377 39.8385 184.285 37.3977 183.891 34.1997ZM160.56 24.436V21.5072H163.013V16.2993H166.063V21.4749H169.022V24.436H166.063V34.6071C166.063 36.0234 166.399 36.4535 167.391 36.4535C167.812 36.4535 168.743 36.3809 168.743 36.3809V39.4643C168.743 39.4643 167.656 39.6025 166.569 39.6025C163.894 39.6025 163.013 37.7963 163.013 34.3623V24.436H160.56Z" fill="white"/>
</svg>
