<svg width="182" height="78" viewBox="0 0 182 78" fill="none" xmlns="http://www.w3.org/2000/svg">
<circle cx="15" cy="38.5" r="14.5" fill="white" stroke="black"/>
<circle cx="15" cy="38.5" r="7" fill="black"/>
<rect x="30" y="38.5" width="116" height="1" fill="black"/>
<g clip-path="url(#clip0_2101_1437)">
<path d="M143.13 0.5C165.3 0.5 183.1 19.25 181.53 41.76C180.18 61.1 164.25 76.6 144.88 77.45C130.03 78.11 116.93 70.34 109.96 58.53C104.88 49.91 97.4 42.96 88.18 39.07L88 38.99L88.19 38.91C97.31 35.06 104.85 28.27 109.82 19.71C116.47 8.23 128.89 0.5 143.13 0.5Z" fill="black"/>
<circle cx="143" cy="38.5" r="25" fill="white"/>
</g>
<defs>
<clipPath id="clip0_2101_1437">
<rect width="93.62" height="76.99" fill="white" transform="translate(88 0.5)"/>
</clipPath>
</defs>
</svg>
