<svg width="14" height="20" viewBox="0 0 14 20" fill="none" xmlns="http://www.w3.org/2000/svg">
<path d="M12.7437 0.559917V0.557851C12.3887 0.200981 11.9061 0.000206612 11.4028 0H2.59494C1.54881 0.00340909 0.701651 0.850568 0.698242 1.89669V18.1012C0.698449 18.6046 0.899224 19.0871 1.25609 19.4421C1.61059 19.7985 2.0923 19.9992 2.59494 20H11.4049C11.9075 19.9992 12.3892 19.7985 12.7437 19.4421C13.1 19.0877 13.3008 18.6059 13.3015 18.1033V1.89876C13.3008 1.39613 13.1 0.914411 12.7437 0.559917ZM6.9999 18.7128C6.71689 18.7128 6.4875 18.4834 6.4875 18.2004C6.4875 17.9174 6.71689 17.688 6.9999 17.688C7.2829 17.688 7.51229 17.9174 7.51229 18.2004C7.51229 18.4834 7.2829 18.7128 6.9999 18.7128ZM11.7954 15.4959C11.7954 16.1805 11.2403 16.7355 10.5557 16.7355H3.44204C2.75739 16.7355 2.20237 16.1805 2.20237 15.4959V3.41942C2.20237 2.73476 2.75739 2.17975 3.44204 2.17975H10.5577C11.2424 2.17975 11.7974 2.73476 11.7974 3.41942L11.7954 15.4959Z" fill="black"/>
</svg>
