<svg width="32" height="32" viewBox="0 0 32 32" fill="none" xmlns="http://www.w3.org/2000/svg">
<mask id="path-1-outside-1_2193_1564" maskUnits="userSpaceOnUse" x="-0.149902" y="-0.25" width="32" height="32" fill="black">
<rect fill="white" x="-0.149902" y="-0.25" width="32" height="32"/>
<path d="M19.6501 0.75H13.4501C12.3501 0.75 11.4501 1.65 11.4501 2.75V3.85H7.3501C5.8001 3.85 4.6001 5.1 4.6001 6.6V8.9C4.6001 10.1 5.3501 11.1 6.4001 11.5V19C6.4001 19.3 6.6001 19.5 6.9001 19.5C7.2001 19.5 7.4001 19.3 7.4001 19V11.8C9.3501 12.25 11.8001 12.6 14.1001 12.75V14.5C14.1001 15 14.5001 15.45 15.0501 15.45H18.0501C18.5501 15.45 19.0001 15.05 19.0001 14.5V12.7C21.0001 12.55 23.4001 12.25 25.7001 11.75V19.8C25.7001 20.1 25.9001 20.3 26.2001 20.3C26.5001 20.3 26.7001 20.1 26.7001 19.8V11.45C27.7501 11.05 28.5001 10.05 28.5001 8.85V6.6C28.5001 5.05 27.2501 3.85 25.7501 3.85H21.6501V2.75C21.6501 1.65 20.7501 0.75 19.6501 0.75ZM12.4501 2.75C12.4501 2.2 12.9001 1.75 13.4501 1.75H19.6501C20.2001 1.75 20.6501 2.2 20.6501 2.75V3.85H12.4501V2.75ZM18.0001 14.4H15.1501C15.1501 14.35 15.1501 10.9 15.1501 10.95H18.0001C18.0001 11 18.0001 14.5 18.0001 14.4ZM25.7501 4.85C26.7001 4.85 27.5001 5.65 27.5001 6.6V8.85C27.5001 9.6 27.0501 10.35 26.1001 10.6C23.7001 11.1 21.7501 11.45 19.0001 11.65V10.85C19.0001 10.35 18.6001 9.9 18.0501 9.9H15.0501C14.5501 9.9 14.1001 10.3 14.1001 10.85V11.7C11.3001 11.55 8.4501 11.05 6.9001 10.65C6.1501 10.45 5.6001 9.75 5.6001 8.95V6.65C5.6001 5.7 6.4001 4.9 7.3501 4.9C21.2501 4.85 16.8501 4.85 25.7501 4.85Z"/>
<path d="M30.9501 21.1C30.6501 20.6 30.0501 20.2 29.4001 20.1C28.9501 20.05 28.4501 20.1 28.0001 20.4C27.6001 20.65 26.7001 21.55 24.7501 22.45C24.5001 22.55 24.4001 22.85 24.5001 23.1C24.6001 23.35 24.9001 23.45 25.1501 23.35C27.1001 22.5 28.3309 21.3644 28.5501 21.2C28.7501 21.05 29.0501 21 29.3001 21.05C29.4001 21.1 29.3001 21.05 29.9501 21.4C30.2001 21.65 30.2501 22.15 29.8501 22.55C27.2501 25 24.8501 27.6 22.7501 28.95C21.3001 29.9 18.6001 30.2 17.6501 30.15C16.1501 30.1 15.4501 29.65 15.0001 29.45C12.3001 28.05 8.7501 27.5 6.0001 29.05C5.7501 29.2 5.6501 29.5 5.8001 29.75C5.9501 30 6.2501 30.1 6.5001 29.95C8.9001 28.6 12.1001 29.15 14.6001 30.4C15.8501 31.05 16.9501 31.2 17.7001 31.2C18.7001 31.2 21.4001 31 22.9001 30.1C24.9001 28.9 28.6001 25.3 30.7001 23.15C31.1501 22.7 31.3501 21.8 30.9501 21.1Z"/>
<path d="M1.3501 31.25H4.4001C4.7001 31.25 4.9001 31.05 4.9001 30.75C4.9001 30.1 4.9001 33.05 4.9001 24.55C4.9501 24.55 5.0001 24.5 5.0501 24.5C6.4501 23.5 6.6001 23.05 6.7001 22.95C6.9001 22.65 7.1501 22.2 7.5501 21.95C8.0001 21.65 8.4001 21.45 9.1001 21.35C12.0501 20.85 14.6501 22.35 16.8001 23.15C22.1501 25 22.7001 24.3 23.4501 25.1C23.7001 25.45 23.8001 26 23.4501 26.25C21.6501 26.85 17.8501 26.45 15.8001 25.9C15.5501 25.85 15.2501 26 15.2001 26.25C15.1501 26.5 15.3001 26.8 15.5501 26.85C19.3001 27.85 23.1001 27.5 23.8001 27.15C24.6501 26.8 25.1001 25.5 24.2501 24.45C23.2001 23.1 22.4001 24.2 17.3501 22.25C14.3501 21.1 12.1001 19.8 8.9001 20.35C8.4001 20.45 7.9501 20.6 7.4001 20.9C6.9001 21.15 6.3001 21.7 5.9501 22.35C5.7001 22.7 5.5001 22.95 4.9501 23.35V22.9C4.9501 22.6 4.7501 22.4 4.4501 22.4H1.3501C1.0501 22.4 0.850098 22.6 0.850098 22.9V27.05C0.850098 27.35 1.0501 27.55 1.3501 27.55C1.6501 27.55 1.8501 27.35 1.8501 27.05V23.4H3.9001C3.9001 23.55 3.9001 30.65 3.9001 30.25H1.8501V29.5C1.8501 29.2 1.6501 29 1.3501 29C1.0501 29 0.850098 29.2 0.850098 29.5V30.75C0.850098 31.05 1.0501 31.25 1.3501 31.25Z"/>
</mask>
<path d="M19.6501 0.75H13.4501C12.3501 0.75 11.4501 1.65 11.4501 2.75V3.85H7.3501C5.8001 3.85 4.6001 5.1 4.6001 6.6V8.9C4.6001 10.1 5.3501 11.1 6.4001 11.5V19C6.4001 19.3 6.6001 19.5 6.9001 19.5C7.2001 19.5 7.4001 19.3 7.4001 19V11.8C9.3501 12.25 11.8001 12.6 14.1001 12.75V14.5C14.1001 15 14.5001 15.45 15.0501 15.45H18.0501C18.5501 15.45 19.0001 15.05 19.0001 14.5V12.7C21.0001 12.55 23.4001 12.25 25.7001 11.75V19.8C25.7001 20.1 25.9001 20.3 26.2001 20.3C26.5001 20.3 26.7001 20.1 26.7001 19.8V11.45C27.7501 11.05 28.5001 10.05 28.5001 8.85V6.6C28.5001 5.05 27.2501 3.85 25.7501 3.85H21.6501V2.75C21.6501 1.65 20.7501 0.75 19.6501 0.75ZM12.4501 2.75C12.4501 2.2 12.9001 1.75 13.4501 1.75H19.6501C20.2001 1.75 20.6501 2.2 20.6501 2.75V3.85H12.4501V2.75ZM18.0001 14.4H15.1501C15.1501 14.35 15.1501 10.9 15.1501 10.95H18.0001C18.0001 11 18.0001 14.5 18.0001 14.4ZM25.7501 4.85C26.7001 4.85 27.5001 5.65 27.5001 6.6V8.85C27.5001 9.6 27.0501 10.35 26.1001 10.6C23.7001 11.1 21.7501 11.45 19.0001 11.65V10.85C19.0001 10.35 18.6001 9.9 18.0501 9.9H15.0501C14.5501 9.9 14.1001 10.3 14.1001 10.85V11.7C11.3001 11.55 8.4501 11.05 6.9001 10.65C6.1501 10.45 5.6001 9.75 5.6001 8.95V6.65C5.6001 5.7 6.4001 4.9 7.3501 4.9C21.2501 4.85 16.8501 4.85 25.7501 4.85Z" fill="black"/>
<path d="M30.9501 21.1C30.6501 20.6 30.0501 20.2 29.4001 20.1C28.9501 20.05 28.4501 20.1 28.0001 20.4C27.6001 20.65 26.7001 21.55 24.7501 22.45C24.5001 22.55 24.4001 22.85 24.5001 23.1C24.6001 23.35 24.9001 23.45 25.1501 23.35C27.1001 22.5 28.3309 21.3644 28.5501 21.2C28.7501 21.05 29.0501 21 29.3001 21.05C29.4001 21.1 29.3001 21.05 29.9501 21.4C30.2001 21.65 30.2501 22.15 29.8501 22.55C27.2501 25 24.8501 27.6 22.7501 28.95C21.3001 29.9 18.6001 30.2 17.6501 30.15C16.1501 30.1 15.4501 29.65 15.0001 29.45C12.3001 28.05 8.7501 27.5 6.0001 29.05C5.7501 29.2 5.6501 29.5 5.8001 29.75C5.9501 30 6.2501 30.1 6.5001 29.95C8.9001 28.6 12.1001 29.15 14.6001 30.4C15.8501 31.05 16.9501 31.2 17.7001 31.2C18.7001 31.2 21.4001 31 22.9001 30.1C24.9001 28.9 28.6001 25.3 30.7001 23.15C31.1501 22.7 31.3501 21.8 30.9501 21.1Z" fill="black"/>
<path d="M1.3501 31.25H4.4001C4.7001 31.25 4.9001 31.05 4.9001 30.75C4.9001 30.1 4.9001 33.05 4.9001 24.55C4.9501 24.55 5.0001 24.5 5.0501 24.5C6.4501 23.5 6.6001 23.05 6.7001 22.95C6.9001 22.65 7.1501 22.2 7.5501 21.95C8.0001 21.65 8.4001 21.45 9.1001 21.35C12.0501 20.85 14.6501 22.35 16.8001 23.15C22.1501 25 22.7001 24.3 23.4501 25.1C23.7001 25.45 23.8001 26 23.4501 26.25C21.6501 26.85 17.8501 26.45 15.8001 25.9C15.5501 25.85 15.2501 26 15.2001 26.25C15.1501 26.5 15.3001 26.8 15.5501 26.85C19.3001 27.85 23.1001 27.5 23.8001 27.15C24.6501 26.8 25.1001 25.5 24.2501 24.45C23.2001 23.1 22.4001 24.2 17.3501 22.25C14.3501 21.1 12.1001 19.8 8.9001 20.35C8.4001 20.45 7.9501 20.6 7.4001 20.9C6.9001 21.15 6.3001 21.7 5.9501 22.35C5.7001 22.7 5.5001 22.95 4.9501 23.35V22.9C4.9501 22.6 4.7501 22.4 4.4501 22.4H1.3501C1.0501 22.4 0.850098 22.6 0.850098 22.9V27.05C0.850098 27.35 1.0501 27.55 1.3501 27.55C1.6501 27.55 1.8501 27.35 1.8501 27.05V23.4H3.9001C3.9001 23.55 3.9001 30.65 3.9001 30.25H1.8501V29.5C1.8501 29.2 1.6501 29 1.3501 29C1.0501 29 0.850098 29.2 0.850098 29.5V30.75C0.850098 31.05 1.0501 31.25 1.3501 31.25Z" fill="black"/>
<path d="M19.6501 0.75H13.4501C12.3501 0.75 11.4501 1.65 11.4501 2.75V3.85H7.3501C5.8001 3.85 4.6001 5.1 4.6001 6.6V8.9C4.6001 10.1 5.3501 11.1 6.4001 11.5V19C6.4001 19.3 6.6001 19.5 6.9001 19.5C7.2001 19.5 7.4001 19.3 7.4001 19V11.8C9.3501 12.25 11.8001 12.6 14.1001 12.75V14.5C14.1001 15 14.5001 15.45 15.0501 15.45H18.0501C18.5501 15.45 19.0001 15.05 19.0001 14.5V12.7C21.0001 12.55 23.4001 12.25 25.7001 11.75V19.8C25.7001 20.1 25.9001 20.3 26.2001 20.3C26.5001 20.3 26.7001 20.1 26.7001 19.8V11.45C27.7501 11.05 28.5001 10.05 28.5001 8.85V6.6C28.5001 5.05 27.2501 3.85 25.7501 3.85H21.6501V2.75C21.6501 1.65 20.7501 0.75 19.6501 0.75ZM12.4501 2.75C12.4501 2.2 12.9001 1.75 13.4501 1.75H19.6501C20.2001 1.75 20.6501 2.2 20.6501 2.75V3.85H12.4501V2.75ZM18.0001 14.4H15.1501C15.1501 14.35 15.1501 10.9 15.1501 10.95H18.0001C18.0001 11 18.0001 14.5 18.0001 14.4ZM25.7501 4.85C26.7001 4.85 27.5001 5.65 27.5001 6.6V8.85C27.5001 9.6 27.0501 10.35 26.1001 10.6C23.7001 11.1 21.7501 11.45 19.0001 11.65V10.85C19.0001 10.35 18.6001 9.9 18.0501 9.9H15.0501C14.5501 9.9 14.1001 10.3 14.1001 10.85V11.7C11.3001 11.55 8.4501 11.05 6.9001 10.65C6.1501 10.45 5.6001 9.75 5.6001 8.95V6.65C5.6001 5.7 6.4001 4.9 7.3501 4.9C21.2501 4.85 16.8501 4.85 25.7501 4.85Z" stroke="black" stroke-width="0.7" mask="url(#path-1-outside-1_2193_1564)"/>
<path d="M30.9501 21.1C30.6501 20.6 30.0501 20.2 29.4001 20.1C28.9501 20.05 28.4501 20.1 28.0001 20.4C27.6001 20.65 26.7001 21.55 24.7501 22.45C24.5001 22.55 24.4001 22.85 24.5001 23.1C24.6001 23.35 24.9001 23.45 25.1501 23.35C27.1001 22.5 28.3309 21.3644 28.5501 21.2C28.7501 21.05 29.0501 21 29.3001 21.05C29.4001 21.1 29.3001 21.05 29.9501 21.4C30.2001 21.65 30.2501 22.15 29.8501 22.55C27.2501 25 24.8501 27.6 22.7501 28.95C21.3001 29.9 18.6001 30.2 17.6501 30.15C16.1501 30.1 15.4501 29.65 15.0001 29.45C12.3001 28.05 8.7501 27.5 6.0001 29.05C5.7501 29.2 5.6501 29.5 5.8001 29.75C5.9501 30 6.2501 30.1 6.5001 29.95C8.9001 28.6 12.1001 29.15 14.6001 30.4C15.8501 31.05 16.9501 31.2 17.7001 31.2C18.7001 31.2 21.4001 31 22.9001 30.1C24.9001 28.9 28.6001 25.3 30.7001 23.15C31.1501 22.7 31.3501 21.8 30.9501 21.1Z" stroke="black" stroke-width="0.7" mask="url(#path-1-outside-1_2193_1564)"/>
<path d="M1.3501 31.25H4.4001C4.7001 31.25 4.9001 31.05 4.9001 30.75C4.9001 30.1 4.9001 33.05 4.9001 24.55C4.9501 24.55 5.0001 24.5 5.0501 24.5C6.4501 23.5 6.6001 23.05 6.7001 22.95C6.9001 22.65 7.1501 22.2 7.5501 21.95C8.0001 21.65 8.4001 21.45 9.1001 21.35C12.0501 20.85 14.6501 22.35 16.8001 23.15C22.1501 25 22.7001 24.3 23.4501 25.1C23.7001 25.45 23.8001 26 23.4501 26.25C21.6501 26.85 17.8501 26.45 15.8001 25.9C15.5501 25.85 15.2501 26 15.2001 26.25C15.1501 26.5 15.3001 26.8 15.5501 26.85C19.3001 27.85 23.1001 27.5 23.8001 27.15C24.6501 26.8 25.1001 25.5 24.2501 24.45C23.2001 23.1 22.4001 24.2 17.3501 22.25C14.3501 21.1 12.1001 19.8 8.9001 20.35C8.4001 20.45 7.9501 20.6 7.4001 20.9C6.9001 21.15 6.3001 21.7 5.9501 22.35C5.7001 22.7 5.5001 22.95 4.9501 23.35V22.9C4.9501 22.6 4.7501 22.4 4.4501 22.4H1.3501C1.0501 22.4 0.850098 22.6 0.850098 22.9V27.05C0.850098 27.35 1.0501 27.55 1.3501 27.55C1.6501 27.55 1.8501 27.35 1.8501 27.05V23.4H3.9001C3.9001 23.55 3.9001 30.65 3.9001 30.25H1.8501V29.5C1.8501 29.2 1.6501 29 1.3501 29C1.0501 29 0.850098 29.2 0.850098 29.5V30.75C0.850098 31.05 1.0501 31.25 1.3501 31.25Z" stroke="black" stroke-width="0.7" mask="url(#path-1-outside-1_2193_1564)"/>
</svg>
