<svg width="17" height="17" viewBox="0 0 17 17" fill="none" xmlns="http://www.w3.org/2000/svg">
<g clip-path="url(#clip0_1010_57325)">
<path d="M16.8511 4.94357L12.2469 0.162377C12.0967 0.00660969 11.8665 -0.0422866 11.6661 0.0383857C11.465 0.119836 11.3332 0.314643 11.3332 0.531369V2.83351H11.1562C7.34823 2.83351 4.25 5.93174 4.25 9.73968V10.8022C4.25 11.0486 4.42354 11.254 4.66361 11.3101C4.70265 11.3199 4.74156 11.3242 4.78047 11.3242C4.98098 11.3242 5.17293 11.2066 5.26567 11.0217C6.26162 9.0292 8.26403 7.79175 10.4917 7.79175H11.3332V10.0938C11.3332 10.3106 11.465 10.5054 11.6661 10.5861C11.8652 10.6675 12.0967 10.618 12.2469 10.4621L16.8511 5.68091C17.0494 5.47482 17.0494 5.15044 16.8511 4.94357Z" fill="black"/>
<path d="M14.8748 17.0004H2.12498C0.953412 17.0004 0 16.0471 0 14.8754V4.95896C0 3.7874 0.953412 2.83398 2.12498 2.83398H4.24995C4.64164 2.83398 4.95823 3.15058 4.95823 3.54227C4.95823 3.93396 4.64164 4.25055 4.24995 4.25055H2.12498C1.73394 4.25055 1.41656 4.56792 1.41656 4.95896V14.8754C1.41656 15.2665 1.73394 15.5838 2.12498 15.5838H14.8748C15.2657 15.5838 15.5831 15.2665 15.5831 14.8754V9.20891C15.5831 8.81722 15.8997 8.5005 16.2914 8.5005C16.6832 8.5005 16.9998 8.81722 16.9998 9.20891V14.8754C16.9998 16.0471 16.0464 17.0004 14.8748 17.0004Z" fill="black"/>
</g>
<defs>
<clipPath id="clip0_1010_57325">
<rect width="17" height="17" fill="white"/>
</clipPath>
</defs>
</svg>
