<svg width="27" height="27" viewBox="0 0 27 27" fill="none" xmlns="http://www.w3.org/2000/svg">
<g clip-path="url(#clip0_1010_85693)">
<path d="M21.8353 7.89213L17.3777 7.24439L15.3842 3.20521C14.6146 1.64544 12.3881 1.64486 11.618 3.20516L9.62454 7.24439L5.16696 7.89213C3.44571 8.14219 2.75727 10.2594 4.00317 11.474L7.22871 14.6181L6.46728 19.0576C6.17323 20.7718 7.9739 22.0809 9.51421 21.2714L13.5011 19.1752L17.4882 21.2714C19.0303 22.082 20.8284 20.7679 20.5349 19.0576L19.7735 14.6181L22.9991 11.474C24.2445 10.2598 23.5572 8.14235 21.8353 7.89213Z" fill="black"/>
<path d="M7.1068 2.48717L6.03044 1.00576C5.73824 0.603712 5.17541 0.514538 4.77336 0.806739C4.37126 1.09889 4.28214 1.66172 4.57429 2.06382L5.65065 3.54523C5.94301 3.94749 6.50589 4.03634 6.90773 3.74425C7.30983 3.45215 7.39895 2.88927 7.1068 2.48717Z" fill="black"/>
<path d="M3.53302 15.7628C3.37941 15.2901 2.87179 15.0312 2.39897 15.185L0.622089 15.7624C0.149379 15.9159 -0.109283 16.4237 0.0442791 16.8964C0.198158 17.37 0.706832 17.6276 1.17833 17.4742L2.95526 16.8968C3.42797 16.7433 3.68664 16.2356 3.53302 15.7628Z" fill="black"/>
<path d="M22.2281 0.806754C21.826 0.514553 21.2632 0.603674 20.971 1.00577L19.8946 2.48718C19.6024 2.88928 19.6916 3.45217 20.0937 3.74426C20.496 4.03652 21.0587 3.94719 21.3508 3.54524L22.4271 2.06383C22.7193 1.66173 22.6302 1.0989 22.2281 0.806754Z" fill="black"/>
<path d="M26.3772 15.7624L24.6002 15.185C24.1275 15.0311 23.6198 15.2901 23.4662 15.7628C23.3126 16.2355 23.5712 16.7433 24.044 16.8969L25.8209 17.4743C26.2927 17.6277 26.8011 17.3698 26.955 16.8965C27.1085 16.4238 26.8499 15.916 26.3772 15.7624Z" fill="black"/>
<path d="M13.5015 22.7402C13.0045 22.7402 12.6016 23.1432 12.6016 23.6402V25.4668C12.6016 25.9638 13.0045 26.3668 13.5015 26.3668C13.9985 26.3668 14.4015 25.9638 14.4015 25.4668V23.6402C14.4015 23.1432 13.9986 22.7402 13.5015 22.7402Z" fill="black"/>
</g>
<defs>
<clipPath id="clip0_1010_85693">
<rect width="27" height="27" fill="white"/>
</clipPath>
</defs>
</svg>
