<svg width="52" height="52" viewBox="0 0 52 52" fill="none" xmlns="http://www.w3.org/2000/svg">
<g clip-path="url(#clip0_1010_19607)">
<path d="M38.051 20.1247L45.8852 23.0023L39.3699 40.7414C38.7603 42.4098 35.4539 47.6306 33.1514 48.6954L32.5925 50.2196C32.4503 50.6057 32.0845 50.8475 31.6963 50.8475C31.5866 50.8475 31.4769 50.8272 31.3671 50.7886C30.8733 50.6057 30.6172 50.059 30.8001 49.5612L31.3285 48.1203C30.16 45.8504 31.0318 39.2579 31.5439 37.8638L38.051 20.1247ZM49.3887 1.35527C47.2346 0.566779 44.7126 2.19661 43.9912 4.16581L39.2724 17.0215L47.1045 19.8951L51.8172 7.04138C52.4106 5.43187 51.5469 2.1458 49.3887 1.35527ZM35.2141 19.4602C35.4336 19.5415 35.6591 19.5801 35.8786 19.5801C36.6549 19.5801 37.3845 19.1045 37.671 18.3323L42.6499 4.9035C43.0177 3.91382 42.5117 2.8144 41.522 2.4486C40.5242 2.08687 39.4329 2.58679 39.0651 3.57647L34.0862 17.0053C33.7184 17.995 34.2244 19.0944 35.2141 19.4602ZM27.1991 44.6412C26.6849 44.1555 26.0448 43.5499 25.0084 43.0886C24.1548 42.7086 23.3237 42.6903 22.716 42.6761C22.653 42.6761 22.5799 42.674 22.5067 42.672C22.1267 41.6315 21.3565 40.9771 20.2002 40.7211C18.6699 40.398 17.4486 41.1194 16.6011 41.6762C16.6763 41.2494 16.8003 40.7414 16.8917 40.3756C17.1844 39.1969 17.4851 37.9776 17.2616 36.8355C17.0848 35.9332 16.3227 35.2626 15.4042 35.1975C13.0366 35.0655 11.102 36.3396 9.39698 37.4919C7.6066 38.7011 6.45841 39.4225 5.31631 39.014C3.92222 38.5182 3.782 34.7444 4.45263 31.3831C5.05213 28.3551 6.16781 22.7178 9.02711 20.1572C9.99038 19.2956 11.3845 18.3628 12.5306 18.816C13.878 19.3443 14.9916 21.5635 15.2396 24.2074C15.3432 25.3231 16.3166 26.1421 17.4526 26.0404C18.5703 25.9368 19.3913 24.9451 19.2857 23.8274C18.8833 19.5191 16.8633 16.1497 14.0162 15.03C12.3112 14.3675 9.6002 14.1886 6.31412 17.1292C2.73948 20.33 1.41855 25.758 0.46138 30.5926C-0.0182202 33.0068 -1.18674 41.0178 3.95067 42.8447C7.08026 43.9604 9.62255 42.2391 11.6649 40.8613C12.0388 40.6093 12.4067 40.3614 12.7643 40.1399C12.425 41.6132 12.2136 43.1902 13.1037 44.5193C14.4307 46.5149 16.3065 46.7323 18.676 45.1716C18.7675 45.1127 18.8731 45.0436 18.9727 44.9745C19.1922 45.4338 19.5803 45.9398 20.2855 46.2852C21.139 46.7039 21.9926 46.7242 22.6144 46.7405C22.8806 46.7466 23.2444 46.7547 23.3541 46.8035C23.7362 46.9721 23.9618 47.1794 24.4007 47.594C24.7299 47.9049 25.0775 48.228 25.5184 48.5613C25.8842 48.8357 26.311 48.9657 26.7337 48.9657C27.3515 48.9657 27.9632 48.6832 28.3615 48.1528C29.0342 47.2546 28.8513 45.9804 27.953 45.3078C27.6583 45.0801 27.4246 44.8546 27.1991 44.6412Z" fill="#030104"/>
</g>
<defs>
<clipPath id="clip0_1010_19607">
<rect width="52" height="52" fill="white"/>
</clipPath>
</defs>
</svg>
