<svg version="1.2" xmlns="http://www.w3.org/2000/svg" viewBox="0 0 619 428" width="619" height="428"><style>.a{fill:#d9eaff}.b{fill:#031e54}.c{fill:#37474f}.d{fill:#262626}.e{fill:#263238}.f{fill:#fafafa}.g{fill:#93bbe1}.h{opacity:.9;fill:#fff}.i{opacity:.8;fill:#fff}.j{mix-blend-mode:lighten;fill:#fff}.k{opacity:.1;fill:#031e54}.l{opacity:.7;fill:#fff}.m{opacity:.5;fill:#fff}.n{opacity:.1}.o{opacity:.3;fill:#fff}.p{opacity:.2;fill:#031e54}.q{opacity:.6;fill:#fff}.r{opacity:.2;fill:#fff}.s{mix-blend-mode:multiply;fill:#455a64}.t{fill:#fff}.u{fill:#455a64}.v{opacity:.3}.w{opacity:.1;fill:#fff}.x{opacity:.2}.y{mix-blend-mode:multiply}.z{opacity:.6;fill:#031e54}.A{fill:#ffa8a7}.B{fill:#f28f8f}</style><path class="a" d="m0.6 338.5c0-47.2 38.3-85.6 85.6-85.6h432.8c55.2 0 100 44.8 100 100v71.2h-532.8c-47.3 0-85.6-38.3-85.6-85.6z"/><path class="a" d="m40.8 178.7c0 37.7 30.5 68.2 68.2 68.2h424.2v-46.4c0-49.7-40.2-90-90-90h-334.2c-37.7 0-68.2 30.6-68.2 68.2z"/><path class="b" d="m37.2 307.6l301.5 116.6c16 6.2 39.8 2.5 53.1-8.3l173.6-140c13.3-10.7 11.2-24.5-4.8-30.7l-301.5-116.6c-16-6.2-39.8-2.5-53.1 8.3l-173.6 140c-13.3 10.8-11.1 24.5 4.8 30.7z"/><path class="a" d="m414.1 354.9c30.8 0 55.8-14.4 55.8-32.2 0-17.8-25-32.2-55.8-32.2-30.8 0-55.8 14.4-55.8 32.2 0 17.8 25 32.2 55.8 32.2z"/><path class="a" d="m485.2 325.8l13.2-7.6q0.4-0.1 0.6-0.4 0.2-0.4 0.2-0.8 0-0.4-0.2-0.7-0.2-0.4-0.6-0.5l-43.3-25c-0.6-0.3-1.4-0.5-2.1-0.5-0.7 0-1.4 0.2-2.1 0.5l-13.1 7.6q-0.4 0.1-0.7 0.4-0.2 0.4-0.2 0.8 0 0.4 0.2 0.7 0.3 0.4 0.7 0.5l43.2 25q1 0.5 2.1 0.5 1.1 0 2.1-0.5z"/><path class="a" d="m196.6 340.7l-118.4-68.4c-4.5-2.6-4.5-6.9 0-9.5l179.7-103.7c1.1-0.6 2.2-0.9 3.4-0.9 1.2 0 2.3 0.3 3.4 0.9l125.6 72.5q0.2 0 0.3 0.2 0.1 0.1 0.1 0.3 0 0.2-0.1 0.4-0.1 0.1-0.3 0.2l-187 108c-1.1 0.5-2.2 0.8-3.4 0.8-1.1 0-2.3-0.3-3.3-0.8z"/><path class="c" d="m92.4 267.5c0.1 1.5 0.6 3 1.4 4.3 0.8 1.3 1.9 2.4 3.2 3.3l99.3 57.3c1.5 0.7 3 1.1 4.6 1.1 1.6 0 3.2-0.4 4.6-1.1l175-101c1.3-0.7 2.5-1.8 3.3-3.1 0.8-1.4 1.2-2.9 1.2-4.4 0-1.6-0.4-3.1-1.2-4.5-0.8-1.3-2-2.4-3.3-3.1l-99.4-57.4c-1.4-0.7-3-1.1-4.5-1.1-1.6 0-3.2 0.4-4.6 1.1l-175 101c-1.3 0.8-2.4 1.9-3.2 3.2-0.8 1.4-1.3 2.8-1.4 4.4z"/><path class="d" d="m97 265.2l99.3 57.3c1.5 0.8 3 1.1 4.6 1.1 1.6 0 3.2-0.3 4.6-1.1l175-101c2.5-1.4 2.5-3.8 0-5.2l-99.4-57.4c-1.4-0.7-3-1.1-4.5-1.1-1.6 0-3.2 0.4-4.6 1.1l-175 101c-2.5 1.5-2.5 3.8 0 5.3z"/><path class="e" d="m200.9 323.6v9.9c-1.6 0.1-3.2-0.3-4.6-1.1l-99.3-57.3c-1.3-0.7-2.5-1.8-3.3-3.1-0.8-1.3-1.2-2.7-1.3-4.2 0-1.5 0.3-3 1.1-4.4 0.7-1.3 1.7-2.4 3-3.2-2 1.5-1.9 3.6 0.5 5l99.3 57.4c1.5 0.7 3 1.1 4.6 1z"/><path class="c" d="m88.1 260.1c-2.3-1.4-2.2-3.7-2.2-6.6v-137.2c0.1-1.6 0.6-3.2 1.3-4.5 0.8-1.4 1.9-2.6 3.3-3.5l174.9-101c1.4-0.7 2.9-1.1 4.4-1.1 1.6 0 3.1 0.3 4.5 1 2.3 1.3 2.2 3.7 2.2 6.6v137.2c-0.1 1.6-0.5 3.1-1.3 4.5-0.8 1.4-1.9 2.5-3.3 3.4l-174.9 101c-1.4 0.7-2.9 1.1-4.4 1.1-1.5 0.1-3.1-0.3-4.5-0.9z"/><path class="b" d="m276.5 13.8c0-2.9-2-4.1-4.6-2.7l-174.9 101c-1.4 0.9-2.5 2.1-3.2 3.4l-6.5-3.7c0.8-1.4 1.9-2.6 3.2-3.5l175-101c1.3-0.7 2.8-1.1 4.4-1.1 1.5 0 3 0.3 4.4 1 2.3 1.3 2.2 3.7 2.2 6.6z"/><path class="e" d="m96.4 260.2c-1.3 0.6-2.7 0.9-4.1 0.8-1.4 0-2.9-0.3-4.2-0.9-2.3-1.4-2.2-3.7-2.2-6.6v-137.2c0.1-1.6 0.6-3.2 1.4-4.5l6.5 3.7c-0.8 1.4-1.3 2.9-1.3 4.5v137.3c-0.1 2.7 1.7 3.9 3.9 2.9z"/><path class="f" d="m99.4 117.4l168.7-97.4c1.5-0.8 2.8-0.1 2.8 1.6v119.8c-0.1 1-0.4 1.9-0.8 2.7-0.5 0.8-1.2 1.5-2 2.1l-168.7 97.3c-1.5 0.9-2.7 0.2-2.7-1.6v-119.8c0.1-0.9 0.3-1.8 0.8-2.7 0.5-0.8 1.1-1.5 1.9-2z"/><path class="e" d="m109.6 260.2l162.4-93.8c0.7-0.3 1.5-0.5 2.3-0.5 0.8 0 1.6 0.2 2.3 0.5l2.7 1.5q0.4 0.1 0.7 0.5 0.2 0.4 0.2 0.8 0 0.5-0.2 0.8-0.3 0.4-0.7 0.5l-162.4 93.8q-1.1 0.5-2.3 0.5-1.2 0-2.3-0.5l-2.7-1.5q-0.4-0.1-0.7-0.5-0.2-0.4-0.2-0.8 0-0.5 0.2-0.8 0.3-0.4 0.7-0.5z"/><path class="e" d="m122.4 267.8l162.3-93.8q1-0.6 2.1-0.6 1.1-0.1 2.1 0.4l42.3 24.4c1 0.6 0.8 1.7-0.4 2.4l-162.2 93.6q-1 0.5-2.1 0.6-1.1 0.1-2.1-0.4l-42.4-24.2c-1.1-0.6-0.9-1.7 0.4-2.4z"/><path fill-rule="evenodd" d="m262.7 213.5q-0.2 0-0.4-0.1l-4.9-2.8c-0.2-0.1-0.2-0.3 0.1-0.5l5-2.9q0.2-0.1 0.4-0.1 0.2 0 0.4 0.1l4.8 2.8c0.3 0.1 0.3 0.3 0 0.4l-5 3q-0.2 0.1-0.4 0.1zm-6.7-10.4q0.2 0 0.4 0.1l4.9 2.8c0.2 0.1 0.2 0.3-0.1 0.4l-5 3q-0.2 0.1-0.4 0.1-0.2 0-0.4-0.1l-4.8-2.8c-0.3-0.1-0.3-0.3 0-0.5l5-2.9q0.2-0.1 0.4-0.1zm-16.4 9.5q0.2 0 0.4 0l4.8 2.9c0.2 0.1 0.2 0.3 0 0.4l-8.6 5q-0.2 0.1-0.4 0.1-0.2 0-0.3-0.1l-4.9-2.8c-0.2-0.1-0.2-0.3 0-0.4l8.6-5q0.2-0.1 0.4-0.1zm8.6-5.1q0.2-0.1 0.4-0.1 0.2 0 0.4 0.1l4.8 2.8c0.2 0.1 0.2 0.3 0 0.4l-5.1 3q-0.2 0.1-0.4 0.1-0.2 0-0.3-0.1l-4.9-2.8c-0.2-0.2-0.2-0.3 0-0.5l5.1-2.9zm-19.5 11.4q0.2 0 0.3 0.1l4.9 2.8c0.2 0.1 0.2 0.3 0 0.5l-5.1 2.9q-0.2 0.1-0.4 0.1-0.2 0-0.3-0.1l-4.9-2.8c-0.2-0.1-0.2-0.3 0-0.5l5.1-2.9q0.2-0.1 0.4-0.1zm-7.9 4.4q0.2-0.1 0.4-0.1 0.3 0 0.4 0.1l4.9 2.8c0.2 0.1 0.2 0.3 0 0.4l-5.1 3q-0.2 0.1-0.4 0.1-0.2 0-0.4-0.1l-4.8-2.8c-0.3-0.1-0.2-0.3 0-0.5l5.1-2.9zm19 11.5q-0.1 0.1-0.3 0.1-0.2 0-0.4-0.1l-4.8-2.8c-0.3-0.1-0.2-0.3 0-0.4l5.1-3q0.1 0 0.3 0 0.2 0 0.4 0l4.8 2.8c0.3 0.1 0.2 0.3 0 0.4l-5.1 3zm-7.4 4.3q-0.1 0-0.3 0-0.2 0-0.4 0l-4.8-2.8c-0.3-0.2-0.2-0.4 0-0.5l5.1-2.9q0.1-0.1 0.3-0.1 0.2 0 0.4 0.1l4.9 2.8c0.2 0.1 0.1 0.3-0.1 0.4l-5.1 3zm-7.4 4.2q-0.2 0.1-0.3 0.1-0.2 0-0.4-0.1l-4.9-2.8c-0.2-0.1-0.2-0.3 0-0.4l5.1-2.9q0.2-0.1 0.4-0.1 0.2 0 0.4 0.1l4.8 2.8c0.2 0.1 0.2 0.3 0 0.4l-5.1 2.9zm-7.8 4.4q-0.2 0-0.4-0.1l-4.8-2.8c-0.3-0.1-0.2-0.3 0-0.4l5.1-2.9q0.1-0.1 0.3-0.1 0.2 0 0.4 0.1l4.9 2.8c0.2 0.1 0.2 0.3 0 0.4l-5.1 2.9q-0.2 0.1-0.4 0.1zm38.4-30.1q-0.2 0.1-0.4 0.1-0.2 0-0.3-0.1l-4.9-2.8c-0.2-0.1-0.2-0.3 0-0.4l5.1-2.9q0.2-0.1 0.3-0.1 0.2 0 0.4 0.1l4.9 2.8c0.2 0.1 0.2 0.3 0 0.4l-5.1 2.9zm-8.9 12.9l-4.9-2.8c-0.2-0.1-0.2-0.3 0-0.4l4.7-2.7c0.2-0.2 0.2-0.4 0-0.5l-6.3-3.6c-0.2-0.1-0.2-0.3 0-0.4l5.9-3.5q0.2 0 0.4 0 0.2 0 0.4 0l11.7 6.9c0.2 0.1 0.2 0.3 0 0.4l-11.4 6.6q-0.2 0.1-0.5 0zm-33-3q0.2 0 0.4 0.1l4.9 2.8c0.2 0.1 0.1 0.3-0.1 0.4l-5.1 3q-0.1 0.1-0.3 0.1-0.2 0-0.4-0.1l-4.9-2.8c-0.2-0.2-0.2-0.3 0-0.5l5.2-2.9q0.1-0.1 0.3-0.1zm-7.8 4.4q0.2-0.1 0.4-0.1 0.2 0 0.4 0.1l4.8 2.8c0.3 0.1 0.2 0.3 0 0.5l-5.1 2.9q-0.1 0.1-0.3 0.1-0.2 0-0.4-0.1l-4.9-2.8c-0.2-0.1-0.2-0.3 0-0.4l5.1-3zm-46 43.1c-0.2-0.1-0.2-0.3 0-0.4l5.1-3q0.2-0.1 0.4-0.1 0.2 0 0.4 0.1l4.8 2.8c0.3 0.1 0.2 0.3 0 0.5l-5.1 2.9q-0.1 0.1-0.3 0.1-0.2 0-0.4-0.1zm-13.5-8.7q0.2-0.1 0.4-0.1 0.2 0 0.4 0l4.8 2.9c0.3 0.1 0.3 0.3 0 0.4l-5 3q-0.2 0.1-0.4 0.1-0.2 0-0.4-0.1l-4.8-2.8c-0.3-0.1-0.3-0.3 0-0.4l5-3zm4.6 5.8c-0.2-0.1-0.2-0.3 0-0.4l5.1-2.9q0.2-0.1 0.4-0.1 0.2 0 0.4 0.1l4.8 2.8c0.2 0.1 0.2 0.3 0 0.4l-5.1 3q-0.2 0.1-0.4 0.1-0.2 0-0.3-0.1zm25.3 7.4q-0.2 0.1-0.4 0.1-0.2 0-0.4-0.1l-4.8-2.8c-0.2-0.1-0.2-0.3 0-0.4l5.1-3q0.2 0 0.3 0 0.2 0 0.4 0l4.9 2.9c0.2 0.1 0.2 0.3 0 0.4l-5.1 2.9zm-13 1.5c-0.2-0.1-0.2-0.3 0-0.4l5.1-3q0.2 0 0.4 0 0.2 0 0.3 0l4.9 2.9c0.2 0.1 0.2 0.3-0.1 0.4l-5 2.9q-0.2 0.1-0.4 0.1-0.2 0-0.4-0.1zm-9.5-19q0.2 0 0.4 0 0.2 0 0.4 0l4.8 2.9c0.3 0.1 0.2 0.3 0 0.4l-5.1 2.9q-0.1 0.1-0.3 0.1-0.2 0-0.4-0.1l-4.9-2.8c-0.2-0.1-0.2-0.3 0-0.4l5.1-3zm37.2-21.4q0.1-0.1 0.3-0.1 0.2 0 0.4 0.1l4.8 2.8c0.3 0.1 0.3 0.3 0 0.4l-5 3q-0.2 0.1-0.4 0.1-0.2 0-0.4-0.1l-4.8-2.8c-0.2-0.2-0.2-0.3 0-0.5l5.1-2.9zm-29.4 17.1q0.2 0 0.4 0.1l4.9 2.8c0.2 0.1 0.2 0.3 0 0.4l-5.1 2.9q-0.2 0.1-0.4 0.1-0.2 0-0.4-0.1l-4.8-2.8c-0.3-0.1-0.2-0.3 0-0.4l5.1-2.9q0.1-0.1 0.3-0.1zm36.8-21.4q0.2-0.1 0.4-0.1 0.2 0 0.4 0.1l4.8 2.8c0.2 0.1 0.2 0.3 0 0.4l-5.1 3q-0.2 0.1-0.4 0.1-0.2 0-0.3-0.1l-4.9-2.8c-0.2-0.1-0.2-0.3 0-0.4l5.1-3zm-14.8 8.6q0.1-0.1 0.3-0.1 0.2 0 0.4 0.1l4.8 2.8c0.3 0.1 0.2 0.3 0 0.5l-5.1 2.9q-0.1 0.1-0.3 0.1-0.2 0-0.4-0.1l-4.9-2.8c-0.2-0.1-0.1-0.3 0.1-0.4l5.1-3zm-7.1 4.2q0.2 0 0.4 0.1l4.9 2.8c0.2 0.1 0.2 0.3 0 0.4l-5.1 3q-0.2 0.1-0.4 0.1-0.2 0-0.3-0.1l-4.9-2.8c-0.3-0.1-0.2-0.3 0-0.4l5.1-3q0.1-0.1 0.3-0.1zm-7.8 4.4q0.2-0.1 0.4-0.1 0.2 0 0.4 0.1l4.8 2.8c0.3 0.1 0.2 0.3 0 0.4l-5.1 3q-0.1 0.1-0.3 0.1-0.2 0-0.4-0.1l-4.9-2.8c-0.2-0.1-0.2-0.3 0-0.5l5.1-2.9zm67.8-1c0.3 0.1 0.3 0.3 0 0.4l-41.8 24.1q-0.2 0.1-0.4 0.1-0.2 0-0.3-0.1l-4.9-2.8c-0.2-0.1-0.2-0.3 0-0.4l41.8-24.2q0.2-0.1 0.4-0.1 0.2 0 0.4 0.1zm35.4-58.5q0.2-0.1 0.4-0.1 0.2 0 0.4 0l4.8 2.9c0.2 0.1 0.2 0.3 0 0.4l-5.1 2.9q-0.1 0.1-0.3 0.1-0.2 0-0.4-0.1l-4.9-2.8c-0.2-0.1-0.2-0.3 0-0.4l5.1-2.9zm-9 5.1q0.2 0 0.4 0 0.2 0 0.4 0l4.9 2.9c0.2 0.1 0.2 0.3 0 0.4l-5.1 2.9q-0.2 0.1-0.4 0.1-0.2 0-0.3-0.1l-4.9-2.8c-0.2-0.1-0.2-0.3 0-0.4l5.1-3zm16.4-9.4q0.2-0.1 0.4-0.1 0.2-0.1 0.4 0l4.8 2.9c0.3 0.1 0.2 0.3 0 0.4l-5.1 3q-0.1 0.1-0.3 0.1-0.2 0-0.4-0.1l-4.8-2.9c-0.3-0.1-0.2-0.3 0-0.4l5.1-2.9zm-41.5 38.3q-0.2 0-0.4-0.1l-4.8-2.8c-0.2-0.1-0.2-0.3 0-0.5l5.1-2.9q0.2-0.1 0.4-0.1 0.2 0 0.3 0.1l4.9 2.8c0.2 0.1 0.2 0.3 0 0.4l-5.1 3q-0.2 0.1-0.4 0.1zm54.4-39.8c0.3 0.1 0.3 0.3 0 0.4l-5 3q-0.2 0.1-0.4 0.1-0.2 0-0.4-0.1l-4.8-2.8c-0.2-0.2-0.2-0.3 0-0.5l5.1-2.9q0.2-0.1 0.4-0.1 0.2 0 0.3 0.1zm-82.3 64q-0.2 0.1-0.4 0.1-0.2 0-0.4-0.1l-4.8-2.8c-0.2-0.1-0.2-0.3 0-0.4l5.1-3q0.2-0.1 0.4-0.1 0.2 0 0.3 0.1l4.9 2.8c0.2 0.2 0.2 0.3 0 0.5l-5.1 2.9zm90.8-52.5q-0.2 0-0.4-0.1l-4.9-2.8c-0.2-0.1-0.2-0.3 0-0.4l5.1-3q0.2-0.1 0.4-0.1 0.2 0 0.4 0.1l4.8 2.8c0.2 0.1 0.2 0.3 0 0.4l-5.1 3q-0.1 0.1-0.3 0.1zm-14 0.2q-0.2 0.1-0.4 0.1-0.2 0-0.4-0.1l-4.9-2.8c-0.2-0.2-0.2-0.3 0.1-0.5l5-2.9q0.2-0.1 0.4-0.1 0.2 0 0.4 0.1l4.8 2.8c0.3 0.1 0.2 0.3 0 0.4l-5.1 3zm12.6-7.7c0.2 0.1 0.2 0.3 0 0.4l-5.1 2.9q-0.1 0.1-0.3 0.1-0.2 0-0.4-0.1l-4.9-2.8c-0.2-0.1-0.2-0.3 0-0.4l5.1-2.9q0.2-0.1 0.4-0.1 0.2 0 0.3 0.1zm-3.3-3.8c-0.2-0.1-0.1-0.3 0-0.4l5.1-2.9q0.2-0.1 0.4-0.1 0.2 0 0.4 0.1l11.8 6.8c0.2 0.1 0.2 0.3 0 0.4l-5.1 3q-0.2 0.1-0.4 0.1-0.2 0-0.4-0.1l-11.8-6.9zm-17.1 9.6q0.1-0.1 0.3-0.1 0.2 0 0.4 0l4.9 2.8c0.2 0.1 0.2 0.3 0 0.5l-5.1 2.9q-0.2 0.1-0.4 0.1-0.2 0-0.4-0.1l-4.8-2.8c-0.3-0.1-0.2-0.3 0-0.4l5.1-2.9zm-55.6 32.2q0.2 0 0.3 0l4.9 2.8c0.2 0.2 0.2 0.4 0 0.5l-5.1 2.9q-0.2 0.1-0.4 0.1-0.2 0-0.3-0.1l-4.9-2.8c-0.2-0.1-0.2-0.3 0-0.4l5.1-3q0.2 0 0.4 0zm64.8-29.2c-0.2-0.1-0.2-0.3 0-0.4l5.1-2.9q0.1-0.1 0.3-0.1 0.2 0 0.4 0.1l4.9 2.8c0.2 0.1 0.2 0.3 0 0.4l-5.1 2.9q-0.2 0.1-0.4 0.1-0.2 0-0.4-0.1zm-57.7 25q0.1-0.1 0.3-0.1 0.2 0 0.4 0l4.8 2.8c0.3 0.1 0.2 0.3 0 0.5l-5.1 2.9q-0.1 0.1-0.3 0.1-0.2 0-0.4-0.1l-4.9-2.8c-0.2-0.1-0.1-0.3 0.1-0.4l5-2.9zm-63 44.8c-0.3-0.1-0.3-0.3 0-0.4l5-3q0.2 0 0.4 0 0.2 0 0.4 0l4.8 2.9c0.2 0.1 0.2 0.3 0 0.4l-5.1 2.9q-0.1 0.1-0.3 0.1-0.2 0-0.4-0.1zm-3.8-6.2q0.1-0.1 0.3-0.1 0.2 0 0.4 0.1l4.9 2.8c0.2 0.1 0.2 0.3 0 0.4l-5.1 3q-0.2 0.1-0.4 0.1-0.2 0-0.3-0.1l-4.9-2.8c-0.2-0.1-0.2-0.3 0-0.4l5.1-3zm16.8 4.8q-0.2 0-0.4 0-0.2 0-0.3 0l-4.9-2.9c-0.2-0.1-0.2-0.3 0-0.4l5.1-2.9q0.2-0.1 0.4-0.1 0.2 0 0.3 0.1l4.9 2.8c0.2 0.1 0.2 0.3 0 0.4l-5.1 3zm7.4-4.3q-0.1 0.1-0.3 0.1-0.2 0-0.4-0.1l-4.9-2.8c-0.2-0.1-0.2-0.3 0-0.4l5.2-3q0.1-0.1 0.3-0.1 0.2 0 0.4 0.1l4.8 2.8c0.3 0.1 0.2 0.3 0 0.4l-5.1 3zm7.4-4.3q-0.1 0.1-0.3 0.1-0.2 0-0.4-0.1l-4.9-2.8c-0.2-0.1-0.1-0.3 0.1-0.5l5.1-2.9q0.1-0.1 0.3-0.1 0.2 0 0.4 0.1l4.9 2.8c0.2 0.1 0.2 0.3 0 0.4l-5.1 3zm-24.2-0.5q0.1-0.1 0.3-0.1 0.2 0 0.4 0.1l4.9 2.8c0.2 0.1 0.2 0.3 0 0.5l-5.1 2.9q-0.2 0.1-0.4 0.1-0.2 0-0.4-0.1l-4.8-2.8c-0.3-0.1-0.2-0.3 0-0.4l5.1-3zm7.4-4.3q0.2-0.1 0.4-0.1 0.2 0 0.4 0.1l4.8 2.8c0.2 0.2 0.2 0.3 0 0.5l-5.1 2.9q-0.1 0.1-0.3 0.1-0.2 0-0.4-0.1l-4.9-2.8c-0.2-0.1-0.2-0.3 0-0.4l5.1-3zm30.1-17.2q0.2 0 0.4 0.1l4.8 2.8c0.3 0.1 0.2 0.3 0 0.4l-5.1 3q-0.1 0.1-0.3 0.1-0.2 0-0.4-0.1l-4.9-2.8c-0.2-0.1-0.2-0.3 0-0.4l5.1-3q0.2-0.1 0.4-0.1zm-7.8 4.4q0.2-0.1 0.4-0.1 0.2 0 0.3 0.1l4.9 2.8c0.2 0.1 0.2 0.3 0 0.4l-5.1 3q-0.2 0.1-0.4 0.1-0.1 0-0.3-0.1l-4.9-2.8c-0.2-0.1-0.2-0.3 0-0.5l5.1-2.9zm14.9-8.6q0.1 0 0.3 0 0.2 0 0.4 0.1l4.9 2.8c0.2 0.1 0.2 0.3 0 0.4l-5.1 2.9q-0.2 0.1-0.4 0.1-0.2 0-0.3-0.1l-4.9-2.8c-0.3-0.1-0.2-0.3 0-0.4l5.1-2.9zm-29.8 17.1q0.2 0 0.4 0 0.2 0 0.4 0.1l4.8 2.8c0.3 0.1 0.3 0.3 0 0.4l-5 2.9q-0.2 0.1-0.4 0.1-0.2 0-0.4-0.1l-4.8-2.8c-0.3-0.1-0.3-0.3 0-0.4l5-2.9zm7.5-4.3q0.2-0.1 0.4-0.1 0.2 0 0.3 0.1l4.9 2.8c0.2 0.1 0.2 0.3 0 0.4l-5.1 2.9q-0.2 0.1-0.4 0.1-0.2 0-0.3-0.1l-4.9-2.8c-0.2-0.1-0.2-0.3 0-0.4l5.1-2.9zm-9.5 28q-0.2 0.1-0.4 0.1-0.2 0-0.3-0.1l-4.9-2.8c-0.2-0.1-0.2-0.3 0-0.4l5.1-3q0.2-0.1 0.3-0.1 0.2 0 0.4 0.1l4.9 2.8c0.2 0.1 0.2 0.3 0 0.5l-5.1 2.9zm-39.2-1.8c0.2 0.1 0.2 0.3 0 0.4l-5.1 2.9q-0.2 0.1-0.4 0.1-0.2 0-0.4-0.1l-4.8-2.8c-0.2-0.1-0.2-0.3 0-0.4l5.1-2.9q0.2-0.1 0.4-0.1 0.2 0 0.3 0.1l4.9 2.8zm9.7 2.4c0.2 0.1 0.2 0.3 0 0.5l-7.8 4.5q-0.2 0.1-0.4 0.1-0.2 0-0.4-0.1l-4.8-2.8c-0.3-0.1-0.3-0.3 0-0.4l7.8-4.5q0.2-0.1 0.4-0.1 0.2 0 0.3 0.1l4.9 2.8zm-17-8c0.2 0.1 0.2 0.3 0 0.4l-6.3 3.6q-0.1 0.1-0.3 0.1-0.2 0-0.4-0.1l-4.9-2.8c-0.2-0.1-0.1-0.3 0.1-0.4l6.2-3.6q0.2-0.1 0.4-0.1 0.2 0 0.4 0.1l4.8 2.8zm0.1-5.6c-0.3-0.1-0.2-0.3 0-0.4l5.1-3q0.1 0 0.3 0 0.2 0 0.4 0l4.8 2.9c0.2 0.1 0.2 0.3 0 0.4l-5.1 3q-0.2 0-0.4 0-0.2 0-0.4 0zm25.8 16.9l-9.8 5.6q-0.1 0.1-0.3 0.1-0.2 0-0.4-0.1l-4.9-2.8c-0.2-0.1-0.1-0.3 0.1-0.4l9.8-5.6q0.1-0.1 0.3-0.1 0.2 0 0.4 0.1l4.9 2.8c0.2 0 0.1 0.2-0.1 0.4zm3.5 6l-6.3 3.6q-0.1 0.1-0.3 0.1-0.2 0-0.4-0.1l-4.9-2.8c-0.2-0.1-0.2-0.3 0-0.4l6.3-3.6q0.2-0.1 0.4-0.1 0.2 0 0.3 0.1l4.9 2.8c0.2 0.1 0.2 0.3 0 0.4zm25.9-54.8c-0.2-0.1-0.2-0.3 0-0.4l5.1-3q0.2 0 0.4 0 0.2 0 0.3 0l4.9 2.8c0.2 0.1 0.2 0.3 0 0.5l-5.1 2.9q-0.2 0.1-0.4 0.1-0.2 0-0.3-0.1zm-14.9 8.6c-0.2-0.1-0.2-0.3 0-0.4l5.1-3q0.2-0.1 0.4-0.1 0.2 0 0.3 0.1l4.9 2.8c0.2 0.1 0.2 0.3 0 0.4l-5.1 3q-0.2 0.1-0.4 0.1-0.2 0-0.3-0.1zm-33.1 19c-0.2-0.1-0.2-0.3 0-0.4l5.1-3q0.2-0.1 0.4-0.1 0.2 0 0.4 0.1l4.8 2.8c0.3 0.1 0.2 0.3 0 0.5l-5.1 2.9q-0.1 0.1-0.3 0.1-0.2 0-0.4-0.1zm40.4-23.3c-0.2-0.1-0.2-0.3 0-0.4l5.1-3q0.2-0.1 0.4-0.1 0.2 0 0.3 0.1l4.9 2.8c0.2 0.1 0.2 0.3 0 0.4l-5.1 3q-0.2 0.1-0.4 0.1-0.2 0-0.3-0.1zm-14.9 8.6c-0.2-0.1-0.2-0.3 0-0.5l5.1-2.9q0.2-0.1 0.4-0.1 0.2 0 0.4 0.1l4.8 2.8c0.2 0.1 0.2 0.3 0 0.4l-5.1 3q-0.2 0.1-0.4 0.1-0.2 0-0.3-0.1zm4.8 44.6c0.3 0.1 0.2 0.3 0 0.4l-7.8 4.5q-0.2 0.1-0.4 0.1-0.1 0-0.3-0.1l-4.9-2.8c-0.2-0.1-0.2-0.3 0-0.4l7.8-4.5q0.2-0.1 0.4-0.1 0.2 0 0.4 0.1zm-15.6-38.5c-0.2-0.1-0.2-0.3 0-0.4l5.1-2.9q0.2-0.1 0.3-0.1 0.2 0 0.4 0.1l4.9 2.8c0.2 0.1 0.2 0.3 0 0.4l-5.1 2.9q-0.2 0.1-0.4 0.1-0.2 0-0.3-0.1zm-7.4 4.4c-0.2-0.2-0.2-0.3 0-0.5l5-2.9q0.2-0.1 0.4-0.1 0.2 0 0.3 0.1l4.9 2.8c0.2 0.1 0.2 0.3 0 0.4l-5.1 2.9q-0.2 0.1-0.3 0.1-0.2 0-0.4-0.1zm160.5-45.3c0.3 0.1 0.3 0.3 0 0.4l-12.5 7.2q-0.1 0.1-0.3 0.1-0.2 0-0.4-0.1l-4.9-2.8c-0.2-0.1-0.2-0.3 0-0.4l12.5-7.2q0.2-0.1 0.4-0.1 0.2 0 0.4 0.1zm-16.5 9.5c0.2 0.1 0.2 0.3 0 0.4l-5.1 2.9q-0.2 0.1-0.3 0.1-0.2 0-0.4-0.1l-4.9-2.8c-0.2-0.1-0.2-0.3 0.1-0.4l5-2.9q0.2-0.1 0.4-0.1 0.2 0 0.4 0.1zm-105.4 53.2q-0.2 0-0.4-0.1l-4.8-2.8c-0.3-0.1-0.3-0.3 0-0.4l5-3q0.2-0.1 0.4-0.1 0.2 0 0.4 0.1l4.8 2.8c0.2 0.1 0.2 0.3 0 0.5l-5.1 2.9q-0.2 0.1-0.3 0.1zm90.6-44.6c0.2 0.1 0.2 0.3 0 0.4l-5.1 2.9q-0.2 0.1-0.4 0.1-0.2 0-0.3-0.1l-4.9-2.8c-0.2-0.1-0.2-0.3 0-0.4l5.1-2.9q0.2-0.1 0.4-0.1 0.2 0 0.3 0.1zm38.8-22.4c0.2 0.1 0.2 0.3 0 0.5l-5.1 2.9q-0.2 0.1-0.4 0.1-0.2 0-0.4-0.1l-4.8-2.8c-0.3-0.1-0.2-0.3 0-0.5l5.1-2.9q0.1-0.1 0.3-0.1 0.2 0 0.4 0.1zm7.4-3.9l-5 3q-0.2 0-0.4 0-0.2 0-0.4 0l-11.8-6.9c-0.2-0.1-0.2-0.3 0-0.4l5.1-2.9q0.2-0.1 0.4-0.1 0.2 0 0.3 0.1l11.8 6.8c0.2 0.1 0.2 0.3 0 0.4zm-73.9 42.3c0.3 0.1 0.2 0.3 0 0.4l-6.2 3.6q-0.2 0.1-0.4 0.1-0.2 0-0.4-0.1l-4.8-2.8c-0.3-0.1-0.2-0.3 0-0.4l6.2-3.6q0.2-0.1 0.4-0.1 0.2 0 0.4 0.1zm18.8-10.9c0.2 0.1 0.2 0.3-0.1 0.4l-7.8 4.6q-0.2 0.1-0.4 0.1-0.1 0-0.3-0.1l-4.9-2.8c-0.2-0.2-0.2-0.4 0-0.5l7.8-4.5q0.2-0.1 0.4-0.1 0.2 0 0.4 0.1zm-69.9 24.7q-0.2 0.1-0.4 0.1-0.2 0-0.4-0.1l-4.8-2.8c-0.2-0.1-0.2-0.3 0-0.4l5.1-2.9q0.2-0.1 0.4-0.1 0.2 0 0.3 0.1l4.9 2.8c0.2 0.1 0.2 0.3 0 0.4l-5.1 2.9zm-10.3 21.6c0.2 0.2 0.2 0.3 0 0.5l-6.3 3.6q-0.1 0.1-0.3 0.1-0.2 0-0.4-0.1l-4.9-2.8c-0.2-0.1-0.2-0.3 0-0.4l6.3-3.7q0.2-0.1 0.3-0.1 0.2 0 0.4 0.1zm52.7-30.6c0.3 0.1 0.2 0.3 0 0.5l-6.2 3.6q-0.2 0.1-0.4 0.1-0.2 0-0.4-0.1l-4.8-2.8c-0.2-0.1-0.2-0.3 0-0.5l6.3-3.6q0.2-0.1 0.3-0.1 0.2 0 0.4 0.1zm-61.3 35.6c0.2 0.1 0.2 0.3 0 0.4l-6.3 3.6q-0.2 0.1-0.4 0.1-0.2 0-0.3-0.1l-4.9-2.8c-0.2-0.1-0.2-0.3 0-0.4l6.2-3.7q0.2-0.1 0.4-0.1 0.2 0 0.4 0.1zm78.5-45.5c0.3 0.1 0.3 0.3 0 0.4l-6.2 3.6q-0.2 0.1-0.4 0.1-0.2 0-0.4-0.1l-4.8-2.8c-0.2-0.1-0.2-0.3 0-0.4l6.3-3.6q0.2-0.1 0.3-0.1 0.2 0 0.4 0.1zm26.7-15.4c0.2 0.1 0.2 0.3 0 0.4l-5.1 3q-0.2 0.1-0.4 0.1-0.2 0-0.4-0.1l-4.8-2.8c-0.3-0.1-0.2-0.3 0-0.4l5.1-3q0.1-0.1 0.3-0.1 0.2 0 0.4 0.1zm11.5-14.3q-0.2 0-0.4 0l-4.8-2.8c-0.3-0.2-0.2-0.4 0-0.5l5-2.9q0.2-0.1 0.4-0.1 0.2 0 0.3 0.1l4.9 2.8c0.2 0.1 0.2 0.3 0 0.4l-5.1 3q-0.2 0-0.3 0zm-30 1.4q-0.2 0.1-0.4 0.1-0.2 0-0.3-0.1l-4.9-2.8c-0.2-0.1-0.2-0.3 0-0.4l5.1-2.9q0.2-0.1 0.4-0.1 0.2 0 0.3 0.1l4.9 2.8c0.2 0.1 0.2 0.3 0 0.4l-5.1 2.9zm-19.8 27.5q-0.1 0.1-0.3 0.1-0.2 0-0.4-0.1l-4.9-2.8c-0.2-0.1-0.2-0.3 0-0.4l14.9-8.6q0.2-0.1 0.4-0.1 0.2 0 0.3 0.1l4.9 2.8c0.2 0.1 0.2 0.3 0 0.4l-14.9 8.6zm37.1-27.4c-0.3-0.1-0.2-0.3 0-0.4l5.1-2.9q0.1-0.1 0.3-0.1 0.2 0 0.4 0.1l4.9 2.8c0.2 0.1 0.2 0.3 0 0.4l-5.1 2.9q-0.2 0.1-0.4 0.1-0.2 0-0.4-0.1zm-1.3-1.2q-0.2 0.1-0.4 0-0.2 0-0.3 0l-4.9-2.9c-0.2-0.1-0.2-0.3 0-0.4l5.1-2.8q0.1-0.1 0.3-0.1 0.2 0 0.4 0.1l4.9 2.8c0.2 0.1 0.2 0.3 0 0.4l-5.1 2.9zm-43.5 33.1q-0.2 0-0.3-0.1l-4.9-2.8c-0.2-0.1-0.2-0.3 0-0.4l5.1-3q0.2-0.1 0.4-0.1 0.2 0 0.3 0.1l4.8 2.8c0.2 0.1 0.2 0.3 0 0.4l-5.1 2.9q-0.1 0.1-0.3 0.2zm28.3-22.4c-0.2-0.1-0.2-0.3 0.1-0.4l5-2.9q0.2-0.1 0.4-0.1 0.2 0 0.4 0.1l4.8 2.8c0.3 0.1 0.3 0.3 0 0.4l-5 3q-0.2 0-0.4 0-0.2 0-0.4 0zm-65.1 43.6q-0.2 0.1-0.4 0.1-0.2 0-0.4-0.1l-4.9-2.8c-0.2-0.1-0.1-0.3 0.1-0.4l5.1-3q0.1 0 0.3 0 0.2 0 0.4 0l4.9 2.8c0.2 0.2 0.2 0.3 0 0.5l-5.1 2.9zm7.4-4.3q-0.2 0.1-0.4 0.1-0.2 0-0.4-0.1l-4.8-2.8c-0.3-0.1-0.2-0.3 0-0.4l5.1-3q0.1 0 0.3 0 0.2 0 0.4 0l4.9 2.9c0.2 0.1 0.2 0.3 0 0.4l-5.1 2.9zm-14.9 8.6q-0.2 0.1-0.4 0.1-0.2 0-0.4-0.1l-4.8-2.8c-0.3-0.1-0.2-0.3 0-0.4l5.1-3q0.1-0.1 0.3-0.1 0.2 0 0.4 0.1l4.9 2.8c0.2 0.1 0.2 0.3 0 0.5l-5.1 2.9zm29.7-17.2q-0.2 0.1-0.4 0.1-0.2 0-0.3-0.1l-4.9-2.8c-0.2-0.1-0.2-0.3 0-0.4l5.1-2.9q0.2-0.1 0.3-0.1 0.2 0 0.4 0.1l4.9 2.8c0.2 0.1 0.2 0.3-0.1 0.4l-5 2.9zm-7.8 4.4q-0.2 0-0.4-0.1l-4.9-2.8c-0.2-0.1-0.2-0.3 0.1-0.4l5-2.9q0.2-0.1 0.4-0.1 0.2 0 0.4 0.1l4.8 2.7c0.2 0.1 0.2 0.3 0 0.5l-5.1 2.9q-0.1 0.1-0.3 0.1zm15.2-8.7q-0.2 0.1-0.4 0.1-0.1 0-0.3-0.1l-4.9-2.8c-0.2-0.1-0.2-0.3 0-0.4l5.1-3q0.2 0 0.4 0 0.2 0 0.3 0l4.9 2.9c0.2 0.1 0.2 0.3 0 0.4l-5.1 2.9zm39.3-60.4c-0.3-0.2-0.2-0.3 0-0.5l5.1-2.9q0.1-0.1 0.3-0.1 0.2 0 0.4 0.1l1.3 0.7c0.2 0.2 0.2 0.3 0 0.5l-5.1 2.9q-0.2 0.1-0.4 0.1-0.2 0-0.4-0.1zm-40.5 21.4c-0.2-0.1-0.2-0.3 0-0.4l5.1-3q0.2-0.1 0.4-0.1 0.2 0 0.4 0.1l4.8 2.8c0.2 0.1 0.2 0.3 0 0.4l-5.1 2.9q-0.2 0.1-0.4 0.1-0.2 0-0.3-0.1zm14.7-8.6c-0.2-0.1-0.1-0.3 0.1-0.4l5.1-3q0.1 0 0.3 0 0.2 0 0.4 0l4.9 2.8c0.2 0.2 0.2 0.3 0 0.5l-5.1 2.9q-0.2 0.1-0.4 0.1-0.2 0-0.4-0.1zm-23.8 13.8c-0.2-0.1-0.2-0.3 0-0.4l5.1-2.9q0.2-0.1 0.4-0.1 0.1 0 0.3 0.1l4.9 2.8c0.2 0.1 0.2 0.3-0.1 0.4l-5 2.9q-0.2 0.1-0.4 0.1-0.2 0-0.4-0.1zm16.4-9.5c-0.2-0.1-0.1-0.3 0.1-0.4l5.1-3q0.1 0 0.3 0 0.2 0 0.4 0l4.9 2.8c0.2 0.2 0.2 0.3 0 0.5l-5.1 2.9q-0.2 0.1-0.4 0.1-0.2 0-0.4-0.1zm-31.3 18.2c-0.2-0.1-0.2-0.3 0-0.5l5.1-2.9q0.2-0.1 0.4-0.1 0.2 0 0.3 0.1l4.9 2.8c0.2 0.1 0.2 0.3 0 0.4l-5.1 3q-0.1 0.1-0.3 0.1-0.2 0-0.4-0.1zm7.5-4.3c-0.3-0.1-0.3-0.3 0-0.4l5-3q0.2-0.1 0.4-0.1 0.2 0 0.4 0.1l4.9 2.8c0.1 0.1 0.1 0.3-0.1 0.4l-5.1 3q-0.1 0.1-0.3 0.1-0.2 0-0.4-0.1zm42-22.3c-0.1-0.1-0.1-0.3 0.1-0.4l5.1-2.9q0.2-0.1 0.3-0.1 0.2 0 0.4 0.1l1.3 0.7c0.2 0.1 0.2 0.3 0 0.4l-5.1 3q-0.1 0.1-0.3 0.1-0.2 0-0.4-0.1zm22.4-12.9c-0.3-0.1-0.3-0.3 0-0.4l5-3q0.2-0.1 0.4-0.1 0.2 0 0.4 0.1l1.3 0.8c0.2 0.1 0.2 0.3-0.1 0.4l-5 2.9q-0.2 0.1-0.4 0.1-0.2 0-0.4-0.1zm6.6 3.8c-0.2-0.1-0.1-0.3 0.1-0.4l5-2.9q0.2-0.1 0.4-0.1 0.2 0 0.4 0.1l4.9 2.8c0.1 0.1 0.1 0.3-0.1 0.5l-5.1 2.9q-0.1 0.1-0.3 0.1-0.2 0-0.4-0.1zm18.7 19.2q-0.2 0-0.4-0.1l-4.9-2.8c-0.2-0.1-0.2-0.3 0-0.4l5.1-3q0.2-0.1 0.4-0.1 0.2 0 0.4 0.1l4.8 2.8c0.3 0.1 0.2 0.3 0 0.5l-5.1 2.9q-0.1 0.1-0.3 0.1zm-40.2-14.5c-0.2-0.1-0.2-0.3 0-0.4l5.1-2.9q0.2-0.1 0.4-0.1 0.2 0 0.3 0.1l1.3 0.7c0.3 0.1 0.2 0.3 0 0.4l-5.1 3q-0.1 0.1-0.3 0.1-0.2 0-0.4-0.1zm-64.5 35.1c-0.2-0.1-0.2-0.3 0-0.4l5.1-3q0.2 0 0.4 0 0.2 0 0.4 0l4.9 2.9c0.2 0.1 0.2 0.3 0 0.4l-5.1 2.9q-0.2 0.1-0.4 0.1-0.2 0-0.4-0.1z"/><path class="c" d="m230.1 265.2l1.1 0.6 27.7 16 49.2-28.4 1-0.6-28.7-16.6z"/><path class="e" d="m231.2 265.8l27.7 16 49.2-28.4-27.7-16z"/><path class="g" d="m116.6 129.6c1-0.6 2.1-1 3.2-1.1 0.9-0.1 1.8 0.1 2.6 0.5 0.7 0.4 1.2 1 1.6 1.8 0.4 0.7 0.6 1.6 0.7 2.4q0 0.4-0.2 0.8-0.1 0.3-0.4 0.5l-3.6 2.1q-0.3 0.2-0.6 0.2-0.3-0.1-0.5-0.3l-0.3-0.2q-0.2-0.3-0.5-0.4-0.4-0.1-0.8 0-0.7 0.1-1.2 0.4-0.5 0.3-1 0.7-0.5 0.4-0.9 0.9-0.3 0.4-0.6 1-0.2 0.5-0.2 1.1c0 0.4 0.1 0.7 0.3 1q0.1 0.1 0.4 0.2 0.2 0 0.4 0 0.9 0 1.7-0.2l2.5-0.7q1.3-0.4 2.6-0.3c0.7 0 1.4 0.3 1.9 0.7 0.6 0.5 1 1.2 1.1 1.9q0.5 1.6 0.4 3.2 0 2.2-0.6 4.2-0.7 2.1-1.8 3.9-1.1 1.9-2.7 3.4-1.5 1.5-3.4 2.6c-1 0.7-2.2 1.1-3.4 1.2-0.9 0.1-1.8 0-2.6-0.5-0.8-0.4-1.4-1-1.8-1.8-0.4-0.8-0.6-1.8-0.6-2.7q0-0.4 0.2-0.8 0.1-0.3 0.4-0.5l3.6-2.1q0.2-0.2 0.6-0.2 0.2 0 0.4 0.2l0.3 0.4q0.3 0.2 0.6 0.4 0.5 0.2 0.9 0.2 0.8-0.1 1.4-0.5 1.4-0.8 2.5-1.9c0.6-0.6 1-1.5 1-2.3q0-0.3-0.1-0.5-0.1-0.2-0.3-0.4-0.5-0.2-1.1-0.2-0.9 0.1-1.8 0.4-1.1 0.3-2.6 0.7-2.8 0.7-4.1-0.8-1.3-1.4-1.3-5 0-1.9 0.5-3.8 0.5-2 1.5-3.7 1-1.9 2.5-3.5 1.4-1.5 3.2-2.6z"/><path class="g" d="m140.7 116q0.1-0.1 0.2-0.1 0.2 0 0.3 0.1 0.1 0.1 0.2 0.3 0 0.2 0 0.4v4.4q0 0.5-0.2 1-0.2 0.4-0.5 0.6l-4.8 2.8v21.7q0 0.5-0.3 0.9-0.1 0.4-0.5 0.6l-3.6 2.1q-0.1 0.1-0.2 0.1-0.2 0-0.3-0.1-0.1-0.1-0.2-0.3 0-0.2 0-0.4v-21.6l-4.9 2.8q-0.1 0.1-0.2 0.1-0.2 0-0.3-0.1-0.1-0.2-0.2-0.4 0-0.1 0-0.3v-4.5q0-0.5 0.2-0.9 0.2-0.4 0.5-0.7z"/><path fill-rule="evenodd" class="g" d="m151 110q0.6-0.3 0.8 0 0.3 0.3 0.4 0.7l6 23.2q0.1 0.3 0.2 0.5 0 0.4-0.2 0.8-0.2 0.3-0.5 0.5l-3.4 2q-0.6 0.3-0.8 0.1-0.2-0.2-0.3-0.5l-0.8-3.1-7.3 4.2-0.7 4q-0.1 0.4-0.3 0.9-0.3 0.5-0.8 0.8l-3.4 2q-0.1 0.1-0.3 0.1-0.1 0-0.2-0.1-0.1-0.1-0.1-0.3-0.1-0.1-0.1-0.3 0.1-0.3 0.2-0.7l6-30.1q0.1-0.6 0.3-1.1 0.3-0.6 0.9-1zm-4.5 21l4.5-2.5-2.2-8.8z"/><path fill-rule="evenodd" class="g" d="m167.8 100.4q1.5-1 3.2-1.3c0.9-0.2 1.7-0.1 2.5 0.4 0.7 0.5 1.3 1.2 1.5 2.1q0.6 1.9 0.5 4c0.1 1.9-0.2 3.9-0.8 5.7-0.5 1.7-1.4 3.3-2.4 4.6l3.4 8.1q0.1 0.2 0.1 0.4 0 0.4-0.2 0.8-0.1 0.3-0.5 0.5l-3.7 2.2q-0.5 0.3-0.8 0-0.2-0.2-0.3-0.5l-3-7.3-2.6 1.5v9q0 0.5-0.2 0.9-0.1 0.4-0.5 0.6l-3.6 2.1q-0.1 0.1-0.3 0.1-0.1 0-0.2-0.1-0.1-0.1-0.2-0.3 0-0.2 0-0.4v-27.3q0-0.4 0.2-0.9 0.2-0.4 0.5-0.6zm-3.1 14.6l3.1-1.8c0.8-0.5 1.4-1.1 1.9-1.8 0.6-0.9 0.8-1.9 0.8-2.9q0-1.7-0.8-2-0.5-0.1-1 0-0.5 0.1-0.9 0.4l-3.1 1.8z"/><path class="g" d="m191.8 86.5q0.1-0.1 0.2-0.1 0.2 0 0.3 0.1 0.1 0.2 0.2 0.3 0 0.2 0 0.4v4.5q0 0.5-0.2 0.9-0.2 0.4-0.5 0.6l-4.9 2.8v21.7q0 0.5-0.2 0.9-0.2 0.4-0.5 0.7l-3.6 2.1q-0.1 0-0.3 0-0.1 0-0.2 0-0.2-0.2-0.2-0.4-0.1-0.1-0.1-0.3v-21.7l-4.8 2.8q-0.1 0.1-0.2 0.1-0.2 0-0.3-0.1-0.1-0.1-0.2-0.3 0-0.2 0-0.4v-4.5q0-0.5 0.2-0.9 0.2-0.4 0.5-0.6z"/><path class="g" d="m125.2 167.2q0.1-0.1 0.3-0.1 0.1 0 0.2 0.1 0.2 0.1 0.2 0.3 0.1 0.1 0 0.3v16.9q0.1 2.8-0.6 5.5-0.5 2.5-1.7 4.7-1 2.1-2.6 3.9-1.5 1.6-3.4 2.7c-1 0.7-2.2 1.1-3.4 1.2-0.9 0.1-1.9-0.2-2.6-0.8-0.9-0.7-1.4-1.7-1.7-2.8q-0.7-2.3-0.6-4.8v-16.8q0-0.5 0.2-0.9 0.1-0.4 0.5-0.7l3.6-2q0.1-0.1 0.3-0.1 0.1 0 0.2 0.1 0.1 0.1 0.2 0.3 0.1 0.2 0 0.3v16.7c-0.1 1.3 0.2 2.5 0.8 3.5q0.9 1 2.5 0c1.1-0.6 2-1.6 2.5-2.8 0.5-1.4 0.8-2.9 0.8-4.4v-16.7q0-0.5 0.2-0.9 0.2-0.4 0.5-0.7z"/><path fill-rule="evenodd" class="g" d="m137.5 160.1c0.9-0.6 2-1 3.1-1.2 0.9-0.2 1.7 0 2.4 0.5 0.8 0.5 1.3 1.3 1.5 2.2q0.6 1.9 0.6 4 0 2.3-0.6 4.6-0.5 2.1-1.5 4c-1.3 2.4-3.2 4.4-5.5 5.7l-3.5 2v8.7q0 0.5-0.3 0.9-0.1 0.4-0.5 0.6l-3.6 2.1q-0.1 0.1-0.2 0.1-0.2 0-0.3-0.1-0.1-0.1-0.2-0.3 0-0.2 0-0.4v-27.3q0-0.5 0.2-0.9 0.2-0.4 0.5-0.6zm-3.5 15.2l3.4-1.9c0.8-0.5 1.5-1.1 1.9-1.9 0.6-0.9 0.8-2 0.8-3q0-1.8-0.8-2.1-0.4-0.2-1-0.1-0.5 0.1-0.9 0.4l-3.3 2z"/><path class="b" d="m230.2 260c23.1 0 41.8-7.7 41.8-17.2 0-9.4-18.7-17.1-41.8-17.1-23.2 0-41.9 7.7-41.9 17.1 0 9.5 18.7 17.2 41.9 17.2z"/><path class="b" d="m230.2 260c23.1 0 41.8-7.7 41.8-17.2 0-9.4-18.7-17.1-41.8-17.1-23.2 0-41.9 7.7-41.9 17.1 0 9.5 18.7 17.2 41.9 17.2z"/><path class="h" d="m233.6 261.4c25 0 45.3-8.3 45.3-18.6 0-10.2-20.3-18.5-45.3-18.5-25 0-45.3 8.3-45.3 18.5 0 10.3 20.3 18.6 45.3 18.6z"/><path class="b" d="m187.5 234c0.1-4.9 2.1-9.5 5.6-12.9 3.5-3.4 8.2-5.3 13-5.3 4.9 0 9.5 1.9 13 5.3 3.5 3.4 5.5 8 5.6 12.9q0 0.2 0 0.5 0 0.2 0 0.5c-0.2 2.6-2 5.1-5.4 7.1-7.3 4.2-19 4.2-26.4 0-3.4-2-5.2-4.5-5.4-7.1q0-0.3 0-0.5 0-0.3 0-0.5z"/><path class="i" d="m187.5 234c0.1-4.9 2.1-9.5 5.6-12.9 3.5-3.4 8.2-5.3 13-5.3 4.9 0 9.5 1.9 13 5.3 3.5 3.4 5.5 8 5.6 12.9q0 0.2 0 0.5 0 0.2 0 0.5c-0.2 2.6-2 5.1-5.4 7.1-7.3 4.2-19 4.2-26.4 0-3.4-2-5.2-4.5-5.4-7.1q0-0.3 0-0.5 0-0.3 0-0.5z"/><g style="opacity:.3"><path class="j" d="m198 217.7c2.8-1.3 5.9-2 9-1.8 3.1 0.1 6.1 1.1 8.8 2.7 2.7 1.6 4.9 3.8 6.4 6.5 1.6 2.7 2.4 5.8 2.5 8.9q0 0.2 0 0.5 0 0.2 0 0.5c-0.2 2.6-2 5.1-5.4 7.1-2.9 1.6-6.1 2.6-9.4 2.9 4.9-0.8 8-6.2 6.5-12.2-1.7-6.9-8.7-16.9-18.4-15.1z"/></g><path class="k" d="m187.5 235q0-0.3 0-0.5 0-0.3 0-0.5c0.1-2.6 0.7-5.1 1.8-7.4 1.1-2.3 2.6-4.4 4.5-6.1-2 2.1-6.5 9.9-1.6 15.9 3.2 3.9 18.5 9.5 31 2.3-1.1 1.4-2.5 2.5-4 3.4-7.3 4.2-19 4.2-26.3 0-3.4-2-5.2-4.5-5.4-7.1z"/><g style="opacity:.5"><path class="j" d="m206.3 220.1c-0.8 1.9 0.8 4.4 3.6 5.6 2.8 1.3 5.7 0.7 6.6-1.2 0.8-1.9-0.8-4.4-3.6-5.6-2.8-1.3-5.8-0.7-6.6 1.2z"/></g><g style="opacity:.5"><path class="j" d="m217.1 227.8c-0.1 0.5-0.1 1.1 0.2 1.6 0.2 0.5 0.7 0.9 1.2 1.1 0.5 0.3 1.1 0.3 1.6 0.2 0.6-0.2 1-0.5 1.4-1 0.1-0.5 0-1.1-0.3-1.6-0.2-0.5-0.6-0.9-1.1-1.1-0.6-0.3-1.1-0.3-1.7-0.2-0.5 0.2-1 0.5-1.3 1z"/></g><path class="b" d="m265.3 233.6c-0.1-4.1-1.8-8-4.8-10.9-2.9-2.8-6.9-4.5-11-4.5-4.1 0-8.1 1.7-11 4.5-3 2.9-4.7 6.8-4.8 10.9q0 0.3 0 0.5 0 0.2 0 0.4c0.2 2.2 1.7 4.4 4.6 6 6.2 3.6 16.2 3.6 22.4 0 2.9-1.7 4.4-3.8 4.6-6q0-0.2 0-0.4c0-0.2 0-0.3 0-0.5z"/><path class="i" d="m265.3 233.6c-0.1-4.1-1.8-8-4.8-10.9-2.9-2.8-6.9-4.5-11-4.5-4.1 0-8.1 1.7-11 4.5-3 2.9-4.7 6.8-4.8 10.9q0 0.3 0 0.5 0 0.2 0 0.4c0.2 2.2 1.7 4.4 4.6 6 6.2 3.6 16.2 3.6 22.4 0 2.9-1.7 4.4-3.8 4.6-6q0-0.2 0-0.4c0-0.2 0-0.3 0-0.5z"/><g style="opacity:.3"><path class="j" d="m256.3 219.9c-2.3-1.2-5-1.7-7.6-1.6-2.6 0.1-5.2 0.9-7.4 2.3-2.3 1.4-4.2 3.3-5.5 5.6-1.3 2.2-2 4.8-2.1 7.5q0 0.2 0 0.4 0 0.2 0 0.4c0.2 2.2 1.7 4.4 4.6 6 2.5 1.4 5.2 2.2 8 2.6-4.1-0.8-6.8-5.3-5.5-10.4 1.4-5.8 7.3-14.3 15.5-12.8z"/></g><path class="k" d="m265.3 234.6q0-0.3 0-0.5 0-0.2 0-0.4c-0.1-2.2-0.6-4.3-1.5-6.3-0.9-2-2.2-3.7-3.9-5.1 1.7 1.7 5.6 8.4 1.4 13.5-2.7 3.3-15.7 8-26.3 2 0.9 1.1 2 2.1 3.3 2.8 6.2 3.6 16.2 3.6 22.4 0 2.9-1.7 4.4-3.8 4.6-6z"/><g style="opacity:.5"><path class="j" d="m249.3 221.9c0.7 1.6-0.7 3.7-3 4.8-2.4 1-4.9 0.6-5.6-1-0.7-1.6 0.6-3.8 3-4.8 2.3-1.1 4.9-0.6 5.6 1z"/></g><g style="opacity:.5"><path class="j" d="m240.2 228.4q0.3 0.6 0.4 1.2 0 0.7-0.4 1.2-0.4 0.6-1 0.8-0.6 0.2-1.3 0-0.6-0.1-1-0.6-0.4-0.6-0.5-1.2 0-0.7 0.3-1.2 0.3-0.6 0.9-0.9c0.5-0.2 1-0.3 1.5-0.1 0.4 0.1 0.8 0.4 1.1 0.8z"/></g><path class="b" d="m280.7 235.5c0-2.8-1.1-5.4-3.1-7.4-1.9-1.9-4.6-3-7.3-3-2.8 0-5.5 1.1-7.4 3-2 2-3.1 4.6-3.1 7.4q0 0.3 0 0.6c0.1 1.4 1.1 2.8 3.1 4 2.3 1.1 4.8 1.7 7.4 1.7 2.5 0 5.1-0.6 7.4-1.7 1.9-1.1 2.9-2.6 3-4q0-0.3 0-0.6z"/><path class="h" d="m280.7 235.5c0-2.8-1.1-5.4-3.1-7.4-1.9-1.9-4.6-3-7.3-3-2.8 0-5.5 1.1-7.4 3-2 2-3.1 4.6-3.1 7.4q0 0.3 0 0.6c0.1 1.4 1.1 2.8 3.1 4 2.3 1.1 4.8 1.7 7.4 1.7 2.5 0 5.1-0.6 7.4-1.7 1.9-1.1 2.9-2.6 3-4q0-0.3 0-0.6z"/><g style="opacity:.5"><path class="j" d="m274.8 226.4c-1.6-0.8-3.3-1.1-5.1-1.1-1.7 0.1-3.4 0.6-4.9 1.5-1.5 0.9-2.7 2.2-3.6 3.7-0.9 1.5-1.4 3.3-1.4 5q0 0.3 0 0.6c0.1 1.4 1.1 2.8 3 4 1.7 0.9 3.4 1.4 5.3 1.6-2.7-0.5-4.5-3.5-3.6-6.8 0.9-3.9 4.9-9.5 10.3-8.5z"/></g><path class="k" d="m280.7 236.1q0-0.3 0-0.6c0-1.4-0.4-2.8-1-4.1-0.6-1.3-1.5-2.5-2.5-3.5 1.1 1.2 3.6 5.6 0.9 9-1.8 2.2-10.4 5.3-17.4 1.3q0.9 1.1 2.2 1.9c2.3 1.1 4.8 1.7 7.4 1.7 2.5 0 5.1-0.6 7.4-1.7 1.9-1.2 2.9-2.6 3-4z"/><g style="opacity:.5"><path class="j" d="m270.1 227.7c0.5 1-0.4 2.4-2 3.1-1.5 0.7-3.2 0.4-3.7-0.6-0.4-1.1 0.5-2.5 2-3.2 1.6-0.7 3.3-0.3 3.7 0.7z"/></g><g style="opacity:.5"><path class="j" d="m264.1 232c0.1 0.3 0.1 0.7-0.1 1-0.1 0.3-0.4 0.5-0.7 0.6q-0.3 0-0.6-0.1-0.3-0.1-0.5-0.3-0.2-0.3-0.2-0.6-0.1-0.3 0.1-0.6 0.1-0.3 0.4-0.5 0.3-0.2 0.6-0.1 0.3 0 0.6 0.1 0.3 0.2 0.4 0.5z"/></g><path class="b" d="m303 240c-0.1-3.7-1.7-7.2-4.3-9.8-2.7-2.5-6.2-4-9.9-4-3.7 0-7.3 1.5-9.9 4-2.7 2.6-4.2 6.1-4.3 9.8q0 0.2 0 0.4 0 0.2 0 0.4c0.1 2 1.5 3.9 4.1 5.4 5.6 3.2 14.6 3.2 20.1 0 2.6-1.5 4-3.4 4.2-5.4q0-0.2 0-0.4 0-0.2 0-0.4z"/><path class="l" d="m303 240c-0.1-3.7-1.7-7.2-4.3-9.8-2.7-2.5-6.2-4-9.9-4-3.7 0-7.3 1.5-9.9 4-2.7 2.6-4.2 6.1-4.3 9.8q0 0.2 0 0.4 0 0.2 0 0.4c0.1 2 1.5 3.9 4.1 5.4 5.6 3.2 14.6 3.2 20.1 0 2.6-1.5 4-3.4 4.2-5.4q0-0.2 0-0.4 0-0.2 0-0.4z"/><g style="opacity:.3"><path class="j" d="m294.9 227.7c-2.1-1.1-4.5-1.6-6.8-1.4-2.4 0.1-4.7 0.8-6.7 2-2 1.2-3.7 3-4.9 5-1.2 2.1-1.9 4.4-1.9 6.7q0 0.2 0 0.4 0 0.2 0 0.4c0.1 2 1.5 3.9 4.1 5.4 2.2 1.2 4.7 2 7.1 2.3-3.6-0.7-6-4.8-4.9-9.3 1.3-5.3 6.7-12.9 14-11.5z"/></g><path class="k" d="m303 240.8q0-0.2 0-0.4 0-0.2 0-0.4c-0.1-1.9-0.6-3.8-1.4-5.6-0.8-1.8-2-3.3-3.5-4.6 1.6 1.6 5 7.5 1.3 12.1-2.5 3-14.1 7.3-23.7 1.8 0.8 1 1.9 1.9 3 2.5 5.6 3.2 14.6 3.2 20.1 0 2.6-1.5 4-3.4 4.2-5.4z"/><g style="opacity:.5"><path class="j" d="m288.6 229.4c0.7 1.5-0.6 3.4-2.7 4.4-2.2 0.9-4.4 0.5-5-1-0.6-1.4 0.6-3.3 2.7-4.3 2.1-0.9 4.4-0.5 5 0.9z"/></g><g style="opacity:.5"><path class="j" d="m280.4 235.3q0.3 0.5 0.3 1.1 0 0.6-0.3 1.1-0.3 0.5-0.9 0.7-0.6 0.2-1.1 0-0.6-0.1-1-0.6-0.3-0.5-0.4-1.1 0-0.5 0.3-1.1 0.3-0.5 0.8-0.7c0.4-0.2 0.9-0.3 1.3-0.1 0.4 0.1 0.8 0.3 1 0.7z"/></g><path class="b" d="m247.1 209.2c0 2.5-0.5 4.9-1.5 7.1-1.1 2.3-2.6 4.2-4.5 5.8-1.2 1.1-2.2 2.4-2.9 3.8-0.7 1.5-1 3-1.1 4.6v34.5c0 0.7-0.2 1.2-0.6 1.7-0.3 0.5-0.8 0.9-1.4 1.2q-1.2 0.7-2.5 0.9c-1.6 0.3-3.2 0.3-4.8 0q-1.3-0.2-2.5-0.9-0.9-0.4-1.4-1.2-0.5-0.7-0.6-1.7v-34.5c0-1.6-0.4-3.2-1.1-4.6-0.7-1.5-1.7-2.7-2.9-3.7-1.9-1.6-3.4-3.6-4.5-5.9-1-2.3-1.5-4.7-1.5-7.2 0-2.3 0.4-4.5 1.3-6.5 0.9-2.1 2.1-4 3.7-5.5 1.6-1.6 3.5-2.8 5.5-3.7 2.1-0.8 4.3-1.3 6.6-1.3 2.2 0.1 4.4 0.5 6.5 1.4 2 0.8 3.9 2.1 5.5 3.7 1.5 1.6 2.8 3.4 3.6 5.5 0.9 2.1 1.3 4.3 1.3 6.5z"/><path class="m" d="m247.1 209.2c0 2.5-0.5 4.9-1.5 7.1-1.1 2.3-2.6 4.2-4.5 5.8-1.2 1.1-2.2 2.4-2.9 3.8-0.7 1.5-1 3-1.1 4.6v34.5c0 0.7-0.2 1.2-0.6 1.7-0.3 0.5-0.8 0.9-1.4 1.2q-1.2 0.7-2.5 0.9c-1.6 0.3-3.2 0.3-4.8 0q-1.3-0.2-2.5-0.9-0.9-0.4-1.4-1.2-0.5-0.7-0.6-1.7v-34.5c0-1.6-0.4-3.2-1.1-4.6-0.7-1.5-1.7-2.7-2.9-3.7-1.9-1.6-3.4-3.6-4.5-5.9-1-2.3-1.5-4.7-1.5-7.2 0-2.3 0.4-4.5 1.3-6.5 0.9-2.1 2.1-4 3.7-5.5 1.6-1.6 3.5-2.8 5.5-3.7 2.1-0.8 4.3-1.3 6.6-1.3 2.2 0.1 4.4 0.5 6.5 1.4 2 0.8 3.9 2.1 5.5 3.7 1.5 1.6 2.8 3.4 3.6 5.5 0.9 2.1 1.3 4.3 1.3 6.5z"/><path class="n" d="m247.1 209.2c0 2.5-0.5 4.9-1.5 7.1-1.1 2.3-2.6 4.2-4.5 5.8-1.2 1.1-2.2 2.4-2.9 3.8-0.7 1.5-1 3-1.1 4.6v34.5c0 0.7-0.2 1.2-0.6 1.7-0.3 0.5-0.8 0.9-1.4 1.2q-1.2 0.7-2.5 0.9c-1.6 0.3-3.2 0.3-4.8 0q-1.3-0.2-2.5-0.9-0.9-0.4-1.4-1.2-0.5-0.7-0.6-1.7v-34.5c0-1.6-0.4-3.2-1.1-4.6-0.7-1.5-1.7-2.7-2.9-3.7-1.9-1.6-3.4-3.6-4.5-5.9-1-2.3-1.5-4.7-1.5-7.2 0-2.3 0.4-4.5 1.3-6.5 0.9-2.1 2.1-4 3.7-5.5 1.6-1.6 3.5-2.8 5.5-3.7 2.1-0.8 4.3-1.3 6.6-1.3 2.2 0.1 4.4 0.5 6.5 1.4 2 0.8 3.9 2.1 5.5 3.7 1.5 1.6 2.8 3.4 3.6 5.5 0.9 2.1 1.3 4.3 1.3 6.5z"/><path class="b" d="m239.6 209.2c0 1.5-0.3 3-1 4.4-0.7 1.3-1.7 2.5-3 3.3-0.9 0.8-1.7 1.7-2.3 2.8-0.5 1.1-0.8 2.3-0.8 3.5v42.9c0 0.6-0.2 1.2-0.6 1.7-0.5 0.4-1.1 0.7-1.7 0.7h-0.1c-0.6 0-1.2-0.3-1.6-0.7-0.5-0.5-0.7-1.1-0.7-1.7v-43c0-1.2-0.3-2.4-0.8-3.5-0.6-1.1-1.4-2-2.3-2.7-1.3-0.9-2.3-2.1-3-3.5-0.7-1.4-1.1-3-1-4.5 0-2.5 1-4.9 2.8-6.7 1.8-1.7 4.3-2.7 6.8-2.7 2.5 0.1 4.9 1.1 6.6 2.9 1.8 1.8 2.8 4.2 2.7 6.7z"/><path class="o" d="m239.6 209.2c0 1.5-0.3 3-1 4.4-0.7 1.3-1.7 2.5-3 3.3-0.9 0.8-1.7 1.7-2.3 2.8-0.5 1.1-0.8 2.3-0.8 3.5v42.9c0 0.6-0.2 1.2-0.6 1.7-0.5 0.4-1.1 0.7-1.7 0.7h-0.1c-0.6 0-1.2-0.3-1.6-0.7-0.5-0.5-0.7-1.1-0.7-1.7v-43c0-1.2-0.3-2.4-0.8-3.5-0.6-1.1-1.4-2-2.3-2.7-1.3-0.9-2.3-2.1-3-3.5-0.7-1.4-1.1-3-1-4.5 0-2.5 1-4.9 2.8-6.7 1.8-1.7 4.3-2.7 6.8-2.7 2.5 0.1 4.9 1.1 6.6 2.9 1.8 1.8 2.8 4.2 2.7 6.7z"/><path class="l" d="m238.8 220.9c2 0 3.6-1.6 3.6-3.6 0-2-1.6-3.6-3.6-3.6-2 0-3.6 1.6-3.6 3.6 0 2 1.6 3.6 3.6 3.6z"/><path class="l" d="m237.2 209.4c1.5 0 2.7-1.2 2.7-2.7 0-1.5-1.2-2.7-2.7-2.7-1.4 0-2.7 1.2-2.7 2.7 0 1.5 1.3 2.7 2.7 2.7z"/><path class="l" d="m229.4 202.4q0-0.4 0.2-0.8 0.2-0.3 0.6-0.5 0.4-0.1 0.8-0.1 0.4 0.1 0.7 0.4 0.3 0.3 0.3 0.7 0.1 0.4 0 0.8-0.2 0.3-0.5 0.6-0.4 0.2-0.8 0.2c-0.3 0-0.7-0.1-0.9-0.4-0.3-0.2-0.4-0.6-0.4-0.9z"/><path class="l" d="m218.7 204c0-0.7 0.2-1.4 0.6-2 0.4-0.6 1-1.1 1.7-1.4 0.6-0.2 1.4-0.3 2.1-0.2 0.7 0.2 1.3 0.5 1.8 1.1 0.5 0.5 0.9 1.1 1 1.8 0.1 0.7 0.1 1.5-0.2 2.1-0.3 0.7-0.8 1.3-1.4 1.7-0.6 0.3-1.3 0.6-2 0.6q-0.7-0.1-1.4-0.3-0.7-0.3-1.2-0.8-0.5-0.6-0.8-1.2-0.2-0.7-0.2-1.4z"/><path class="l" d="m218.1 210.5q-0.1 0.4 0.1 0.7 0.1 0.4 0.3 0.6 0.3 0.3 0.6 0.4 0.3 0.2 0.7 0.2 0.3 0 0.7-0.2 0.3-0.1 0.5-0.4 0.3-0.2 0.4-0.6 0.1-0.3 0.1-0.7c-0.1-0.4-0.2-0.8-0.6-1.1-0.3-0.3-0.7-0.4-1.1-0.4-0.5 0-0.9 0.1-1.2 0.4-0.3 0.3-0.5 0.7-0.5 1.1z"/><path class="l" d="m218.3 217.1c0-0.7 0.2-1.3 0.5-1.9 0.4-0.5 0.9-1 1.5-1.2 0.6-0.3 1.3-0.3 2-0.2 0.6 0.1 1.2 0.4 1.7 0.9 0.4 0.5 0.7 1.1 0.9 1.7 0.1 0.6 0 1.3-0.2 1.9-0.3 0.6-0.7 1.1-1.2 1.5-0.6 0.4-1.2 0.6-1.9 0.6-0.9 0-1.7-0.4-2.3-1-0.7-0.6-1-1.5-1-2.3z"/><path class="l" d="m225.6 221.9q0-0.7 0.4-1.3 0.4-0.5 1-0.8 0.6-0.3 1.3-0.1 0.7 0.1 1.2 0.6 0.5 0.5 0.6 1.1 0.1 0.7-0.1 1.4-0.3 0.6-0.9 1-0.5 0.4-1.2 0.4c-0.6 0-1.2-0.3-1.6-0.7-0.5-0.4-0.7-1-0.7-1.6z"/><path class="l" d="m216 207.8c0.6 0 1.2-0.5 1.2-1.1 0-0.7-0.6-1.2-1.2-1.2-0.6 0-1.2 0.5-1.2 1.2 0 0.6 0.6 1.1 1.2 1.1z"/><path class="l" d="m241.7 203.4c0.8 0 1.5-0.7 1.5-1.5 0-0.9-0.7-1.6-1.5-1.6-0.9 0-1.6 0.7-1.6 1.6 0 0.8 0.7 1.5 1.6 1.5z"/><path class="l" d="m241.6 209.4q0.1-0.5 0.3-0.9 0.3-0.4 0.7-0.5 0.4-0.2 0.9-0.1 0.4 0.1 0.8 0.4 0.3 0.3 0.4 0.8 0.1 0.4-0.1 0.9-0.2 0.4-0.6 0.7-0.3 0.2-0.8 0.2c-0.4 0-0.8-0.1-1.1-0.4-0.3-0.3-0.5-0.7-0.5-1.1z"/><path class="l" d="m225.7 210.6q0-0.4 0.2-0.8 0.3-0.4 0.7-0.6 0.5-0.2 0.9-0.1 0.5 0.1 0.8 0.4 0.4 0.4 0.4 0.8 0.1 0.5 0 0.9-0.2 0.5-0.6 0.7-0.4 0.3-0.9 0.3c-0.4 0-0.8-0.2-1.1-0.5-0.3-0.3-0.4-0.6-0.4-1.1z"/><path class="b" d="m319 242.5c0-2.3-0.9-4.5-2.5-6.1-1.7-1.6-3.9-2.5-6.2-2.5-2.3 0-4.5 0.9-6.1 2.5-1.6 1.6-2.5 3.8-2.5 6.1q0 0.1 0 0.2 0 0.2 0 0.3 0.2 1.1 0.8 1.9 0.7 0.9 1.7 1.4c1.9 0.9 4 1.4 6.1 1.4 2.2 0 4.3-0.5 6.2-1.4 0.6-0.3 1.2-0.8 1.6-1.4q0.7-0.8 0.9-1.9z"/><path class="m" d="m319 242.5c0-2.3-0.9-4.5-2.5-6.1-1.7-1.6-3.9-2.5-6.2-2.5-2.3 0-4.5 0.9-6.1 2.5-1.6 1.6-2.5 3.8-2.5 6.1q0 0.1 0 0.2 0 0.2 0 0.3 0.2 1.1 0.8 1.9 0.7 0.9 1.7 1.4c1.9 0.9 4 1.4 6.1 1.4 2.2 0 4.3-0.5 6.2-1.4 0.6-0.3 1.2-0.8 1.6-1.4q0.7-0.8 0.9-1.9z"/><g style="opacity:.5"><path class="j" d="m314.1 234.9c-1.3-0.6-2.7-0.9-4.2-0.8-1.4 0.1-2.8 0.5-4.1 1.2-1.2 0.8-2.2 1.8-3 3.1-0.7 1.2-1.1 2.7-1.1 4.1q0 0.1 0 0.2 0 0.2 0 0.3c0.1 0.7 0.4 1.4 0.8 1.9q0.7 0.9 1.7 1.4c1.4 0.7 2.8 1.2 4.4 1.3-2.3-0.4-3.7-2.9-3-5.6 0.7-3.2 4-7.9 8.5-7.1z"/></g><path class="p" d="m319 243v-0.5c0-1.2-0.3-2.4-0.8-3.4-0.5-1.1-1.3-2.1-2.2-2.9 1 1 3 4.7 0.8 7.4-1.5 1.9-8.6 4.5-14.4 1.1q0.7 1 1.8 1.6c1.9 0.9 4 1.4 6.1 1.4 2.2 0 4.3-0.5 6.2-1.4q1-0.5 1.6-1.4 0.7-0.8 0.9-1.9z"/><g style="opacity:.5"><path class="j" d="m310.3 236c0.4 0.9-0.4 2.1-1.7 2.7-1.3 0.5-2.7 0.3-3-0.6-0.4-0.9 0.3-2 1.6-2.6 1.3-0.6 2.7-0.3 3.1 0.5z"/></g><g style="opacity:.5"><path class="j" d="m305.3 239.6q0.2 0.3 0.2 0.7 0 0.4-0.2 0.6-0.2 0.3-0.6 0.5-0.3 0.1-0.6 0-0.4-0.1-0.6-0.4-0.2-0.3-0.3-0.6 0-0.4 0.2-0.7 0.2-0.3 0.5-0.4 0.2-0.1 0.4-0.2 0.2 0 0.4 0.1 0.2 0 0.3 0.1 0.2 0.2 0.3 0.3z"/></g><path class="b" d="m306 249.6c0-3.1-1.2-6.1-3.5-8.4-2.2-2.2-5.2-3.5-8.4-3.5-3.1 0-6.2 1.3-8.4 3.5-2.2 2.3-3.5 5.3-3.5 8.4q0 0.2 0 0.4 0 0.2 0 0.3c0.1 1.7 1.3 3.3 3.5 4.5 4.6 2.7 12.2 2.7 16.8 0 2.2-1.2 3.4-2.8 3.5-4.5q0-0.2 0-0.3c0-0.1 0-0.3 0-0.4z"/><path class="q" d="m306 249.6c0-3.1-1.2-6.1-3.5-8.4-2.2-2.2-5.2-3.5-8.4-3.5-3.1 0-6.2 1.3-8.4 3.5-2.2 2.3-3.5 5.3-3.5 8.4q0 0.2 0 0.4 0 0.2 0 0.3c0.1 1.7 1.3 3.3 3.5 4.5 4.6 2.7 12.2 2.7 16.8 0 2.2-1.2 3.4-2.8 3.5-4.5q0-0.2 0-0.3c0-0.1 0-0.3 0-0.4z"/><g style="opacity:.5"><path class="j" d="m299.3 239.2c-1.8-0.8-3.8-1.2-5.8-1.1-2 0.1-3.9 0.6-5.6 1.7-1.7 1-3.1 2.5-4.1 4.2-1 1.7-1.5 3.7-1.6 5.7q0 0.1 0 0.3 0 0.2 0 0.3c0.1 1.7 1.3 3.3 3.5 4.6 1.8 1 3.9 1.6 6 1.8-3.1-0.5-5.1-4-4.2-7.8 1.1-4.4 5.6-10.8 11.8-9.7z"/></g><path class="k" d="m306 250.3q0-0.2 0-0.3 0-0.2 0-0.4c0-1.6-0.4-3.2-1.1-4.7-0.7-1.5-1.7-2.8-2.9-3.9 1.3 1.3 4.2 6.4 1 10.2-2 2.5-11.8 6.1-19.8 1.5 0.7 0.9 1.5 1.6 2.5 2.1 4.6 2.7 12.2 2.7 16.8 0 2.2-1.2 3.4-2.9 3.5-4.5z"/><g style="opacity:.3"><path class="j" d="m294 240.7c0.5 1.2-0.5 2.9-2.3 3.6-1.8 0.8-3.7 0.5-4.2-0.7-0.5-1.2 0.5-2.9 2.3-3.7 1.8-0.7 3.7-0.4 4.2 0.8z"/></g><g style="opacity:.3"><path class="j" d="m287.1 245.7q0.1 0.5-0.1 1-0.3 0.5-0.8 0.7-0.5 0.2-1.1 0.1-0.5-0.2-0.8-0.6-0.1-0.6 0.1-1.1 0.3-0.4 0.8-0.7 0.5-0.2 1 0 0.6 0.1 0.9 0.6z"/></g><path class="b" d="m284.9 255.4c-0.1-3.8-1.7-7.5-4.5-10.2-2.7-2.7-6.4-4.2-10.3-4.2-3.8 0-7.5 1.5-10.3 4.2-2.8 2.7-4.4 6.4-4.5 10.2q0 0.2 0 0.4 0 0.3 0 0.5c0.2 2 1.6 4 4.4 5.6 5.7 3.3 15.1 3.3 20.9 0 2.7-1.6 4.1-3.6 4.3-5.6q0-0.3 0-0.5 0-0.2 0-0.4z"/><path class="i" d="m284.9 255.4c-0.1-3.8-1.7-7.5-4.5-10.2-2.7-2.7-6.4-4.2-10.3-4.2-3.8 0-7.5 1.5-10.3 4.2-2.8 2.7-4.4 6.4-4.5 10.2q0 0.2 0 0.4 0 0.3 0 0.5c0.2 2 1.6 4 4.4 5.6 5.7 3.3 15.1 3.3 20.9 0 2.7-1.6 4.1-3.6 4.3-5.6q0-0.3 0-0.5 0-0.2 0-0.4z"/><g style="opacity:.3"><path class="j" d="m276.5 242.5c-2.2-1.1-4.6-1.6-7.1-1.4-2.5 0.1-4.9 0.8-7 2.1-2.1 1.3-3.9 3.1-5.1 5.2-1.2 2.1-1.9 4.6-2 7q0 0.2 0 0.4 0 0.3 0 0.4c0.2 2 1.6 4 4.4 5.7 2.3 1.2 4.8 2 7.4 2.3-3.9-0.7-6.3-5-5.2-9.7 1.4-5.5 7-13.4 14.6-12z"/></g><path class="k" d="m284.9 256.2q0-0.2 0-0.4 0-0.2 0-0.4c-0.1-2-0.5-4-1.4-5.8-0.8-1.9-2.1-3.5-3.6-4.9 1.6 1.7 5.2 7.9 1.3 12.7-2.6 3.1-14.7 7.5-24.7 1.8 0.9 1.1 2 2 3.2 2.7 5.7 3.3 15.1 3.3 20.9 0 2.7-1.6 4.1-3.6 4.3-5.7z"/><g style="opacity:.3"><path class="j" d="m270 244.4c0.6 1.5-0.6 3.5-2.9 4.5-2.2 1-4.6 0.5-5.2-1-0.7-1.6 0.6-3.5 2.8-4.5 2.3-1 4.6-0.5 5.3 1z"/></g><g style="opacity:.3"><path class="j" d="m261.4 250.5c0.1 0.4 0.1 0.9-0.1 1.3-0.2 0.4-0.6 0.8-1 0.9q-0.3 0.2-0.7 0.3-0.3 0-0.7-0.1-0.3-0.1-0.6-0.3-0.3-0.2-0.4-0.6-0.1-0.3-0.1-0.6 0-0.4 0.1-0.7 0.2-0.3 0.5-0.6 0.3-0.2 0.6-0.3c0.4-0.2 0.9-0.2 1.3-0.1 0.5 0.1 0.9 0.4 1.1 0.8z"/></g><path class="b" d="m326.3 244.5c0-1.4-0.6-2.7-1.5-3.7-1-0.9-2.4-1.5-3.7-1.5-1.4 0-2.8 0.6-3.7 1.5-1 1-1.6 2.3-1.6 3.7v0.3q0.1 0.7 0.5 1.2 0.5 0.5 1.1 0.8c1.1 0.6 2.4 0.9 3.7 0.9 1.2 0 2.5-0.3 3.7-0.9q0.6-0.3 1-0.8 0.4-0.5 0.5-1.2z"/><path class="r" d="m326.3 244.5c0-1.4-0.6-2.7-1.5-3.7-1-0.9-2.4-1.5-3.7-1.5-1.4 0-2.8 0.6-3.7 1.5-1 1-1.6 2.3-1.6 3.7v0.3q0.1 0.7 0.5 1.2 0.5 0.5 1.1 0.8c1.1 0.6 2.4 0.9 3.7 0.9 1.2 0 2.5-0.3 3.7-0.9q0.6-0.3 1-0.8 0.4-0.5 0.5-1.2z"/><g style="opacity:.5"><path class="j" d="m323.3 240c-0.7-0.4-1.6-0.6-2.5-0.5-0.8 0-1.7 0.3-2.4 0.7-0.8 0.5-1.4 1.1-1.8 1.8-0.5 0.8-0.7 1.7-0.8 2.5v0.3q0.2 0.7 0.6 1.2 0.4 0.5 1 0.8 1.2 0.7 2.6 0.8-0.5-0.1-1-0.4-0.4-0.4-0.6-0.9-0.3-0.5-0.4-1 0-0.6 0.2-1.1c0.5-1.9 2.4-4.7 5.1-4.2z"/></g><g style="opacity:.1"><path class="s" d="m326.3 244.8v-0.3q0-1.1-0.5-2-0.5-1-1.3-1.8c0.6 0.6 1.8 2.8 0.5 4.5-0.9 1.1-5.2 2.7-8.8 0.7q0.5 0.5 1.2 0.9c1.1 0.6 2.4 0.9 3.7 0.9 1.2 0 2.5-0.3 3.7-0.9q0.6-0.3 1-0.8 0.4-0.5 0.5-1.2z"/></g><g style="opacity:.3"><path class="j" d="m321 240.7c0.3 0.5-0.2 1.2-1 1.6-0.8 0.3-1.6 0.1-1.8-0.4-0.3-0.5 0.2-1.2 1-1.6 0.8-0.3 1.6-0.2 1.8 0.4z"/></g><g style="opacity:.3"><path class="j" d="m318 242.8q0.1 0.2 0 0.5-0.2 0.2-0.4 0.3-0.1 0-0.2 0.1-0.2 0-0.3 0-0.1-0.1-0.2-0.2-0.1 0-0.1-0.2-0.1-0.1-0.1-0.2 0-0.1 0.1-0.2 0-0.2 0.1-0.2 0.1-0.1 0.3-0.1 0.2-0.1 0.4-0.1 0.3 0.1 0.4 0.3z"/></g><path class="b" d="m146.9 238.1c0-2.3 0.9-4.5 2.5-6.1 1.7-1.6 3.9-2.6 6.2-2.6 2.3 0 4.5 1 6.1 2.6 1.6 1.6 2.5 3.8 2.5 6.1q0 0.1 0 0.2 0 0.2 0 0.3-0.2 1.1-0.8 1.9c-0.5 0.6-1.1 1.1-1.7 1.4-1.9 0.9-4 1.4-6.1 1.4-2.2 0-4.3-0.5-6.2-1.4-0.6-0.3-1.2-0.8-1.6-1.4q-0.7-0.8-0.9-1.9 0-0.1 0-0.3 0-0.1 0-0.2z"/><path class="m" d="m146.9 238.1c0-2.3 0.9-4.5 2.5-6.1 1.7-1.6 3.9-2.6 6.2-2.6 2.3 0 4.5 1 6.1 2.6 1.6 1.6 2.5 3.8 2.5 6.1q0 0.1 0 0.2 0 0.2 0 0.3-0.2 1.1-0.8 1.9c-0.5 0.6-1.1 1.1-1.7 1.4-1.9 0.9-4 1.4-6.1 1.4-2.2 0-4.3-0.5-6.2-1.4-0.6-0.3-1.2-0.8-1.6-1.4q-0.7-0.8-0.9-1.9 0-0.1 0-0.3 0-0.1 0-0.2z"/><g style="opacity:.5"><path class="j" d="m151.8 230.5c1.2-0.5 2.5-0.8 3.8-0.8 2.2 0 4.4 0.9 6 2.4 1.6 1.6 2.5 3.7 2.6 6q0 0.1 0 0.2 0 0.2 0 0.3c-0.1 0.7-0.4 1.4-0.8 1.9-0.5 0.6-1.1 1.1-1.7 1.4-1.4 0.7-2.8 1.2-4.4 1.3 2.3-0.4 3.7-2.9 3-5.6-0.8-3.3-4-7.9-8.5-7.1z"/></g><path class="p" d="m146.9 238.6q0-0.1 0-0.3 0-0.1 0-0.2c0-1.2 0.3-2.4 0.8-3.4 0.5-1.1 1.3-2.1 2.1-2.9-0.9 1-3 4.6-0.7 7.4 1.5 1.8 8.6 4.5 14.4 1.1q-0.8 1-1.8 1.6c-1.9 0.9-4 1.4-6.1 1.4-2.2 0-4.3-0.5-6.2-1.4-0.6-0.3-1.2-0.8-1.6-1.4-0.5-0.5-0.8-1.2-0.9-1.9z"/><g style="opacity:.3"><path class="j" d="m155.6 231.6c-0.3 0.9 0.4 2.1 1.7 2.7 1.3 0.5 2.7 0.3 3.1-0.6 0.4-0.9-0.4-2-1.7-2.6-1.3-0.6-2.7-0.4-3.1 0.5z"/></g><g style="opacity:.3"><path class="j" d="m160.7 235.2q-0.2 0.3-0.2 0.7 0 0.3 0.2 0.6 0.2 0.3 0.5 0.4 0.4 0.1 0.7 0 0.3 0 0.6-0.3 0.2-0.3 0.2-0.7 0-0.3-0.1-0.6-0.2-0.3-0.6-0.5-0.1-0.1-0.3-0.1-0.2 0-0.4 0-0.2 0.1-0.4 0.2-0.1 0.1-0.2 0.3z"/></g><path class="b" d="m165.5 241.4c0-3.3 1.3-6.5 3.6-8.9 2.4-2.3 5.6-3.6 8.9-3.6 3.3 0 6.5 1.3 8.9 3.6 2.3 2.4 3.7 5.6 3.7 8.9q0 0.2 0 0.4 0 0.1 0 0.3c-0.2 1.7-1.4 3.4-3.7 4.8-4.9 2.8-12.9 2.8-17.8 0-2.3-1.4-3.5-3-3.6-4.8q0-0.2 0-0.3 0-0.2 0-0.4z"/><path class="l" d="m165.5 241.4c0-3.3 1.3-6.5 3.6-8.9 2.4-2.3 5.6-3.6 8.9-3.6 3.3 0 6.5 1.3 8.9 3.6 2.3 2.4 3.7 5.6 3.7 8.9q0 0.2 0 0.4 0 0.1 0 0.3c-0.2 1.7-1.4 3.4-3.7 4.8-4.9 2.8-12.9 2.8-17.8 0-2.3-1.4-3.5-3-3.6-4.8q0-0.2 0-0.3 0-0.2 0-0.4z"/><g style="opacity:.3"><path class="j" d="m172.6 230.4c1.8-0.9 3.9-1.3 6-1.2 2.1 0.1 4.2 0.7 6 1.8 1.7 1.1 3.2 2.7 4.3 4.5 1 1.8 1.6 3.8 1.7 5.9q0 0.2 0 0.4 0 0.2 0 0.3c-0.2 1.8-1.4 3.5-3.7 4.8-2 1.1-4.1 1.8-6.3 2 3.2-0.6 5.3-4.2 4.3-8.2-1.1-4.7-5.8-11.5-12.3-10.3z"/></g><path class="k" d="m165.5 242.1q0-0.2 0-0.4 0-0.1 0-0.3c0-1.7 0.4-3.4 1.1-5 0.8-1.5 1.8-2.9 3.1-4.1-1.3 1.4-4.4 6.7-1.1 10.7 2.2 2.7 12.5 6.5 20.9 1.6-0.7 0.9-1.6 1.7-2.6 2.3-4.9 2.8-12.9 2.8-17.8 0-2.3-1.4-3.5-3.1-3.6-4.8z"/><g style="opacity:.5"><path class="j" d="m178.1 232c-0.5 1.3 0.6 3 2.4 3.8 1.9 0.9 3.9 0.5 4.5-0.8 0.5-1.2-0.5-3-2.4-3.8-1.9-0.8-3.9-0.5-4.5 0.8z"/></g><g style="opacity:.5"><path class="j" d="m185.4 237.2q-0.3 0.5-0.3 1 0 0.5 0.3 0.9 0.3 0.5 0.8 0.6 0.5 0.2 1 0.1 0.5-0.2 0.8-0.6 0.4-0.4 0.4-0.9 0-0.5-0.2-1-0.3-0.4-0.8-0.6c-0.3-0.2-0.7-0.3-1.1-0.2-0.4 0.1-0.7 0.4-0.9 0.7z"/></g><path class="b" d="m154.4 248.8c0-3.2 1.3-6.2 3.5-8.5 2.2-2.2 5.3-3.4 8.4-3.4 3.2 0 6.2 1.2 8.5 3.4 2.2 2.3 3.4 5.3 3.4 8.5q0 0.1 0 0.3 0 0.2 0 0.3c-0.1 1.7-1.3 3.3-3.5 4.6-4.6 2.7-12.2 2.7-16.8 0-2.2-1.3-3.4-2.9-3.5-4.6q0-0.1 0-0.3c0-0.1 0-0.2 0-0.3z"/><path class="q" d="m154.4 248.8c0-3.2 1.3-6.2 3.5-8.5 2.2-2.2 5.3-3.4 8.4-3.4 3.2 0 6.2 1.2 8.5 3.4 2.2 2.3 3.4 5.3 3.4 8.5q0 0.1 0 0.3 0 0.2 0 0.3c-0.1 1.7-1.3 3.3-3.5 4.6-4.6 2.7-12.2 2.7-16.8 0-2.2-1.3-3.4-2.9-3.5-4.6q0-0.1 0-0.3c0-0.1 0-0.2 0-0.3z"/><g style="opacity:.5"><path class="j" d="m161.2 238.4c1.8-0.9 3.7-1.3 5.7-1.2 2 0.1 4 0.6 5.7 1.7 1.7 1 3.1 2.5 4.1 4.2 1 1.7 1.5 3.7 1.6 5.7q0 0.1 0 0.3 0 0.2 0 0.3c-0.2 1.7-1.3 3.3-3.5 4.6-1.9 1-3.9 1.6-6 1.8 3.1-0.5 5.1-4 4.1-7.8-1.1-4.3-5.6-10.8-11.7-9.6z"/></g><path class="k" d="m154.4 249.4q0-0.1 0-0.3 0-0.2 0-0.3c0.1-1.7 0.4-3.3 1.1-4.8 0.7-1.4 1.7-2.8 2.9-3.9-1.3 1.4-4.2 6.4-1 10.2 2.1 2.5 11.8 6.1 19.9 1.5-0.7 0.9-1.6 1.6-2.5 2.2-4.7 2.6-12.2 2.6-16.9 0-2.2-1.4-3.4-2.9-3.5-4.6z"/><g style="opacity:.3"><path class="j" d="m166.4 239.9c-0.5 1.2 0.5 2.8 2.3 3.6 1.8 0.8 3.7 0.4 4.3-0.8 0.5-1.2-0.5-2.8-2.3-3.6-1.8-0.8-3.7-0.4-4.3 0.8z"/></g><g style="opacity:.3"><path class="j" d="m173.3 244.8q-0.1 0.5 0.2 1 0.2 0.5 0.8 0.8 0.5 0.2 1 0 0.5-0.1 0.9-0.6 0.1-0.5-0.2-1c-0.1-0.3-0.4-0.6-0.7-0.7q-0.6-0.2-1.1-0.1-0.5 0.2-0.9 0.6z"/></g><path class="b" d="m179.7 254c0.1-3.8 1.7-7.5 4.5-10.1 2.8-2.7 6.4-4.2 10.3-4.2 3.8 0 7.5 1.5 10.2 4.2 2.8 2.6 4.4 6.3 4.5 10.1q0 0.2 0 0.4 0 0.2 0 0.4c-0.1 2-1.6 4.1-4.3 5.6-5.7 3.4-15.1 3.4-20.9 0-2.7-1.5-4.1-3.5-4.3-5.6q0-0.2 0-0.4 0-0.2 0-0.4z"/><path class="i" d="m179.7 254c0.1-3.8 1.7-7.5 4.5-10.1 2.8-2.7 6.4-4.2 10.3-4.2 3.8 0 7.5 1.5 10.2 4.2 2.8 2.6 4.4 6.3 4.5 10.1q0 0.2 0 0.4 0 0.2 0 0.4c-0.1 2-1.6 4.1-4.3 5.6-5.7 3.4-15.1 3.4-20.9 0-2.7-1.5-4.1-3.5-4.3-5.6q0-0.2 0-0.4 0-0.2 0-0.4z"/><g style="opacity:.3"><path class="j" d="m188 241.1c2.3-1.1 4.7-1.6 7.2-1.5 2.5 0.1 4.9 0.9 7 2.2 2.1 1.2 3.8 3 5.1 5.2 1.2 2.1 1.9 4.5 1.9 7q0 0.2 0 0.4 0 0.2 0 0.4c-0.1 2-1.6 4.1-4.3 5.6-2.3 1.3-4.8 2.1-7.4 2.4 3.8-0.7 6.3-5 5.1-9.7-1.3-5.4-6.9-13.4-14.6-12z"/></g><path class="k" d="m179.7 254.8q0-0.2 0-0.4 0-0.2 0-0.4c0-2 0.5-4 1.4-5.9 0.8-1.8 2.1-3.5 3.6-4.8-1.6 1.7-5.2 7.9-1.3 12.6 2.5 3.1 14.7 7.6 24.6 1.9-0.8 1.1-1.9 2-3.1 2.6-5.8 3.4-15.1 3.4-20.9 0-2.7-1.5-4.1-3.5-4.3-5.6z"/><g style="opacity:.3"><path class="j" d="m194.6 242.9c-0.6 1.5 0.6 3.6 2.9 4.5 2.2 1 4.5 0.6 5.2-1 0.7-1.5-0.6-3.5-2.8-4.5-2.3-0.9-4.6-0.5-5.3 1z"/></g><g style="opacity:.3"><path class="j" d="m203.2 249.1q-0.4 0.5-0.4 1.1 0 0.6 0.4 1.1 0.3 0.5 0.9 0.7 0.6 0.2 1.2 0.1 0.6-0.2 1-0.7 0.4-0.5 0.4-1.1 0-0.6-0.3-1.1-0.3-0.5-0.9-0.8c-0.4-0.2-0.8-0.3-1.3-0.1-0.4 0.1-0.8 0.4-1 0.8z"/></g><path class="b" d="m258.9 263.8c0-3.6-1.4-7-3.9-9.6-2.6-2.5-6-3.9-9.6-3.9-3.6 0-7 1.4-9.5 3.9-2.5 2.6-4 6-4 9.6q0 0.2 0 0.3 0 0.2 0 0.4c0.2 1.9 1.5 3.7 4 5.2 5.2 3 13.8 3 19.1 0 2.4-1.5 3.8-3.3 3.9-5.2q0-0.2 0-0.4 0-0.1 0-0.3z"/><path class="h" d="m258.9 263.8c0-3.6-1.4-7-3.9-9.6-2.6-2.5-6-3.9-9.6-3.9-3.6 0-7 1.4-9.5 3.9-2.5 2.6-4 6-4 9.6q0 0.2 0 0.3 0 0.2 0 0.4c0.2 1.9 1.5 3.7 4 5.2 5.2 3 13.8 3 19.1 0 2.4-1.5 3.8-3.3 3.9-5.2q0-0.2 0-0.4 0-0.1 0-0.3z"/><g style="opacity:.5"><path class="j" d="m251.3 252c-2-1-4.3-1.5-6.5-1.3-2.3 0.1-4.5 0.7-6.4 1.9-1.9 1.2-3.5 2.8-4.6 4.8-1.2 1.9-1.8 4.1-1.9 6.4q0 0.2 0 0.3 0 0.2 0 0.4c0.2 1.9 1.5 3.7 4 5.2 2.1 1.1 4.4 1.8 6.8 2.1-3.5-0.6-5.8-4.5-4.7-8.9 1.2-5 6.3-12.2 13.3-10.9z"/></g><path class="k" d="m258.9 264.5q0-0.2 0-0.4 0-0.1 0-0.3c0-1.9-0.5-3.7-1.2-5.4-0.8-1.7-2-3.2-3.4-4.4 1.5 1.5 4.8 7.2 1.2 11.5-2.3 2.9-13.4 7-22.5 1.7 0.8 1 1.8 1.8 2.9 2.4 5.3 3.1 13.8 3.1 19.1 0 2.5-1.4 3.8-3.2 3.9-5.1z"/><g style="opacity:.5"><path class="j" d="m245.3 253.6c0.6 1.4-0.6 3.3-2.6 4.2-2.1 0.9-4.2 0.5-4.8-0.9-0.6-1.4 0.6-3.2 2.6-4.1 2-0.9 4.2-0.5 4.8 0.8z"/></g><g style="opacity:.5"><path class="j" d="m237.5 259.3q0.3 0.5 0.3 1 0 0.6-0.4 1-0.3 0.5-0.8 0.6-0.6 0.2-1.1 0.1-0.5-0.2-0.9-0.6-0.3-0.5-0.4-1 0-0.6 0.3-1 0.3-0.5 0.8-0.8 0.3-0.1 0.6-0.1 0.3-0.1 0.6 0 0.3 0.1 0.6 0.3 0.2 0.2 0.4 0.5z"/></g><path class="b" d="m202.6 265.2c0.1-3.3 1.4-6.5 3.8-8.8 2.4-2.3 5.7-3.6 9-3.6 3.3 0 6.5 1.3 8.9 3.6 2.4 2.3 3.8 5.5 3.9 8.8q0 0.2 0 0.4 0 0.2 0 0.4c-0.1 1.7-1.4 3.5-3.7 4.8-5 2.9-13.2 2.9-18.2 0-2.3-1.3-3.6-3.1-3.7-4.8q0-0.2 0-0.4 0-0.2 0-0.4z"/><path class="h" d="m202.6 265.2c0.1-3.3 1.4-6.5 3.8-8.8 2.4-2.3 5.7-3.6 9-3.6 3.3 0 6.5 1.3 8.9 3.6 2.4 2.3 3.8 5.5 3.9 8.8q0 0.2 0 0.4 0 0.2 0 0.4c-0.1 1.7-1.4 3.5-3.7 4.8-5 2.9-13.2 2.9-18.2 0-2.3-1.3-3.6-3.1-3.7-4.8q0-0.2 0-0.4 0-0.2 0-0.4z"/><g style="opacity:.5"><path class="j" d="m209.8 254c1.8-0.8 3.7-1.3 5.6-1.3 3.3 0.1 6.6 1.4 8.9 3.7 2.4 2.3 3.8 5.5 3.9 8.8q0 0.2 0 0.4 0 0.2 0 0.4c-0.1 1.7-1.4 3.5-3.7 4.8-2 1.1-4.2 1.8-6.5 2 3.4-0.5 5.5-4.3 4.5-8.4-1.2-4.8-6-11.6-12.7-10.4z"/></g><path class="k" d="m202.6 266q0-0.2 0-0.4 0-0.2 0-0.4c0-1.7 0.4-3.5 1.2-5.1 0.7-1.6 1.8-3 3.1-4.1-1.4 1.4-4.5 6.8-1.1 11 2.2 2.7 12.7 6.5 21.4 1.6-0.7 0.9-1.7 1.7-2.7 2.3-5 2.9-13.2 2.9-18.2 0-2.3-1.4-3.6-3.2-3.7-4.9z"/><g style="opacity:.5"><path class="j" d="m215.5 255.6c-0.6 1.4 0.6 3.1 2.5 4 1.9 0.8 4 0.4 4.5-0.9 0.6-1.3-0.5-3-2.4-3.9-2-0.8-4-0.5-4.6 0.8z"/></g><g style="opacity:.5"><path class="j" d="m223 261q-0.3 0.4-0.4 1 0.1 0.5 0.4 0.9 0.3 0.5 0.8 0.6 0.5 0.2 1 0.1 0.5-0.2 0.8-0.6 0.4-0.4 0.4-0.9 0.1-0.6-0.2-1-0.3-0.5-0.8-0.7c-0.3-0.2-0.7-0.2-1.1-0.1-0.4 0.1-0.7 0.3-0.9 0.7z"/></g><path class="b" d="m235.9 269.7c0-1.4-0.6-2.7-1.6-3.7-0.9-0.9-2.3-1.5-3.7-1.5-1.3 0-2.7 0.6-3.7 1.5-0.9 1-1.5 2.3-1.5 3.7v0.3q0.1 0.7 0.5 1.2 0.4 0.5 1 0.8c1.2 0.6 2.5 0.9 3.7 0.9 1.3 0 2.6-0.3 3.7-0.9q0.6-0.3 1.1-0.8 0.4-0.5 0.5-1.2z"/><path class="h" d="m235.9 269.7c0-1.4-0.6-2.7-1.6-3.7-0.9-0.9-2.3-1.5-3.7-1.5-1.3 0-2.7 0.6-3.7 1.5-0.9 1-1.5 2.3-1.5 3.7v0.3q0.1 0.7 0.5 1.2 0.4 0.5 1 0.8c1.2 0.6 2.5 0.9 3.7 0.9 1.3 0 2.6-0.3 3.7-0.9q0.6-0.3 1.1-0.8 0.4-0.5 0.5-1.2z"/><g style="opacity:.6"><path class="j" d="m232.9 265.2q-1.1-0.6-2.3-0.6c-1.3 0-2.6 0.6-3.6 1.5-1 1-1.6 2.3-1.6 3.6v0.3q0.1 0.7 0.5 1.2 0.4 0.5 1 0.8 1.3 0.7 2.7 0.8-0.6-0.1-1-0.4-0.4-0.4-0.7-0.9-0.2-0.5-0.3-1 0-0.6 0.1-1.1c0.5-1.9 2.5-4.7 5.2-4.2z"/></g><path class="k" d="m235.9 270v-0.3q-0.1-1.1-0.5-2-0.5-1-1.3-1.8c0.6 0.6 1.8 2.8 0.4 4.5-0.9 1.1-5.1 2.7-8.7 0.7q0.5 0.5 1.1 0.9c1.2 0.6 2.5 0.9 3.7 0.9 1.3 0 2.6-0.3 3.7-0.9q0.6-0.3 1-0.8 0.5-0.5 0.6-1.2z"/><g style="opacity:.5"><path class="j" d="m230.6 265.8c0.2 0.6-0.2 1.3-1 1.6-0.8 0.3-1.6 0.2-1.9-0.3-0.2-0.6 0.3-1.3 1-1.6 0.8-0.4 1.6-0.2 1.9 0.3z"/></g><g style="opacity:.5"><path class="j" d="m227.6 268q0 0.2-0.1 0.5-0.1 0.2-0.3 0.3-0.1 0-0.3 0.1-0.1 0-0.2-0.1-0.1 0-0.2-0.1-0.1 0-0.2-0.2 0-0.1 0-0.2 0-0.1 0-0.3 0.1-0.1 0.2-0.1 0.1-0.1 0.2-0.1 0.2-0.2 0.5-0.1 0.2 0.1 0.4 0.3z"/></g><path class="b" d="m139.6 240.1c0-1.3 0.6-2.6 1.6-3.5 1-1 2.3-1.5 3.6-1.5 1.4 0 2.7 0.5 3.6 1.5 1 0.9 1.6 2.2 1.6 3.5q0 0.1 0 0.2 0 0 0 0.1-0.1 0.7-0.5 1.2-0.4 0.5-1 0.8c-1.1 0.6-2.4 0.9-3.7 0.9-1.3 0-2.5-0.3-3.7-0.9q-0.6-0.3-1-0.8-0.4-0.5-0.5-1.2z"/><path class="r" d="m139.6 240.1c0-1.3 0.6-2.6 1.6-3.5 1-1 2.3-1.5 3.6-1.5 1.4 0 2.7 0.5 3.6 1.5 1 0.9 1.6 2.2 1.6 3.5q0 0.1 0 0.2 0 0 0 0.1-0.1 0.7-0.5 1.2-0.4 0.5-1 0.8c-1.1 0.6-2.4 0.9-3.7 0.9-1.3 0-2.5-0.3-3.7-0.9q-0.6-0.3-1-0.8-0.4-0.5-0.5-1.2z"/><g style="opacity:.5"><path class="j" d="m142.5 235.6c0.8-0.4 1.7-0.6 2.6-0.6 0.8 0.1 1.7 0.3 2.4 0.8 0.8 0.5 1.4 1.1 1.8 1.8 0.5 0.8 0.7 1.6 0.7 2.5q0 0.1 0 0.2 0 0 0 0.1-0.1 0.7-0.5 1.2-0.4 0.5-1 0.8-1.2 0.7-2.6 0.8 0.5-0.1 1-0.5 0.4-0.3 0.6-0.8 0.3-0.5 0.3-1 0.1-0.6-0.1-1.1c-0.5-1.9-2.4-4.7-5.2-4.2z"/></g><g style="opacity:.1"><path class="s" d="m139.6 240.4v-0.3q0-1.1 0.5-2.1 0.4-0.9 1.3-1.7c-0.6 0.6-1.9 2.8-0.5 4.5 0.9 1.1 5.2 2.7 8.7 0.7q-0.4 0.5-1.1 0.9c-1.1 0.6-2.4 0.9-3.7 0.9-1.3 0-2.5-0.3-3.7-0.9q-0.6-0.3-1-0.8-0.4-0.5-0.5-1.2z"/></g><g style="opacity:.3"><path class="j" d="m144.9 236.2c-0.3 0.5 0.2 1.3 1 1.6 0.7 0.4 1.6 0.2 1.8-0.3 0.3-0.6-0.2-1.3-1-1.6-0.8-0.4-1.6-0.3-1.8 0.3z"/></g><g style="opacity:.3"><path class="j" d="m147.9 238.4q-0.1 0.2 0 0.4 0.2 0.3 0.4 0.4 0.2 0.1 0.5 0 0.2-0.1 0.3-0.3 0.1-0.2 0-0.4-0.1-0.3-0.4-0.4-0.2-0.1-0.4 0-0.3 0.1-0.4 0.3z"/></g><path class="b" d="m251 186.2h-9.1c-1.3 7.9 2.9 13.9 4.6 13.9 1.6 0 5.8-6 4.5-13.9z"/><path class="l" d="m251 186.2h-9.1c-1.3 7.9 2.9 13.9 4.6 13.9 1.6 0 5.8-6 4.5-13.9z"/><path class="t" d="m246.5 186.2h1.5c0.8 1.3 1 2.7 0.9 4.2-0.2 2.1-1.5 4.9-2.4 4.9-1 0-2.2-2.8-2.4-4.9-0.2-1.5 0.1-2.9 0.8-4.2z"/><path class="b" d="m251 172.1l-9.4 3.3-0.8 3.1q0 1 0.5 1.9c0.3 0.6 0.7 1.1 1.2 1.4q0.7 0.5 1.5 0.8c1.7 0.7 3.7 0.7 5.4 0q0.8-0.3 1.4-0.8c0.6-0.3 1-0.8 1.3-1.4q0.4-0.9 0.4-1.9z"/><path class="r" d="m251 172.1l-9.4 3.3-0.8 3.1q0 1 0.5 1.9c0.3 0.6 0.7 1.1 1.2 1.4q0.7 0.5 1.5 0.8c1.7 0.7 3.7 0.7 5.4 0q0.8-0.3 1.4-0.8c0.6-0.3 1-0.8 1.3-1.4q0.4-0.9 0.4-1.9z"/><path class="b" d="m252.7 179.5l0.3 1.3q0 1-0.5 2-0.5 0.9-1.3 1.5-0.7 0.5-1.6 0.8c-1.9 0.7-4 0.7-5.9 0q-0.8-0.3-1.5-0.9-0.9-0.5-1.4-1.5-0.5-0.9-0.5-1.9l-0.8 3.6c0 0.7 0.2 1.4 0.6 2 0.4 0.6 0.9 1.1 1.5 1.4q0.8 0.6 1.8 0.9c2.1 0.7 4.4 0.7 6.6 0q0.9-0.3 1.8-0.8c0.6-0.4 1.1-0.9 1.5-1.5 0.3-0.6 0.6-1.3 0.6-2z"/><path class="r" d="m252.7 179.5l0.3 1.3q0 1-0.5 2-0.5 0.9-1.3 1.5-0.7 0.5-1.6 0.8c-1.9 0.7-4 0.7-5.9 0q-0.8-0.3-1.5-0.9-0.9-0.5-1.4-1.5-0.5-0.9-0.5-1.9l-0.8 3.6c0 0.7 0.2 1.4 0.6 2 0.4 0.6 0.9 1.1 1.5 1.4q0.8 0.6 1.8 0.9c2.1 0.7 4.4 0.7 6.6 0q0.9-0.3 1.8-0.8c0.6-0.4 1.1-0.9 1.5-1.5 0.3-0.6 0.6-1.3 0.6-2z"/><path class="u" d="m252.7 179.4l-0.1-0.3-0.1-0.6c0 0.7-0.1 1.3-0.4 1.9-0.3 0.6-0.7 1.1-1.3 1.4q-0.6 0.5-1.4 0.8c-1.7 0.7-3.7 0.7-5.4 0q-0.8-0.3-1.5-0.8c-0.5-0.3-0.9-0.8-1.2-1.4-0.3-0.6-0.5-1.2-0.5-1.9l-0.5 2.3q0 1 0.5 1.9 0.5 1 1.4 1.6 0.7 0.5 1.5 0.8c1.9 0.7 4 0.7 5.9 0q0.9-0.3 1.6-0.8 0.8-0.6 1.3-1.5 0.5-1 0.5-2z"/><path class="n" d="m251.8 175.4l-0.8-3.3-9.4 3.3-0.8 3.1-0.2 0.9-0.3 1.4-0.6 2.5c5.4-1.5 9.7-4.3 12.1-7.9z"/><path class="b" d="m218.9 186.2h-9.1c-1.3 7.9 2.9 13.9 4.5 13.9 1.7 0 5.9-6 4.6-13.9z"/><path class="l" d="m218.9 186.2h-9.1c-1.3 7.9 2.9 13.9 4.5 13.9 1.7 0 5.9-6 4.6-13.9z"/><path class="t" d="m214.3 186.2h1.6c0.7 1.3 1 2.7 0.8 4.2-0.1 2.1-1.4 4.9-2.4 4.9-0.9 0-2.2-2.8-2.4-4.9-0.1-1.5 0.2-2.9 0.9-4.2z"/><path class="b" d="m218.9 172.1h-8.6l-1.6 6.4c0 0.7 0.2 1.3 0.5 1.9 0.3 0.6 0.7 1.1 1.2 1.4q0.7 0.5 1.5 0.8c1.7 0.7 3.7 0.7 5.4 0q0.8-0.3 1.4-0.8c0.5-0.3 1-0.8 1.3-1.4 0.3-0.6 0.4-1.2 0.4-1.9z"/><path class="r" d="m218.9 172.1h-8.6l-1.6 6.4c0 0.7 0.2 1.3 0.5 1.9 0.3 0.6 0.7 1.1 1.2 1.4q0.7 0.5 1.5 0.8c1.7 0.7 3.7 0.7 5.4 0q0.8-0.3 1.4-0.8c0.5-0.3 1-0.8 1.3-1.4 0.3-0.6 0.4-1.2 0.4-1.9z"/><path class="b" d="m220.5 179.1l0.1 0.3 0.3 1.4c0 0.7-0.2 1.4-0.5 2-0.3 0.6-0.8 1.1-1.4 1.5q-0.7 0.5-1.5 0.8c-1.9 0.7-4 0.7-5.9 0q-0.8-0.3-1.6-0.9c-0.5-0.3-1-0.9-1.3-1.5-0.3-0.6-0.5-1.2-0.5-1.9l-0.9 3.6c0.1 0.7 0.3 1.4 0.7 2 0.3 0.6 0.8 1.1 1.4 1.4q0.9 0.6 1.9 0.9c2.1 0.7 4.4 0.7 6.5 0q1-0.3 1.8-0.8c0.7-0.4 1.2-0.9 1.5-1.5 0.4-0.6 0.6-1.3 0.7-2z"/><path class="r" d="m220.5 179.1l0.1 0.3 0.3 1.4c0 0.7-0.2 1.4-0.5 2-0.3 0.6-0.8 1.1-1.4 1.5q-0.7 0.5-1.5 0.8c-1.9 0.7-4 0.7-5.9 0q-0.8-0.3-1.6-0.9c-0.5-0.3-1-0.9-1.3-1.5-0.3-0.6-0.5-1.2-0.5-1.9l-0.9 3.6c0.1 0.7 0.3 1.4 0.7 2 0.3 0.6 0.8 1.1 1.4 1.4q0.9 0.6 1.9 0.9c2.1 0.7 4.4 0.7 6.5 0q1-0.3 1.8-0.8c0.7-0.4 1.2-0.9 1.5-1.5 0.4-0.6 0.6-1.3 0.7-2z"/><path class="u" d="m220.6 179.4l-0.1-0.3-0.1-0.6c0 0.7-0.1 1.3-0.4 1.9-0.3 0.6-0.8 1.1-1.3 1.4q-0.7 0.5-1.4 0.8c-1.8 0.7-3.7 0.7-5.4 0q-0.8-0.2-1.5-0.7c-0.5-0.4-1-0.9-1.3-1.5-0.3-0.5-0.4-1.2-0.4-1.9l-0.5 2.3q0 1.1 0.5 2 0.5 0.9 1.4 1.5 0.7 0.5 1.5 0.8c1.9 0.8 4 0.8 5.9 0q0.8-0.3 1.5-0.8 0.9-0.6 1.4-1.5 0.5-0.9 0.5-2z"/><path class="n" d="m210.3 172.1l-0.8 3.3c2.4 3.5 6.7 6.4 12 7.9l-1-4.2-0.2-0.6-1.5-6.4z"/><path class="b" d="m239.5 191.9l-8.9-2.3-8.8 2.3c-0.7 4.1-0.7 8.2 0.1 12.2 1.1 7.4 6.3 14.9 8.7 14.9 2.4 0 7.6-7.5 8.8-14.9 0.7-4 0.7-8.1 0.1-12.2z"/><path class="h" d="m239.5 191.9l-8.9-2.3-8.8 2.3c-0.7 4.1-0.7 8.2 0.1 12.2 1.1 7.4 6.3 14.9 8.7 14.9 2.4 0 7.6-7.5 8.8-14.9 0.7-4 0.7-8.1 0.1-12.2z"/><path class="b" d="m236.4 193h-12.1c-1.7 10.5 3.8 18.5 6 18.5 2.3 0 7.8-8 6.1-18.5z"/><path class="t" d="m230.3 193h2.1c1 1.7 1.4 3.6 1.1 5.6-0.2 2.8-1.9 6.5-3.2 6.5-1.2 0-2.9-3.7-3.2-6.5-0.2-2 0.2-3.9 1.2-5.6z"/><path class="b" d="m238.4 182l-1-4.2h-13.6l-1 4.2c0 0.9 0.2 1.7 0.6 2.5 0.4 0.8 1 1.5 1.7 1.9q0.9 0.7 1.9 1c2.3 0.9 4.9 0.9 7.2 0q1-0.3 1.9-1c0.7-0.4 1.3-1.1 1.7-1.9 0.4-0.7 0.6-1.6 0.6-2.5z"/><path class="m" d="m238.4 182l-1-4.2h-13.6l-1 4.2c0 0.9 0.2 1.7 0.6 2.5 0.4 0.8 1 1.5 1.7 1.9q0.9 0.7 1.9 1c2.3 0.9 4.9 0.9 7.2 0q1-0.3 1.9-1c0.7-0.4 1.3-1.1 1.7-1.9 0.4-0.7 0.6-1.6 0.6-2.5z"/><path class="b" d="m238.6 182.8l0.1 0.4 0.4 1.8c0 1-0.2 1.9-0.7 2.7-0.4 0.8-1 1.5-1.8 2q-0.9 0.6-2 1.1c-2.5 0.9-5.3 0.9-7.8 0q-1.2-0.5-2.1-1.2c-0.8-0.5-1.4-1.2-1.9-2-0.4-0.8-0.6-1.7-0.6-2.6l-1.2 4.9c0.1 0.9 0.4 1.8 0.9 2.6 0.5 0.8 1.1 1.5 2 1.9q1.1 0.8 2.4 1.2c2.8 1 5.9 1 8.7 0q1.3-0.4 2.4-1.1c0.9-0.5 1.5-1.1 2-1.9 0.5-0.8 0.8-1.7 0.9-2.7z"/><path class="m" d="m238.6 182.8l0.1 0.4 0.4 1.8c0 1-0.2 1.9-0.7 2.7-0.4 0.8-1 1.5-1.8 2q-0.9 0.6-2 1.1c-2.5 0.9-5.3 0.9-7.8 0q-1.2-0.5-2.1-1.2c-0.8-0.5-1.4-1.2-1.9-2-0.4-0.8-0.6-1.7-0.6-2.6l-1.2 4.9c0.1 0.9 0.4 1.8 0.9 2.6 0.5 0.8 1.1 1.5 2 1.9q1.1 0.8 2.4 1.2c2.8 1 5.9 1 8.7 0q1.3-0.4 2.4-1.1c0.9-0.5 1.5-1.1 2-1.9 0.5-0.8 0.8-1.7 0.9-2.7z"/><path class="u" d="m238.7 183.2l-0.1-0.4-0.2-0.8c0 0.9-0.2 1.7-0.6 2.5-0.4 0.8-1 1.5-1.7 1.9q-0.8 0.7-1.8 1c-2.4 0.9-5 0.9-7.3 0q-1-0.3-1.9-1c-0.7-0.4-1.3-1.1-1.7-1.9-0.4-0.8-0.6-1.6-0.6-2.5l-0.7 3c0 0.9 0.3 1.8 0.7 2.6 0.4 0.9 1.1 1.5 1.8 2.1q1 0.7 2.1 1.1c2.5 0.9 5.3 0.9 7.9 0q1-0.4 2-1.1c0.7-0.5 1.3-1.2 1.8-2 0.4-0.8 0.6-1.7 0.6-2.6z"/><path class="n" d="m230.6 184.6q4.1 0 8.2-1l-0.1-0.4-0.1-0.4-0.2-0.8-1-4.2h-13.6l-1 4.2-0.4 1.6q4.1 1 8.2 1z"/><path class="c" d="m222.2 144.4l-26.4-9.8q0-1.6 0.1-3.3c0-0.4 0.1-0.7 0.2-1q0-0.5 0.1-1 0.1-0.5 0.3-0.9l0.1-0.5 0.1-0.3c0.6-1.8 1.8-3.4 3.5-4.4l3.4-2 0.3-0.2c1.1-0.5 2.3-0.9 3.5-1.1q3.9-0.4 7.5-1.8 1.1-0.9 1.9-2.1c2.6-3.9 3.2-12.4 3.1-16.6l3.7-2.2 2.4 45-4-1.5v0.1z"/><path class="e" d="m195.8 134.7l26.4 9.7-0.2-3.5v-0.1l-1.4-27-0.7-14.4c0.2 4.2-0.5 12.7-3.1 16.6q-0.8 1.2-1.9 2.1c-2.6 2.2-6.5 3.4-11.3 4q-0.7 0.1-1.4 0.3-1 0.3-2 0.8c-1.7 1-2.9 2.5-3.5 4.4l-0.1 0.3-0.1 0.5q-0.1 0.4-0.2 0.9-0.1 0.5-0.2 1c0 0.3-0.1 0.6-0.1 1q-0.2 1.6-0.2 3.4z"/><path class="b" d="m221.8 136.8l-25.1-9.2q-0.6 1.8-0.8 3.7l26.1 9.6z"/><path class="v" d="m221.8 136.8l-25.1-9.2q-0.6 1.8-0.8 3.7l26.1 9.6z"/><path class="u" d="m242.8 135.7c3.3 10.7 6.7 21.4 10.2 32.1 0.3 1 0.3 2.1-0.1 3.2-0.3 1-1 1.9-1.8 2.6-5.7 4.8-13 7.4-20.5 7.2-7.5 0-14.8-2.7-20.5-7.5-0.8-0.7-1.5-1.6-1.8-2.6-0.4-1-0.4-2.1-0.2-3.1 3.7-10.5 7-21 10.3-31.7z"/><path class="e" d="m230.6 172.5c7.9 0.2 15.5-2.6 21.4-7.7l1 3c0.3 1 0.3 2.1-0.1 3.2-0.3 1-1 1.9-1.8 2.6-5.7 4.8-13 7.4-20.5 7.2-7.5 0-14.7-2.7-20.5-7.5-0.8-0.7-1.5-1.6-1.8-2.6-0.4-1-0.4-2.1-0.2-3.1 0.4-1.2 0.6-1.7 1-2.9 6 5.2 13.8 7.5 21.5 7.8z"/><path class="e" d="m230.6 147.8c-5.1 0.1-10.2-0.8-15.1-2.5 1.2-3.7 1.8-5.6 2.9-9.4l11-0.1h1.3q0.6 0 1.2 0l11-0.1c1.1 3.8 1.7 5.7 2.9 9.4-4.9 1.9-10 2.8-15.2 2.7z"/><g style="opacity:.5"><path class="u" d="m238.4 135.7c0.3 3 0.8 7 1.4 11.2q2-0.5 4-1.1c-0.7-4-1-6-1.8-10.1z"/></g><g style="opacity:.5"><path class="u" d="m210.1 173.3c5.7 4.8 13 7.5 20.5 7.5h1.5 1.5l0.7-0.1 1.1-0.2c0.2 0 0.5 0 0.7-0.1 0.2 0 0.5-0.1 0.7-0.1l1.2-0.2 0.2-0.1q0.7-0.1 1.3-0.3c0.4-0.1 1-0.3 1.5-0.5q0.5-0.1 0.9-0.3c0.3-0.1 0.8-0.3 1.1-0.4 0.7-0.3 1.4-0.6 2-0.9l0.5-0.3q0.3-0.1 0.5-0.3l0.8-0.4 0.8-0.5 0.8-0.5 0.7-0.5c-0.6-2.8-0.8-4.3-1.4-7.2q-2.3 1.5-5 2.5c0.2 1.4 0.5 2.5 0.4 2.7-1.9 7.2-19.1 8.5-33 0.2z"/></g><path class="w" d="m239.8 146.9q1.4 11.7 3 23.5 2.6-1 5-2.4-2-11.1-4-22.2-2 0.6-4 1.1z"/><path class="c" d="m238.1 144.4l26.4-9.8q0.1-1.6-0.1-3.3c0-0.4-0.1-0.7-0.1-1q-0.1-0.5-0.2-1-0.1-0.5-0.2-0.9l-0.2-0.5c0-0.1 0-0.2-0.1-0.3-0.5-1.8-1.8-3.4-3.4-4.4l-3.4-2-0.4-0.2c-1.1-0.5-2.2-0.9-3.4-1.1q-3.9-0.4-7.6-1.8-1.1-0.9-1.9-2.1c-2.6-3.9-3.2-12.4-3-16.6l-3.8-2.2-2.3 45 3.9-1.5v0.1z"/><path class="e" d="m264.5 134.7l-26.4 9.7 0.2-3.5v-0.1l1.4-27 0.7-14.4c-0.1 4.2 0.5 12.7 3.1 16.6q0.8 1.2 1.9 2.1c2.6 2.2 6.5 3.4 11.3 4q0.7 0.1 1.4 0.3 1.1 0.3 2 0.8c1.7 1 2.9 2.5 3.5 4.4 0 0.1 0.1 0.2 0.1 0.3l0.1 0.5q0.2 0.4 0.3 0.9 0.1 0.5 0.1 1c0.1 0.3 0.1 0.6 0.2 1q0.1 1.6 0.1 3.4z"/><path class="b" d="m238.5 136.8l25.1-9.2q0.6 1.8 0.8 3.7l-26.1 9.6z"/><path class="v" d="m238.5 136.8l25.1-9.2q0.6 1.8 0.8 3.7l-26.1 9.6z"/><path class="b" d="m256.8 54.5q0.1-2.8-0.4-5.7c-3.6-16.9-13.7-30.7-19.5-39.7-1.1-1.6-3.4-5.3-4.3-6-0.6-0.4-1.3-0.6-2-0.6-0.7 0-1.4 0.2-1.9 0.6-1 0.7-3.2 4.4-4.3 6-5.4 7.9-15.9 22.8-19.5 39.7q-0.6 2.9-0.5 5.8l3.3 94.4c0 4.7 4.3 9.4 12.9 11.9 6.5 2 13.5 2 20 0 8.6-2.5 12.9-7.2 12.9-11.9z"/><path class="m" d="m256.8 54.5q0.1-2.8-0.4-5.7c-3.6-16.9-13.7-30.7-19.5-39.7-1.1-1.6-3.4-5.3-4.3-6-0.6-0.4-1.3-0.6-2-0.6-0.7 0-1.4 0.2-1.9 0.6-1 0.7-3.2 4.4-4.3 6-5.4 7.9-15.9 22.8-19.5 39.7q-0.6 2.9-0.5 5.8l3.3 94.4c0 4.7 4.3 9.4 12.9 11.9 6.5 2 13.5 2 20 0 8.6-2.5 12.9-7.2 12.9-11.9z"/><path class="o" d="m256.4 48.8c-3.6-16.9-13.7-30.7-19.5-39.7l-0.9-1.3c4.8 12.1 12.3 31.5 12.8 58.8 0.3 16-0.9 59.1-1.8 91.7q1.5-0.9 2.8-2 0.8-0.8 1.5-1.6l0.2-0.2q0.2-0.2 0.3-0.5 0.1-0.1 0.2-0.2 0.2-0.4 0.4-0.7c0.1-0.2 0.2-0.3 0.2-0.4 0.1-0.1 0.1-0.2 0.2-0.3 0.1-0.1 0.1-0.4 0.2-0.5 0-0.2 0.1-0.2 0.1-0.3 0-0.1 0.1-0.5 0.2-0.7q0-0.1 0-0.2c0.1-0.1 0.1-0.4 0.1-0.6v-0.3q0.1-0.3 0-0.7l3.3-94.5q0.2-2.9-0.3-5.8z"/><path class="u" d="m210.4 58.4c11.1 6.4 29 6.4 40 0 2.5-1.4 4.7-3.3 6.4-5.6q0-2.2-0.5-4.3-0.2-1.1-0.5-2.1c-1.5 1.7-3.4 3.2-5.4 4.3-11.1 6.4-29 6.4-40 0-1.9-1.1-3.6-2.4-5.1-4q-0.2 0.9-0.4 1.9-0.5 2.3-0.5 4.7c1.6 2.1 3.7 3.9 6 5.1z"/><path class="w" d="m256.8 52.8q0-2-0.4-4-0.3-1.2-0.6-2.4c-1.5 1.7-3.3 3.1-5.3 4.3q-1.3 0.7-2.7 1.3 0.4 3.6 0.7 7.4 1-0.5 2-1c2.5-1.4 4.7-3.3 6.3-5.6z"/><path class="n" d="m232.3 2.9q-0.8-0.4-1.7-0.4c-0.7 0-1.3 0.2-1.9 0.6-1 0.7-3.2 4.4-4.3 6-5.4 7.9-15.9 22.8-19.5 39.7q-0.6 2.8-0.5 5.7l3.3 94.5c0 4.7 4.3 9.4 12.9 11.9 0.1 0 0.2 0.1 0.4 0.1-1.8-39.3-9.4-103.2-1.6-128.7 4.2-13.8 10-30.3 12.9-29.4z"/><path class="w" d="m236 7.7c1.6 4.1 3.5 9 5.3 14.7 1.1-0.6 2-1.3 2.9-1.9-2.1-3.4-4.1-6.4-5.9-9.1l-1.4-2.3-0.6-0.9z"/><path class="u" d="m219.3 155.1l-26.4 20.8-3.7-2.2c-0.2-7.6 2.3-14.4 7.8-21.5 2.4-3 4.5-5.9 6.5-8.6q4.3-5.7 7.6-12c3.2-6.3 4-10.2 4-14.5q0-0.2 0-0.4 0-0.2 0-0.4l2 1z"/><path class="b" d="m190.1 165.6q-0.6 2.3-0.8 4.6l3.7 2.2v-0.2q0.3-2.2 0.8-4.4z"/><path class="q" d="m190.1 165.6q-0.6 2.3-0.8 4.6l3.7 2.2v-0.2q0.3-2.2 0.8-4.4z"/><path class="c" d="m217 117.2c0.2 4-0.5 8.9-3 15.8-2.4 6.3-7 13.4-13.2 21.3-5.6 7.2-8 13.9-7.8 21.6l26.3-20.8z"/><path class="b" d="m219 148l-25.2 19.8q-0.6 2.2-0.7 4.6l26.1-20.6z"/><path class="u" d="m241 155.1l26.4 20.8 3.7-2.2c0.2-7.6-2.3-14.4-7.8-21.5-2.4-3-4.5-5.9-6.4-8.6q-4.3-5.7-7.7-12c-3.2-6.3-4-10.2-3.9-14.5q0-0.2 0-0.4 0-0.2 0-0.4l-2 1z"/><path class="b" d="m270.3 165.6q0.5 2.3 0.7 4.6l-3.7 2.2v-0.2q-0.2-2.2-0.8-4.4z"/><path class="q" d="m270.3 165.6q0.5 2.3 0.7 4.6l-3.7 2.2v-0.2q-0.2-2.2-0.8-4.4z"/><path class="c" d="m243.3 117.2c-0.2 4 0.5 8.9 3 15.8 2.4 6.3 7 13.4 13.2 21.3 5.6 7.2 8 13.9 7.8 21.6l-26.3-20.8z"/><path class="b" d="m241.4 148l25.1 19.8q0.6 2.2 0.8 4.6l-26.1-20.6z"/><path class="c" d="m209.3 63.7q0.7 0.4 1 1.1 0.4 0.6 0.5 1.4c0 0.9-0.7 1.3-1.5 0.8q-0.6-0.4-1-1-0.4-0.7-0.4-1.5c0-0.8 0.6-1.2 1.4-0.8z"/><path class="c" d="m209.3 69.6q0.6 0.4 0.9 1 0.4 0.6 0.4 1.3c0 0.9-0.6 1.2-1.3 0.8q-0.6-0.4-1-1-0.3-0.6-0.4-1.3c0-0.9 0.6-1.3 1.4-0.8z"/><path class="c" d="m209.3 75.5q0.6 0.3 1 0.9 0.3 0.6 0.3 1.3c0 0.8-0.5 1.1-1.3 0.7q-0.5-0.3-0.9-0.9-0.3-0.6-0.3-1.3c0-0.8 0.5-1.1 1.2-0.7z"/><path class="c" d="m209.5 81.3q0.5 0.4 0.9 0.9 0.3 0.6 0.3 1.2c0 0.8-0.5 1.1-1.2 0.7q-0.5-0.3-0.8-0.9-0.4-0.5-0.4-1.2c0-0.7 0.5-1 1.2-0.7z"/><path class="c" d="m209.7 87.2q0.5 0.3 0.8 0.9 0.3 0.5 0.4 1.1c0 0.7-0.5 1-1.2 0.7q-0.5-0.4-0.8-0.9-0.3-0.5-0.3-1.1c0-0.7 0.5-1 1.1-0.7z"/><path class="c" d="m210 93.1q0.4 0.3 0.7 0.8 0.3 0.5 0.3 1c0 0.7-0.4 1-1 0.6q-0.5-0.3-0.8-0.8-0.3-0.4-0.3-1c0-0.7 0.5-0.9 1.1-0.6z"/><path class="c" d="m210.2 99q0.5 0.2 0.7 0.7 0.3 0.4 0.3 1c0 0.6-0.4 0.9-1 0.5q-0.4-0.2-0.7-0.7-0.3-0.4-0.3-1c0-0.6 0.5-0.8 1-0.5z"/><path class="u" d="m251.9 63.7q-0.6 0.4-1 1.1-0.4 0.6-0.4 1.4c0 0.9 0.6 1.3 1.4 0.8q0.6-0.4 1-1 0.4-0.7 0.4-1.5c0-0.8-0.6-1.2-1.4-0.8z"/><path class="u" d="m251.9 69.6q-0.6 0.4-0.9 1-0.4 0.6-0.4 1.3c0 0.9 0.6 1.2 1.3 0.8q0.6-0.4 1-1 0.4-0.6 0.4-1.3c0-0.9-0.6-1.3-1.4-0.8z"/><path class="u" d="m251.9 75.5q-0.6 0.3-0.9 0.9-0.4 0.6-0.4 1.2c0 0.9 0.6 1.2 1.3 0.8q0.5-0.4 0.9-1 0.3-0.6 0.4-1.2c0-0.8-0.6-1.2-1.3-0.7z"/><path class="u" d="m251.7 81.3q-0.5 0.4-0.8 0.9-0.4 0.6-0.4 1.2c0 0.8 0.5 1.1 1.2 0.7q0.6-0.3 0.9-0.9 0.3-0.5 0.3-1.2c0-0.7-0.5-1-1.2-0.7z"/><path class="u" d="m251.5 87.2q-0.5 0.3-0.8 0.9-0.3 0.5-0.3 1.1c0 0.7 0.5 1 1.1 0.7q0.5-0.4 0.8-0.9 0.3-0.5 0.3-1.1c0-0.7-0.5-1-1.1-0.7z"/><path class="u" d="m251.3 93.1q-0.5 0.3-0.8 0.8-0.2 0.5-0.3 1c0 0.7 0.5 1 1.1 0.6q0.5-0.3 0.7-0.8 0.3-0.4 0.3-1c0-0.7-0.5-0.9-1-0.6z"/><path class="u" d="m251 99q-0.4 0.2-0.7 0.7-0.3 0.4-0.3 1c0 0.6 0.4 0.9 1 0.5q0.4-0.2 0.7-0.7 0.3-0.4 0.3-1c0-0.6-0.5-0.8-1-0.5z"/><path class="c" d="m241 91.7c1-5.8-2.9-11.2-8.7-12.1-5.7-1-11.2 3-12.1 8.7-0.9 5.8 3 11.2 8.7 12.1 5.8 1 11.2-2.9 12.1-8.7z"/><path class="b" d="m230.6 97.7c4.3 0 7.7-3.5 7.7-7.7 0-4.3-3.4-7.7-7.7-7.7-4.2 0-7.7 3.4-7.7 7.7 0 4.2 3.5 7.7 7.7 7.7z"/><path class="g" d="m416.4 64.3l-3.2-9.2 2.6-7.5v-4.6l-8 4.6v4.6l3.4 9q0.1 0.1 0.3 0.2z"/><path class="x" d="m416.4 64.3l-3.2-9.2 2.6-7.5v-4.6l-8 4.6v4.6l3.4 9q0.1 0.1 0.3 0.2z"/><path class="g" d="m435.3 6.6c0-0.8-0.2-1.6-0.7-2.3-0.4-0.7-0.9-1.4-1.6-1.8l-1.9-1.1c-0.8-0.4-1.6-0.5-2.4-0.5-0.8 0-1.7 0.1-2.4 0.5l-29.7 17.2c-0.7 0.4-1.3 1-1.7 1.7-0.4 0.8-0.7 1.6-0.7 2.4v32.7c0 0.8 0.3 1.6 0.7 2.4 0.4 0.7 1 1.3 1.7 1.7l1.9 1.2c0.7 0.3 1.6 0.5 2.4 0.5 0.8 0 1.6-0.2 2.4-0.5l9.5-5.6 3.4 9q0.1 0.2 0.2 0.2 0.2 0.1 0.3 0.1 0.2 0 0.3-0.1 0.1-0.1 0.1-0.3l3.6-13.4 12.3-7.2c0.7-0.4 1.2-1 1.6-1.8 0.5-0.7 0.7-1.5 0.7-2.3z"/><path class="x" d="m394.2 55.4c0 0.8 0.3 1.6 0.7 2.4 0.4 0.7 1 1.3 1.7 1.7l1.9 1.2q1 0.5 2.2 0.5 1.1 0.1 2.1-0.3c-1.1 0.4-2-0.3-2-1.6v-32.8c0.1-0.8 0.3-1.6 0.7-2.3l-6.7-3.9c-0.4 0.7-0.6 1.6-0.7 2.4z"/><path class="o" d="m435.3 5.9c-0.3-1-1.2-1.3-2.3-0.7l-29.7 17.2c-0.8 0.5-1.3 1.1-1.7 1.8l-6.7-3.9c0.4-0.7 1-1.3 1.7-1.7l29.7-17.2c0.7-0.4 1.5-0.5 2.4-0.5 0.8 0 1.6 0.1 2.4 0.5l1.9 1.1q0.9 0.6 1.5 1.5 0.6 0.9 0.8 1.9z"/><path fill-rule="evenodd" class="t" d="m430.1 29.9q0.1 0.1 0 0.2l-1.2 4.2q-0.1 0.2-0.2 0.3-0.2 0.1-0.4 0.2l-2.5 0.6q-0.4 0.1-0.6 0.4-0.6 1.2-1.3 2.4-0.2 0.3-0.2 0.6l0.8 2.8q0 0.1 0 0.3-0.1 0.2-0.2 0.3l-2.9 3.1c-0.2 0.1-0.3 0.2-0.4 0.1q-0.1 0-0.1-0.1l-1.4-2c-0.1-0.2-0.3-0.2-0.5 0q-0.4 0.2-0.8 0.5-0.5 0.2-0.9 0.4-0.4 0.2-0.6 0.6l-1.4 3.8q-0.1 0.2-0.2 0.3-0.2 0.1-0.4 0.1l-2.6 0.3q-0.1 0-0.3 0 0 0-0.1-0.1 0-0.1 0-0.2l0.9-3.7q0-0.2-0.1-0.3-0.1-0.2-0.2-0.2-0.6-0.3-1.2-0.7-0.1-0.1-0.3-0.1-0.2 0.1-0.3 0.2l-2.7 2.5q-0.1 0.1-0.3 0.1 0 0-0.1 0 0 0 0-0.1l-1.3-2.6q0-0.2 0-0.4 0.1-0.1 0.2-0.3l2.6-2.9q0.3-0.3 0.3-0.7-0.1-1.1 0-2.2 0-0.1-0.2-0.2-0.1-0.1-0.2-0.1l-2.3-0.2q-0.1 0-0.1 0-0.1 0-0.1-0.1-0.1 0-0.1-0.1 0-0.1 0-0.1l1.2-4.3q0.1-0.1 0.3-0.3 0.1-0.1 0.3-0.1l2.5-0.6q0.4-0.2 0.6-0.5 0.6-1.2 1.4-2.3 0.2-0.3 0.1-0.7l-0.8-2.7q0-0.2 0.1-0.4 0-0.2 0.1-0.3l2.9-3c0.2-0.2 0.4-0.3 0.5-0.1l1.4 2.1c0.1 0.1 0.3 0.1 0.6 0q0.7-0.6 1.6-1 0.4-0.2 0.6-0.6l1.4-3.9q0.1-0.1 0.3-0.2 0.1-0.2 0.3-0.2l2.7-0.2q0.1-0.1 0.2 0 0.1 0 0.1 0.1 0 0.1 0 0.1l-0.8 3.8q0 0.2 0 0.3 0.1 0.1 0.3 0.2 0.6 0.2 1.1 0.7 0.2 0.1 0.3 0 0.2 0 0.3-0.1l2.7-2.5c0.2-0.1 0.3-0.1 0.4-0.1q0.1 0 0.1 0.1l1.2 2.6q0 0.2 0 0.4-0.1 0.1-0.2 0.3l-2.5 3q-0.2 0.3-0.3 0.7c0.1 0.4 0.1 0.8 0.1 1.1q-0.1 0.6-0.1 1.1 0 0.1 0.1 0.1 0 0.1 0.1 0.2 0 0 0.1 0 0.1 0.1 0.1 0.1l2.3 0.1h0.2q0 0 0 0.1zm-13.4 10.2c1.4-0.4 2.6-1.2 3.5-2.2 2.7-2.9 4-7.2 2.9-9.7q-0.3-0.7-0.8-1.2-0.5-0.5-1.3-0.6h-0.3q-1-0.1-1.8 0.4-0.4 0.1-0.7 0.3-1.1 0.7-2 1.6c-2 2.1-3.1 4.7-3.3 7.6q0 0.4 0 0.7 0.1 0.8 0.4 1.4c0.2 0.5 0.5 1 0.9 1.3 0.5 0.3 1 0.4 1.6 0.4z"/><path class="b" d="m495.4 278.9v35.8c-0.1 1-0.3 1.9-0.8 2.8-0.5 0.8-1.2 1.6-2 2.1l-3.4 2c-1.2 0.6-2.6 0.8-4 0.5q-0.9-0.1-1.6-0.5h-0.1l-0.2-0.1-39.7-22.9c-1.5-0.9-2.6-2-3.5-3.5-0.8-1.4-1.2-3-1.2-4.7v-33.6q0-0.7 0.3-1.2 0.4-0.6 0.9-0.9l6.6-3.8q0.6-0.3 1.2-0.3 0.7 0 1.2 0.3l45 26q0.6 0.3 0.9 0.9 0.3 0.5 0.4 1.1z"/><g style="opacity:.2"><path class="y" d="m495.4 278.9v35.8c-0.1 1-0.3 1.9-0.8 2.8-0.5 0.8-1.2 1.6-2 2.1l-3.4 2c-1.2 0.6-2.6 0.8-4 0.5q-0.9-0.1-1.6-0.5c1.5 0.7 2.7-0.1 2.7-1.9v-34.8q0-1-0.5-1.8l9.2-5.3q0.3 0.5 0.4 1.1z"/></g><g style="opacity:.3"><path class="y" d="m486.4 284.9q-0.1-1-0.6-1.8-0.5-0.8-1.3-1.4l-42.6-24.5c-1.7-1-3-0.2-3 1.7v31.5c0 1.6 0.4 3.3 1.2 4.7 0.8 1.4 2 2.6 3.5 3.4l39.7 23c1.6 1 3 0.1 3-1.8z"/></g><path class="z" d="m438.9 268.4c0.1 1.2 0.4 2.4 1 3.5 0.7 1 1.5 1.9 2.5 2.6l40.5 23.3c1.9 1.1 3.5 0.2 3.5-2v-12q0-0.5 0.2-0.9 0.3-0.5 0.8-0.7l6.2-3.6-46.9-27.7-6.8 3.9q-0.5 0.3-0.8 0.7-0.2 0.5-0.2 1z"/><path class="b" d="m446.7 250.9l-6.8 3.9q-0.5 0.3-0.8 0.8l47.5 27.3q0.3-0.4 0.7-0.7l6.2-3.6z"/><path class="c" d="m459.5 281.6l6.3 3.7q0.7 0.5 1.2 1.3 0.5 0.8 0.5 1.7v1.4c0 1.1-0.7 1.6-1.7 1l-6.3-3.6q-0.8-0.5-1.3-1.3-0.4-0.8-0.5-1.7v-1.4c0-1.2 0.8-1.6 1.8-1.1z"/><path class="e" d="m462.2 257.1v5l-2.9 1.6v-7.6c0-0.4 0.3-0.5 0.6-0.3z"/><path class="u" d="m477.2 262.4v9.2l-2.1 1.3-1.4-0.9v-7.6q-0.1-0.3-0.2-0.6-0.2-0.3-0.4-0.4l-10.9-6.3-2.3-1.3c-0.3-0.2-0.6 0-0.6 0.3v7.6l-1.5-0.8v-9.3c0 0 0 0 0-0.1q0.1-0.3 0.2-0.5 0.2-0.3 0.4-0.4l1-0.6q0.2-0.1 0.6-0.1 0.3 0 0.6 0.1l16 9.3q0.3 0.2 0.4 0.5 0.2 0.2 0.2 0.6z"/><path class="c" d="m475.1 263.6v9.3l-1.4-0.9v-7.6q-0.1-0.3-0.2-0.6-0.2-0.2-0.4-0.4l-10.9-6.3-2.3-1.3c-0.3-0.2-0.6 0-0.6 0.3v7.6l-1.5-0.8v-9.3c0 0 0 0 0-0.1 0.1-0.3 0.3-0.4 0.6-0.2l16 9.2q0.3 0.2 0.5 0.5 0.2 0.3 0.2 0.6z"/><path class="e" d="m450 307.7c0.7 0.3 1.1 1.5 1.4 4.6 0.1 1.9 0.8 4.5-2.1 6-1.1 0.6-2.3 0.9-3.5 0.8-1.2 0-2.4-0.3-3.4-0.8-2.5-1.6-3.3-5.2-6.3-7.5-2.6-2-6.8-4.1-8.2-7.2-1.2-2.6-1.2-6.3 3.1-6.1 5.2 0.2 8.2 4.3 11.8 4.4 2 0.1 6.5 5.6 7.2 5.8z"/><path class="A" d="m450 306.2v3.1c0 1.5-6.5 3.8-8.3 0.3-0.1-0.3-0.8-4.5-0.8-4.5z"/><path class="e" d="m420 325.9c0 0 1.2 0 1.7 5 0.2 1.9 0.6 5.8 0 7.2-0.6 1.4-4.2 2.1-8.2 2.4-3 0.3-5.6 1.7-8.4 3.3-2.6 1.4-5.5 2.2-8.5 2.3-3.7 0-6.9-0.4-9.6-2.5-1.4-1.1-3.2-3.5-1.9-5.3 0.6-0.5 1.3-0.9 2-1q2.5-0.9 5.1-1.8 3.8-1.1 7.4-2.8c3.5-1.7 7.4-3.7 10.1-6.6z"/><path class="A" d="m419.9 323.3c0 0 0 2.3 0 3.6 0 1.3-1.5 3.3-5.5 3.2-2.9-0.1-4.9-0.9-4.8-3.2v-3.4z"/><path class="c" d="m451.8 264.8c-0.7-5.5-2-10.9-3.7-16.2 0 0 1-14 1.5-27.2 0.4-13.6 0-27.2-1.2-40.8 0 0-45.1-4.3-45.8 12.3-0.8 16.6 0.3 58.7 0.9 66 0.6 7.3 1.2 14.1 2.7 27.6 1.3 11.7 3.5 37 3.5 37 1.6 0.8 3.3 1.2 5.1 1.2 1.8-0.1 3.6-0.6 5.1-1.4 0 0 3.4-34 3.8-42.4 0.5-10.9-2-16.9-2-16.9 0 0 1-6.9 2.7-20.9 1.1-10 2.7-21.3 2.7-21.3 0 0 1.6 14 2.5 21.8 0.9 7.3 2.3 13 4.5 26.5 1.9 11.7 7 36.5 7 36.5 5.3 2.9 8.9-0.4 8.9-0.4 0 0 3.3-31.2 1.8-41.4z"/><path class="e" d="m427.1 221.8l2.2-13.9c0 0 8.7-2.8 13.2-8 0 0-2.4 6.1-10.6 9.4l-3.2 11.6-0.6 9.7z"/><path class="b" d="m439.1 125c7-1.7 11.5 1.7 14.1 11.3 2.2 8.2 5.5 25.2 6.8 31.5 0.4 2.4 1.4 5-3.6 8q-10.7 6.2-22.1 11.2l-2.7-10.1 10.9-22.4z"/><path class="v" d="m439.1 125c7-1.7 11.5 1.7 14.1 11.3 2.2 8.2 5.5 25.2 6.8 31.5 0.4 2.4 1.4 5-3.6 8q-10.7 6.2-22.1 11.2l-2.7-10.1 10.9-22.4z"/><path class="A" d="m419.7 120.6l2.1 14.8 13.3-0.5-1.2-17.3z"/><path class="B" d="m410.2 102.3c0 0-3.6 5.2-3.2 5.7 0.4 0.6 2.9 1 2.9 1z"/><path fill-rule="evenodd" class="e" d="m411.3 105.7c-0.8 0-1.7-0.3-2.4-0.8-0.7-0.4-1.2-1.1-1.6-1.9-0.3-0.8-0.3-1.7-0.2-2.5 0.2-0.9 0.6-1.7 1.3-2.3 0.6-0.6 1.4-1 2.2-1.1 0.9-0.2 1.7-0.1 2.5 0.3 0.8 0.3 1.5 0.9 1.9 1.6 0.5 0.7 0.8 1.6 0.7 2.4q0 0.9-0.3 1.7-0.4 0.8-1 1.4-0.6 0.6-1.4 0.9-0.8 0.3-1.7 0.3zm0.1-7.7c-0.6 0-1.3 0.2-1.9 0.5-0.5 0.4-1 0.9-1.2 1.5-0.3 0.6-0.4 1.3-0.3 2 0.2 0.6 0.5 1.3 0.9 1.7 0.5 0.5 1.1 0.9 1.8 1 0.6 0.1 1.3 0.1 1.9-0.2 0.7-0.2 1.2-0.6 1.6-1.2 0.4-0.5 0.6-1.2 0.6-1.9q0-0.6-0.3-1.3-0.2-0.6-0.7-1.1-0.4-0.5-1.1-0.7-0.6-0.3-1.3-0.3z"/><path class="A" d="m420.1 87.8c-7.1 1.4-9.2 4.5-10 15.7-0.9 11.7 0.2 15.4 1.7 17 1 1 6.8 1.3 9.8 0.6 3.6-1 11.9-3.8 15.9-9.6 4.6-6.9 6-16.3 1.2-20.2-6.8-5.5-15.8-4-18.6-3.5z"/><path class="B" d="m419.8 121.4c-3 0.3-7.1 0-8-0.9 2.6 0 5.2-0.5 7.6-1.5z"/><path class="e" d="m409.9 90.6q0.3 0.4 0.6 0.9 1.8 2.3 4.1 4.2c1.2 1.1 2.1 2.5 2.5 4.1 0.5 1.7 0.6 3.7 2.5 4.5 0 0 1.2-4.5 5-3.8 3.7 0.6 4.2 5.5 1.8 8.4-2.5 3-4.7 1.8-4.7 1.8 0 0 0 6.5 2.8 10.2 0 0 3.2 1.1 9.3-0.1 3.7-0.7 9-5.2 11.2-10.1 4.8-10.3 5.3-19.6-1.2-22.5-0.2 0-0.7-2.4-0.9-2.7q-0.6-1.3-1.6-2.2c-1.5-1.5-3.4-2.4-5.4-2.7-5.4-0.8-10.9 0.3-16.2-0.8-2.4-0.5-4.8-1.4-7.2-0.7-1.1 0.5-2.1 1.2-2.8 2.2-0.8 1-1.2 2.1-1.3 3.3-0.2 2.1 0.4 4.2 1.5 6z"/><path class="e" d="m442.9 90.6l4.3-2.5c-0.3-0.5-0.9-1-1.5-1.1-0.6-0.2-1.3-0.1-1.9 0.2-0.5 0.3-0.9 0.9-1.1 1.5-0.2 0.6-0.1 1.3 0.2 1.9z"/><path class="e" d="m419.5 106.9l0.2-4.9q-0.5 0-0.9 0.1-0.5 0.2-0.9 0.5c-0.4 0.5-0.7 1.1-0.7 1.7-0.1 0.7 0.2 1.3 0.6 1.8 0.4 0.5 1.1 0.8 1.7 0.8z"/><path class="e" d="m407.5 100.4l13.1 1.9-0.6 0.9-12.5-1.8z"/><path class="b" d="m449.8 132.8c-1.5-6.1-3.7-8.1-9-8.2q-4.1 0.3-8.1 1c-0.6 2.6-7.2 4.3-13.9 2.9-2 0.6-7.3 2-8.9 2.7-4.8 1.7-7 6.6-7.4 22.3 0 0-0.9 37.1 0 43.5 12 4.7 24.4 4.5 31.3 2.9 14.2-3.2 16-9.1 16-9.1 0 0-0.8-14.9-1.3-26.2 0.7-7.3 1.8-12.7 2.2-18.4 0.3-4.5 0-9-0.9-13.4z"/><path class="n" d="m449.8 132.8c-1.5-6.1-3.7-8.1-9-8.2q-4.1 0.3-8.1 1c-0.6 2.6-7.2 4.3-13.9 2.9-2 0.6-7.3 2-8.9 2.7-4.8 1.7-7 6.6-7.4 22.3 0 0-0.9 37.1 0 43.5 12 4.7 24.4 4.5 31.3 2.9 14.2-3.2 16-9.1 16-9.1 0 0-0.8-14.9-1.3-26.2 0.7-7.3 1.8-12.7 2.2-18.4 0.3-4.5 0-9-0.9-13.4z"/><path class="b" d="m434.2 121.8l0.1 1.4c0 0-0.7 2-4.8 2.8-6.8 1.2-9.1-0.9-9.1-0.9l-0.2-1.2c0 0-0.7-0.3-1.8 0.6q-2.5 2.6-4.7 5.5c0 0 1.3-0.4 5.6 1.4 4.2 1.7 8.9 1.9 13.2 0.5 1.2-0.4 2.3-1.1 3.2-2 0.8-1 1.4-2.2 1.7-3.4 0.1-1.2-2.1-5.2-3.2-4.7z"/><path class="v" d="m434.2 121.8l0.1 1.4c0 0-0.7 2-4.8 2.8-6.8 1.2-9.1-0.9-9.1-0.9l-0.2-1.2c0 0-0.7-0.3-1.8 0.6q-2.5 2.6-4.7 5.5c0 0 1.3-0.4 5.6 1.4 4.2 1.7 8.9 1.9 13.2 0.5 1.2-0.4 2.3-1.1 3.2-2 0.8-1 1.4-2.2 1.7-3.4 0.1-1.2-2.1-5.2-3.2-4.7z"/><path class="A" d="m411 130.8c-9.5 1-10.3 3.7-13.6 14-3.1 9.8-6.6 22.8-7.2 25.1-0.7 3.3-0.6 12.2 1.6 14.3 2.2 2 6.6 5.3 10.6-5.2 3.6-9.8 9.2-25.6 9.2-25.6 0 0 4-13.9-0.6-22.6z"/><path class="c" d="m388.7 148.1l-8.6-26.3q0-0.1-0.1-0.2-0.1 0-0.2-0.1l-1.1-0.3q-0.1-0.1-0.2-0.1-0.1 0-0.2 0.1l-12.9 7.5q-0.3 0.1-0.3 0.3-0.1 0.3 0 0.5l9.3 25.8q0 0.1 0.1 0.1 0.1 0.1 0.2 0.1 0.1 0.1 0.2 0.1 0.1 0 0.2-0.1l0.4-0.2 0.1 0.3q0 0.1 0.1 0.2 0.1 0.1 0.2 0.1 0.1 0.1 0.2 0.1 0.1-0.1 0.2-0.1l12-7q0.2-0.1 0.3-0.4 0.1-0.2 0.1-0.4z"/><path class="u" d="m379.5 121.6l-13 7.5q-0.2 0.1-0.3 0.3 0 0.3 0 0.5l9.4 25.7q0 0.1 0.1 0.2 0.1 0.1 0.2 0.1 0.1 0.1 0.2 0.1 0.1-0.1 0.2-0.1l12-7q0.2-0.1 0.3-0.4 0.1-0.2 0.1-0.4l-8.6-26.3q0-0.1-0.1-0.2-0.1 0-0.1-0.1-0.1 0-0.2 0-0.2 0-0.2 0.1z"/><path class="a" d="m368.1 131.4l11.9-6.7 7.1 21.9-11.2 6.3z"/><path class="c" d="m372.8 127.5q-0.1 0-0.1-0.1-0.1 0-0.1-0.1-0.1-0.1-0.1-0.2 0.1-0.1 0.2-0.2l2.8-1.6q0.1-0.1 0.2-0.1 0.1 0.1 0.2 0.2 0.1 0.1 0 0.2 0 0.1-0.1 0.1l-2.9 1.7q0 0-0.1 0.1z"/><path class="c" d="m372 127.7q0 0.1-0.1 0.2-0.1 0.1-0.2 0.1-0.1 0-0.2-0.1 0-0.1 0-0.2 0 0 0-0.1 0 0 0-0.1 0.1 0 0.1 0 0.1 0 0.1 0 0.1 0 0.2 0 0.1 0.1 0.1 0.2z"/><path class="c" d="m382.9 150.9q0 0.2-0.1 0.4-0.1 0.1-0.3 0.2-0.2 0.1-0.4 0.1-0.3-0.1-0.4-0.2-0.2-0.2-0.2-0.4 0-0.2 0-0.4 0.1-0.2 0.3-0.3 0.2-0.2 0.4-0.2 0.2 0 0.3 0.1 0.1 0 0.2 0.1 0.1 0.1 0.2 0.3 0 0.1 0 0.3z"/><path class="A" d="m374.5 146.3q0.2-1.4 0.5-2.8c0.3-0.9 0.9-1.7 1.6-2.4q0.3-0.2 0.7-0.3 0.4-0.1 0.8 0 0.2 0.2 0.3 0.4 0.1 0.2 0.1 0.5 0 0.5-0.1 1c-0.2 1.3-0.2 2.7 0.2 4 0.2 0.7 0.5 1.3 0.7 1.9q0.3 1 0.4 2.2c0.3 1.3 0.8 2.6 1.6 3.8 1.1 1.7 16.8 17.3 16.8 17.3l-2.4 14.2c-4.3 0.4-14.4-14-17.7-18.7-3.2-4.5-6-7.3-9-11.2-2.4-3-3.9-11.7-3.1-17.3 0.1-1.2 0.6-2.4 1.4-3.4l2.8 7.7 2.3 3.7c0.4 0.5 1 1 1.6 0.5q0.4-0.4 0.5-1.1z"/><path class="b" d="m411.8 130.6c0 0-5.1-0.1-8.8 2-3.7 2-5.5 9.7-6.6 13.4-1.2 3.6-5 18.3-5 18.3l-8.1-7.4c0 0-5.1 1.5-6.8 8.5 0 0 2.6 4 7.2 10.6 4.7 6.5 9.5 11.7 13 11 3.5-0.8 5.3-4.5 8.7-13.1 3.4-8.7 8-23.4 8-23.4 0 0 2.5-12.4-1.6-19.9z"/><path class="v" d="m411.8 130.6c0 0-5.1-0.1-8.8 2-3.7 2-5.5 9.7-6.6 13.4-1.2 3.6-5 18.3-5 18.3l-8.1-7.4c0 0-5.1 1.5-6.8 8.5 0 0 2.6 4 7.2 10.6 4.7 6.5 9.5 11.7 13 11 3.5-0.8 5.3-4.5 8.7-13.1 3.4-8.7 8-23.4 8-23.4 0 0 2.5-12.4-1.6-19.9z"/><path class="v" d="m391.4 164.3c0 0-0.9 2.9-1.6 6.1q0-3.5 0.7-7z"/></svg>