<svg width="25" height="25" viewBox="0 0 25 25" fill="none" xmlns="http://www.w3.org/2000/svg">
<g clip-path="url(#clip0_908_1501)">
<path d="M19.5002 1.33057H11.8243C11.3385 1.33057 10.8719 1.52398 10.5282 1.86771L0.536917 11.8572C-0.178973 12.5731 -0.178973 13.7335 0.536917 14.4503L8.2128 22.1262C8.92869 22.8421 10.0891 22.8421 10.805 22.1262L20.7963 12.1367C21.1401 11.7921 21.3335 11.3255 21.3335 10.8388V3.16383C21.3335 2.15095 20.5131 1.33057 19.5002 1.33057ZM16.292 7.74699C15.533 7.74699 14.917 7.13102 14.917 6.37204C14.917 5.61307 15.533 4.9971 16.292 4.9971C17.051 4.9971 17.6669 5.61307 17.6669 6.37204C17.6669 7.13102 17.051 7.74699 16.292 7.74699Z" fill="black"/>
<path d="M23.1669 3.16357L23.166 11.6965C23.166 12.1191 22.9983 12.5251 22.6985 12.824L12.5459 22.9766L12.7017 23.1324C13.4176 23.8483 14.5781 23.8483 15.294 23.1324L24.4621 13.9661C24.8068 13.6223 25.0002 13.1558 25.0002 12.67V4.99684C25.0002 3.98396 24.1798 3.16357 23.1669 3.16357Z" fill="black"/>
</g>
<defs>
<clipPath id="clip0_908_1501">
<rect width="25" height="25" fill="white"/>
</clipPath>
</defs>
</svg>
