<svg width="39" height="39" viewBox="0 0 39 39" fill="none" xmlns="http://www.w3.org/2000/svg">
<g clip-path="url(#clip0_1853_25236)">
<path d="M22.1993 7.99443H26.5045L19.915 1.0625V5.70124C19.915 6.95778 20.9341 7.99443 22.1993 7.99443Z" fill="black"/>
<path d="M15.0567 25.4786H7.42169C7.03518 25.4786 6.71889 25.1626 6.71889 24.7758C6.71889 24.3892 7.03518 24.073 7.42169 24.073H15.5224C15.9702 22.931 16.5677 21.9642 17.3059 20.9978H7.42169C7.03518 20.9978 6.71889 20.6818 6.71889 20.295C6.71889 19.9085 7.03518 19.5922 7.42169 19.5922H18.6413C20.7497 17.7471 23.5436 16.57 26.5923 16.57C26.8821 16.57 27.1195 16.5962 27.4709 16.6227V9.40067H22.1993C20.1611 9.40067 18.5094 7.73143 18.5094 5.70187V0H5.0321C3.29235 0 1.9043 1.42316 1.9043 3.17154V29.9858C1.9043 31.7342 3.29235 33.1222 5.0321 33.1222H15.6188C15.0127 31.7166 14.6788 30.1352 14.6788 28.4835C14.6699 27.4468 14.8106 26.445 15.0567 25.4786ZM7.42169 15.1992H16.3219C16.7084 15.1992 17.0247 15.5155 17.0247 15.9023C17.0247 16.2889 16.7084 16.6051 16.3219 16.6051H7.42169C7.03518 16.6051 6.71889 16.2889 6.71889 15.9023C6.71889 15.5155 7.03518 15.1992 7.42169 15.1992Z" fill="black"/>
<path d="M26.5829 18.002C20.7932 18.002 16.084 22.7109 16.084 28.5009C16.084 34.2905 20.7932 38.9998 26.5829 38.9998C32.3728 38.9998 37.0821 34.2905 37.0821 28.5009C37.0821 22.7109 32.3728 18.002 26.5829 18.002ZM32.1973 28.6589C32.0655 28.782 31.8896 28.8436 31.7227 28.8436C31.5382 28.8436 31.3537 28.7645 31.213 28.6237L27.2946 24.4066V34.4399C27.2946 34.8267 26.9783 35.143 26.5918 35.143C26.2053 35.143 25.889 34.8267 25.889 34.4399V24.398L21.9531 28.6151C21.6895 28.8963 21.2324 28.9139 20.9512 28.6502C20.6704 28.3866 20.6525 27.9385 20.9161 27.6573L26.0646 22.131C26.1964 21.9906 26.3809 21.9114 26.5829 21.9114C26.7852 21.9114 26.9608 21.9906 27.1015 22.131L32.25 27.6573C32.496 27.9474 32.4782 28.3955 32.1973 28.6589Z" fill="black"/>
</g>
<defs>
<clipPath id="clip0_1853_25236">
<rect width="39" height="39" fill="white"/>
</clipPath>
</defs>
</svg>
