<svg width="47" height="47" viewBox="0 0 47 47" fill="none" xmlns="http://www.w3.org/2000/svg">
<g id="upload 1" clip-path="url(#clip0_1010_19615)">
<path id="Vector" d="M31.334 37.2087H15.6673C15.1479 37.2087 14.6498 37.0023 14.2826 36.6351C13.9153 36.2678 13.709 35.7697 13.709 35.2503C13.709 34.7309 13.9153 34.2328 14.2826 33.8656C14.6498 33.4983 15.1479 33.292 15.6673 33.292H31.334C31.8534 33.292 32.3515 33.4983 32.7187 33.8656C33.086 34.2328 33.2923 34.7309 33.2923 35.2503C33.2923 35.7697 33.086 36.2678 32.7187 36.6351C32.3515 37.0023 31.8534 37.2087 31.334 37.2087Z" fill="black"/>
<path id="Vector_2" d="M46.0036 9.36039C45.7061 7.26055 44.7384 5.31294 43.2446 3.80751C41.7507 2.30207 39.8107 1.31932 37.7132 1.00556C28.3104 -0.326755 18.767 -0.329985 9.36338 0.99596C7.26308 1.29297 5.31489 2.26045 3.80896 3.75432C2.30302 5.24819 1.3199 7.18852 1.006 9.28637C-0.33211 18.6888 -0.33534 28.2331 0.9964 37.6364C1.29345 39.7366 2.26095 41.6848 3.75481 43.1907C5.24868 44.6966 7.18899 45.6797 9.28681 45.9936C13.995 46.6627 18.7445 46.9988 23.5 46.9996C28.2298 46.9986 32.9537 46.6656 37.6368 46.0032C39.7371 45.7061 41.6852 44.7386 43.1911 43.2447C44.697 41.7509 45.6801 39.8106 45.994 37.7127C46.6631 33.0046 46.9993 28.2551 47 23.4996C46.999 18.769 46.6661 14.0443 46.0036 9.36039ZM42.1157 37.1621C41.9242 38.4205 41.3313 39.5835 40.4253 40.4777C39.5194 41.3719 38.3488 41.9496 37.0879 42.1247C28.0489 43.3991 18.8756 43.3959 9.83749 42.1153C8.57903 41.9237 7.41609 41.3308 6.52187 40.4249C5.62765 39.5189 5.04998 38.3483 4.87488 37.0875C3.59412 28.0489 3.59729 18.8747 4.88428 9.83705C5.07582 8.57859 5.66873 7.41565 6.5747 6.52143C7.48067 5.62721 8.65125 5.04954 9.9121 4.87444C18.9506 3.59368 28.1249 3.59685 37.1625 4.88384C38.4207 5.07525 39.5834 5.66786 40.4776 6.57345C41.3718 7.47904 41.9497 8.64919 42.1251 9.90971C42.7616 14.4111 43.0818 18.9534 43.0833 23.4996C43.0829 28.0708 42.7595 32.6364 42.1157 37.1621Z" fill="black"/>
<path id="Vector_3" d="M22.1148 10.3658C22.2966 10.1839 22.5124 10.0396 22.75 9.94112C22.9876 9.84267 23.2422 9.79199 23.4994 9.79199C23.7565 9.79199 24.0112 9.84267 24.2487 9.94112C24.4863 10.0396 24.7021 10.1839 24.8839 10.3658L28.8006 14.2824C29.1573 14.6518 29.3547 15.1465 29.3502 15.6599C29.3458 16.1734 29.1398 16.6646 28.7767 17.0277C28.4136 17.3908 27.9225 17.5967 27.409 17.6012C26.8955 17.6056 26.4008 17.4082 26.0315 17.0515L25.4577 16.4779V29.3753C25.4577 29.8947 25.2514 30.3928 24.8841 30.7601C24.5169 31.1273 24.0188 31.3336 23.4994 31.3336C22.98 31.3336 22.4819 31.1273 22.1146 30.7601C21.7474 30.3928 21.541 29.8947 21.541 29.3753V16.4779L20.9672 17.0515C20.5979 17.4082 20.1032 17.6056 19.5898 17.6012C19.0763 17.5967 18.5851 17.3908 18.222 17.0277C17.8589 16.6646 17.653 16.1734 17.6485 15.6599C17.644 15.1465 17.8414 14.6518 18.1982 14.2824L22.1148 10.3658Z" fill="black"/>
</g>
<defs>
<clipPath id="clip0_1010_19615">
<rect width="47" height="47" fill="white"/>
</clipPath>
</defs>
</svg>
