<svg width="70" height="71" viewBox="0 0 70 71" fill="none" xmlns="http://www.w3.org/2000/svg">
<rect x="0.5" y="1" width="69" height="69" rx="10.5" fill="white" stroke="#D7D7D7"/>
<g clip-path="url(#clip0_1010_108351)">
<path d="M35 20.5039C26.7166 20.5039 20 27.2192 20 35.5032C20 43.7873 26.7159 50.5026 35 50.5026C43.2847 50.5026 50 43.7873 50 35.5032C50 27.2192 43.2847 20.5039 35 20.5039ZM35 24.9889C37.7409 24.9889 39.962 27.2106 39.962 29.9502C39.962 32.6905 37.7409 34.9116 35 34.9116C32.2604 34.9116 30.0393 32.6905 30.0393 29.9502C30.0393 27.2106 32.2604 24.9889 35 24.9889ZM34.9967 46.5809C32.263 46.5809 29.7593 45.5854 27.8281 43.9375C27.3577 43.5363 27.0862 42.9479 27.0862 42.3305C27.0862 39.552 29.335 37.3283 32.1141 37.3283H37.8872C40.667 37.3283 42.9072 39.552 42.9072 42.3305C42.9072 42.9486 42.637 43.5356 42.1659 43.9369C40.2354 45.5854 37.731 46.5809 34.9967 46.5809Z" fill="black"/>
</g>
<defs>
<clipPath id="clip0_1010_108351">
<rect width="30" height="30" fill="white" transform="translate(20 20.5039)"/>
</clipPath>
</defs>
</svg>
