<svg width="117" height="117" viewBox="0 0 117 117" fill="none" xmlns="http://www.w3.org/2000/svg">
<g clip-path="url(#clip0_1010_47426)">
<path d="M73.7964 14.3153L114.641 85.0598C116.139 87.6542 117 90.6619 117 93.8728C117 103.624 109.095 111.529 99.3438 111.529H58.4998L44.375 58.5006L58.4998 5.47266C65.0399 5.47266 70.7452 9.03133 73.7964 14.3153Z" fill="#808080"/>
<path d="M43.2034 14.3153L2.35897 85.0598C0.861275 87.6542 0 90.6619 0 93.8728C0 103.624 7.90481 111.529 17.656 111.529H58.5V5.47266C51.9599 5.47266 46.2545 9.03133 43.2034 14.3153Z" fill="#808080"/>
<path d="M108.524 88.591L67.6801 17.8471C65.8392 14.6573 62.4588 12.6445 58.8027 12.541L93.7357 104.467H99.3432C105.184 104.467 109.937 99.7145 109.937 93.8736C109.937 92.0185 109.447 90.1918 108.524 88.591Z" fill="#C9C9C9"/>
<path d="M101.656 88.5903C102.454 90.191 102.875 92.0178 102.875 93.8729C102.875 99.7135 98.7768 104.466 93.7364 104.466H17.656C11.8154 104.466 7.0625 99.7135 7.0625 93.8729C7.0625 92.0178 7.55221 90.191 8.47496 88.5903L49.3189 17.8464C51.2117 14.5695 54.7288 12.5332 58.5 12.5332C58.6012 12.5332 58.7025 12.5355 58.8037 12.5403C61.9417 12.6628 64.8397 14.6707 66.4192 17.8464L101.656 88.5903Z" fill="white"/>
<path d="M58.5 80.9238V92.6944C61.7511 92.6944 64.3854 90.0601 64.3854 86.809C64.3854 83.5582 61.7511 80.9238 58.5 80.9238Z" fill="#808080"/>
<path d="M58.5007 80.9238C59.1503 80.9238 59.6777 83.5582 59.6777 86.8092C59.6777 90.0603 59.1503 92.6947 58.5007 92.6947C55.2496 92.6947 52.6152 90.0603 52.6152 86.8092C52.6152 83.5582 55.2496 80.9238 58.5007 80.9238Z" fill="#808080"/>
<path d="M58.5 30.3125V73.8639C61.7511 73.8639 64.3854 71.2273 64.3854 67.9785V36.1979C64.3854 32.9468 61.7511 30.3125 58.5 30.3125Z" fill="#808080"/>
<path d="M58.5007 30.3125C59.1503 30.3125 59.6777 32.9468 59.6777 36.1979V67.9785C59.6777 71.2271 59.1503 73.8639 58.5007 73.8639C55.2496 73.8639 52.6152 71.2273 52.6152 67.9785V36.1979C52.6152 32.9468 55.2496 30.3125 58.5007 30.3125Z" fill="#808080"/>
</g>
<defs>
<clipPath id="clip0_1010_47426">
<rect width="117" height="117" fill="white"/>
</clipPath>
</defs>
</svg>
