<svg width="31" height="40" viewBox="0 0 31 40" fill="none" xmlns="http://www.w3.org/2000/svg">
<g clip-path="url(#clip0_1395_86523)">
<path d="M9.52497 0H30.9999V40H1.7298C1.79945 39.8955 1.8765 39.796 1.96039 39.7021C4.95264 36.7667 7.94596 33.8333 10.9403 30.9021C11.0317 30.8125 11.1295 30.7271 11.2219 30.6417C16.0971 34.4281 22.5396 33.3271 26.0589 29.2385C27.7982 27.2346 28.7084 24.6646 28.6101 22.0352C28.5117 19.4058 27.4119 16.908 25.5276 15.0344C23.6687 13.171 21.1687 12.0527 18.5148 11.8973C15.8608 11.7419 13.2429 12.5605 11.1709 14.1937C6.84299 17.5885 5.56469 24.0823 9.48246 28.9385L0.000976562 38.1802V9.375H9.52603L9.52497 0ZM16.7017 4.66042H26.1959V2.36354H16.7017V4.66042ZM26.1991 9.35833V7.06667H16.7049V9.35833H26.1991ZM11.9296 4.66562H14.2673V2.37396H11.9296V4.66562ZM11.9296 7.04688V9.35312H14.2673V7.04688H11.9296Z" fill="black"/>
<path d="M17.8758 14.2188C20.0902 14.224 22.2122 15.089 23.7775 16.6244C25.3428 18.1599 26.2238 20.2407 26.2278 22.4115C26.2283 23.4896 26.0122 24.5573 25.5918 25.5536C25.1714 26.5499 24.555 27.4552 23.7776 28.218C23.0003 28.9807 22.0773 29.5858 21.0614 29.9988C20.0455 30.4118 18.9565 30.6246 17.8567 30.625C13.262 30.6156 9.52066 26.9271 9.52491 22.4115C9.52939 20.2411 10.4105 18.1607 11.9754 16.6254C13.5403 15.0901 15.6618 14.2248 17.8758 14.2188ZM12.7095 22.4083L16.6644 26.2958L22.9975 20.0802L21.3239 18.4469L16.5848 23.1042L14.3012 20.851L12.7095 22.4083Z" fill="black"/>
<path d="M7.12139 0.832031V7.00078H0.839355L7.12139 0.832031Z" fill="black"/>
</g>
<defs>
<clipPath id="clip0_1395_86523">
<rect width="31" height="40" fill="white"/>
</clipPath>
</defs>
</svg>
