<svg width="14" height="14" viewBox="0 0 14 14" fill="none" xmlns="http://www.w3.org/2000/svg">
<g clip-path="url(#clip0_1010_34783)">
<path d="M2.51913 11.7876C2.65913 11.7876 2.68713 11.7736 2.81313 11.7456L5.33313 11.2416C5.59913 11.1716 5.86513 11.0456 6.07513 10.8356L12.1791 4.73159C13.1171 3.79359 13.1171 2.18359 12.1791 1.24559L11.6611 0.699594C10.7231 -0.238406 9.09913 -0.238406 8.16113 0.699594L2.05713 6.81759C1.86113 7.01359 1.72113 7.29359 1.65113 7.55959L1.11913 10.1076C1.04913 10.5836 1.18913 11.0456 1.52513 11.3816C1.79113 11.6476 2.18313 11.7876 2.51913 11.7876ZM2.99513 7.82559L9.09913 1.70759C9.50513 1.30159 10.2471 1.30159 10.6391 1.70759L11.1711 2.23959C11.6471 2.71559 11.6471 3.38759 11.1711 3.84959L5.08113 9.96759L2.49113 10.4016L2.99513 7.82559Z" fill="black"/>
<path d="M12.1212 12.6553H1.78919C1.38319 12.6553 1.11719 12.9213 1.11719 13.3273C1.11719 13.7333 1.45319 13.9993 1.78919 13.9993H12.0652C12.4712 13.9993 12.8072 13.7333 12.8072 13.3273C12.7932 12.9213 12.4572 12.6553 12.1212 12.6553Z" fill="black"/>
</g>
<defs>
<clipPath id="clip0_1010_34783">
<rect width="14" height="14" fill="white"/>
</clipPath>
</defs>
</svg>
