<svg width="29" height="36" viewBox="0 0 29 36" fill="none" xmlns="http://www.w3.org/2000/svg">
<path d="M20.7203 35.5C19.1871 35.5 17.7084 34.6446 16.9961 33.1895L14.9347 29.3297L13.7652 31.562C13.7353 31.6192 13.7012 31.6743 13.6634 31.7268C12.8959 32.7918 11.6332 33.1703 10.6983 33.1703C10.6908 33.1703 10.6833 33.1703 10.6757 33.1703C9.63087 33.1634 8.5905 32.715 7.82151 31.9401C7.02286 31.1354 6.5831 30.0671 6.5831 28.9319V11.2298C6.5831 9.61524 7.49284 8.18979 8.95718 7.50975C10.4076 6.83613 12.0659 7.05023 13.2959 8.06681L22.3022 14.7737C22.9078 15.2247 23.0331 16.0812 22.5822 16.6868C22.1311 17.2924 21.2746 17.4177 20.669 16.9667L11.6324 10.2372C11.6101 10.2206 11.5882 10.2033 11.5669 10.1852C10.9484 9.66295 10.2947 9.90358 10.1089 9.98978C9.92324 10.076 9.31757 10.4202 9.31757 11.2298V28.932C9.31757 29.813 10.0428 30.4317 10.6938 30.4359C10.6958 30.4359 10.698 30.4359 10.7001 30.4359C10.9661 30.4359 11.2587 30.3257 11.4044 30.1763L13.7121 25.7713C13.9471 25.3226 14.4111 25.0406 14.9177 25.0386C14.9195 25.0386 14.9214 25.0386 14.9232 25.0386C15.4277 25.0386 15.8913 25.3164 16.1292 25.7617L19.4208 31.9247C19.4301 31.942 19.439 31.9596 19.4474 31.9774C19.7756 32.6611 20.6026 32.9586 21.2908 32.64C21.6335 32.4815 21.8921 32.1985 22.019 31.843C22.1421 31.4984 22.1263 31.1281 21.9752 30.7965L18.6532 24.885C18.4153 24.4616 18.4198 23.9438 18.6651 23.5247C18.9103 23.1056 19.3595 22.848 19.8451 22.848H24.5324C25.3256 22.8075 25.6424 22.1828 25.721 21.9909C25.8016 21.7941 26.0207 21.1051 25.4546 20.5046C24.9367 19.9552 24.9621 19.09 25.5115 18.572C26.0609 18.0539 26.9262 18.0795 27.4441 18.6288C28.5659 19.8187 28.8753 21.504 28.2514 23.0273C27.631 24.5421 26.2367 25.5208 24.6129 25.5815C24.596 25.5822 24.579 25.5824 24.5619 25.5824H22.1817L24.3826 29.499C24.3961 29.523 24.4089 29.5475 24.421 29.5723C24.9084 30.5776 24.9699 31.7107 24.5941 32.7628C24.2183 33.815 23.4529 34.6528 22.4389 35.1218C21.8836 35.3784 21.298 35.4999 20.7203 35.5ZM8.129 5.8691C8.79113 5.50604 9.03347 4.67499 8.67041 4.01292L7.50829 1.89376C7.14523 1.2317 6.31431 0.98936 5.65217 1.35242C4.99004 1.71548 4.7477 2.54653 5.11076 3.2086L6.27288 5.32776C6.52158 5.78126 6.98971 6.03782 7.47288 6.03782C7.69505 6.03782 7.9205 5.98354 8.129 5.8691ZM5.23784 8.97819C5.54047 8.28638 5.22499 7.48021 4.53326 7.17758L2.34574 6.22054C1.65393 5.91785 0.847831 6.2334 0.545133 6.92513C0.242503 7.61693 0.557985 8.4231 1.24972 8.72573L3.43724 9.68277C3.61559 9.76084 3.80153 9.79776 3.98453 9.79776C4.51125 9.79769 5.01321 9.49157 5.23784 8.97819ZM13.759 4.55584L14.511 2.29996C14.7497 1.58361 14.3626 0.8093 13.6463 0.570587C12.9302 0.331668 12.1556 0.718928 11.9169 1.43527L11.1649 3.69115C10.9262 4.4075 11.3133 5.18181 12.0296 5.42053C12.173 5.46838 12.3188 5.49107 12.4621 5.49107C13.0345 5.49107 13.5681 5.1287 13.759 4.55584ZM17.3773 8.02491L19.223 6.65771C19.8298 6.20824 19.9573 5.35203 19.5079 4.74527C19.0584 4.1385 18.2021 4.01101 17.5954 4.46041L15.7497 5.82761C15.1429 6.27708 15.0155 7.13329 15.4648 7.74005C15.7331 8.10215 16.1461 8.29356 16.5646 8.29356C16.8474 8.29356 17.1326 8.20613 17.3773 8.02491ZM2.44226 15.7153L4.49306 14.895C5.19416 14.6145 5.53514 13.8188 5.25473 13.1178C4.97425 12.4166 4.17847 12.0756 3.47757 12.3561L1.42677 13.1765C0.725672 13.4569 0.384692 14.2526 0.665105 14.9536C0.878935 15.4882 1.39232 15.8134 1.93489 15.8134C2.10395 15.8134 2.27574 15.7819 2.44226 15.7153Z" fill="black"/>
</svg>
