<svg width="34" height="34" viewBox="0 0 34 34" fill="none" xmlns="http://www.w3.org/2000/svg">
<g clip-path="url(#clip0_1277_20287)">
<path d="M17 24.9688C21.401 24.9688 24.9688 21.401 24.9688 17C24.9688 12.599 21.401 9.03125 17 9.03125C12.599 9.03125 9.03125 12.599 9.03125 17C9.03125 21.401 12.599 24.9688 17 24.9688Z" stroke="black" stroke-width="2.5" stroke-miterlimit="10" stroke-linecap="round" stroke-linejoin="round"/>
<path d="M17 19.6562C18.467 19.6562 19.6562 18.467 19.6562 17C19.6562 15.533 18.467 14.3438 17 14.3438C15.533 14.3438 14.3438 15.533 14.3438 17C14.3438 18.467 15.533 19.6562 17 19.6562Z" stroke="black" stroke-width="2.5" stroke-miterlimit="10" stroke-linecap="round" stroke-linejoin="round"/>
<path d="M32.6719 17C32.6719 17 25.802 24.9688 17 24.9688C8.19798 24.9688 1.32812 17 1.32812 17C1.32812 17 8.19798 9.03125 17 9.03125C25.802 9.03125 32.6719 17 32.6719 17Z" stroke="black" stroke-width="2.5" stroke-miterlimit="10" stroke-linecap="round" stroke-linejoin="round"/>
<path d="M17 3.98438V1.32812" stroke="black" stroke-width="2.5" stroke-miterlimit="10" stroke-linecap="round" stroke-linejoin="round"/>
<path d="M17 32.6719V30.0156" stroke="black" stroke-width="2.5" stroke-miterlimit="10" stroke-linecap="round" stroke-linejoin="round"/>
<path d="M10.3594 5.49764L9.03125 3.19727" stroke="black" stroke-width="2.5" stroke-miterlimit="10" stroke-linecap="round" stroke-linejoin="round"/>
<path d="M24.9688 30.8023L23.6406 28.502" stroke="black" stroke-width="2.5" stroke-miterlimit="10" stroke-linecap="round" stroke-linejoin="round"/>
<path d="M23.6406 5.49764L24.9688 3.19727" stroke="black" stroke-width="2.5" stroke-miterlimit="10" stroke-linecap="round" stroke-linejoin="round"/>
<path d="M9.03125 30.8023L10.3594 28.502" stroke="black" stroke-width="2.5" stroke-miterlimit="10" stroke-linecap="round" stroke-linejoin="round"/>
</g>
<defs>
<clipPath id="clip0_1277_20287">
<rect width="34" height="34" fill="white"/>
</clipPath>
</defs>
</svg>
