<svg width="14" height="20" viewBox="0 0 14 20" fill="none" xmlns="http://www.w3.org/2000/svg">
<path d="M2.37714 7.92698V4.84286C2.37714 2.17263 4.54978 0 7.22 0C9.89022 0 12.0629 2.17263 12.0629 4.84286V7.92698C13.1878 8.32816 14 9.3932 14 10.6543V16.5303C14 18.1326 12.6966 19.436 11.0943 19.436H3.34571C1.74344 19.436 0.44 18.1326 0.44 16.5303V10.6543C0.44 9.3932 1.25218 8.32816 2.37714 7.92698ZM6.25143 14.5931C6.25143 15.1285 6.68464 15.5617 7.22 15.5617C7.75536 15.5617 8.18857 15.1285 8.18857 14.5931V12.656C8.18857 12.1206 7.75536 11.6874 7.22 11.6874C6.68464 11.6874 6.25143 12.1206 6.25143 12.656V14.5931ZM4.31429 7.74857H10.1257V4.84286C10.1257 3.24058 8.82228 1.93714 7.22 1.93714C5.61772 1.93714 4.31429 3.24058 4.31429 4.84286V7.74857Z" fill="black"/>
</svg>
