<svg width="253" height="193" viewBox="0 0 253 193" fill="none" xmlns="http://www.w3.org/2000/svg">
<g clip-path="url(#clip0_500_3079)">
<path d="M180.591 67.4828C141.754 65.1747 119.253 47.9446 119.253 47.9446C119.253 47.9446 96.7583 65.1679 57.9144 67.4828C57.9144 84.8884 52.8186 160.187 119.253 174.042C185.68 160.187 180.591 84.8884 180.591 67.4828Z" fill="white"/>
<path d="M198.335 54.8961C148.257 51.9198 119.253 29.709 119.253 29.709C119.253 29.709 90.2482 51.9198 40.1707 54.8961C40.1707 77.3364 33.6064 174.413 119.253 192.278C204.899 174.42 198.335 77.3364 198.335 54.8961ZM119.253 174.029C52.8186 160.173 57.9144 84.875 57.9144 67.4694C96.7515 65.1613 119.253 47.9312 119.253 47.9312C119.253 47.9312 141.747 65.1545 180.591 67.4694C180.591 84.875 185.687 160.173 119.253 174.029Z" fill="#808080"/>
<path d="M111.565 138.151L91.6894 113.16C88.8066 109.536 89.4156 104.265 93.0496 101.39C96.6836 98.5146 101.969 99.1221 104.845 102.746L114.563 114.962L145.049 92.1504C148.758 89.3766 154.022 90.1257 156.804 93.8241C159.585 97.5226 158.834 102.773 155.126 105.554L111.558 138.151H111.565Z" fill="#808080"/>
<g opacity="0.7">
<path d="M241.657 137.132L243.485 135.384C244.141 134.756 244.161 133.717 243.532 133.069L241.827 131.294C241.197 130.639 241.218 129.607 241.874 128.979L242.036 128.824C242.693 128.196 243.728 128.217 244.358 128.871L246.063 130.646C246.692 131.301 247.734 131.321 248.384 130.693L250.211 128.946C250.868 128.318 251.903 128.338 252.532 128.993C253.162 129.647 253.141 130.68 252.485 131.308L250.658 133.056C250.001 133.683 249.981 134.723 250.611 135.371L252.316 137.146C252.945 137.8 252.925 138.833 252.269 139.46L252.099 139.622C251.443 140.25 250.408 140.23 249.778 139.575L248.073 137.8C247.443 137.145 246.401 137.125 245.752 137.753L243.925 139.501C243.268 140.129 242.233 140.108 241.603 139.454C240.974 138.799 240.994 137.76 241.651 137.139L241.657 137.132Z" fill="url(#paint0_linear_500_3079)"/>
<path d="M80.4352 20.7059H80.4149C80.1713 20.7059 79.9412 20.6047 79.772 20.4225L79.1562 19.7813C79.102 19.7273 79.0344 19.7003 78.9599 19.6936C78.8516 19.6936 78.8178 19.7206 78.7637 19.7678L78.1005 20.4022C77.735 20.7532 77.1598 20.7397 76.8079 20.3752C76.6388 20.1997 76.5508 19.9703 76.5508 19.7273C76.5508 19.4843 76.6591 19.2549 76.8282 19.0862L77.4914 18.4518C77.5997 18.3438 77.6065 18.1751 77.4982 18.0603L76.8824 17.4192C76.5305 17.0547 76.544 16.4811 76.9094 16.1301L76.9703 16.0761C77.3358 15.7319 77.911 15.7387 78.2629 16.1031L78.8787 16.7443C78.987 16.8523 79.1629 16.859 79.2712 16.751L79.9344 16.1166C80.1103 15.9479 80.3337 15.8534 80.5841 15.8602C80.8277 15.8602 81.0578 15.9614 81.2269 16.1436C81.3961 16.3191 81.4841 16.5486 81.4841 16.7915C81.4841 17.0345 81.3758 17.2639 81.1999 17.4327L80.5367 18.0671C80.4825 18.1211 80.4555 18.1885 80.4555 18.2628C80.4555 18.337 80.4825 18.4045 80.5299 18.4585L81.1457 19.0997C81.3149 19.2751 81.4029 19.5046 81.4029 19.7476C81.4029 19.9905 81.3014 20.22 81.1254 20.3887L81.0645 20.4494C80.8953 20.6114 80.672 20.6992 80.4352 20.6992V20.7059ZM78.9599 19.0659H78.9802C79.2238 19.0659 79.4539 19.1671 79.6231 19.3494L80.2389 19.9905C80.2931 20.0445 80.3607 20.0715 80.4352 20.0783C80.4961 20.0783 80.5773 20.0513 80.6314 20.004L80.6923 19.9433C80.7465 19.896 80.7735 19.8218 80.7735 19.7543C80.7735 19.6801 80.7465 19.6126 80.6991 19.5586L80.0833 18.9174C79.9141 18.742 79.8261 18.5125 79.8329 18.2695C79.8329 18.0266 79.9412 17.7971 80.1171 17.6351L80.7803 17.0007C80.8344 16.9467 80.8615 16.8792 80.8615 16.805C80.8615 16.7308 80.8344 16.6633 80.7871 16.6093C80.7329 16.5553 80.6653 16.5283 80.5908 16.5216C80.5231 16.5216 80.4487 16.5486 80.3946 16.5958L79.7314 17.2302C79.366 17.5744 78.7907 17.5676 78.4388 17.2032L77.823 16.562C77.7147 16.4541 77.5388 16.4473 77.4305 16.5553L77.3696 16.6093C77.2613 16.7173 77.2546 16.8927 77.3628 17.0007L77.9787 17.6419C78.3306 18.0063 78.317 18.58 77.9516 18.9309L77.2884 19.5653C77.2343 19.6193 77.2072 19.6868 77.2072 19.7611C77.2072 19.8353 77.2343 19.9028 77.2816 19.9568C77.3358 20.0108 77.4035 20.0378 77.4779 20.0445C77.5456 20.0445 77.62 20.0175 77.6741 19.9703L78.3373 19.3359C78.5065 19.1739 78.7298 19.0794 78.9667 19.0794L78.9599 19.0659Z" fill="url(#paint1_linear_500_3079)"/>
<path d="M13.3446 68.3331L10.8339 68.2791C9.93389 68.2589 9.1895 68.9742 9.17596 69.8651L9.12859 72.3015C9.10829 73.1991 8.36389 73.9077 7.47062 73.8875H7.24053C6.34049 73.8672 5.62993 73.1249 5.65023 72.2272L5.6976 69.7909C5.7179 68.8933 5.00058 68.1509 4.1073 68.1374L1.60342 68.0834C0.703378 68.0631 -0.00718199 67.3207 0.0131197 66.4299C0.0334214 65.5323 0.777818 64.8236 1.67109 64.8439L4.17497 64.8979C5.07502 64.9181 5.81941 64.2027 5.83295 63.3119L5.88032 60.8755C5.90062 59.9779 6.64501 59.2692 7.53829 59.2895H7.76838C8.66842 59.3097 9.37898 60.0521 9.35868 60.9497L9.31131 63.3861C9.29101 64.2837 10.0083 65.0261 10.9016 65.0396L13.4055 65.0936C14.3055 65.1138 15.0161 65.8562 14.9958 66.7471C14.9755 67.6447 14.2311 68.3533 13.3378 68.3398L13.3446 68.3331Z" fill="url(#paint2_linear_500_3079)"/>
<path d="M215.164 8.74664C214.758 8.74664 214.352 8.69264 213.946 8.57116C211.625 7.90302 210.285 5.47339 210.955 3.1585C211.28 2.03817 212.024 1.10681 213.053 0.54665C214.081 -0.0135132 215.259 -0.148492 216.389 0.175458C218.71 0.843605 220.05 3.27323 219.38 5.58812C218.825 7.49808 217.066 8.73989 215.171 8.73989L215.164 8.74664ZM215.164 0.634387C214.541 0.634387 213.926 0.789613 213.364 1.10006C212.484 1.57924 211.848 2.37562 211.571 3.33397C211.293 4.29232 211.401 5.30467 211.889 6.17528C212.369 7.05265 213.168 7.68705 214.129 7.96376C216.105 8.53742 218.196 7.39684 218.771 5.4194C219.346 3.44195 218.203 1.36327 216.22 0.789613C215.875 0.688379 215.523 0.641136 215.171 0.641136L215.164 0.634387Z" fill="url(#paint3_linear_500_3079)"/>
<path d="M27.8466 170.911C27.4338 170.911 27.021 170.85 26.6217 170.735C24.3006 170.067 22.9606 167.637 23.6306 165.322C24.3073 163.008 26.7435 161.671 29.0647 162.339C31.3859 163.008 32.7258 165.437 32.0558 167.752C31.731 168.872 30.9866 169.804 29.958 170.364C29.3015 170.722 28.5774 170.911 27.8534 170.911H27.8466ZM27.8466 162.798C26.2224 162.798 24.7201 163.865 24.2464 165.491C23.6712 167.469 24.8149 169.547 26.7977 170.121C27.7586 170.398 28.7737 170.29 29.6467 169.804C30.5264 169.325 31.1625 168.528 31.44 167.57C32.0152 165.592 30.8715 163.514 28.8887 162.94C28.5436 162.839 28.1917 162.792 27.8466 162.792V162.798Z" fill="url(#paint4_linear_500_3079)"/>
<path d="M67.1986 180.818C67.1241 180.818 67.0429 180.791 66.982 180.737C66.7655 180.541 66.5489 180.339 66.3391 180.143C66.2105 180.022 66.2038 179.826 66.3256 179.698C66.4474 179.569 66.6437 179.563 66.7722 179.684C66.982 179.88 67.1986 180.082 67.4151 180.278C67.5437 180.4 67.5505 180.595 67.4354 180.724C67.3745 180.791 67.2865 180.825 67.1986 180.825V180.818ZM65.1752 178.908C65.094 178.908 65.0127 178.881 64.9518 178.82C64.4917 178.375 64.0383 177.929 63.5916 177.477C63.4698 177.356 63.4698 177.153 63.5916 177.025C63.7134 176.904 63.9165 176.904 64.0383 177.025C64.4849 177.471 64.9315 177.916 65.3917 178.361C65.5203 178.483 65.5203 178.685 65.3917 178.807C65.3308 178.868 65.2496 178.901 65.1616 178.901L65.1752 178.908ZM62.4886 176.202C62.4074 176.202 62.3194 176.168 62.2585 176.101C61.8186 175.642 61.3855 175.176 60.9524 174.703C60.8306 174.575 60.8441 174.373 60.9727 174.258C61.1013 174.143 61.3043 174.15 61.4193 174.278C61.8457 174.744 62.2788 175.203 62.7187 175.662C62.8405 175.79 62.8337 175.993 62.7051 176.107C62.6442 176.168 62.563 176.195 62.4886 176.195V176.202ZM59.9102 173.394C59.8223 173.394 59.7343 173.36 59.6734 173.286C59.2538 172.807 58.8343 172.328 58.4215 171.842C58.3064 171.707 58.3267 171.511 58.4553 171.396C58.5906 171.282 58.7937 171.302 58.9019 171.43C59.3147 171.909 59.7275 172.389 60.1471 172.868C60.2621 172.996 60.2486 173.198 60.12 173.313C60.0591 173.367 59.9847 173.394 59.9102 173.394ZM57.4402 170.492C57.3455 170.492 57.2575 170.452 57.1966 170.377C56.7905 169.885 56.3913 169.385 55.9988 168.886C55.8905 168.751 55.9108 168.548 56.0529 168.44C56.1883 168.332 56.3913 168.353 56.4996 168.494C56.8921 168.987 57.2913 169.487 57.6906 169.972C57.7989 170.107 57.7853 170.31 57.6432 170.418C57.5823 170.465 57.5146 170.492 57.4402 170.492ZM55.0784 167.502C54.9837 167.502 54.889 167.462 54.8281 167.374C54.4423 166.868 54.0634 166.355 53.6844 165.842C53.5829 165.7 53.6099 165.505 53.7521 165.397C53.8942 165.295 54.0904 165.322 54.1987 165.464C54.5709 165.977 54.9499 166.483 55.3356 166.989C55.4439 167.131 55.4168 167.327 55.2747 167.435C55.2138 167.475 55.1461 167.502 55.0852 167.502H55.0784ZM52.8249 164.432C52.7234 164.432 52.6287 164.384 52.5678 164.297C52.2024 163.777 51.8369 163.25 51.4783 162.724C51.3768 162.582 51.4174 162.38 51.5662 162.285C51.7084 162.184 51.9114 162.225 52.0061 162.366C52.3648 162.886 52.7234 163.412 53.0889 163.925C53.1904 164.067 53.1565 164.27 53.0144 164.371C52.9603 164.411 52.8926 164.432 52.8317 164.432H52.8249ZM50.6797 161.28C50.5782 161.28 50.4767 161.233 50.4158 161.138C50.0639 160.605 49.7188 160.072 49.3804 159.532C49.2857 159.383 49.3331 159.188 49.4819 159.093C49.6308 158.999 49.8271 159.046 49.9218 159.194C50.2602 159.728 50.6053 160.261 50.9504 160.794C51.0452 160.942 51.0046 161.138 50.8557 161.233C50.8015 161.266 50.7406 161.287 50.6797 161.287V161.28ZM48.6428 158.061C48.5345 158.061 48.433 158.007 48.3721 157.905C48.0405 157.359 47.7157 156.812 47.3909 156.265C47.3029 156.117 47.3503 155.921 47.5059 155.833C47.6548 155.746 47.851 155.793 47.939 155.948C48.2571 156.495 48.5819 157.041 48.9135 157.581C49.0015 157.73 48.9541 157.926 48.8052 158.02C48.7511 158.054 48.6969 158.067 48.6428 158.067V158.061ZM46.7141 154.774C46.6059 154.774 46.4976 154.713 46.4367 154.612C46.1254 154.058 45.8141 153.498 45.5096 152.938C45.4284 152.783 45.4825 152.594 45.6381 152.506C45.7938 152.425 45.9833 152.479 46.0712 152.634C46.3758 153.188 46.6803 153.741 46.9916 154.295C47.0796 154.45 47.0254 154.639 46.8698 154.727C46.8224 154.754 46.7683 154.767 46.7141 154.767V154.774ZM44.9005 151.433C44.7855 151.433 44.6772 151.372 44.6163 151.264C44.3253 150.704 44.0343 150.137 43.7501 149.57C43.6689 149.415 43.7365 149.226 43.8922 149.145C44.0478 149.064 44.2373 149.132 44.3185 149.287C44.6028 149.847 44.8937 150.414 45.1847 150.974C45.2659 151.129 45.205 151.318 45.0494 151.399C45.002 151.426 44.9546 151.433 44.9005 151.433ZM43.1952 148.045C43.0801 148.045 42.9651 147.978 42.9109 147.87C42.6335 147.296 42.3628 146.722 42.0921 146.149C42.0177 145.987 42.0921 145.798 42.2478 145.73C42.4102 145.656 42.5929 145.73 42.6673 145.885C42.9312 146.459 43.2019 147.026 43.4794 147.593C43.5538 147.748 43.4929 147.944 43.3305 148.018C43.2831 148.038 43.2358 148.052 43.1952 148.052V148.045ZM41.5913 144.603C41.4695 144.603 41.3545 144.536 41.3003 144.414C41.0432 143.834 40.786 143.253 40.5356 142.673C40.468 142.511 40.5356 142.322 40.7048 142.254C40.8672 142.187 41.0567 142.254 41.1244 142.423C41.3748 143.004 41.6319 143.577 41.8891 144.158C41.9635 144.32 41.8891 144.509 41.7267 144.576C41.6861 144.596 41.6387 144.603 41.5981 144.603H41.5913ZM40.0822 141.121C39.9604 141.121 39.8386 141.046 39.7912 140.925C39.5476 140.338 39.3108 139.751 39.0739 139.163C39.0062 139.001 39.0875 138.819 39.2499 138.752C39.4123 138.684 39.6018 138.765 39.6627 138.927C39.8995 139.514 40.1364 140.095 40.38 140.682C40.4477 140.844 40.3732 141.033 40.2108 141.094C40.1702 141.107 40.1296 141.121 40.089 141.121H40.0822ZM38.6747 137.598C38.5461 137.598 38.4243 137.523 38.3769 137.395C38.1468 136.801 37.9235 136.207 37.7069 135.607C37.646 135.445 37.7272 135.263 37.8964 135.202C38.0588 135.141 38.2415 135.222 38.3025 135.391C38.5258 135.985 38.7423 136.579 38.9724 137.173C39.0333 137.334 38.9521 137.517 38.7897 137.584C38.7491 137.598 38.7153 137.604 38.6747 137.604V137.598ZM37.355 134.021C37.2265 134.021 37.0979 133.94 37.0573 133.812C36.8475 133.211 36.6377 132.61 36.4347 132.01C36.3806 131.841 36.4685 131.665 36.6309 131.605C36.7934 131.551 36.9761 131.638 37.037 131.8C37.24 132.401 37.4498 132.995 37.6596 133.596C37.7205 133.764 37.6325 133.94 37.4633 134C37.4295 134.014 37.3956 134.021 37.355 134.021ZM36.1302 130.417C35.9948 130.417 35.873 130.329 35.8256 130.201C35.6294 129.593 35.4331 128.986 35.2437 128.385C35.1895 128.217 35.2843 128.041 35.4534 127.987C35.6226 127.933 35.7986 128.028 35.8527 128.196C36.0422 128.797 36.2317 129.404 36.4347 130.005C36.4888 130.174 36.4009 130.349 36.2317 130.403C36.1978 130.417 36.164 130.417 36.1302 130.417ZM34.9933 126.779C34.8579 126.779 34.7293 126.691 34.6887 126.55C34.506 125.942 34.3301 125.328 34.1541 124.721C34.1068 124.552 34.2015 124.376 34.3707 124.329C34.5399 124.282 34.7158 124.376 34.7632 124.545C34.9391 125.153 35.1151 125.76 35.2978 126.367C35.3452 126.536 35.2504 126.712 35.0812 126.766C35.0542 126.772 35.0203 126.779 34.9933 126.779ZM33.9444 123.121C33.8022 123.121 33.6737 123.027 33.6398 122.885C33.4706 122.271 33.3082 121.657 33.1458 121.043C33.0984 120.874 33.2 120.698 33.3759 120.658C33.5451 120.617 33.721 120.712 33.7616 120.887C33.924 121.501 34.0865 122.109 34.2556 122.723C34.303 122.892 34.2015 123.067 34.0323 123.114C34.0053 123.121 33.9782 123.128 33.9511 123.128L33.9444 123.121ZM32.9766 119.436C32.8345 119.436 32.7059 119.342 32.6653 119.193C32.5097 118.572 32.3608 117.958 32.2119 117.337C32.1713 117.169 32.2796 116.993 32.4488 116.953C32.618 116.912 32.7939 117.02 32.8345 117.189C32.9834 117.803 33.1323 118.417 33.2879 119.038C33.3285 119.207 33.227 119.382 33.0578 119.423C33.0308 119.423 33.0037 119.429 32.9834 119.429L32.9766 119.436ZM32.0901 115.731C31.948 115.731 31.8127 115.63 31.7788 115.481C31.6367 114.86 31.4946 114.24 31.366 113.619C31.3254 113.45 31.4405 113.281 31.6097 113.241C31.7856 113.2 31.948 113.315 31.9886 113.484C32.124 114.105 32.2593 114.719 32.4014 115.34C32.442 115.508 32.3337 115.684 32.1646 115.718C32.1375 115.718 32.1172 115.724 32.0969 115.724L32.0901 115.731ZM31.2781 112.006C31.1292 112.006 31.0006 111.904 30.9668 111.749C30.8382 111.122 30.7096 110.501 30.5878 109.88C30.554 109.711 30.669 109.542 30.8382 109.509C31.0141 109.475 31.1765 109.59 31.2104 109.758C31.3322 110.379 31.4608 111 31.5894 111.621C31.6232 111.79 31.5149 111.958 31.3457 111.999C31.3254 111.999 31.3051 111.999 31.2781 111.999V112.006ZM30.5404 108.267C30.3916 108.267 30.2562 108.159 30.2291 108.01C30.1141 107.383 29.999 106.755 29.884 106.134C29.8502 105.959 29.9652 105.797 30.1412 105.77C30.3103 105.736 30.4795 105.851 30.5066 106.026C30.6149 106.647 30.7299 107.275 30.845 107.896C30.8788 108.071 30.7637 108.233 30.5878 108.267C30.5675 108.267 30.5472 108.267 30.5269 108.267H30.5404ZM29.8772 104.514C29.7216 104.514 29.593 104.406 29.5659 104.251C29.4577 103.623 29.3562 102.996 29.2614 102.368C29.2344 102.193 29.3562 102.031 29.5253 102.004C29.6945 101.977 29.8637 102.091 29.8908 102.267C29.9923 102.888 30.0938 103.515 30.1953 104.143C30.2224 104.319 30.1073 104.481 29.9314 104.508C29.9111 104.508 29.8975 104.508 29.8772 104.508V104.514ZM29.2817 100.748C29.1261 100.748 28.9907 100.634 28.9704 100.478C28.8757 99.8508 28.7877 99.2164 28.6997 98.5887C28.6727 98.4132 28.7945 98.2513 28.9704 98.231C29.1396 98.204 29.302 98.3255 29.3291 98.501C29.4171 99.1286 29.505 99.7563 29.5998 100.384C29.6269 100.559 29.505 100.721 29.3359 100.742C29.3223 100.742 29.302 100.742 29.2885 100.742L29.2817 100.748ZM28.7539 96.9757C28.5982 96.9757 28.4629 96.861 28.4358 96.699C28.3546 96.0646 28.2734 95.4369 28.199 94.8093C28.1787 94.6338 28.3005 94.4786 28.4764 94.4584C28.6456 94.4314 28.808 94.5596 28.8283 94.7351C28.9028 95.3627 28.984 95.9904 29.0652 96.6248C29.0855 96.8002 28.9637 96.9555 28.7877 96.9825C28.7742 96.9825 28.7606 96.9825 28.7471 96.9825L28.7539 96.9757ZM28.2869 93.1963C28.1245 93.1963 27.9892 93.0748 27.9689 92.9128C27.8944 92.2784 27.8268 91.644 27.7591 91.0164C27.7388 90.8409 27.8674 90.6857 28.0433 90.6654C28.2125 90.6452 28.3749 90.7734 28.3952 90.9489C28.4629 91.5765 28.5306 92.2042 28.605 92.8386C28.6253 93.0141 28.4967 93.1693 28.3275 93.1895C28.314 93.1895 28.3005 93.1895 28.2937 93.1895L28.2869 93.1963ZM27.8809 89.4101C27.7185 89.4101 27.5831 89.2886 27.5628 89.1267C27.5019 88.4923 27.441 87.8579 27.3869 87.2302C27.3734 87.0547 27.5019 86.8995 27.6779 86.886C27.8403 86.8725 28.0095 87.0007 28.023 87.1762C28.0772 87.8039 28.1381 88.4383 28.199 89.0727C28.2125 89.2481 28.0907 89.4034 27.9147 89.4169C27.9012 89.4169 27.8944 89.4169 27.8809 89.4169V89.4101ZM27.5358 85.6172C27.3734 85.6172 27.2312 85.489 27.2177 85.327C27.1636 84.6926 27.1162 84.0582 27.0688 83.4238C27.0553 83.2483 27.1839 83.0998 27.3598 83.0863C27.5358 83.0728 27.6847 83.2011 27.705 83.3766C27.7523 84.0042 27.7997 84.6386 27.8538 85.273C27.8674 85.4485 27.7388 85.6037 27.5628 85.6172C27.5561 85.6172 27.5425 85.6172 27.5358 85.6172ZM27.2448 81.8175C27.0824 81.8175 26.9403 81.6893 26.9267 81.5206C26.8861 80.8794 26.8455 80.245 26.8049 79.6174C26.7914 79.4419 26.9267 79.2934 27.1027 79.2799C27.2719 79.2732 27.4275 79.4014 27.441 79.5769C27.4816 80.2045 27.5222 80.8389 27.5628 81.4733C27.5764 81.6488 27.441 81.7973 27.2651 81.8108C27.2583 81.8108 27.2515 81.8108 27.2448 81.8108V81.8175ZM27.0147 78.0179C26.8455 78.0179 26.7034 77.8897 26.6966 77.7209C26.6628 77.0798 26.629 76.4454 26.6019 75.8177C26.5951 75.6422 26.7305 75.4938 26.9064 75.487C27.0756 75.4803 27.2312 75.6153 27.238 75.7907C27.2651 76.4184 27.2989 77.0528 27.3328 77.6939C27.3395 77.8694 27.2109 78.0179 27.035 78.0314C27.035 78.0314 27.0215 78.0314 27.0147 78.0314V78.0179ZM26.832 74.2115C26.6628 74.2115 26.5207 74.0765 26.5139 73.9078C26.4869 73.2666 26.4666 72.6322 26.4395 72.0046C26.4395 71.8291 26.5681 71.6806 26.744 71.6739C26.92 71.6536 27.0688 71.8021 27.0756 71.9776C27.0959 72.6052 27.123 73.2396 27.15 73.8808C27.1568 74.0562 27.0215 74.2047 26.8455 74.2115C26.8455 74.2115 26.8388 74.2115 26.832 74.2115ZM26.7034 70.4051C26.5342 70.4051 26.3921 70.2701 26.3853 70.0946C26.365 69.4535 26.3515 68.819 26.338 68.1914C26.338 68.0159 26.4733 67.8742 26.6493 67.8674C26.8455 67.8674 26.9741 68.0024 26.9741 68.1779C26.9876 68.8055 27.0079 69.44 27.0215 70.0811C27.0215 70.2566 26.8861 70.4051 26.7102 70.4051H26.7034ZM26.6154 66.5986C26.4395 66.5986 26.2974 66.4569 26.2974 66.2882C26.2838 65.6403 26.2771 65.0059 26.2703 64.3782C26.2703 64.2028 26.4124 64.061 26.5816 64.0543C26.7508 64.0475 26.8997 64.196 26.9064 64.3715C26.9132 64.9991 26.92 65.6335 26.9335 66.2747C26.9335 66.4502 26.7981 66.5919 26.6222 66.5986H26.6154ZM26.5748 62.7855C26.3989 62.7855 26.2568 62.6437 26.2568 62.4683C26.2568 61.8204 26.2568 61.186 26.25 60.5583C26.25 60.3829 26.3921 60.2411 26.5681 60.2411C26.744 60.2411 26.8861 60.3829 26.8861 60.5583C26.8861 61.1792 26.8861 61.8136 26.8929 62.4615C26.8929 62.637 26.7508 62.7787 26.5748 62.7787V62.7855ZM26.5748 58.9791C26.3989 58.9791 26.2568 58.8373 26.2568 58.6619C26.2568 58.014 26.2568 57.3796 26.2635 56.7587C26.2635 56.5832 26.4056 56.4415 26.5816 56.4415C26.7575 56.4415 26.8997 56.5832 26.8997 56.7587C26.8997 57.3796 26.8929 58.014 26.8929 58.6619C26.8929 58.8373 26.7508 58.9791 26.5748 58.9791ZM26.6019 55.1727C26.4259 55.1727 26.2838 55.0309 26.2838 54.8555C26.2838 54.2008 26.2974 53.5664 26.3041 52.9522C26.3041 52.7768 26.4462 52.6418 26.6222 52.6418C26.7981 52.6418 26.9403 52.7903 26.9335 52.9657C26.9267 53.5799 26.92 54.2143 26.9132 54.869C26.9132 55.0444 26.7711 55.1861 26.5951 55.1861L26.6019 55.1727ZM26.6493 51.3662C26.4733 51.3662 26.3312 51.2178 26.338 51.0423L26.365 49.1391C26.365 48.9636 26.5072 48.8286 26.6831 48.8286C26.8591 48.8286 27.0012 48.9771 26.9944 49.1526L26.9673 51.0558C26.9673 51.2313 26.8252 51.3662 26.6493 51.3662ZM26.6966 47.5598C26.5207 47.5598 26.3786 47.4113 26.3786 47.2426C26.3853 46.5677 26.3921 45.9333 26.3921 45.3394C26.3921 45.1639 26.5342 45.0222 26.7102 45.0222C26.8861 45.0222 27.0282 45.1639 27.0282 45.3394C27.0282 45.9333 27.0282 46.5677 27.0147 47.2494C27.0147 47.4248 26.8726 47.5666 26.6966 47.5666V47.5598Z" fill="url(#paint5_linear_500_3079)"/>
<path d="M70.0742 183.039C68.2809 182.33 65.8514 181.675 64.0107 181.648L66.853 180.137L68.0643 177.167C68.2876 178.996 69.1809 181.338 70.0742 183.039Z" fill="url(#paint6_linear_500_3079)"/>
<path d="M172.889 179.468L172.449 179.009C212.823 140.588 211.909 75.2577 211.564 50.6645L211.544 49.1663H212.18L212.2 50.651C212.376 62.9746 212.694 85.9143 207.903 110.103C202.056 139.582 190.281 162.92 172.889 179.468Z" fill="url(#paint7_linear_500_3079)"/>
<path d="M211.827 45.3328C212.518 47.128 213.688 49.3484 214.913 50.7252L211.875 49.6656L208.863 50.7927C210.061 49.3956 211.178 47.1415 211.827 45.3328Z" fill="url(#paint8_linear_500_3079)"/>
<path d="M207.098 177.383H206.604C206.428 177.369 206.279 177.511 206.279 177.687V178.166C206.265 178.341 206.116 178.483 205.94 178.476H205.893C205.717 178.476 205.575 178.328 205.582 178.152V177.673C205.595 177.498 205.453 177.349 205.277 177.349H204.783C204.607 177.336 204.465 177.187 204.472 177.012C204.472 176.836 204.621 176.694 204.797 176.701H205.291C205.467 176.715 205.616 176.573 205.616 176.398V175.918C205.629 175.743 205.778 175.601 205.954 175.608H206.001C206.177 175.608 206.319 175.756 206.313 175.932V176.411C206.299 176.586 206.441 176.735 206.617 176.735H207.111C207.287 176.748 207.429 176.897 207.422 177.072C207.422 177.248 207.274 177.39 207.098 177.383Z" fill="url(#paint9_linear_500_3079)"/>
</g>
<path d="M68.0312 192.325H84.6719" stroke="#808080" stroke-width="2" stroke-linecap="round" stroke-linejoin="round"/>
<path d="M133.748 192.325H136.996" stroke="#808080" stroke-width="2" stroke-linecap="round" stroke-linejoin="round"/>
<path d="M89.8691 192.325H130.479" stroke="#808080" stroke-width="2" stroke-linecap="round" stroke-linejoin="round"/>
<path d="M139.791 192.325H170.48" stroke="#808080" stroke-width="2" stroke-linecap="round" stroke-linejoin="round"/>
</g>
<defs>
<linearGradient id="paint0_linear_500_3079" x1="241.145" y1="123.947" x2="252.991" y2="123.947" gradientUnits="userSpaceOnUse">
<stop offset="0.04" stop-color="#808080"/>
<stop offset="0.84" stop-color="#808080"/>
</linearGradient>
<linearGradient id="paint1_linear_500_3079" x1="76.5508" y1="13.9816" x2="81.4841" y2="13.9816" gradientUnits="userSpaceOnUse">
<stop offset="0.04" stop-color="#808080"/>
<stop offset="0.84" stop-color="#808080"/>
</linearGradient>
<linearGradient id="paint2_linear_500_3079" x1="0.0126953" y1="53.7806" x2="14.9963" y2="53.7806" gradientUnits="userSpaceOnUse">
<stop offset="0.04" stop-color="#808080"/>
<stop offset="0.84" stop-color="#808080"/>
</linearGradient>
<linearGradient id="paint3_linear_500_3079" x1="210.782" y1="-3.29696" x2="219.553" y2="-3.29696" gradientUnits="userSpaceOnUse">
<stop offset="0.04" stop-color="#808080"/>
<stop offset="0.84" stop-color="#808080"/>
</linearGradient>
<linearGradient id="paint4_linear_500_3079" x1="23.458" y1="158.868" x2="32.2284" y2="158.868" gradientUnits="userSpaceOnUse">
<stop offset="0.04" stop-color="#808080"/>
<stop offset="0.84" stop-color="#808080"/>
</linearGradient>
<linearGradient id="paint5_linear_500_3079" x1="26.25" y1="-6.21939" x2="67.5171" y2="-6.21939" gradientUnits="userSpaceOnUse">
<stop offset="0.04" stop-color="#808080"/>
<stop offset="0.84" stop-color="#808080"/>
</linearGradient>
<linearGradient id="paint6_linear_500_3079" x1="64.0107" y1="174.952" x2="70.0742" y2="174.952" gradientUnits="userSpaceOnUse">
<stop offset="0.04" stop-color="#808080"/>
<stop offset="0.84" stop-color="#808080"/>
</linearGradient>
<linearGradient id="paint7_linear_500_3079" x1="172.449" y1="8.97926e-05" x2="212.281" y2="8.97926e-05" gradientUnits="userSpaceOnUse">
<stop offset="0.04" stop-color="#808080"/>
<stop offset="0.84" stop-color="#808080"/>
</linearGradient>
<linearGradient id="paint8_linear_500_3079" x1="208.863" y1="43.2726" x2="214.913" y2="43.2726" gradientUnits="userSpaceOnUse">
<stop offset="0.04" stop-color="#808080"/>
<stop offset="0.84" stop-color="#808080"/>
</linearGradient>
<linearGradient id="paint9_linear_500_3079" x1="204.472" y1="174.525" x2="207.423" y2="174.525" gradientUnits="userSpaceOnUse">
<stop offset="0.04" stop-color="#808080"/>
<stop offset="0.84" stop-color="#808080"/>
</linearGradient>
<clipPath id="clip0_500_3079">
<rect width="253" height="193" fill="white"/>
</clipPath>
</defs>
</svg>
